<svg width="602" height="685" viewBox="0 0 602 685" fill="none" xmlns="http://www.w3.org/2000/svg">
<rect y="4.06238" width="446.74" height="680.939" rx="37" fill="#FAFFFA"/>
<path d="M407.414 685.002H39.9186C17.908 685.002 0 667.093 0 645.076V43.9924C0 21.9755 17.908 4.06238 39.9186 4.06238H407.414C429.424 4.06238 447.333 21.9755 447.333 43.9924V645.076C447.333 667.093 429.424 685.002 407.414 685.002ZM39.9186 14.3717C23.591 14.3717 10.3061 27.6601 10.3061 43.9924V645.076C10.3061 661.404 23.591 674.692 39.9186 674.692H407.414C423.742 674.692 437.026 661.404 437.026 645.076V43.9924C437.026 27.6579 423.742 14.3717 407.414 14.3717H39.9186Z" fill="black"/>
<path d="M359.358 616.66H87.9608C75.0832 616.66 64.6113 606.2 64.6113 593.342V99.4467C64.6113 86.5926 75.0832 76.1331 87.9608 76.1331H359.358C372.236 76.1331 382.714 86.5926 382.714 99.4467V593.342C382.714 606.2 372.236 616.66 359.358 616.66ZM87.9608 86.4172C80.7665 86.4172 74.9119 92.2611 74.9119 99.4467V593.342C74.9119 600.527 80.7665 606.376 87.9608 606.376H359.358C366.557 606.376 372.411 600.527 372.411 593.342V99.4467C372.411 92.2611 366.557 86.4172 359.358 86.4172H87.9608Z" fill="black"/>
<path d="M350.414 133.292H96.9258V222.758H350.414V133.292Z" fill="black"/>
<path d="M144.559 267.462H101.008C98.7987 267.462 97.0078 269.253 97.0078 271.462V308.158C97.0078 310.367 98.7987 312.158 101.008 312.158H144.559C146.768 312.158 148.559 310.367 148.559 308.158V271.462C148.559 269.253 146.768 267.462 144.559 267.462Z" fill="black"/>
<path d="M291.115 268.045H167.801C165.592 268.045 163.801 269.836 163.801 272.045V308.719C163.801 310.928 165.592 312.719 167.801 312.719H291.115C293.324 312.719 295.115 310.928 295.115 308.719V272.045C295.115 269.836 293.324 268.045 291.115 268.045Z" fill="black"/>
<path d="M291.115 331.672H167.801C165.592 331.672 163.801 333.462 163.801 335.672V372.346C163.801 374.555 165.592 376.346 167.801 376.346H291.115C293.324 376.346 295.115 374.555 295.115 372.346V335.672C295.115 333.462 293.324 331.672 291.115 331.672Z" fill="black"/>
<path d="M291.115 396.652H167.801C165.592 396.652 163.801 398.442 163.801 400.652V437.326C163.801 439.535 165.592 441.326 167.801 441.326H291.115C293.324 441.326 295.115 439.535 295.115 437.326V400.652C295.115 398.442 293.324 396.652 291.115 396.652Z" fill="black"/>
<path d="M291.115 461.632H167.801C165.592 461.632 163.801 463.423 163.801 465.632V502.306C163.801 504.515 165.592 506.306 167.801 506.306H291.115C293.324 506.306 295.115 504.515 295.115 502.306V465.632C295.115 463.423 293.324 461.632 291.115 461.632Z" fill="black"/>
<path d="M144.559 332.023H101.008C98.7987 332.023 97.0078 333.814 97.0078 336.023V372.718C97.0078 374.927 98.7987 376.718 101.008 376.718H144.559C146.768 376.718 148.559 374.927 148.559 372.718V336.023C148.559 333.814 146.768 332.023 144.559 332.023Z" fill="black"/>
<path d="M144.559 396.583H101.008C98.7987 396.583 97.0078 398.374 97.0078 400.583V437.278C97.0078 439.488 98.7987 441.278 101.008 441.278H144.559C146.768 441.278 148.559 439.488 148.559 437.278V400.583C148.559 398.374 146.768 396.583 144.559 396.583Z" fill="black"/>
<path d="M144.559 461.142H101.008C98.7987 461.142 97.0078 462.933 97.0078 465.142V501.838C97.0078 504.047 98.7987 505.838 101.008 505.838H144.559C146.768 505.838 148.559 504.047 148.559 501.838V465.142C148.559 462.933 146.768 461.142 144.559 461.142Z" fill="black"/>
<path d="M132.984 171.691C132.984 173.632 132.144 175.107 130.464 176.115C131.379 176.451 132.144 177.029 132.76 177.851C133.376 178.672 133.684 179.839 133.684 181.351C133.684 182.844 133.124 184.029 132.004 184.907C130.903 185.784 129.316 186.223 127.244 186.223H120.636C120.319 186.223 120.057 186.12 119.852 185.915C119.647 185.691 119.544 185.401 119.544 185.047V167.127C119.544 166.921 119.572 166.791 119.628 166.735C119.703 166.66 119.843 166.623 120.048 166.623H126.432C130.8 166.623 132.984 168.312 132.984 171.691ZM124.92 171.159V174.827H125.06C126.852 174.827 127.748 174.229 127.748 173.035C127.748 172.381 127.571 171.905 127.216 171.607C126.88 171.308 126.311 171.159 125.508 171.159H124.92ZM124.92 178.131V181.771H125.424C126.227 181.771 126.815 181.621 127.188 181.323C127.561 181.024 127.748 180.548 127.748 179.895C127.748 179.241 127.571 178.784 127.216 178.523C126.88 178.261 126.311 178.131 125.508 178.131H124.92ZM149.021 186.279C147.397 186.279 146.52 186.017 146.389 185.495L145.465 181.883H141.013L140.201 185.355C140.089 185.933 139.193 186.223 137.513 186.223C136.617 186.223 135.954 186.176 135.525 186.083C135.096 185.971 134.881 185.887 134.881 185.831L139.837 166.875C139.837 166.725 141.116 166.651 143.673 166.651C146.23 166.651 147.509 166.725 147.509 166.875L152.353 185.859C152.353 185.989 151.924 186.092 151.065 186.167C150.206 186.241 149.525 186.279 149.021 186.279ZM141.713 178.327H144.653L143.393 172.531H143.225L141.713 178.327ZM153.929 184.571V167.155C153.929 166.763 154.871 166.567 156.757 166.567C158.661 166.567 159.613 166.763 159.613 167.155V180.875H163.925C164.261 180.875 164.494 181.313 164.625 182.191C164.681 182.62 164.709 183.059 164.709 183.507C164.709 183.955 164.681 184.412 164.625 184.879C164.475 185.775 164.233 186.223 163.897 186.223H155.273C154.862 186.223 154.535 186.055 154.293 185.719C154.05 185.383 153.929 185 153.929 184.571ZM179.537 186.279C177.913 186.279 177.035 186.017 176.905 185.495L175.981 181.883H171.529L170.717 185.355C170.605 185.933 169.709 186.223 168.029 186.223C167.133 186.223 166.47 186.176 166.041 186.083C165.611 185.971 165.397 185.887 165.397 185.831L170.353 166.875C170.353 166.725 171.631 166.651 174.189 166.651C176.746 166.651 178.025 166.725 178.025 166.875L182.869 185.859C182.869 185.989 182.439 186.092 181.581 186.167C180.722 186.241 180.041 186.279 179.537 186.279ZM172.229 178.327H175.169L173.909 172.531H173.741L172.229 178.327ZM200.068 185.607C200.068 185.999 199.191 186.195 197.436 186.195C195.682 186.195 194.73 186.055 194.58 185.775L189.904 177.039V185.747C189.904 186.083 189.036 186.251 187.3 186.251C185.583 186.251 184.724 186.083 184.724 185.747V167.015C184.724 166.735 185.462 166.595 186.936 166.595C187.515 166.595 188.187 166.651 188.952 166.763C189.736 166.856 190.212 167.043 190.38 167.323L194.86 175.947V167.155C194.86 166.8 195.728 166.623 197.464 166.623C199.2 166.623 200.068 166.8 200.068 167.155V185.607ZM210.888 166.371C212.251 166.371 213.446 166.567 214.472 166.959C215.518 167.332 216.04 167.845 216.04 168.499C216.04 169.152 215.788 169.964 215.284 170.935C214.799 171.887 214.388 172.363 214.052 172.363C213.959 172.363 213.847 172.316 213.716 172.223C213.604 172.111 213.324 171.999 212.876 171.887C212.447 171.756 212.074 171.691 211.756 171.691C210.674 171.691 209.796 172.073 209.124 172.839C208.471 173.604 208.144 174.78 208.144 176.367C208.144 177.935 208.48 179.101 209.152 179.867C209.843 180.632 210.711 181.015 211.756 181.015C212.186 181.015 212.662 180.959 213.184 180.847C213.726 180.716 214.108 180.539 214.332 180.315C214.37 180.277 214.444 180.259 214.556 180.259C214.668 180.259 214.874 180.473 215.172 180.903C215.49 181.313 215.779 181.864 216.04 182.555C216.302 183.227 216.432 183.749 216.432 184.123C216.432 184.851 215.872 185.429 214.752 185.859C213.632 186.288 212.307 186.503 210.776 186.503C208.312 186.503 206.287 185.635 204.7 183.899C203.114 182.163 202.32 179.717 202.32 176.563C202.32 173.389 203.132 170.897 204.756 169.087C206.399 167.276 208.443 166.371 210.888 166.371ZM227.676 174.407C228.03 174.407 228.208 175.06 228.208 176.367C228.208 176.759 228.161 177.225 228.068 177.767C227.993 178.289 227.844 178.551 227.62 178.551H224.064V181.351H229.216C229.533 181.351 229.748 181.761 229.86 182.583C229.916 182.937 229.944 183.32 229.944 183.731C229.944 184.123 229.888 184.636 229.776 185.271C229.664 185.905 229.477 186.223 229.216 186.223H219.64C218.93 186.223 218.576 185.933 218.576 185.355V167.351C218.576 166.865 218.79 166.623 219.22 166.623H229.244C229.636 166.623 229.832 167.453 229.832 169.115C229.832 170.757 229.636 171.579 229.244 171.579H224.064V174.407H227.676ZM237.9 186.307C237.9 186.437 237.014 186.503 235.24 186.503C233.486 186.503 232.608 186.447 232.608 186.335V181.295C232.608 181.127 233.486 181.043 235.24 181.043C237.014 181.043 237.9 181.089 237.9 181.183V186.307ZM237.9 177.319C237.9 177.449 237.014 177.515 235.24 177.515C233.486 177.515 232.608 177.459 232.608 177.347V172.307C232.608 172.139 233.486 172.055 235.24 172.055C237.014 172.055 237.9 172.101 237.9 172.195V177.319ZM258.237 186.503C255.903 186.503 253.99 185.644 252.497 183.927C251.022 182.209 250.285 179.699 250.285 176.395C250.285 173.091 251.031 170.599 252.525 168.919C254.018 167.22 255.941 166.371 258.293 166.371C260.663 166.371 262.577 167.211 264.033 168.891C265.489 170.571 266.217 173.1 266.217 176.479C266.217 179.857 265.47 182.377 263.977 184.039C262.502 185.681 260.589 186.503 258.237 186.503ZM258.237 171.747C257.527 171.747 256.921 172.157 256.417 172.979C255.931 173.781 255.689 174.929 255.689 176.423C255.689 177.916 255.922 179.064 256.389 179.867C256.874 180.651 257.49 181.043 258.237 181.043C259.002 181.043 259.618 180.641 260.085 179.839C260.57 179.036 260.813 177.888 260.813 176.395C260.813 174.901 260.561 173.753 260.057 172.951C259.571 172.148 258.965 171.747 258.237 171.747ZM273.04 186.307C273.04 186.437 272.153 186.503 270.38 186.503C268.625 186.503 267.748 186.447 267.748 186.335V181.295C267.748 181.127 268.625 181.043 270.38 181.043C272.153 181.043 273.04 181.089 273.04 181.183V186.307ZM277.002 181.351C278.402 181.631 279.457 181.771 280.166 181.771C280.875 181.771 281.51 181.547 282.07 181.099C282.649 180.651 282.985 179.951 283.078 178.999C282.145 179.26 281.398 179.391 280.838 179.391C278.878 179.391 277.366 178.849 276.302 177.767C275.238 176.665 274.706 175.116 274.706 173.119C274.706 171.103 275.313 169.469 276.526 168.219C277.758 166.968 279.438 166.343 281.566 166.343C283.694 166.343 285.365 167.089 286.578 168.583C287.81 170.076 288.426 172.279 288.426 175.191C288.426 178.831 287.773 181.631 286.466 183.591C285.178 185.532 283.255 186.503 280.698 186.503C277.525 186.503 275.938 185.971 275.938 184.907C275.938 184.347 276.05 183.619 276.274 182.723C276.498 181.808 276.741 181.351 277.002 181.351ZM281.51 171.383C280.913 171.383 280.446 171.579 280.11 171.971C279.793 172.344 279.634 172.829 279.634 173.427C279.634 174.024 279.821 174.509 280.194 174.883C280.586 175.237 281.081 175.415 281.678 175.415C282.275 175.415 282.761 175.284 283.134 175.023C283.134 173.735 283.013 172.811 282.77 172.251C282.527 171.672 282.107 171.383 281.51 171.383ZM304.482 180.315C304.482 182.144 303.819 183.637 302.494 184.795C301.187 185.952 299.433 186.531 297.23 186.531C295.046 186.531 293.319 185.98 292.05 184.879C290.799 183.759 290.174 182.303 290.174 180.511C290.174 178.7 291.079 177.095 292.89 175.695C291.621 174.593 290.986 173.268 290.986 171.719C290.986 170.169 291.593 168.891 292.806 167.883C294.019 166.875 295.569 166.371 297.454 166.371C299.339 166.371 300.842 166.847 301.962 167.799C303.101 168.732 303.661 169.917 303.642 171.355C303.642 172.773 303.045 174.061 301.85 175.219C302.615 175.779 303.241 176.507 303.726 177.403C304.23 178.28 304.482 179.251 304.482 180.315ZM295.718 180.063C295.718 180.604 295.877 181.043 296.194 181.379C296.53 181.696 296.941 181.855 297.426 181.855C297.911 181.855 298.303 181.696 298.602 181.379C298.919 181.043 299.078 180.604 299.078 180.063C299.078 179.055 298.434 178.224 297.146 177.571C296.194 178.149 295.718 178.98 295.718 180.063ZM298.742 172.139C298.742 171.728 298.593 171.383 298.294 171.103C298.014 170.823 297.697 170.683 297.342 170.683C296.39 170.683 295.895 171.14 295.858 172.055C295.858 172.895 296.502 173.688 297.79 174.435C298.425 173.725 298.742 172.96 298.742 172.139ZM313.871 164.747V166.343C315.252 166.399 316.447 166.595 317.455 166.931C318.463 167.248 318.967 167.733 318.967 168.387C318.967 168.965 318.771 169.731 318.379 170.683C318.005 171.635 317.744 172.139 317.595 172.195C316.027 171.541 314.785 171.177 313.871 171.103V174.267C317.791 174.416 319.751 176.301 319.751 179.923C319.751 181.621 319.265 183.077 318.295 184.291C317.324 185.504 315.849 186.213 313.871 186.419V188.351C313.871 188.687 313.768 188.911 313.563 189.023C313.376 189.135 313.217 189.191 313.087 189.191L312.695 189.079C312.433 188.929 312.303 188.687 312.303 188.351V186.503C310.735 186.465 309.344 186.185 308.131 185.663C306.936 185.14 306.339 184.477 306.339 183.675C306.339 182.629 306.656 181.575 307.291 180.511C307.347 180.399 307.421 180.277 307.515 180.147C309.027 181.061 310.623 181.575 312.303 181.687V178.607C308.327 178.364 306.339 176.329 306.339 172.503C306.339 170.823 306.871 169.441 307.935 168.359C308.999 167.276 310.455 166.623 312.303 166.399V164.747C312.303 164.411 312.396 164.187 312.583 164.075C312.788 163.963 312.956 163.907 313.087 163.907L313.479 164.019C313.74 164.168 313.871 164.411 313.871 164.747ZM315.859 179.783C315.859 179.353 315.709 179.064 315.411 178.915C315.131 178.747 314.617 178.644 313.871 178.607V181.631C315.196 181.407 315.859 180.791 315.859 179.783ZM310.595 172.811C310.595 173.595 311.164 174.052 312.303 174.183V171.131C311.164 171.317 310.595 171.877 310.595 172.811Z" fill="white"/>
<path d="M105.305 254.459C104.335 254.459 103.849 254.352 103.849 254.139V243.771C103.849 243.408 104.015 243.227 104.345 243.227H107.161C108.74 243.227 109.876 243.552 110.569 244.203C111.273 244.853 111.625 245.797 111.625 247.035C111.625 248.059 111.295 248.997 110.633 249.851C110.303 250.277 109.817 250.619 109.177 250.875C108.537 251.131 107.791 251.259 106.937 251.259V254.123C106.937 254.251 106.735 254.341 106.329 254.395C105.935 254.437 105.593 254.459 105.305 254.459ZM106.937 246.011V248.539H107.145C107.519 248.539 107.833 248.421 108.089 248.187C108.345 247.952 108.473 247.621 108.473 247.195C108.473 246.768 108.383 246.464 108.201 246.283C108.031 246.101 107.721 246.011 107.273 246.011H106.937ZM117.614 243.083C118.393 243.083 119.076 243.195 119.662 243.419C120.26 243.632 120.558 243.925 120.558 244.299C120.558 244.672 120.414 245.136 120.126 245.691C119.849 246.235 119.614 246.507 119.422 246.507C119.369 246.507 119.305 246.48 119.23 246.427C119.166 246.363 119.006 246.299 118.75 246.235C118.505 246.16 118.292 246.123 118.11 246.123C117.492 246.123 116.99 246.341 116.606 246.779C116.233 247.216 116.046 247.888 116.046 248.795C116.046 249.691 116.238 250.357 116.622 250.795C117.017 251.232 117.513 251.451 118.11 251.451C118.356 251.451 118.628 251.419 118.926 251.355C119.236 251.28 119.454 251.179 119.582 251.051C119.604 251.029 119.646 251.019 119.71 251.019C119.774 251.019 119.892 251.141 120.062 251.387C120.244 251.621 120.409 251.936 120.558 252.331C120.708 252.715 120.782 253.013 120.782 253.227C120.782 253.643 120.462 253.973 119.822 254.219C119.182 254.464 118.425 254.587 117.55 254.587C116.142 254.587 114.985 254.091 114.078 253.099C113.172 252.107 112.718 250.709 112.718 248.907C112.718 247.093 113.182 245.669 114.11 244.635C115.049 243.6 116.217 243.083 117.614 243.083ZM122.423 250.523C122.626 250.683 122.972 250.901 123.463 251.179C123.964 251.456 124.439 251.595 124.887 251.595C125.346 251.595 125.575 251.419 125.575 251.067C125.575 250.907 125.511 250.768 125.383 250.651C125.255 250.523 125.02 250.379 124.679 250.219C124.338 250.059 124.082 249.936 123.911 249.851C123.74 249.755 123.511 249.605 123.223 249.403C122.946 249.189 122.732 248.971 122.583 248.747C122.156 248.139 121.943 247.365 121.943 246.427C121.943 245.488 122.29 244.699 122.983 244.059C123.687 243.408 124.604 243.083 125.735 243.083C126.503 243.083 127.212 243.168 127.863 243.339C128.514 243.499 128.85 243.712 128.871 243.979C128.871 244.011 128.871 244.043 128.871 244.075C128.871 244.448 128.754 244.923 128.519 245.499C128.284 246.064 128.119 246.379 128.023 246.443C127.34 246.091 126.727 245.915 126.183 245.915C125.65 245.915 125.383 246.107 125.383 246.491C125.383 246.725 125.58 246.933 125.975 247.115C126.06 247.157 126.183 247.216 126.343 247.291C126.503 247.365 126.684 247.456 126.887 247.563C127.1 247.659 127.324 247.787 127.559 247.947C127.804 248.096 128.066 248.299 128.343 248.555C128.908 249.088 129.191 249.792 129.191 250.667C129.191 251.808 128.876 252.741 128.247 253.467C127.618 254.192 126.647 254.565 125.335 254.587C124.695 254.587 124.114 254.533 123.591 254.427C123.079 254.32 122.631 254.112 122.247 253.803C121.863 253.493 121.671 253.12 121.671 252.683C121.671 252.245 121.751 251.813 121.911 251.387C122.071 250.949 122.242 250.661 122.423 250.523Z" fill="#0A0A0A"/>
<path d="M166.073 253.691V244.091C166.073 243.824 166.137 243.616 166.265 243.467C166.404 243.307 166.58 243.227 166.793 243.227H169.465C171.161 243.227 172.447 243.653 173.321 244.507C174.207 245.36 174.649 246.704 174.649 248.539C174.649 252.464 172.975 254.427 169.625 254.427H166.889C166.345 254.427 166.073 254.181 166.073 253.691ZM169.145 246.267V251.051C169.145 251.275 169.161 251.419 169.193 251.483C169.225 251.536 169.321 251.563 169.481 251.563C170.068 251.563 170.511 251.344 170.809 250.907C171.119 250.469 171.273 249.744 171.273 248.731C171.273 247.707 171.113 247.04 170.793 246.731C170.484 246.421 169.988 246.267 169.305 246.267H169.145ZM178.989 254.203C178.989 254.373 178.482 254.459 177.469 254.459C176.445 254.459 175.933 254.379 175.933 254.219V243.787C175.933 243.413 176.13 243.227 176.525 243.227H179.581C182.386 243.227 183.789 244.32 183.789 246.507C183.789 247.168 183.661 247.771 183.405 248.315C183.149 248.848 182.786 249.275 182.317 249.595L184.333 252.955C184.247 253.211 183.97 253.504 183.501 253.835C182.861 254.293 182.333 254.523 181.917 254.523C181.501 254.523 181.191 254.373 180.989 254.075L179.485 250.571H178.989V254.203ZM178.989 246.059V248.459H179.069C180.082 248.459 180.589 248.037 180.589 247.195C180.589 246.811 180.487 246.528 180.285 246.347C180.093 246.155 179.773 246.059 179.325 246.059H178.989ZM186.426 251.675V245.979H185.29C185.109 245.979 184.981 245.749 184.906 245.291C184.874 245.067 184.858 244.837 184.858 244.603C184.858 244.368 184.874 244.139 184.906 243.915C184.981 243.456 185.109 243.227 185.29 243.227H190.666C190.848 243.227 190.97 243.456 191.034 243.915C191.077 244.139 191.098 244.368 191.098 244.603C191.098 244.837 191.077 245.067 191.034 245.291C190.97 245.749 190.848 245.979 190.666 245.979H189.594V251.675H190.714C190.896 251.675 191.024 251.904 191.098 252.363C191.141 252.587 191.162 252.816 191.162 253.051C191.162 253.285 191.141 253.515 191.098 253.739C191.024 254.197 190.896 254.427 190.714 254.427H185.322C185.141 254.427 185.018 254.197 184.954 253.739C184.912 253.515 184.89 253.285 184.89 253.051C184.89 252.816 184.912 252.587 184.954 252.363C185.018 251.904 185.141 251.675 185.322 251.675H186.426ZM200.998 254.075C200.998 254.299 200.496 254.411 199.494 254.411C198.491 254.411 197.947 254.331 197.862 254.171L195.19 249.179V254.155C195.19 254.347 194.694 254.443 193.702 254.443C192.72 254.443 192.23 254.347 192.23 254.155V243.451C192.23 243.291 192.651 243.211 193.494 243.211C193.824 243.211 194.208 243.243 194.646 243.307C195.094 243.36 195.366 243.467 195.462 243.627L198.022 248.555V243.531C198.022 243.328 198.518 243.227 199.51 243.227C200.502 243.227 200.998 243.328 200.998 243.531V254.075ZM205.805 254.203C205.805 254.363 205.303 254.443 204.301 254.443L203.405 254.395C202.871 254.352 202.605 254.277 202.605 254.171V243.435C202.605 243.253 203.138 243.163 204.205 243.163C205.271 243.163 205.805 243.253 205.805 243.435V247.531L207.757 243.435C207.831 243.285 208.258 243.211 209.037 243.211C210.455 243.211 211.202 243.333 211.277 243.579C211.277 243.6 211.271 243.621 211.261 243.643L208.477 248.667L211.709 253.131C211.709 253.152 211.607 253.243 211.405 253.403C210.914 253.829 210.338 254.165 209.677 254.411C209.474 254.485 209.271 254.523 209.069 254.523L208.685 254.491C208.343 254.405 208.077 254.187 207.885 253.835L206.061 250.347H205.805V254.203Z" fill="#0A0A0A"/>
<path d="M114.517 298.187C112.517 298.187 110.877 297.451 109.597 295.979C108.333 294.507 107.701 292.355 107.701 289.523C107.701 286.691 108.341 284.555 109.621 283.115C110.901 281.659 112.549 280.931 114.565 280.931C116.597 280.931 118.237 281.651 119.485 283.091C120.733 284.531 121.357 286.699 121.357 289.595C121.357 292.491 120.717 294.651 119.437 296.075C118.173 297.483 116.533 298.187 114.517 298.187ZM114.517 285.539C113.909 285.539 113.389 285.891 112.957 286.595C112.541 287.283 112.333 288.267 112.333 289.547C112.333 290.827 112.533 291.811 112.933 292.499C113.349 293.171 113.877 293.507 114.517 293.507C115.173 293.507 115.701 293.163 116.101 292.475C116.517 291.787 116.725 290.803 116.725 289.523C116.725 288.243 116.509 287.259 116.077 286.571C115.661 285.883 115.141 285.539 114.517 285.539ZM132.437 285.755C131.797 285.403 131.053 285.227 130.205 285.227C128.717 285.227 127.869 286.187 127.661 288.107C128.493 287.867 129.381 287.747 130.325 287.747C131.941 287.747 133.125 288.171 133.877 289.019C134.645 289.851 135.029 290.995 135.029 292.451C135.029 294.211 134.485 295.611 133.397 296.651C132.309 297.675 130.837 298.187 128.981 298.187C127.125 298.187 125.669 297.515 124.613 296.171C123.557 294.811 123.029 292.883 123.029 290.387C123.029 287.475 123.685 285.171 124.997 283.475C126.325 281.763 128.045 280.907 130.157 280.907C132.557 280.907 133.757 281.395 133.757 282.371C133.757 283.075 133.533 283.827 133.085 284.627C132.925 284.979 132.709 285.355 132.437 285.755ZM130.877 292.475C130.877 291.979 130.725 291.579 130.421 291.275C130.117 290.955 129.653 290.795 129.029 290.795C128.421 290.795 127.957 290.907 127.637 291.131C127.621 291.339 127.613 291.571 127.613 291.827C127.613 292.083 127.637 292.403 127.685 292.787C127.749 293.155 127.909 293.523 128.165 293.891C128.437 294.243 128.789 294.419 129.221 294.419C130.325 294.419 130.877 293.771 130.877 292.475Z" fill="white"/>
<path d="M114.517 362.801C112.517 362.801 110.877 362.065 109.597 360.593C108.333 359.121 107.701 356.969 107.701 354.137C107.701 351.305 108.341 349.169 109.621 347.729C110.901 346.273 112.549 345.545 114.565 345.545C116.597 345.545 118.237 346.265 119.485 347.705C120.733 349.145 121.357 351.313 121.357 354.209C121.357 357.105 120.717 359.265 119.437 360.689C118.173 362.097 116.533 362.801 114.517 362.801ZM114.517 350.153C113.909 350.153 113.389 350.505 112.957 351.209C112.541 351.897 112.333 352.881 112.333 354.161C112.333 355.441 112.533 356.425 112.933 357.113C113.349 357.785 113.877 358.121 114.517 358.121C115.173 358.121 115.701 357.777 116.101 357.089C116.517 356.401 116.725 355.417 116.725 354.137C116.725 352.857 116.509 351.873 116.077 351.185C115.661 350.497 115.141 350.153 114.517 350.153ZM135.317 355.385C135.477 355.385 135.557 355.993 135.557 357.209C135.557 358.409 135.477 359.009 135.317 359.009L133.733 359.033V362.057C133.733 362.233 133.405 362.361 132.749 362.441C132.093 362.521 131.525 362.561 131.045 362.561L130.061 362.513C129.245 362.449 128.837 362.305 128.837 362.081V359.105H124.061C123.645 358.689 123.269 358.153 122.933 357.497C122.597 356.825 122.429 356.345 122.429 356.057C122.429 355.753 122.477 355.513 122.573 355.337L127.829 346.025C127.893 345.897 128.381 345.801 129.293 345.737C130.221 345.673 131.189 345.641 132.197 345.641C133.205 345.641 133.709 345.681 133.709 345.761L133.733 355.385H135.317ZM129.533 355.409V350.393L126.725 355.409H129.533Z" fill="white"/>
<path d="M114.517 427.416C112.517 427.416 110.877 426.68 109.597 425.208C108.333 423.736 107.701 421.584 107.701 418.752C107.701 415.92 108.341 413.784 109.621 412.344C110.901 410.888 112.549 410.16 114.565 410.16C116.597 410.16 118.237 410.88 119.485 412.32C120.733 413.76 121.357 415.928 121.357 418.824C121.357 421.72 120.717 423.88 119.437 425.304C118.173 426.712 116.533 427.416 114.517 427.416ZM114.517 414.768C113.909 414.768 113.389 415.12 112.957 415.824C112.541 416.512 112.333 417.496 112.333 418.776C112.333 420.056 112.533 421.04 112.933 421.728C113.349 422.4 113.877 422.736 114.517 422.736C115.173 422.736 115.701 422.392 116.101 421.704C116.517 421.016 116.725 420.032 116.725 418.752C116.725 417.472 116.509 416.488 116.077 415.8C115.661 415.112 115.141 414.768 114.517 414.768ZM132.581 427.176H124.613C124.053 427.176 123.661 426.632 123.437 425.544C123.325 424.952 123.269 424.504 123.269 424.2C123.269 423.896 123.317 423.696 123.413 423.6C126.997 419.904 128.789 417.392 128.789 416.064C128.789 415.616 128.669 415.28 128.429 415.056C128.205 414.832 127.837 414.72 127.325 414.72C126.829 414.72 126.325 414.816 125.813 415.008C125.317 415.2 124.925 415.408 124.637 415.632C124.013 414.88 123.581 414.088 123.341 413.256C123.261 412.984 123.221 412.736 123.221 412.512C123.221 412.272 123.261 412.048 123.341 411.84C123.469 411.424 124.061 411.032 125.117 410.664C126.189 410.296 127.317 410.112 128.501 410.112C132.085 410.112 133.877 411.704 133.877 414.888C133.877 416.296 133.397 417.728 132.437 419.184C131.477 420.624 130.357 421.872 129.077 422.928L133.925 422.736C134.005 423.584 134.045 424.32 134.045 424.944C134.045 425.568 133.917 426.096 133.661 426.528C133.405 426.96 133.045 427.176 132.581 427.176Z" fill="white"/>
<path d="M114.517 492.031C112.517 492.031 110.877 491.295 109.597 489.823C108.333 488.351 107.701 486.199 107.701 483.367C107.701 480.535 108.341 478.399 109.621 476.959C110.901 475.503 112.549 474.775 114.565 474.775C116.597 474.775 118.237 475.495 119.485 476.935C120.733 478.375 121.357 480.543 121.357 483.439C121.357 486.335 120.717 488.495 119.437 489.919C118.173 491.327 116.533 492.031 114.517 492.031ZM114.517 479.383C113.909 479.383 113.389 479.735 112.957 480.439C112.541 481.127 112.333 482.111 112.333 483.391C112.333 484.671 112.533 485.655 112.933 486.343C113.349 487.015 113.877 487.351 114.517 487.351C115.173 487.351 115.701 487.007 116.101 486.319C116.517 485.631 116.725 484.647 116.725 483.367C116.725 482.087 116.509 481.103 116.077 480.415C115.661 479.727 115.141 479.383 114.517 479.383ZM125.117 487.615C126.317 487.855 127.221 487.975 127.829 487.975C128.437 487.975 128.981 487.783 129.461 487.399C129.957 487.015 130.245 486.415 130.325 485.599C129.525 485.823 128.885 485.935 128.405 485.935C126.725 485.935 125.429 485.471 124.517 484.543C123.605 483.599 123.149 482.271 123.149 480.559C123.149 478.831 123.669 477.431 124.709 476.359C125.765 475.287 127.205 474.751 129.029 474.751C130.853 474.751 132.285 475.391 133.325 476.671C134.381 477.951 134.909 479.839 134.909 482.335C134.909 485.455 134.349 487.855 133.229 489.535C132.125 491.199 130.477 492.031 128.285 492.031C125.565 492.031 124.205 491.575 124.205 490.663C124.205 490.183 124.301 489.559 124.493 488.791C124.685 488.007 124.893 487.615 125.117 487.615ZM128.981 479.071C128.469 479.071 128.069 479.239 127.781 479.575C127.509 479.895 127.373 480.311 127.373 480.823C127.373 481.335 127.533 481.751 127.853 482.071C128.189 482.375 128.613 482.527 129.125 482.527C129.637 482.527 130.053 482.415 130.373 482.191C130.373 481.087 130.269 480.295 130.061 479.815C129.853 479.319 129.493 479.071 128.981 479.071Z" fill="white"/>
<path d="M191.287 297.837C189.863 297.837 189.151 297.677 189.151 297.357L188.647 287.733L185.719 297.477C185.655 297.669 185.111 297.765 184.087 297.765C183.063 297.765 182.535 297.677 182.503 297.501L179.479 287.637L179.143 297.213C179.127 297.453 178.823 297.621 178.231 297.717C177.639 297.797 177.143 297.837 176.743 297.837C176.359 297.837 175.983 297.813 175.615 297.765C174.847 297.653 174.471 297.453 174.487 297.165L175.039 281.565C175.039 281.181 176.015 280.989 177.967 280.989C178.543 280.989 179.247 281.037 180.079 281.133C180.911 281.213 181.375 281.381 181.471 281.637L184.159 289.197L186.511 281.613C186.655 281.197 187.759 280.989 189.823 280.989C190.415 280.989 191.119 281.037 191.935 281.133C192.767 281.213 193.183 281.365 193.183 281.589L193.879 297.333C193.879 297.509 193.567 297.637 192.943 297.717C192.319 297.797 191.767 297.837 191.287 297.837ZM197.653 289.101C197.205 288.301 196.981 287.653 196.981 287.157C196.981 286.645 197.117 286.317 197.389 286.173C198.301 285.773 199.549 285.573 201.133 285.573C202.733 285.573 203.861 285.949 204.517 286.701C205.173 287.437 205.501 288.533 205.501 289.989V293.781H206.317C206.589 293.781 206.797 293.941 206.941 294.261C207.101 294.581 207.181 295.021 207.181 295.581C207.181 296.141 207.037 296.693 206.749 297.237C206.477 297.781 206.101 298.053 205.621 298.053C204.757 298.053 204.061 297.821 203.533 297.357C203.293 297.165 203.109 296.933 202.981 296.661C202.245 297.589 201.101 298.053 199.549 298.053C198.381 298.053 197.397 297.637 196.597 296.805C195.797 295.973 195.397 294.989 195.397 293.853C195.397 291.245 196.957 289.941 200.077 289.941H201.397V289.701C201.397 289.285 201.325 289.021 201.181 288.909C201.053 288.781 200.741 288.717 200.245 288.717C199.637 288.717 198.773 288.845 197.653 289.101ZM199.573 293.517C199.573 293.869 199.669 294.141 199.861 294.333C200.053 294.509 200.293 294.597 200.581 294.597C200.885 294.597 201.157 294.477 201.397 294.237V292.389H200.725C199.957 292.389 199.573 292.765 199.573 293.517ZM213.555 297.669C213.555 297.781 212.979 297.837 211.827 297.837C210.227 297.789 209.427 297.701 209.427 297.573V289.797H208.803C208.387 289.797 208.115 289.445 207.987 288.741C207.955 288.533 207.939 288.325 207.939 288.117C207.939 287.621 208.035 287.125 208.227 286.629C208.515 285.925 208.963 285.573 209.571 285.573C210.179 285.573 210.723 285.717 211.203 286.005C211.683 286.293 212.003 286.581 212.163 286.869C213.171 286.005 214.371 285.573 215.763 285.573C217.155 285.573 218.163 285.949 218.787 286.701C219.411 287.453 219.723 288.685 219.723 290.397V297.597C219.723 297.789 219.035 297.885 217.659 297.885C216.299 297.885 215.619 297.789 215.619 297.597V290.661C215.619 289.861 215.339 289.461 214.779 289.461C214.619 289.461 214.395 289.533 214.107 289.677C213.819 289.805 213.635 289.901 213.555 289.965V297.669ZM226.174 297.813C224.622 297.813 223.422 297.317 222.574 296.325C221.726 295.317 221.302 293.837 221.302 291.885C221.302 289.917 221.854 288.381 222.958 287.277C224.078 286.157 225.558 285.597 227.398 285.597C229.254 285.597 230.782 286.005 231.982 286.821V298.773C231.982 299.957 231.502 300.861 230.542 301.485C229.582 302.125 228.35 302.445 226.846 302.445C225.342 302.445 223.998 302.253 222.814 301.869C222.654 301.485 222.574 301.141 222.574 300.837C222.574 299.813 222.742 299.061 223.078 298.581C224.15 299.045 225.294 299.277 226.51 299.277C227.39 299.277 227.83 298.965 227.83 298.341V297.621C227.142 297.749 226.59 297.813 226.174 297.813ZM227.278 289.509C226.206 289.509 225.67 290.317 225.67 291.933C225.67 292.941 225.878 293.597 226.294 293.901C226.566 294.109 226.838 294.213 227.11 294.213C227.382 294.213 227.622 294.189 227.83 294.141V289.581C227.638 289.533 227.454 289.509 227.278 289.509ZM235.165 296.397C234.173 295.293 233.677 293.765 233.677 291.813C233.677 289.861 234.173 288.333 235.165 287.229C236.173 286.125 237.525 285.573 239.221 285.573C240.917 285.573 242.261 286.125 243.253 287.229C244.245 288.333 244.741 289.861 244.741 291.813C244.741 293.765 244.245 295.293 243.253 296.397C242.261 297.501 240.917 298.053 239.221 298.053C237.525 298.053 236.173 297.501 235.165 296.397ZM239.221 289.581C238.325 289.581 237.877 290.317 237.877 291.789C237.877 293.261 238.325 293.997 239.221 293.997C240.133 293.997 240.589 293.261 240.589 291.789C240.589 290.317 240.133 289.581 239.221 289.581Z" fill="white"/>
<path d="M183.285 346.788C184.453 346.788 185.477 346.956 186.357 347.292C187.253 347.612 187.701 348.052 187.701 348.612C187.701 349.172 187.485 349.868 187.053 350.7C186.637 351.516 186.285 351.924 185.997 351.924C185.917 351.924 185.821 351.884 185.709 351.804C185.613 351.708 185.373 351.612 184.989 351.516C184.621 351.404 184.301 351.348 184.029 351.348C183.101 351.348 182.349 351.676 181.773 352.332C181.213 352.988 180.933 353.996 180.933 355.356C180.933 356.7 181.221 357.7 181.797 358.356C182.389 359.012 183.133 359.34 184.029 359.34C184.397 359.34 184.805 359.292 185.253 359.196C185.717 359.084 186.045 358.932 186.237 358.74C186.269 358.708 186.333 358.692 186.429 358.692C186.525 358.692 186.701 358.876 186.957 359.244C187.229 359.596 187.477 360.068 187.701 360.66C187.925 361.236 188.037 361.684 188.037 362.004C188.037 362.628 187.557 363.124 186.597 363.492C185.637 363.86 184.501 364.044 183.189 364.044C181.077 364.044 179.341 363.3 177.981 361.812C176.621 360.324 175.941 358.228 175.941 355.524C175.941 352.804 176.637 350.668 178.029 349.116C179.437 347.564 181.189 346.788 183.285 346.788ZM190.786 362.388C189.794 361.284 189.298 359.756 189.298 357.804C189.298 355.852 189.794 354.324 190.786 353.22C191.794 352.116 193.146 351.564 194.842 351.564C196.538 351.564 197.882 352.116 198.874 353.22C199.866 354.324 200.362 355.852 200.362 357.804C200.362 359.756 199.866 361.284 198.874 362.388C197.882 363.492 196.538 364.044 194.842 364.044C193.146 364.044 191.794 363.492 190.786 362.388ZM194.842 355.572C193.946 355.572 193.498 356.308 193.498 357.78C193.498 359.252 193.946 359.988 194.842 359.988C195.754 359.988 196.21 359.252 196.21 357.78C196.21 356.308 195.754 355.572 194.842 355.572ZM206.427 363.612C206.427 363.756 205.611 363.828 203.979 363.828C202.699 363.812 202.059 363.748 202.059 363.636V347.292C202.059 347.052 202.835 346.932 204.387 346.932C205.747 346.98 206.427 347.06 206.427 347.172V363.612ZM210.11 355.092C209.662 354.292 209.438 353.644 209.438 353.148C209.438 352.636 209.574 352.308 209.846 352.164C210.758 351.764 212.006 351.564 213.59 351.564C215.19 351.564 216.318 351.94 216.974 352.692C217.63 353.428 217.958 354.524 217.958 355.98V359.772H218.774C219.046 359.772 219.254 359.932 219.398 360.252C219.558 360.572 219.638 361.012 219.638 361.572C219.638 362.132 219.494 362.684 219.206 363.228C218.934 363.772 218.558 364.044 218.078 364.044C217.214 364.044 216.518 363.812 215.99 363.348C215.75 363.156 215.566 362.924 215.438 362.652C214.702 363.58 213.558 364.044 212.006 364.044C210.838 364.044 209.854 363.628 209.054 362.796C208.254 361.964 207.854 360.98 207.854 359.844C207.854 357.236 209.414 355.932 212.534 355.932H213.854V355.692C213.854 355.276 213.782 355.012 213.638 354.9C213.51 354.772 213.198 354.708 212.702 354.708C212.094 354.708 211.23 354.836 210.11 355.092ZM212.03 359.508C212.03 359.86 212.126 360.132 212.318 360.324C212.51 360.5 212.75 360.588 213.038 360.588C213.342 360.588 213.614 360.468 213.854 360.228V358.38H213.182C212.414 358.38 212.03 358.756 212.03 359.508Z" fill="white"/>
<path d="M175.603 426.358V411.43C175.603 411.094 176.411 410.926 178.027 410.926C179.659 410.926 180.475 411.094 180.475 411.43V423.19H184.171C184.459 423.19 184.659 423.566 184.771 424.318C184.819 424.686 184.843 425.062 184.843 425.446C184.843 425.83 184.819 426.222 184.771 426.622C184.643 427.39 184.435 427.774 184.147 427.774H176.755C176.403 427.774 176.123 427.63 175.915 427.342C175.707 427.054 175.603 426.726 175.603 426.358ZM195.224 427.126C194.216 427.718 192.92 428.014 191.336 428.014C189.752 428.014 188.416 427.478 187.328 426.406C186.24 425.318 185.696 423.822 185.696 421.918C185.696 419.998 186.216 418.454 187.256 417.286C188.312 416.118 189.64 415.534 191.24 415.534C192.84 415.534 194.072 415.942 194.936 416.758C195.816 417.574 196.256 418.566 196.256 419.734C196.256 422.326 194.768 423.622 191.792 423.622H190.136C190.136 424.102 190.264 424.438 190.52 424.63C190.792 424.806 191.184 424.894 191.696 424.894C192.816 424.894 193.88 424.638 194.888 424.126C194.904 424.11 194.976 424.222 195.104 424.462C195.488 425.15 195.68 425.734 195.68 426.214C195.68 426.678 195.528 426.982 195.224 427.126ZM192.224 420.19C192.224 419.518 191.896 419.182 191.24 419.182C190.936 419.182 190.672 419.278 190.448 419.47C190.24 419.646 190.136 419.91 190.136 420.262V421.006H191.432C191.96 421.006 192.224 420.734 192.224 420.19ZM208.696 427.654C208.696 427.766 208.008 427.822 206.632 427.822C205.272 427.822 204.592 427.75 204.592 427.606V420.622C204.592 419.822 204.328 419.422 203.8 419.422C203.528 419.422 203.168 419.598 202.72 419.95V427.63C202.72 427.79 202.032 427.87 200.656 427.87C199.296 427.87 198.616 427.782 198.616 427.606V419.758H198.016C197.488 419.758 197.224 419.206 197.224 418.102C197.224 417.606 197.32 417.102 197.512 416.59C197.768 415.886 198.184 415.534 198.76 415.534C199.336 415.534 199.888 415.686 200.416 415.99C200.96 416.294 201.288 416.582 201.4 416.854C202.392 415.974 203.488 415.534 204.688 415.534C205.904 415.534 206.88 415.91 207.616 416.662C208.48 415.91 209.52 415.534 210.736 415.534C213.376 415.534 214.696 417.142 214.696 420.358V427.654C214.696 427.766 214.008 427.822 212.632 427.822C211.272 427.822 210.592 427.75 210.592 427.606V420.622C210.592 419.822 210.328 419.422 209.8 419.422C209.512 419.422 209.144 419.598 208.696 419.95V427.654ZM217.77 426.358C216.778 425.254 216.282 423.726 216.282 421.774C216.282 419.822 216.778 418.294 217.77 417.19C218.778 416.086 220.13 415.534 221.826 415.534C223.522 415.534 224.866 416.086 225.858 417.19C226.85 418.294 227.346 419.822 227.346 421.774C227.346 423.726 226.85 425.254 225.858 426.358C224.866 427.462 223.522 428.014 221.826 428.014C220.13 428.014 218.778 427.462 217.77 426.358ZM221.826 419.542C220.93 419.542 220.482 420.278 220.482 421.75C220.482 423.222 220.93 423.958 221.826 423.958C222.738 423.958 223.194 423.222 223.194 421.75C223.194 420.278 222.738 419.542 221.826 419.542ZM234.059 427.63C234.059 427.742 233.483 427.798 232.331 427.798C230.731 427.75 229.931 427.662 229.931 427.534V419.758H229.307C228.891 419.758 228.619 419.406 228.491 418.702C228.459 418.494 228.443 418.286 228.443 418.078C228.443 417.582 228.539 417.086 228.731 416.59C229.019 415.886 229.467 415.534 230.075 415.534C230.683 415.534 231.227 415.678 231.707 415.966C232.187 416.254 232.507 416.542 232.667 416.83C233.675 415.966 234.875 415.534 236.267 415.534C237.659 415.534 238.667 415.91 239.291 416.662C239.915 417.414 240.227 418.646 240.227 420.358V427.558C240.227 427.75 239.539 427.846 238.163 427.846C236.803 427.846 236.123 427.75 236.123 427.558V420.622C236.123 419.822 235.843 419.422 235.283 419.422C235.123 419.422 234.899 419.494 234.611 419.638C234.323 419.766 234.139 419.862 234.059 419.926V427.63ZM243.774 419.062C243.326 418.262 243.102 417.614 243.102 417.118C243.102 416.606 243.238 416.278 243.51 416.134C244.422 415.734 245.67 415.534 247.254 415.534C248.854 415.534 249.982 415.91 250.638 416.662C251.294 417.398 251.622 418.494 251.622 419.95V423.742H252.438C252.71 423.742 252.918 423.902 253.062 424.222C253.222 424.542 253.302 424.982 253.302 425.542C253.302 426.102 253.158 426.654 252.87 427.198C252.598 427.742 252.222 428.014 251.742 428.014C250.878 428.014 250.182 427.782 249.654 427.318C249.414 427.126 249.23 426.894 249.102 426.622C248.366 427.55 247.222 428.014 245.67 428.014C244.502 428.014 243.518 427.598 242.718 426.766C241.918 425.934 241.518 424.95 241.518 423.814C241.518 421.206 243.078 419.902 246.198 419.902H247.518V419.662C247.518 419.246 247.446 418.982 247.302 418.87C247.174 418.742 246.862 418.678 246.366 418.678C245.758 418.678 244.894 418.806 243.774 419.062ZM245.694 423.478C245.694 423.83 245.79 424.102 245.982 424.294C246.174 424.47 246.414 424.558 246.702 424.558C247.006 424.558 247.278 424.438 247.518 424.198V422.35H246.846C246.078 422.35 245.694 422.726 245.694 423.478ZM260.732 411.118C260.732 410.878 261.364 410.758 262.628 410.758C263.06 410.758 263.556 410.79 264.116 410.854C264.692 410.902 264.98 410.974 264.98 411.07V423.718H265.82C266.22 423.718 266.484 424.078 266.612 424.798C266.644 425.006 266.66 425.294 266.66 425.662C266.66 426.014 266.548 426.446 266.324 426.958C266.004 427.662 265.492 428.014 264.788 428.014C264.26 428.014 263.788 427.91 263.372 427.702C262.972 427.494 262.7 427.278 262.556 427.054L262.34 426.742C261.46 427.59 260.356 428.014 259.028 428.014C257.7 428.014 256.564 427.462 255.62 426.358C254.676 425.254 254.204 423.718 254.204 421.75C254.204 419.766 254.7 418.238 255.692 417.166C256.684 416.078 257.924 415.534 259.412 415.534C259.844 415.534 260.284 415.582 260.732 415.678V411.118ZM259.94 419.374C259.044 419.374 258.596 420.182 258.596 421.798C258.596 422.614 258.724 423.206 258.98 423.574C259.236 423.926 259.516 424.102 259.82 424.102C260.14 424.102 260.444 423.966 260.732 423.694V419.614C260.46 419.454 260.196 419.374 259.94 419.374ZM277.302 427.126C276.294 427.718 274.998 428.014 273.414 428.014C271.83 428.014 270.494 427.478 269.406 426.406C268.318 425.318 267.774 423.822 267.774 421.918C267.774 419.998 268.294 418.454 269.334 417.286C270.39 416.118 271.718 415.534 273.318 415.534C274.918 415.534 276.15 415.942 277.014 416.758C277.894 417.574 278.334 418.566 278.334 419.734C278.334 422.326 276.846 423.622 273.87 423.622H272.214C272.214 424.102 272.342 424.438 272.598 424.63C272.87 424.806 273.262 424.894 273.774 424.894C274.894 424.894 275.958 424.638 276.966 424.126C276.982 424.11 277.054 424.222 277.182 424.462C277.566 425.15 277.758 425.734 277.758 426.214C277.758 426.678 277.606 426.982 277.302 427.126ZM274.302 420.19C274.302 419.518 273.974 419.182 273.318 419.182C273.014 419.182 272.75 419.278 272.526 419.47C272.318 419.646 272.214 419.91 272.214 420.262V421.006H273.51C274.038 421.006 274.302 420.734 274.302 420.19Z" fill="white"/>
<path d="M175.147 474.84C175.099 474.664 175.907 474.576 177.571 474.576C179.411 474.576 180.355 474.728 180.403 475.032L181.579 485.136L184.123 474.912C184.203 474.672 184.827 474.552 185.995 474.552C187.163 474.552 187.787 474.664 187.867 474.888L190.363 485.184L191.755 474.984C191.787 474.808 192.155 474.688 192.859 474.624C193.563 474.56 194.131 474.528 194.563 474.528C196.243 474.528 197.059 474.64 197.011 474.864L194.107 490.776C194.043 491.016 193.587 491.192 192.739 491.304C191.891 491.416 191.203 491.472 190.675 491.472C188.691 491.472 187.651 491.248 187.555 490.8L185.923 484.2L184.147 490.776C184.083 491.064 183.523 491.272 182.467 491.4C181.923 491.448 181.379 491.472 180.835 491.472L179.299 491.4C178.243 491.288 177.683 491.088 177.619 490.8L175.147 474.84ZM199.641 482.688C199.193 481.888 198.969 481.24 198.969 480.744C198.969 480.232 199.105 479.904 199.377 479.76C200.289 479.36 201.537 479.16 203.121 479.16C204.721 479.16 205.849 479.536 206.505 480.288C207.161 481.024 207.489 482.12 207.489 483.576V487.368H208.305C208.577 487.368 208.785 487.528 208.929 487.848C209.089 488.168 209.169 488.608 209.169 489.168C209.169 489.728 209.025 490.28 208.737 490.824C208.465 491.368 208.089 491.64 207.609 491.64C206.745 491.64 206.049 491.408 205.521 490.944C205.281 490.752 205.097 490.52 204.969 490.248C204.233 491.176 203.089 491.64 201.537 491.64C200.369 491.64 199.385 491.224 198.585 490.392C197.785 489.56 197.385 488.576 197.385 487.44C197.385 484.832 198.945 483.528 202.065 483.528H203.385V483.288C203.385 482.872 203.313 482.608 203.169 482.496C203.041 482.368 202.729 482.304 202.233 482.304C201.625 482.304 200.761 482.432 199.641 482.688ZM201.561 487.104C201.561 487.456 201.657 487.728 201.849 487.92C202.041 488.096 202.281 488.184 202.569 488.184C202.873 488.184 203.145 488.064 203.385 487.824V485.976H202.713C201.945 485.976 201.561 486.352 201.561 487.104ZM216.047 491.256C216.047 491.448 215.375 491.544 214.031 491.544C212.431 491.48 211.631 491.376 211.631 491.232V482.736H210.407C210.087 482.736 209.927 482.184 209.927 481.08C209.927 480.792 209.951 480.44 209.999 480.024C210.063 479.608 210.183 479.4 210.359 479.4H211.631V477.288C211.631 476.968 212.303 476.808 213.647 476.808C215.007 476.808 215.687 476.936 215.687 477.192V478.728L215.711 479.4H217.751C218.023 479.4 218.159 479.96 218.159 481.08C218.159 482.2 218.023 482.76 217.751 482.76H216.047V491.256ZM228.435 490.752C227.427 491.344 226.131 491.64 224.547 491.64C222.963 491.64 221.627 491.104 220.539 490.032C219.451 488.944 218.907 487.448 218.907 485.544C218.907 483.624 219.427 482.08 220.467 480.912C221.523 479.744 222.851 479.16 224.451 479.16C226.051 479.16 227.283 479.568 228.147 480.384C229.027 481.2 229.467 482.192 229.467 483.36C229.467 485.952 227.979 487.248 225.003 487.248H223.347C223.347 487.728 223.475 488.064 223.731 488.256C224.003 488.432 224.395 488.52 224.907 488.52C226.027 488.52 227.091 488.264 228.099 487.752C228.115 487.736 228.187 487.848 228.315 488.088C228.699 488.776 228.891 489.36 228.891 489.84C228.891 490.304 228.739 490.608 228.435 490.752ZM225.435 483.816C225.435 483.144 225.107 482.808 224.451 482.808C224.147 482.808 223.883 482.904 223.659 483.096C223.451 483.272 223.347 483.536 223.347 483.888V484.632H224.643C225.171 484.632 225.435 484.36 225.435 483.816ZM236.291 491.376C236.291 491.488 235.563 491.544 234.107 491.544C232.651 491.512 231.923 491.448 231.923 491.352V483.384H231.275C231.019 483.384 230.811 483.232 230.651 482.928C230.507 482.608 230.435 482.216 230.435 481.752C230.435 480.024 230.947 479.16 231.971 479.16C232.691 479.16 233.291 479.384 233.771 479.832C234.251 480.264 234.491 480.76 234.491 481.32C234.827 480.664 235.275 480.144 235.835 479.76C236.411 479.36 236.995 479.16 237.587 479.16C238.515 479.16 239.075 479.4 239.267 479.88C239.315 480.008 239.339 480.2 239.339 480.456C239.339 480.696 239.259 481.136 239.099 481.776C238.955 482.416 238.803 482.88 238.643 483.168C238.483 483.456 238.387 483.6 238.355 483.6C238.323 483.6 238.171 483.544 237.899 483.432C237.643 483.304 237.411 483.24 237.203 483.24C236.595 483.24 236.291 483.72 236.291 484.68V491.376Z" fill="white"/>
<path d="M473.817 117.352V18.0233C473.817 13.3102 477.618 9.47754 482.292 9.47754L530.323 9.47754C534.995 9.47754 538.797 13.3102 538.797 18.0233V117.352C538.797 122.065 534.995 125.901 530.323 125.901L482.292 125.901C477.618 125.901 473.817 122.065 473.817 117.352ZM535.058 18.0233C535.058 15.3902 532.934 13.2474 530.322 13.2474L482.291 13.2474C479.68 13.2474 477.554 15.3902 477.554 18.0233V117.352C477.554 119.987 479.68 122.13 482.291 122.13L530.322 122.13C532.934 122.13 535.058 119.987 535.058 117.352V18.0233Z" fill="black"/>
<path d="M517.129 112.363V23.0149L498.176 23.0149V112.363H517.129Z" fill="black"/>
<path d="M530.893 108.03C545.694 110.086 560.179 93.8442 563.247 71.7539C566.315 49.6637 556.804 30.0898 542.003 28.0343C527.203 25.9788 512.718 42.2202 509.65 64.3104C506.582 86.4006 516.093 105.975 530.893 108.03Z" fill="#92E3A9" stroke="#263238" stroke-linecap="round" stroke-linejoin="round"/>
<path opacity="0.62" d="M535.463 108.084C520.364 109.77 508.553 93.1958 509.09 71.0772C509.628 48.9585 522.309 29.6559 537.418 27.9747C550.796 26.4817 561.58 39.3061 563.501 57.6076C563.751 59.9772 563.85 62.4431 563.791 64.9824C563.753 66.4356 563.667 67.8739 563.525 69.3018C561.575 89.5581 549.584 106.513 535.463 108.084Z" fill="white" stroke="#263238" stroke-linecap="round" stroke-linejoin="round"/>
<path d="M563.537 69.3006L555.089 66.341L554.224 54.6539L563.513 57.6068C563.763 59.9765 563.862 62.4424 563.803 64.9817C563.765 66.4348 563.68 67.8732 563.537 69.301L563.537 69.3006Z" fill="white" stroke="#263238" stroke-linecap="round" stroke-linejoin="round"/>
<path d="M555.803 37.0187L538.395 30.1663" stroke="#263238" stroke-linecap="round" stroke-linejoin="round"/>
<path d="M558.671 41.9713L542.17 35.2599" stroke="#263238" stroke-linecap="round" stroke-linejoin="round"/>
<path d="M561.524 48.9717L544.116 42.1198" stroke="#263238" stroke-linecap="round" stroke-linejoin="round"/>
<path d="M554.204 95.2976L536.795 88.4452" stroke="#263238" stroke-linecap="round" stroke-linejoin="round"/>
<path d="M549.75 100.674L532.342 93.8222" stroke="#263238" stroke-linecap="round" stroke-linejoin="round"/>
<path d="M544.053 105.037L526.645 98.1842" stroke="#263238" stroke-linecap="round" stroke-linejoin="round"/>
<path d="M563.309 57.683L546.235 51.1107" stroke="#263238" stroke-linecap="round" stroke-linejoin="round"/>
<path d="M563.393 69.4548L545.985 62.6025" stroke="#263238" stroke-linecap="round" stroke-linejoin="round"/>
<path d="M530.893 108.03C545.694 110.086 560.179 93.8442 563.247 71.7539C566.315 49.6637 556.804 30.0898 542.003 28.0343C527.203 25.9788 512.718 42.2202 509.65 64.3104C506.582 86.4006 516.093 105.975 530.893 108.03Z" stroke="#263238" stroke-linecap="round" stroke-linejoin="round"/>
<path d="M526.389 107.285C541.189 109.34 555.674 93.0983 558.742 71.008C561.809 48.9177 552.298 29.3439 537.498 27.2887C522.697 25.2335 508.212 41.4751 505.145 63.5654C502.077 85.6557 511.589 105.229 526.389 107.285Z" fill="#92E3A9" stroke="#263238" stroke-linecap="round" stroke-linejoin="round"/>
<path d="M527.231 101.23C539.791 102.974 552.083 89.1914 554.686 70.4451C557.29 51.6988 549.218 35.088 536.658 33.3439C524.098 31.5998 511.806 45.3828 509.203 64.1291C506.599 82.8753 514.671 99.4861 527.231 101.23Z" fill="#92E3A9" stroke="#263238" stroke-linecap="round" stroke-linejoin="round"/>
<path opacity="0.16" d="M527.231 101.23C539.791 102.974 552.083 89.1914 554.686 70.4451C557.29 51.6988 549.218 35.088 536.658 33.3439C524.098 31.5998 511.806 45.3828 509.203 64.1291C506.599 82.8753 514.671 99.4861 527.231 101.23Z" fill="black" stroke="#263238" stroke-linecap="round" stroke-linejoin="round"/>
<path d="M527.231 101.23C539.791 102.974 552.083 89.1914 554.686 70.4451C557.29 51.6988 549.218 35.088 536.658 33.3439C524.098 31.5998 511.806 45.3828 509.203 64.1291C506.599 82.8753 514.671 99.4861 527.231 101.23Z" stroke="#263238" stroke-linecap="round" stroke-linejoin="round"/>
<path d="M510.733 69.939C511.191 51.1658 521.953 34.7895 534.772 33.3611C535.183 33.3153 535.592 33.2869 535.998 33.2724C534.944 33.1739 533.867 33.1745 532.767 33.2968C519.948 34.7252 509.186 51.1021 508.729 69.8748C508.286 88.0451 517.659 101.799 529.885 101.369C518.657 100.318 510.315 87.1011 510.733 69.939Z" fill="#263238" stroke="#263238" stroke-linecap="round" stroke-linejoin="round"/>
<path d="M530.741 93.7305L529.344 92.8713L530.868 88.5362C528.412 88.6351 526.596 87.6783 525.418 85.6643C524.241 83.6508 523.659 80.411 523.672 75.9445L527.786 73.2681L529.183 74.1274C529.161 75.9439 529.233 77.4012 529.397 78.4984C529.561 79.5972 529.822 80.3696 530.18 80.8176C530.538 81.2672 530.98 81.4609 531.506 81.4022C532.174 81.3276 532.618 80.9474 532.837 80.2595C533.056 79.5731 533.175 78.8614 533.193 78.1271C533.235 76.3785 532.99 74.932 532.459 73.7879C531.927 72.6434 531.186 71.5147 530.237 70.3994L527.772 67.4825C527.079 66.6177 526.451 65.7197 525.891 64.7883C525.33 63.8574 524.886 62.7554 524.56 61.4834C524.234 60.2114 524.093 58.6672 524.138 56.8478C524.219 53.5254 524.933 50.8475 526.281 48.8138C527.628 46.7797 529.403 45.5188 531.607 45.0288L532.158 38.9823L533.555 39.8415L533.435 44.7729C534.817 44.7237 535.916 45.0637 536.733 45.7926C537.548 46.521 538.151 47.4654 538.539 48.6253C538.927 49.7857 539.183 51.0305 539.306 52.3598C539.428 53.6896 539.487 54.9293 539.483 56.0807L533.907 57.6963C533.908 57.4345 532.51 56.8371 532.51 56.8371C532.51 56.8371 533.874 55.1496 533.826 54.4092C533.765 53.4741 533.616 52.7676 533.378 52.2884C533.14 51.8096 532.745 51.6178 532.195 51.7137C531.598 51.7806 531.148 52.1968 530.843 52.9629C530.539 53.7295 530.377 54.4801 530.36 55.2144C530.319 56.8928 530.578 58.2164 531.139 59.1826C531.698 60.1499 532.313 61.0487 532.984 61.8808L535.345 64.7049C536.13 65.699 536.849 66.7698 537.5 67.9176C538.15 69.0664 538.66 70.3704 539.029 71.8282C539.398 73.287 539.56 74.9955 539.512 76.9543C539.467 78.808 539.162 80.534 538.6 82.1305C538.037 83.7281 537.254 85.0624 536.252 86.1328C535.249 87.2043 534.064 87.9199 532.698 88.2817L532.57 93.5281L530.743 93.7319L530.741 93.7305Z" fill="#263238" stroke="#263238" stroke-linecap="round" stroke-linejoin="round"/>
<path d="M529.342 92.8714L529.468 87.6777C527.013 87.7766 525.197 86.8198 524.019 84.8058C522.841 82.7923 522.26 79.5525 522.273 75.0859L527.784 73.2683C527.763 75.0848 527.835 76.5421 527.999 77.6393C528.162 78.7381 528.423 79.5105 528.781 79.9585C529.14 80.4081 529.581 80.6018 530.107 80.5431C530.776 80.4685 531.219 80.0883 531.439 79.4008C531.657 78.7145 531.777 78.0028 531.794 77.2685C531.837 75.5199 531.592 74.0733 531.06 72.9293C530.528 71.7848 529.788 70.6561 528.839 69.5408L526.374 66.6238C525.681 65.7591 525.053 64.8611 524.492 63.9297C523.931 62.9988 523.488 61.8968 523.162 60.6248C522.836 59.3527 522.695 57.8086 522.739 55.9892C522.821 52.6668 523.534 49.9889 524.882 47.9552C526.23 45.921 528.005 44.6602 530.208 44.1702L530.33 39.1862L532.157 38.9823L532.037 43.9143C533.419 43.865 534.518 44.2051 535.334 44.9339C536.15 45.6623 536.752 46.6067 537.141 47.7667C537.529 48.9271 537.785 50.1719 537.907 51.5011C538.029 52.8309 538.089 54.0707 538.085 55.2221L532.508 56.8376C532.515 55.5812 532.488 54.4859 532.427 53.5502C532.366 52.6151 532.218 51.9085 531.979 51.4293C531.741 50.9506 531.346 50.7587 530.797 50.8546C530.199 50.9215 529.749 51.3377 529.444 52.1038C529.14 52.8704 528.979 53.6211 528.961 54.3554C528.92 56.0337 529.179 57.3573 529.739 58.3231C530.299 59.2904 530.913 60.1897 531.585 61.0213L533.946 63.8453C534.731 64.8395 535.45 65.9103 536.1 67.0581C536.751 68.2068 537.261 69.5109 537.63 70.9686C537.999 72.4275 538.16 74.136 538.113 76.0948C538.067 77.9485 537.763 79.6744 537.201 81.271C536.637 82.8686 535.855 84.2028 534.852 85.2733C533.849 86.3448 532.665 87.0604 531.299 87.4222L531.17 92.6685L529.343 92.8723L529.342 92.8714Z" fill="#92E3A9" stroke="#263238" stroke-linecap="round" stroke-linejoin="round"/>
</svg>
