<svg width="600" height="338" viewBox="0 0 600 338" fill="none" xmlns="http://www.w3.org/2000/svg">
<path d="M374 288.5H348.563C345.75 288.5 343.5 286.219 343.5 283.438C343.5 280.625 345.781 278.375 348.563 278.375H374C376.812 278.375 379.063 280.656 379.063 283.438C379.094 286.25 376.812 288.5 374 288.5Z" fill="#E3E7E3"/>
<path d="M205.5 278.875H180.062C177.25 278.875 175 276.594 175 273.812C175 271 177.281 268.75 180.062 268.75H205.5C208.313 268.75 210.562 271.031 210.562 273.812C210.562 276.594 208.281 278.875 205.5 278.875Z" fill="#E3E7E3"/>
<path d="M361.124 293.594H335.687C332.874 293.594 330.625 291.313 330.625 288.531C330.625 285.719 332.906 283.469 335.687 283.469H361.124C363.937 283.469 366.187 285.75 366.187 288.531C366.218 291.313 363.937 293.594 361.124 293.594Z" fill="#E3E7E3"/>
<path d="M308.437 146.125L265.5 170.875L308.437 195.656L351.375 170.875L308.437 146.125Z" fill="#FFEE00"/>
<path d="M308.437 204.969L265.5 229.75L308.437 254.531L351.375 229.75L308.437 204.969Z" fill="#E3E7E3"/>
<path d="M308.438 195.656V245.188L351.376 220.438V170.875L308.438 195.656Z" fill="#FFEE00"/>
<path d="M308.437 195.656V245.188L265.5 220.438V170.875L308.437 195.656Z" fill="#FFEE00"/>
<path d="M270.781 232.625L308.437 254.344" stroke="#003D2E" stroke-width="0.409" stroke-miterlimit="10" stroke-linecap="round" stroke-linejoin="round"/>
<path d="M359.281 166.313L308.437 136.969L257.562 166.313V207.813" stroke="#003D2E" stroke-width="0.409" stroke-miterlimit="10" stroke-linecap="round" stroke-linejoin="round"/>
<path d="M345.001 233.25L308.438 254.344V195.656" stroke="#003D2E" stroke-width="0.409" stroke-miterlimit="10" stroke-linecap="round" stroke-linejoin="round"/>
<path d="M308.438 195.656L359.282 166.312V207.812" stroke="#003D2E" stroke-width="0.409" stroke-miterlimit="10" stroke-linecap="round" stroke-linejoin="round"/>
<path d="M308.437 195.656L257.562 166.312" stroke="#003D2E" stroke-width="0.409" stroke-miterlimit="10" stroke-linecap="round" stroke-linejoin="round"/>
<path d="M373.969 156.5L380.438 157.469L379.969 160.656" stroke="#003D2E" stroke-width="0.409" stroke-miterlimit="10" stroke-linecap="round" stroke-linejoin="round"/>
<path d="M379.469 163.969L378.563 170.031L366 168.156L367.876 155.594L373.969 156.5" stroke="#003D2E" stroke-width="0.409" stroke-miterlimit="10" stroke-linecap="round" stroke-linejoin="round"/>
<path d="M373.968 156.5L374.875 150.438L387.437 152.313L385.562 164.875L373 163L373.468 159.844" stroke="#003D2E" stroke-width="0.409" stroke-miterlimit="10" stroke-linecap="round" stroke-linejoin="round"/>
<path d="M434.063 46.6562L391.125 71.4063L434.063 96.1875L477 71.4063L434.063 46.6562Z" fill="#00FF94"/>
<path d="M434.063 105.5L391.125 130.281L434.063 155.062L477 130.281L434.063 105.5Z" fill="#E3E7E3"/>
<path d="M434.063 96.1874V145.719L477.001 120.969V71.4062L434.063 96.1874Z" fill="#00FF94"/>
<path d="M434.063 96.1874V145.719L391.125 120.969V71.4062L434.063 96.1874Z" fill="#00FF94"/>
<path d="M396.407 133.156L434.063 154.875" stroke="#003D2E" stroke-width="0.409" stroke-miterlimit="10" stroke-linecap="round" stroke-linejoin="round"/>
<path d="M484.907 66.8437L434.063 37.5L383.188 66.8437V108.344" stroke="#003D2E" stroke-width="0.409" stroke-miterlimit="10" stroke-linecap="round" stroke-linejoin="round"/>
<path d="M470.626 133.781L434.063 154.875V96.1874" stroke="#003D2E" stroke-width="0.409" stroke-miterlimit="10" stroke-linecap="round" stroke-linejoin="round"/>
<path d="M434.063 96.1874L484.907 66.8436V108.344" stroke="#003D2E" stroke-width="0.409" stroke-miterlimit="10" stroke-linecap="round" stroke-linejoin="round"/>
<path d="M434.063 96.1874L383.188 66.8436" stroke="#003D2E" stroke-width="0.409" stroke-miterlimit="10" stroke-linecap="round" stroke-linejoin="round"/>
<path d="M188.375 43.5312L145.438 68.2813L188.375 93.0625L231.313 68.2813L188.375 43.5312Z" fill="#877FFF"/>
<path d="M188.375 102.375L145.438 127.156L188.375 151.937L231.313 127.156L188.375 102.375Z" fill="#E3E7E3"/>
<path d="M188.376 93.0624V142.594L231.313 117.844V68.2812L188.376 93.0624Z" fill="#877FFF"/>
<path d="M188.375 93.0624V142.594L145.438 117.844V68.2812L188.375 93.0624Z" fill="#877FFF"/>
<path d="M150.719 130.031L188.375 151.75" stroke="#003D2E" stroke-width="0.409" stroke-miterlimit="10" stroke-linecap="round" stroke-linejoin="round"/>
<path d="M239.219 63.7187L188.375 34.375L137.5 63.7187V105.219" stroke="#003D2E" stroke-width="0.409" stroke-miterlimit="10" stroke-linecap="round" stroke-linejoin="round"/>
<path d="M224.938 130.656L188.376 151.75V93.0624" stroke="#003D2E" stroke-width="0.409" stroke-miterlimit="10" stroke-linecap="round" stroke-linejoin="round"/>
<path d="M188.376 93.0624L239.22 63.7186V105.219" stroke="#003D2E" stroke-width="0.409" stroke-miterlimit="10" stroke-linecap="round" stroke-linejoin="round"/>
<path d="M188.375 93.0624L137.5 63.7186" stroke="#003D2E" stroke-width="0.409" stroke-miterlimit="10" stroke-linecap="round" stroke-linejoin="round"/>
<path d="M240.456 152.612L242.039 159.004L238.902 159.759" stroke="#003D2E" stroke-width="0.409" stroke-miterlimit="10" stroke-linecap="round" stroke-linejoin="round"/>
<path d="M235.665 160.561L229.703 162.04L226.667 149.703L238.978 146.65L240.457 152.612" stroke="#003D2E" stroke-width="0.409" stroke-miterlimit="10" stroke-linecap="round" stroke-linejoin="round"/>
<path d="M240.457 152.613L246.446 151.149L249.482 163.487L237.144 166.523L234.092 154.212L237.202 153.441" stroke="#003D2E" stroke-width="0.409" stroke-miterlimit="10" stroke-linecap="round" stroke-linejoin="round"/>
<path d="M151.187 293.062L156.75 289.844" stroke="#003D2E" stroke-width="0.409" stroke-miterlimit="10" stroke-linecap="round" stroke-linejoin="round"/>
<path d="M162.281 293.062L159.843 291.625" stroke="#003D2E" stroke-width="0.409" stroke-miterlimit="10" stroke-linecap="round" stroke-linejoin="round"/>
<path d="M156.75 289.844V283.375" stroke="#003D2E" stroke-width="0.409" stroke-miterlimit="10" stroke-linecap="round" stroke-linejoin="round"/>
<path d="M347.937 300.812C350.491 300.812 352.562 298.742 352.562 296.187C352.562 293.633 350.491 291.562 347.937 291.562C345.383 291.562 343.312 293.633 343.312 296.187C343.312 298.742 345.383 300.812 347.937 300.812Z" stroke="#163B2F" stroke-width="0.409" stroke-miterlimit="10" stroke-linecap="round" stroke-linejoin="round"/>
<path d="M514.781 80.4688L518.188 83.9063" stroke="#163B2F" stroke-width="0.409" stroke-miterlimit="10" stroke-linecap="round" stroke-linejoin="round"/>
<path d="M520.718 86.4063L524.156 89.8438" stroke="#163B2F" stroke-width="0.409" stroke-miterlimit="10" stroke-linecap="round" stroke-linejoin="round"/>
<path d="M514.781 89.8438L518.188 86.4063" stroke="#163B2F" stroke-width="0.409" stroke-miterlimit="10" stroke-linecap="round" stroke-linejoin="round"/>
<path d="M520.718 83.9063L524.156 80.4688" stroke="#163B2F" stroke-width="0.409" stroke-miterlimit="10" stroke-linecap="round" stroke-linejoin="round"/>
<path d="M56.7505 181.781H63.0317" stroke="#003C2E" stroke-width="0.409" stroke-miterlimit="10" stroke-linecap="round" stroke-linejoin="round"/>
<path d="M478.876 171.875L482.313 175.313" stroke="#163B2F" stroke-width="0.409" stroke-miterlimit="10" stroke-linecap="round" stroke-linejoin="round"/>
<path d="M484.813 177.813L488.25 181.25" stroke="#163B2F" stroke-width="0.409" stroke-miterlimit="10" stroke-linecap="round" stroke-linejoin="round"/>
<path d="M478.876 181.25L482.313 177.813" stroke="#163B2F" stroke-width="0.409" stroke-miterlimit="10" stroke-linecap="round" stroke-linejoin="round"/>
<path d="M484.813 175.313L488.25 171.875" stroke="#163B2F" stroke-width="0.409" stroke-miterlimit="10" stroke-linecap="round" stroke-linejoin="round"/>
<path d="M498.126 209.906H504.407" stroke="#003C2E" stroke-width="0.409" stroke-miterlimit="10" stroke-linecap="round" stroke-linejoin="round"/>
<path d="M471.875 194.437H517.281" stroke="#00FF94" stroke-width="0.409" stroke-miterlimit="10" stroke-linecap="round" stroke-linejoin="round"/>
<path d="M512.5 209.875H537.906" stroke="#003C2E" stroke-width="0.409" stroke-miterlimit="10" stroke-linecap="round" stroke-linejoin="round"/>
<path d="M446.531 248.625H440.25" stroke="#003C2E" stroke-width="0.409" stroke-miterlimit="10" stroke-linecap="round" stroke-linejoin="round"/>
<path d="M472.78 264.062H427.374" stroke="#00FF94" stroke-width="0.409" stroke-miterlimit="10" stroke-linecap="round" stroke-linejoin="round"/>
<path d="M432.157 248.656H406.75" stroke="#003C2E" stroke-width="0.409" stroke-miterlimit="10" stroke-linecap="round" stroke-linejoin="round"/>
<path d="M134.03 171.875L130.593 175.313" stroke="#163B2F" stroke-width="0.409" stroke-miterlimit="10" stroke-linecap="round" stroke-linejoin="round"/>
<path d="M128.093 177.813L124.656 181.25" stroke="#163B2F" stroke-width="0.409" stroke-miterlimit="10" stroke-linecap="round" stroke-linejoin="round"/>
<path d="M134.03 181.25L130.593 177.813" stroke="#163B2F" stroke-width="0.409" stroke-miterlimit="10" stroke-linecap="round" stroke-linejoin="round"/>
<path d="M128.093 175.313L124.656 171.875" stroke="#163B2F" stroke-width="0.409" stroke-miterlimit="10" stroke-linecap="round" stroke-linejoin="round"/>
<path d="M114.78 209.906H108.499" stroke="#003C2E" stroke-width="0.409" stroke-miterlimit="10" stroke-linecap="round" stroke-linejoin="round"/>
<path d="M141.031 194.437H95.625" stroke="#00FF94" stroke-width="0.409" stroke-miterlimit="10" stroke-linecap="round" stroke-linejoin="round"/>
<path d="M100.406 209.875H75" stroke="#003C2E" stroke-width="0.409" stroke-miterlimit="10" stroke-linecap="round" stroke-linejoin="round"/>
<path d="M166.376 248.625H172.657" stroke="#003C2E" stroke-width="0.409" stroke-miterlimit="10" stroke-linecap="round" stroke-linejoin="round"/>
<path d="M140.126 264.062H185.532" stroke="#00FF94" stroke-width="0.409" stroke-miterlimit="10" stroke-linecap="round" stroke-linejoin="round"/>
<path d="M180.75 248.656H206.156" stroke="#003C2E" stroke-width="0.409" stroke-miterlimit="10" stroke-linecap="round" stroke-linejoin="round"/>
</svg>
