<svg width="192" height="108" viewBox="0 0 192 108" fill="none" xmlns="http://www.w3.org/2000/svg">
<path d="M105.33 41.562C104.82 40.022 105.15 37.342 105.67 36.002C105.54 36.382 105.45 36.772 105.4 37.172C105.29 38.062 105.37 39.012 105.68 39.972C105.69 40.012 105.7 40.042 105.71 40.072C107.19 44.572 112.87 47.842 118.4 47.372C118.48 47.362 118.56 47.352 118.64 47.342C118.69 47.332 118.75 47.332 118.8 47.322C118.81 47.322 118.81 47.322 118.82 47.322C122.22 46.912 124.71 45.142 125.66 42.752C125.77 42.472 125.86 42.192 125.93 41.892C125.52 45.102 122.32 48.482 118.02 48.842C112.49 49.342 106.81 46.062 105.33 41.562Z" fill="#00FF94"/>
<path d="M105.71 40.0916C105.7 40.0516 105.69 40.0216 105.68 39.9916C105.37 39.0216 105.29 38.0816 105.4 37.1916C105.45 36.7916 105.54 36.4016 105.67 36.0216C105.68 36.0016 105.68 35.9816 105.69 35.9616C106.6 33.3516 109.31 31.4116 113.04 31.1016C118.57 30.6316 124.25 33.9016 125.73 38.4016C126.14 39.6316 126.18 40.8316 125.93 41.9216C125.86 42.2216 125.77 42.5016 125.66 42.7816C124.71 45.1716 122.22 46.9416 118.82 47.3516C118.81 47.3516 118.81 47.3516 118.8 47.3516C118.75 47.3616 118.69 47.3616 118.64 47.3716C118.56 47.3816 118.48 47.3916 118.4 47.4016C112.88 47.8616 107.19 44.5916 105.71 40.0916Z" fill="#E3E7E3"/>
<path d="M105.27 41.5209C104.76 39.9809 105.09 37.3009 105.61 35.9609C105.48 36.3409 105.39 36.7309 105.34 37.1309C105.23 38.0209 105.31 38.9709 105.62 39.9309C105.63 39.9709 105.64 40.0009 105.65 40.0309C107.13 44.5309 112.81 47.8009 118.34 47.3309C118.42 47.3209 118.5 47.3109 118.58 47.3009C118.63 47.2909 118.69 47.2909 118.74 47.2809C118.75 47.2809 118.75 47.2809 118.76 47.2809C122.16 46.8709 124.65 45.1009 125.6 42.7109C125.71 42.4309 125.8 42.1509 125.87 41.8509C125.46 45.0609 122.26 48.4409 117.96 48.8009C112.43 49.2909 106.75 46.0209 105.27 41.5209Z" stroke="#003C2E" stroke-width="0.4217" stroke-miterlimit="10" stroke-linecap="round" stroke-linejoin="round"/>
<path d="M105.65 40.0408C105.64 40.0008 105.63 39.9708 105.62 39.9408C105.31 38.9708 105.23 38.0308 105.34 37.1408C105.39 36.7408 105.48 36.3508 105.61 35.9708C105.62 35.9508 105.62 35.9308 105.63 35.9108C106.54 33.3008 109.25 31.3608 112.98 31.0508C118.51 30.5808 124.19 33.8508 125.67 38.3508C126.08 39.5808 126.12 40.7808 125.87 41.8708C125.8 42.1708 125.71 42.4508 125.6 42.7308C124.65 45.1208 122.16 46.8908 118.76 47.3008C118.75 47.3008 118.75 47.3008 118.74 47.3008C118.69 47.3108 118.63 47.3108 118.58 47.3208C118.5 47.3308 118.42 47.3408 118.34 47.3508C112.81 47.8108 107.13 44.5408 105.65 40.0408Z" stroke="#003C2E" stroke-width="0.4217" stroke-miterlimit="10" stroke-linecap="round" stroke-linejoin="round"/>
<path d="M121.78 38.7505L120.89 37.8105L118.46 35.2505L117.57 34.3105L111.42 34.6105L111.01 35.6105L109.89 38.3605L109.48 39.3605L110.37 40.3005L112.8 42.8305L113.69 43.7705L119.84 43.4705L120.25 42.4705L121.37 39.7405L121.78 38.7505ZM113.15 36.4105L116.87 36.5505L119.35 39.1905L118.11 41.7005L114.39 41.5605L111.91 38.9205L113.15 36.4105Z" fill="#003D2E"/>
<path d="M119.67 68.1811C119.16 66.6411 119.49 63.9611 120.01 62.6211C119.88 63.0011 119.79 63.3911 119.74 63.7911C119.63 64.6811 119.71 65.6311 120.02 66.5911C120.03 66.6311 120.04 66.6611 120.05 66.6911C121.53 71.1911 127.21 74.4611 132.74 73.9911C132.82 73.9811 132.9 73.9711 132.98 73.9611C133.03 73.9511 133.09 73.9511 133.14 73.9411C133.15 73.9411 133.15 73.9411 133.16 73.9411C136.56 73.5311 139.05 71.7611 140 69.3711C140.11 69.0911 140.2 68.8111 140.27 68.5111C139.86 71.7211 136.66 75.1011 132.36 75.4611C126.83 75.9511 121.15 72.6811 119.67 68.1811Z" fill="#00FF94"/>
<path d="M120.05 66.701C120.04 66.661 120.03 66.631 120.02 66.601C119.71 65.631 119.63 64.691 119.74 63.801C119.79 63.401 119.88 63.011 120.01 62.631C120.02 62.611 120.02 62.591 120.03 62.571C120.94 59.961 123.65 58.021 127.38 57.711C132.91 57.241 138.59 60.511 140.07 65.011C140.48 66.241 140.52 67.441 140.27 68.531C140.2 68.821 140.11 69.111 140 69.391C139.05 71.781 136.56 73.551 133.16 73.961C133.15 73.961 133.15 73.961 133.14 73.961C133.09 73.971 133.03 73.971 132.98 73.981C132.9 73.991 132.82 74.001 132.74 74.011C127.21 74.471 121.53 71.201 120.05 66.701Z" fill="#E3E7E3"/>
<path d="M119.6 68.1303C119.09 66.5903 119.42 63.9103 119.94 62.5703C119.81 62.9503 119.72 63.3403 119.67 63.7403C119.56 64.6303 119.64 65.5803 119.95 66.5403C119.96 66.5803 119.97 66.6103 119.98 66.6403C121.46 71.1403 127.14 74.4103 132.67 73.9403C132.75 73.9303 132.83 73.9203 132.91 73.9103C132.96 73.9003 133.02 73.9003 133.07 73.8903C133.08 73.8903 133.08 73.8903 133.09 73.8903C136.49 73.4803 138.98 71.7103 139.93 69.3203C140.04 69.0403 140.13 68.7603 140.2 68.4603C139.79 71.6703 136.59 75.0503 132.29 75.4103C126.76 75.9003 121.08 72.6303 119.6 68.1303Z" stroke="#003C2E" stroke-width="0.4217" stroke-miterlimit="10" stroke-linecap="round" stroke-linejoin="round"/>
<path d="M119.98 66.6502C119.97 66.6102 119.96 66.5802 119.95 66.5502C119.64 65.5802 119.56 64.6402 119.67 63.7502C119.72 63.3502 119.81 62.9602 119.94 62.5802C119.95 62.5602 119.95 62.5402 119.96 62.5202C120.87 59.9102 123.58 57.9702 127.31 57.6602C132.84 57.1902 138.52 60.4602 140 64.9602C140.41 66.1902 140.45 67.3902 140.2 68.4802C140.13 68.7702 140.04 69.0602 139.93 69.3402C138.98 71.7302 136.49 73.5002 133.09 73.9102C133.08 73.9102 133.08 73.9102 133.07 73.9102C133.02 73.9202 132.96 73.9202 132.91 73.9302C132.83 73.9402 132.75 73.9502 132.67 73.9602C127.14 74.4302 121.46 71.1602 119.98 66.6502Z" stroke="#003C2E" stroke-width="0.4217" stroke-miterlimit="10" stroke-linecap="round" stroke-linejoin="round"/>
<path d="M136.12 65.3697L135.23 64.4297L132.8 61.8697L131.91 60.9297L125.76 61.2297L125.35 62.2297L124.23 64.9797L123.82 65.9797L124.71 66.9197L127.14 69.4497L128.03 70.3897L134.18 70.0897L134.59 69.0897L135.71 66.3597L136.12 65.3697ZM127.48 63.0197L131.2 63.1597L133.68 65.7997L132.44 68.3097L128.72 68.1697L126.24 65.5297L127.48 63.0197Z" fill="#003D2E"/>
<path d="M86.5001 78.65C85.0101 78.01 83.2301 75.98 82.5801 74.7C82.7801 75.05 83.0101 75.37 83.2801 75.68C83.8701 76.36 84.6301 76.92 85.5601 77.34C85.5901 77.36 85.6201 77.37 85.6601 77.39C90.0101 79.28 96.2301 77.2 99.5501 72.76C99.6001 72.69 99.6401 72.63 99.6901 72.56C99.7201 72.52 99.7501 72.47 99.7801 72.43C99.7901 72.42 99.7901 72.42 99.7901 72.41C101.74 69.6 102.07 66.56 100.92 64.27C100.79 64 100.63 63.74 100.46 63.5C102.59 65.94 102.98 70.58 100.4 74.03C97.0601 78.46 90.8401 80.54 86.5001 78.65Z" fill="#00FF94"/>
<path d="M85.6502 77.3803C85.6202 77.3703 85.5802 77.3503 85.5502 77.3303C84.6202 76.9103 83.8602 76.3503 83.2702 75.6703C83.0002 75.3703 82.7702 75.0403 82.5702 74.6903C82.5602 74.6703 82.5502 74.6503 82.5402 74.6303C81.2002 72.2203 81.5502 68.9103 83.7902 65.9103C87.1202 61.4703 93.3302 59.3903 97.6802 61.2803C98.8702 61.8003 99.8002 62.5503 100.44 63.4803C100.62 63.7303 100.77 63.9803 100.9 64.2503C102.05 66.5503 101.72 69.5903 99.7702 72.3903C99.7702 72.4003 99.7602 72.4003 99.7602 72.4103C99.7302 72.4503 99.7002 72.5003 99.6702 72.5403C99.6202 72.6103 99.5802 72.6703 99.5302 72.7403C96.2102 77.2003 89.9902 79.2703 85.6502 77.3803Z" fill="#E3E7E3"/>
<path d="M86.42 78.6695C84.93 78.0295 83.15 75.9995 82.5 74.7195C82.7 75.0695 82.93 75.3895 83.2 75.6995C83.79 76.3795 84.55 76.9395 85.48 77.3595C85.51 77.3795 85.54 77.3895 85.58 77.4095C89.93 79.2995 96.15 77.2195 99.47 72.7795C99.52 72.7095 99.56 72.6495 99.61 72.5795C99.64 72.5395 99.67 72.4895 99.7 72.4495C99.71 72.4395 99.71 72.4395 99.71 72.4295C101.66 69.6195 101.99 66.5795 100.84 64.2895C100.71 64.0195 100.55 63.7595 100.38 63.5195C102.51 65.9595 102.9 70.5995 100.32 74.0495C96.99 78.4795 90.76 80.5495 86.42 78.6695Z" stroke="#003C2E" stroke-width="0.4217" stroke-miterlimit="10" stroke-linecap="round" stroke-linejoin="round"/>
<path d="M85.5701 77.3999C85.5401 77.3899 85.5001 77.3698 85.4701 77.3498C84.5401 76.9298 83.7801 76.3699 83.1901 75.6899C82.9201 75.3899 82.6901 75.0599 82.4901 74.7099C82.4801 74.6899 82.4701 74.6699 82.4601 74.6499C81.1201 72.2399 81.4701 68.9299 83.7101 65.9299C87.0401 61.4899 93.2501 59.4099 97.6001 61.2999C98.7901 61.8199 99.7201 62.5699 100.36 63.4999C100.54 63.7499 100.69 63.9998 100.82 64.2698C101.97 66.5698 101.64 69.6099 99.6901 72.4099C99.6901 72.4199 99.6801 72.4199 99.6801 72.4299C99.6501 72.4699 99.6201 72.5198 99.5901 72.5598C99.5401 72.6298 99.5001 72.6899 99.4501 72.7599C96.1301 77.2099 89.9101 79.2899 85.5701 77.3999Z" stroke="#003C2E" stroke-width="0.4217" stroke-miterlimit="10" stroke-linecap="round" stroke-linejoin="round"/>
<path fill-rule="evenodd" clip-rule="evenodd" d="M96.62 69.0795L98.94 67.6395L95.54 63.6895L93.22 65.1295L94.56 66.6795L92.99 67.6495C91.83 66.5295 90.41 65.9995 89.64 66.4795C88.87 66.9595 89.02 68.2695 89.94 69.5395L84.5 72.9095L85.23 73.7595L90.67 70.3895C91.83 71.5095 93.25 72.0395 94.02 71.5595C94.79 71.0895 94.64 69.7795 93.73 68.4995L95.29 67.5295L96.62 69.0795ZM93.89 71.4195C93.51 71.6595 92.5 71.0595 91.43 69.9195C91.3 69.7895 91.18 69.6495 91.05 69.5095C90.93 69.3595 90.81 69.2195 90.7 69.0795C89.75 67.8695 89.38 66.8695 89.76 66.6295C90.14 66.3895 91.46 66.7995 92.6 67.8995L91.07 68.8395L91.8 69.6895L93.33 68.7495C94.21 69.9995 94.27 71.1895 93.89 71.4195Z" fill="#003D2E"/>
<path d="M102.31 88.9709C101.93 87.4009 102.47 84.7509 103.09 83.4609C102.93 83.8309 102.81 84.2109 102.73 84.6109C102.55 85.4909 102.56 86.4409 102.78 87.4309C102.79 87.4709 102.79 87.5009 102.8 87.5409C103.92 92.1409 109.33 95.8509 114.88 95.8209C114.96 95.8209 115.04 95.8209 115.12 95.8109C115.17 95.8109 115.23 95.8009 115.28 95.8009C115.29 95.8009 115.29 95.8009 115.3 95.8009C118.72 95.6609 121.34 94.0909 122.48 91.7809C122.61 91.5109 122.73 91.2309 122.82 90.9409C122.16 94.1109 118.7 97.2209 114.39 97.2509C108.84 97.2809 103.43 93.5709 102.31 88.9709Z" fill="#00FF94"/>
<path d="M102.8 87.5313C102.79 87.4913 102.78 87.4613 102.78 87.4213C102.55 86.4313 102.54 85.4813 102.73 84.6013C102.81 84.2013 102.93 83.8213 103.09 83.4513C103.1 83.4313 103.11 83.4113 103.12 83.3913C104.23 80.8613 107.08 79.1413 110.83 79.1213C116.38 79.0913 121.79 82.7913 122.91 87.4013C123.22 88.6613 123.17 89.8613 122.83 90.9313C122.74 91.2213 122.63 91.5013 122.49 91.7713C121.35 94.0813 118.73 95.6513 115.31 95.7913C115.3 95.7913 115.3 95.7913 115.29 95.7913C115.24 95.7913 115.18 95.8013 115.13 95.8013C115.05 95.8013 114.97 95.8113 114.89 95.8113C109.33 95.8413 103.93 92.1313 102.8 87.5313Z" fill="#E3E7E3"/>
<path d="M102.25 88.9104C101.87 87.3404 102.41 84.6904 103.03 83.4004C102.87 83.7704 102.75 84.1504 102.67 84.5504C102.49 85.4304 102.5 86.3804 102.72 87.3704C102.73 87.4104 102.73 87.4404 102.74 87.4804C103.86 92.0804 109.27 95.7904 114.82 95.7604C114.9 95.7604 114.98 95.7604 115.06 95.7504C115.11 95.7504 115.17 95.7404 115.22 95.7404C115.23 95.7404 115.23 95.7404 115.24 95.7404C118.66 95.6004 121.28 94.0304 122.42 91.7204C122.55 91.4504 122.67 91.1704 122.76 90.8804C122.1 94.0504 118.64 97.1604 114.33 97.1904C108.78 97.2304 103.37 93.5204 102.25 88.9104Z" stroke="#003C2E" stroke-width="0.4217" stroke-miterlimit="10" stroke-linecap="round" stroke-linejoin="round"/>
<path d="M102.74 87.4707C102.73 87.4307 102.72 87.4007 102.72 87.3607C102.49 86.3707 102.48 85.4207 102.67 84.5407C102.75 84.1407 102.87 83.7607 103.03 83.3907C103.04 83.3707 103.05 83.3507 103.06 83.3307C104.17 80.8007 107.02 79.0807 110.77 79.0607C116.32 79.0307 121.73 82.7307 122.85 87.3407C123.16 88.6007 123.11 89.8007 122.77 90.8707C122.68 91.1607 122.57 91.4407 122.43 91.7107C121.29 94.0207 118.67 95.5907 115.25 95.7307C115.24 95.7307 115.24 95.7307 115.23 95.7307C115.18 95.7307 115.12 95.7407 115.07 95.7407C114.99 95.7407 114.91 95.7507 114.83 95.7507C109.27 95.7807 103.86 92.0807 102.74 87.4707Z" stroke="#003C2E" stroke-width="0.4217" stroke-miterlimit="10" stroke-linecap="round" stroke-linejoin="round"/>
<path fill-rule="evenodd" clip-rule="evenodd" d="M116.05 91.2604L118.6 92.2404L119.69 87.1404L117.14 86.1604L116.71 88.1604L114.99 87.4904C115.19 85.8904 114.75 84.4404 113.9 84.1104C113.06 83.7804 112.1 84.7004 111.64 86.2004L105.67 83.9004L105.43 85.0004L111.4 87.3004C111.2 88.9004 111.64 90.3604 112.49 90.6804C113.33 91.0104 114.29 90.1004 114.76 88.6004L116.48 89.2604L116.05 91.2604ZM112.53 90.5004C112.11 90.3404 111.98 89.1804 112.24 87.6304C112.27 87.4504 112.3 87.2704 112.34 87.0804C112.38 86.8904 112.42 86.7104 112.47 86.5404C112.86 85.0504 113.43 84.1604 113.85 84.3104C114.27 84.4704 114.74 85.7704 114.56 87.3404L112.89 86.6904L112.66 87.7804L114.33 88.4304C113.87 89.9004 112.95 90.6604 112.53 90.5004Z" fill="#003D2E"/>
<path d="M148.4 67.5901C148.02 66.0201 148.56 63.3701 149.18 62.0801C149.02 62.4501 148.9 62.8301 148.82 63.2301C148.64 64.1101 148.65 65.0601 148.87 66.0501C148.88 66.0901 148.88 66.1201 148.89 66.1601C150.01 70.7601 155.42 74.4701 160.97 74.4401C161.05 74.4401 161.13 74.4401 161.21 74.4301C161.26 74.4301 161.32 74.4201 161.37 74.4201C161.38 74.4201 161.38 74.4201 161.39 74.4201C164.81 74.2801 167.43 72.7101 168.57 70.4001C168.7 70.1301 168.82 69.8501 168.91 69.5601C168.25 72.7301 164.79 75.8401 160.48 75.8701C154.93 75.9001 149.52 72.1901 148.4 67.5901Z" fill="#00FF94"/>
<path d="M148.9 66.1504C148.89 66.1104 148.88 66.0804 148.88 66.0404C148.65 65.0504 148.64 64.1004 148.83 63.2204C148.91 62.8204 149.03 62.4404 149.19 62.0704C149.2 62.0504 149.21 62.0304 149.22 62.0104C150.33 59.4804 153.18 57.7604 156.93 57.7404C162.48 57.7104 167.89 61.4104 169.01 66.0204C169.32 67.2804 169.27 68.4804 168.93 69.5504C168.84 69.8404 168.73 70.1204 168.59 70.3904C167.45 72.7004 164.83 74.2704 161.41 74.4104C161.4 74.4104 161.4 74.4104 161.39 74.4104C161.34 74.4104 161.28 74.4204 161.23 74.4204C161.15 74.4204 161.07 74.4304 160.99 74.4304C155.43 74.4604 150.02 70.7504 148.9 66.1504Z" fill="#E3E7E3"/>
<path d="M148.34 67.5295C147.96 65.9595 148.5 63.3095 149.12 62.0195C148.96 62.3895 148.84 62.7695 148.76 63.1695C148.58 64.0495 148.59 64.9995 148.81 65.9895C148.82 66.0295 148.82 66.0595 148.83 66.0995C149.95 70.6995 155.36 74.4095 160.91 74.3795C160.99 74.3795 161.07 74.3795 161.15 74.3695C161.2 74.3695 161.26 74.3595 161.31 74.3595C161.32 74.3595 161.32 74.3595 161.33 74.3595C164.75 74.2195 167.37 72.6495 168.51 70.3395C168.64 70.0695 168.76 69.7895 168.85 69.4995C168.19 72.6695 164.73 75.7795 160.42 75.8095C154.87 75.8495 149.46 72.1395 148.34 67.5295Z" stroke="#003C2E" stroke-width="0.4217" stroke-miterlimit="10" stroke-linecap="round" stroke-linejoin="round"/>
<path d="M148.84 66.0899C148.83 66.0499 148.82 66.0199 148.82 65.9799C148.59 64.9899 148.58 64.0399 148.77 63.1599C148.85 62.7599 148.97 62.3799 149.13 62.0099C149.14 61.9899 149.15 61.9699 149.16 61.9499C150.27 59.4199 153.12 57.6999 156.87 57.6799C162.42 57.6499 167.83 61.3499 168.95 65.9599C169.26 67.2199 169.21 68.4199 168.87 69.4899C168.78 69.7799 168.67 70.0599 168.53 70.3299C167.39 72.6399 164.77 74.2099 161.35 74.3499C161.34 74.3499 161.34 74.3499 161.33 74.3499C161.28 74.3499 161.22 74.3599 161.17 74.3599C161.09 74.3599 161.01 74.3699 160.93 74.3699C155.37 74.3999 149.96 70.6999 148.84 66.0899Z" stroke="#003C2E" stroke-width="0.4217" stroke-miterlimit="10" stroke-linecap="round" stroke-linejoin="round"/>
<path fill-rule="evenodd" clip-rule="evenodd" d="M162.14 69.8795L164.69 70.8595L165.78 65.7595L163.23 64.7795L162.8 66.7795L161.08 66.1095C161.28 64.5095 160.84 63.0595 159.99 62.7295C159.15 62.3995 158.19 63.3195 157.73 64.8195L151.76 62.5195L151.53 63.6095L157.5 65.9095C157.3 67.5095 157.74 68.9695 158.59 69.2895C159.43 69.6195 160.39 68.7095 160.86 67.2095L162.58 67.8695L162.14 69.8795ZM158.63 69.1195C158.21 68.9595 158.08 67.7995 158.34 66.2495C158.37 66.0695 158.4 65.8895 158.44 65.6995C158.48 65.5095 158.52 65.3295 158.57 65.1595C158.96 63.6695 159.53 62.7795 159.95 62.9295C160.37 63.0895 160.84 64.3895 160.66 65.9595L158.99 65.3095L158.76 66.3995L160.43 67.0495C159.96 68.5195 159.05 69.2795 158.63 69.1195Z" fill="#003D2E"/>
<path d="M70.3001 73.4698C70.1601 73.4898 70.0301 73.5098 69.8901 73.5198C66.0301 74.0098 62.2301 73.7998 58.6501 72.9798C57.0301 72.6098 55.4501 72.1298 53.9201 71.5298C53.8401 71.4998 53.7601 71.4598 53.6801 71.4298C43.0901 67.1998 35.0101 57.5598 33.3501 45.4498C30.8901 27.5098 43.4301 10.9698 61.3701 8.49979C66.2801 7.81979 71.0801 8.26979 75.5201 9.65979C76.7101 10.0298 77.8801 10.4598 79.0001 10.9598C88.7001 15.2198 96.0901 24.0798 98.0801 35.1598C98.0901 35.1898 98.1001 35.2098 98.1001 35.2398C98.1301 35.4098 98.1701 35.5898 98.1901 35.7598C98.2401 36.0198 98.2801 36.2898 98.3201 36.5498C100.8 54.4698 88.2501 71.0098 70.3001 73.4698Z" fill="#00FF94"/>
<path d="M70.1199 73.6495C69.9799 73.6695 69.8499 73.6895 69.7099 73.6995C65.8499 74.1895 62.0499 73.9795 58.4699 73.1595C56.8499 72.7895 55.2699 72.3095 53.7399 71.7095C53.6599 71.6795 53.5799 71.6395 53.4999 71.6095C42.9199 67.3695 34.8399 57.7395 33.1799 45.6295C30.6999 27.6895 43.2399 11.1495 61.1899 8.67946C66.0999 7.99946 70.8999 8.45945 75.3299 9.83945C76.5199 10.2095 77.6899 10.6395 78.8099 11.1395C88.5099 15.3995 95.8999 24.2595 97.8899 35.3395C97.8999 35.3695 97.9099 35.3895 97.9099 35.4195C97.9399 35.5895 97.9799 35.7695 97.9999 35.9395C98.0499 36.1995 98.0899 36.4695 98.1299 36.7295C100.61 54.6495 88.0599 71.1895 70.1199 73.6495Z" stroke="#003C2E" stroke-width="0.4217" stroke-miterlimit="10" stroke-linecap="round" stroke-linejoin="round"/>
<path d="M117.86 76.7C116.54 76.78 114.49 75.97 113.54 75.29C113.81 75.47 114.1 75.62 114.41 75.74C115.09 76.01 115.85 76.14 116.68 76.1C116.71 76.1 116.74 76.1 116.77 76.1C120.63 75.86 124.39 72.04 125.16 67.58C125.17 67.51 125.18 67.45 125.19 67.38C125.2 67.34 125.2 67.29 125.21 67.25C125.21 67.24 125.21 67.24 125.21 67.23C125.59 64.46 124.7 62.13 123.01 60.89C122.81 60.74 122.61 60.61 122.39 60.5C124.84 61.48 126.85 64.71 126.25 68.18C125.48 72.65 121.72 76.46 117.86 76.7Z" fill="#00FF94"/>
<path d="M116.77 76.0993C116.74 76.0993 116.71 76.0993 116.68 76.0993C115.85 76.1393 115.09 76.0093 114.41 75.7393C114.1 75.6193 113.81 75.4693 113.54 75.2893C113.53 75.2793 113.51 75.2693 113.5 75.2593C111.63 73.9993 110.65 71.4693 111.17 68.4493C111.94 63.9793 115.69 60.1693 119.56 59.9293C120.62 59.8593 121.57 60.0693 122.38 60.4993C122.6 60.6093 122.81 60.7393 123 60.8893C124.69 62.1293 125.58 64.4693 125.2 67.2293C125.2 67.2393 125.2 67.2393 125.2 67.2493C125.19 67.2893 125.19 67.3393 125.18 67.3793C125.17 67.4493 125.16 67.5093 125.15 67.5793C124.39 72.0393 120.64 75.8593 116.77 76.0993Z" fill="#E3E7E3"/>
<path d="M117.81 76.7391C116.49 76.8191 114.44 76.0091 113.49 75.3291C113.76 75.5091 114.05 75.6591 114.36 75.7791C115.04 76.0491 115.8 76.1791 116.63 76.1391C116.66 76.1391 116.69 76.1391 116.72 76.1391C120.58 75.8991 124.34 72.0791 125.11 67.6191C125.12 67.5491 125.13 67.4891 125.14 67.4191C125.15 67.3791 125.15 67.3291 125.16 67.2891C125.16 67.2791 125.16 67.2791 125.16 67.2691C125.54 64.4991 124.65 62.1691 122.96 60.9291C122.76 60.7791 122.56 60.6491 122.34 60.5391C124.79 61.5191 126.8 64.7491 126.2 68.2191C125.43 72.6891 121.67 76.4991 117.81 76.7391Z" stroke="#003C2E" stroke-width="0.4217" stroke-miterlimit="10" stroke-linecap="round" stroke-linejoin="round"/>
<path d="M116.72 76.1383C116.69 76.1383 116.66 76.1383 116.63 76.1383C115.8 76.1783 115.04 76.0483 114.36 75.7783C114.05 75.6583 113.76 75.5083 113.49 75.3283C113.48 75.3183 113.46 75.3083 113.45 75.2983C111.58 74.0383 110.6 71.5083 111.12 68.4883C111.89 64.0183 115.64 60.2083 119.51 59.9683C120.57 59.8983 121.52 60.1083 122.33 60.5383C122.55 60.6483 122.76 60.7783 122.95 60.9283C124.64 62.1683 125.53 64.5083 125.15 67.2683C125.15 67.2783 125.15 67.2783 125.15 67.2883C125.14 67.3283 125.14 67.3783 125.13 67.4183C125.12 67.4883 125.11 67.5483 125.1 67.6183C124.34 72.0783 120.58 75.8983 116.72 76.1383Z" stroke="#003C2E" stroke-width="0.4217" stroke-miterlimit="10" stroke-linecap="round" stroke-linejoin="round"/>
<mask id="path-32-outside-1_156_654" maskUnits="userSpaceOnUse" x="50.3105" y="30.8672" width="28" height="17" fill="black">
<rect fill="white" x="50.3105" y="30.8672" width="28" height="17"/>
<path d="M51.3105 31.8672C51.3659 31.9237 51.4631 31.9755 51.4703 32.0376C51.5393 32.6417 51.917 33.0473 52.3759 33.3719C56.5899 36.352 60.8049 39.3309 65.0342 42.2893C66.0558 43.004 66.8658 42.9626 67.874 42.2541C70.1774 40.6349 72.4789 39.0131 74.7772 37.3869C76.0804 36.4649 77.0309 35.2662 77.5279 33.7483C77.7014 33.2186 77.7681 32.6544 77.841 32.3083C77.841 33.6307 77.9391 35.1639 77.816 36.6792C77.6642 38.5473 76.7227 40.0879 75.2189 41.1972C72.7141 43.045 70.1599 44.8273 67.6044 46.6059C66.7733 47.1843 65.893 47.0328 65.079 46.5043C64.2442 45.9621 63.4159 45.4086 62.604 44.8333C59.2396 42.4493 55.8835 40.0536 52.5217 37.6659C51.9458 37.2568 51.4908 36.7733 51.3884 36.042C51.3909 34.854 51.3951 33.6658 51.392 32.4778C51.3918 32.3875 51.3389 32.2974 51.3105 32.2073C51.3105 32.094 51.3105 31.9806 51.3105 31.8672Z"/>
</mask>
<path d="M51.3105 31.8672C51.3659 31.9237 51.4631 31.9755 51.4703 32.0376C51.5393 32.6417 51.917 33.0473 52.3759 33.3719C56.5899 36.352 60.8049 39.3309 65.0342 42.2893C66.0558 43.004 66.8658 42.9626 67.874 42.2541C70.1774 40.6349 72.4789 39.0131 74.7772 37.3869C76.0804 36.4649 77.0309 35.2662 77.5279 33.7483C77.7014 33.2186 77.7681 32.6544 77.841 32.3083C77.841 33.6307 77.9391 35.1639 77.816 36.6792C77.6642 38.5473 76.7227 40.0879 75.2189 41.1972C72.7141 43.045 70.1599 44.8273 67.6044 46.6059C66.7733 47.1843 65.893 47.0328 65.079 46.5043C64.2442 45.9621 63.4159 45.4086 62.604 44.8333C59.2396 42.4493 55.8835 40.0536 52.5217 37.6659C51.9458 37.2568 51.4908 36.7733 51.3884 36.042C51.3909 34.854 51.3951 33.6658 51.392 32.4778C51.3918 32.3875 51.3389 32.2974 51.3105 32.2073C51.3105 32.094 51.3105 31.9806 51.3105 31.8672Z" fill="#003B2F"/>
<path d="M51.3105 31.8672C51.3659 31.9237 51.4631 31.9755 51.4703 32.0376C51.5393 32.6417 51.917 33.0473 52.3759 33.3719C56.5899 36.352 60.8049 39.3309 65.0342 42.2893C66.0558 43.004 66.8658 42.9626 67.874 42.2541C70.1774 40.6349 72.4789 39.0131 74.7772 37.3869C76.0804 36.4649 77.0309 35.2662 77.5279 33.7483C77.7014 33.2186 77.7681 32.6544 77.841 32.3083C77.841 33.6307 77.9391 35.1639 77.816 36.6792C77.6642 38.5473 76.7227 40.0879 75.2189 41.1972C72.7141 43.045 70.1599 44.8273 67.6044 46.6059C66.7733 47.1843 65.893 47.0328 65.079 46.5043C64.2442 45.9621 63.4159 45.4086 62.604 44.8333C59.2396 42.4493 55.8835 40.0536 52.5217 37.6659C51.9458 37.2568 51.4908 36.7733 51.3884 36.042C51.3909 34.854 51.3951 33.6658 51.392 32.4778C51.3918 32.3875 51.3389 32.2974 51.3105 32.2073C51.3105 32.094 51.3105 31.9806 51.3105 31.8672Z" stroke="#003B2F" stroke-width="0.4" stroke-linejoin="round" mask="url(#path-32-outside-1_156_654)"/>
<mask id="path-33-outside-2_156_654" maskUnits="userSpaceOnUse" x="50" y="30.543" width="29" height="17" fill="black">
<rect fill="white" x="50" y="30.543" width="29" height="17"/>
<path fill-rule="evenodd" clip-rule="evenodd" d="M51.1923 31.5659C51.3087 31.5184 51.4422 31.5461 51.5301 31.6358C51.53 31.6358 51.5301 31.6358 51.5301 31.6358C51.5301 31.6358 51.5314 31.6371 51.5348 31.6401C51.5387 31.6435 51.5438 31.6477 51.5511 31.6536C51.5534 31.6555 51.5564 31.6579 51.5599 31.6607C51.5729 31.6711 51.5928 31.687 51.6094 31.7015C51.6314 31.7205 51.6648 31.751 51.695 31.7908C51.7252 31.8305 51.7657 31.8971 51.7761 31.9873C51.8306 32.4639 52.1247 32.8014 52.5531 33.1045C56.7672 36.0846 60.9815 39.0631 65.2101 42.021C65.6879 42.3552 66.0821 42.489 66.4513 42.4813C66.823 42.4735 67.218 42.3213 67.6948 41.9861C69.998 40.3671 72.2993 38.7455 74.5973 37.1195C75.8526 36.2313 76.7586 35.085 77.2327 33.6371C77.3499 33.2792 77.4125 32.9205 77.4675 32.605C77.4908 32.4709 77.5128 32.3446 77.5371 32.2295C77.5698 32.0745 77.7142 31.9693 77.8717 31.9857C78.0292 32.0022 78.1489 32.1349 78.1489 32.2933C78.1489 32.6743 78.1574 33.0792 78.1663 33.4999C78.1875 34.5087 78.2106 35.6087 78.1228 36.6892C77.9631 38.6555 76.9692 40.2743 75.4011 41.4311C72.8924 43.2817 70.3349 45.0663 67.7797 46.8447C67.3073 47.1735 66.8092 47.3006 66.3111 47.2635C65.819 47.227 65.3458 47.0321 64.9093 46.7486C64.0723 46.205 63.2403 45.6491 62.4239 45.0706C60.4294 43.6573 58.4374 42.2396 56.4456 40.8221C55.0776 39.8484 53.7097 38.8749 52.3413 37.903C51.7368 37.4735 51.2005 36.9245 51.0809 36.0699C51.0789 36.0555 51.0779 36.041 51.0779 36.0264C51.0784 35.7886 51.0789 35.5508 51.0795 35.313C51.0817 34.3643 51.0839 33.4164 51.0815 32.4685C51.0808 32.4655 51.0783 32.4556 51.0707 32.4354C51.066 32.4227 51.0615 32.4113 51.0555 32.3965C51.0528 32.3898 51.0499 32.3825 51.0465 32.374C51.037 32.35 51.0249 32.3189 51.0143 32.2852C51.0048 32.2551 51 32.2238 51 32.1923V31.8522C51 31.7265 51.076 31.6134 51.1923 31.5659ZM67.8726 42.2391C66.8645 42.9476 66.0545 42.989 65.0329 42.2743C60.8036 39.3159 56.5888 36.3368 52.3747 33.3566C52.1075 33.1676 51.8676 32.9514 51.7004 32.6842C51.6564 32.6139 51.6174 32.54 51.5842 32.4623C51.5842 32.4623 51.5842 32.4623 51.5842 32.4623C51.5479 32.3772 51.5186 32.2874 51.4974 32.1923C51.4933 32.1739 51.4895 32.1554 51.486 32.1366C51.4791 32.0994 51.4734 32.0614 51.4689 32.0226C51.4641 31.9802 51.4171 31.9426 51.3703 31.905C51.3485 31.8875 51.3268 31.8701 51.3092 31.8522V32.1923C51.3182 32.2208 51.3297 32.2494 51.3411 32.278C51.3658 32.3395 51.3905 32.4011 51.3907 32.4628C51.3909 32.565 51.3911 32.6672 51.3913 32.7695C51.3927 33.6177 51.3907 34.4659 51.3887 35.3141C51.3881 35.5518 51.3876 35.7894 51.3871 36.027C51.4895 36.7583 51.9445 37.2418 52.5204 37.6509C53.8894 38.6233 55.2575 39.5969 56.6256 40.5706C58.617 41.9879 60.6084 43.4051 62.6027 44.8183C63.4145 45.3936 64.2428 45.9471 65.0777 46.4893C65.8916 47.0178 66.772 47.1693 67.6031 46.5909C70.1585 44.8123 72.7128 43.03 75.2176 41.1822C76.7214 40.0729 77.6628 38.5323 77.8146 36.6642C77.8961 35.6615 77.8807 34.651 77.861 33.6989C77.8598 33.6406 77.8586 33.5825 77.8573 33.5246C77.8484 33.0995 77.8397 32.687 77.8397 32.2933C77.8191 32.391 77.799 32.5061 77.7768 32.6329C77.7243 32.9338 77.6603 33.3006 77.5507 33.6572C77.5429 33.6827 77.5349 33.708 77.5266 33.7333C77.0295 35.2512 76.0791 36.4499 74.7759 37.3719C72.4776 38.9981 70.176 40.6199 67.8726 42.2391Z"/>
</mask>
<path fill-rule="evenodd" clip-rule="evenodd" d="M51.1923 31.5659C51.3087 31.5184 51.4422 31.5461 51.5301 31.6358C51.53 31.6358 51.5301 31.6358 51.5301 31.6358C51.5301 31.6358 51.5314 31.6371 51.5348 31.6401C51.5387 31.6435 51.5438 31.6477 51.5511 31.6536C51.5534 31.6555 51.5564 31.6579 51.5599 31.6607C51.5729 31.6711 51.5928 31.687 51.6094 31.7015C51.6314 31.7205 51.6648 31.751 51.695 31.7908C51.7252 31.8305 51.7657 31.8971 51.7761 31.9873C51.8306 32.4639 52.1247 32.8014 52.5531 33.1045C56.7672 36.0846 60.9815 39.0631 65.2101 42.021C65.6879 42.3552 66.0821 42.489 66.4513 42.4813C66.823 42.4735 67.218 42.3213 67.6948 41.9861C69.998 40.3671 72.2993 38.7455 74.5973 37.1195C75.8526 36.2313 76.7586 35.085 77.2327 33.6371C77.3499 33.2792 77.4125 32.9205 77.4675 32.605C77.4908 32.4709 77.5128 32.3446 77.5371 32.2295C77.5698 32.0745 77.7142 31.9693 77.8717 31.9857C78.0292 32.0022 78.1489 32.1349 78.1489 32.2933C78.1489 32.6743 78.1574 33.0792 78.1663 33.4999C78.1875 34.5087 78.2106 35.6087 78.1228 36.6892C77.9631 38.6555 76.9692 40.2743 75.4011 41.4311C72.8924 43.2817 70.3349 45.0663 67.7797 46.8447C67.3073 47.1735 66.8092 47.3006 66.3111 47.2635C65.819 47.227 65.3458 47.0321 64.9093 46.7486C64.0723 46.205 63.2403 45.6491 62.4239 45.0706C60.4294 43.6573 58.4374 42.2396 56.4456 40.8221C55.0776 39.8484 53.7097 38.8749 52.3413 37.903C51.7368 37.4735 51.2005 36.9245 51.0809 36.0699C51.0789 36.0555 51.0779 36.041 51.0779 36.0264C51.0784 35.7886 51.0789 35.5508 51.0795 35.313C51.0817 34.3643 51.0839 33.4164 51.0815 32.4685C51.0808 32.4655 51.0783 32.4556 51.0707 32.4354C51.066 32.4227 51.0615 32.4113 51.0555 32.3965C51.0528 32.3898 51.0499 32.3825 51.0465 32.374C51.037 32.35 51.0249 32.3189 51.0143 32.2852C51.0048 32.2551 51 32.2238 51 32.1923V31.8522C51 31.7265 51.076 31.6134 51.1923 31.5659ZM67.8726 42.2391C66.8645 42.9476 66.0545 42.989 65.0329 42.2743C60.8036 39.3159 56.5888 36.3368 52.3747 33.3566C52.1075 33.1676 51.8676 32.9514 51.7004 32.6842C51.6564 32.6139 51.6174 32.54 51.5842 32.4623C51.5842 32.4623 51.5842 32.4623 51.5842 32.4623C51.5479 32.3772 51.5186 32.2874 51.4974 32.1923C51.4933 32.1739 51.4895 32.1554 51.486 32.1366C51.4791 32.0994 51.4734 32.0614 51.4689 32.0226C51.4641 31.9802 51.4171 31.9426 51.3703 31.905C51.3485 31.8875 51.3268 31.8701 51.3092 31.8522V32.1923C51.3182 32.2208 51.3297 32.2494 51.3411 32.278C51.3658 32.3395 51.3905 32.4011 51.3907 32.4628C51.3909 32.565 51.3911 32.6672 51.3913 32.7695C51.3927 33.6177 51.3907 34.4659 51.3887 35.3141C51.3881 35.5518 51.3876 35.7894 51.3871 36.027C51.4895 36.7583 51.9445 37.2418 52.5204 37.6509C53.8894 38.6233 55.2575 39.5969 56.6256 40.5706C58.617 41.9879 60.6084 43.4051 62.6027 44.8183C63.4145 45.3936 64.2428 45.9471 65.0777 46.4893C65.8916 47.0178 66.772 47.1693 67.6031 46.5909C70.1585 44.8123 72.7128 43.03 75.2176 41.1822C76.7214 40.0729 77.6628 38.5323 77.8146 36.6642C77.8961 35.6615 77.8807 34.651 77.861 33.6989C77.8598 33.6406 77.8586 33.5825 77.8573 33.5246C77.8484 33.0995 77.8397 32.687 77.8397 32.2933C77.8191 32.391 77.799 32.5061 77.7768 32.6329C77.7243 32.9338 77.6603 33.3006 77.5507 33.6572C77.5429 33.6827 77.5349 33.708 77.5266 33.7333C77.0295 35.2512 76.0791 36.4499 74.7759 37.3719C72.4776 38.9981 70.176 40.6199 67.8726 42.2391Z" fill="#003B2F"/>
<path d="M52.4564 33.4144L52.6347 33.1622L52.4715 33.0467L52.2931 33.2989L52.4564 33.4144ZM51.5301 31.6358L51.6715 31.7772L51.6727 31.776L51.5301 31.6358ZM51.1923 31.5659L51.2679 31.7511L51.2679 31.7511L51.1923 31.5659ZM51.5348 31.6401L51.4034 31.7909L51.4034 31.7909L51.5348 31.6401ZM51.5511 31.6536L51.4253 31.8091L51.4253 31.8091L51.5511 31.6536ZM51.5599 31.6607L51.6849 31.5046L51.6849 31.5046L51.5599 31.6607ZM51.6094 31.7015L51.4786 31.8527L51.4786 31.8527L51.6094 31.7015ZM51.695 31.7908L51.5357 31.9117L51.5357 31.9117L51.695 31.7908ZM51.7761 31.9873L51.9748 31.9646L51.9748 31.9645L51.7761 31.9873ZM52.5531 33.1045L52.4376 33.2677L52.4376 33.2678L52.5531 33.1045ZM52.3747 33.3566L52.2593 33.5199L52.2593 33.5199L52.3747 33.3566ZM65.2101 42.021L65.3248 41.8571L65.3248 41.8571L65.2101 42.021ZM66.4513 42.4813L66.4555 42.6812L66.4555 42.6812L66.4513 42.4813ZM67.6948 41.9861L67.8098 42.1497L67.8098 42.1497L67.6948 41.9861ZM74.5973 37.1195L74.7128 37.2828L74.7128 37.2828L74.5973 37.1195ZM77.2327 33.6371L77.0427 33.5748L77.0427 33.5749L77.2327 33.6371ZM77.4675 32.605L77.6645 32.6393L77.6645 32.6393L77.4675 32.605ZM77.5371 32.2295L77.7328 32.2708L77.7328 32.2708L77.5371 32.2295ZM77.8717 31.9857L77.851 32.1847L77.851 32.1847L77.8717 31.9857ZM78.1663 33.4999L77.9663 33.5041L77.9663 33.5041L78.1663 33.4999ZM78.1228 36.6892L77.9235 36.673L77.9235 36.673L78.1228 36.6892ZM75.4011 41.4311L75.2824 41.2701L75.2824 41.2701L75.4011 41.4311ZM67.7797 46.8447L67.6655 46.6805L67.6654 46.6805L67.7797 46.8447ZM66.3111 47.2635L66.3259 47.0641L66.3259 47.0641L66.3111 47.2635ZM64.9093 46.7486L64.8004 46.9164L64.8004 46.9164L64.9093 46.7486ZM62.4239 45.0706L62.3082 45.2338L62.3082 45.2338L62.4239 45.0706ZM56.4456 40.8221L56.3297 40.985L56.3297 40.985L56.4456 40.8221ZM52.3413 37.903L52.2255 38.066L52.2255 38.0661L52.3413 37.903ZM51.0809 36.0699L51.279 36.0422L51.279 36.0422L51.0809 36.0699ZM51.0779 36.0264L51.2779 36.0268L51.2779 36.0268L51.0779 36.0264ZM51.0795 35.313L50.8795 35.3125L50.8795 35.3125L51.0795 35.313ZM51.0815 32.4685L51.2815 32.468C51.2814 32.4522 51.2795 32.4364 51.2758 32.4211L51.0815 32.4685ZM51.0707 32.4354L51.2582 32.3656L51.2582 32.3656L51.0707 32.4354ZM51.0555 32.3965L51.2411 32.322L51.2411 32.322L51.0555 32.3965ZM51.0465 32.374L50.8607 32.4479L50.8607 32.4479L51.0465 32.374ZM51.0143 32.2852L51.205 32.2251L51.205 32.2251L51.0143 32.2852ZM65.0329 42.2743L65.1475 42.1105L65.1475 42.1105L65.0329 42.2743ZM67.8726 42.2391L67.9876 42.4027L67.9876 42.4027L67.8726 42.2391ZM51.7004 32.6842L51.5308 32.7903L51.5308 32.7903L51.7004 32.6842ZM51.4974 32.1923L51.3022 32.2359L51.3022 32.2359L51.4974 32.1923ZM51.486 32.1366L51.2894 32.1732L51.2894 32.1732L51.486 32.1366ZM51.4689 32.0226L51.6676 31.9999L51.6676 31.9998L51.4689 32.0226ZM51.3703 31.905L51.2451 32.061L51.2451 32.061L51.3703 31.905ZM51.3092 31.8522L51.4521 31.7122C51.3952 31.6542 51.3089 31.6363 51.2336 31.667C51.1584 31.6977 51.1092 31.7709 51.1092 31.8522H51.3092ZM51.3092 32.1923H51.1092C51.1092 32.2127 51.1123 32.2329 51.1184 32.2524L51.3092 32.1923ZM51.3411 32.278L51.1555 32.3524L51.1555 32.3524L51.3411 32.278ZM51.3907 32.4628L51.1907 32.4633L51.1907 32.4633L51.3907 32.4628ZM51.3913 32.7695L51.5913 32.7691L51.3913 32.7695ZM51.3887 35.3141L51.5887 35.3146L51.3887 35.3141ZM51.3871 36.027L51.1871 36.0266C51.1871 36.0361 51.1877 36.0455 51.189 36.0548L51.3871 36.027ZM52.5204 37.6509L52.4045 37.814L52.4045 37.814L52.5204 37.6509ZM56.6256 40.5706L56.7415 40.4076L56.7415 40.4076L56.6256 40.5706ZM62.6027 44.8183L62.487 44.9815L62.487 44.9815L62.6027 44.8183ZM65.0777 46.4893L64.9688 46.657L64.9688 46.657L65.0777 46.4893ZM67.6031 46.5909L67.4888 46.4267L67.4888 46.4267L67.6031 46.5909ZM75.2176 41.1822L75.0988 41.0213L75.0988 41.0213L75.2176 41.1822ZM77.8146 36.6642L77.6153 36.648L77.6153 36.648L77.8146 36.6642ZM77.861 33.6989L77.661 33.7031L77.661 33.7031L77.861 33.6989ZM77.8573 33.5246L78.0573 33.5204L78.0573 33.5204L77.8573 33.5246ZM77.8397 32.2933H78.0397C78.0397 32.1909 77.9623 32.105 77.8604 32.0944C77.7585 32.0837 77.6651 32.1518 77.644 32.252L77.8397 32.2933ZM77.7768 32.6329L77.5798 32.5985L77.5798 32.5985L77.7768 32.6329ZM77.5507 33.6572L77.7419 33.716L77.7419 33.716L77.5507 33.6572ZM77.5266 33.7333L77.3365 33.6711L77.3365 33.6711L77.5266 33.7333ZM74.7759 37.3719L74.8914 37.5352L74.8914 37.5352L74.7759 37.3719ZM51.6729 31.4958C51.5282 31.348 51.3083 31.3025 51.1168 31.3807L51.2679 31.7511C51.309 31.7343 51.3562 31.7441 51.3872 31.7758L51.6729 31.4958ZM51.3887 31.4944C51.4244 31.466 51.497 31.4386 51.5291 31.4358C51.5493 31.4367 51.5816 31.4425 51.5938 31.4462C51.6152 31.4534 51.6304 31.4627 51.6344 31.4652C51.6453 31.4719 51.6532 31.4781 51.6548 31.4794C51.6599 31.4835 51.6637 31.487 51.6645 31.4877C51.6669 31.4899 51.6688 31.4917 51.6691 31.492C51.6703 31.4932 51.6713 31.4941 51.6714 31.4943C51.672 31.4949 51.6725 31.4954 51.6726 31.4955C51.6729 31.4958 51.6732 31.4961 51.6735 31.4964C51.6736 31.4965 51.6737 31.4966 51.6739 31.4968C51.6739 31.4968 51.6745 31.4974 51.6753 31.4982C51.6755 31.4985 51.676 31.499 51.6766 31.4996C51.6769 31.5 51.6774 31.5006 51.6781 31.5013C51.6785 31.5018 51.6799 31.5033 51.6817 31.5054C51.6825 31.5063 51.6843 31.5084 51.6866 31.5112C51.6877 31.5126 51.6903 31.5161 51.6918 31.5181C51.694 31.5212 51.6998 31.53 51.7032 31.5357C51.7097 31.5478 51.7267 31.599 51.73 31.6393C51.6918 31.7534 51.5311 31.8358 51.467 31.8256C51.4493 31.8187 51.4251 31.806 51.4181 31.8015C51.4143 31.7989 51.4083 31.7944 51.406 31.7927C51.4018 31.7893 51.3987 31.7866 51.3976 31.7857C51.3962 31.7844 51.3951 31.7833 51.3944 31.7827C51.3931 31.7815 51.392 31.7805 51.3916 31.7801C51.3906 31.7792 51.3899 31.7784 51.3896 31.7782C51.3893 31.7778 51.389 31.7776 51.3888 31.7774C51.3885 31.7771 51.3882 31.7768 51.3881 31.7767C51.3877 31.7763 51.3874 31.776 51.3874 31.776C51.3873 31.7759 51.3873 31.7758 51.3872 31.7758L51.6729 31.4958C51.6729 31.4958 51.6728 31.4957 51.6727 31.4956C51.6727 31.4956 51.6724 31.4953 51.672 31.4949C51.6719 31.4948 51.6716 31.4945 51.6713 31.4942C51.6711 31.494 51.6709 31.4937 51.6705 31.4934C51.6703 31.4931 51.6695 31.4924 51.6685 31.4915C51.6681 31.491 51.6671 31.4901 51.6657 31.4888C51.6651 31.4882 51.6639 31.4872 51.6625 31.4859C51.6614 31.485 51.6583 31.4822 51.6541 31.4789C51.6518 31.4771 51.6458 31.4727 51.642 31.47C51.635 31.4655 51.6109 31.4528 51.5931 31.446C51.529 31.4358 51.3683 31.5182 51.3301 31.6322C51.3335 31.6725 51.3505 31.7238 51.3569 31.7359C51.3603 31.7415 51.3661 31.7503 51.3683 31.7535C51.3698 31.7555 51.3725 31.7589 51.3736 31.7603C51.3758 31.7631 51.3776 31.7652 51.3784 31.7662C51.3802 31.7682 51.3816 31.7698 51.3821 31.7703C51.3827 31.771 51.3832 31.7716 51.3835 31.7719C51.3842 31.7726 51.3846 31.7731 51.3849 31.7733C51.3856 31.7741 51.3862 31.7748 51.3862 31.7748C51.3864 31.7749 51.3866 31.7751 51.3866 31.7752C51.3869 31.7755 51.3872 31.7758 51.3875 31.7761C51.3877 31.7762 51.3881 31.7767 51.3887 31.7773C51.3889 31.7775 51.3898 31.7784 51.391 31.7796C51.3914 31.7799 51.3933 31.7817 51.3957 31.7839C51.3964 31.7846 51.4003 31.7881 51.4054 31.7922C51.407 31.7935 51.4148 31.7997 51.4257 31.8064C51.4297 31.8089 51.4449 31.8182 51.4664 31.8254C51.4786 31.8291 51.5109 31.8349 51.531 31.8358C51.5632 31.833 51.6358 31.8056 51.6715 31.7772L51.3887 31.4944ZM51.6662 31.4893C51.6658 31.4889 51.666 31.4891 51.6667 31.4897C51.6671 31.4901 51.6676 31.4905 51.6681 31.4911C51.6684 31.4914 51.6687 31.4916 51.6689 31.4919C51.669 31.4919 51.669 31.492 51.6691 31.492C51.6691 31.492 51.669 31.4919 51.669 31.4919C51.6689 31.4919 51.6688 31.4918 51.6687 31.4917C51.6686 31.4916 51.6684 31.4913 51.6681 31.491C51.668 31.4909 51.667 31.49 51.6658 31.4889C51.6655 31.4886 51.6635 31.4867 51.6609 31.4845C51.6601 31.4838 51.656 31.4803 51.6505 31.4761C51.6469 31.4735 51.6362 31.4663 51.6288 31.4619C51.608 31.4516 51.4796 31.4423 51.3875 31.4956L51.6727 31.776C51.5805 31.8293 51.4522 31.82 51.4314 31.8097C51.424 31.8053 51.4132 31.7981 51.4097 31.7955C51.4042 31.7913 51.4001 31.7878 51.3993 31.7871C51.3967 31.7849 51.3947 31.783 51.3944 31.7827C51.3932 31.7816 51.3922 31.7807 51.3921 31.7806C51.3918 31.7803 51.3915 31.78 51.3915 31.78C51.3913 31.7799 51.3913 31.7798 51.3912 31.7797C51.3912 31.7797 51.3911 31.7796 51.3912 31.7797C51.3912 31.7797 51.3913 31.7798 51.3913 31.7799C51.3917 31.7802 51.3921 31.7805 51.3925 31.781C51.3935 31.7819 51.3945 31.7829 51.3956 31.7839C51.3979 31.786 51.4004 31.7883 51.4034 31.7909L51.6662 31.4893ZM51.677 31.4982C51.6705 31.4929 51.6675 31.4904 51.6662 31.4893L51.4034 31.7909C51.41 31.7966 51.4172 31.8025 51.4253 31.8091L51.677 31.4982ZM51.6849 31.5046C51.6813 31.5017 51.6788 31.4997 51.677 31.4982L51.4253 31.8091C51.4281 31.8113 51.4315 31.8141 51.4348 31.8167L51.6849 31.5046ZM51.7403 31.5502C51.7203 31.5329 51.6974 31.5146 51.6849 31.5046L51.4348 31.8167C51.4484 31.8276 51.4652 31.8412 51.4786 31.8527L51.7403 31.5502ZM51.8544 31.6699C51.8117 31.6137 51.7663 31.5727 51.7403 31.5502L51.4786 31.8527C51.4966 31.8683 51.5179 31.8882 51.5357 31.9117L51.8544 31.6699ZM51.9748 31.9645C51.9589 31.8259 51.8968 31.7258 51.8544 31.6699L51.5357 31.9117C51.5535 31.9352 51.5726 31.9683 51.5774 32.0101L51.9748 31.9645ZM52.6686 32.9412C52.2601 32.6523 52.0199 32.3588 51.9748 31.9646L51.5774 32.01C51.6413 32.5689 51.9892 32.9506 52.4376 33.2677L52.6686 32.9412ZM65.3248 41.8571C61.0966 38.8995 56.8827 35.9213 52.6686 32.9412L52.4376 33.2678C56.6517 36.2479 60.8664 39.2266 65.0955 42.1849L65.3248 41.8571ZM66.4471 42.2813C66.1342 42.2879 65.7811 42.1763 65.3248 41.8571L65.0955 42.1848C65.5946 42.5341 66.0301 42.6902 66.4555 42.6812L66.4471 42.2813ZM67.5798 41.8225C67.1206 42.1452 66.7641 42.2747 66.4471 42.2813L66.4555 42.6812C66.8818 42.6723 67.3153 42.4973 67.8098 42.1497L67.5798 41.8225ZM74.4818 36.9563C72.184 38.5821 69.8829 40.2035 67.5798 41.8225L67.8098 42.1497C70.1131 40.5306 72.4146 38.9089 74.7128 37.2828L74.4818 36.9563ZM77.0427 33.5749C76.5834 34.9774 75.7061 36.09 74.4818 36.9563L74.7128 37.2828C75.9991 36.3727 76.9338 35.1925 77.4228 33.6993L77.0427 33.5749ZM77.2704 32.5706C77.2152 32.8878 77.1547 33.2327 77.0427 33.5748L77.4228 33.6993C77.5451 33.3258 77.6098 32.9533 77.6645 32.6393L77.2704 32.5706ZM77.3414 32.1882C77.3163 32.3075 77.2937 32.4374 77.2704 32.5706L77.6645 32.6393C77.688 32.5044 77.7094 32.3818 77.7328 32.2708L77.3414 32.1882ZM77.8925 31.7868C77.6331 31.7598 77.3952 31.9331 77.3414 32.1882L77.7328 32.2708C77.7444 32.216 77.7954 32.1789 77.851 32.1847L77.8925 31.7868ZM78.3489 32.2933C78.3489 32.0325 78.1519 31.8139 77.8925 31.7868L77.851 32.1847C77.9066 32.1905 77.9489 32.2374 77.9489 32.2933H78.3489ZM78.3662 33.4957C78.3573 33.0745 78.3489 32.6718 78.3489 32.2933H77.9489C77.9489 32.6768 77.9575 33.0839 77.9663 33.5041L78.3662 33.4957ZM78.3222 36.7054C78.411 35.613 78.3874 34.5029 78.3662 33.4957L77.9663 33.5041C77.9876 34.5146 78.0103 35.6043 77.9235 36.673L78.3222 36.7054ZM75.5198 41.592C77.1295 40.4045 78.1572 38.7352 78.3222 36.7054L77.9235 36.673C77.7689 38.5758 76.8089 40.144 75.2824 41.2701L75.5198 41.592ZM67.8939 47.0088C70.449 45.2306 73.0086 43.4445 75.5198 41.592L75.2824 41.2701C72.7762 43.1189 70.2208 44.9021 67.6655 46.6805L67.8939 47.0088ZM66.2962 47.463C66.8413 47.5035 67.3847 47.3632 67.8939 47.0088L67.6654 46.6805C67.2298 46.9837 66.7772 47.0976 66.3259 47.0641L66.2962 47.463ZM64.8004 46.9164C65.2559 47.2122 65.7612 47.4232 66.2962 47.463L66.3259 47.0641C65.8767 47.0307 65.4356 46.8519 65.0182 46.5809L64.8004 46.9164ZM62.3082 45.2338C63.1275 45.8144 63.962 46.3719 64.8004 46.9164L65.0182 46.5809C64.1826 46.0382 63.353 45.4839 62.5395 44.9074L62.3082 45.2338ZM56.3297 40.985C58.3214 42.4025 60.3136 43.8204 62.3082 45.2338L62.5395 44.9074C60.5453 43.4943 58.5534 42.0767 56.5616 40.6591L56.3297 40.985ZM52.2255 38.0661C53.5938 39.0379 54.9616 40.0114 56.3297 40.985L56.5616 40.6591C55.1936 39.6855 53.8256 38.7119 52.4571 37.7399L52.2255 38.0661ZM50.8828 36.0976C51.0137 37.0322 51.6025 37.6234 52.2255 38.066L52.4572 37.74C51.871 37.3235 51.3874 36.8169 51.279 36.0422L50.8828 36.0976ZM50.8779 36.026C50.8779 36.05 50.8795 36.0739 50.8828 36.0976L51.279 36.0422C51.2782 36.0371 51.2779 36.032 51.2779 36.0268L50.8779 36.026ZM50.8795 35.3125C50.8789 35.5503 50.8784 35.7881 50.8779 36.026L51.2779 36.0268C51.2784 35.789 51.2789 35.5512 51.2795 35.3135L50.8795 35.3125ZM50.8815 32.469C50.8839 33.4164 50.8817 34.3637 50.8795 35.3125L51.2795 35.3135C51.2817 34.3648 51.2839 33.4165 51.2815 32.468L50.8815 32.469ZM50.8833 32.5052C50.8859 32.512 50.8871 32.5158 50.8875 32.5171C50.8877 32.5178 50.8877 32.5178 50.8876 32.5174C50.8875 32.5172 50.8874 32.5169 50.8873 32.5165C50.8873 32.5164 50.8873 32.5162 50.8872 32.5161C50.8872 32.516 50.8872 32.5159 50.8872 32.5159L51.2758 32.4211C51.2732 32.4105 51.2684 32.3931 51.2582 32.3656L50.8833 32.5052ZM50.8699 32.471C50.876 32.4862 50.8796 32.4952 50.8833 32.5052L51.2582 32.3656C51.2524 32.3502 51.2469 32.3365 51.2411 32.322L50.8699 32.471ZM50.8607 32.4479C50.8642 32.4567 50.8672 32.4643 50.8699 32.471L51.2411 32.322C51.2384 32.3154 51.2356 32.3083 51.2324 32.3002L50.8607 32.4479ZM50.8235 32.3453C50.8364 32.3862 50.8507 32.4229 50.8607 32.4479L51.2324 32.3002C51.2233 32.2772 51.2134 32.2516 51.205 32.2251L50.8235 32.3453ZM50.8 32.1923C50.8 32.2442 50.8079 32.2958 50.8235 32.3453L51.205 32.2251C51.2017 32.2145 51.2 32.2034 51.2 32.1923H50.8ZM51.1168 31.3807C50.9252 31.4589 50.8 31.6453 50.8 31.8522H51.2C51.2 31.8078 51.2269 31.7678 51.2679 31.7511L51.1168 31.3807ZM64.9182 42.4382C65.4504 42.8105 65.9495 43.0011 66.462 42.9904C66.9729 42.9797 67.466 42.7694 67.9876 42.4027L67.7576 42.0754C67.2712 42.4174 66.8551 42.582 66.4536 42.5905C66.0537 42.5989 65.637 42.4528 65.1475 42.1105L64.9182 42.4382ZM52.2593 33.5199C56.4733 36.5 60.6884 39.4795 64.9183 42.4382L65.1475 42.1105C60.9187 39.1524 56.7043 36.1735 52.4902 33.1933L52.2593 33.5199ZM51.5308 32.7903C51.7176 33.0887 51.9808 33.323 52.2593 33.5199L52.4902 33.1933C52.2342 33.0123 52.0176 32.8141 51.8699 32.5781L51.5308 32.7903ZM51.4002 32.5407C51.4377 32.6286 51.4816 32.7116 51.5308 32.7903L51.8699 32.5781C51.8311 32.5161 51.797 32.4515 51.7682 32.3838L51.4002 32.5407ZM51.4001 32.5405C51.4001 32.5405 51.4001 32.5405 51.4001 32.5405C51.4001 32.5405 51.4001 32.5405 51.4001 32.5405C51.4001 32.5405 51.4001 32.5405 51.4001 32.5405C51.4001 32.5405 51.4001 32.5405 51.4001 32.5405C51.4001 32.5405 51.4001 32.5405 51.4001 32.5405C51.4001 32.5405 51.4001 32.5405 51.4001 32.5405C51.4001 32.5405 51.4001 32.5405 51.4001 32.5405C51.4001 32.5405 51.4001 32.5405 51.4001 32.5405C51.4001 32.5405 51.4001 32.5405 51.4001 32.5405C51.4001 32.5405 51.4001 32.5405 51.4001 32.5405C51.6624 32.6464 51.7683 32.3841 51.7683 32.3841C51.7683 32.3841 51.7683 32.3841 51.7683 32.3841C51.7683 32.3841 51.7683 32.3841 51.7683 32.3841C51.7683 32.3841 51.7683 32.3841 51.7683 32.3841C51.7683 32.3841 51.7683 32.3841 51.7683 32.3841C51.7683 32.3841 51.7683 32.3841 51.7683 32.3841C51.7683 32.3841 51.7683 32.3841 51.7683 32.3841C51.7683 32.3841 51.7683 32.3841 51.7683 32.3841C51.7683 32.3841 51.7683 32.3841 51.7683 32.3841C51.7683 32.3841 51.7683 32.3841 51.7683 32.3841C51.7683 32.3841 51.7683 32.3841 51.7683 32.3841C51.7683 32.3841 51.7683 32.3841 51.7683 32.3841C51.7683 32.3841 51.7683 32.3841 51.7683 32.3841C51.7683 32.3841 51.6624 32.6464 51.4001 32.5405C51.4001 32.5405 51.4001 32.5405 51.4001 32.5405C51.4001 32.5405 51.4001 32.5405 51.4001 32.5405C51.4001 32.5405 51.4001 32.5405 51.4001 32.5405C51.4001 32.5405 51.4001 32.5405 51.4001 32.5405C51.4001 32.5405 51.4001 32.5405 51.4001 32.5405C51.4001 32.5405 51.4001 32.5405 51.4001 32.5405C51.4001 32.5405 51.4001 32.5405 51.4001 32.5405C51.4001 32.5405 51.4001 32.5405 51.4001 32.5405C51.4001 32.5405 51.4001 32.5405 51.4001 32.5405C51.4001 32.5405 51.4001 32.5405 51.4001 32.5405C51.4001 32.5405 51.4001 32.5405 51.4001 32.5405C51.4001 32.5405 51.4001 32.5405 51.4001 32.5405C51.4001 32.5405 51.4001 32.5405 51.4001 32.5405L51.7683 32.3841C51.7683 32.3841 51.7683 32.3841 51.7683 32.3841C51.7683 32.3841 51.7683 32.3841 51.7683 32.3841C51.7683 32.3841 51.7683 32.3841 51.7683 32.3841C51.7683 32.3841 51.7683 32.3841 51.7683 32.3841C51.7683 32.3841 51.7683 32.3841 51.7683 32.3841C51.7683 32.3841 51.7683 32.3841 51.7683 32.3841C51.7683 32.3841 51.7683 32.3841 51.7683 32.3841C51.7683 32.3841 51.7683 32.3841 51.7683 32.3841C51.7683 32.3841 51.7683 32.3841 51.7683 32.3841C51.506 32.2782 51.4001 32.5405 51.4001 32.5405C51.4001 32.5405 51.4001 32.5405 51.4001 32.5405C51.4001 32.5405 51.4001 32.5405 51.4001 32.5405C51.4001 32.5405 51.4001 32.5405 51.4001 32.5405C51.4001 32.5405 51.4001 32.5405 51.4001 32.5405C51.4001 32.5405 51.4001 32.5405 51.4001 32.5405C51.4001 32.5405 51.4001 32.5405 51.4001 32.5405C51.4001 32.5405 51.4001 32.5405 51.4001 32.5405C51.4001 32.5405 51.4001 32.5405 51.4001 32.5405C51.4001 32.5405 51.4001 32.5405 51.4001 32.5405C51.4001 32.5405 51.4001 32.5405 51.4001 32.5405C51.4001 32.5405 51.4001 32.5405 51.4001 32.5405C51.4001 32.5405 51.4001 32.5405 51.4001 32.5405C51.4001 32.5405 51.506 32.2782 51.7683 32.3841C51.7683 32.3841 51.7683 32.3841 51.7683 32.3841C51.7683 32.3841 51.7683 32.3841 51.7683 32.3841C51.7683 32.3841 51.7683 32.3841 51.7683 32.3841C51.7683 32.3841 51.7683 32.3841 51.7683 32.3841C51.7683 32.3841 51.7683 32.3841 51.7683 32.3841C51.7683 32.3841 51.7683 32.3841 51.7683 32.3841C51.7683 32.3841 51.7683 32.3841 51.7683 32.3841C51.7683 32.3841 51.7683 32.3841 51.7683 32.3841C51.7683 32.3841 51.7683 32.3841 51.7683 32.3841C51.7683 32.3841 51.7683 32.3841 51.7683 32.3841C51.7683 32.3841 51.7683 32.3841 51.7683 32.3841C51.7683 32.3841 51.7683 32.3841 51.7683 32.3841C51.7683 32.3841 51.7683 32.3841 51.7683 32.3841C51.7683 32.3841 51.7683 32.3841 51.7683 32.3841L51.4001 32.5405ZM51.3022 32.2359C51.3261 32.3431 51.3592 32.4446 51.4002 32.5407L51.7682 32.3838C51.7366 32.3098 51.7111 32.2316 51.6926 32.1487L51.3022 32.2359ZM51.2894 32.1732C51.2933 32.1943 51.2976 32.2152 51.3022 32.2359L51.6926 32.1487C51.689 32.1327 51.6857 32.1164 51.6826 32.1L51.2894 32.1732ZM51.2702 32.0453C51.2752 32.0887 51.2816 32.1313 51.2894 32.1732L51.6826 32.1C51.6766 32.0674 51.6715 32.0341 51.6676 31.9999L51.2702 32.0453ZM51.2451 32.061C51.2573 32.0708 51.2665 32.0782 51.2747 32.0852C51.2828 32.0921 51.2872 32.0964 51.2895 32.0988C51.2919 32.1014 51.289 32.0989 51.2848 32.0916C51.2804 32.0839 51.2728 32.068 51.2702 32.0454L51.6676 31.9998C51.6578 31.9143 51.6093 31.8551 51.5812 31.8252C51.5514 31.7934 51.516 31.7655 51.4954 31.749L51.2451 32.061ZM51.1663 31.9921C51.1939 32.0203 51.2257 32.0454 51.2451 32.061L51.4954 31.749C51.4713 31.7297 51.4596 31.7199 51.4521 31.7122L51.1663 31.9921ZM51.5267 32.2035C51.5147 32.1736 51.5063 32.1522 51.5 32.1322L51.1184 32.2524C51.1301 32.2895 51.1446 32.3252 51.1555 32.3524L51.5267 32.2035ZM51.5907 32.4623C51.5904 32.3551 51.548 32.2566 51.5267 32.2035L51.1555 32.3524C51.1836 32.4224 51.1906 32.4471 51.1907 32.4633L51.5907 32.4623ZM51.5913 32.7691C51.5911 32.6668 51.5909 32.5645 51.5907 32.4622L51.1907 32.4633C51.1909 32.5654 51.1912 32.6676 51.1913 32.7698L51.5913 32.7691ZM51.5887 35.3146C51.5907 34.4664 51.5927 33.6178 51.5913 32.7691L51.1913 32.7698C51.1927 33.6175 51.1907 34.4654 51.1887 35.3136L51.5887 35.3146ZM51.5871 36.0275C51.5876 35.7898 51.5881 35.5522 51.5887 35.3146L51.1887 35.3136C51.1881 35.5513 51.1876 35.789 51.1871 36.0266L51.5871 36.0275ZM52.6362 37.4879C52.0789 37.0919 51.6764 36.6507 51.5852 35.9993L51.189 36.0548C51.3026 36.8658 51.8101 37.3916 52.4045 37.814L52.6362 37.4879ZM56.7415 40.4076C55.3735 39.434 54.0053 38.4603 52.6362 37.4879L52.4045 37.814C53.7735 38.7863 55.1415 39.7599 56.5096 40.7335L56.7415 40.4076ZM62.7183 44.6551C60.7242 43.2421 58.733 41.8249 56.7415 40.4076L56.5096 40.7335C58.501 42.1508 60.4925 43.5682 62.487 44.9815L62.7183 44.6551ZM65.1866 46.3216C64.3532 45.7803 63.5272 45.2284 62.7183 44.6551L62.487 44.9815C63.3018 45.5589 64.1325 46.1139 64.9688 46.657L65.1866 46.3216ZM67.4888 46.4267C67.1101 46.6903 66.7276 46.7839 66.3488 46.7557C65.966 46.7273 65.5745 46.5734 65.1866 46.3216L64.9688 46.657C65.3948 46.9337 65.8505 47.1198 66.3191 47.1546C66.7917 47.1897 67.265 47.0698 67.7173 46.755L67.4888 46.4267ZM75.0988 41.0213C72.5965 42.8672 70.0445 44.6481 67.4888 46.4267L67.7173 46.755C70.2726 44.9766 72.829 43.1928 75.3363 41.3432L75.0988 41.0213ZM77.6153 36.648C77.4687 38.4526 76.561 39.9426 75.0988 41.0213L75.3363 41.3432C76.8817 40.2031 77.857 38.612 78.014 36.6804L77.6153 36.648ZM77.661 33.7031C77.6808 34.6557 77.6959 35.6567 77.6153 36.648L78.014 36.6804C78.0964 35.6663 78.0807 34.6464 78.061 33.6948L77.661 33.7031ZM77.6574 33.5288C77.6586 33.5867 77.6598 33.6448 77.661 33.7031L78.061 33.6948C78.0597 33.6364 78.0585 33.5783 78.0573 33.5204L77.6574 33.5288ZM77.6397 32.2933C77.6397 32.6895 77.6484 33.1042 77.6574 33.5288L78.0573 33.5204C78.0483 33.0948 78.0397 32.6846 78.0397 32.2933H77.6397ZM77.9739 32.6673C77.9962 32.5394 78.0156 32.4281 78.0354 32.3345L77.644 32.252C77.6225 32.3539 77.6018 32.4727 77.5798 32.5985L77.9739 32.6673ZM77.7419 33.716C77.8557 33.3455 77.9216 32.9667 77.9739 32.6673L77.5798 32.5985C77.527 32.9009 77.4649 33.2556 77.3595 33.5985L77.7419 33.716ZM77.7166 33.7956C77.7253 33.769 77.7337 33.7425 77.7419 33.716L77.3595 33.5985C77.352 33.6228 77.3444 33.647 77.3365 33.6711L77.7166 33.7956ZM74.8914 37.5352C76.2255 36.5912 77.2047 35.3588 77.7166 33.7956L77.3365 33.6711C76.8543 35.1437 75.9326 36.3085 74.6604 37.2087L74.8914 37.5352ZM67.9876 42.4027C70.2911 40.7834 72.5929 39.1615 74.8914 37.5352L74.6604 37.2087C72.3622 38.8347 70.0609 40.4564 67.7576 42.0754L67.9876 42.4027ZM50.8 31.8522V32.1923H51.2V31.8522H50.8ZM51.5092 32.1923V31.8522H51.1092V32.1923H51.5092Z" fill="#003B2F" mask="url(#path-33-outside-2_156_654)"/>
<mask id="path-35-outside-3_156_654" maskUnits="userSpaceOnUse" x="56.4731" y="26" width="18" height="8" fill="black">
<rect fill="white" x="56.4731" y="26" width="18" height="8"/>
<path d="M57.4731 31.4204C57.5453 31.3386 57.5824 31.2753 57.6373 31.2372C58.9784 30.3018 60.2959 29.3298 61.6713 28.447C63.0947 27.5337 64.6665 26.9974 66.386 27C67.9887 27.0025 69.4427 27.5099 70.7607 28.3865C71.398 28.8102 72.0148 29.2778 72.5802 29.7916C73.4941 30.6221 73.5887 32.1011 72.8614 33.0954C72.699 33.3175 72.5299 33.3319 72.3166 33.1901C72.0204 32.9931 71.7267 32.7924 71.4253 32.6037C68.3832 30.6975 65.3404 30.7181 62.2987 32.6063C61.8152 32.9063 61.3367 33.2145 60.8441 33.499C60.7453 33.5561 60.5563 33.5786 60.4719 33.5229C59.5227 32.8958 58.5853 32.2508 57.6467 31.6078C57.5905 31.5694 57.5514 31.5062 57.4731 31.4204Z"/>
</mask>
<path d="M57.4731 31.4204C57.5453 31.3386 57.5824 31.2753 57.6373 31.2372C58.9784 30.3018 60.2959 29.3298 61.6713 28.447C63.0947 27.5337 64.6665 26.9974 66.386 27C67.9887 27.0025 69.4427 27.5099 70.7607 28.3865C71.398 28.8102 72.0148 29.2778 72.5802 29.7916C73.4941 30.6221 73.5887 32.1011 72.8614 33.0954C72.699 33.3175 72.5299 33.3319 72.3166 33.1901C72.0204 32.9931 71.7267 32.7924 71.4253 32.6037C68.3832 30.6975 65.3404 30.7181 62.2987 32.6063C61.8152 32.9063 61.3367 33.2145 60.8441 33.499C60.7453 33.5561 60.5563 33.5786 60.4719 33.5229C59.5227 32.8958 58.5853 32.2508 57.6467 31.6078C57.5905 31.5694 57.5514 31.5062 57.4731 31.4204Z" fill="#003B2F"/>
<path d="M57.4731 31.4204C57.5453 31.3386 57.5824 31.2753 57.6373 31.2372C58.9784 30.3018 60.2959 29.3298 61.6713 28.447C63.0947 27.5337 64.6665 26.9974 66.386 27C67.9887 27.0025 69.4427 27.5099 70.7607 28.3865C71.398 28.8102 72.0148 29.2778 72.5802 29.7916C73.4941 30.6221 73.5887 32.1011 72.8614 33.0954C72.699 33.3175 72.5299 33.3319 72.3166 33.1901C72.0204 32.9931 71.7267 32.7924 71.4253 32.6037C68.3832 30.6975 65.3404 30.7181 62.2987 32.6063C61.8152 32.9063 61.3367 33.2145 60.8441 33.499C60.7453 33.5561 60.5563 33.5786 60.4719 33.5229C59.5227 32.8958 58.5853 32.2508 57.6467 31.6078C57.5905 31.5694 57.5514 31.5062 57.4731 31.4204Z" stroke="#003B2F" stroke-width="0.4" stroke-linejoin="round" mask="url(#path-35-outside-3_156_654)"/>
<mask id="path-36-outside-4_156_654" maskUnits="userSpaceOnUse" x="50.3105" y="39.9277" width="29" height="17" fill="black">
<rect fill="white" x="50.3105" y="39.9277" width="29" height="17"/>
<path d="M51.3107 40.9277C51.3636 40.9632 51.4589 40.9941 51.4634 41.0348C51.5369 41.7085 51.9898 42.1152 52.4917 42.4803C54.4233 43.885 56.3446 45.304 58.2973 46.6792C60.4592 48.2016 62.6491 49.6848 64.8307 51.1794C66.0807 52.0359 66.7741 52.0395 68.0223 51.167C70.2363 49.6193 72.4365 48.052 74.649 46.5022C75.9677 45.5785 76.9671 44.406 77.4855 42.8776C77.6778 42.3101 77.756 41.7043 77.9637 41.1149C77.9066 42.76 77.9559 44.4174 77.7637 46.0468C77.5576 47.7925 76.5951 49.218 75.1821 50.2557C72.6965 52.081 70.1646 53.8448 67.6362 55.6121C66.75 56.2316 65.8466 56.0476 65.0015 55.4852C63.9009 54.7525 62.8025 54.0152 61.7245 53.2503C58.6173 51.0454 55.5208 48.8257 52.4199 46.612C51.8657 46.2164 51.4695 45.7198 51.3836 45.0228C51.3874 43.8191 51.3928 42.6153 51.3913 41.4116C51.3913 41.3354 51.3387 41.2592 51.3105 41.183C51.3107 41.0978 51.3107 41.0128 51.3107 40.9277Z"/>
</mask>
<path d="M51.3107 40.9277C51.3636 40.9632 51.4589 40.9941 51.4634 41.0348C51.5369 41.7085 51.9898 42.1152 52.4917 42.4803C54.4233 43.885 56.3446 45.304 58.2973 46.6792C60.4592 48.2016 62.6491 49.6848 64.8307 51.1794C66.0807 52.0359 66.7741 52.0395 68.0223 51.167C70.2363 49.6193 72.4365 48.052 74.649 46.5022C75.9677 45.5785 76.9671 44.406 77.4855 42.8776C77.6778 42.3101 77.756 41.7043 77.9637 41.1149C77.9066 42.76 77.9559 44.4174 77.7637 46.0468C77.5576 47.7925 76.5951 49.218 75.1821 50.2557C72.6965 52.081 70.1646 53.8448 67.6362 55.6121C66.75 56.2316 65.8466 56.0476 65.0015 55.4852C63.9009 54.7525 62.8025 54.0152 61.7245 53.2503C58.6173 51.0454 55.5208 48.8257 52.4199 46.612C51.8657 46.2164 51.4695 45.7198 51.3836 45.0228C51.3874 43.8191 51.3928 42.6153 51.3913 41.4116C51.3913 41.3354 51.3387 41.2592 51.3105 41.183C51.3107 41.0978 51.3107 41.0128 51.3107 40.9277Z" fill="#003B2F"/>
<path d="M51.3107 40.9277C51.3636 40.9632 51.4589 40.9941 51.4634 41.0348C51.5369 41.7085 51.9898 42.1152 52.4917 42.4803C54.4233 43.885 56.3446 45.304 58.2973 46.6792C60.4592 48.2016 62.6491 49.6848 64.8307 51.1794C66.0807 52.0359 66.7741 52.0395 68.0223 51.167C70.2363 49.6193 72.4365 48.052 74.649 46.5022C75.9677 45.5785 76.9671 44.406 77.4855 42.8776C77.6778 42.3101 77.756 41.7043 77.9637 41.1149C77.9066 42.76 77.9559 44.4174 77.7637 46.0468C77.5576 47.7925 76.5951 49.218 75.1821 50.2557C72.6965 52.081 70.1646 53.8448 67.6362 55.6121C66.75 56.2316 65.8466 56.0476 65.0015 55.4852C63.9009 54.7525 62.8025 54.0152 61.7245 53.2503C58.6173 51.0454 55.5208 48.8257 52.4199 46.612C51.8657 46.2164 51.4695 45.7198 51.3836 45.0228C51.3874 43.8191 51.3928 42.6153 51.3913 41.4116C51.3913 41.3354 51.3387 41.2592 51.3105 41.183C51.3107 41.0978 51.3107 41.0128 51.3107 40.9277Z" stroke="#003B2F" stroke-width="0.8" stroke-linejoin="round" mask="url(#path-36-outside-4_156_654)"/>
<path d="M114.64 71.6799C114.56 71.8299 114.45 71.8399 114.32 71.7699C113.03 70.3399 112.78 68.0499 113.81 66.0199C114.84 63.9899 116.83 62.8499 118.73 63.0599C118.89 63.0799 118.92 63.2199 118.84 63.3699L118.66 63.7199C118.61 63.8299 118.51 63.8999 118.4 63.9099C116.87 63.8299 115.31 64.7499 114.49 66.3699C113.67 67.9899 113.86 69.8699 114.81 70.9999C114.87 71.0899 114.86 71.2199 114.81 71.3199L114.64 71.6799Z" fill="#003D2E"/>
<path d="M116.58 71.0793C116.53 71.1793 116.39 71.2393 116.3 71.1893L115.96 71.0093C115.87 70.9693 115.84 70.8193 115.89 70.7193L116.2 70.1093C115.56 69.6493 115.45 69.0193 115.65 68.2993C115.7 68.1993 115.8 68.1193 115.88 68.1593L116.27 68.3593C116.36 68.3993 116.37 68.4793 116.37 68.5993C116.28 68.9993 116.3 69.3893 116.86 69.6793C117.29 69.8993 117.72 69.7993 117.93 69.3993C118.14 68.9893 118.04 68.7493 117.49 68.3393C116.66 67.7193 116.38 67.1993 116.82 66.3393C117.15 65.6793 117.84 65.3993 118.5 65.5993L118.81 64.9893C118.86 64.8893 119 64.8293 119.09 64.8793L119.43 65.0593C119.52 65.0993 119.55 65.2493 119.5 65.3493L119.19 65.9593C119.66 66.3293 119.82 66.8593 119.63 67.4593C119.58 67.5593 119.48 67.6393 119.4 67.5993L119.05 67.4193C118.96 67.3793 118.95 67.2993 118.95 67.1793C119.04 66.7793 118.91 66.5193 118.52 66.3193C118.09 66.0993 117.74 66.2393 117.57 66.5993C117.39 66.9493 117.42 67.2193 118.01 67.6593C118.84 68.2793 119.12 68.7993 118.68 69.6593C118.35 70.3193 117.63 70.6493 116.91 70.4693L116.58 71.0793Z" fill="#003D2E"/>
<path d="M116.65 72.9704C116.5 72.9504 116.46 72.8104 116.54 72.6604L116.72 72.3104C116.77 72.2104 116.87 72.1304 116.98 72.1204C118.51 72.2004 120.07 71.2804 120.89 69.6604C121.71 68.0404 121.52 66.1604 120.57 65.0304C120.51 64.9404 120.51 64.8204 120.57 64.7104L120.75 64.3604C120.83 64.2104 120.94 64.2004 121.07 64.2704C122.31 65.6704 122.61 67.9904 121.58 70.0204C120.55 72.0304 118.56 73.1804 116.65 72.9704Z" fill="#003D2E"/>
<path d="M53.4199 83.9204C53.6999 82.6304 55.0399 80.8804 55.9599 80.1504C55.7099 80.3604 55.4899 80.6004 55.2899 80.8604C54.8399 81.4404 54.5099 82.1404 54.3199 82.9504C54.3099 82.9804 54.3099 83.0104 54.2999 83.0404C53.4799 86.8204 56.1299 91.4704 60.2099 93.4304C60.2699 93.4604 60.3299 93.4904 60.3899 93.5104C60.4299 93.5304 60.4699 93.5404 60.5099 93.5604C60.5199 93.5604 60.5199 93.5604 60.5299 93.5704C63.0899 94.6904 65.5699 94.4704 67.2299 93.1804C67.4199 93.0304 67.6099 92.8704 67.7799 92.6904C66.1699 94.7804 62.5099 95.8304 59.3299 94.3104C55.2499 92.3604 52.5999 87.7004 53.4199 83.9204Z" fill="#00FF94"/>
<path d="M54.2998 83.0404C54.3098 83.0104 54.3098 82.9804 54.3198 82.9504C54.5098 82.1404 54.8398 81.4404 55.2898 80.8604C55.4898 80.6004 55.7198 80.3604 55.9598 80.1504C55.9698 80.1404 55.9898 80.1304 55.9998 80.1204C57.7198 78.6604 60.4298 78.4204 63.1798 79.7404C67.2698 81.7004 69.9098 86.3504 69.0898 90.1304C68.8698 91.1704 68.3998 92.0304 67.7698 92.6904C67.5998 92.8704 67.4198 93.0304 67.2198 93.1804C65.5598 94.4704 63.0798 94.6804 60.5198 93.5704C60.5098 93.5704 60.5098 93.5704 60.4998 93.5604C60.4598 93.5404 60.4198 93.5304 60.3798 93.5104C60.3198 93.4804 60.2598 93.4604 60.1998 93.4304C56.1298 91.4704 53.4798 86.8204 54.2998 83.0404Z" fill="#E3E7E3"/>
<path d="M53.3998 83.8598C53.6798 82.5698 55.0198 80.8198 55.9398 80.0898C55.6898 80.2998 55.4698 80.5399 55.2698 80.7999C54.8198 81.3799 54.4898 82.0798 54.2998 82.8898C54.2898 82.9198 54.2898 82.9499 54.2798 82.9799C53.4598 86.7599 56.1098 91.4099 60.1898 93.3699C60.2498 93.3999 60.3098 93.4298 60.3698 93.4498C60.4098 93.4698 60.4498 93.4798 60.4898 93.4998C60.4998 93.4998 60.4998 93.4998 60.5098 93.5098C63.0698 94.6298 65.5498 94.4099 67.2098 93.1199C67.3998 92.9699 67.5898 92.8098 67.7598 92.6298C66.1498 94.7198 62.4898 95.7698 59.3098 94.2498C55.2198 92.2998 52.5798 87.6398 53.3998 83.8598Z" stroke="#003C2E" stroke-width="0.4217" stroke-miterlimit="10" stroke-linecap="round" stroke-linejoin="round"/>
<path d="M54.2797 82.9799C54.2897 82.9499 54.2897 82.9199 54.2997 82.8899C54.4897 82.0799 54.8197 81.3799 55.2697 80.7999C55.4697 80.5399 55.6997 80.2999 55.9397 80.0899C55.9497 80.0799 55.9697 80.0699 55.9797 80.0599C57.6997 78.5999 60.4097 78.3599 63.1597 79.6799C67.2497 81.6399 69.8897 86.2899 69.0697 90.0699C68.8497 91.1099 68.3797 91.9699 67.7497 92.6299C67.5797 92.8099 67.3997 92.9699 67.1997 93.1199C65.5397 94.4099 63.0597 94.6199 60.4997 93.5099C60.4897 93.5099 60.4897 93.5099 60.4797 93.4999C60.4397 93.4799 60.3997 93.4699 60.3597 93.4499C60.2997 93.4199 60.2397 93.3999 60.1797 93.3699C56.0997 91.4099 53.4597 86.7599 54.2797 82.9799Z" stroke="#003C2E" stroke-width="0.4217" stroke-miterlimit="10" stroke-linecap="round" stroke-linejoin="round"/>
<path d="M59.1301 82.1906C59.0001 82.0706 59.0301 81.9706 59.1301 81.8606C60.8501 81.0106 63.1301 81.4006 64.8001 82.9406C66.4701 84.4806 67.0301 86.7106 66.3101 88.4806C66.2501 88.6306 66.1001 88.6206 65.9801 88.5006L65.6901 88.2306C65.6001 88.1506 65.5601 88.0306 65.5801 87.9306C66.0801 86.4806 65.6101 84.7306 64.2801 83.5006C62.9401 82.2706 61.0801 81.9306 59.7401 82.5406C59.6301 82.5706 59.5201 82.5306 59.4301 82.4506L59.1301 82.1906Z" fill="#003D2E"/>
<path d="M59.19 84.2215C59.11 84.1415 59.09 83.9915 59.16 83.9215L59.42 83.6415C59.49 83.5715 59.64 83.5815 59.72 83.6515L60.22 84.1115C60.83 83.6215 61.47 83.6815 62.11 84.0815C62.19 84.1615 62.24 84.2715 62.18 84.3415L61.88 84.6615C61.81 84.7315 61.74 84.7315 61.62 84.6915C61.26 84.4915 60.88 84.4015 60.45 84.8615C60.12 85.2115 60.1 85.6615 60.43 85.9615C60.76 86.2615 61.02 86.2415 61.57 85.8215C62.39 85.1915 62.97 85.0715 63.68 85.7215C64.22 86.2215 64.31 86.9615 63.93 87.5315L64.43 87.9915C64.51 88.0715 64.53 88.2215 64.46 88.2915L64.2 88.5715C64.13 88.6415 63.98 88.6315 63.9 88.5615L63.4 88.1015C62.92 88.4515 62.36 88.4615 61.84 88.1115C61.76 88.0315 61.71 87.9215 61.77 87.8515L62.03 87.5715C62.1 87.5015 62.17 87.5015 62.29 87.5415C62.65 87.7415 62.94 87.6815 63.24 87.3615C63.57 87.0115 63.53 86.6415 63.23 86.3715C62.94 86.1015 62.67 86.0515 62.09 86.5115C61.27 87.1415 60.69 87.2615 59.98 86.6115C59.44 86.1115 59.31 85.3315 59.68 84.6815L59.19 84.2215Z" fill="#003D2E"/>
<path d="M57.3499 83.7815C57.4099 83.6415 57.5599 83.6415 57.6799 83.7615L57.9699 84.0315C58.0499 84.1115 58.0999 84.2215 58.0799 84.3315C57.5799 85.7815 58.0499 87.5315 59.3799 88.7615C60.7199 89.9915 62.5799 90.3315 63.9199 89.7215C64.0199 89.6915 64.1399 89.7215 64.2299 89.8115L64.5199 90.0815C64.6499 90.2015 64.6199 90.3015 64.5199 90.4115C62.8299 91.2215 60.5199 90.8715 58.8499 89.3315C57.1899 87.7815 56.6299 85.5515 57.3499 83.7815Z" fill="#003D2E"/>
<path d="M120.18 85.5315C120.57 83.7315 122.44 81.2815 123.73 80.2715C123.39 80.5715 123.07 80.9015 122.79 81.2715C122.16 82.0815 121.7 83.0615 121.44 84.1915C121.43 84.2315 121.42 84.2715 121.41 84.3115C120.26 89.5915 123.96 96.0915 129.67 98.8215C129.75 98.8615 129.84 98.9015 129.92 98.9315C129.97 98.9515 130.03 98.9815 130.09 99.0015C130.1 99.0115 130.11 99.0115 130.11 99.0115C133.68 100.571 137.15 100.271 139.47 98.4715C139.74 98.2615 139.99 98.0315 140.23 97.7815C137.98 100.701 132.87 102.171 128.44 100.041C122.73 97.3115 119.03 90.8115 120.18 85.5315Z" fill="#00FF94"/>
<path d="M121.41 84.3007C121.42 84.2607 121.43 84.2207 121.44 84.1807C121.7 83.0507 122.16 82.0707 122.79 81.2607C123.07 80.9007 123.38 80.5607 123.73 80.2607C123.75 80.2507 123.77 80.2307 123.79 80.2107C126.19 78.1707 129.97 77.8307 133.82 79.6807C139.53 82.4207 143.22 88.9107 142.08 94.1907C141.77 95.6407 141.12 96.8407 140.24 97.7707C140 98.0207 139.75 98.2507 139.48 98.4607C137.16 100.261 133.69 100.561 130.12 99.0007C130.11 99.0007 130.1 99.0007 130.1 98.9907C130.05 98.9707 129.99 98.9407 129.93 98.9207C129.85 98.8807 129.76 98.8507 129.68 98.8107C123.95 96.0807 120.26 89.5807 121.41 84.3007Z" fill="#E3E7E3"/>
<path d="M120.14 85.4514C120.53 83.6514 122.4 81.2014 123.69 80.1914C123.35 80.4914 123.03 80.8214 122.75 81.1914C122.12 82.0014 121.66 82.9814 121.4 84.1114C121.39 84.1514 121.38 84.1914 121.37 84.2314C120.22 89.5114 123.92 96.0114 129.63 98.7414C129.71 98.7814 129.8 98.8214 129.88 98.8514C129.93 98.8714 129.99 98.9014 130.05 98.9214C130.06 98.9314 130.07 98.9314 130.07 98.9314C133.64 100.491 137.11 100.191 139.43 98.3914C139.7 98.1814 139.95 97.9514 140.19 97.7014C137.94 100.621 132.83 102.091 128.4 99.9614C122.69 97.2314 119 90.7314 120.14 85.4514Z" stroke="#003C2E" stroke-width="0.4217" stroke-miterlimit="10" stroke-linecap="round" stroke-linejoin="round"/>
<path d="M121.37 84.2206C121.38 84.1806 121.39 84.1406 121.4 84.1006C121.66 82.9706 122.12 81.9906 122.75 81.1806C123.03 80.8206 123.34 80.4806 123.69 80.1806C123.71 80.1706 123.73 80.1506 123.75 80.1306C126.15 78.0906 129.93 77.7506 133.78 79.6006C139.49 82.3406 143.18 88.8306 142.04 94.1106C141.73 95.5606 141.08 96.7606 140.2 97.6906C139.96 97.9406 139.71 98.1706 139.44 98.3806C137.12 100.181 133.65 100.481 130.08 98.9206C130.07 98.9206 130.06 98.9206 130.06 98.9106C130.01 98.8906 129.95 98.8606 129.89 98.8406C129.81 98.8006 129.72 98.7706 129.64 98.7306C123.92 96.0006 120.22 89.5006 121.37 84.2206Z" stroke="#003C2E" stroke-width="0.4217" stroke-miterlimit="10" stroke-linecap="round" stroke-linejoin="round"/>
<path d="M128.15 83.1214C127.98 82.9614 128.01 82.8114 128.15 82.6614C130.56 81.4714 133.74 82.0114 136.07 84.1714C138.4 86.3214 139.18 89.4414 138.18 91.9114C138.1 92.1114 137.89 92.1014 137.72 91.9414L137.31 91.5614C137.19 91.4514 137.13 91.2914 137.16 91.1414C137.86 89.1114 137.21 86.6714 135.34 84.9514C133.47 83.2314 130.87 82.7614 129 83.6114C128.85 83.6614 128.69 83.6014 128.57 83.4914L128.15 83.1214Z" fill="#003D2E"/>
<path d="M128.23 85.9514C128.11 85.8414 128.09 85.6414 128.18 85.5414L128.55 85.1414C128.64 85.0414 128.85 85.0514 128.97 85.1614L129.67 85.8114C130.52 85.1314 131.42 85.2114 132.32 85.7614C132.44 85.8714 132.51 86.0214 132.41 86.1214L131.99 86.5714C131.9 86.6714 131.79 86.6614 131.63 86.6114C131.13 86.3314 130.6 86.2114 130 86.8514C129.54 87.3414 129.51 87.9614 129.97 88.3914C130.44 88.8214 130.8 88.7814 131.56 88.2014C132.7 87.3214 133.52 87.1514 134.51 88.0614C135.27 88.7614 135.39 89.7914 134.86 90.5914L135.56 91.2414C135.68 91.3514 135.7 91.5514 135.61 91.6514L135.24 92.0514C135.15 92.1514 134.94 92.1414 134.82 92.0314L134.12 91.3814C133.45 91.8714 132.67 91.8914 131.94 91.3914C131.82 91.2814 131.75 91.1314 131.84 91.0314L132.21 90.6314C132.3 90.5314 132.41 90.5414 132.57 90.5914C133.07 90.8714 133.48 90.7814 133.89 90.3414C134.35 89.8414 134.29 89.3314 133.88 88.9514C133.47 88.5714 133.1 88.5114 132.29 89.1414C131.15 90.0214 130.33 90.1914 129.34 89.2814C128.58 88.5814 128.4 87.4914 128.92 86.5914L128.23 85.9514Z" fill="#003D2E"/>
<path d="M125.66 85.3317C125.74 85.1317 125.95 85.1417 126.12 85.3017L126.53 85.6817C126.65 85.7917 126.72 85.9417 126.68 86.1017C125.98 88.1317 126.63 90.5717 128.5 92.2917C130.37 94.0117 132.97 94.4817 134.84 93.6317C134.98 93.5917 135.15 93.6417 135.27 93.7517L135.68 94.1317C135.85 94.2917 135.82 94.4417 135.68 94.5917C133.32 95.7317 130.09 95.2417 127.76 93.0817C125.43 90.9317 124.65 87.8117 125.66 85.3317Z" fill="#003D2E"/>
<path d="M82.1097 91.5696C80.7697 91.6496 78.6897 90.8296 77.7197 90.1296C77.9997 90.3096 78.2897 90.4596 78.5997 90.5896C79.2897 90.8696 80.0697 90.9996 80.9097 90.9596C80.9397 90.9596 80.9697 90.9596 80.9997 90.9596C84.9297 90.7196 88.7397 86.8396 89.5297 82.2996C89.5397 82.2296 89.5497 82.1696 89.5597 82.0996C89.5697 82.0596 89.5697 82.0096 89.5797 81.9696C89.5797 81.9596 89.5797 81.9596 89.5797 81.9496C89.9697 79.1396 89.0597 76.7696 87.3397 75.4996C87.1397 75.3496 86.9297 75.2196 86.7097 75.0996C89.1997 76.0996 91.2397 79.3796 90.6397 82.9096C89.8597 87.4496 86.0397 91.3296 82.1097 91.5696Z" fill="#00FF94"/>
<path d="M81.0097 90.9593C80.9797 90.9593 80.9497 90.9593 80.9197 90.9593C80.0797 90.9993 79.2997 90.8693 78.6097 90.5893C78.2997 90.4593 77.9997 90.3093 77.7297 90.1293C77.7197 90.1193 77.6997 90.1093 77.6897 90.0993C75.7897 88.8193 74.7997 86.2393 75.3197 83.1793C76.0997 78.6393 79.9197 74.7593 83.8497 74.5093C84.9297 74.4393 85.8997 74.6493 86.7197 75.0893C86.9397 75.2093 87.1497 75.3393 87.3497 75.4893C89.0697 76.7593 89.9697 79.1293 89.5897 81.9393C89.5897 81.9493 89.5897 81.9493 89.5897 81.9593C89.5797 81.9993 89.5797 82.0493 89.5697 82.0893C89.5597 82.1593 89.5497 82.2193 89.5397 82.2893C88.7497 86.8393 84.9297 90.7193 81.0097 90.9593Z" fill="#E3E7E3"/>
<path d="M82.0599 91.6184C80.7199 91.6984 78.6399 90.8784 77.6699 90.1784C77.9499 90.3584 78.2399 90.5084 78.5499 90.6384C79.2399 90.9184 80.0199 91.0484 80.8599 91.0084C80.8899 91.0084 80.9199 91.0084 80.9499 91.0084C84.8799 90.7684 88.6899 86.8884 89.4799 82.3484C89.4899 82.2784 89.4999 82.2184 89.5099 82.1484C89.5199 82.1084 89.5199 82.0584 89.5299 82.0184C89.5299 82.0084 89.5299 82.0084 89.5299 81.9984C89.9199 79.1884 89.0099 76.8184 87.2899 75.5484C87.0899 75.3984 86.8799 75.2684 86.6599 75.1484C89.1499 76.1484 91.1899 79.4284 90.5899 82.9584C89.8099 87.4884 85.9899 91.3684 82.0599 91.6184Z" stroke="#003C2E" stroke-width="0.4217" stroke-miterlimit="10" stroke-linecap="round" stroke-linejoin="round"/>
<path d="M80.9599 90.9984C80.9299 90.9984 80.8999 90.9984 80.8699 90.9984C80.0299 91.0384 79.2499 90.9084 78.5599 90.6284C78.2499 90.4984 77.9499 90.3484 77.6799 90.1684C77.6699 90.1584 77.6499 90.1484 77.6399 90.1384C75.7399 88.8584 74.7499 86.2784 75.2699 83.2184C76.0499 78.6784 79.8699 74.7984 83.7999 74.5484C84.8799 74.4784 85.8499 74.6884 86.6699 75.1284C86.8899 75.2484 87.0999 75.3784 87.2999 75.5284C89.0199 76.7984 89.9199 79.1684 89.5399 81.9784C89.5399 81.9884 89.5399 81.9884 89.5399 81.9984C89.5299 82.0384 89.5299 82.0884 89.5199 82.1284C89.5099 82.1984 89.4999 82.2584 89.4899 82.3284C88.6999 86.8784 84.8799 90.7584 80.9599 90.9984Z" stroke="#003C2E" stroke-width="0.4217" stroke-miterlimit="10" stroke-linecap="round" stroke-linejoin="round"/>
<path d="M83.3098 77.7793L82.3698 78.2993L79.8098 79.7193L78.8698 80.2393L77.8198 85.2393L78.5398 85.7793L80.5198 87.2493L81.2398 87.7893L82.1798 87.2693L84.7198 85.8493L85.6598 85.3293L86.7098 80.3293L85.9898 79.7893L84.0398 78.3193L83.3098 77.7793ZM79.6098 84.2193L80.4998 81.2593L83.1398 79.8193L84.8898 81.3493L83.9998 84.3093L81.3598 85.7493L79.6098 84.2193Z" fill="#003D2E"/>
<path d="M154.66 89.0996H166.9C168.25 89.0996 169.34 90.1896 169.34 91.5396C169.34 92.8896 168.25 93.9796 166.9 93.9796H154.66C153.31 93.9796 152.22 92.8896 152.22 91.5396C152.22 90.1996 153.31 89.0996 154.66 89.0996Z" fill="#00FF94"/>
<path d="M124.12 17.4102H136.36C137.71 17.4102 138.8 18.5002 138.8 19.8502C138.8 21.2002 137.71 22.2902 136.36 22.2902H124.12C122.77 22.2902 121.68 21.2002 121.68 19.8502C121.68 18.5102 122.77 17.4102 124.12 17.4102Z" fill="#E3E7E3"/>
<path d="M159.82 92.6309H174.1C176.25 92.6309 177.98 94.3709 177.98 96.5109C177.98 98.6609 176.24 100.391 174.1 100.391H159.82C157.67 100.391 155.94 98.6509 155.94 96.5109C155.94 94.3709 157.68 92.6309 159.82 92.6309Z" fill="#00FF94"/>
<path d="M117.56 10.9395H131.84C133.99 10.9395 135.72 12.6795 135.72 14.8195C135.72 16.9695 133.98 18.6995 131.84 18.6995H117.56C115.41 18.6995 113.68 16.9595 113.68 14.8195C113.67 12.6795 115.41 10.9395 117.56 10.9395Z" fill="#E3E7E3"/>
<path d="M167.81 85.3203L169.22 86.7303" stroke="#163B2F" stroke-width="0.4217" stroke-miterlimit="10" stroke-linecap="round" stroke-linejoin="round"/>
<path d="M170.25 87.75L171.65 89.16" stroke="#163B2F" stroke-width="0.4217" stroke-miterlimit="10" stroke-linecap="round" stroke-linejoin="round"/>
<path d="M167.81 89.16L169.22 87.75" stroke="#163B2F" stroke-width="0.4217" stroke-miterlimit="10" stroke-linecap="round" stroke-linejoin="round"/>
<path d="M170.25 86.7303L171.65 85.3203" stroke="#163B2F" stroke-width="0.4217" stroke-miterlimit="10" stroke-linecap="round" stroke-linejoin="round"/>
<path d="M16.46 70.2305H4.95996" stroke="#003C2E" stroke-width="0.4217" stroke-miterlimit="10" stroke-linecap="round" stroke-linejoin="round"/>
<path d="M25.2001 70.2305H22.3101" stroke="#003C2E" stroke-width="0.4217" stroke-miterlimit="10" stroke-linecap="round" stroke-linejoin="round"/>
<path d="M42.9298 74.6094H12.0898" stroke="#00FF94" stroke-width="0.4217" stroke-miterlimit="10" stroke-linecap="round" stroke-linejoin="round"/>
<path d="M20.2998 93.4492L21.7098 94.8592" stroke="#163B2F" stroke-width="0.4217" stroke-miterlimit="10" stroke-linecap="round" stroke-linejoin="round"/>
<path d="M22.7397 95.8789L24.1397 97.2889" stroke="#163B2F" stroke-width="0.4217" stroke-miterlimit="10" stroke-linecap="round" stroke-linejoin="round"/>
<path d="M20.2998 97.2889L21.7098 95.8789" stroke="#163B2F" stroke-width="0.4217" stroke-miterlimit="10" stroke-linecap="round" stroke-linejoin="round"/>
<path d="M22.7397 94.8592L24.1397 93.4492" stroke="#163B2F" stroke-width="0.4217" stroke-miterlimit="10" stroke-linecap="round" stroke-linejoin="round"/>
<path d="M26.7599 21.2792H13.7099C12.5899 21.2792 11.6699 20.3692 11.6699 19.2392C11.6699 18.1192 12.5799 17.1992 13.7099 17.1992H26.7599C27.8799 17.1992 28.7999 18.1092 28.7999 19.2392C28.7999 20.3692 27.8899 21.2792 26.7599 21.2792Z" fill="#00FF94"/>
<path d="M20.6998 18.3394H6.26979C4.47979 18.3394 3.02979 16.8894 3.02979 15.0994C3.02979 13.3094 4.47979 11.8594 6.26979 11.8594H20.6998C22.4898 11.8594 23.9398 13.3094 23.9398 15.0994C23.9498 16.8894 22.4898 18.3394 20.6998 18.3394Z" fill="#00FF94"/>
<path d="M13.2103 20.1485L11.8003 18.9785" stroke="#163B2F" stroke-width="0.4217" stroke-miterlimit="10" stroke-linecap="round" stroke-linejoin="round"/>
<path d="M10.7701 18.1192L9.37012 16.9492" stroke="#163B2F" stroke-width="0.4217" stroke-miterlimit="10" stroke-linecap="round" stroke-linejoin="round"/>
<path d="M13.2103 16.9492L11.8003 18.1192" stroke="#163B2F" stroke-width="0.4217" stroke-miterlimit="10" stroke-linecap="round" stroke-linejoin="round"/>
<path d="M10.7701 18.9785L9.37012 20.1485" stroke="#163B2F" stroke-width="0.4217" stroke-miterlimit="10" stroke-linecap="round" stroke-linejoin="round"/>
<path d="M174.67 31.1406L177.13 32.5406" stroke="#003D2E" stroke-width="0.4217" stroke-miterlimit="10" stroke-linecap="round" stroke-linejoin="round"/>
<path d="M179.6 31.1406L178.15 31.9606" stroke="#003D2E" stroke-width="0.4217" stroke-miterlimit="10" stroke-linecap="round" stroke-linejoin="round"/>
<path d="M177.13 32.541V35.361" stroke="#003D2E" stroke-width="0.4217" stroke-miterlimit="10" stroke-linecap="round" stroke-linejoin="round"/>
<path d="M153.3 34.7305H141.8" stroke="#003C2E" stroke-width="0.4217" stroke-miterlimit="10" stroke-linecap="round" stroke-linejoin="round"/>
<path d="M162.04 34.7305H159.15" stroke="#003C2E" stroke-width="0.4217" stroke-miterlimit="10" stroke-linecap="round" stroke-linejoin="round"/>
<path d="M177.13 40.4707H146.29" stroke="#00FF94" stroke-width="0.4217" stroke-miterlimit="10" stroke-linecap="round" stroke-linejoin="round"/>
<path d="M28.4902 93.4492H33.2702" stroke="#003C2E" stroke-width="0.4217" stroke-miterlimit="10" stroke-linecap="round" stroke-linejoin="round"/>
<path d="M20.2998 101.09H46.2298" stroke="#00FF94" stroke-width="0.4217" stroke-miterlimit="10" stroke-linecap="round" stroke-linejoin="round"/>
<path d="M37.4702 93.4707H51.9302" stroke="#003C2E" stroke-width="0.4217" stroke-miterlimit="10" stroke-linecap="round" stroke-linejoin="round"/>
<path d="M33.58 15.9202C34.3256 15.9202 34.93 15.4142 34.93 14.7902C34.93 14.1661 34.3256 13.6602 33.58 13.6602C32.8344 13.6602 32.23 14.1661 32.23 14.7902C32.23 15.4142 32.8344 15.9202 33.58 15.9202Z" stroke="#163B2F" stroke-width="0.4217" stroke-miterlimit="10" stroke-linecap="round" stroke-linejoin="round"/>
</svg>
