<svg width="1676" height="857" viewBox="0 0 1676 857" fill="none" xmlns="http://www.w3.org/2000/svg">
<path d="M835.164 748.586H241.197" stroke="#003B2F" stroke-width="3" stroke-linecap="round" stroke-linejoin="round"/>
<path d="M941.499 748.586H868.176" stroke="#003B2F" stroke-width="3" stroke-linecap="round" stroke-linejoin="round"/>
<path d="M1461.48 748.586H974.428" stroke="#003B2F" stroke-width="3" stroke-linecap="round" stroke-linejoin="round"/>
<path d="M986.297 187.561C986.297 187.561 985.965 187.561 985.799 187.561C980.823 187.312 976.178 186.151 971.865 184.326C969.957 183.496 968.049 182.501 966.307 181.423C966.224 181.423 966.141 181.34 966.059 181.257C953.783 173.543 945.903 159.608 946.567 144.015C947.645 120.956 967.137 103.123 990.195 104.118C996.499 104.367 1002.39 106.026 1007.61 108.846C1009.02 109.593 1010.35 110.422 1011.68 111.252C1022.88 118.8 1030.09 131.573 1030.01 145.923C1030.01 145.923 1030.01 145.923 1030.01 146.005C1030.01 146.254 1030.01 146.42 1030.01 146.669C1030.01 147.001 1030.01 147.333 1030.01 147.664C1029.01 170.723 1009.44 188.556 986.463 187.478L986.297 187.561Z" fill="#03FC9D" stroke="#003B2F" stroke-width="3" stroke-miterlimit="10"/>
<path d="M994.591 187.064C994.591 187.064 994.26 187.064 994.094 187.064C989.2 187.81 984.389 187.644 979.744 186.649C977.671 186.234 975.68 185.654 973.689 184.907C973.606 184.907 973.523 184.907 973.358 184.741C959.755 179.599 949.304 167.489 946.898 152.144C943.332 129.334 958.925 108.017 981.652 104.451C987.873 103.455 994.011 103.953 999.734 105.612C1001.23 106.027 1002.72 106.607 1004.21 107.188C1016.65 112.413 1026.28 123.528 1029.1 137.546C1029.1 137.546 1029.1 137.546 1029.1 137.629C1029.1 137.877 1029.18 138.043 1029.26 138.292C1029.26 138.624 1029.43 138.956 1029.43 139.287C1032.99 162.097 1017.4 183.414 994.674 186.981L994.591 187.064Z" stroke="#003B2F" stroke-width="3" stroke-linecap="round" stroke-linejoin="round"/>
<path d="M840.97 354.102V433.894" stroke="#003B2F" stroke-width="3" stroke-linecap="round" stroke-linejoin="round"/>
<path d="M840.97 574.816V715.075" stroke="#003B2F" stroke-width="3" stroke-linecap="round" stroke-linejoin="round"/>
<path d="M923.914 715.077V578.633" stroke="#003B2F" stroke-width="3" stroke-linecap="round" stroke-linejoin="round"/>
<path d="M923.914 437.793V337.43" stroke="#003B2F" stroke-width="3" stroke-linecap="round" stroke-linejoin="round"/>
<path d="M923.915 193.52V130.98C923.915 127.745 921.26 125.174 918.108 125.174H846.859C843.624 125.174 841.053 127.828 841.053 130.98V210.192" stroke="#003B2F" stroke-width="3" stroke-linecap="round" stroke-linejoin="round"/>
<path fill-rule="evenodd" clip-rule="evenodd" d="M1075.81 183.052C1074.59 181.62 1072.68 180.926 1070.82 181.077L646.497 218.253C644.21 218.427 642.238 219.903 641.427 222.049C640.616 224.195 641.025 226.6 642.548 228.244C642.548 228.244 685.479 276.476 697.527 290.022L649.297 360.94C648.017 362.851 647.909 365.35 649.046 367.357C650.182 369.363 652.445 370.526 654.744 370.27L1079.06 333.095C1080.85 332.932 1082.49 331.995 1083.55 330.47L1134.35 255.648C1135.93 253.362 1135.7 250.312 1133.9 248.293L1075.81 183.052Z" fill="#03FC9D" stroke="#003B2F" stroke-width="3" stroke-linecap="round" stroke-linejoin="round"/>
<path fill-rule="evenodd" clip-rule="evenodd" d="M699.549 419.875C697.642 419.792 695.817 420.539 694.573 422.032L637.009 489.383C635.184 491.456 635.018 494.525 636.677 496.848L687.854 570.088C688.932 571.664 690.674 572.576 692.499 572.659L1116.18 595.469C1118.5 595.635 1120.66 594.391 1121.82 592.317C1122.98 590.244 1122.82 587.755 1121.49 585.847L1072.97 516.506C1084.91 502.571 1127.46 452.721 1127.46 452.721C1128.95 450.98 1129.37 448.491 1128.46 446.335C1127.54 444.178 1125.47 442.768 1123.15 442.685L699.466 419.875H699.549Z" fill="#E6E8EA" stroke="#003B2F" stroke-width="3" stroke-linecap="round" stroke-linejoin="round"/>
<path d="M797.24 301.291L786.098 302.381L785.726 299.844L791.238 298.582L787.132 249.339L781.481 248.927L781.435 246.444L792.603 245.673L825.34 242.783L827.047 258.448L824.417 258.667L817.717 246.628L799.383 248.077L801.323 271.344L810.792 270.394L813.587 260.613L816.137 260.4L816.655 271.43L817.984 282.552L815.434 282.764L811.058 273.581L801.562 274.212L803.509 297.559L811.304 297.712L811.278 300.282L797.24 301.291ZM851.111 291.184L841.642 298.873C834.869 299.438 829.304 296.211 828.753 289.597C828.487 286.41 829.437 283.362 831.96 280.905L849.271 273.926L848.772 267.95C848.407 263.567 847.524 261.635 843.858 261.94C842.344 262.067 841.096 262.492 839.629 263.176L838.998 271.974L828.799 272.824L828.227 265.972L844.177 258.062C854.775 257.179 859.589 259.104 860.399 268.826L861.768 285.24C861.994 287.949 862.472 289.835 863.335 291.528L866.981 290.984L867.505 293.427L853.873 297.372L851.111 291.184ZM844.783 292.273C846.456 292.133 847.97 291.044 848.873 290.327L850.526 288.986L849.477 276.396L841.92 280.075C840.532 281.715 839.915 283.933 840.128 286.483C840.466 290.546 842.551 292.459 844.783 292.273ZM888.415 294.974C877.579 295.877 869.013 289.37 868.049 277.816C867.006 265.306 875.93 257.822 886.488 254.535C890.791 254.176 895.638 255.537 898.786 257.682L899.57 267.084L890.566 267.835L887.551 258.619C886.714 258.207 886.057 258.021 884.941 258.114C881.116 258.433 877.644 262.975 878.381 271.82C879.132 280.824 884.703 287.019 892.432 286.374C895.62 286.109 898.083 284.86 900.573 282.968L901.868 285.026C897.811 289.296 894.192 292.085 888.415 294.974ZM933.289 284.894L921.782 292.192C914.691 292.783 910.846 289.012 910.241 281.76L908.255 257.935L902.04 258.454L901.98 257.736L903.301 255.299L908.082 254.901L907.644 249.642L916.535 242.722L918.128 242.59L919.098 254.223L929.616 253.346L929.849 256.135L919.41 257.005L921.377 280.591C921.636 283.699 923.608 285.219 925.919 285.027C928.07 284.847 929.538 284.163 932.061 282.669L933.289 284.894ZM951.114 289.827C946.811 290.185 941.207 289.369 937.468 287.835L935.721 276.507L939.148 276.221L943.391 283.811C945.788 285.617 948.132 286.785 950.841 286.56C954.348 286.267 956.26 284.182 956.027 281.393C955.808 278.764 954.433 277.675 950.17 275.623L942.806 271.985C938.63 270.006 935.522 267.377 935.13 262.675C934.665 257.098 938.542 252.602 949.1 249.315C955.076 248.816 958.523 249.733 961.684 251.074L962.554 261.512L959.606 261.758L955.057 254.354C953.171 252.907 951.424 252.17 949.034 252.369C945.847 252.635 944.007 254.634 944.22 257.184C944.426 259.654 945.973 260.889 950.482 263L957.833 266.479C962.587 268.65 964.898 271.346 965.27 275.808C965.795 282.103 961.592 286.546 951.114 289.827Z" fill="#003B2F"/>
<path d="M780.062 522.73L772.867 522.546L772.749 519.978L778.139 519.436L780.497 470.158L775.112 468.939L775.39 466.471L784.168 467.051L794.878 467.404L808.803 509.296L808.737 512.335L827.144 468.948L835.682 469.517L845.593 469.831L845.715 472.318L840.082 472.929L837.72 522.287L843.112 523.346L842.83 525.894L831.816 525.207L820.228 524.812L820.111 522.245L825.58 521.706L827.594 479.616L828.383 474.851L807.282 524.353L800.653 524.036L785.303 476.792L784.338 471.863L782.052 519.623L787.685 520.693L787.402 523.241L780.062 522.73ZM859.386 545.418L847.645 544.856L848.138 534.553L858.521 535.05L867.408 523.308L858.797 525.938L847.658 491.063L844.098 490.172L844.456 487.708L854.592 488.353L864.343 488.66L864.385 491.143L860.037 491.656L867.919 517.649L868.242 520.946L879.122 492.649L874.448 491.625L874.806 489.16L881.907 489.66L887.585 489.772L887.706 492.259L883.515 492.859L870.321 524.328L859.386 545.418ZM915.93 524.189L903.568 529.922C896.459 529.581 893.14 525.34 893.488 518.072L894.631 494.192L888.401 493.894L888.436 493.175L890.064 490.931L894.856 491.161L895.108 485.889L904.827 480.191L906.424 480.267L905.866 491.928L916.409 492.432L916.275 495.228L905.812 494.727L904.681 518.368C904.532 521.482 906.289 523.247 908.605 523.358C910.761 523.462 912.305 522.975 915.002 521.823L915.93 524.189ZM926.761 529.751L917.01 529.444L916.972 526.881L921.479 526.376L923.826 477.338L919.258 477.439L919.141 474.872L932.031 473.167L935.153 473.157L933.918 498.954L947.323 491.51C956.188 491.934 958.176 495.552 957.756 504.337L956.621 528.058L961.298 529.002L960.936 531.546L950.961 530.909L942.008 530.641L941.891 528.073L945.04 527.504L946.19 503.464C946.347 500.189 945.058 498.686 942.582 498.568C940.346 498.461 938.212 499.559 935.827 500.886L933.769 502.069L932.581 526.907L935.821 527.783L935.539 530.331L926.761 529.751ZM978.74 533.599C974.427 533.393 968.978 531.851 965.471 529.842L965.219 518.383L968.654 518.547L971.869 526.626C974.01 528.73 976.181 530.195 978.897 530.325C982.411 530.493 984.579 528.675 984.713 525.88C984.839 523.244 983.619 521.985 979.66 519.394L972.834 514.825C968.952 512.318 966.214 509.305 966.44 504.593C966.707 499.002 971.139 495.052 982.036 493.172C988.026 493.458 991.323 494.817 994.281 496.559L993.781 507.022L990.826 506.881L987.283 498.946C985.602 497.265 983.967 496.306 981.571 496.191C978.376 496.038 976.292 497.78 976.169 500.335C976.051 502.811 977.424 504.238 981.618 506.92L988.451 511.33C992.881 514.103 994.82 517.078 994.606 521.551C994.304 527.86 989.557 531.715 978.74 533.599Z" fill="#003B2F"/>
<path d="M943.572 761.442C938.596 753.894 936.605 738.964 937.351 731.002C937.186 733.241 937.351 735.481 937.6 737.72C938.264 742.697 940.089 747.673 943.158 752.401C943.158 752.567 943.406 752.733 943.406 752.899C957.922 775.045 993.256 784.418 1022.37 773.967C1022.78 773.801 1023.2 773.718 1023.7 773.469C1023.95 773.469 1024.28 773.22 1024.53 773.137H1024.69C1042.44 766.087 1053.31 752.899 1054.97 738.632C1055.22 736.974 1055.22 735.315 1055.22 733.573C1057.7 751.406 1045.18 774.299 1022.62 782.51C993.505 793.044 958.171 783.588 943.655 761.442H943.572Z" fill="#03FC9D"/>
<path d="M943.572 752.899C943.572 752.899 943.323 752.568 943.323 752.402C940.337 747.674 938.43 742.697 937.766 737.721C937.517 735.481 937.434 733.242 937.517 731.002V730.67C938.679 715.326 950.457 700.893 970.115 693.843C999.311 683.309 1034.56 692.765 1049.08 714.911C1053.06 720.966 1055.05 727.353 1055.22 733.656C1055.22 735.315 1055.22 737.057 1054.97 738.716C1053.31 752.982 1042.44 766.088 1024.69 773.221H1024.53C1024.53 773.221 1023.95 773.47 1023.7 773.553C1023.28 773.719 1022.87 773.884 1022.37 774.05C993.256 784.584 957.922 775.129 943.406 752.982L943.572 752.899Z" fill="#E6E8EA"/>
<path d="M943.157 761.276C938.181 753.728 936.19 738.798 936.937 730.836C936.771 733.075 936.937 735.315 937.185 737.554C937.849 742.531 939.674 747.507 942.743 752.235C942.743 752.401 942.992 752.567 942.992 752.733C957.507 774.879 992.841 784.252 1021.95 773.801C1022.37 773.635 1022.78 773.552 1023.28 773.303C1023.53 773.303 1023.86 773.054 1024.11 772.971H1024.28C1042.03 765.921 1052.89 752.733 1054.55 738.466C1054.8 736.808 1054.8 735.149 1054.8 733.407C1057.29 751.24 1044.76 774.133 1022.2 782.344C993.09 792.878 957.756 783.422 943.24 761.276H943.157Z" stroke="#003B2F" stroke-width="3" stroke-linecap="round" stroke-linejoin="round"/>
<path d="M943.075 752.817C943.075 752.817 942.826 752.486 942.826 752.32C939.84 747.592 937.932 742.615 937.268 737.639C937.02 735.399 936.937 733.16 937.02 730.92V730.588C938.181 715.244 949.959 700.811 969.617 693.761C998.813 683.227 1034.06 692.683 1048.58 714.829C1052.56 720.884 1054.55 727.271 1054.72 733.574C1054.72 735.233 1054.72 736.975 1054.47 738.634C1052.81 752.9 1041.94 766.006 1024.19 773.139H1024.03C1024.03 773.139 1023.45 773.388 1023.2 773.471C1022.78 773.637 1022.37 773.802 1021.87 773.968C992.758 784.502 957.424 775.047 942.909 752.9L943.075 752.817Z" stroke="#003B2F" stroke-width="3" stroke-linecap="round" stroke-linejoin="round"/>
<path d="M1020.46 725.112C1021.54 718.393 1016.4 714.827 1009.43 712.255L1011.75 703.131L1006.2 701.721L1003.96 710.845L999.477 709.767L1001.8 700.477L996.242 699.15L993.92 708.274L990.353 707.445L982.722 705.537L981.229 711.426C981.229 711.426 985.376 712.338 985.21 712.421C985.625 712.421 986.04 712.587 986.372 712.836C986.703 713.002 987.035 713.334 987.284 713.665C987.533 713.997 987.699 714.329 987.782 714.744C987.865 715.158 987.865 715.573 987.782 715.988L985.127 726.273L981.395 740.788C981.395 740.788 981.229 741.286 981.063 741.535C980.897 741.784 980.648 741.95 980.483 742.032C980.234 742.115 979.985 742.198 979.736 742.281C979.487 742.281 979.238 742.281 978.907 742.198L974.842 741.12L972.105 747.424L979.321 749.249L983.303 750.327L980.98 759.617L986.538 761.027L988.86 752.152L993.256 753.313L990.934 762.437L996.491 763.847L998.896 754.64C1008.35 756.465 1015.49 755.801 1018.55 747.258C1019.13 746.014 1019.55 744.687 1019.63 743.36C1019.63 742.033 1019.47 740.622 1019.05 739.378C1018.55 738.134 1017.81 736.973 1016.9 735.978C1015.98 734.982 1014.82 734.236 1013.58 733.738C1015.49 733.323 1017.23 732.328 1018.55 730.918C1019.88 729.425 1020.63 727.6 1020.71 725.609V725.361L1020.46 725.112ZM1007.52 742.862C1005.78 749.829 994.168 746.014 990.436 745.018L993.505 732.743C997.237 733.655 1009.43 735.646 1007.52 742.779V742.862ZM1009.35 724.946C1007.69 731.25 998.067 728.015 994.915 727.185L997.818 715.905C1000.97 716.9 1011.09 718.393 1009.43 724.946H1009.35Z" fill="#003B2F"/>
<path d="M833.919 771.064C828.943 763.516 826.952 748.586 827.699 740.623C827.533 742.863 827.699 745.102 827.947 747.342C828.611 752.319 830.436 757.295 833.505 762.023C833.505 762.189 833.754 762.355 833.754 762.521C848.269 784.667 883.603 794.04 912.717 783.589C913.132 783.423 913.546 783.34 914.044 783.091C914.293 783.091 914.625 782.842 914.873 782.759H915.039C932.789 775.709 943.655 762.521 945.314 748.254C945.563 746.595 945.563 744.937 945.563 743.195C948.051 761.028 935.527 783.921 912.966 792.132C883.852 802.666 848.518 793.21 834.002 771.064H833.919Z" fill="#03FC9D"/>
<path d="M833.836 762.438C833.836 762.438 833.588 762.106 833.588 761.941C830.602 757.213 828.694 752.236 828.03 747.259C827.781 745.02 827.699 742.78 827.781 740.541V740.209C828.943 724.864 840.721 710.432 860.379 703.382C889.575 692.848 924.827 702.303 939.342 724.45C943.323 730.505 945.314 736.891 945.48 743.195C945.48 744.854 945.48 746.596 945.231 748.255C943.572 762.521 932.706 775.626 914.956 782.76H914.79C914.79 782.76 914.21 783.009 913.961 783.091C913.546 783.257 913.131 783.423 912.634 783.589C883.52 794.123 848.186 784.667 833.671 762.521L833.836 762.438Z" fill="#E6E8EA"/>
<path d="M833.505 770.816C828.528 763.268 826.537 748.338 827.284 740.375C827.118 742.615 827.284 744.854 827.533 747.094C828.196 752.071 830.021 757.047 833.09 761.775C833.09 761.941 833.339 762.107 833.339 762.273C847.854 784.419 883.188 793.792 912.302 783.341C912.717 783.175 913.132 783.092 913.629 782.843C913.878 782.843 914.21 782.594 914.459 782.511H914.624C932.375 775.461 943.24 762.273 944.899 748.006C945.148 746.347 945.148 744.688 945.148 742.947C947.636 760.78 935.112 783.672 912.551 791.884C883.437 802.418 848.103 792.962 833.588 770.816H833.505Z" stroke="#003B2F" stroke-width="3" stroke-linecap="round" stroke-linejoin="round"/>
<path d="M833.505 762.356C833.505 762.356 833.256 762.024 833.256 761.859C830.27 757.131 828.362 752.154 827.699 747.177C827.45 744.938 827.367 742.698 827.45 740.459V740.127C828.611 724.782 840.389 710.35 860.047 703.3C889.243 692.766 924.495 702.221 939.01 724.368C942.992 730.423 944.982 736.809 945.148 743.113C945.148 744.772 945.148 746.514 944.899 748.173C943.24 762.439 932.375 775.544 914.624 782.678H914.459C914.459 782.678 913.878 782.927 913.629 783.009C913.214 783.175 912.8 783.341 912.302 783.507C883.188 794.041 847.854 784.585 833.339 762.439L833.505 762.356Z" stroke="#003B2F" stroke-width="3" stroke-linecap="round" stroke-linejoin="round"/>
<path d="M892.147 724.366C886.506 720.468 881.115 723.62 875.807 728.845L868.507 722.79L864.858 727.186L872.074 733.158L869.171 736.725L861.789 730.67L858.222 735.149L865.438 741.121L863.116 744.024L858.139 750.079L862.784 753.978C862.784 753.978 865.438 750.66 865.438 750.826C865.687 750.494 865.936 750.162 866.268 749.913C866.6 749.664 867.014 749.498 867.346 749.416C867.761 749.416 868.176 749.416 868.59 749.416C869.005 749.498 869.337 749.664 869.669 749.913L877.797 756.798L889.326 766.419C889.326 766.419 889.658 766.834 889.824 767.083C889.907 767.332 889.99 767.58 889.99 767.829C889.99 768.078 889.99 768.327 889.824 768.576C889.741 768.825 889.575 769.073 889.409 769.239L886.672 772.474L891.151 777.7L895.879 771.976L898.533 768.825L905.915 774.88L909.565 770.483L902.515 764.594L905.501 761.111L912.8 767.166L916.449 762.77L909.15 756.715C914.873 749.001 917.362 742.282 910.892 735.813C910.063 734.734 908.984 733.822 907.823 733.158C906.662 732.495 905.335 732.08 903.925 731.997C902.598 731.914 901.188 731.997 899.943 732.495C898.699 732.91 897.455 733.656 896.46 734.569C896.957 732.661 896.791 730.67 896.045 728.845C895.298 727.021 893.888 725.528 892.23 724.615H891.981L892.147 724.366ZM902.598 743.692C908.155 748.254 899.695 757.129 897.206 760.033L887.502 751.987C889.99 749.001 896.957 738.799 902.598 743.692ZM887.253 734.32C892.23 738.467 885.096 745.849 883.106 748.337L874.231 740.872C876.47 738.467 882.193 729.924 887.336 734.32H887.253Z" fill="#003B2F"/>
<path d="M795.184 718.974C790.208 711.426 788.217 696.496 788.963 688.533C788.797 690.773 788.963 693.012 789.212 695.251C789.876 700.228 791.7 705.205 794.769 709.933C794.769 710.099 795.018 710.264 795.018 710.43C809.534 732.577 844.868 741.949 873.982 731.498C874.396 731.332 874.811 731.25 875.309 731.001C875.558 731.001 875.889 730.752 876.138 730.669H876.304C894.054 723.619 904.92 710.43 906.579 696.164C906.828 694.505 906.828 692.846 906.828 691.104C909.316 708.937 896.791 731.83 874.23 740.042C845.117 750.576 809.782 741.12 795.267 718.974H795.184Z" fill="#03FC9D"/>
<path d="M795.101 710.515C795.101 710.515 794.853 710.183 794.853 710.017C791.867 705.289 789.959 700.313 789.295 695.336C789.047 693.096 788.964 690.857 789.046 688.618V688.286C790.208 672.941 801.986 658.509 821.644 651.458C850.84 640.924 886.092 650.38 900.607 672.526C904.588 678.581 906.579 684.968 906.745 691.272C906.745 692.931 906.745 694.672 906.496 696.331C904.837 710.598 893.971 723.703 876.221 730.836H876.055C876.055 730.836 875.475 731.085 875.226 731.168C874.811 731.334 874.397 731.5 873.899 731.666C844.785 742.2 809.451 732.744 794.936 710.598L795.101 710.515Z" fill="#E6E8EA"/>
<path d="M794.687 718.808C789.71 711.26 787.719 696.33 788.466 688.367C788.3 690.606 788.466 692.846 788.715 695.085C789.378 700.062 791.203 705.039 794.272 709.767C794.272 709.933 794.521 710.098 794.521 710.264C809.036 732.411 844.37 741.783 873.484 731.332C873.899 731.166 874.313 731.083 874.811 730.835C875.06 730.835 875.392 730.586 875.641 730.503H875.806C893.557 723.453 904.422 710.264 906.081 695.998C906.33 694.339 906.33 692.68 906.33 690.938C908.818 708.771 896.294 731.664 873.733 739.876C844.619 750.41 809.285 740.954 794.77 718.808H794.687Z" stroke="#003B2F" stroke-width="3" stroke-linecap="round" stroke-linejoin="round"/>
<path d="M794.604 710.349C794.604 710.349 794.355 710.017 794.355 709.851C791.369 705.123 789.461 700.147 788.798 695.17C788.549 692.93 788.466 690.691 788.549 688.451V688.12C789.71 672.775 801.488 658.343 821.146 651.292C850.342 640.758 885.594 650.214 900.109 672.36C904.091 678.415 906.081 684.802 906.247 691.106C906.247 692.765 906.247 694.506 905.998 696.165C904.339 710.432 893.474 723.537 875.724 730.67H875.558C875.558 730.67 874.977 730.919 874.728 731.002C874.313 731.168 873.899 731.334 873.401 731.5C844.288 742.034 808.953 732.578 794.438 710.432L794.604 710.349Z" stroke="#003B2F" stroke-width="3" stroke-linecap="round" stroke-linejoin="round"/>
<path d="M849.928 665.226C844.536 660.996 838.979 663.733 833.339 668.544L826.537 662.074L822.556 666.221L829.357 672.691L826.206 676.092L819.238 669.539L815.34 673.769L822.141 680.239L819.653 682.976L814.261 688.699L818.658 692.929C818.658 692.929 821.478 689.778 821.478 689.943C821.727 689.612 822.058 689.363 822.39 689.114C822.722 688.865 823.137 688.782 823.551 688.699C823.966 688.699 824.381 688.699 824.713 688.782C825.127 688.865 825.459 689.114 825.791 689.363L833.422 696.745L844.287 707.113C844.287 707.113 844.619 707.528 844.702 707.777C844.785 708.025 844.868 708.274 844.868 708.523C844.868 708.772 844.868 709.021 844.702 709.27C844.619 709.518 844.453 709.767 844.204 709.933L841.301 712.919L845.449 718.393L850.591 713.002L853.411 710.099L860.379 716.652L864.277 712.504L857.642 706.118L860.793 702.8L867.595 709.27L871.576 705.122L864.692 698.57C870.913 691.271 873.816 684.718 867.844 677.834C867.097 676.672 866.102 675.76 864.941 675.013C863.779 674.267 862.535 673.769 861.208 673.603C859.881 673.437 858.471 673.437 857.144 673.852C855.817 674.184 854.573 674.848 853.577 675.677C854.158 673.852 854.158 671.779 853.577 669.954C852.997 668.129 851.67 666.553 850.011 665.475L849.762 665.309L849.928 665.226ZM859.052 685.216C864.277 690.109 855.236 698.404 852.582 701.224L843.458 692.515C846.112 689.695 853.743 679.99 859.135 685.216H859.052ZM844.37 674.848C849.015 679.327 841.467 686.211 839.228 688.533L830.85 680.405C833.256 678.165 839.56 670.037 844.37 674.765V674.848Z" fill="#003B2F"/>
<path d="M737.455 770.98C732.478 763.432 730.487 748.502 731.234 740.539C731.068 742.779 731.234 745.019 731.483 747.258C732.146 752.235 733.971 757.211 737.04 761.939C737.04 762.105 737.289 762.271 737.289 762.437C751.804 784.583 787.139 793.956 816.252 783.505C816.667 783.339 817.082 783.256 817.579 783.007C817.828 783.007 818.16 782.758 818.409 782.675H818.575C836.325 775.625 847.191 762.437 848.849 748.17C849.098 746.512 849.098 744.853 849.098 743.111C851.587 760.944 839.062 783.837 816.501 792.048C787.387 802.582 752.053 793.126 737.538 770.98H737.455Z" fill="#03FC9D"/>
<path d="M737.372 762.438C737.372 762.438 737.123 762.106 737.123 761.941C734.137 757.213 732.229 752.236 731.566 747.259C731.317 745.02 731.234 742.78 731.317 740.541V740.209C732.478 724.864 744.256 710.432 763.914 703.382C793.111 692.848 828.362 702.303 842.877 724.45C846.859 730.505 848.849 736.891 849.015 743.195C849.015 744.854 849.015 746.596 848.766 748.255C847.108 762.521 836.242 775.626 818.492 782.76H818.326C818.326 782.76 817.745 783.009 817.496 783.091C817.082 783.257 816.667 783.423 816.169 783.589C787.056 794.123 751.721 784.667 737.206 762.521L737.372 762.438Z" fill="#E6E8EA"/>
<path d="M737.04 770.816C732.063 763.268 730.073 748.338 730.819 740.375C730.653 742.615 730.819 744.854 731.068 747.094C731.732 752.071 733.556 757.047 736.625 761.775C736.625 761.941 736.874 762.107 736.874 762.273C751.39 784.419 786.724 793.792 815.837 783.341C816.252 783.175 816.667 783.092 817.165 782.843C817.413 782.843 817.745 782.594 817.994 782.511H818.16C835.91 775.461 846.776 762.273 848.435 748.006C848.684 746.347 848.684 744.688 848.684 742.947C851.172 760.78 838.647 783.672 816.086 791.884C786.973 802.418 751.638 792.962 737.123 770.816H737.04Z" stroke="#003B2F" stroke-width="3" stroke-linecap="round" stroke-linejoin="round"/>
<path d="M736.957 762.356C736.957 762.356 736.708 762.024 736.708 761.859C733.722 757.131 731.815 752.154 731.151 747.177C730.902 744.938 730.819 742.698 730.902 740.459V740.127C732.063 724.782 743.842 710.35 763.499 703.3C792.696 692.766 827.947 702.221 842.463 724.368C846.444 730.423 848.435 736.809 848.601 743.113C848.601 744.772 848.601 746.514 848.352 748.173C846.693 762.439 835.827 775.544 818.077 782.678H817.911C817.911 782.678 817.331 782.927 817.082 783.009C816.667 783.175 816.252 783.341 815.755 783.507C786.641 794.041 751.307 784.585 736.791 762.439L736.957 762.356Z" stroke="#003B2F" stroke-width="3" stroke-linecap="round" stroke-linejoin="round"/>
<path d="M812.52 734.735C813.598 728.016 808.455 724.449 801.488 721.878L803.81 712.754L798.253 711.344L796.014 720.468L791.535 719.39L793.857 710.1L788.3 708.773L785.977 717.897L782.411 717.067L774.78 715.16L773.287 721.049C773.287 721.049 777.434 721.961 777.268 722.044C777.683 722.044 778.098 722.21 778.429 722.459C778.761 722.625 779.093 722.957 779.342 723.288C779.591 723.62 779.756 723.952 779.839 724.367C779.922 724.781 779.922 725.196 779.839 725.611L777.185 735.896L773.453 750.411C773.453 750.411 773.287 750.909 773.121 751.158C772.955 751.407 772.706 751.572 772.54 751.655C772.291 751.821 772.043 751.821 771.794 751.904C771.545 751.904 771.296 751.904 770.964 751.821L766.9 750.743L764.163 757.047L771.379 758.872L775.36 759.95L773.038 769.24L778.595 770.567L780.918 761.692L785.314 762.853L782.991 771.977L788.549 773.387L790.954 764.18C800.41 766.005 807.543 765.341 810.612 756.798C811.193 755.554 811.607 754.227 811.69 752.9C811.69 751.572 811.524 750.162 811.11 748.918C810.612 747.674 809.865 746.513 808.953 745.517C808.041 744.522 806.879 743.776 805.635 743.278C807.543 742.863 809.285 741.868 810.612 740.458C811.939 738.965 812.686 737.14 812.768 735.149V734.901L812.52 734.735ZM799.58 752.485C797.838 759.452 786.226 755.637 782.494 754.641L785.563 742.366C789.295 743.278 801.488 745.269 799.58 752.402V752.485ZM801.405 734.569C799.746 740.873 790.125 737.638 786.973 736.808L789.876 725.528C793.028 726.523 803.147 728.016 801.488 734.569H801.405Z" fill="#003B2F"/>
<path d="M865.936 718.892C860.959 711.344 858.969 696.414 859.715 688.451C859.549 690.69 859.715 692.93 859.964 695.17C860.628 700.146 862.452 705.123 865.521 709.851C865.521 710.017 865.77 710.182 865.77 710.348C880.285 732.495 915.62 741.867 944.733 731.416C945.148 731.25 945.563 731.167 946.061 730.919C946.309 730.919 946.641 730.67 946.89 730.587H947.056C964.806 723.537 975.672 710.348 977.331 696.082C977.58 694.423 977.58 692.764 977.58 691.022C980.068 708.855 967.543 731.748 944.982 739.96C915.869 750.494 880.534 741.038 866.019 718.892H865.936Z" fill="#03FC9D"/>
<path d="M865.853 710.433C865.853 710.433 865.604 710.101 865.604 709.935C862.618 705.207 860.711 700.231 860.047 695.254C859.798 693.014 859.715 690.775 859.798 688.535V688.204C860.959 672.859 872.738 658.427 892.395 651.376C921.592 640.842 956.843 650.298 971.359 672.444C975.34 678.499 977.331 684.886 977.497 691.19C977.497 692.849 977.497 694.59 977.248 696.249C975.589 710.516 964.723 723.621 946.973 730.754H946.807C946.807 730.754 946.227 731.003 945.978 731.086C945.563 731.252 945.148 731.418 944.651 731.584C915.537 742.118 880.203 732.662 865.687 710.516L865.853 710.433Z" fill="#E6E8EA"/>
<path d="M942.411 694.756C946.558 689.364 943.738 683.724 938.844 678.167L945.231 671.199L941.001 667.301L934.697 674.185L931.296 671.116L937.766 664.066L933.536 660.251L927.149 667.135L924.412 664.647L918.606 659.338L914.459 663.734C914.459 663.734 917.611 666.554 917.528 666.554C917.859 666.803 918.108 667.052 918.357 667.467C918.606 667.799 918.689 668.213 918.772 668.628C918.772 669.043 918.772 669.458 918.772 669.872C918.689 670.287 918.523 670.619 918.274 670.951L910.975 678.747L900.773 689.779C900.773 689.779 900.358 690.111 900.109 690.194C899.86 690.277 899.612 690.36 899.363 690.36C899.114 690.36 898.865 690.36 898.616 690.194C898.367 690.028 898.119 689.945 897.953 689.696L894.884 686.793L889.409 691.023L894.884 696.083L897.87 698.903L891.4 705.953L895.63 709.769L901.934 703.05L905.252 706.202L898.865 713.169L903.095 717.068L909.565 710.1C917.03 716.238 923.583 719.058 930.384 713.003C931.462 712.257 932.458 711.262 933.204 710.1C933.951 708.939 934.365 707.612 934.531 706.285C934.697 704.958 934.614 703.548 934.282 702.304C933.951 700.976 933.287 699.815 932.375 698.737C934.282 699.318 936.273 699.318 938.098 698.571C939.923 697.908 941.499 696.58 942.577 694.922V694.673L942.411 694.756ZM922.587 704.211C917.776 709.52 909.399 700.562 906.496 697.991L915.039 688.701C917.859 691.355 927.647 698.82 922.504 704.211H922.587ZM932.789 689.364C928.393 694.092 921.426 686.627 919.021 684.471L926.983 676.01C929.223 678.416 937.434 684.553 932.872 689.447H932.789V689.364Z" fill="#003B2F"/>
<path d="M865.521 718.808C860.545 711.26 858.554 696.33 859.301 688.367C859.135 690.606 859.3 692.846 859.549 695.085C860.213 700.062 862.038 705.039 865.107 709.767C865.107 709.933 865.355 710.098 865.355 710.264C879.871 732.411 915.205 741.783 944.319 731.332C944.733 731.166 945.148 731.083 945.646 730.835C945.895 730.835 946.227 730.586 946.475 730.503H946.641C964.391 723.453 975.257 710.264 976.916 695.998C977.165 694.339 977.165 692.68 977.165 690.938C979.653 708.771 967.129 731.664 944.568 739.876C915.454 750.41 880.12 740.954 865.604 718.808H865.521Z" stroke="#003B2F" stroke-width="3" stroke-linecap="round" stroke-linejoin="round"/>
<path d="M865.438 710.267C865.438 710.267 865.189 709.935 865.189 709.769C862.203 705.041 860.296 700.065 859.632 695.088C859.383 692.848 859.3 690.609 859.383 688.369V688.038C860.545 672.693 872.323 658.261 891.981 651.21C921.177 640.676 956.429 650.132 970.944 672.278C974.925 678.333 976.916 684.72 977.082 691.024C977.082 692.683 977.082 694.424 976.833 696.083C975.174 710.35 964.308 723.455 946.558 730.588H946.392C946.392 730.588 945.812 730.837 945.563 730.92C945.148 731.086 944.733 731.252 944.236 731.418C915.122 741.952 879.788 732.496 865.272 710.35L865.438 710.267Z" stroke="#003B2F" stroke-width="3" stroke-linecap="round" stroke-linejoin="round"/>
<path d="M475.562 381.127L457.673 363.238L439.785 381.127L457.673 399.015L475.562 381.127Z" stroke="#003B2F" stroke-width="3" stroke-linecap="round" stroke-linejoin="round"/>
<path d="M1267.55 313.708C1277.22 313.708 1285.06 305.872 1285.06 296.206C1285.06 286.54 1277.22 278.705 1267.55 278.705C1257.89 278.705 1250.05 286.54 1250.05 296.206C1250.05 305.872 1257.89 313.708 1267.55 313.708Z" stroke="#003B2F" stroke-width="3" stroke-linecap="round" stroke-linejoin="round"/>
<path d="M407.169 620.271H367.024C379.715 620.271 390 610.898 390 599.369C390 587.84 379.715 578.467 367.024 578.467H251.731C239.041 578.467 228.756 587.84 228.756 599.369H193.421C180.731 599.369 170.445 608.742 170.445 620.271C170.445 631.8 180.731 641.173 193.421 641.173H268.901C268.901 652.702 279.186 662.075 291.876 662.075H407.169C419.86 662.075 430.145 652.702 430.145 641.173C430.145 629.644 419.86 620.271 407.169 620.271Z" fill="#E6E8EA"/>
<path d="M322.483 280.614H296.936C304.982 280.614 311.617 274.062 311.617 265.933C311.617 257.804 305.065 251.252 296.936 251.252H223.53C215.484 251.252 208.849 257.804 208.849 265.933H186.288C178.242 265.933 171.607 272.486 171.607 280.614C171.607 288.743 178.159 295.295 186.288 295.295H234.396C234.396 303.341 240.948 309.977 249.077 309.977H322.483C330.529 309.977 337.164 303.424 337.164 295.295C337.164 287.167 330.612 280.614 322.483 280.614Z" fill="#E6E8EA"/>
<path d="M205.365 81.7949L226.184 93.8219" stroke="#003B2F" stroke-width="3" stroke-linecap="round" stroke-linejoin="round"/>
<path d="M247.086 81.7949L234.81 88.8452" stroke="#003B2F" stroke-width="3" stroke-linecap="round" stroke-linejoin="round"/>
<path d="M226.184 93.8223V118.125" stroke="#003B2F" stroke-width="3" stroke-linecap="round" stroke-linejoin="round"/>
<path d="M1473.92 524.719H1532.15" stroke="#003B2F" stroke-width="3" stroke-linecap="round" stroke-linejoin="round"/>
<path d="M1429.71 524.719H1444.39" stroke="#003B2F" stroke-width="3" stroke-linecap="round" stroke-linejoin="round"/>
<path d="M1328.93 669.705H1357.71" stroke="#003B2F" stroke-width="3" stroke-linecap="round" stroke-linejoin="round"/>
<path d="M1208.58 605.258H1416.77" stroke="#03FC9D" stroke-width="3" stroke-linecap="round" stroke-linejoin="round"/>
<path d="M1394.87 669.621H1511.25" stroke="#003B2F" stroke-width="3" stroke-linecap="round" stroke-linejoin="round"/>
<path d="M337.164 605.424H365.946" stroke="#003B2F" stroke-width="3" stroke-linecap="round" stroke-linejoin="round"/>
<path d="M295.609 528.865H503.8" stroke="#03FC9D" stroke-width="3" stroke-linecap="round" stroke-linejoin="round"/>
<path d="M403.022 605.258H519.476" stroke="#003B2F" stroke-width="3" stroke-linecap="round" stroke-linejoin="round"/>
<path d="M1245.99 145.33H1362.44" stroke="#003B2F" stroke-width="3" stroke-linecap="round" stroke-linejoin="round"/>
<path d="M205.365 151.137H356.241" stroke="#03FC9D" stroke-width="3" stroke-linecap="round" stroke-linejoin="round"/>
<path d="M323.395 184.396H439.767" stroke="#003B2F" stroke-width="3" stroke-linecap="round" stroke-linejoin="round"/>
<path d="M1343.78 471.303L1357.55 485.072" stroke="#003B2F" stroke-width="3" stroke-linecap="round" stroke-linejoin="round"/>
<path d="M1367.59 495.107L1381.35 508.875" stroke="#003B2F" stroke-width="3" stroke-linecap="round" stroke-linejoin="round"/>
<path d="M1343.78 508.875L1357.55 495.107" stroke="#003B2F" stroke-width="3" stroke-linecap="round" stroke-linejoin="round"/>
<path d="M1367.59 485.072L1381.35 471.303" stroke="#003B2F" stroke-width="3" stroke-linecap="round" stroke-linejoin="round"/>
<path d="M613.287 60.5605V79.9695" stroke="#003B2F" stroke-width="3" stroke-linecap="round" stroke-linejoin="round"/>
<path d="M613.287 94.2363V113.646" stroke="#003B2F" stroke-width="3" stroke-linecap="round" stroke-linejoin="round"/>
<path d="M586.744 87.1016H606.236" stroke="#003B2F" stroke-width="3" stroke-linecap="round" stroke-linejoin="round"/>
<path d="M620.42 87.1016H639.829" stroke="#003B2F" stroke-width="3" stroke-linecap="round" stroke-linejoin="round"/>
<path d="M1410.47 172.368L1427.8 162.332" stroke="#003B2F" stroke-width="3" stroke-linecap="round" stroke-linejoin="round"/>
<path d="M1445.22 172.369L1435.02 166.48" stroke="#003B2F" stroke-width="3" stroke-linecap="round" stroke-linejoin="round"/>
<path d="M1427.8 162.334V142.096" stroke="#003B2F" stroke-width="3" stroke-linecap="round" stroke-linejoin="round"/>
<path d="M1281.24 385.124H1403.75C1417.22 385.124 1428.13 374.206 1428.13 360.739V360.656C1428.13 347.188 1417.22 336.27 1403.75 336.27H1281.24C1267.77 336.27 1256.85 347.188 1256.85 360.656V360.739C1256.85 374.206 1267.77 385.124 1281.24 385.124Z" fill="#03FC9D"/>
<path d="M1347.68 347.634H1548.24C1570.32 347.634 1588.22 329.735 1588.22 307.655C1588.22 285.575 1570.32 267.676 1548.24 267.676H1347.68C1325.6 267.676 1307.7 285.575 1307.7 307.655C1307.7 329.735 1325.6 347.634 1347.68 347.634Z" fill="#03FC9D"/>
<path d="M120.015 329.881H247.667C261.73 329.881 273.131 318.481 273.131 304.417C273.131 290.354 261.73 278.953 247.667 278.953H120.015C105.952 278.953 94.5511 290.354 94.5511 304.417C94.5511 318.481 105.952 329.881 120.015 329.881Z" fill="#03FC9D"/>
<path d="M971 133.291C971.072 133.364 971.197 133.431 971.207 133.511C971.296 134.293 971.785 134.818 972.378 135.238C977.83 139.093 983.282 142.946 988.753 146.773C990.075 147.698 991.123 147.644 992.427 146.728C995.407 144.633 998.384 142.535 1001.36 140.432C1003.04 139.239 1004.27 137.688 1004.92 135.725C1005.14 135.039 1005.23 134.309 1005.32 133.862C1005.32 135.572 1005.45 137.556 1005.29 139.516C1005.09 141.933 1003.87 143.926 1001.93 145.361C998.688 147.751 995.384 150.057 992.078 152.357C991.003 153.106 989.864 152.91 988.811 152.226C987.731 151.525 986.66 150.809 985.61 150.064C981.257 146.98 976.916 143.881 972.567 140.792C971.822 140.263 971.233 139.638 971.101 138.692C971.104 137.155 971.109 135.618 971.105 134.081C971.105 133.964 971.037 133.848 971 133.731C971 133.584 971 133.438 971 133.291Z" fill="#003C2E"/>
<path fill-rule="evenodd" clip-rule="evenodd" d="M970.849 132.92C970.999 132.859 971.172 132.895 971.286 133.011C971.286 133.011 971.286 133.011 971.286 133.011C971.286 133.011 971.288 133.012 971.292 133.016C971.297 133.021 971.304 133.026 971.313 133.034C971.316 133.036 971.32 133.039 971.324 133.043C971.341 133.056 971.367 133.077 971.388 133.096C971.417 133.12 971.46 133.16 971.499 133.211C971.538 133.263 971.591 133.349 971.604 133.465C971.675 134.082 972.055 134.519 972.609 134.911C978.061 138.766 983.513 142.619 988.983 146.445C989.601 146.878 990.111 147.051 990.588 147.041C991.069 147.031 991.58 146.834 992.197 146.4C995.177 144.306 998.154 142.208 1001.13 140.105C1002.75 138.956 1003.92 137.473 1004.54 135.6C1004.69 135.137 1004.77 134.673 1004.84 134.264C1004.87 134.091 1004.9 133.928 1004.93 133.779C1004.97 133.578 1005.16 133.442 1005.36 133.463C1005.57 133.485 1005.72 133.656 1005.72 133.861C1005.72 134.354 1005.73 134.878 1005.74 135.422C1005.77 136.727 1005.8 138.15 1005.69 139.548C1005.48 142.092 1004.19 144.186 1002.17 145.682C998.921 148.076 995.612 150.385 992.307 152.685C991.696 153.111 991.051 153.275 990.407 153.227C989.77 153.18 989.158 152.928 988.594 152.561C987.511 151.858 986.435 151.139 985.378 150.39C982.798 148.562 980.221 146.728 977.645 144.894C975.875 143.635 974.106 142.375 972.335 141.118C971.553 140.563 970.86 139.852 970.705 138.747C970.702 138.728 970.701 138.709 970.701 138.691C970.701 138.383 970.702 138.075 970.703 137.768C970.706 136.54 970.709 135.314 970.705 134.088C970.705 134.084 970.701 134.071 970.692 134.045C970.686 134.029 970.68 134.014 970.672 133.995C970.668 133.986 970.665 133.977 970.66 133.966C970.648 133.935 970.632 133.894 970.619 133.851C970.606 133.812 970.6 133.771 970.6 133.731V133.291C970.6 133.128 970.698 132.982 970.849 132.92ZM992.427 146.727C991.123 147.644 990.075 147.698 988.754 146.773C983.282 142.946 977.83 139.092 972.379 135.237C972.033 134.992 971.722 134.713 971.506 134.367C971.449 134.276 971.399 134.18 971.356 134.08C971.356 134.08 971.356 134.08 971.356 134.08C971.309 133.97 971.271 133.854 971.244 133.731C971.238 133.707 971.233 133.683 971.229 133.659C971.22 133.61 971.212 133.561 971.207 133.511C971.2 133.456 971.14 133.408 971.079 133.359C971.051 133.336 971.023 133.314 971 133.291V133.731C971.012 133.768 971.027 133.804 971.041 133.841C971.073 133.921 971.105 134.001 971.105 134.08C971.106 134.213 971.106 134.345 971.106 134.477C971.108 135.575 971.106 136.672 971.103 137.769C971.102 138.077 971.101 138.384 971.101 138.691C971.233 139.637 971.822 140.263 972.567 140.792C974.338 142.05 976.108 143.309 977.878 144.569C980.454 146.402 983.03 148.236 985.61 150.064C986.66 150.808 987.731 151.524 988.811 152.226C989.864 152.909 991.003 153.105 992.078 152.357C995.384 150.056 998.688 147.751 1001.93 145.36C1003.87 143.925 1005.09 141.932 1005.29 139.516C1005.39 138.219 1005.37 136.911 1005.35 135.68C1005.35 135.604 1005.35 135.529 1005.34 135.454C1005.33 134.904 1005.32 134.371 1005.32 133.861C1005.29 133.988 1005.27 134.137 1005.24 134.301C1005.17 134.69 1005.09 135.164 1004.95 135.626C1004.94 135.659 1004.93 135.691 1004.92 135.724C1004.27 137.688 1003.04 139.238 1001.36 140.431C998.384 142.535 995.407 144.633 992.427 146.727Z" fill="#003C2E"/>
<mask id="path-74-outside-1_156_320" maskUnits="userSpaceOnUse" x="977.974" y="126" width="22" height="10" fill="black">
<rect fill="white" x="977.974" y="126" width="22" height="10"/>
<path d="M978.974 132.718C979.067 132.613 979.115 132.531 979.186 132.481C980.921 131.271 982.626 130.014 984.405 128.872C986.246 127.69 988.279 126.997 990.504 127C992.577 127.003 994.458 127.66 996.163 128.794C996.988 129.342 997.785 129.947 998.517 130.611C999.699 131.686 999.821 133.599 998.881 134.885C998.671 135.173 998.452 135.191 998.176 135.008C997.793 134.753 997.413 134.493 997.023 134.249C993.087 131.783 989.151 131.81 985.216 134.252C984.591 134.641 983.972 135.039 983.335 135.407C983.207 135.481 982.962 135.51 982.853 135.438C981.625 134.627 980.413 133.793 979.198 132.961C979.126 132.911 979.075 132.829 978.974 132.718Z"/>
</mask>
<path d="M978.974 132.718C979.067 132.613 979.115 132.531 979.186 132.481C980.921 131.271 982.626 130.014 984.405 128.872C986.246 127.69 988.279 126.997 990.504 127C992.577 127.003 994.458 127.66 996.163 128.794C996.988 129.342 997.785 129.947 998.517 130.611C999.699 131.686 999.821 133.599 998.881 134.885C998.671 135.173 998.452 135.191 998.176 135.008C997.793 134.753 997.413 134.493 997.023 134.249C993.087 131.783 989.151 131.81 985.216 134.252C984.591 134.641 983.972 135.039 983.335 135.407C983.207 135.481 982.962 135.51 982.853 135.438C981.625 134.627 980.413 133.793 979.198 132.961C979.126 132.911 979.075 132.829 978.974 132.718Z" fill="#003C2E"/>
<path d="M978.974 132.718C979.067 132.613 979.115 132.531 979.186 132.481C980.921 131.271 982.626 130.014 984.405 128.872C986.246 127.69 988.279 126.997 990.504 127C992.577 127.003 994.458 127.66 996.163 128.794C996.988 129.342 997.785 129.947 998.517 130.611C999.699 131.686 999.821 133.599 998.881 134.885C998.671 135.173 998.452 135.191 998.176 135.008C997.793 134.753 997.413 134.493 997.023 134.249C993.087 131.783 989.151 131.81 985.216 134.252C984.591 134.641 983.972 135.039 983.335 135.407C983.207 135.481 982.962 135.51 982.853 135.438C981.625 134.627 980.413 133.793 979.198 132.961C979.126 132.911 979.075 132.829 978.974 132.718Z" stroke="#003C2E" stroke-width="0.8" stroke-linejoin="round" mask="url(#path-74-outside-1_156_320)"/>
<mask id="path-75-outside-2_156_320" maskUnits="userSpaceOnUse" x="970" y="144" width="36" height="21" fill="black">
<rect fill="white" x="970" y="144" width="36" height="21"/>
<path d="M971 145C971.069 145.046 971.192 145.086 971.198 145.139C971.293 146.01 971.879 146.536 972.528 147.008C975.027 148.826 977.512 150.661 980.038 152.44C982.835 154.41 985.668 156.328 988.49 158.262C990.107 159.37 991.004 159.375 992.619 158.246C995.483 156.244 998.329 154.216 1001.19 152.211C1002.9 151.016 1004.19 149.5 1004.86 147.522C1005.11 146.788 1005.21 146.005 1005.48 145.242C1005.41 147.37 1005.47 149.514 1005.22 151.622C1004.95 153.88 1003.71 155.725 1001.88 157.067C998.666 159.428 995.39 161.71 992.119 163.996C990.973 164.798 989.804 164.56 988.711 163.832C987.287 162.884 985.866 161.93 984.472 160.941C980.452 158.089 976.447 155.217 972.435 152.353C971.718 151.842 971.206 151.199 971.095 150.298C971.099 148.74 971.106 147.183 971.104 145.626C971.104 145.527 971.036 145.429 971 145.33C971 145.22 971 145.11 971 145Z"/>
</mask>
<path d="M971 145C971.069 145.046 971.192 145.086 971.198 145.139C971.293 146.01 971.879 146.536 972.528 147.008C975.027 148.826 977.512 150.661 980.038 152.44C982.835 154.41 985.668 156.328 988.49 158.262C990.107 159.37 991.004 159.375 992.619 158.246C995.483 156.244 998.329 154.216 1001.19 152.211C1002.9 151.016 1004.19 149.5 1004.86 147.522C1005.11 146.788 1005.21 146.005 1005.48 145.242C1005.41 147.37 1005.47 149.514 1005.22 151.622C1004.95 153.88 1003.71 155.725 1001.88 157.067C998.666 159.428 995.39 161.71 992.119 163.996C990.973 164.798 989.804 164.56 988.711 163.832C987.287 162.884 985.866 161.93 984.472 160.941C980.452 158.089 976.447 155.217 972.435 152.353C971.718 151.842 971.206 151.199 971.095 150.298C971.099 148.74 971.106 147.183 971.104 145.626C971.104 145.527 971.036 145.429 971 145.33C971 145.22 971 145.11 971 145Z" fill="#003C2E"/>
<path d="M971 145C971.069 145.046 971.192 145.086 971.198 145.139C971.293 146.01 971.879 146.536 972.528 147.008C975.027 148.826 977.512 150.661 980.038 152.44C982.835 154.41 985.668 156.328 988.49 158.262C990.107 159.37 991.004 159.375 992.619 158.246C995.483 156.244 998.329 154.216 1001.19 152.211C1002.9 151.016 1004.19 149.5 1004.86 147.522C1005.11 146.788 1005.21 146.005 1005.48 145.242C1005.41 147.37 1005.47 149.514 1005.22 151.622C1004.95 153.88 1003.71 155.725 1001.88 157.067C998.666 159.428 995.39 161.71 992.119 163.996C990.973 164.798 989.804 164.56 988.711 163.832C987.287 162.884 985.866 161.93 984.472 160.941C980.452 158.089 976.447 155.217 972.435 152.353C971.718 151.842 971.206 151.199 971.095 150.298C971.099 148.74 971.106 147.183 971.104 145.626C971.104 145.527 971.036 145.429 971 145.33C971 145.22 971 145.11 971 145Z" stroke="#003C2E" stroke-width="0.8" stroke-linejoin="round" mask="url(#path-75-outside-2_156_320)"/>
</svg>
