<svg width="192" height="108" viewBox="0 0 192 108" fill="none" xmlns="http://www.w3.org/2000/svg">
<g clip-path="url(#clip0_156_799)">
<path d="M128.73 8.83008L111.21 18.9401L128.73 29.0501L146.26 18.9401L128.73 8.83008Z" fill="#00FF94"/>
<path d="M125.2 14.9199L122.16 16.6999L132.27 22.9699L135.31 21.1899L125.2 14.9199Z" fill="#003D2E"/>
<path d="M128.73 29.0495V49.2695L146.26 39.1595V18.9395L128.73 29.0495Z" fill="#00FF94"/>
<path d="M128.73 29.0495V49.2695L111.21 39.1595V18.9395L128.73 29.0495Z" fill="#00FF94"/>
<path d="M149.49 17.0794L128.73 5.10938L107.98 17.0794V34.0094" stroke="#003D2E" stroke-width="0.4395" stroke-miterlimit="10" stroke-linecap="round" stroke-linejoin="round"/>
<path d="M149.49 41.0196L128.73 52.9996L107.98 41.0196V24.0996" stroke="#003D2E" stroke-width="0.4395" stroke-miterlimit="10" stroke-linecap="round" stroke-linejoin="round"/>
<path d="M143.66 44.3788L128.73 52.9988V29.0488" stroke="#003D2E" stroke-width="0.4395" stroke-miterlimit="10" stroke-linecap="round" stroke-linejoin="round"/>
<path d="M128.73 29.0501L149.49 17.0801V34.0101" stroke="#003D2E" stroke-width="0.4395" stroke-miterlimit="10" stroke-linecap="round" stroke-linejoin="round"/>
<path d="M128.73 29.0501L107.98 17.0801" stroke="#003D2E" stroke-width="0.4395" stroke-miterlimit="10" stroke-linecap="round" stroke-linejoin="round"/>
<path d="M135.05 19.1907C134.26 20.0207 132.39 20.6607 131.31 20.7407C131.61 20.7107 131.9 20.6407 132.18 20.5407C132.8 20.3307 133.38 19.9707 133.89 19.4607C133.91 19.4407 133.93 19.4207 133.94 19.4107C136.27 16.9707 136.13 12.1107 133.62 8.54068C133.58 8.49068 133.54 8.44068 133.51 8.39068C133.49 8.36068 133.46 8.32068 133.43 8.29068C133.43 8.28068 133.42 8.28068 133.42 8.28068C131.81 6.13068 129.67 5.02068 127.74 5.15068C127.52 5.16068 127.29 5.20068 127.08 5.24068C129.32 4.48068 132.79 5.56068 134.73 8.33068C137.24 11.8907 137.38 16.7607 135.05 19.1907Z" fill="#00FF94"/>
<path d="M133.94 19.4111C133.92 19.4311 133.9 19.4511 133.89 19.4611C133.38 19.9811 132.8 20.3411 132.18 20.5411C131.9 20.6311 131.61 20.7011 131.31 20.7411C131.3 20.7411 131.28 20.7411 131.26 20.7411C129.21 20.9611 126.87 19.7711 125.18 17.3611C122.68 13.7911 122.53 8.93111 124.86 6.49111C125.5 5.82111 126.25 5.41111 127.07 5.23111C127.29 5.18111 127.51 5.15111 127.73 5.14111C129.66 5.01111 131.8 6.12111 133.41 8.27111C133.41 8.28111 133.42 8.28111 133.42 8.28111C133.44 8.31111 133.47 8.35111 133.5 8.38111C133.54 8.43111 133.58 8.48111 133.61 8.53111C136.13 12.1111 136.27 16.9711 133.94 19.4111Z" fill="#E3E7E3"/>
<path d="M135.05 19.2512C134.26 20.0812 132.39 20.7212 131.31 20.8012C131.61 20.7712 131.9 20.7012 132.18 20.6012C132.8 20.3912 133.38 20.0312 133.89 19.5212C133.91 19.5012 133.93 19.4812 133.94 19.4712C136.27 17.0312 136.13 12.1712 133.62 8.60123C133.58 8.55123 133.54 8.50123 133.51 8.45123C133.49 8.42123 133.46 8.38123 133.43 8.35123C133.43 8.34123 133.42 8.34123 133.42 8.34123C131.81 6.19123 129.67 5.08123 127.74 5.21123C127.52 5.22123 127.29 5.26123 127.08 5.30123C129.32 4.54123 132.79 5.62123 134.73 8.39123C137.23 11.9512 137.38 16.8212 135.05 19.2512Z" stroke="#003C2E" stroke-width="0.4395" stroke-miterlimit="10" stroke-linecap="round" stroke-linejoin="round"/>
<path d="M133.94 19.4717C133.92 19.4917 133.9 19.5117 133.89 19.5217C133.38 20.0417 132.8 20.4017 132.18 20.6017C131.9 20.6917 131.61 20.7617 131.31 20.8017C131.3 20.8017 131.28 20.8017 131.26 20.8017C129.21 21.0217 126.87 19.8317 125.18 17.4217C122.68 13.8517 122.53 8.99166 124.86 6.55166C125.5 5.88166 126.25 5.47166 127.07 5.29166C127.29 5.24166 127.51 5.21166 127.73 5.20166C129.66 5.07166 131.8 6.18166 133.41 8.33166C133.41 8.34166 133.42 8.34166 133.42 8.34166C133.44 8.37166 133.47 8.41166 133.5 8.44166C133.54 8.49166 133.58 8.54166 133.61 8.59166C136.13 12.1717 136.27 17.0317 133.94 19.4717Z" stroke="#003C2E" stroke-width="0.4395" stroke-miterlimit="10" stroke-linecap="round" stroke-linejoin="round"/>
<path d="M96.4598 41.1602L83.2898 49.2002C81.1498 47.0502 77.4598 47.0102 73.8798 49.6502C70.1498 52.3902 67.7398 57.3602 68.1498 61.4502C68.6898 66.8302 73.5498 68.7102 78.4498 65.7202C81.8098 63.6702 84.2498 59.9002 84.9298 56.2202L85.1298 54.7202L86.2798 55.7002C86.3898 55.7902 86.5898 55.6702 86.6398 55.4802L87.1398 53.5002L88.1998 52.8502L89.3498 53.8202C89.4598 53.9102 89.6598 53.7902 89.7098 53.6002L90.1998 51.6202L91.2598 50.9702L92.4098 51.9502C92.5198 52.0402 92.7198 51.9202 92.7698 51.7302L93.2698 49.7502L94.3298 49.1002L95.4798 50.0802C95.5898 50.1702 95.7898 50.0502 95.8398 49.8602L96.3398 47.8802L100.6 45.3502L100.14 43.2802L96.4598 41.1602ZM74.8998 60.3002C73.7498 61.0002 72.6198 60.6402 72.3598 59.4802C72.1098 58.3302 72.8298 56.8302 73.9798 56.1302C75.1298 55.4302 76.2598 55.7902 76.5198 56.9502C76.7698 58.1002 76.0398 59.6002 74.8998 60.3002ZM96.0198 43.4602L83.7398 50.9602L83.6298 50.4502L95.9098 42.9502L96.0198 43.4602Z" fill="#00FF94"/>
<path d="M96.7996 42.7109L83.6296 50.7609C81.4896 48.6109 77.7996 48.5709 74.2196 51.2109C70.4896 53.9509 68.0796 58.9209 68.4896 63.0109C69.0296 68.3909 73.8896 70.2709 78.7896 67.2809C82.1496 65.2309 84.5896 61.4609 85.2696 57.7809L85.4696 56.2809L86.6196 57.2609C86.7296 57.3509 86.9296 57.2309 86.9796 57.0409L87.4796 55.0609L88.5396 54.4109L89.6896 55.3809C89.7996 55.4709 89.9996 55.3509 90.0496 55.1609L90.5396 53.1809L91.5996 52.5309L92.7496 53.5109C92.8596 53.6009 93.0596 53.4809 93.1096 53.2909L93.6096 51.3109L94.6696 50.6609L95.8196 51.6409C95.9296 51.7309 96.1296 51.6109 96.1796 51.4209L96.6796 49.4409L100.94 46.9109L100.48 44.8409L96.7996 42.7109ZM75.2396 61.8509C74.0896 62.5509 72.9596 62.1909 72.6996 61.0309C72.4496 59.8809 73.1696 58.3809 74.3196 57.6809C75.4696 56.9809 76.5996 57.3409 76.8596 58.5009C77.1096 59.6509 76.3896 61.1509 75.2396 61.8509Z" stroke="#003D2E" stroke-width="0.4395" stroke-miterlimit="10" stroke-linecap="round" stroke-linejoin="round"/>
<path d="M84.02 52.25L96.3 44.75" stroke="#003D2E" stroke-width="0.4395" stroke-miterlimit="10" stroke-linecap="round" stroke-linejoin="round"/>
<circle cx="58.9302" cy="71.7393" r="0.21975" fill="#003D2E"/>
<path d="M60.1104 71.0493L61.8703 70.0293" stroke="#003D2E" stroke-width="0.4395" stroke-linecap="round" stroke-linejoin="round"/>
<path d="M62.4502 69.6902L65.3902 67.9902" stroke="#003D2E" stroke-width="0.4395" stroke-linecap="round" stroke-linejoin="round"/>
<circle cx="65.9702" cy="67.6494" r="0.21975" fill="#003D2E"/>
<circle cx="103.02" cy="43.8897" r="0.21975" fill="#003D2E"/>
<path d="M104.75 42.8809L107.34 41.3809" stroke="#003D2E" stroke-width="0.4395" stroke-linecap="round" stroke-linejoin="round"/>
<path d="M108.21 40.8813L110.51 39.5413L117.72 35.3613" stroke="#003D2E" stroke-width="0.4395" stroke-linecap="round" stroke-linejoin="round"/>
<circle cx="118.59" cy="34.8604" r="0.21975" fill="#003D2E"/>
<path d="M36.8701 58.8398L19.3501 68.9498L36.8701 79.0598L54.4001 68.9498L36.8701 58.8398Z" fill="#00FF94"/>
<path d="M33.3403 64.9199L30.3003 66.6999L40.4103 72.9799L43.4503 71.1999L33.3403 64.9199Z" fill="#003D2E"/>
<path d="M36.8701 79.0592V99.2692L54.4001 89.1692V68.9492L36.8701 79.0592Z" fill="#00FF94"/>
<path d="M36.8701 79.0592V99.2692L19.3501 89.1692V68.9492L36.8701 79.0592Z" fill="#00FF94"/>
<path d="M57.6301 67.0794L36.8701 55.1094L16.1201 67.0794V84.0094" stroke="#003D2E" stroke-width="0.4395" stroke-miterlimit="10" stroke-linecap="round" stroke-linejoin="round"/>
<path d="M57.6301 91.0296L36.8701 103L16.1201 91.0296V74.0996" stroke="#003D2E" stroke-width="0.4395" stroke-miterlimit="10" stroke-linecap="round" stroke-linejoin="round"/>
<path d="M51.8001 94.3886L36.8701 102.999V79.0586" stroke="#003D2E" stroke-width="0.4395" stroke-miterlimit="10" stroke-linecap="round" stroke-linejoin="round"/>
<path d="M36.8701 79.0601L57.6301 67.0801V84.0101" stroke="#003D2E" stroke-width="0.4395" stroke-miterlimit="10" stroke-linecap="round" stroke-linejoin="round"/>
<path d="M36.8701 79.0601L16.1201 67.0801" stroke="#003D2E" stroke-width="0.4395" stroke-miterlimit="10" stroke-linecap="round" stroke-linejoin="round"/>
<path d="M43.1897 69.2004C42.3997 70.0304 40.5297 70.6704 39.4497 70.7504C39.7497 70.7204 40.0397 70.6504 40.3197 70.5504C40.9397 70.3404 41.5197 69.9804 42.0297 69.4704C42.0497 69.4504 42.0697 69.4304 42.0797 69.4204C44.4097 66.9804 44.2697 62.1204 41.7597 58.5504C41.7197 58.5004 41.6797 58.4504 41.6497 58.4004C41.6297 58.3704 41.5997 58.3304 41.5697 58.3004C41.5697 58.2904 41.5597 58.2904 41.5597 58.2904C39.9497 56.1404 37.8097 55.0304 35.8797 55.1604C35.6597 55.1704 35.4297 55.2104 35.2197 55.2504C37.4597 54.4904 40.9297 55.5704 42.8697 58.3404C45.3797 61.9004 45.5197 66.7604 43.1897 69.2004Z" fill="#00FF94"/>
<path d="M42.0798 69.4209C42.0598 69.4409 42.0398 69.4609 42.0298 69.4709C41.5198 69.9909 40.9398 70.3509 40.3198 70.5509C40.0398 70.6409 39.7498 70.7109 39.4498 70.7509C39.4398 70.7509 39.4198 70.7509 39.3998 70.7509C37.3498 70.9709 35.0098 69.7809 33.3198 67.3709C30.8198 63.8009 30.6698 58.9409 32.9998 56.5009C33.6398 55.8309 34.3898 55.4209 35.2098 55.2409C35.4298 55.1909 35.6498 55.1609 35.8698 55.1509C37.7998 55.0209 39.9398 56.1309 41.5498 58.2809C41.5498 58.2909 41.5598 58.2909 41.5598 58.2909C41.5798 58.3209 41.6098 58.3609 41.6398 58.3909C41.6798 58.4409 41.7198 58.4909 41.7498 58.5409C44.2698 62.1109 44.4098 66.9809 42.0798 69.4209Z" fill="#E3E7E3"/>
<path d="M43.1897 69.261C42.3997 70.091 40.5297 70.731 39.4497 70.811C39.7497 70.781 40.0397 70.711 40.3197 70.611C40.9397 70.401 41.5197 70.041 42.0297 69.531C42.0497 69.511 42.0697 69.491 42.0797 69.481C44.4097 67.041 44.2697 62.181 41.7597 58.611C41.7197 58.561 41.6797 58.511 41.6497 58.461C41.6297 58.431 41.5997 58.391 41.5697 58.361C41.5697 58.351 41.5597 58.351 41.5597 58.351C39.9497 56.201 37.8097 55.091 35.8797 55.221C35.6597 55.231 35.4297 55.271 35.2197 55.311C37.4597 54.551 40.9297 55.631 42.8697 58.401C45.3697 61.951 45.5197 66.821 43.1897 69.261Z" stroke="#003C2E" stroke-width="0.4395" stroke-miterlimit="10" stroke-linecap="round" stroke-linejoin="round"/>
<path d="M42.0798 69.4814C42.0598 69.5014 42.0398 69.5214 42.0298 69.5314C41.5198 70.0514 40.9398 70.4114 40.3198 70.6114C40.0398 70.7014 39.7498 70.7714 39.4498 70.8114C39.4398 70.8114 39.4198 70.8114 39.3998 70.8114C37.3498 71.0314 35.0098 69.8414 33.3198 67.4314C30.8198 63.8614 30.6698 59.0014 32.9998 56.5614C33.6398 55.8914 34.3898 55.4814 35.2098 55.3014C35.4298 55.2514 35.6498 55.2214 35.8698 55.2114C37.7998 55.0814 39.9398 56.1914 41.5498 58.3414C41.5498 58.3514 41.5598 58.3514 41.5598 58.3514C41.5798 58.3814 41.6098 58.4214 41.6398 58.4514C41.6798 58.5014 41.7198 58.5514 41.7498 58.6014C44.2698 62.1714 44.4098 67.0414 42.0798 69.4814Z" stroke="#003C2E" stroke-width="0.4395" stroke-miterlimit="10" stroke-linecap="round" stroke-linejoin="round"/>
<path d="M27.4599 12.8691H47.6099C49.0199 12.8691 50.1499 14.0091 50.1499 15.4091C50.1499 16.8191 49.0099 17.9491 47.6099 17.9491H27.4599C26.0499 17.9491 24.9199 16.8091 24.9199 15.4091C24.9199 14.0091 26.0599 12.8691 27.4599 12.8691Z" fill="#E3E7E3"/>
<path d="M17.1701 6.13086H41.5801C43.8201 6.13086 45.6301 7.94086 45.6301 10.1809C45.6301 12.4209 43.8201 14.2309 41.5801 14.2309H17.1701C14.9301 14.2309 13.1201 12.4209 13.1201 10.1809C13.1201 7.94086 14.9301 6.13086 17.1701 6.13086Z" fill="#E3E7E3"/>
<path d="M18.18 39.3105H16.27" stroke="#003C2E" stroke-width="0.4395" stroke-miterlimit="10" stroke-linecap="round" stroke-linejoin="round"/>
<path d="M26.1701 34.4609H12.3501" stroke="#00FF94" stroke-width="0.4395" stroke-miterlimit="10" stroke-linecap="round" stroke-linejoin="round"/>
<path d="M13.7998 39.3008H6.06982" stroke="#003C2E" stroke-width="0.4395" stroke-miterlimit="10" stroke-linecap="round" stroke-linejoin="round"/>
<path d="M168.51 94.1895H170.42" stroke="#003C2E" stroke-width="0.4395" stroke-miterlimit="10" stroke-linecap="round" stroke-linejoin="round"/>
<path d="M160.52 99.0508H174.35" stroke="#00FF94" stroke-width="0.4395" stroke-miterlimit="10" stroke-linecap="round" stroke-linejoin="round"/>
<path d="M172.89 94.2109H180.62" stroke="#003C2E" stroke-width="0.4395" stroke-miterlimit="10" stroke-linecap="round" stroke-linejoin="round"/>
<path d="M84.8999 19.5293H86.8099" stroke="#003C2E" stroke-width="0.4395" stroke-miterlimit="10" stroke-linecap="round" stroke-linejoin="round"/>
<path d="M76.9102 24.3809L90.7302 24.3909" stroke="#00FF94" stroke-width="0.4395" stroke-miterlimit="10" stroke-linecap="round" stroke-linejoin="round"/>
<path d="M89.2798 19.5391H96.9998" stroke="#003C2E" stroke-width="0.4395" stroke-miterlimit="10" stroke-linecap="round" stroke-linejoin="round"/>
<path d="M152.61 7.5H164.77C166.11 7.5 167.2 8.59 167.2 9.93C167.2 11.27 166.11 12.36 164.77 12.36H152.61C151.27 12.36 150.18 11.27 150.18 9.93C150.18 8.58 151.27 7.5 152.61 7.5Z" fill="#E3E7E3"/>
<path d="M158.87 11.0098H178.22C180.35 11.0098 182.08 12.7398 182.08 14.8698C182.08 16.9998 180.35 18.7298 178.22 18.7298H158.87C156.74 18.7298 155.01 16.9998 155.01 14.8698C155.01 12.7298 156.73 11.0098 158.87 11.0098Z" fill="#00FF94"/>
<path d="M165.68 8.84961L167.07 10.2396" stroke="#163B2F" stroke-width="0.4395" stroke-miterlimit="10" stroke-linecap="round" stroke-linejoin="round"/>
<path d="M168.1 11.2695L169.49 12.6595" stroke="#163B2F" stroke-width="0.4395" stroke-miterlimit="10" stroke-linecap="round" stroke-linejoin="round"/>
<path d="M165.68 12.6595L167.07 11.2695" stroke="#163B2F" stroke-width="0.4395" stroke-miterlimit="10" stroke-linecap="round" stroke-linejoin="round"/>
<path d="M168.1 10.2396L169.49 8.84961" stroke="#163B2F" stroke-width="0.4395" stroke-miterlimit="10" stroke-linecap="round" stroke-linejoin="round"/>
<path d="M150.12 82.5104H137.96C136.62 82.5104 135.53 81.4204 135.53 80.0804C135.53 78.7404 136.62 77.6504 137.96 77.6504H150.12C151.46 77.6504 152.55 78.7404 152.55 80.0804C152.54 81.4204 151.46 82.5104 150.12 82.5104Z" fill="#E3E7E3"/>
<path d="M143.86 78.9993H124.51C122.38 78.9993 120.65 77.2693 120.65 75.1393C120.65 73.0093 122.38 71.2793 124.51 71.2793H143.86C145.99 71.2793 147.72 73.0093 147.72 75.1393C147.72 77.2693 145.99 78.9993 143.86 78.9993Z" fill="#00FF94"/>
<path d="M137.05 81.1598L135.65 79.7598" stroke="#163B2F" stroke-width="0.4395" stroke-miterlimit="10" stroke-linecap="round" stroke-linejoin="round"/>
<path d="M134.63 78.7396L133.23 77.3496" stroke="#163B2F" stroke-width="0.4395" stroke-miterlimit="10" stroke-linecap="round" stroke-linejoin="round"/>
<path d="M137.05 77.3496L135.65 78.7396" stroke="#163B2F" stroke-width="0.4395" stroke-miterlimit="10" stroke-linecap="round" stroke-linejoin="round"/>
<path d="M134.63 79.7598L133.23 81.1598" stroke="#163B2F" stroke-width="0.4395" stroke-miterlimit="10" stroke-linecap="round" stroke-linejoin="round"/>
<path d="M91.8101 99.5293H93.7201" stroke="#003C2E" stroke-width="0.4395" stroke-miterlimit="10" stroke-linecap="round" stroke-linejoin="round"/>
<path d="M83.8198 94.6797H97.6498" stroke="#00FF94" stroke-width="0.4395" stroke-miterlimit="10" stroke-linecap="round" stroke-linejoin="round"/>
<path d="M96.1899 99.5195H103.92" stroke="#003C2E" stroke-width="0.4395" stroke-miterlimit="10" stroke-linecap="round" stroke-linejoin="round"/>
<path d="M103.92 92.9004L106.49 94.3504" stroke="#003D2E" stroke-width="0.4395" stroke-miterlimit="10" stroke-linecap="round" stroke-linejoin="round"/>
<path d="M109.06 92.9004L107.55 93.7504" stroke="#003D2E" stroke-width="0.4395" stroke-miterlimit="10" stroke-linecap="round" stroke-linejoin="round"/>
<path d="M106.49 94.3496V97.2896" stroke="#003D2E" stroke-width="0.4395" stroke-miterlimit="10" stroke-linecap="round" stroke-linejoin="round"/>
<path d="M59.89 48.9297H57.98" stroke="#003C2E" stroke-width="0.4395" stroke-miterlimit="10" stroke-linecap="round" stroke-linejoin="round"/>
<path d="M67.8801 44.0801H54.0601" stroke="#00FF94" stroke-width="0.4395" stroke-miterlimit="10" stroke-linecap="round" stroke-linejoin="round"/>
<path d="M55.5098 48.9199H47.7798" stroke="#003C2E" stroke-width="0.4395" stroke-miterlimit="10" stroke-linecap="round" stroke-linejoin="round"/>
<path d="M47.78 42.2891L45.21 43.7391" stroke="#003D2E" stroke-width="0.4395" stroke-miterlimit="10" stroke-linecap="round" stroke-linejoin="round"/>
<path d="M42.6401 42.2891L44.1501 43.1391" stroke="#003D2E" stroke-width="0.4395" stroke-miterlimit="10" stroke-linecap="round" stroke-linejoin="round"/>
<path d="M45.21 43.7383V46.6783" stroke="#003D2E" stroke-width="0.4395" stroke-miterlimit="10" stroke-linecap="round" stroke-linejoin="round"/>
<mask id="path-73-outside-1_156_799" maskUnits="userSpaceOnUse" x="33.2792" y="57.8729" width="7.36404" height="8.12585" fill="black">
<rect fill="white" x="33.2792" y="57.8729" width="7.36404" height="8.12585"/>
<path d="M34.1997 59.2637C34.2119 59.2824 34.2333 59.3038 34.2348 59.3193C34.25 59.4701 34.3331 59.6023 34.4341 59.7228C35.3612 60.8285 36.2884 61.9341 37.2189 63.0361C37.4436 63.3023 37.6218 63.368 37.8436 63.2928C38.3503 63.1209 38.8567 62.9483 39.3623 62.7742C39.649 62.6756 39.8581 62.4779 39.9674 62.1615C40.0056 62.0511 40.0203 61.9225 40.0363 61.8466C40.0363 62.1626 40.0579 62.5382 40.0308 62.8889C39.9974 63.3212 39.7903 63.6014 39.4594 63.7261C38.9084 63.9338 38.3465 64.1213 37.7843 64.3077C37.6015 64.3683 37.4078 64.2499 37.2287 64.0476C37.0451 63.8401 36.8628 63.6304 36.6842 63.4171C35.9441 62.5332 35.2057 61.6472 34.4662 60.7626C34.3395 60.6111 34.2394 60.453 34.2168 60.2687C34.2174 59.985 34.2183 59.7014 34.2176 59.4172C34.2176 59.3956 34.206 59.3691 34.1997 59.345C34.1997 59.3179 34.1997 59.2908 34.1997 59.2637Z"/>
</mask>
<path d="M34.1997 59.2637C34.2119 59.2824 34.2333 59.3038 34.2348 59.3193C34.25 59.4701 34.3331 59.6023 34.4341 59.7228C35.3612 60.8285 36.2884 61.9341 37.2189 63.0361C37.4436 63.3023 37.6218 63.368 37.8436 63.2928C38.3503 63.1209 38.8567 62.9483 39.3623 62.7742C39.649 62.6756 39.8581 62.4779 39.9674 62.1615C40.0056 62.0511 40.0203 61.9225 40.0363 61.8466C40.0363 62.1626 40.0579 62.5382 40.0308 62.8889C39.9974 63.3212 39.7903 63.6014 39.4594 63.7261C38.9084 63.9338 38.3465 64.1213 37.7843 64.3077C37.6015 64.3683 37.4078 64.2499 37.2287 64.0476C37.0451 63.8401 36.8628 63.6304 36.6842 63.4171C35.9441 62.5332 35.2057 61.6472 34.4662 60.7626C34.3395 60.6111 34.2394 60.453 34.2168 60.2687C34.2174 59.985 34.2183 59.7014 34.2176 59.4172C34.2176 59.3956 34.206 59.3691 34.1997 59.345C34.1997 59.3179 34.1997 59.2908 34.1997 59.2637Z" fill="#003C2E"/>
<path d="M34.1997 59.2637C34.2119 59.2824 34.2333 59.3038 34.2348 59.3193C34.25 59.4701 34.3331 59.6023 34.4341 59.7228C35.3612 60.8285 36.2884 61.9341 37.2189 63.0361C37.4436 63.3023 37.6218 63.368 37.8436 63.2928C38.3503 63.1209 38.8567 62.9483 39.3623 62.7742C39.649 62.6756 39.8581 62.4779 39.9674 62.1615C40.0056 62.0511 40.0203 61.9225 40.0363 61.8466C40.0363 62.1626 40.0579 62.5382 40.0308 62.8889C39.9974 63.3212 39.7903 63.6014 39.4594 63.7261C38.9084 63.9338 38.3465 64.1213 37.7843 64.3077C37.6015 64.3683 37.4078 64.2499 37.2287 64.0476C37.0451 63.8401 36.8628 63.6304 36.6842 63.4171C35.9441 62.5332 35.2057 61.6472 34.4662 60.7626C34.3395 60.6111 34.2394 60.453 34.2168 60.2687C34.2174 59.985 34.2183 59.7014 34.2176 59.4172C34.2176 59.3956 34.206 59.3691 34.1997 59.345C34.1997 59.3179 34.1997 59.2908 34.1997 59.2637Z" stroke="#003C2E" stroke-width="0.2" stroke-linejoin="round" mask="url(#path-73-outside-1_156_799)"/>
<mask id="path-74-outside-2_156_799" maskUnits="userSpaceOnUse" x="33.2792" y="60.1093" width="7.36404" height="8.12585" fill="black">
<rect fill="white" x="33.2792" y="60.1093" width="7.36404" height="8.12585"/>
<path d="M34.1997 61.5C34.2114 61.5134 34.2323 61.5297 34.2333 61.5399C34.2495 61.7077 34.3491 61.8472 34.4596 61.9813C34.8845 62.4974 35.3072 63.016 35.7368 63.527C36.2124 64.0928 36.6942 64.6517 37.1741 65.2126C37.4491 65.5341 37.6016 65.5997 37.8762 65.5077C38.3633 65.3446 38.8473 65.1755 39.3341 65.0117C39.6242 64.9141 39.844 64.7272 39.9581 64.4103C40.0004 64.2926 40.0176 64.1551 40.0633 64.0337C40.0507 64.4215 40.0616 64.8222 40.0193 65.1937C39.974 65.5917 39.7622 65.8425 39.4514 65.9585C38.9045 66.1626 38.3475 66.3478 37.7913 66.534C37.5963 66.5993 37.3976 66.471 37.2117 66.2577C36.9695 65.9798 36.7279 65.701 36.4907 65.4175C35.8072 64.6004 35.1259 63.7807 34.4438 62.9621C34.3218 62.8158 34.2347 62.6601 34.2158 62.4855C34.2166 62.1982 34.2178 61.911 34.2175 61.6232C34.2175 61.605 34.2059 61.5819 34.1997 61.561C34.1997 61.5407 34.1997 61.5203 34.1997 61.5Z"/>
</mask>
<path d="M34.1997 61.5C34.2114 61.5134 34.2323 61.5297 34.2333 61.5399C34.2495 61.7077 34.3491 61.8472 34.4596 61.9813C34.8845 62.4974 35.3072 63.016 35.7368 63.527C36.2124 64.0928 36.6942 64.6517 37.1741 65.2126C37.4491 65.5341 37.6016 65.5997 37.8762 65.5077C38.3633 65.3446 38.8473 65.1755 39.3341 65.0117C39.6242 64.9141 39.844 64.7272 39.9581 64.4103C40.0004 64.2926 40.0176 64.1551 40.0633 64.0337C40.0507 64.4215 40.0616 64.8222 40.0193 65.1937C39.974 65.5917 39.7622 65.8425 39.4514 65.9585C38.9045 66.1626 38.3475 66.3478 37.7913 66.534C37.5963 66.5993 37.3976 66.471 37.2117 66.2577C36.9695 65.9798 36.7279 65.701 36.4907 65.4175C35.8072 64.6004 35.1259 63.7807 34.4438 62.9621C34.3218 62.8158 34.2347 62.6601 34.2158 62.4855C34.2166 62.1982 34.2178 61.911 34.2175 61.6232C34.2175 61.605 34.2059 61.5819 34.1997 61.561C34.1997 61.5407 34.1997 61.5203 34.1997 61.5Z" fill="#003C2E"/>
<path d="M34.1997 61.5C34.2114 61.5134 34.2323 61.5297 34.2333 61.5399C34.2495 61.7077 34.3491 61.8472 34.4596 61.9813C34.8845 62.4974 35.3072 63.016 35.7368 63.527C36.2124 64.0928 36.6942 64.6517 37.1741 65.2126C37.4491 65.5341 37.6016 65.5997 37.8762 65.5077C38.3633 65.3446 38.8473 65.1755 39.3341 65.0117C39.6242 64.9141 39.844 64.7272 39.9581 64.4103C40.0004 64.2926 40.0176 64.1551 40.0633 64.0337C40.0507 64.4215 40.0616 64.8222 40.0193 65.1937C39.974 65.5917 39.7622 65.8425 39.4514 65.9585C38.9045 66.1626 38.3475 66.3478 37.7913 66.534C37.5963 66.5993 37.3976 66.471 37.2117 66.2577C36.9695 65.9798 36.7279 65.701 36.4907 65.4175C35.8072 64.6004 35.1259 63.7807 34.4438 62.9621C34.3218 62.8158 34.2347 62.6601 34.2158 62.4855C34.2166 62.1982 34.2178 61.911 34.2175 61.6232C34.2175 61.605 34.2059 61.5819 34.1997 61.561C34.1997 61.5407 34.1997 61.5203 34.1997 61.5Z" stroke="#003C2E" stroke-width="0.2" stroke-linejoin="round" mask="url(#path-74-outside-2_156_799)"/>
<mask id="path-75-outside-3_156_799" maskUnits="userSpaceOnUse" x="34.6352" y="57.287" width="4.60252" height="4.95366" fill="black">
<rect fill="white" x="34.6352" y="57.287" width="4.60252" height="4.95366"/>
<path d="M35.5557 59.7342C35.5715 59.7214 35.5797 59.7097 35.5918 59.7057C35.8868 59.6074 36.1767 59.4981 36.4793 59.4156C36.7924 59.3302 37.1382 59.3488 37.5165 59.51C37.8691 59.6603 38.1889 59.9174 38.4789 60.2499C38.6191 60.4107 38.7548 60.5801 38.8792 60.7557C39.0802 61.0395 39.101 61.4018 38.941 61.5715C38.9053 61.6094 38.8681 61.5971 38.8212 61.5433C38.756 61.4685 38.6914 61.3931 38.6251 61.3199C37.9558 60.5802 37.2864 60.301 36.6173 60.4682C36.5109 60.4948 36.4056 60.5237 36.2973 60.5458C36.2755 60.5502 36.234 60.5379 36.2154 60.5167C36.0066 60.2782 35.8003 60.0365 35.5938 59.7952C35.5815 59.7808 35.5729 59.762 35.5557 59.7342Z"/>
</mask>
<path d="M35.5557 59.7342C35.5715 59.7214 35.5797 59.7097 35.5918 59.7057C35.8868 59.6074 36.1767 59.4981 36.4793 59.4156C36.7924 59.3302 37.1382 59.3488 37.5165 59.51C37.8691 59.6603 38.1889 59.9174 38.4789 60.2499C38.6191 60.4107 38.7548 60.5801 38.8792 60.7557C39.0802 61.0395 39.101 61.4018 38.941 61.5715C38.9053 61.6094 38.8681 61.5971 38.8212 61.5433C38.756 61.4685 38.6914 61.3931 38.6251 61.3199C37.9558 60.5802 37.2864 60.301 36.6173 60.4682C36.5109 60.4948 36.4056 60.5237 36.2973 60.5458C36.2755 60.5502 36.234 60.5379 36.2154 60.5167C36.0066 60.2782 35.8003 60.0365 35.5938 59.7952C35.5815 59.7808 35.5729 59.762 35.5557 59.7342Z" fill="#003C2E"/>
<path d="M35.5557 59.7342C35.5715 59.7214 35.5797 59.7097 35.5918 59.7057C35.8868 59.6074 36.1767 59.4981 36.4793 59.4156C36.7924 59.3302 37.1382 59.3488 37.5165 59.51C37.8691 59.6603 38.1889 59.9174 38.4789 60.2499C38.6191 60.4107 38.7548 60.5801 38.8792 60.7557C39.0802 61.0395 39.101 61.4018 38.941 61.5715C38.9053 61.6094 38.8681 61.5971 38.8212 61.5433C38.756 61.4685 38.6914 61.3931 38.6251 61.3199C37.9558 60.5802 37.2864 60.301 36.6173 60.4682C36.5109 60.4948 36.4056 60.5237 36.2973 60.5458C36.2755 60.5502 36.234 60.5379 36.2154 60.5167C36.0066 60.2782 35.8003 60.0365 35.5938 59.7952C35.5815 59.7808 35.5729 59.762 35.5557 59.7342Z" stroke="#003C2E" stroke-width="0.2" stroke-linejoin="round" mask="url(#path-75-outside-3_156_799)"/>
<mask id="path-76-outside-4_156_799" maskUnits="userSpaceOnUse" x="125.086" y="7.95654" width="7.30836" height="8.25389" fill="black">
<rect fill="white" x="125.086" y="7.95654" width="7.30836" height="8.25389"/>
<path d="M126 9.36328C126.012 9.38218 126.033 9.40401 126.035 9.41953C126.05 9.57063 126.132 9.70428 126.233 9.82646C127.153 10.9483 128.073 12.07 128.996 13.1882C129.219 13.4583 129.396 13.5271 129.616 13.4558C130.119 13.2927 130.622 13.1289 131.124 12.9636C131.408 12.8699 131.616 12.6759 131.724 12.3614C131.762 12.2517 131.777 12.1233 131.792 12.0477C131.792 12.3637 131.814 12.7397 131.787 13.0899C131.754 13.5216 131.548 13.7982 131.22 13.9172C130.673 14.1153 130.115 14.293 129.557 14.4696C129.376 14.5271 129.184 14.4053 129.006 14.1999C128.824 13.9891 128.643 13.7763 128.466 13.5599C127.731 12.6631 126.998 11.7643 126.264 10.8669C126.139 10.7131 126.039 10.5533 126.017 10.3686C126.018 10.0849 126.018 9.80137 126.018 9.51712C126.018 9.49552 126.006 9.46885 126 9.44456C126 9.41749 126 9.39038 126 9.36328Z"/>
</mask>
<path d="M126 9.36328C126.012 9.38218 126.033 9.40401 126.035 9.41953C126.05 9.57063 126.132 9.70428 126.233 9.82646C127.153 10.9483 128.073 12.07 128.996 13.1882C129.219 13.4583 129.396 13.5271 129.616 13.4558C130.119 13.2927 130.622 13.1289 131.124 12.9636C131.408 12.8699 131.616 12.6759 131.724 12.3614C131.762 12.2517 131.777 12.1233 131.792 12.0477C131.792 12.3637 131.814 12.7397 131.787 13.0899C131.754 13.5216 131.548 13.7982 131.22 13.9172C130.673 14.1153 130.115 14.293 129.557 14.4696C129.376 14.5271 129.184 14.4053 129.006 14.1999C128.824 13.9891 128.643 13.7763 128.466 13.5599C127.731 12.6631 126.998 11.7643 126.264 10.8669C126.139 10.7131 126.039 10.5533 126.017 10.3686C126.018 10.0849 126.018 9.80137 126.018 9.51712C126.018 9.49552 126.006 9.46885 126 9.44456C126 9.41749 126 9.39038 126 9.36328Z" fill="#003C2E"/>
<path d="M126 9.36328C126.012 9.38218 126.033 9.40401 126.035 9.41953C126.05 9.57063 126.132 9.70428 126.233 9.82646C127.153 10.9483 128.073 12.07 128.996 13.1882C129.219 13.4583 129.396 13.5271 129.616 13.4558C130.119 13.2927 130.622 13.1289 131.124 12.9636C131.408 12.8699 131.616 12.6759 131.724 12.3614C131.762 12.2517 131.777 12.1233 131.792 12.0477C131.792 12.3637 131.814 12.7397 131.787 13.0899C131.754 13.5216 131.548 13.7982 131.22 13.9172C130.673 14.1153 130.115 14.293 129.557 14.4696C129.376 14.5271 129.184 14.4053 129.006 14.1999C128.824 13.9891 128.643 13.7763 128.466 13.5599C127.731 12.6631 126.998 11.7643 126.264 10.8669C126.139 10.7131 126.039 10.5533 126.017 10.3686C126.018 10.0849 126.018 9.80137 126.018 9.51712C126.018 9.49552 126.006 9.46885 126 9.44456C126 9.41749 126 9.39038 126 9.36328Z" stroke="#003C2E" stroke-width="0.2" stroke-linejoin="round" mask="url(#path-76-outside-4_156_799)"/>
<mask id="path-77-outside-5_156_799" maskUnits="userSpaceOnUse" x="125.086" y="10.1929" width="7.30836" height="8.25389" fill="black">
<rect fill="white" x="125.086" y="10.1929" width="7.30836" height="8.25389"/>
<path d="M126 11.5996C126.012 11.6133 126.032 11.6299 126.033 11.6401C126.049 11.8082 126.148 11.9494 126.258 12.0855C126.68 12.609 127.099 13.1349 127.525 13.6534C127.997 14.2274 128.476 14.7947 128.952 15.364C129.225 15.6902 129.376 15.7584 129.649 15.6712C130.132 15.5166 130.612 15.3559 131.096 15.2006C131.383 15.108 131.602 14.9249 131.715 14.61C131.757 14.4931 131.774 14.3559 131.819 14.2352C131.807 14.6229 131.818 15.0238 131.776 15.3945C131.731 15.7917 131.52 16.0388 131.212 16.1495C130.669 16.3441 130.116 16.5195 129.564 16.6961C129.371 16.758 129.174 16.6262 128.989 16.4096C128.749 16.1275 128.509 15.8446 128.274 15.557C127.595 14.728 126.919 13.8964 126.242 13.066C126.121 12.9175 126.035 12.7603 126.016 12.5854C126.017 12.2981 126.018 12.0109 126.018 11.7231C126.018 11.7049 126.006 11.6816 126 11.6606C126 11.6403 126 11.6199 126 11.5996Z"/>
</mask>
<path d="M126 11.5996C126.012 11.6133 126.032 11.6299 126.033 11.6401C126.049 11.8082 126.148 11.9494 126.258 12.0855C126.68 12.609 127.099 13.1349 127.525 13.6534C127.997 14.2274 128.476 14.7947 128.952 15.364C129.225 15.6902 129.376 15.7584 129.649 15.6712C130.132 15.5166 130.612 15.3559 131.096 15.2006C131.383 15.108 131.602 14.9249 131.715 14.61C131.757 14.4931 131.774 14.3559 131.819 14.2352C131.807 14.6229 131.818 15.0238 131.776 15.3945C131.731 15.7917 131.52 16.0388 131.212 16.1495C130.669 16.3441 130.116 16.5195 129.564 16.6961C129.371 16.758 129.174 16.6262 128.989 16.4096C128.749 16.1275 128.509 15.8446 128.274 15.557C127.595 14.728 126.919 13.8964 126.242 13.066C126.121 12.9175 126.035 12.7603 126.016 12.5854C126.017 12.2981 126.018 12.0109 126.018 11.7231C126.018 11.7049 126.006 11.6816 126 11.6606C126 11.6403 126 11.6199 126 11.5996Z" fill="#003C2E"/>
<path d="M126 11.5996C126.012 11.6133 126.032 11.6299 126.033 11.6401C126.049 11.8082 126.148 11.9494 126.258 12.0855C126.68 12.609 127.099 13.1349 127.525 13.6534C127.997 14.2274 128.476 14.7947 128.952 15.364C129.225 15.6902 129.376 15.7584 129.649 15.6712C130.132 15.5166 130.612 15.3559 131.096 15.2006C131.383 15.108 131.602 14.9249 131.715 14.61C131.757 14.4931 131.774 14.3559 131.819 14.2352C131.807 14.6229 131.818 15.0238 131.776 15.3945C131.731 15.7917 131.52 16.0388 131.212 16.1495C130.669 16.3441 130.116 16.5195 129.564 16.6961C129.371 16.758 129.174 16.6262 128.989 16.4096C128.749 16.1275 128.509 15.8446 128.274 15.557C127.595 14.728 126.919 13.8964 126.242 13.066C126.121 12.9175 126.035 12.7603 126.016 12.5854C126.017 12.2981 126.018 12.0109 126.018 11.7231C126.018 11.7049 126.006 11.6816 126 11.6606C126 11.6403 126 11.6199 126 11.5996Z" stroke="#003C2E" stroke-width="0.2" stroke-linejoin="round" mask="url(#path-77-outside-5_156_799)"/>
<mask id="path-78-outside-6_156_799" maskUnits="userSpaceOnUse" x="126.432" y="7.39404" width="4.56773" height="5.03368" fill="black">
<rect fill="white" x="126.432" y="7.39404" width="4.56773" height="5.03368"/>
<path d="M127.346 9.85722C127.361 9.84471 127.37 9.83319 127.382 9.8294C127.674 9.73622 127.962 9.63198 128.262 9.55471C128.573 9.4748 128.916 9.4994 129.292 9.66719C129.642 9.82359 129.959 10.0862 130.247 10.4238C130.386 10.587 130.521 10.7587 130.644 10.9365C130.844 11.2238 130.864 11.5865 130.705 11.7534C130.67 11.7907 130.633 11.7777 130.587 11.7231C130.522 11.6472 130.458 11.5707 130.392 11.4963C129.728 10.745 129.063 10.4541 128.399 10.6097C128.294 10.6345 128.189 10.6616 128.082 10.6817C128.06 10.6857 128.019 10.6728 128 10.6512C127.793 10.4091 127.589 10.1638 127.384 9.91889C127.371 9.90425 127.363 9.88535 127.346 9.85722Z"/>
</mask>
<path d="M127.346 9.85722C127.361 9.84471 127.37 9.83319 127.382 9.8294C127.674 9.73622 127.962 9.63198 128.262 9.55471C128.573 9.4748 128.916 9.4994 129.292 9.66719C129.642 9.82359 129.959 10.0862 130.247 10.4238C130.386 10.587 130.521 10.7587 130.644 10.9365C130.844 11.2238 130.864 11.5865 130.705 11.7534C130.67 11.7907 130.633 11.7777 130.587 11.7231C130.522 11.6472 130.458 11.5707 130.392 11.4963C129.728 10.745 129.063 10.4541 128.399 10.6097C128.294 10.6345 128.189 10.6616 128.082 10.6817C128.06 10.6857 128.019 10.6728 128 10.6512C127.793 10.4091 127.589 10.1638 127.384 9.91889C127.371 9.90425 127.363 9.88535 127.346 9.85722Z" fill="#003C2E"/>
<path d="M127.346 9.85722C127.361 9.84471 127.37 9.83319 127.382 9.8294C127.674 9.73622 127.962 9.63198 128.262 9.55471C128.573 9.4748 128.916 9.4994 129.292 9.66719C129.642 9.82359 129.959 10.0862 130.247 10.4238C130.386 10.587 130.521 10.7587 130.644 10.9365C130.844 11.2238 130.864 11.5865 130.705 11.7534C130.67 11.7907 130.633 11.7777 130.587 11.7231C130.522 11.6472 130.458 11.5707 130.392 11.4963C129.728 10.745 129.063 10.4541 128.399 10.6097C128.294 10.6345 128.189 10.6616 128.082 10.6817C128.06 10.6857 128.019 10.6728 128 10.6512C127.793 10.4091 127.589 10.1638 127.384 9.91889C127.371 9.90425 127.363 9.88535 127.346 9.85722Z" stroke="#003C2E" stroke-width="0.2" stroke-linejoin="round" mask="url(#path-78-outside-6_156_799)"/>
</g>
<defs>
<clipPath id="clip0_156_799">
<rect width="192" height="108" fill="white"/>
</clipPath>
</defs>
</svg>
