<svg width="175" height="108" viewBox="0 0 175 108" fill="none" xmlns="http://www.w3.org/2000/svg">
<path d="M96.03 15.7889H84.35C83.06 15.7889 82.02 14.7489 82.02 13.4589C82.02 12.1689 83.06 11.1289 84.35 11.1289H96.03C97.32 11.1289 98.36 12.1689 98.36 13.4589C98.36 14.7489 97.32 15.7889 96.03 15.7889Z" fill="#00FF94"/>
<path d="M152.56 31.3996H136.78C135.04 31.3996 133.63 29.9896 133.63 28.2496C133.63 26.5096 135.04 25.0996 136.78 25.0996H152.56C154.3 25.0996 155.71 26.5096 155.71 28.2496C155.71 29.9896 154.3 31.3996 152.56 31.3996Z" fill="#00FF94"/>
<path d="M113.87 75.2094H103.94C102.67 75.2094 101.64 74.1794 101.64 72.9094C101.64 71.6394 102.67 70.6094 103.94 70.6094H113.87C115.14 70.6094 116.17 71.6394 116.17 72.9094C116.17 74.1794 115.14 75.2094 113.87 75.2094Z" fill="#E3E7E3"/>
<path d="M49.5799 64.0293H57.1599C58.8999 64.0293 60.3099 65.4393 60.3099 67.1793C60.3099 68.9193 58.8999 70.3293 57.1599 70.3293H49.5799C47.8399 70.3293 46.4299 68.9193 46.4299 67.1793C46.4299 65.4393 47.8399 64.0293 49.5799 64.0293Z" fill="#E3E7E3"/>
<path d="M53.8599 61.3398H61.2199C62.3499 61.3398 63.2699 62.2598 63.2699 63.3898C63.2699 64.5198 62.3499 65.4398 61.2199 65.4398H53.8599C52.7299 65.4398 51.8099 64.5198 51.8099 63.3898C51.8099 62.2598 52.7299 61.3398 53.8599 61.3398Z" fill="#E3E7E3"/>
<path d="M50.59 69.2285L39.25 75.7685L50.59 82.3085L61.92 75.7685L50.59 69.2285Z" fill="#00FF94"/>
<path d="M50.5901 82.3095V95.3895L61.9201 88.8495V75.7695L50.5901 82.3095Z" fill="#00FF94"/>
<path d="M50.59 82.3095V95.3895L39.25 88.8495V75.7695L50.59 82.3095Z" fill="#00FF94"/>
<path d="M64.01 82.3086V74.5586" stroke="#003D2E" stroke-width="0.4751" stroke-miterlimit="10" stroke-linecap="round" stroke-linejoin="round"/>
<path d="M37.16 74.5586V90.0486L50.59 97.7986L58.41 93.2786" stroke="#003D2E" stroke-width="0.4751" stroke-miterlimit="10" stroke-linecap="round" stroke-linejoin="round"/>
<path d="M50.59 82.3091L64.01 74.5591L50.59 66.7891L37.16 74.5591L50.59 82.3091Z" stroke="#003D2E" stroke-width="0.4751" stroke-miterlimit="10" stroke-linecap="round" stroke-linejoin="round"/>
<path d="M50.5901 82.3086V97.7986" stroke="#003D2E" stroke-width="0.4751" stroke-miterlimit="10" stroke-linecap="round" stroke-linejoin="round"/>
<path d="M90.8699 45.959L79.5299 52.499L90.8699 59.039L102.2 52.499L90.8699 45.959Z" fill="#00FF94"/>
<path d="M90.87 59.038V72.118L102.2 65.578V52.498L90.87 59.038Z" fill="#00FF94"/>
<path d="M90.8699 59.038V72.118L79.5299 65.578V52.498L90.8699 59.038Z" fill="#00FF94"/>
<path d="M80.9299 68.7988L90.8699 74.5288" stroke="#003D2E" stroke-width="0.4751" stroke-miterlimit="10" stroke-linecap="round" stroke-linejoin="round"/>
<path d="M104.29 51.2888L90.8699 43.5488L77.4399 51.2888V62.2488" stroke="#003D2E" stroke-width="0.4751" stroke-miterlimit="10" stroke-linecap="round" stroke-linejoin="round"/>
<path d="M100.52 68.9591L90.87 74.5291V59.0391" stroke="#003D2E" stroke-width="0.4751" stroke-miterlimit="10" stroke-linecap="round" stroke-linejoin="round"/>
<path d="M90.87 59.0391L104.29 51.2891V62.2491" stroke="#003D2E" stroke-width="0.4751" stroke-miterlimit="10" stroke-linecap="round" stroke-linejoin="round"/>
<path d="M90.8699 59.0391L77.4399 51.2891" stroke="#003D2E" stroke-width="0.4751" stroke-miterlimit="10" stroke-linecap="round" stroke-linejoin="round"/>
<path d="M50.59 22.6895L39.25 29.2295L50.59 35.7695L61.92 29.2295L50.59 22.6895Z" fill="#E3E7E3"/>
<path d="M50.5901 35.7685V48.8485L61.9201 42.3085V29.2285L50.5901 35.7685Z" fill="#E3E7E3"/>
<path d="M50.59 35.7685V48.8485L39.25 42.3085V29.2285L50.59 35.7685Z" fill="#E3E7E3"/>
<path d="M64.01 28.0293L50.59 20.2793L37.16 28.0293" stroke="#003D2E" stroke-width="0.4751" stroke-miterlimit="10" stroke-linecap="round" stroke-linejoin="round"/>
<path d="M50.5901 35.7693L64.0101 28.0293V35.7693" stroke="#003D2E" stroke-width="0.4751" stroke-miterlimit="10" stroke-linecap="round" stroke-linejoin="round"/>
<path d="M50.5901 35.7695V51.2695" stroke="#003D2E" stroke-width="0.4751" stroke-miterlimit="10" stroke-linecap="round" stroke-linejoin="round"/>
<path d="M50.59 35.7693L37.16 28.0293" stroke="#003D2E" stroke-width="0.4751" stroke-miterlimit="10" stroke-linecap="round" stroke-linejoin="round"/>
<path d="M37.16 39.0393V28.0293" stroke="#003D2E" stroke-width="0.4751" stroke-miterlimit="10" stroke-linecap="round" stroke-linejoin="round"/>
<path d="M50.59 51.2695L40.62 45.5195" stroke="#003D2E" stroke-width="0.4751" stroke-miterlimit="10" stroke-linecap="round" stroke-linejoin="round"/>
<path d="M131.15 69.2305L119.81 75.7705L131.15 82.3105L142.48 75.7705L131.15 69.2305Z" fill="#00FF94"/>
<path d="M131.15 82.3115V95.3915L142.48 88.8515V75.7715L131.15 82.3115Z" fill="#00FF94"/>
<path d="M131.15 82.3115V95.3915L119.81 88.8515V75.7715L131.15 82.3115Z" fill="#00FF94"/>
<path d="M124.43 93.9199L131.15 97.7999" stroke="#003D2E" stroke-width="0.4751" stroke-miterlimit="10" stroke-linecap="round" stroke-linejoin="round"/>
<path d="M144.57 74.5605L131.15 66.8105L117.72 74.5605V82.3105" stroke="#003D2E" stroke-width="0.4751" stroke-miterlimit="10" stroke-linecap="round" stroke-linejoin="round"/>
<path d="M131.15 82.3105L144.57 74.5605V90.0506L131.15 97.8006V82.3105Z" stroke="#003D2E" stroke-width="0.4751" stroke-miterlimit="10" stroke-linecap="round" stroke-linejoin="round"/>
<path d="M131.15 82.3105L117.72 74.5605" stroke="#003D2E" stroke-width="0.4751" stroke-miterlimit="10" stroke-linecap="round" stroke-linejoin="round"/>
<path d="M131.15 22.6895L119.81 29.2295L131.15 35.7695L142.48 29.2295L131.15 22.6895Z" fill="#E3E7E3"/>
<path d="M131.15 35.7685V48.8485L142.48 42.3085V29.2285L131.15 35.7685Z" fill="#E3E7E3"/>
<path d="M131.15 35.7685V48.8485L119.81 42.3085V29.2285L131.15 35.7685Z" fill="#E3E7E3"/>
<path d="M144.57 28.0293L131.15 20.2793L117.72 28.0293" stroke="#003D2E" stroke-width="0.4751" stroke-miterlimit="10" stroke-linecap="round" stroke-linejoin="round"/>
<path d="M144.57 39.0393V28.0293" stroke="#003D2E" stroke-width="0.4751" stroke-miterlimit="10" stroke-linecap="round" stroke-linejoin="round"/>
<path d="M131.15 51.2695L141.11 45.5195" stroke="#003D2E" stroke-width="0.4751" stroke-miterlimit="10" stroke-linecap="round" stroke-linejoin="round"/>
<path d="M144.57 28.0293L131.15 35.7693" stroke="#003D2E" stroke-width="0.4751" stroke-miterlimit="10" stroke-linecap="round" stroke-linejoin="round"/>
<path d="M131.15 35.7695V51.2695" stroke="#003D2E" stroke-width="0.4751" stroke-miterlimit="10" stroke-linecap="round" stroke-linejoin="round"/>
<path d="M131.15 35.7693L117.72 28.0293V38.1793" stroke="#003D2E" stroke-width="0.4751" stroke-miterlimit="10" stroke-linecap="round" stroke-linejoin="round"/>
<path d="M125.53 39.0391L106.82 49.8391" stroke="#003D2E" stroke-width="0.4751" stroke-miterlimit="10" stroke-linecap="round" stroke-linejoin="round"/>
<circle cx="85.2" cy="62.3098" r="0.23755" fill="#003D2E"/>
<path d="M83.7599 63.1406L67.2799 72.6406" stroke="#003D2E" stroke-width="0.4751" stroke-linecap="round" stroke-linejoin="round"/>
<circle cx="66.5699" cy="73.0598" r="0.23755" fill="#003D2E"/>
<path d="M56.03 39.0391L75.01 49.9891" stroke="#003D2E" stroke-width="0.4751" stroke-miterlimit="10" stroke-linecap="round" stroke-linejoin="round"/>
<path d="M96.36 62.3105L114.99 73.0605" stroke="#003D2E" stroke-width="0.4751" stroke-miterlimit="10" stroke-linecap="round" stroke-linejoin="round"/>
<path d="M100.52 96.4601C106.41 95.3801 112.16 93.2901 117.51 90.2101L125.11 85.8301" stroke="#003D2E" stroke-width="0.4751" stroke-miterlimit="10" stroke-linecap="round" stroke-linejoin="round"/>
<path d="M56.63 85.8301L64.23 90.2101C70.08 93.5901 76.41 95.7601 82.89 96.7401" stroke="#003D2E" stroke-width="0.4751" stroke-miterlimit="10" stroke-linecap="round" stroke-linejoin="round"/>
<path d="M82.93 21.2402C77.92 22.0502 73.03 23.6302 68.49 25.9802L67.73 26.3802" stroke="#003D2E" stroke-width="0.4751" stroke-miterlimit="10" stroke-linecap="round" stroke-linejoin="round"/>
<path d="M114.01 26.3702L113.25 25.9702C108.73 23.6302 103.86 22.0502 98.88 21.2402" stroke="#003D2E" stroke-width="0.4751" stroke-miterlimit="10" stroke-linecap="round" stroke-linejoin="round"/>
<path d="M90.02 12.42H71.44C69.39 12.42 67.73 10.76 67.73 8.71C67.73 6.66 69.39 5 71.44 5H90.02C92.07 5 93.73 6.66 93.73 8.71C93.73 10.76 92.07 12.42 90.02 12.42Z" fill="#00FF94"/>
<path d="M23.94 38.1787H14.01C12.92 38.1787 12.03 37.2887 12.03 36.1987C12.03 35.1087 12.92 34.2188 14.01 34.2188H23.94C25.03 34.2188 25.92 35.1087 25.92 36.1987C25.92 37.2887 25.03 38.1787 23.94 38.1787Z" fill="#E3E7E3"/>
<path d="M27.4 42.1397H17.47C16.38 42.1397 15.49 41.2497 15.49 40.1597C15.49 39.0697 16.38 38.1797 17.47 38.1797H27.4C28.49 38.1797 29.38 39.0697 29.38 40.1597C29.38 41.2497 28.49 42.1397 27.4 42.1397Z" fill="#E3E7E3"/>
<path d="M18.91 40.1592H8.98C7.89 40.1592 7 39.2692 7 38.1792C7 37.0892 7.89 36.1992 8.98 36.1992H18.91C20 36.1992 20.89 37.0892 20.89 38.1792C20.89 39.2692 20.01 40.1592 18.91 40.1592Z" fill="#E3E7E3"/>
<path d="M90.87 36.7697C91.5161 36.7697 92.04 36.2459 92.04 35.5997C92.04 34.9535 91.5161 34.4297 90.87 34.4297C90.2238 34.4297 89.7 34.9535 89.7 35.5997C89.7 36.2459 90.2238 36.7697 90.87 36.7697Z" stroke="#003C2E" stroke-width="0.4751" stroke-miterlimit="10" stroke-linecap="round" stroke-linejoin="round"/>
<path d="M131.15 60.2091C131.796 60.2091 132.32 59.6853 132.32 59.0391C132.32 58.393 131.796 57.8691 131.15 57.8691C130.504 57.8691 129.98 58.393 129.98 59.0391C129.98 59.6853 130.504 60.2091 131.15 60.2091Z" stroke="#003C2E" stroke-width="0.4751" stroke-miterlimit="10" stroke-linecap="round" stroke-linejoin="round"/>
<path d="M50.59 60.2091C51.2362 60.2091 51.76 59.6853 51.76 59.0391C51.76 58.393 51.2362 57.8691 50.59 57.8691C49.9439 57.8691 49.42 58.393 49.42 59.0391C49.42 59.6853 49.9439 60.2091 50.59 60.2091Z" stroke="#003C2E" stroke-width="0.4751" stroke-miterlimit="10" stroke-linecap="round" stroke-linejoin="round"/>
<path d="M90.55 84.1506C91.1962 84.1506 91.72 83.6267 91.72 82.9806C91.72 82.3344 91.1962 81.8105 90.55 81.8105C89.9038 81.8105 89.38 82.3344 89.38 82.9806C89.38 83.6267 89.9038 84.1506 90.55 84.1506Z" stroke="#003C2E" stroke-width="0.4751" stroke-miterlimit="10" stroke-linecap="round" stroke-linejoin="round"/>
<path d="M150.33 15.2988L147.18 17.1188" stroke="#003D2E" stroke-width="0.4751" stroke-miterlimit="10" stroke-linecap="round" stroke-linejoin="round"/>
<path d="M144.03 15.2988L145.88 16.3688" stroke="#003D2E" stroke-width="0.4751" stroke-miterlimit="10" stroke-linecap="round" stroke-linejoin="round"/>
<path d="M147.18 17.1191V20.7891" stroke="#003D2E" stroke-width="0.4751" stroke-miterlimit="10" stroke-linecap="round" stroke-linejoin="round"/>
<path d="M23.27 80.9888L26.19 79.2988" stroke="#003D2E" stroke-width="0.4751" stroke-miterlimit="10" stroke-linecap="round" stroke-linejoin="round"/>
<path d="M29.12 80.9883L27.4 79.9883" stroke="#003D2E" stroke-width="0.4751" stroke-miterlimit="10" stroke-linecap="round" stroke-linejoin="round"/>
<path d="M26.1901 79.2989V75.8789" stroke="#003D2E" stroke-width="0.4751" stroke-miterlimit="10" stroke-linecap="round" stroke-linejoin="round"/>
<path d="M150.6 94.4785L152.77 93.2285" stroke="#003D2E" stroke-width="0.4751" stroke-miterlimit="10" stroke-linecap="round" stroke-linejoin="round"/>
<path d="M154.93 94.4799L153.98 93.9199" stroke="#003D2E" stroke-width="0.4751" stroke-miterlimit="10" stroke-linecap="round" stroke-linejoin="round"/>
<path d="M152.77 93.2295V90.6895" stroke="#003D2E" stroke-width="0.4751" stroke-miterlimit="10" stroke-linecap="round" stroke-linejoin="round"/>
<path d="M25.52 27.7285L27.69 26.4785" stroke="#003D2E" stroke-width="0.4751" stroke-miterlimit="10" stroke-linecap="round" stroke-linejoin="round"/>
<path d="M29.8601 27.73L28.5801 27" stroke="#003D2E" stroke-width="0.4751" stroke-miterlimit="10" stroke-linecap="round" stroke-linejoin="round"/>
<path d="M27.6901 26.4792V23.9492" stroke="#003D2E" stroke-width="0.4751" stroke-miterlimit="10" stroke-linecap="round" stroke-linejoin="round"/>
<path d="M71.77 9.2793L74.37 10.7793" stroke="#003D2E" stroke-width="0.4751" stroke-miterlimit="10" stroke-linecap="round" stroke-linejoin="round"/>
<path d="M76.9601 9.2793L75.4401 10.1593" stroke="#003D2E" stroke-width="0.4751" stroke-miterlimit="10" stroke-linecap="round" stroke-linejoin="round"/>
<path d="M74.37 10.7793V13.8093" stroke="#003D2E" stroke-width="0.4751" stroke-miterlimit="10" stroke-linecap="round" stroke-linejoin="round"/>
<path d="M15.62 45.7595C17.6193 45.7595 19.24 44.1388 19.24 42.1395C19.24 40.1403 17.6193 38.5195 15.62 38.5195C13.6207 38.5195 12 40.1403 12 42.1395C12 44.1388 13.6207 45.7595 15.62 45.7595Z" fill="#00FF94"/>
<path d="M155.36 67.0293C154.28 68.4793 152.91 69.7293 151.29 70.6593L146.75 73.2993" stroke="#003D2E" stroke-width="0.4751" stroke-miterlimit="10" stroke-linecap="round" stroke-linejoin="round"/>
<path d="M136.81 39.0391L151.29 47.4191C152.99 48.3991 154.42 49.7191 155.52 51.2591" stroke="#003D2E" stroke-width="0.4751" stroke-miterlimit="10" stroke-linecap="round" stroke-linejoin="round"/>
<path d="M131.15 51.269L121.95 45.959" stroke="#003D2E" stroke-width="0.4751" stroke-miterlimit="10" stroke-linecap="round" stroke-linejoin="round"/>
<path d="M64.01 39.0393V28.0293" stroke="#003D2E" stroke-width="0.4751" stroke-miterlimit="10" stroke-linecap="round" stroke-linejoin="round"/>
<path d="M50.59 51.2695L60.55 45.5195" stroke="#003D2E" stroke-width="0.4751" stroke-miterlimit="10" stroke-linecap="round" stroke-linejoin="round"/>
<path d="M26.33 67.0293C27.41 68.4793 28.78 69.7293 30.4 70.6593L34.94 73.2993" stroke="#003D2E" stroke-width="0.4751" stroke-miterlimit="10" stroke-linecap="round" stroke-linejoin="round"/>
<path d="M44.88 39.0391L30.4 47.4191C28.7 48.3991 27.27 49.7191 26.17 51.2591" stroke="#003D2E" stroke-width="0.4751" stroke-miterlimit="10" stroke-linecap="round" stroke-linejoin="round"/>
<path d="M90.87 15.5801L86.51 18.0901L90.87 20.6001L95.22 18.0901L90.87 15.5801Z" fill="#E3E7E3"/>
<path d="M90.87 20.5998V25.6198L95.22 23.1098V18.0898L90.87 20.5998Z" fill="#E3E7E3"/>
<path d="M90.87 20.5998V25.6198L86.51 23.1098V18.0898L90.87 20.5998Z" fill="#E3E7E3"/>
<path d="M90.87 27.2492L96.63 23.9192V17.2792L90.87 13.9492L85.1 17.2792" stroke="#003D2E" stroke-width="0.4751" stroke-miterlimit="10" stroke-linecap="round" stroke-linejoin="round"/>
<path d="M96.63 17.2793L90.87 20.5993" stroke="#003D2E" stroke-width="0.4751" stroke-miterlimit="10" stroke-linecap="round" stroke-linejoin="round"/>
<path d="M90.87 20.5996V27.2496" stroke="#003D2E" stroke-width="0.4751" stroke-miterlimit="10" stroke-linecap="round" stroke-linejoin="round"/>
<path d="M90.87 20.5993L85.1 17.2793" stroke="#003D2E" stroke-width="0.4751" stroke-miterlimit="10" stroke-linecap="round" stroke-linejoin="round"/>
<path d="M90.87 27.2493L85.1 23.9193V17.2793" stroke="#003D2E" stroke-width="0.4751" stroke-miterlimit="10" stroke-linecap="round" stroke-linejoin="round"/>
<path d="M158.96 53.9004L154.6 56.4104L158.96 58.9204L163.31 56.4104L158.96 53.9004Z" fill="#E3E7E3"/>
<path d="M158.96 58.9202V63.9402L163.31 61.4302V56.4102L158.96 58.9202Z" fill="#E3E7E3"/>
<path d="M158.96 58.9202V63.9402L154.6 61.4302V56.4102L158.96 58.9202Z" fill="#E3E7E3"/>
<path d="M158.96 65.5695L164.72 62.2495V55.5995L158.96 52.2695L153.2 55.5995" stroke="#003D2E" stroke-width="0.4751" stroke-miterlimit="10" stroke-linecap="round" stroke-linejoin="round"/>
<path d="M164.72 55.5996L158.96 58.9196" stroke="#003D2E" stroke-width="0.4751" stroke-miterlimit="10" stroke-linecap="round" stroke-linejoin="round"/>
<path d="M158.96 58.9199V65.5699" stroke="#003D2E" stroke-width="0.4751" stroke-miterlimit="10" stroke-linecap="round" stroke-linejoin="round"/>
<path d="M158.96 58.9196L153.2 55.5996" stroke="#003D2E" stroke-width="0.4751" stroke-miterlimit="10" stroke-linecap="round" stroke-linejoin="round"/>
<path d="M158.96 65.5696L153.2 62.2496V55.5996" stroke="#003D2E" stroke-width="0.4751" stroke-miterlimit="10" stroke-linecap="round" stroke-linejoin="round"/>
<path d="M90.87 91.6797L86.51 94.1897L90.87 96.6997L95.22 94.1897L90.87 91.6797Z" fill="#E3E7E3"/>
<path d="M90.87 96.6994V101.729L95.22 99.2094V94.1895L90.87 96.6994Z" fill="#E3E7E3"/>
<path d="M90.87 96.6994V101.729L86.51 99.2094V94.1895L90.87 96.6994Z" fill="#E3E7E3"/>
<path d="M90.87 103.349L96.63 100.029V93.3788L90.87 90.0488L85.1 93.3788" stroke="#003D2E" stroke-width="0.4751" stroke-miterlimit="10" stroke-linecap="round" stroke-linejoin="round"/>
<path d="M96.63 93.3789L90.87 96.6989" stroke="#003D2E" stroke-width="0.4751" stroke-miterlimit="10" stroke-linecap="round" stroke-linejoin="round"/>
<path d="M90.87 96.6992V103.349" stroke="#003D2E" stroke-width="0.4751" stroke-miterlimit="10" stroke-linecap="round" stroke-linejoin="round"/>
<path d="M90.87 96.6989L85.1 93.3789" stroke="#003D2E" stroke-width="0.4751" stroke-miterlimit="10" stroke-linecap="round" stroke-linejoin="round"/>
<path d="M90.87 103.349L85.1 100.029V93.3789" stroke="#003D2E" stroke-width="0.4751" stroke-miterlimit="10" stroke-linecap="round" stroke-linejoin="round"/>
<path d="M22.77 53.9004L18.42 56.4104L22.77 58.9204L27.13 56.4104L22.77 53.9004Z" fill="#E3E7E3"/>
<path d="M22.77 58.9202V63.9402L27.13 61.4302V56.4102L22.77 58.9202Z" fill="#E3E7E3"/>
<path d="M22.77 58.9202V63.9402L18.42 61.4302V56.4102L22.77 58.9202Z" fill="#E3E7E3"/>
<path d="M22.77 65.5695L28.54 62.2495V55.5995L22.77 52.2695L17.01 55.5995" stroke="#003D2E" stroke-width="0.4751" stroke-miterlimit="10" stroke-linecap="round" stroke-linejoin="round"/>
<path d="M28.54 55.5996L22.77 58.9196" stroke="#003D2E" stroke-width="0.4751" stroke-miterlimit="10" stroke-linecap="round" stroke-linejoin="round"/>
<path d="M22.77 58.9199V65.5699" stroke="#003D2E" stroke-width="0.4751" stroke-miterlimit="10" stroke-linecap="round" stroke-linejoin="round"/>
<path d="M22.77 58.9196L17.01 55.5996" stroke="#003D2E" stroke-width="0.4751" stroke-miterlimit="10" stroke-linecap="round" stroke-linejoin="round"/>
<path d="M22.77 65.5696L17.01 62.2496V55.5996" stroke="#003D2E" stroke-width="0.4751" stroke-miterlimit="10" stroke-linecap="round" stroke-linejoin="round"/>
<path d="M138.61 83.3591C138.57 82.6791 138.06 82.7691 137.42 83.1191L137.44 82.1191L136.94 82.4491L136.92 83.4191C136.79 83.5091 136.66 83.5991 136.52 83.6891L136.54 82.7091L136.04 83.0391L136.02 84.0391C135.91 84.1091 135.81 84.1791 135.7 84.2491L135.01 84.6991L135 85.3491C135 85.3491 135.37 85.0991 135.36 85.1091C135.56 84.9791 135.62 85.0791 135.64 85.1891L135.62 86.3291C135.63 86.3191 135.65 86.3091 135.67 86.2991C135.65 86.3091 135.64 86.3191 135.62 86.3291L135.59 87.9291C135.58 88.0091 135.54 88.1591 135.4 88.2491C135.41 88.2491 135.04 88.4891 135.04 88.4891L134.93 89.2791L135.58 88.8591C135.7 88.7791 135.82 88.7091 135.94 88.6291L135.92 89.6391L136.42 89.3091L136.44 88.3091C136.58 88.2191 136.71 88.1391 136.84 88.0491L136.82 89.0491L137.32 88.7191L137.34 87.7091C138.18 87.0991 138.77 86.4591 138.86 85.4491C138.93 84.6391 138.64 84.4891 138.17 84.6591C138.46 84.2991 138.64 83.8591 138.61 83.3591ZM137.87 85.9791C137.86 86.7391 136.8 87.3391 136.46 87.5591L136.49 86.2191C136.83 85.9991 137.89 85.1891 137.87 85.9791ZM137.68 84.2391C137.67 84.9291 136.79 85.4291 136.5 85.6091L136.52 84.3891C136.81 84.2091 137.69 83.5191 137.68 84.2391Z" fill="#003C2E"/>
<path d="M40.941 82.3398C40.9541 82.3587 40.9762 82.3805 40.9788 82.396C41.0039 82.5467 41.0931 82.6802 41.1987 82.8021C42.1685 83.9223 43.1384 85.0422 44.1111 86.1587C44.3461 86.4284 44.5222 86.4972 44.7305 86.4263C45.2065 86.2642 45.6819 86.1013 46.1566 85.937C46.4258 85.8438 46.6133 85.6504 46.6965 85.3369C46.7256 85.2274 46.7307 85.0994 46.7409 85.024C46.7629 85.3393 46.8099 85.7143 46.8083 86.0636C46.8063 86.4943 46.6264 86.77 46.3166 86.8883C45.8005 87.0854 45.2725 87.262 44.7442 87.4376C44.5724 87.4947 44.3777 87.3731 44.1912 87.1679C43.9999 86.9575 43.8098 86.745 43.6229 86.5289C42.8486 85.6335 42.076 84.7361 41.3021 83.8401C41.1696 83.6865 41.0622 83.527 41.0276 83.3428C41.0084 83.0597 40.9895 82.7769 40.969 82.4933C40.9674 82.4718 40.9544 82.4452 40.9467 82.4209C40.9448 82.3939 40.9429 82.3669 40.941 82.3398Z" fill="#003C2E"/>
<path d="M41.0971 84.5703C41.1092 84.5839 41.1305 84.6006 41.1322 84.6107C41.1595 84.7785 41.2652 84.9195 41.3808 85.0553C41.826 85.5779 42.2691 86.103 42.7184 86.6207C43.2158 87.1938 43.7186 87.7603 44.2199 88.3287C44.507 88.6544 44.6585 88.7227 44.9165 88.636C45.3741 88.4822 45.8283 88.3224 46.2855 88.168C46.558 88.076 46.7567 87.8936 46.8444 87.5796C46.8769 87.463 46.8839 87.3262 46.9194 87.2058C46.9344 87.5925 46.9728 87.9924 46.958 88.3622C46.9421 88.7584 46.7557 89.0047 46.4645 89.1147C45.9522 89.3083 45.4288 89.4827 44.9063 89.6582C44.7231 89.7198 44.5228 89.5881 44.3289 89.3719C44.0764 89.0902 43.8243 88.8076 43.5762 88.5205C42.861 87.6928 42.148 86.8625 41.434 86.0334C41.3064 85.8852 41.2116 85.7283 41.1813 85.5537C41.162 85.2671 41.1431 84.9806 41.1227 84.6935C41.1215 84.6754 41.1087 84.6521 41.1013 84.6312C41.0999 84.6109 41.0985 84.5906 41.0971 84.5703Z" fill="#003C2E"/>
<path d="M42.2794 82.8332C42.2938 82.8207 42.3008 82.8092 42.3122 82.8054C42.5894 82.7128 42.8608 82.6091 43.1464 82.5324C43.442 82.453 43.7762 82.4779 44.1517 82.6457C44.5016 82.8021 44.8275 83.0644 45.1299 83.4015C45.2761 83.5645 45.4186 83.7359 45.5506 83.9134C45.764 84.2002 45.8093 84.562 45.6671 84.7284C45.6353 84.7656 45.5986 84.7525 45.5497 84.698C45.4817 84.6222 45.4143 84.5458 45.3453 84.4716C44.6493 83.7214 43.9854 83.4305 43.3527 83.585C43.2522 83.6095 43.1528 83.6365 43.05 83.6564C43.0294 83.6604 42.9885 83.6474 42.9692 83.6259C42.7515 83.3842 42.536 83.1393 42.3204 82.8947C42.3075 82.8801 42.2979 82.8612 42.2794 82.8332Z" fill="#003C2E"/>
</svg>
