<svg width="192" height="108" viewBox="0 0 192 108" fill="none" xmlns="http://www.w3.org/2000/svg">
<path d="M57.33 44.5508H54.4C50.12 44.5508 46.25 46.0708 46.25 50.3508" stroke="#003D2E" stroke-width="0.4522" stroke-miterlimit="10" stroke-linecap="round" stroke-linejoin="round"/>
<path d="M90.1883 44.5508H78.9883" stroke="#003D2E" stroke-width="0.4522" stroke-miterlimit="10" stroke-linecap="round" stroke-linejoin="round"/>
<path d="M56.4419 46.2598H54.5719C50.2919 46.2598 46.4219 47.7798 46.4219 52.0598" stroke="#003D2E" stroke-width="0.4522" stroke-miterlimit="10" stroke-linecap="round" stroke-linejoin="round"/>
<path d="M90.3699 46.2598H79.8398" stroke="#003D2E" stroke-width="0.4522" stroke-miterlimit="10" stroke-linecap="round" stroke-linejoin="round"/>
<path d="M69.1116 63.2798C75.8826 63.2798 81.3716 57.7908 81.3716 51.0198C81.3716 44.2488 75.8826 38.7598 69.1116 38.7598C62.3406 38.7598 56.8516 44.2488 56.8516 51.0198C56.8516 57.7908 62.3406 63.2798 69.1116 63.2798Z" fill="#00FF94"/>
<path d="M67.7405 63.2798C74.5115 63.2798 80.0005 57.7908 80.0005 51.0198C80.0005 44.2488 74.5115 38.7598 67.7405 38.7598C60.9695 38.7598 55.4805 44.2488 55.4805 51.0198C55.4805 57.7908 60.9695 63.2798 67.7405 63.2798Z" stroke="#003C2E" stroke-width="0.4522" stroke-miterlimit="10" stroke-linecap="round" stroke-linejoin="round"/>
<path d="M62.543 46.4688C62.5663 46.4925 62.6071 46.5143 62.6102 46.5404C62.6392 46.7944 62.798 46.9649 62.9909 47.1014C64.7627 48.3544 66.535 49.6069 68.3132 50.8508C68.7427 51.1513 69.0833 51.1339 69.5072 50.836C70.4757 50.1552 71.4434 49.4733 72.4097 48.7896C72.9577 48.4019 73.3573 47.8979 73.5663 47.2597C73.6392 47.037 73.6673 46.7997 73.6979 46.6542C73.6979 47.2102 73.7392 47.8549 73.6874 48.492C73.6236 49.2775 73.2277 49.9252 72.5954 50.3916C71.5423 51.1685 70.4683 51.9179 69.3939 52.6658C69.0444 52.9089 68.6743 52.8452 68.332 52.623C67.981 52.3951 67.6328 52.1623 67.2914 51.9205C65.8768 50.9181 64.4657 49.9108 63.0522 48.9069C62.8101 48.7349 62.6188 48.5316 62.5757 48.2241C62.5768 47.7246 62.5785 47.225 62.5772 46.7255C62.5772 46.6875 62.5549 46.6496 62.543 46.6117C62.543 46.5641 62.543 46.5164 62.543 46.4688Z" fill="#003B2F"/>
<mask id="mask0_907_193" style="mask-type:luminance" maskUnits="userSpaceOnUse" x="62" y="46" width="12" height="8">
<path d="M73.8771 46.0566H62.1055V53.2037H73.8771V46.0566Z" fill="white"/>
<path d="M62.5391 46.4766C62.5624 46.5003 62.6032 46.5221 62.6063 46.5482C62.6353 46.8022 62.7941 46.9727 62.987 47.1092C64.7588 48.3622 66.5311 49.6147 68.3093 50.8586C68.7388 51.1591 69.0794 51.1417 69.5033 50.8438C70.4718 50.163 71.4395 49.4811 72.4058 48.7974C72.9538 48.4097 73.3534 47.9057 73.5624 47.2675C73.6353 47.0448 73.6634 46.8075 73.694 46.662C73.694 47.218 73.7353 47.8627 73.6835 48.4998C73.6197 49.2853 73.2238 49.933 72.5915 50.3994C71.5384 51.1764 70.4644 51.9257 69.39 52.6736C69.0405 52.9168 68.6704 52.8531 68.3281 52.6308C67.9771 52.4029 67.6289 52.1702 67.2875 51.9283C65.8729 50.9259 64.4618 49.9186 63.0483 48.9147C62.8062 48.7427 62.6149 48.5394 62.5718 48.2319C62.5729 47.7324 62.5746 47.2328 62.5733 46.7333C62.5732 46.6953 62.551 46.6574 62.5391 46.6196C62.5391 46.5719 62.5391 46.5242 62.5391 46.4766Z" fill="black"/>
</mask>
<g mask="url(#mask0_907_193)">
<path d="M62.5469 46.4707C62.5702 46.4945 62.611 46.5162 62.6141 46.5423C62.6431 46.7963 62.8019 46.9669 62.9948 47.1034C64.7666 48.3564 66.5389 49.6089 68.3171 50.8528C68.7466 51.1533 69.0872 51.1359 69.5111 50.838C70.4796 50.1572 71.4473 49.4753 72.4136 48.7915C72.9616 48.4038 73.3612 47.8998 73.5702 47.2616C73.6431 47.0389 73.6712 46.8017 73.7018 46.6562C73.7018 47.2122 73.7431 47.8568 73.6913 48.4939C73.6275 49.2794 73.2316 49.9272 72.5993 50.3936C71.5462 51.1705 70.4722 51.9199 69.3978 52.6677C69.0483 52.9109 68.6782 52.8472 68.3359 52.625C67.9849 52.397 67.6367 52.1643 67.2953 51.9224C65.8807 50.92 64.4696 49.9127 63.0561 48.9088C62.814 48.7368 62.6227 48.5335 62.5796 48.226C62.5807 47.7265 62.5824 47.2269 62.5811 46.7274C62.5811 46.6895 62.5588 46.6516 62.5469 46.6137C62.5469 46.5661 62.5469 46.5184 62.5469 46.4707Z" stroke="#003B2F" stroke-width="0.4" stroke-linejoin="round"/>
</g>
<path fill-rule="evenodd" clip-rule="evenodd" d="M62.5144 46.3339C62.5634 46.3139 62.6195 46.3255 62.6565 46.3632C62.6565 46.3632 62.657 46.3638 62.6584 46.3651C62.6601 46.3665 62.6622 46.3683 62.6653 46.3707C62.6663 46.3715 62.6675 46.3725 62.669 46.3737C62.6745 46.3781 62.6828 46.3848 62.6898 46.3909C62.6991 46.3989 62.7131 46.4117 62.7258 46.4284C62.7385 46.4451 62.7555 46.4731 62.7599 46.511C62.7828 46.7114 62.9065 46.8533 63.0866 46.9807C64.8583 48.2337 66.6301 49.4859 68.4079 50.7295C68.6088 50.87 68.7745 50.9262 68.9298 50.923C69.086 50.9197 69.2521 50.8557 69.4526 50.7148C70.4209 50.0341 71.3884 49.3524 72.3546 48.6688C72.8823 48.2953 73.2632 47.8134 73.4626 47.2047C73.5118 47.0542 73.5382 46.9034 73.5613 46.7707C73.5711 46.7143 73.5803 46.6612 73.5906 46.6129C73.6043 46.5477 73.665 46.5035 73.7312 46.5104C73.7974 46.5173 73.8478 46.5731 73.8478 46.6397C73.8478 46.7999 73.8513 46.9701 73.8551 47.147C73.864 47.5711 73.8737 48.0336 73.8368 48.4878C73.7697 49.3145 73.3518 49.9951 72.6925 50.4815C71.6378 51.2595 70.5625 52.0098 69.4883 52.7575C69.2896 52.8957 69.0802 52.9492 68.8708 52.9336C68.6639 52.9182 68.465 52.8363 68.2815 52.7171C67.9296 52.4886 67.5798 52.2548 67.2365 52.0116C66.398 51.4174 65.5605 50.8214 64.7231 50.2254C64.1479 49.8161 63.5728 49.4068 62.9975 48.9982C62.7434 48.8176 62.5179 48.5868 62.4676 48.2275C62.4668 48.2214 62.4663 48.2153 62.4663 48.2092C62.4666 48.1092 62.4668 48.0092 62.467 47.9092C62.4679 47.5104 62.4689 47.1119 62.4679 46.7133C62.4676 46.7121 62.4665 46.7079 62.4633 46.6994C62.4613 46.6941 62.4595 46.6893 62.4569 46.6831C62.4558 46.6803 62.4546 46.6772 62.4531 46.6736C62.4492 46.6635 62.4441 46.6504 62.4396 46.6363C62.4356 46.6236 62.4336 46.6105 62.4336 46.5972V46.4542C62.4336 46.4014 62.4655 46.3538 62.5144 46.3339ZM69.5273 50.8212C69.1035 51.1191 68.7629 51.1365 68.3334 50.836C66.5553 49.5922 64.7833 48.3397 63.0116 47.0867C62.8992 47.0073 62.7984 46.9164 62.7281 46.804C62.7096 46.7745 62.6932 46.7434 62.6792 46.7107C62.6639 46.675 62.6516 46.6372 62.6427 46.5972C62.641 46.5895 62.6394 46.5817 62.6379 46.5738C62.635 46.5582 62.6326 46.5422 62.6307 46.5259C62.6287 46.508 62.609 46.4922 62.5893 46.4764C62.5801 46.4691 62.571 46.4618 62.5636 46.4542V46.5972C62.5674 46.6092 62.5722 46.6212 62.577 46.6332C62.5874 46.6591 62.5978 46.685 62.5979 46.7109C62.5979 46.7539 62.598 46.7969 62.5981 46.8399C62.5987 47.1965 62.5979 47.5531 62.597 47.9097C62.5968 48.0096 62.5966 48.1095 62.5963 48.2094C62.6394 48.5169 62.8307 48.7202 63.0728 48.8922C63.6484 49.301 64.2236 49.7103 64.7988 50.1197C65.636 50.7156 66.4732 51.3114 67.3117 51.9055C67.653 52.1474 68.0012 52.3801 68.3523 52.6081C68.6944 52.8303 69.0646 52.894 69.414 52.6508C70.4884 51.903 71.5623 51.1537 72.6154 50.3768C73.2476 49.9104 73.6434 49.2627 73.7072 48.4773C73.7415 48.0558 73.735 47.6309 73.7267 47.2306C73.7262 47.2061 73.7257 47.1817 73.7252 47.1574C73.7214 46.9786 73.7178 46.8052 73.7178 46.6397C73.7091 46.6808 73.7007 46.7291 73.6913 46.7825C73.6693 46.909 73.6423 47.0632 73.5963 47.2131C73.593 47.2238 73.5896 47.2345 73.5861 47.2451C73.3771 47.8833 72.9776 48.3872 72.4297 48.7749C71.4634 49.4586 70.4957 50.1404 69.5273 50.8212Z" fill="#003B2F"/>
<mask id="mask1_907_193" style="mask-type:luminance" maskUnits="userSpaceOnUse" x="62" y="45" width="13" height="9">
<path d="M74.192 45.9043H62V53.0513H74.192V45.9043Z" fill="white"/>
</mask>
<g mask="url(#mask1_907_193)">
<path d="M63.0284 47.119L63.1034 47.0129L63.0348 46.9644L62.9598 47.0704L63.0284 47.119ZM62.639 46.3712L62.6984 46.4306L62.6989 46.4301L62.639 46.3712ZM62.4504 46.7213L62.5345 46.7211C62.5344 46.7144 62.5336 46.7078 62.5321 46.7013L62.4504 46.7213ZM62.5461 46.4622L62.6062 46.4033C62.5823 46.3789 62.546 46.3714 62.5143 46.3843C62.4827 46.3972 62.462 46.428 62.462 46.4622H62.5461ZM62.5461 46.6052H62.462C62.462 46.6137 62.4633 46.6222 62.4659 46.6304L62.5461 46.6052ZM62.5789 48.2174L62.4948 48.2172C62.4948 48.2212 62.495 48.2251 62.4956 48.2291L62.5789 48.2174ZM73.7003 46.6476H73.7844C73.7844 46.6046 73.7518 46.5684 73.709 46.564C73.6662 46.5595 73.6269 46.5881 73.618 46.6303L73.7003 46.6476ZM62.699 46.3123C62.6382 46.2502 62.5457 46.2311 62.4652 46.2639L62.5287 46.4197C62.546 46.4126 62.5659 46.4167 62.5789 46.43L62.699 46.3123ZM62.5795 46.3117C62.5945 46.2998 62.6251 46.2883 62.6386 46.2871C62.6471 46.2875 62.6606 46.2899 62.6658 46.2915C62.6748 46.2945 62.6812 46.2984 62.6828 46.2995C62.6874 46.3023 62.6907 46.3049 62.6914 46.3054C62.6936 46.3072 62.6952 46.3086 62.6955 46.3089C62.6965 46.3098 62.6973 46.3106 62.6974 46.3107C62.6979 46.3112 62.6984 46.3116 62.6984 46.3117C62.6986 46.3119 62.699 46.3123 62.699 46.3123C62.6989 46.3122 62.6992 46.3124 62.699 46.3123C62.6991 46.3124 62.6994 46.3127 62.6994 46.3127C62.6994 46.3127 62.6997 46.313 62.7 46.3133C62.7001 46.3135 62.7003 46.3137 62.7006 46.3139C62.7007 46.3141 62.7009 46.3143 62.7012 46.3146C62.7014 46.3148 62.702 46.3155 62.7027 46.3164C62.7031 46.3167 62.7038 46.3176 62.7048 46.3188C62.7052 46.3194 62.7063 46.3209 62.707 46.3217C62.7079 46.323 62.7103 46.3267 62.7118 46.3291C62.7145 46.3342 62.7216 46.3557 62.723 46.3727C62.707 46.4206 62.6394 46.4553 62.6125 46.451C62.605 46.4481 62.5948 46.4427 62.5919 46.4408C62.5903 46.4398 62.5878 46.4379 62.5868 46.4371C62.585 46.4357 62.5837 46.4346 62.5833 46.4342C62.5827 46.4337 62.5822 46.4332 62.5819 46.4329C62.5814 46.4324 62.5809 46.432 62.5808 46.4319C62.5803 46.4315 62.58 46.4311 62.5799 46.4311C62.5798 46.4309 62.5797 46.4308 62.5796 46.4307C62.5796 46.4308 62.5795 46.4306 62.5796 46.4307C62.5794 46.4305 62.5789 46.43 62.5789 46.43C62.5789 46.43 62.5789 46.43 62.5789 46.43L62.699 46.3123C62.699 46.3123 62.6986 46.3119 62.6984 46.3117C62.6985 46.3118 62.6984 46.3117 62.6984 46.3117C62.6983 46.3116 62.6982 46.3114 62.698 46.3113C62.6979 46.3112 62.6978 46.3111 62.6974 46.3107C62.6973 46.3105 62.6966 46.3099 62.696 46.3094C62.6957 46.3091 62.6952 46.3087 62.6947 46.3082C62.6942 46.3078 62.6932 46.3068 62.6914 46.3054C62.6904 46.3047 62.6876 46.3026 62.686 46.3015C62.6831 46.2996 62.6733 46.2943 62.6658 46.2915C62.6388 46.2872 62.571 46.3217 62.5549 46.3697C62.5563 46.3866 62.5635 46.4082 62.5662 46.4133C62.5676 46.4156 62.57 46.4193 62.571 46.4207C62.5716 46.4215 62.5727 46.4229 62.5732 46.4235C62.5741 46.4247 62.5749 46.4256 62.5752 46.426C62.576 46.4268 62.5766 46.4275 62.5768 46.4277C62.577 46.428 62.5772 46.4283 62.5774 46.4284C62.5776 46.4287 62.5778 46.4289 62.5779 46.429C62.5782 46.4293 62.5785 46.4296 62.5785 46.4296C62.5785 46.4296 62.5786 46.4297 62.5785 46.4296C62.5786 46.4297 62.5788 46.4299 62.5789 46.43C62.5789 46.43 62.5794 46.4305 62.5796 46.4307C62.5797 46.4308 62.5803 46.4313 62.5808 46.4319C62.5809 46.432 62.5815 46.4325 62.5825 46.4334C62.5828 46.4337 62.5847 46.4354 62.5868 46.4371C62.5875 46.4377 62.5905 46.4401 62.5951 46.4429C62.5968 46.444 62.6034 46.448 62.6125 46.451C62.6176 46.4525 62.6309 46.4549 62.6394 46.4553C62.6529 46.4541 62.6834 46.4426 62.6984 46.4306L62.5795 46.3117ZM62.696 46.3094C62.6958 46.3092 62.6961 46.3095 62.6964 46.3098C62.6966 46.3099 62.6968 46.3101 62.697 46.3103C62.697 46.3103 62.6965 46.3098 62.696 46.3094C62.6959 46.3093 62.6951 46.3085 62.694 46.3076C62.6936 46.3073 62.6919 46.3058 62.6896 46.304C62.6881 46.3029 62.6836 46.2999 62.6805 46.2981C62.6717 46.2937 62.6178 46.2898 62.579 46.3122L62.6989 46.4301C62.6602 46.4525 62.6062 46.4486 62.5975 46.4443C62.5944 46.4424 62.5898 46.4394 62.5884 46.4383C62.5861 46.4366 62.5843 46.4351 62.584 46.4348C62.5829 46.4339 62.5821 46.4331 62.5819 46.4329C62.5814 46.4324 62.5809 46.432 62.5808 46.4319C62.5808 46.4319 62.5807 46.4318 62.5808 46.4319C62.5809 46.432 62.581 46.432 62.5811 46.4322C62.5816 46.4326 62.582 46.433 62.5825 46.4334C62.5834 46.4343 62.5845 46.4353 62.5857 46.4364L62.696 46.3094ZM62.7007 46.3133C62.698 46.3111 62.697 46.3102 62.6964 46.3098L62.5857 46.4364C62.5885 46.4388 62.5915 46.4413 62.5949 46.444L62.7007 46.3133ZM62.7041 46.316C62.7026 46.3148 62.7015 46.314 62.7007 46.3133L62.5949 46.444C62.5961 46.445 62.5975 46.4461 62.5989 46.4472L62.7041 46.316ZM62.7274 46.3352C62.719 46.3279 62.7093 46.3202 62.7041 46.316L62.5989 46.4472C62.6046 46.4518 62.6117 46.4575 62.6173 46.4624L62.7274 46.3352ZM62.7753 46.3855C62.7574 46.3619 62.7383 46.3447 62.7274 46.3352L62.6173 46.4624C62.6249 46.4689 62.6339 46.4773 62.6413 46.4872L62.7753 46.3855ZM62.826 46.5094C62.8193 46.4511 62.7932 46.409 62.7753 46.3855L62.6413 46.4872C62.6488 46.4971 62.6569 46.511 62.6589 46.5286L62.826 46.5094ZM63.1176 46.92C62.9459 46.7985 62.8449 46.6752 62.826 46.5094L62.6589 46.5286C62.6857 46.7635 62.832 46.924 63.0205 47.0573L63.1176 46.92ZM68.4387 50.6685C66.661 49.4251 64.8894 48.1729 63.1176 46.92L63.0205 47.0573C64.7923 48.3102 66.5642 49.5626 68.3423 50.8063L68.4387 50.6685ZM68.9105 50.8469C68.779 50.8496 68.6305 50.8027 68.4387 50.6685L68.3423 50.8063C68.5521 50.9532 68.7352 51.0188 68.9141 51.015L68.9105 50.8469ZM69.3867 50.654C69.1937 50.7896 69.0438 50.8441 68.9105 50.8469L68.9141 51.015C69.0933 51.0112 69.2755 50.9377 69.4834 50.7915L69.3867 50.654ZM72.2885 48.6081C71.3225 49.2916 70.355 49.9733 69.3867 50.654L69.4834 50.7915C70.4518 50.1108 71.4194 49.429 72.3857 48.7453L72.2885 48.6081ZM73.3652 47.1864C73.1721 47.776 72.8033 48.2439 72.2885 48.6081L72.3857 48.7453C72.9265 48.3627 73.3194 47.8665 73.525 47.2387L73.3652 47.1864ZM73.4609 46.7642C73.4377 46.8976 73.4123 47.0426 73.3652 47.1864L73.525 47.2387C73.5764 47.0817 73.6036 46.9251 73.6266 46.7931L73.4609 46.7642ZM73.4908 46.6034C73.4802 46.6536 73.4707 46.7082 73.4609 46.7642L73.6266 46.7931C73.6365 46.7364 73.6455 46.6848 73.6554 46.6382L73.4908 46.6034ZM73.7225 46.4347C73.6134 46.4233 73.5134 46.4962 73.4908 46.6034L73.6554 46.6382C73.6602 46.6151 73.6817 46.5995 73.705 46.602L73.7225 46.4347ZM73.9144 46.6476C73.9144 46.538 73.8316 46.4461 73.7225 46.4347L73.705 46.602C73.7284 46.6044 73.7462 46.6241 73.7462 46.6476H73.9144ZM73.9217 47.1531C73.9179 46.9761 73.9144 46.8067 73.9144 46.6476H73.7462C73.7462 46.8088 73.7498 46.98 73.7535 47.1567L73.9217 47.1531ZM73.9032 48.5026C73.9405 48.0433 73.9306 47.5766 73.9217 47.1531L73.7535 47.1567C73.7625 47.5815 73.772 48.0397 73.7355 48.489L73.9032 48.5026ZM72.7249 50.5571C73.4017 50.0578 73.8338 49.356 73.9032 48.5026L73.7355 48.489C73.6705 49.289 73.2669 49.9483 72.6251 50.4217L72.7249 50.5571ZM69.5188 52.8344C70.593 52.0868 71.6692 51.3359 72.7249 50.5571L72.6251 50.4217C71.5715 51.199 70.4971 51.9487 69.4228 52.6964L69.5188 52.8344ZM68.8471 53.0254C69.0763 53.0424 69.3047 52.9834 69.5188 52.8344L69.4228 52.6964C69.2396 52.8239 69.0493 52.8718 68.8596 52.8577L68.8471 53.0254ZM68.2182 52.7956C68.4097 52.92 68.6221 53.0087 68.8471 53.0254L68.8596 52.8577C68.6707 52.8436 68.4853 52.7685 68.3098 52.6545L68.2182 52.7956ZM67.1704 52.0882C67.5149 52.3323 67.8657 52.5667 68.2182 52.7956L68.3098 52.6545C67.9585 52.4264 67.6097 52.1933 67.2677 51.9509L67.1704 52.0882ZM64.6569 50.3019C65.4942 50.8978 66.3318 51.4939 67.1704 52.0882L67.2677 51.9509C66.4292 51.3568 65.5918 50.7608 64.7544 50.1648L64.6569 50.3019ZM62.9314 49.0746C63.5066 49.4832 64.0817 49.8925 64.6569 50.3019L64.7544 50.1648C64.1792 49.7555 63.6041 49.3462 63.0287 48.9375L62.9314 49.0746ZM62.3668 48.2471C62.4219 48.64 62.6694 48.8885 62.9314 49.0746L63.0287 48.9375C62.7823 48.7624 62.579 48.5495 62.5334 48.2238L62.3668 48.2471ZM62.3648 48.217C62.3648 48.227 62.3655 48.2371 62.3668 48.2471L62.5334 48.2238C62.5331 48.2216 62.533 48.2195 62.533 48.2173L62.3648 48.217ZM62.3655 47.917C62.3652 48.017 62.365 48.1169 62.3648 48.217L62.533 48.2173C62.5332 48.1173 62.5334 48.0173 62.5336 47.9174L62.3655 47.917ZM62.3663 46.7215C62.3673 47.1198 62.3664 47.5181 62.3655 47.917L62.5336 47.9174C62.5346 47.5185 62.5355 47.1198 62.5345 46.7211L62.3663 46.7215ZM62.3671 46.7367C62.3681 46.7396 62.3687 46.7412 62.3688 46.7417C62.3688 46.7417 62.3687 46.7413 62.3687 46.7413L62.5321 46.7013C62.531 46.6969 62.529 46.6896 62.5247 46.678L62.3671 46.7367ZM62.3614 46.7223C62.364 46.7287 62.3655 46.7325 62.3671 46.7367L62.5247 46.678C62.5222 46.6715 62.5199 46.6658 62.5175 46.6597L62.3614 46.7223ZM62.3576 46.7126C62.359 46.7163 62.3603 46.7195 62.3614 46.7223L62.5175 46.6597C62.5163 46.6569 62.5152 46.6539 62.5138 46.6505L62.3576 46.7126ZM62.3419 46.6695C62.3473 46.6867 62.3533 46.7021 62.3576 46.7126L62.5138 46.6505C62.51 46.6408 62.5058 46.6301 62.5023 46.6189L62.3419 46.6695ZM62.332 46.6052C62.332 46.627 62.3354 46.6487 62.3419 46.6695L62.5023 46.6189C62.5009 46.6145 62.5002 46.6098 62.5002 46.6052H62.332ZM62.4652 46.2639C62.3847 46.2968 62.332 46.3752 62.332 46.4622H62.5002C62.5002 46.4435 62.5115 46.4267 62.5287 46.4197L62.4652 46.2639ZM68.2677 50.9128C68.4915 51.0693 68.7013 51.1495 68.9168 51.145C69.1316 51.1405 69.3389 51.0521 69.5582 50.8979L69.4615 50.7603C69.257 50.9041 69.0821 50.9733 68.9133 50.9769C68.7451 50.9804 68.5699 50.919 68.3641 50.775L68.2677 50.9128ZM62.9456 47.1633C64.7172 48.4162 66.4894 49.6689 68.2677 50.9128L68.3641 50.775C66.5862 49.5314 64.8144 48.279 63.0426 47.026L62.9456 47.1633ZM62.6393 46.8566C62.7178 46.982 62.8285 47.0805 62.9456 47.1633L63.0426 47.026C62.935 46.9499 62.8439 46.8666 62.7818 46.7674L62.6393 46.8566ZM62.5844 46.7516C62.6001 46.7886 62.6186 46.8235 62.6393 46.8566L62.7818 46.7674C62.7655 46.7413 62.7512 46.7141 62.7391 46.6857L62.5844 46.7516ZM62.5432 46.6235C62.5532 46.6686 62.5671 46.7112 62.5844 46.7516L62.7391 46.6857C62.7258 46.6546 62.7151 46.6217 62.7073 46.5868L62.5432 46.6235ZM62.5378 46.5971C62.5394 46.606 62.5412 46.6148 62.5432 46.6235L62.7073 46.5868C62.7058 46.5801 62.7044 46.5732 62.7031 46.5663L62.5378 46.5971ZM62.5297 46.5433C62.5318 46.5616 62.5345 46.5795 62.5378 46.5971L62.7031 46.5663C62.7006 46.5526 62.6984 46.5386 62.6968 46.5243L62.5297 46.5433ZM62.5192 46.5499C62.5243 46.5541 62.5282 46.5572 62.5316 46.5601C62.535 46.563 62.5369 46.5648 62.5378 46.5658C62.5388 46.5669 62.5376 46.5659 62.5359 46.5628C62.534 46.5596 62.5308 46.5529 62.5297 46.5433L62.6968 46.5243C62.6927 46.4883 62.6723 46.4634 62.6605 46.4508C62.6479 46.4374 62.6331 46.4257 62.6244 46.4188L62.5192 46.5499ZM62.486 46.521C62.4976 46.5328 62.511 46.5434 62.5192 46.5499L62.6244 46.4188C62.6143 46.4107 62.6093 46.4065 62.6062 46.4033L62.486 46.521ZM62.6376 46.6099C62.6325 46.5973 62.629 46.5883 62.6263 46.5799L62.4659 46.6304C62.4708 46.646 62.4769 46.661 62.4815 46.6725L62.6376 46.6099ZM62.6645 46.7187C62.6643 46.6736 62.6465 46.6322 62.6376 46.6099L62.4815 46.6725C62.4933 46.7019 62.4963 46.7123 62.4963 46.7191L62.6645 46.7187ZM62.6647 46.8477C62.6646 46.8046 62.6645 46.7617 62.6645 46.7187L62.4963 46.7191C62.4964 46.762 62.4965 46.805 62.4965 46.8479L62.6647 46.8477ZM62.6636 47.9179C62.6645 47.5612 62.6653 47.2045 62.6647 46.8477L62.4965 46.8479C62.4971 47.2043 62.4963 47.5608 62.4955 47.9174L62.6636 47.9179ZM62.663 48.2176C62.6632 48.1176 62.6634 48.0178 62.6636 47.9179L62.4955 47.9174C62.4952 48.0174 62.495 48.1173 62.4948 48.2172L62.663 48.2176ZM63.104 48.8316C62.8697 48.6651 62.7005 48.4796 62.6622 48.2057L62.4956 48.2291C62.5433 48.57 62.7567 48.7911 63.0066 48.9687L63.104 48.8316ZM64.83 50.0591C64.2549 49.6498 63.6796 49.2404 63.104 48.8316L63.0066 48.9687C63.5822 49.3775 64.1573 49.7868 64.7325 50.1961L64.83 50.0591ZM67.3428 51.8449C66.5044 51.2508 65.6673 50.655 64.83 50.0591L64.7325 50.1961C65.5698 50.792 66.407 51.3879 67.2456 51.9821L67.3428 51.8449ZM68.3806 52.5455C68.0302 52.3179 67.6829 52.0859 67.3428 51.8449L67.2456 51.9821C67.5881 52.2249 67.9374 52.4582 68.289 52.6865L68.3806 52.5455ZM69.3485 52.5897C69.1893 52.7005 69.0285 52.7399 68.8692 52.728C68.7083 52.7161 68.5437 52.6514 68.3806 52.5455L68.289 52.6865C68.4681 52.8029 68.6597 52.8811 68.8567 52.8957C69.0554 52.9105 69.2544 52.8601 69.4445 52.7277L69.3485 52.5897ZM72.5479 50.3171C71.4959 51.0932 70.423 51.8419 69.3485 52.5897L69.4445 52.7277C70.5189 51.98 71.5937 51.2301 72.6478 50.4525L72.5479 50.3171ZM73.606 48.4785C73.5443 49.2372 73.1627 49.8636 72.5479 50.3171L72.6478 50.4525C73.2975 49.9731 73.7076 49.3042 73.7736 48.4921L73.606 48.4785ZM73.6252 47.2403C73.6335 47.6408 73.6398 48.0617 73.606 48.4785L73.7736 48.4921C73.8082 48.0657 73.8016 47.6369 73.7933 47.2368L73.6252 47.2403ZM73.6237 47.1671C73.6242 47.1914 73.6247 47.2158 73.6252 47.2403L73.7933 47.2368C73.7928 47.2123 73.7923 47.1879 73.7918 47.1635L73.6237 47.1671ZM73.6162 46.6476C73.6162 46.8142 73.6199 46.9885 73.6237 47.1671L73.7918 47.1635C73.788 46.9846 73.7844 46.8121 73.7844 46.6476H73.6162ZM73.7567 46.8049C73.7661 46.7511 73.7742 46.7043 73.7826 46.6649L73.618 46.6303C73.609 46.6731 73.6003 46.723 73.591 46.7759L73.7567 46.8049ZM73.6592 47.2458C73.707 47.09 73.7347 46.9307 73.7567 46.8049L73.591 46.7759C73.5688 46.9031 73.5427 47.0522 73.4984 47.1964L73.6592 47.2458ZM73.6485 47.2792C73.6522 47.268 73.6557 47.2569 73.6592 47.2458L73.4984 47.1964C73.4953 47.2066 73.4921 47.2167 73.4887 47.2269L73.6485 47.2792ZM72.4607 48.8515C73.0216 48.4546 73.4333 47.9364 73.6485 47.2792L73.4887 47.2269C73.286 47.846 72.8985 48.3357 72.3636 48.7142L72.4607 48.8515ZM69.5582 50.8979C70.5266 50.2171 71.4944 49.5352 72.4607 48.8515L72.3636 48.7142C71.3974 49.3978 70.4299 50.0796 69.4615 50.7603L69.5582 50.8979ZM62.332 46.4622V46.6052H62.5002V46.4622H62.332ZM62.6302 46.6052V46.4622H62.462V46.6052H62.6302Z" fill="#003B2F"/>
</g>
<path fill-rule="evenodd" clip-rule="evenodd" d="M62.5144 46.3358C62.5634 46.3158 62.6195 46.3275 62.6565 46.3652C62.6565 46.3652 62.657 46.3657 62.6584 46.367C62.6601 46.3684 62.6622 46.3702 62.6653 46.3727C62.6663 46.3735 62.6675 46.3745 62.669 46.3757C62.6745 46.38 62.6828 46.3867 62.6898 46.3928C62.6991 46.4008 62.7131 46.4136 62.7258 46.4304C62.7385 46.4471 62.7555 46.4751 62.7599 46.513C62.7828 46.7134 62.9065 46.8553 63.0866 46.9827C64.8583 48.2356 66.6301 49.4879 68.4079 50.7314C68.6088 50.8719 68.7745 50.9282 68.9298 50.925C69.086 50.9217 69.2521 50.8577 69.4526 50.7168C70.4209 50.0361 71.3884 49.3543 72.3546 48.6707C72.8823 48.2973 73.2632 47.8153 73.4626 47.2066C73.5118 47.0561 73.5382 46.9053 73.5613 46.7727C73.5711 46.7163 73.5803 46.6632 73.5906 46.6148C73.6043 46.5496 73.665 46.5054 73.7312 46.5123C73.7974 46.5192 73.8478 46.575 73.8478 46.6416C73.8478 46.8018 73.8513 46.972 73.8551 47.1489C73.864 47.5731 73.8737 48.0355 73.8368 48.4898C73.7697 49.3165 73.3518 49.9971 72.6925 50.4834C71.6378 51.2615 70.5625 52.0118 69.4883 52.7595C69.2896 52.8977 69.0802 52.9511 68.8708 52.9355C68.6639 52.9202 68.465 52.8382 68.2815 52.7191C67.9296 52.4905 67.5798 52.2568 67.2365 52.0136C66.398 51.4194 65.5605 50.8233 64.7231 50.2274C64.1479 49.818 63.5728 49.4087 62.9975 49.0001C62.7434 48.8195 62.5179 48.5887 62.4676 48.2294C62.4668 48.2234 62.4663 48.2173 62.4663 48.2111C62.4666 48.1112 62.4668 48.0112 62.467 47.9112C62.4679 47.5123 62.4689 47.1138 62.4679 46.7153C62.4676 46.714 62.4665 46.7099 62.4633 46.7014C62.4613 46.696 62.4595 46.6912 62.4569 46.685C62.4558 46.6822 62.4546 46.6791 62.4531 46.6756C62.4492 46.6655 62.4441 46.6524 62.4396 46.6382C62.4356 46.6256 62.4336 46.6124 62.4336 46.5992V46.4562C62.4336 46.4033 62.4655 46.3558 62.5144 46.3358ZM69.5273 50.8231C69.1035 51.121 68.7629 51.1384 68.3334 50.8379C66.5553 49.5941 64.7833 48.3416 63.0116 47.0887C62.8992 47.0092 62.7984 46.9183 62.7281 46.806C62.7096 46.7764 62.6932 46.7454 62.6792 46.7127C62.6639 46.6769 62.6516 46.6392 62.6427 46.5992C62.641 46.5914 62.6394 46.5837 62.6379 46.5758C62.635 46.5601 62.6326 46.5441 62.6307 46.5278C62.6287 46.51 62.609 46.4942 62.5893 46.4784C62.5801 46.471 62.571 46.4637 62.5636 46.4562V46.5992C62.5674 46.6112 62.5722 46.6232 62.577 46.6352C62.5874 46.6611 62.5978 46.687 62.5979 46.7129C62.5979 46.7559 62.598 46.7988 62.5981 46.8418C62.5987 47.1985 62.5979 47.5551 62.597 47.9117C62.5968 48.0116 62.5966 48.1115 62.5963 48.2114C62.6394 48.5188 62.8307 48.7221 63.0728 48.8941C63.6484 49.3029 64.2236 49.7123 64.7988 50.1216C65.636 50.7175 66.4732 51.3134 67.3117 51.9075C67.653 52.1494 68.0012 52.3821 68.3523 52.61C68.6944 52.8322 69.0646 52.8959 69.414 52.6528C70.4884 51.905 71.5623 51.1556 72.6154 50.3788C73.2476 49.9124 73.6434 49.2647 73.7072 48.4793C73.7415 48.0577 73.735 47.6329 73.7267 47.2326C73.7262 47.2081 73.7257 47.1837 73.7252 47.1593C73.7214 46.9806 73.7178 46.8072 73.7178 46.6416C73.7091 46.6827 73.7007 46.7311 73.6913 46.7844C73.6693 46.9109 73.6423 47.0651 73.5963 47.2151C73.593 47.2258 73.5896 47.2364 73.5861 47.2471C73.3771 47.8852 72.9776 48.3892 72.4297 48.7768C71.4634 49.4605 70.4957 50.1424 69.5273 50.8231Z" fill="#003B2F"/>
<path d="M65.1328 46.2783C65.1632 46.2439 65.1788 46.2173 65.2018 46.2013C65.7657 45.808 66.3195 45.3994 66.8978 45.0283C67.4962 44.6443 68.157 44.4188 68.8799 44.4199C69.5536 44.421 70.1649 44.6343 70.719 45.0028C70.9869 45.1809 71.2463 45.3775 71.4839 45.5935C71.8682 45.9427 71.9079 46.5645 71.6022 46.9825C71.5339 47.0759 71.4628 47.0819 71.3731 47.0223C71.2486 46.9395 71.1251 46.8551 70.9984 46.7758C69.7195 45.9744 68.4403 45.983 67.1615 46.7769C66.9583 46.903 66.7571 47.0326 66.55 47.1522C66.5085 47.1762 66.429 47.1856 66.3935 47.1622C65.9945 46.8986 65.6004 46.6274 65.2058 46.3571C65.1822 46.3409 65.1657 46.3144 65.1328 46.2783Z" fill="#003B2F"/>
<mask id="mask2_907_193" style="mask-type:luminance" maskUnits="userSpaceOnUse" x="64" y="44" width="9" height="4">
<path d="M72.3047 44H64.7383V47.3629H72.3047V44Z" fill="white"/>
</mask>
<g mask="url(#mask2_907_193)">
<path d="M65.1562 46.2783C65.1866 46.2439 65.2022 46.2173 65.2253 46.2013C65.7891 45.808 66.343 45.3994 66.9212 45.0283C67.5196 44.6443 68.1804 44.4188 68.9033 44.4199C69.5771 44.421 70.1884 44.6343 70.7425 45.0028C71.0104 45.1809 71.2697 45.3775 71.5074 45.5935C71.8916 45.9427 71.9314 46.5645 71.6256 46.9825C71.5573 47.0759 71.4862 47.0819 71.3966 47.0223C71.272 46.9395 71.1486 46.8551 71.0219 46.7758C69.7429 45.9744 68.4637 45.983 67.185 46.7769C66.9817 46.903 66.7805 47.0326 66.5734 47.1522C66.5319 47.1762 66.4525 47.1856 66.417 47.1622C66.0179 46.8986 65.6238 46.6274 65.2292 46.3571C65.2056 46.3409 65.1892 46.3144 65.1562 46.2783Z" stroke="#003B2F" stroke-width="0.4" stroke-linejoin="round"/>
</g>
<path d="M65.168 46.2783C65.1983 46.2439 65.2139 46.2173 65.237 46.2013C65.8008 45.808 66.3547 45.3994 66.9329 45.0283C67.5313 44.6443 68.1921 44.4188 68.915 44.4199C69.5888 44.421 70.2001 44.6343 70.7542 45.0028C71.0221 45.1809 71.2814 45.3775 71.5191 45.5935C71.9033 45.9427 71.9431 46.5645 71.6373 46.9825C71.569 47.0759 71.498 47.0819 71.4083 47.0223C71.2838 46.9395 71.1603 46.8551 71.0336 46.7758C69.7547 45.9744 68.4754 45.983 67.1967 46.7769C66.9934 46.903 66.7923 47.0326 66.5852 47.1522C66.5436 47.1762 66.4642 47.1856 66.4287 47.1622C66.0296 46.8986 65.6355 46.6274 65.241 46.3571C65.2173 46.3409 65.2009 46.3144 65.168 46.2783Z" fill="#003B2F"/>
<path d="M62.5431 50.2773C62.5653 50.2923 62.6054 50.3053 62.6073 50.3224C62.6382 50.6056 62.8286 50.7766 63.0396 50.9301C63.8518 51.5208 64.6596 52.1174 65.4806 52.6956C66.3896 53.3357 67.3104 53.9593 68.2276 54.5878C68.7532 54.9479 69.0448 54.9494 69.5696 54.5825C70.5005 53.9318 71.4256 53.2728 72.3558 52.6212C72.9103 52.2328 73.3305 51.7398 73.5484 51.0972C73.6293 50.8586 73.6622 50.6039 73.7495 50.3561C73.7255 51.0477 73.7462 51.7446 73.6654 52.4297C73.5788 53.1637 73.1741 53.7631 72.58 54.1994C71.5349 54.9668 70.4703 55.7084 69.4072 56.4515C69.0346 56.712 68.6548 56.6346 68.2995 56.3982C67.8367 56.0901 67.3749 55.7801 66.9216 55.4585C65.6152 54.5314 64.3132 53.5981 63.0094 52.6674C62.7764 52.501 62.6098 52.2922 62.5737 51.9992C62.5753 51.4931 62.5776 50.9869 62.5769 50.4808C62.5769 50.4488 62.5548 50.4167 62.543 50.3847C62.5431 50.3489 62.5431 50.3131 62.5431 50.2773Z" fill="#003B2F"/>
<mask id="mask3_907_193" style="mask-type:luminance" maskUnits="userSpaceOnUse" x="62" y="49" width="13" height="8">
<path d="M74.2975 49.8516H62.1055V56.9986H74.2975V49.8516Z" fill="white"/>
</mask>
<g mask="url(#mask3_907_193)">
<path d="M62.547 50.2773C62.5692 50.2923 62.6093 50.3053 62.6112 50.3224C62.6421 50.6056 62.8325 50.7766 63.0435 50.9301C63.8557 51.5208 64.6635 52.1174 65.4845 52.6956C66.3935 53.3357 67.3143 53.9593 68.2315 54.5878C68.7571 54.9479 69.0487 54.9494 69.5735 54.5825C70.5044 53.9318 71.4295 53.2728 72.3597 52.6212C72.9142 52.2328 73.3344 51.7398 73.5524 51.0972C73.6332 50.8586 73.6661 50.6039 73.7534 50.3561C73.7294 51.0477 73.7501 51.7446 73.6693 52.4297C73.5827 53.1637 73.178 53.7631 72.5839 54.1994C71.5388 54.9668 70.4742 55.7084 69.4111 56.4515C69.0385 56.712 68.6587 56.6346 68.3034 56.3982C67.8406 56.0901 67.3788 55.7801 66.9255 55.4585C65.6191 54.5314 64.3171 53.5981 63.0133 52.6674C62.7803 52.501 62.6137 52.2922 62.5776 51.9992C62.5792 51.4931 62.5815 50.9869 62.5808 50.4808C62.5808 50.4488 62.5587 50.4167 62.5469 50.3847C62.547 50.3489 62.547 50.3131 62.547 50.2773Z" stroke="#003B2F" stroke-width="0.4" stroke-linejoin="round"/>
</g>
<path d="M62.5391 50.2734C62.5614 50.2884 62.6015 50.3014 62.6034 50.3185C62.6343 50.6017 62.8247 50.7727 63.0357 50.9262C63.8479 51.5169 64.6557 52.1135 65.4767 52.6917C66.3857 53.3318 67.3065 53.9554 68.2237 54.5838C68.7493 54.944 69.0409 54.9455 69.5657 54.5786C70.4966 53.9279 71.4217 53.2689 72.3519 52.6173C72.9064 52.2289 73.3266 51.7359 73.5445 51.0933C73.6254 50.8547 73.6583 50.6 73.7456 50.3521C73.7216 51.0438 73.7423 51.7407 73.6615 52.4258C73.5749 53.1598 73.1702 53.7592 72.5761 54.1955C71.531 54.9629 70.4664 55.7045 69.4033 56.4476C69.0307 56.7081 68.6509 56.6307 68.2956 56.3943C67.8328 56.0862 67.371 55.7762 66.9177 55.4546C65.6113 54.5275 64.3093 53.5942 63.0055 52.6634C62.7725 52.4971 62.6059 52.2883 62.5698 51.9953C62.5714 51.4891 62.5737 50.983 62.573 50.4769C62.573 50.4449 62.5509 50.4128 62.5391 50.3808C62.5391 50.345 62.5391 50.3092 62.5391 50.2734Z" fill="#003B2F"/>
<path d="M46.2383 50C46.2383 53.01 49.7683 55.45 54.1283 55.45H90.5983V81.33H52.7483C49.1583 81.33 46.2483 78.42 46.2483 74.83V50" fill="#E3E7E3"/>
<path d="M83.5083 81.3198H54.2983C49.9383 81.3198 46.4083 78.8798 46.4083 75.8698L46.2383 50.3398" stroke="#003D2E" stroke-width="0.4522" stroke-miterlimit="10" stroke-linecap="round" stroke-linejoin="round"/>
<path d="M46.25 50.0605C46.25 53.0705 49.95 55.4405 54.3 55.4405H90.77V81.3205" stroke="#003D2E" stroke-width="0.4522" stroke-miterlimit="10" stroke-linecap="round" stroke-linejoin="round"/>
<path d="M54.1283 44.5508C49.7683 44.5508 46.2383 46.9908 46.2383 50.0008C46.2383 53.0108 49.7683 55.4508 54.1283 55.4508H90.5983V81.3308" stroke="#003D2E" stroke-width="0.4522" stroke-miterlimit="10" stroke-linecap="round" stroke-linejoin="round"/>
<path d="M85.4917 40.5095C84.1117 28.3995 92.8017 17.4695 104.912 16.0795C105.742 15.9895 106.572 15.9395 107.412 15.9395C113.262 15.9295 118.872 18.2595 123.012 22.3995" stroke="#003D2E" stroke-width="0.4522" stroke-miterlimit="10" stroke-linecap="round" stroke-linejoin="round"/>
<path d="M81.25 35.0801L85.45 40.7901L90.76 36.2701" stroke="#003D2E" stroke-width="0.4522" stroke-miterlimit="10" stroke-linecap="round" stroke-linejoin="round"/>
<path d="M123.071 69.4004C124.451 81.5104 115.761 92.4404 103.651 93.8304C102.821 93.9204 101.991 93.9704 101.151 93.9704C95.3008 93.9804 89.6908 91.6504 85.5508 87.5104" stroke="#003D2E" stroke-width="0.4522" stroke-miterlimit="10" stroke-linecap="round" stroke-linejoin="round"/>
<path d="M127.311 74.8291L123.111 69.1191L117.801 73.6391" stroke="#003D2E" stroke-width="0.4522" stroke-miterlimit="10" stroke-linecap="round" stroke-linejoin="round"/>
<path d="M166.23 87.5793H145.4C143.11 87.5793 141.25 85.7193 141.25 83.4293C141.25 81.1393 143.11 79.2793 145.4 79.2793H166.23C168.52 79.2793 170.38 81.1393 170.38 83.4293C170.39 85.7193 168.52 87.5793 166.23 87.5793Z" fill="#00FF94"/>
<path d="M173.48 95.8898H152.65C150.36 95.8898 148.5 94.0298 148.5 91.7398C148.5 89.4498 150.36 87.5898 152.65 87.5898H173.48C175.77 87.5898 177.63 89.4498 177.63 91.7398C177.64 94.0298 175.78 95.8898 173.48 95.8898Z" fill="#00FF94"/>
<path d="M155.679 91.7297H134.849C132.559 91.7297 130.699 89.8697 130.699 87.5797C130.699 85.2897 132.559 83.4297 134.849 83.4297H155.679C157.969 83.4297 159.829 85.2897 159.829 87.5797C159.839 89.8697 157.979 91.7297 155.679 91.7297Z" fill="#00FF94"/>
<path d="M58.4016 20.9908H53.2216C54.8616 20.9908 56.1916 19.6608 56.1916 18.0208C56.1916 16.3808 54.8616 15.0508 53.2216 15.0508H38.3516C36.7116 15.0508 35.3816 16.3808 35.3816 18.0208H30.8216C29.1816 18.0208 27.8516 19.3508 27.8516 20.9908C27.8516 22.6308 29.1816 23.9608 30.8216 23.9608H40.5616C40.5616 25.6008 41.8916 26.9308 43.5316 26.9308H58.4016C60.0416 26.9308 61.3716 25.6008 61.3716 23.9608C61.3716 22.3108 60.0416 20.9908 58.4016 20.9908Z" stroke="#003D2E" stroke-width="0.4522" stroke-miterlimit="10" stroke-linecap="round" stroke-linejoin="round"/>
<path d="M76.7617 91.7295L79.0017 90.4395" stroke="#003D2E" stroke-width="0.4522" stroke-miterlimit="10" stroke-linecap="round" stroke-linejoin="round"/>
<path d="M81.2497 91.7307L79.9297 90.9707" stroke="#003D2E" stroke-width="0.4522" stroke-miterlimit="10" stroke-linecap="round" stroke-linejoin="round"/>
<path d="M79 90.4403V87.8203" stroke="#003D2E" stroke-width="0.4522" stroke-miterlimit="10" stroke-linecap="round" stroke-linejoin="round"/>
<path d="M32.5 59.7109L35.19 61.2609" stroke="#003D2E" stroke-width="0.4522" stroke-miterlimit="10" stroke-linecap="round" stroke-linejoin="round"/>
<path d="M37.8808 59.7109L36.3008 60.6209" stroke="#003D2E" stroke-width="0.4522" stroke-miterlimit="10" stroke-linecap="round" stroke-linejoin="round"/>
<path d="M35.1914 61.2598V64.3998" stroke="#003D2E" stroke-width="0.4522" stroke-miterlimit="10" stroke-linecap="round" stroke-linejoin="round"/>
<path d="M40.5586 28.2207C42.6297 28.2207 44.3086 26.5418 44.3086 24.4707C44.3086 22.3996 42.6297 20.7207 40.5586 20.7207C38.4875 20.7207 36.8086 22.3996 36.8086 24.4707C36.8086 26.5418 38.4875 28.2207 40.5586 28.2207Z" fill="#00FF94"/>
<path d="M136.439 82.0093C137.952 82.0093 139.179 80.7826 139.179 79.2693C139.179 77.756 137.952 76.5293 136.439 76.5293C134.926 76.5293 133.699 77.756 133.699 79.2693C133.699 80.7826 134.926 82.0093 136.439 82.0093Z" stroke="#003C2E" stroke-width="0.4522" stroke-miterlimit="10" stroke-linecap="round" stroke-linejoin="round"/>
<path d="M31.3789 81.3203H38.8889" stroke="#003C2E" stroke-width="0.4522" stroke-miterlimit="10" stroke-linecap="round" stroke-linejoin="round"/>
<path d="M25.6797 81.3203H27.5697" stroke="#003C2E" stroke-width="0.4522" stroke-miterlimit="10" stroke-linecap="round" stroke-linejoin="round"/>
<path d="M23.8594 95.9004H27.5694" stroke="#003C2E" stroke-width="0.4522" stroke-miterlimit="10" stroke-linecap="round" stroke-linejoin="round"/>
<path d="M8.32812 87.5801H35.1881" stroke="#00FF94" stroke-width="0.4522" stroke-miterlimit="10" stroke-linecap="round" stroke-linejoin="round"/>
<path d="M32.3594 95.8809H47.3794" stroke="#003C2E" stroke-width="0.4522" stroke-miterlimit="10" stroke-linecap="round" stroke-linejoin="round"/>
<path d="M164.32 22.0508L166.1 23.8208" stroke="#163B2F" stroke-width="0.4522" stroke-miterlimit="10" stroke-linecap="round" stroke-linejoin="round"/>
<path d="M167.391 25.1191L169.171 26.8891" stroke="#163B2F" stroke-width="0.4522" stroke-miterlimit="10" stroke-linecap="round" stroke-linejoin="round"/>
<path d="M164.32 26.8891L166.1 25.1191" stroke="#163B2F" stroke-width="0.4522" stroke-miterlimit="10" stroke-linecap="round" stroke-linejoin="round"/>
<path d="M167.391 23.8208L169.171 22.0508" stroke="#163B2F" stroke-width="0.4522" stroke-miterlimit="10" stroke-linecap="round" stroke-linejoin="round"/>
<path d="M120.361 30.2598H117.431C113.151 30.2598 109.281 31.7798 109.281 36.0598" stroke="#003D2E" stroke-width="0.4522" stroke-miterlimit="10" stroke-linecap="round" stroke-linejoin="round"/>
<path d="M153.231 30.2598H142.031" stroke="#003D2E" stroke-width="0.4522" stroke-miterlimit="10" stroke-linecap="round" stroke-linejoin="round"/>
<path d="M119.469 31.9707H117.599C113.319 31.9707 109.449 33.4907 109.449 37.7707" stroke="#003D2E" stroke-width="0.4522" stroke-miterlimit="10" stroke-linecap="round" stroke-linejoin="round"/>
<path d="M153.399 31.9707H142.879" stroke="#003D2E" stroke-width="0.4522" stroke-miterlimit="10" stroke-linecap="round" stroke-linejoin="round"/>
<path d="M132.143 48.9907C138.914 48.9907 144.403 43.5017 144.403 36.7307C144.403 29.9597 138.914 24.4707 132.143 24.4707C125.372 24.4707 119.883 29.9597 119.883 36.7307C119.883 43.5017 125.372 48.9907 132.143 48.9907Z" fill="#00FF94"/>
<path d="M130.772 48.9907C137.543 48.9907 143.032 43.5017 143.032 36.7307C143.032 29.9597 137.543 24.4707 130.772 24.4707C124.001 24.4707 118.512 29.9597 118.512 36.7307C118.512 43.5017 124.001 48.9907 130.772 48.9907Z" stroke="#003C2E" stroke-width="0.4522" stroke-miterlimit="10" stroke-linecap="round" stroke-linejoin="round"/>
<path d="M125.543 32.4688C125.566 32.4925 125.607 32.5143 125.61 32.5404C125.639 32.7944 125.798 32.9649 125.991 33.1014C127.763 34.3544 129.535 35.6069 131.313 36.8508C131.743 37.1513 132.083 37.1339 132.507 36.836C133.476 36.1552 134.443 35.4733 135.41 34.7896C135.958 34.4019 136.357 33.8979 136.566 33.2597C136.639 33.037 136.667 32.7997 136.698 32.6542C136.698 33.2102 136.739 33.8549 136.687 34.492C136.624 35.2775 136.228 35.9252 135.595 36.3916C134.542 37.1685 133.468 37.9179 132.394 38.6658C132.044 38.9089 131.674 38.8452 131.332 38.623C130.981 38.3951 130.633 38.1623 130.291 37.9205C128.877 36.9181 127.466 35.9108 126.052 34.9069C125.81 34.7349 125.619 34.5316 125.576 34.2241C125.577 33.7246 125.579 33.225 125.577 32.7255C125.577 32.6875 125.555 32.6496 125.543 32.6117C125.543 32.5641 125.543 32.5164 125.543 32.4688Z" fill="#003B2F"/>
<mask id="mask4_907_193" style="mask-type:luminance" maskUnits="userSpaceOnUse" x="125" y="32" width="12" height="8">
<path d="M136.877 32.0566H125.105V39.2037H136.877V32.0566Z" fill="white"/>
<path d="M125.539 32.4766C125.562 32.5003 125.603 32.5221 125.606 32.5482C125.635 32.8022 125.794 32.9727 125.987 33.1092C127.759 34.3622 129.531 35.6147 131.309 36.8586C131.739 37.1591 132.079 37.1417 132.503 36.8438C133.472 36.163 134.439 35.4811 135.406 34.7974C135.954 34.4097 136.353 33.9057 136.562 33.2675C136.635 33.0448 136.663 32.8075 136.694 32.662C136.694 33.218 136.735 33.8627 136.684 34.4998C136.62 35.2853 136.224 35.933 135.592 36.3994C134.538 37.1764 133.464 37.9257 132.39 38.6736C132.041 38.9168 131.67 38.8531 131.328 38.6308C130.977 38.4029 130.629 38.1702 130.287 37.9283C128.873 36.9259 127.462 35.9186 126.048 34.9147C125.806 34.7427 125.615 34.5394 125.572 34.2319C125.573 33.7324 125.575 33.2328 125.573 32.7333C125.573 32.6953 125.551 32.6574 125.539 32.6196C125.539 32.5719 125.539 32.5242 125.539 32.4766Z" fill="black"/>
</mask>
<g mask="url(#mask4_907_193)">
<path d="M125.547 32.4707C125.57 32.4945 125.611 32.5162 125.614 32.5423C125.643 32.7963 125.802 32.9669 125.995 33.1034C127.767 34.3564 129.539 35.6089 131.317 36.8528C131.747 37.1533 132.087 37.1359 132.511 36.838C133.48 36.1572 134.447 35.4753 135.414 34.7915C135.962 34.4038 136.361 33.8998 136.57 33.2616C136.643 33.0389 136.671 32.8017 136.702 32.6562C136.702 33.2122 136.743 33.8568 136.691 34.4939C136.627 35.2794 136.232 35.9272 135.599 36.3936C134.546 37.1705 133.472 37.9199 132.398 38.6677C132.048 38.9109 131.678 38.8472 131.336 38.625C130.985 38.397 130.637 38.1643 130.295 37.9224C128.881 36.92 127.47 35.9127 126.056 34.9088C125.814 34.7368 125.623 34.5335 125.58 34.226C125.581 33.7265 125.582 33.2269 125.581 32.7274C125.581 32.6895 125.559 32.6516 125.547 32.6137C125.547 32.5661 125.547 32.5184 125.547 32.4707Z" stroke="#003B2F" stroke-width="0.4" stroke-linejoin="round"/>
</g>
<path fill-rule="evenodd" clip-rule="evenodd" d="M125.514 32.3339C125.563 32.3139 125.62 32.3255 125.656 32.3632C125.656 32.3632 125.657 32.3638 125.658 32.3651C125.66 32.3665 125.662 32.3683 125.665 32.3707C125.666 32.3715 125.668 32.3725 125.669 32.3737C125.674 32.3781 125.683 32.3848 125.69 32.3909C125.699 32.3989 125.713 32.4117 125.726 32.4284C125.738 32.4451 125.756 32.4731 125.76 32.511C125.783 32.7114 125.906 32.8533 126.087 32.9807C127.858 34.2337 129.63 35.4859 131.408 36.7295C131.609 36.87 131.775 36.9262 131.93 36.923C132.086 36.9197 132.252 36.8557 132.453 36.7148C133.421 36.0341 134.388 35.3524 135.355 34.6688C135.882 34.2953 136.263 33.8134 136.463 33.2047C136.512 33.0542 136.538 32.9034 136.561 32.7707C136.571 32.7143 136.58 32.6612 136.591 32.6129C136.604 32.5477 136.665 32.5035 136.731 32.5104C136.797 32.5173 136.848 32.5731 136.848 32.6397C136.848 32.7999 136.851 32.9701 136.855 33.147C136.864 33.5711 136.874 34.0336 136.837 34.4878C136.77 35.3145 136.352 35.9951 135.693 36.4815C134.638 37.2595 133.563 38.0098 132.488 38.7575C132.29 38.8957 132.08 38.9492 131.871 38.9336C131.664 38.9182 131.465 38.8363 131.281 38.7171C130.93 38.4886 130.58 38.2548 130.237 38.0116C129.398 37.4174 128.56 36.8214 127.723 36.2254C127.148 35.8161 126.573 35.4068 125.998 34.9982C125.743 34.8176 125.518 34.5868 125.468 34.2275C125.467 34.2214 125.466 34.2153 125.466 34.2092C125.467 34.1092 125.467 34.0092 125.467 33.9092C125.468 33.5104 125.469 33.1119 125.468 32.7133C125.468 32.7121 125.467 32.7079 125.463 32.6994C125.461 32.6941 125.459 32.6893 125.457 32.6831C125.456 32.6803 125.455 32.6772 125.453 32.6736C125.449 32.6635 125.444 32.6504 125.44 32.6363C125.436 32.6236 125.434 32.6105 125.434 32.5972V32.4542C125.434 32.4014 125.466 32.3538 125.514 32.3339ZM132.527 36.8212C132.103 37.1191 131.763 37.1365 131.333 36.836C129.555 35.5922 127.783 34.3397 126.012 33.0867C125.899 33.0073 125.798 32.9164 125.728 32.804C125.71 32.7745 125.693 32.7434 125.679 32.7107C125.664 32.675 125.652 32.6372 125.643 32.5972C125.641 32.5895 125.639 32.5817 125.638 32.5738C125.635 32.5582 125.633 32.5422 125.631 32.5259C125.629 32.508 125.609 32.4922 125.589 32.4764C125.58 32.4691 125.571 32.4618 125.564 32.4542V32.5972C125.567 32.6092 125.572 32.6212 125.577 32.6332C125.587 32.6591 125.598 32.685 125.598 32.7109C125.598 32.7539 125.598 32.7969 125.598 32.8399C125.599 33.1965 125.598 33.5531 125.597 33.9097C125.597 34.0096 125.597 34.1095 125.596 34.2094C125.639 34.5169 125.831 34.7202 126.073 34.8922C126.648 35.301 127.224 35.7103 127.799 36.1197C128.636 36.7156 129.473 37.3114 130.312 37.9055C130.653 38.1474 131.001 38.3801 131.352 38.6081C131.694 38.8303 132.065 38.894 132.414 38.6508C133.488 37.903 134.562 37.1537 135.615 36.3768C136.248 35.9104 136.643 35.2627 136.707 34.4773C136.741 34.0558 136.735 33.6309 136.727 33.2306C136.726 33.2061 136.726 33.1817 136.725 33.1574C136.721 32.9786 136.718 32.8052 136.718 32.6397C136.709 32.6808 136.701 32.7291 136.691 32.7825C136.669 32.909 136.642 33.0632 136.596 33.2131C136.593 33.2238 136.59 33.2345 136.586 33.2451C136.377 33.8833 135.978 34.3872 135.43 34.7749C134.463 35.4586 133.496 36.1404 132.527 36.8212Z" fill="#003B2F"/>
<mask id="mask5_907_193" style="mask-type:luminance" maskUnits="userSpaceOnUse" x="125" y="31" width="13" height="9">
<path d="M137.192 31.9043H125V39.0513H137.192V31.9043Z" fill="white"/>
</mask>
<g mask="url(#mask5_907_193)">
<path d="M126.028 33.119L126.103 33.0129L126.035 32.9644L125.96 33.0704L126.028 33.119ZM125.639 32.3712L125.698 32.4306L125.699 32.4301L125.639 32.3712ZM125.45 32.7213L125.534 32.7211C125.534 32.7144 125.534 32.7078 125.532 32.7013L125.45 32.7213ZM125.546 32.4622L125.606 32.4033C125.582 32.3789 125.546 32.3714 125.514 32.3843C125.483 32.3972 125.462 32.428 125.462 32.4622H125.546ZM125.546 32.6052H125.462C125.462 32.6137 125.463 32.6222 125.466 32.6304L125.546 32.6052ZM125.579 34.2174L125.495 34.2172C125.495 34.2212 125.495 34.2251 125.496 34.2291L125.579 34.2174ZM136.7 32.6476H136.784C136.784 32.6046 136.752 32.5684 136.709 32.564C136.666 32.5595 136.627 32.5881 136.618 32.6303L136.7 32.6476ZM125.699 32.3123C125.638 32.2502 125.546 32.2311 125.465 32.2639L125.529 32.4197C125.546 32.4126 125.566 32.4167 125.579 32.43L125.699 32.3123ZM125.58 32.3117C125.595 32.2998 125.625 32.2883 125.639 32.2871C125.647 32.2875 125.661 32.2899 125.666 32.2915C125.675 32.2945 125.681 32.2984 125.683 32.2995C125.687 32.3023 125.691 32.3049 125.691 32.3054C125.694 32.3072 125.695 32.3086 125.695 32.3089C125.697 32.3098 125.697 32.3106 125.697 32.3107C125.698 32.3112 125.698 32.3116 125.698 32.3117C125.699 32.3119 125.699 32.3123 125.699 32.3123C125.699 32.3122 125.699 32.3124 125.699 32.3123C125.699 32.3124 125.699 32.3127 125.699 32.3127C125.699 32.3127 125.7 32.313 125.7 32.3133C125.7 32.3135 125.7 32.3137 125.701 32.3139C125.701 32.3141 125.701 32.3143 125.701 32.3146C125.701 32.3148 125.702 32.3155 125.703 32.3164C125.703 32.3167 125.704 32.3176 125.705 32.3188C125.705 32.3194 125.706 32.3209 125.707 32.3217C125.708 32.323 125.71 32.3267 125.712 32.3291C125.714 32.3342 125.722 32.3557 125.723 32.3727C125.707 32.4206 125.639 32.4553 125.612 32.451C125.605 32.4481 125.595 32.4427 125.592 32.4408C125.59 32.4398 125.588 32.4379 125.587 32.4371C125.585 32.4357 125.584 32.4346 125.583 32.4342C125.583 32.4337 125.582 32.4332 125.582 32.4329C125.581 32.4324 125.581 32.432 125.581 32.4319C125.58 32.4315 125.58 32.4311 125.58 32.4311C125.58 32.4309 125.58 32.4308 125.58 32.4307C125.58 32.4308 125.579 32.4306 125.58 32.4307C125.579 32.4305 125.579 32.43 125.579 32.43C125.579 32.43 125.579 32.43 125.579 32.43L125.699 32.3123C125.699 32.3123 125.699 32.3119 125.698 32.3117C125.699 32.3118 125.698 32.3117 125.698 32.3117C125.698 32.3116 125.698 32.3114 125.698 32.3113C125.698 32.3112 125.698 32.3111 125.697 32.3107C125.697 32.3105 125.697 32.3099 125.696 32.3094C125.696 32.3091 125.695 32.3087 125.695 32.3082C125.694 32.3078 125.693 32.3068 125.691 32.3054C125.69 32.3047 125.688 32.3026 125.686 32.3015C125.683 32.2996 125.673 32.2943 125.666 32.2915C125.639 32.2872 125.571 32.3217 125.555 32.3697C125.556 32.3866 125.563 32.4082 125.566 32.4133C125.568 32.4156 125.57 32.4193 125.571 32.4207C125.572 32.4215 125.573 32.4229 125.573 32.4235C125.574 32.4247 125.575 32.4256 125.575 32.426C125.576 32.4268 125.577 32.4275 125.577 32.4277C125.577 32.428 125.577 32.4283 125.577 32.4284C125.578 32.4287 125.578 32.4289 125.578 32.429C125.578 32.4293 125.578 32.4296 125.578 32.4296C125.578 32.4296 125.579 32.4297 125.578 32.4296C125.579 32.4297 125.579 32.4299 125.579 32.43C125.579 32.43 125.579 32.4305 125.58 32.4307C125.58 32.4308 125.58 32.4313 125.581 32.4319C125.581 32.432 125.581 32.4325 125.582 32.4334C125.583 32.4337 125.585 32.4354 125.587 32.4371C125.587 32.4377 125.591 32.4401 125.595 32.4429C125.597 32.444 125.603 32.448 125.612 32.451C125.618 32.4525 125.631 32.4549 125.639 32.4553C125.653 32.4541 125.683 32.4426 125.698 32.4306L125.58 32.3117ZM125.696 32.3094C125.696 32.3092 125.696 32.3095 125.696 32.3098C125.697 32.3099 125.697 32.3101 125.697 32.3103C125.697 32.3103 125.697 32.3098 125.696 32.3094C125.696 32.3093 125.695 32.3085 125.694 32.3076C125.694 32.3073 125.692 32.3058 125.69 32.304C125.688 32.3029 125.684 32.2999 125.68 32.2981C125.672 32.2937 125.618 32.2898 125.579 32.3122L125.699 32.4301C125.66 32.4525 125.606 32.4486 125.597 32.4443C125.594 32.4424 125.59 32.4394 125.588 32.4383C125.586 32.4366 125.584 32.4351 125.584 32.4348C125.583 32.4339 125.582 32.4331 125.582 32.4329C125.581 32.4324 125.581 32.432 125.581 32.4319C125.581 32.4319 125.581 32.4318 125.581 32.4319C125.581 32.432 125.581 32.432 125.581 32.4322C125.582 32.4326 125.582 32.433 125.582 32.4334C125.583 32.4343 125.584 32.4353 125.586 32.4364L125.696 32.3094ZM125.701 32.3133C125.698 32.3111 125.697 32.3102 125.696 32.3098L125.586 32.4364C125.588 32.4388 125.592 32.4413 125.595 32.444L125.701 32.3133ZM125.704 32.316C125.703 32.3148 125.702 32.314 125.701 32.3133L125.595 32.444C125.596 32.445 125.598 32.4461 125.599 32.4472L125.704 32.316ZM125.727 32.3352C125.719 32.3279 125.709 32.3202 125.704 32.316L125.599 32.4472C125.605 32.4518 125.612 32.4575 125.617 32.4624L125.727 32.3352ZM125.775 32.3855C125.757 32.3619 125.738 32.3447 125.727 32.3352L125.617 32.4624C125.625 32.4689 125.634 32.4773 125.641 32.4872L125.775 32.3855ZM125.826 32.5094C125.819 32.4511 125.793 32.409 125.775 32.3855L125.641 32.4872C125.649 32.4971 125.657 32.511 125.659 32.5286L125.826 32.5094ZM126.118 32.92C125.946 32.7985 125.845 32.6752 125.826 32.5094L125.659 32.5286C125.686 32.7635 125.832 32.924 126.021 33.0573L126.118 32.92ZM131.439 36.6685C129.661 35.4251 127.889 34.1729 126.118 32.92L126.021 33.0573C127.792 34.3102 129.564 35.5626 131.342 36.8063L131.439 36.6685ZM131.911 36.8469C131.779 36.8496 131.631 36.8027 131.439 36.6685L131.342 36.8063C131.552 36.9532 131.735 37.0188 131.914 37.015L131.911 36.8469ZM132.387 36.654C132.194 36.7896 132.044 36.8441 131.911 36.8469L131.914 37.015C132.093 37.0112 132.276 36.9377 132.483 36.7915L132.387 36.654ZM135.289 34.6081C134.322 35.2916 133.355 35.9733 132.387 36.654L132.483 36.7915C133.452 36.1108 134.419 35.429 135.386 34.7453L135.289 34.6081ZM136.365 33.1864C136.172 33.776 135.803 34.2439 135.289 34.6081L135.386 34.7453C135.926 34.3627 136.319 33.8665 136.525 33.2387L136.365 33.1864ZM136.461 32.7642C136.438 32.8976 136.412 33.0426 136.365 33.1864L136.525 33.2387C136.576 33.0817 136.604 32.9251 136.627 32.7931L136.461 32.7642ZM136.491 32.6034C136.48 32.6536 136.471 32.7082 136.461 32.7642L136.627 32.7931C136.637 32.7364 136.646 32.6848 136.655 32.6382L136.491 32.6034ZM136.722 32.4347C136.613 32.4233 136.513 32.4962 136.491 32.6034L136.655 32.6382C136.66 32.6151 136.682 32.5995 136.705 32.602L136.722 32.4347ZM136.914 32.6476C136.914 32.538 136.832 32.4461 136.722 32.4347L136.705 32.602C136.728 32.6044 136.746 32.6241 136.746 32.6476H136.914ZM136.922 33.1531C136.918 32.9761 136.914 32.8067 136.914 32.6476H136.746C136.746 32.8088 136.75 32.98 136.754 33.1567L136.922 33.1531ZM136.903 34.5026C136.94 34.0433 136.931 33.5766 136.922 33.1531L136.754 33.1567C136.762 33.5815 136.772 34.0397 136.736 34.489L136.903 34.5026ZM135.725 36.5571C136.402 36.0578 136.834 35.356 136.903 34.5026L136.736 34.489C136.671 35.289 136.267 35.9483 135.625 36.4217L135.725 36.5571ZM132.519 38.8344C133.593 38.0868 134.669 37.3359 135.725 36.5571L135.625 36.4217C134.571 37.199 133.497 37.9487 132.423 38.6964L132.519 38.8344ZM131.847 39.0254C132.076 39.0424 132.305 38.9834 132.519 38.8344L132.423 38.6964C132.24 38.8239 132.049 38.8718 131.86 38.8577L131.847 39.0254ZM131.218 38.7956C131.41 38.92 131.622 39.0087 131.847 39.0254L131.86 38.8577C131.671 38.8436 131.485 38.7685 131.31 38.6545L131.218 38.7956ZM130.17 38.0882C130.515 38.3323 130.866 38.5667 131.218 38.7956L131.31 38.6545C130.958 38.4264 130.61 38.1933 130.268 37.9509L130.17 38.0882ZM127.657 36.3019C128.494 36.8978 129.332 37.4939 130.17 38.0882L130.268 37.9509C129.429 37.3568 128.592 36.7608 127.754 36.1648L127.657 36.3019ZM125.931 35.0746C126.507 35.4832 127.082 35.8925 127.657 36.3019L127.754 36.1648C127.179 35.7555 126.604 35.3462 126.029 34.9375L125.931 35.0746ZM125.367 34.2471C125.422 34.64 125.669 34.8885 125.931 35.0746L126.029 34.9375C125.782 34.7624 125.579 34.5495 125.533 34.2238L125.367 34.2471ZM125.365 34.217C125.365 34.227 125.365 34.2371 125.367 34.2471L125.533 34.2238C125.533 34.2216 125.533 34.2195 125.533 34.2173L125.365 34.217ZM125.365 33.917C125.365 34.017 125.365 34.1169 125.365 34.217L125.533 34.2173C125.533 34.1173 125.533 34.0173 125.534 33.9174L125.365 33.917ZM125.366 32.7215C125.367 33.1198 125.366 33.5181 125.365 33.917L125.534 33.9174C125.535 33.5185 125.535 33.1198 125.534 32.7211L125.366 32.7215ZM125.367 32.7367C125.368 32.7396 125.369 32.7412 125.369 32.7417C125.369 32.7417 125.369 32.7413 125.369 32.7413L125.532 32.7013C125.531 32.6969 125.529 32.6896 125.525 32.678L125.367 32.7367ZM125.361 32.7223C125.364 32.7287 125.365 32.7325 125.367 32.7367L125.525 32.678C125.522 32.6715 125.52 32.6658 125.517 32.6597L125.361 32.7223ZM125.358 32.7126C125.359 32.7163 125.36 32.7195 125.361 32.7223L125.517 32.6597C125.516 32.6569 125.515 32.6539 125.514 32.6505L125.358 32.7126ZM125.342 32.6695C125.347 32.6867 125.353 32.7021 125.358 32.7126L125.514 32.6505C125.51 32.6408 125.506 32.6301 125.502 32.6189L125.342 32.6695ZM125.332 32.6052C125.332 32.627 125.335 32.6487 125.342 32.6695L125.502 32.6189C125.501 32.6145 125.5 32.6098 125.5 32.6052H125.332ZM125.465 32.2639C125.385 32.2968 125.332 32.3752 125.332 32.4622H125.5C125.5 32.4435 125.512 32.4267 125.529 32.4197L125.465 32.2639ZM131.268 36.9128C131.491 37.0693 131.701 37.1495 131.917 37.145C132.132 37.1405 132.339 37.0521 132.558 36.8979L132.461 36.7603C132.257 36.9041 132.082 36.9733 131.913 36.9769C131.745 36.9804 131.57 36.919 131.364 36.775L131.268 36.9128ZM125.946 33.1633C127.717 34.4162 129.489 35.6689 131.268 36.9128L131.364 36.775C129.586 35.5314 127.814 34.279 126.043 33.026L125.946 33.1633ZM125.639 32.8566C125.718 32.982 125.828 33.0805 125.946 33.1633L126.043 33.026C125.935 32.9499 125.844 32.8666 125.782 32.7674L125.639 32.8566ZM125.584 32.7516C125.6 32.7886 125.619 32.8235 125.639 32.8566L125.782 32.7674C125.766 32.7413 125.751 32.7141 125.739 32.6857L125.584 32.7516ZM125.543 32.6235C125.553 32.6686 125.567 32.7112 125.584 32.7516L125.739 32.6857C125.726 32.6546 125.715 32.6217 125.707 32.5868L125.543 32.6235ZM125.538 32.5971C125.539 32.606 125.541 32.6148 125.543 32.6235L125.707 32.5868C125.706 32.5801 125.704 32.5732 125.703 32.5663L125.538 32.5971ZM125.53 32.5433C125.532 32.5616 125.535 32.5795 125.538 32.5971L125.703 32.5663C125.701 32.5526 125.698 32.5386 125.697 32.5243L125.53 32.5433ZM125.519 32.5499C125.524 32.5541 125.528 32.5572 125.532 32.5601C125.535 32.563 125.537 32.5648 125.538 32.5658C125.539 32.5669 125.538 32.5659 125.536 32.5628C125.534 32.5596 125.531 32.5529 125.53 32.5433L125.697 32.5243C125.693 32.4883 125.672 32.4634 125.66 32.4508C125.648 32.4374 125.633 32.4257 125.624 32.4188L125.519 32.5499ZM125.486 32.521C125.498 32.5328 125.511 32.5434 125.519 32.5499L125.624 32.4188C125.614 32.4107 125.609 32.4065 125.606 32.4033L125.486 32.521ZM125.638 32.6099C125.633 32.5973 125.629 32.5883 125.626 32.5799L125.466 32.6304C125.471 32.646 125.477 32.661 125.481 32.6725L125.638 32.6099ZM125.664 32.7187C125.664 32.6736 125.647 32.6322 125.638 32.6099L125.481 32.6725C125.493 32.7019 125.496 32.7123 125.496 32.7191L125.664 32.7187ZM125.665 32.8477C125.665 32.8046 125.665 32.7617 125.664 32.7187L125.496 32.7191C125.496 32.762 125.497 32.805 125.497 32.8479L125.665 32.8477ZM125.664 33.9179C125.664 33.5612 125.665 33.2045 125.665 32.8477L125.497 32.8479C125.497 33.2043 125.496 33.5608 125.495 33.9174L125.664 33.9179ZM125.663 34.2176C125.663 34.1176 125.663 34.0178 125.664 33.9179L125.495 33.9174C125.495 34.0174 125.495 34.1173 125.495 34.2172L125.663 34.2176ZM126.104 34.8316C125.87 34.6651 125.7 34.4796 125.662 34.2057L125.496 34.2291C125.543 34.57 125.757 34.7911 126.007 34.9687L126.104 34.8316ZM127.83 36.0591C127.255 35.6498 126.68 35.2404 126.104 34.8316L126.007 34.9687C126.582 35.3775 127.157 35.7868 127.733 36.1961L127.83 36.0591ZM130.343 37.8449C129.504 37.2508 128.667 36.655 127.83 36.0591L127.733 36.1961C128.57 36.792 129.407 37.3879 130.246 37.9821L130.343 37.8449ZM131.381 38.5455C131.03 38.3179 130.683 38.0859 130.343 37.8449L130.246 37.9821C130.588 38.2249 130.937 38.4582 131.289 38.6865L131.381 38.5455ZM132.348 38.5897C132.189 38.7005 132.028 38.7399 131.869 38.728C131.708 38.7161 131.544 38.6514 131.381 38.5455L131.289 38.6865C131.468 38.8029 131.66 38.8811 131.857 38.8957C132.055 38.9105 132.254 38.8601 132.445 38.7277L132.348 38.5897ZM135.548 36.3171C134.496 37.0932 133.423 37.8419 132.348 38.5897L132.445 38.7277C133.519 37.98 134.594 37.2301 135.648 36.4525L135.548 36.3171ZM136.606 34.4785C136.544 35.2372 136.163 35.8636 135.548 36.3171L135.648 36.4525C136.298 35.9731 136.708 35.3042 136.774 34.4921L136.606 34.4785ZM136.625 33.2403C136.633 33.6408 136.64 34.0617 136.606 34.4785L136.774 34.4921C136.808 34.0657 136.802 33.6369 136.793 33.2368L136.625 33.2403ZM136.624 33.1671C136.624 33.1914 136.625 33.2158 136.625 33.2403L136.793 33.2368C136.793 33.2123 136.792 33.1879 136.792 33.1635L136.624 33.1671ZM136.616 32.6476C136.616 32.8142 136.62 32.9885 136.624 33.1671L136.792 33.1635C136.788 32.9846 136.784 32.8121 136.784 32.6476H136.616ZM136.757 32.8049C136.766 32.7511 136.774 32.7043 136.783 32.6649L136.618 32.6303C136.609 32.6731 136.6 32.723 136.591 32.7759L136.757 32.8049ZM136.659 33.2458C136.707 33.09 136.735 32.9307 136.757 32.8049L136.591 32.7759C136.569 32.9031 136.543 33.0522 136.498 33.1964L136.659 33.2458ZM136.649 33.2792C136.652 33.268 136.656 33.2569 136.659 33.2458L136.498 33.1964C136.495 33.2066 136.492 33.2167 136.489 33.2269L136.649 33.2792ZM135.461 34.8515C136.022 34.4546 136.433 33.9364 136.649 33.2792L136.489 33.2269C136.286 33.846 135.898 34.3357 135.364 34.7142L135.461 34.8515ZM132.558 36.8979C133.527 36.2171 134.494 35.5352 135.461 34.8515L135.364 34.7142C134.397 35.3978 133.43 36.0796 132.461 36.7603L132.558 36.8979ZM125.332 32.4622V32.6052H125.5V32.4622H125.332ZM125.63 32.6052V32.4622H125.462V32.6052H125.63Z" fill="#003B2F"/>
</g>
<path fill-rule="evenodd" clip-rule="evenodd" d="M125.514 32.3358C125.563 32.3158 125.62 32.3275 125.656 32.3652C125.656 32.3652 125.657 32.3657 125.658 32.367C125.66 32.3684 125.662 32.3702 125.665 32.3727C125.666 32.3735 125.668 32.3745 125.669 32.3757C125.674 32.38 125.683 32.3867 125.69 32.3928C125.699 32.4008 125.713 32.4136 125.726 32.4304C125.738 32.4471 125.756 32.4751 125.76 32.513C125.783 32.7134 125.906 32.8553 126.087 32.9827C127.858 34.2356 129.63 35.4879 131.408 36.7314C131.609 36.8719 131.775 36.9282 131.93 36.925C132.086 36.9217 132.252 36.8577 132.453 36.7168C133.421 36.0361 134.388 35.3543 135.355 34.6707C135.882 34.2973 136.263 33.8153 136.463 33.2066C136.512 33.0561 136.538 32.9053 136.561 32.7727C136.571 32.7163 136.58 32.6632 136.591 32.6148C136.604 32.5496 136.665 32.5054 136.731 32.5123C136.797 32.5192 136.848 32.575 136.848 32.6416C136.848 32.8018 136.851 32.972 136.855 33.1489C136.864 33.5731 136.874 34.0355 136.837 34.4898C136.77 35.3165 136.352 35.9971 135.693 36.4834C134.638 37.2615 133.563 38.0118 132.488 38.7595C132.29 38.8977 132.08 38.9511 131.871 38.9355C131.664 38.9202 131.465 38.8382 131.281 38.7191C130.93 38.4905 130.58 38.2568 130.237 38.0136C129.398 37.4194 128.56 36.8233 127.723 36.2274C127.148 35.818 126.573 35.4087 125.998 35.0001C125.743 34.8195 125.518 34.5887 125.468 34.2294C125.467 34.2234 125.466 34.2173 125.466 34.2111C125.467 34.1112 125.467 34.0112 125.467 33.9112C125.468 33.5123 125.469 33.1138 125.468 32.7153C125.468 32.714 125.467 32.7099 125.463 32.7014C125.461 32.696 125.459 32.6912 125.457 32.685C125.456 32.6822 125.455 32.6791 125.453 32.6756C125.449 32.6655 125.444 32.6524 125.44 32.6382C125.436 32.6256 125.434 32.6124 125.434 32.5992V32.4562C125.434 32.4033 125.466 32.3558 125.514 32.3358ZM132.527 36.8231C132.103 37.121 131.763 37.1384 131.333 36.8379C129.555 35.5941 127.783 34.3416 126.012 33.0887C125.899 33.0092 125.798 32.9183 125.728 32.806C125.71 32.7764 125.693 32.7454 125.679 32.7127C125.664 32.6769 125.652 32.6392 125.643 32.5992C125.641 32.5914 125.639 32.5837 125.638 32.5758C125.635 32.5601 125.633 32.5441 125.631 32.5278C125.629 32.51 125.609 32.4942 125.589 32.4784C125.58 32.471 125.571 32.4637 125.564 32.4562V32.5992C125.567 32.6112 125.572 32.6232 125.577 32.6352C125.587 32.6611 125.598 32.687 125.598 32.7129C125.598 32.7559 125.598 32.7988 125.598 32.8418C125.599 33.1985 125.598 33.5551 125.597 33.9117C125.597 34.0116 125.597 34.1115 125.596 34.2114C125.639 34.5188 125.831 34.7221 126.073 34.8941C126.648 35.3029 127.224 35.7123 127.799 36.1216C128.636 36.7175 129.473 37.3134 130.312 37.9075C130.653 38.1494 131.001 38.3821 131.352 38.61C131.694 38.8322 132.065 38.8959 132.414 38.6528C133.488 37.905 134.562 37.1556 135.615 36.3788C136.248 35.9124 136.643 35.2647 136.707 34.4793C136.741 34.0577 136.735 33.6329 136.727 33.2326C136.726 33.2081 136.726 33.1837 136.725 33.1593C136.721 32.9806 136.718 32.8072 136.718 32.6416C136.709 32.6827 136.701 32.7311 136.691 32.7844C136.669 32.9109 136.642 33.0651 136.596 33.2151C136.593 33.2258 136.59 33.2364 136.586 33.2471C136.377 33.8852 135.978 34.3892 135.43 34.7768C134.463 35.4605 133.496 36.1424 132.527 36.8231Z" fill="#003B2F"/>
<path d="M128.133 32.2783C128.163 32.2439 128.179 32.2173 128.202 32.2013C128.766 31.808 129.32 31.3994 129.898 31.0283C130.496 30.6443 131.157 30.4188 131.88 30.4199C132.554 30.421 133.165 30.6343 133.719 31.0028C133.987 31.1809 134.246 31.3775 134.484 31.5935C134.868 31.9427 134.908 32.5645 134.602 32.9825C134.534 33.0759 134.463 33.0819 134.373 33.0223C134.249 32.9395 134.125 32.8551 133.998 32.7758C132.719 31.9744 131.44 31.983 130.162 32.7769C129.958 32.903 129.757 33.0326 129.55 33.1522C129.508 33.1762 129.429 33.1856 129.394 33.1622C128.994 32.8986 128.6 32.6274 128.206 32.3571C128.182 32.3409 128.166 32.3144 128.133 32.2783Z" fill="#003B2F"/>
<mask id="mask6_907_193" style="mask-type:luminance" maskUnits="userSpaceOnUse" x="127" y="30" width="9" height="4">
<path d="M135.305 30H127.738V33.3629H135.305V30Z" fill="white"/>
</mask>
<g mask="url(#mask6_907_193)">
<path d="M128.156 32.2783C128.187 32.2439 128.202 32.2173 128.225 32.2013C128.789 31.808 129.343 31.3994 129.921 31.0283C130.52 30.6443 131.18 30.4188 131.903 30.4199C132.577 30.421 133.188 30.6343 133.742 31.0028C134.01 31.1809 134.27 31.3775 134.507 31.5935C134.892 31.9427 134.931 32.5645 134.626 32.9825C134.557 33.0759 134.486 33.0819 134.397 33.0223C134.272 32.9395 134.149 32.8551 134.022 32.7758C132.743 31.9744 131.464 31.983 130.185 32.7769C129.982 32.903 129.781 33.0326 129.573 33.1522C129.532 33.1762 129.452 33.1856 129.417 33.1622C129.018 32.8986 128.624 32.6274 128.229 32.3571C128.206 32.3409 128.189 32.3144 128.156 32.2783Z" stroke="#003B2F" stroke-width="0.4" stroke-linejoin="round"/>
</g>
<path d="M128.168 32.2783C128.198 32.2439 128.214 32.2173 128.237 32.2013C128.801 31.808 129.355 31.3994 129.933 31.0283C130.531 30.6443 131.192 30.4188 131.915 30.4199C132.589 30.421 133.2 30.6343 133.754 31.0028C134.022 31.1809 134.281 31.3775 134.519 31.5935C134.903 31.9427 134.943 32.5645 134.637 32.9825C134.569 33.0759 134.498 33.0819 134.408 33.0223C134.284 32.9395 134.16 32.8551 134.034 32.7758C132.755 31.9744 131.475 31.983 130.197 32.7769C129.993 32.903 129.792 33.0326 129.585 33.1522C129.544 33.1762 129.464 33.1856 129.429 33.1622C129.03 32.8986 128.636 32.6274 128.241 32.3571C128.217 32.3409 128.201 32.3144 128.168 32.2783Z" fill="#003B2F"/>
<path d="M125.543 36.2773C125.565 36.2923 125.605 36.3053 125.607 36.3224C125.638 36.6056 125.829 36.7766 126.04 36.9301C126.852 37.5208 127.66 38.1174 128.481 38.6956C129.39 39.3357 130.31 39.9593 131.228 40.5878C131.753 40.9479 132.045 40.9494 132.57 40.5825C133.5 39.9318 134.426 39.2728 135.356 38.6212C135.91 38.2328 136.33 37.7398 136.548 37.0972C136.629 36.8586 136.662 36.6039 136.75 36.3561C136.726 37.0477 136.746 37.7446 136.665 38.4297C136.579 39.1637 136.174 39.7631 135.58 40.1994C134.535 40.9668 133.47 41.7084 132.407 42.4515C132.035 42.712 131.655 42.6346 131.299 42.3982C130.837 42.0901 130.375 41.7801 129.922 41.4585C128.615 40.5314 127.313 39.5981 126.009 38.6674C125.776 38.501 125.61 38.2922 125.574 37.9992C125.575 37.4931 125.578 36.9869 125.577 36.4808C125.577 36.4488 125.555 36.4167 125.543 36.3847C125.543 36.3489 125.543 36.3131 125.543 36.2773Z" fill="#003B2F"/>
<mask id="mask7_907_193" style="mask-type:luminance" maskUnits="userSpaceOnUse" x="125" y="35" width="13" height="8">
<path d="M137.297 35.8516H125.105V42.9986H137.297V35.8516Z" fill="white"/>
</mask>
<g mask="url(#mask7_907_193)">
<path d="M125.547 36.2773C125.569 36.2923 125.609 36.3053 125.611 36.3224C125.642 36.6056 125.832 36.7766 126.044 36.9301C126.856 37.5208 127.664 38.1174 128.485 38.6956C129.394 39.3357 130.314 39.9593 131.232 40.5878C131.757 40.9479 132.049 40.9494 132.573 40.5825C133.504 39.9318 134.429 39.2728 135.36 38.6212C135.914 38.2328 136.334 37.7398 136.552 37.0972C136.633 36.8586 136.666 36.6039 136.753 36.3561C136.729 37.0477 136.75 37.7446 136.669 38.4297C136.583 39.1637 136.178 39.7631 135.584 40.1994C134.539 40.9668 133.474 41.7084 132.411 42.4515C132.039 42.712 131.659 42.6346 131.303 42.3982C130.841 42.0901 130.379 41.7801 129.926 41.4585C128.619 40.5314 127.317 39.5981 126.013 38.6674C125.78 38.501 125.614 38.2922 125.578 37.9992C125.579 37.4931 125.581 36.9869 125.581 36.4808C125.581 36.4488 125.559 36.4167 125.547 36.3847C125.547 36.3489 125.547 36.3131 125.547 36.2773Z" stroke="#003B2F" stroke-width="0.4" stroke-linejoin="round"/>
</g>
<path d="M125.539 36.2734C125.561 36.2884 125.601 36.3014 125.603 36.3185C125.634 36.6017 125.825 36.7727 126.036 36.9262C126.848 37.5169 127.656 38.1135 128.477 38.6917C129.386 39.3318 130.306 39.9554 131.224 40.5838C131.749 40.944 132.041 40.9455 132.566 40.5786C133.497 39.9279 134.422 39.2689 135.352 38.6173C135.906 38.2289 136.327 37.7359 136.545 37.0933C136.625 36.8547 136.658 36.6 136.746 36.3521C136.722 37.0438 136.742 37.7407 136.662 38.4258C136.575 39.1598 136.17 39.7592 135.576 40.1955C134.531 40.9629 133.466 41.7045 132.403 42.4476C132.031 42.7081 131.651 42.6307 131.296 42.3943C130.833 42.0862 130.371 41.7762 129.918 41.4546C128.611 40.5275 127.309 39.5942 126.006 38.6634C125.772 38.4971 125.606 38.2883 125.57 37.9953C125.571 37.4891 125.574 36.983 125.573 36.4769C125.573 36.4449 125.551 36.4128 125.539 36.3808C125.539 36.345 125.539 36.3092 125.539 36.2734Z" fill="#003B2F"/>
<path d="M109.281 35.7109C109.281 38.7209 112.811 41.1609 117.171 41.1609H153.641V67.0409H115.791C112.201 67.0409 109.291 64.1309 109.291 60.5409V35.7109" fill="#E3E7E3"/>
<path d="M146.54 67.0288H117.33C112.97 67.0288 109.44 64.5888 109.44 61.5788L109.27 36.0488" stroke="#003D2E" stroke-width="0.4522" stroke-miterlimit="10" stroke-linecap="round" stroke-linejoin="round"/>
<path d="M109.281 35.7695C109.281 38.7795 112.981 41.1495 117.331 41.1495H153.801V67.0295" stroke="#003D2E" stroke-width="0.4522" stroke-miterlimit="10" stroke-linecap="round" stroke-linejoin="round"/>
<path d="M117.16 30.2598C112.8 30.2598 109.27 32.6998 109.27 35.7098C109.27 38.7198 112.8 41.1598 117.16 41.1598H153.63V67.0398" stroke="#003D2E" stroke-width="0.4522" stroke-miterlimit="10" stroke-linecap="round" stroke-linejoin="round"/>
</svg>
