<svg width="192" height="108" viewBox="0 0 192 108" fill="none" xmlns="http://www.w3.org/2000/svg">
<path d="M85.7986 68.5791C94.4916 68.5791 101.539 67.0211 101.539 65.0991C101.539 63.1772 94.4916 61.6191 85.7986 61.6191C77.1056 61.6191 70.0586 63.1772 70.0586 65.0991C70.0586 67.0211 77.1056 68.5791 85.7986 68.5791Z" fill="#003D2E"/>
<path d="M85.7986 66.9307C94.4916 66.9307 101.539 65.3727 101.539 63.4507C101.539 61.5288 94.4916 59.9707 85.7986 59.9707C77.1056 59.9707 70.0586 61.5288 70.0586 63.4507C70.0586 65.3727 77.1056 66.9307 85.7986 66.9307Z" fill="#E3E7E3"/>
<path d="M85.7986 65.1006C94.4916 65.1006 101.539 63.5426 101.539 61.6206C101.539 59.6987 94.4916 58.1406 85.7986 58.1406C77.1056 58.1406 70.0586 59.6987 70.0586 61.6206C70.0586 63.5426 77.1056 65.1006 85.7986 65.1006Z" fill="#003D2E"/>
<path d="M85.7986 63.4991C94.4916 63.4991 101.539 61.941 101.539 60.0191C101.539 58.0971 94.4916 56.5391 85.7986 56.5391C77.1056 56.5391 70.0586 58.0971 70.0586 60.0191C70.0586 61.941 77.1056 63.4991 85.7986 63.4991Z" fill="#E3E7E3"/>
<path d="M85.7986 61.2901C94.4916 61.2901 101.539 59.732 101.539 57.8101C101.539 55.8881 94.4916 54.3301 85.7986 54.3301C77.1056 54.3301 70.0586 55.8881 70.0586 57.8101C70.0586 59.732 77.1056 61.2901 85.7986 61.2901Z" fill="#003D2E"/>
<path d="M85.7986 59.7491C94.4916 59.7491 101.539 58.191 101.539 56.2691C101.539 54.3471 94.4916 52.7891 85.7986 52.7891C77.1056 52.7891 70.0586 54.3471 70.0586 56.2691C70.0586 58.191 77.1056 59.7491 85.7986 59.7491Z" fill="#E3E7E3"/>
<path d="M85.7986 57.7002C94.4916 57.7002 101.539 56.1422 101.539 54.2202C101.539 52.2983 94.4916 50.7402 85.7986 50.7402C77.1056 50.7402 70.0586 52.2983 70.0586 54.2202C70.0586 56.1422 77.1056 57.7002 85.7986 57.7002Z" fill="#003D2E"/>
<path d="M85.7986 56.21C94.4916 56.21 101.539 54.652 101.539 52.73C101.539 50.808 94.4916 49.25 85.7986 49.25C77.1056 49.25 70.0586 50.808 70.0586 52.73C70.0586 54.652 77.1056 56.21 85.7986 56.21Z" fill="#E3E7E3"/>
<path d="M101.541 76.4795C110.234 76.4795 117.281 74.9215 117.281 72.9995C117.281 71.0776 110.234 69.5195 101.541 69.5195C92.8478 69.5195 85.8008 71.0776 85.8008 72.9995C85.8008 74.9215 92.8478 76.4795 101.541 76.4795Z" fill="#003D2E"/>
<path d="M101.541 74.8409C110.234 74.8409 117.281 73.2828 117.281 71.3609C117.281 69.4389 110.234 67.8809 101.541 67.8809C92.8478 67.8809 85.8008 69.4389 85.8008 71.3609C85.8008 73.2828 92.8478 74.8409 101.541 74.8409Z" fill="#E3E7E3"/>
<path d="M101.541 72.9991C110.234 72.9991 117.281 71.441 117.281 69.5191C117.281 67.5971 110.234 66.0391 101.541 66.0391C92.8478 66.0391 85.8008 67.5971 85.8008 69.5191C85.8008 71.441 92.8478 72.9991 101.541 72.9991Z" fill="#003D2E"/>
<path d="M101.541 71.4092C110.234 71.4092 117.281 69.8512 117.281 67.9292C117.281 66.0073 110.234 64.4492 101.541 64.4492C92.8478 64.4492 85.8008 66.0073 85.8008 67.9292C85.8008 69.8512 92.8478 71.4092 101.541 71.4092Z" fill="#E3E7E3"/>
<path d="M101.541 69.2002C110.234 69.2002 117.281 67.6422 117.281 65.7202C117.281 63.7983 110.234 62.2402 101.541 62.2402C92.8478 62.2402 85.8008 63.7983 85.8008 65.7202C85.8008 67.6422 92.8478 69.2002 101.541 69.2002Z" fill="#003D2E"/>
<path d="M101.541 67.6592C110.234 67.6592 117.281 66.1012 117.281 64.1792C117.281 62.2573 110.234 60.6992 101.541 60.6992C92.8478 60.6992 85.8008 62.2573 85.8008 64.1792C85.8008 66.1012 92.8478 67.6592 101.541 67.6592Z" fill="#E3E7E3"/>
<path d="M101.541 65.6104C110.234 65.6104 117.281 64.0523 117.281 62.1304C117.281 60.2084 110.234 58.6504 101.541 58.6504C92.8478 58.6504 85.8008 60.2084 85.8008 62.1304C85.8008 64.0523 92.8478 65.6104 101.541 65.6104Z" fill="#003D2E"/>
<path d="M101.541 64.1104C110.234 64.1104 117.281 62.5523 117.281 60.6304C117.281 58.7084 110.234 57.1504 101.541 57.1504C92.8478 57.1504 85.8008 58.7084 85.8008 60.6304C85.8008 62.5523 92.8478 64.1104 101.541 64.1104Z" fill="#E3E7E3"/>
<path d="M101.541 61.9991C110.234 61.9991 117.281 60.441 117.281 58.5191C117.281 56.5971 110.234 55.0391 101.541 55.0391C92.8478 55.0391 85.8008 56.5971 85.8008 58.5191C85.8008 60.441 92.8478 61.9991 101.541 61.9991Z" fill="#003D2E"/>
<path d="M101.541 60.3506C110.234 60.3506 117.281 58.7926 117.281 56.8706C117.281 54.9487 110.234 53.3906 101.541 53.3906C92.8478 53.3906 85.8008 54.9487 85.8008 56.8706C85.8008 58.7926 92.8478 60.3506 101.541 60.3506Z" fill="#E3E7E3"/>
<path d="M101.541 58.5205C110.234 58.5205 117.281 56.9625 117.281 55.0405C117.281 53.1186 110.234 51.5605 101.541 51.5605C92.8478 51.5605 85.8008 53.1186 85.8008 55.0405C85.8008 56.9625 92.8478 58.5205 101.541 58.5205Z" fill="#003D2E"/>
<path d="M101.541 56.9209C110.234 56.9209 117.281 55.3629 117.281 53.4409C117.281 51.519 110.234 49.9609 101.541 49.9609C92.8478 49.9609 85.8008 51.519 85.8008 53.4409C85.8008 55.3629 92.8478 56.9209 101.541 56.9209Z" fill="#E3E7E3"/>
<path d="M101.541 54.71C110.234 54.71 117.281 53.152 117.281 51.23C117.281 49.308 110.234 47.75 101.541 47.75C92.8478 47.75 85.8008 49.308 85.8008 51.23C85.8008 53.152 92.8478 54.71 101.541 54.71Z" fill="#003D2E"/>
<path d="M101.541 53.1709C110.234 53.1709 117.281 51.6129 117.281 49.6909C117.281 47.769 110.234 46.2109 101.541 46.2109C92.8478 46.2109 85.8008 47.769 85.8008 49.6909C85.8008 51.6129 92.8478 53.1709 101.541 53.1709Z" fill="#E3E7E3"/>
<path d="M101.541 51.1202C110.234 51.1202 117.281 49.5621 117.281 47.6402C117.281 45.7182 110.234 44.1602 101.541 44.1602C92.8478 44.1602 85.8008 45.7182 85.8008 47.6402C85.8008 49.5621 92.8478 51.1202 101.541 51.1202Z" fill="#003D2E"/>
<path d="M58.6792 57.6299C58.9443 57.6299 59.1592 57.415 59.1592 57.1499C59.1592 56.8848 58.9443 56.6699 58.6792 56.6699C58.4141 56.6699 58.1992 56.8848 58.1992 57.1499C58.1992 57.415 58.4141 57.6299 58.6792 57.6299Z" fill="#003C2E"/>
<path d="M54.8906 46.1498C56.0406 45.3898 57.3306 44.7998 58.7406 44.8398C60.0006 44.8698 61.2406 45.5098 61.9506 46.5598C62.5006 47.3698 62.6506 48.4298 62.2506 49.3298C61.6606 50.6698 60.3506 51.4698 59.5106 52.6198C59.0806 53.2198 58.7206 53.9498 58.6906 54.6998" stroke="#003D2E" stroke-width="0.4378" stroke-miterlimit="10" stroke-linecap="round" stroke-linejoin="round"/>
<path d="M135.902 76.0694C136.167 76.0694 136.382 75.8545 136.382 75.5894C136.382 75.3243 136.167 75.1094 135.902 75.1094C135.637 75.1094 135.422 75.3243 135.422 75.5894C135.422 75.8545 135.637 76.0694 135.902 76.0694Z" fill="#003C2E"/>
<path d="M132.109 64.599C133.259 63.839 134.549 63.249 135.959 63.289C137.219 63.319 138.459 63.959 139.169 65.009C139.719 65.819 139.869 66.879 139.469 67.779C138.879 69.119 137.569 69.919 136.729 71.069C136.299 71.669 135.939 72.399 135.909 73.149" stroke="#003D2E" stroke-width="0.4378" stroke-miterlimit="10" stroke-linecap="round" stroke-linejoin="round"/>
<path d="M101.541 49.6299C110.234 49.6299 117.281 48.0719 117.281 46.1499C117.281 44.228 110.234 42.6699 101.541 42.6699C92.8478 42.6699 85.8008 44.228 85.8008 46.1499C85.8008 48.0719 92.8478 49.6299 101.541 49.6299Z" fill="#E3E7E3"/>
<path d="M39.2995 88.8002C47.7384 88.8002 54.5795 81.9591 54.5795 73.5202C54.5795 65.0813 47.7384 58.2402 39.2995 58.2402C30.8606 58.2402 24.0195 65.0813 24.0195 73.5202C24.0195 81.9591 30.8606 88.8002 39.2995 88.8002Z" fill="#00FF94"/>
<path d="M37.5886 88.8002C46.0275 88.8002 52.8686 81.9591 52.8686 73.5202C52.8686 65.0813 46.0275 58.2402 37.5886 58.2402C29.1497 58.2402 22.3086 65.0813 22.3086 73.5202C22.3086 81.9591 29.1497 88.8002 37.5886 88.8002Z" stroke="#003C2E" stroke-width="0.4378" stroke-miterlimit="10" stroke-linecap="round" stroke-linejoin="round"/>
<path d="M150.932 51.9604C159.371 51.9604 166.212 45.1193 166.212 36.6804C166.212 28.2415 159.371 21.4004 150.932 21.4004C142.493 21.4004 135.652 28.2415 135.652 36.6804C135.652 45.1193 142.493 51.9604 150.932 51.9604Z" fill="#00FF94"/>
<path d="M149.221 51.9604C157.66 51.9604 164.501 45.1193 164.501 36.6804C164.501 28.2415 157.66 21.4004 149.221 21.4004C140.782 21.4004 133.941 28.2415 133.941 36.6804C133.941 45.1193 140.782 51.9604 149.221 51.9604Z" stroke="#003C2E" stroke-width="0.4378" stroke-miterlimit="10" stroke-linecap="round" stroke-linejoin="round"/>
<path d="M76.4417 74.1897L77.5417 71.0497L74.5117 69.6797" stroke="#003D2E" stroke-width="0.4378" stroke-miterlimit="10" stroke-linecap="round" stroke-linejoin="round"/>
<path d="M77.5381 71.0508L59.8281 78.5208" stroke="#003D2E" stroke-width="0.4378" stroke-miterlimit="10" stroke-linecap="round" stroke-linejoin="round"/>
<path d="M133.53 52.8704L134.44 50.2804L131.93 49.1504" stroke="#003D2E" stroke-width="0.4378" stroke-miterlimit="10" stroke-linecap="round" stroke-linejoin="round"/>
<path d="M134.44 50.2793L119.82 56.4393" stroke="#003D2E" stroke-width="0.4378" stroke-miterlimit="10" stroke-linecap="round" stroke-linejoin="round"/>
<path d="M156.13 73.1895H165.2C166.2 73.1895 167.01 73.9995 167.01 74.9995C167.01 75.9995 166.2 76.8094 165.2 76.8094H156.13C155.13 76.8094 154.32 75.9995 154.32 74.9995C154.32 73.9995 155.13 73.1895 156.13 73.1895Z" fill="#E3E7E3"/>
<path d="M160.79 75.8105H175.22C176.81 75.8105 178.1 77.1006 178.1 78.6906C178.1 80.2806 176.81 81.5705 175.22 81.5705H160.79C159.2 81.5705 157.91 80.2806 157.91 78.6906C157.91 77.1006 159.2 75.8105 160.79 75.8105Z" fill="#00FF94"/>
<path d="M80.4883 29.6894H72.7783C71.9283 29.6894 71.2383 28.9994 71.2383 28.1494C71.2383 27.2994 71.9283 26.6094 72.7783 26.6094H80.4883C81.3383 26.6094 82.0283 27.2994 82.0283 28.1494C82.0283 28.9994 81.3383 29.6894 80.4883 29.6894Z" fill="#E3E7E3"/>
<path d="M83.168 32.7695H75.458C74.608 32.7695 73.918 32.0795 73.918 31.2295C73.918 30.3795 74.608 29.6895 75.458 29.6895H83.168C84.018 29.6895 84.708 30.3795 84.708 31.2295C84.708 32.0795 84.018 32.7695 83.168 32.7695Z" fill="#E3E7E3"/>
<path d="M76.5898 31.2284H68.8798C68.0298 31.2284 67.3398 30.5384 67.3398 29.6884C67.3398 28.8384 68.0298 28.1484 68.8798 28.1484H76.5898C77.4398 28.1484 78.1298 28.8384 78.1298 29.6884C78.1198 30.5384 77.4298 31.2284 76.5898 31.2284Z" fill="#E3E7E3"/>
<path d="M79.9883 78.511L81.6683 77.541" stroke="#003D2E" stroke-width="0.4378" stroke-miterlimit="10" stroke-linecap="round" stroke-linejoin="round"/>
<path d="M83.3594 78.5101L82.6094 78.0801" stroke="#003D2E" stroke-width="0.4378" stroke-miterlimit="10" stroke-linecap="round" stroke-linejoin="round"/>
<path d="M81.668 77.5403V75.5703" stroke="#003D2E" stroke-width="0.4378" stroke-miterlimit="10" stroke-linecap="round" stroke-linejoin="round"/>
<path d="M72.5797 33.4191C73.3529 33.4191 73.9797 32.7923 73.9797 32.0191C73.9797 31.2459 73.3529 30.6191 72.5797 30.6191C71.8065 30.6191 71.1797 31.2459 71.1797 32.0191C71.1797 32.7923 71.8065 33.4191 72.5797 33.4191Z" stroke="#163B2F" stroke-width="0.4378" stroke-miterlimit="10" stroke-linecap="round" stroke-linejoin="round"/>
<path d="M180.369 50.5109C181.142 50.5109 181.769 49.8841 181.769 49.1109C181.769 48.3377 181.142 47.7109 180.369 47.7109C179.596 47.7109 178.969 48.3377 178.969 49.1109C178.969 49.8841 179.596 50.5109 180.369 50.5109Z" stroke="#163B2F" stroke-width="0.4378" stroke-miterlimit="10" stroke-linecap="round" stroke-linejoin="round"/>
<path d="M38.8111 19.2395H26.7711C25.4411 19.2395 24.3711 18.1595 24.3711 16.8395C24.3711 15.5095 25.4511 14.4395 26.7711 14.4395H38.8111C40.1411 14.4395 41.2111 15.5195 41.2111 16.8395C41.2111 18.1595 40.1411 19.2395 38.8111 19.2395Z" fill="#00FF94"/>
<path d="M42.9986 24.0402H30.9586C29.6286 24.0402 28.5586 22.9602 28.5586 21.6402C28.5586 20.3102 29.6386 19.2402 30.9586 19.2402H42.9986C44.3286 19.2402 45.3986 20.3202 45.3986 21.6402C45.3986 22.9602 44.3286 24.0402 42.9986 24.0402Z" fill="#00FF94"/>
<path d="M32.7095 21.6398H20.6695C19.3395 21.6398 18.2695 20.5598 18.2695 19.2398C18.2695 17.9098 19.3495 16.8398 20.6695 16.8398H32.7095C34.0395 16.8398 35.1095 17.9198 35.1095 19.2398C35.1095 20.5598 34.0395 21.6398 32.7095 21.6398Z" fill="#00FF94"/>
<path d="M9.13281 92.0996V93.5696" stroke="#163B2F" stroke-width="0.4378" stroke-miterlimit="10" stroke-linecap="round" stroke-linejoin="round"/>
<path d="M9.13281 94.6504V96.1204" stroke="#163B2F" stroke-width="0.4378" stroke-miterlimit="10" stroke-linecap="round" stroke-linejoin="round"/>
<path d="M7.12109 94.1094H8.59109" stroke="#163B2F" stroke-width="0.4378" stroke-miterlimit="10" stroke-linecap="round" stroke-linejoin="round"/>
<path d="M9.67188 94.1094H11.1419" stroke="#163B2F" stroke-width="0.4378" stroke-miterlimit="10" stroke-linecap="round" stroke-linejoin="round"/>
<path d="M40.1328 17.2207V18.7007" stroke="#163B2F" stroke-width="0.4378" stroke-miterlimit="10" stroke-linecap="round" stroke-linejoin="round"/>
<path d="M40.1328 19.7715V21.2515" stroke="#163B2F" stroke-width="0.4378" stroke-miterlimit="10" stroke-linecap="round" stroke-linejoin="round"/>
<path d="M38.1211 19.2402H39.5911" stroke="#163B2F" stroke-width="0.4378" stroke-miterlimit="10" stroke-linecap="round" stroke-linejoin="round"/>
<path d="M40.6719 19.2402H42.1419" stroke="#163B2F" stroke-width="0.4378" stroke-miterlimit="10" stroke-linecap="round" stroke-linejoin="round"/>
<path d="M168.008 9.03906V10.5191" stroke="#163B2F" stroke-width="0.4378" stroke-miterlimit="10" stroke-linecap="round" stroke-linejoin="round"/>
<path d="M168.008 11.5898V13.0698" stroke="#163B2F" stroke-width="0.4378" stroke-miterlimit="10" stroke-linecap="round" stroke-linejoin="round"/>
<path d="M165.988 11.0488H167.468" stroke="#163B2F" stroke-width="0.4378" stroke-miterlimit="10" stroke-linecap="round" stroke-linejoin="round"/>
<path d="M168.539 11.0488H170.019" stroke="#163B2F" stroke-width="0.4378" stroke-miterlimit="10" stroke-linecap="round" stroke-linejoin="round"/>
<path d="M165.871 74.1992L166.911 75.2392" stroke="#163B2F" stroke-width="0.4378" stroke-miterlimit="10" stroke-linecap="round" stroke-linejoin="round"/>
<path d="M167.672 76L168.722 77.04" stroke="#163B2F" stroke-width="0.4378" stroke-miterlimit="10" stroke-linecap="round" stroke-linejoin="round"/>
<path d="M165.871 77.04L166.911 76" stroke="#163B2F" stroke-width="0.4378" stroke-miterlimit="10" stroke-linecap="round" stroke-linejoin="round"/>
<path d="M167.672 75.2392L168.722 74.1992" stroke="#163B2F" stroke-width="0.4378" stroke-miterlimit="10" stroke-linecap="round" stroke-linejoin="round"/>
<path d="M72.5519 97.7509H63.4819C62.4819 97.7509 61.6719 96.9409 61.6719 95.9409C61.6719 94.9409 62.4819 94.1309 63.4819 94.1309H72.5519C73.5519 94.1309 74.3619 94.9409 74.3619 95.9409C74.3619 96.9409 73.5519 97.7509 72.5519 97.7509Z" fill="#E3E7E3"/>
<path d="M67.8881 95.1409H53.4581C51.8681 95.1409 50.5781 93.8509 50.5781 92.2609C50.5781 90.6709 51.8681 89.3809 53.4581 89.3809H67.8881C69.4781 89.3809 70.7681 90.6709 70.7681 92.2609C70.7581 93.8509 69.4781 95.1409 67.8881 95.1409Z" fill="#E3E7E3"/>
<path d="M62.8095 96.7509L61.7695 95.7109" stroke="#163B2F" stroke-width="0.4378" stroke-miterlimit="10" stroke-linecap="round" stroke-linejoin="round"/>
<path d="M61.0009 94.9504L59.9609 93.9004" stroke="#163B2F" stroke-width="0.4378" stroke-miterlimit="10" stroke-linecap="round" stroke-linejoin="round"/>
<path d="M62.8095 93.9004L61.7695 94.9504" stroke="#163B2F" stroke-width="0.4378" stroke-miterlimit="10" stroke-linecap="round" stroke-linejoin="round"/>
<path d="M61.0009 95.7109L59.9609 96.7509" stroke="#163B2F" stroke-width="0.4378" stroke-miterlimit="10" stroke-linecap="round" stroke-linejoin="round"/>
<path d="M109.09 17.9805L110.14 19.0205" stroke="#163B2F" stroke-width="0.4378" stroke-miterlimit="10" stroke-linecap="round" stroke-linejoin="round"/>
<path d="M110.898 19.7812L111.938 20.8212" stroke="#163B2F" stroke-width="0.4378" stroke-miterlimit="10" stroke-linecap="round" stroke-linejoin="round"/>
<path d="M109.09 20.8212L110.14 19.7812" stroke="#163B2F" stroke-width="0.4378" stroke-miterlimit="10" stroke-linecap="round" stroke-linejoin="round"/>
<path d="M110.898 19.0205L111.938 17.9805" stroke="#163B2F" stroke-width="0.4378" stroke-miterlimit="10" stroke-linecap="round" stroke-linejoin="round"/>
<path d="M125.109 99.0898H127.009" stroke="#003C2E" stroke-width="0.4378" stroke-miterlimit="10" stroke-linecap="round" stroke-linejoin="round"/>
<path d="M117.148 94.4102H130.918" stroke="#00FF94" stroke-width="0.4378" stroke-miterlimit="10" stroke-linecap="round" stroke-linejoin="round"/>
<path d="M129.469 99.0801H137.169" stroke="#003C2E" stroke-width="0.4378" stroke-miterlimit="10" stroke-linecap="round" stroke-linejoin="round"/>
<path d="M168.621 58.6309H170.521" stroke="#003C2E" stroke-width="0.4378" stroke-miterlimit="10" stroke-linecap="round" stroke-linejoin="round"/>
<path d="M160.66 53.9395H174.43" stroke="#00FF94" stroke-width="0.4378" stroke-miterlimit="10" stroke-linecap="round" stroke-linejoin="round"/>
<path d="M172.98 58.6191H180.68" stroke="#003C2E" stroke-width="0.4378" stroke-miterlimit="10" stroke-linecap="round" stroke-linejoin="round"/>
<path d="M27.9781 42.75H26.0781" stroke="#003C2E" stroke-width="0.4378" stroke-miterlimit="10" stroke-linecap="round" stroke-linejoin="round"/>
<path d="M27.0297 46.9199H6.17969" stroke="#00FF94" stroke-width="0.4378" stroke-miterlimit="10" stroke-linecap="round" stroke-linejoin="round"/>
<path d="M13.9188 42.7598H6.21875" stroke="#003C2E" stroke-width="0.4378" stroke-miterlimit="10" stroke-linecap="round" stroke-linejoin="round"/>
<path d="M122.572 11.7695H120.672" stroke="#003C2E" stroke-width="0.4378" stroke-miterlimit="10" stroke-linecap="round" stroke-linejoin="round"/>
<path d="M130.542 16.4609H116.762" stroke="#00FF94" stroke-width="0.4378" stroke-miterlimit="10" stroke-linecap="round" stroke-linejoin="round"/>
<path d="M118.22 11.7793H110.52" stroke="#003C2E" stroke-width="0.4378" stroke-miterlimit="10" stroke-linecap="round" stroke-linejoin="round"/>
<path d="M142.672 32.0391C142.701 32.0683 142.751 32.0951 142.755 32.1272C142.79 32.4398 142.986 32.6497 143.223 32.8177C145.404 34.3598 147.585 35.9013 149.774 37.4322C150.302 37.8021 150.721 37.7806 151.243 37.414C152.435 36.5761 153.626 35.7369 154.815 34.8954C155.49 34.4182 155.981 33.798 156.239 33.0125C156.328 32.7384 156.363 32.4464 156.401 32.2673C156.401 32.9516 156.451 33.745 156.388 34.5291C156.309 35.4958 155.822 36.293 155.044 36.8671C153.748 37.8233 152.426 38.7456 151.104 39.6659C150.673 39.9652 150.218 39.8868 149.797 39.6134C149.365 39.3328 148.936 39.0464 148.516 38.7487C146.775 37.515 145.038 36.2753 143.299 35.0397C143.001 34.828 142.765 34.5778 142.712 34.1994C142.713 33.5846 142.716 32.9698 142.714 32.355C142.714 32.3083 142.687 32.2617 142.672 32.2151C142.672 32.1564 142.672 32.0977 142.672 32.0391Z" fill="#003B2F"/>
<mask id="mask0_907_12" style="mask-type:luminance" maskUnits="userSpaceOnUse" x="142" y="31" width="15" height="10">
<path d="M156.621 31.5293H142.133V40.3254H156.621V31.5293Z" fill="white"/>
<path d="M142.664 32.0449C142.693 32.0742 142.743 32.101 142.747 32.1331C142.782 32.4457 142.978 32.6556 143.215 32.8236C145.396 34.3657 147.577 35.9072 149.766 37.4381C150.294 37.8079 150.713 37.7865 151.235 37.4199C152.427 36.582 153.618 35.7427 154.807 34.9012C155.482 34.4241 155.974 33.8038 156.231 33.0183C156.321 32.7442 156.355 32.4523 156.393 32.2732C156.393 32.9575 156.444 33.7509 156.38 34.535C156.301 35.5017 155.814 36.2989 155.036 36.8729C153.74 37.8291 152.418 38.7514 151.096 39.6718C150.666 39.9711 150.21 39.8927 149.789 39.6192C149.357 39.3386 148.928 39.0522 148.508 38.7545C146.767 37.5209 145.03 36.2812 143.291 35.0456C142.993 34.8339 142.757 34.5837 142.704 34.2053C142.706 33.5905 142.708 32.9756 142.706 32.3609C142.706 32.3142 142.679 32.2675 142.664 32.2209C142.664 32.1623 142.664 32.1036 142.664 32.0449Z" fill="black"/>
</mask>
<g mask="url(#mask0_907_12)">
<path d="M142.676 32.041C142.704 32.0703 142.755 32.0971 142.758 32.1292C142.794 32.4418 142.99 32.6517 143.227 32.8197C145.408 34.3618 147.589 35.9033 149.777 37.4342C150.306 37.804 150.725 37.7826 151.247 37.416C152.439 36.5781 153.63 35.7388 154.819 34.8973C155.494 34.4202 155.985 33.7999 156.243 33.0144C156.332 32.7403 156.367 32.4484 156.405 32.2693C156.405 32.9536 156.455 33.747 156.392 34.5311C156.313 35.4978 155.826 36.295 155.048 36.869C153.752 37.8252 152.43 38.7475 151.107 39.6679C150.677 39.9672 150.222 39.8888 149.801 39.6153C149.369 39.3347 148.94 39.0483 148.52 38.7506C146.779 37.517 145.042 36.2773 143.303 35.0417C143.005 34.83 142.769 34.5798 142.716 34.2014C142.717 33.5866 142.72 32.9717 142.718 32.357C142.718 32.3103 142.69 32.2636 142.676 32.217C142.676 32.1584 142.676 32.0997 142.676 32.041Z" stroke="#003B2F" stroke-width="0.4" stroke-linejoin="round"/>
</g>
<path fill-rule="evenodd" clip-rule="evenodd" d="M142.631 31.8712C142.691 31.8467 142.76 31.861 142.806 31.9074C142.806 31.9074 142.806 31.9081 142.808 31.9096C142.81 31.9114 142.813 31.9136 142.816 31.9166C142.818 31.9176 142.819 31.9188 142.821 31.9203C142.828 31.9257 142.838 31.9339 142.847 31.9414C142.858 31.9512 142.875 31.967 142.891 31.9876C142.906 32.0082 142.927 32.0426 142.933 32.0893C142.961 32.3359 143.113 32.5105 143.335 32.6674C145.515 34.2094 147.696 35.7506 149.884 37.2811C150.131 37.454 150.335 37.5233 150.526 37.5193C150.719 37.5152 150.923 37.4365 151.17 37.263C152.362 36.4253 153.552 35.5862 154.741 34.7449C155.391 34.2853 155.86 33.6922 156.105 32.943C156.166 32.7578 156.198 32.5722 156.226 32.4089C156.239 32.3395 156.25 32.2742 156.263 32.2146C156.279 32.1344 156.354 32.08 156.436 32.0885C156.517 32.097 156.579 32.1657 156.579 32.2476C156.579 32.4448 156.583 32.6543 156.588 32.872C156.599 33.394 156.611 33.9631 156.566 34.5222C156.483 35.5397 155.969 36.3773 155.157 36.9759C153.859 37.9334 152.536 38.8568 151.214 39.777C150.969 39.9472 150.712 40.0129 150.454 39.9938C150.199 39.9749 149.954 39.874 149.728 39.7273C149.295 39.446 148.865 39.1584 148.442 38.8591C147.41 38.1278 146.38 37.3942 145.349 36.6607C144.641 36.1569 143.933 35.6532 143.225 35.1503C142.912 34.928 142.635 34.644 142.573 34.2018C142.572 34.1943 142.572 34.1868 142.572 34.1793C142.572 34.0562 142.572 33.9332 142.572 33.8101C142.574 33.3192 142.575 32.8288 142.573 32.3383C142.573 32.3367 142.572 32.3316 142.568 32.3212C142.565 32.3146 142.563 32.3087 142.56 32.301C142.559 32.2976 142.557 32.2938 142.555 32.2894C142.55 32.277 142.544 32.2609 142.539 32.2434C142.534 32.2279 142.531 32.2117 142.531 32.1954V32.0194C142.531 31.9543 142.571 31.8958 142.631 31.8712ZM151.262 37.3939C150.74 37.7605 150.321 37.782 149.792 37.4122C147.604 35.8814 145.423 34.3399 143.243 32.7978C143.104 32.7 142.98 32.5882 142.894 32.4499C142.871 32.4135 142.851 32.3753 142.834 32.3351C142.815 32.291 142.8 32.2446 142.789 32.1954C142.787 32.1858 142.785 32.1763 142.783 32.1665C142.779 32.1473 142.776 32.1276 142.774 32.1076C142.771 32.0856 142.747 32.0662 142.723 32.0467C142.712 32.0377 142.7 32.0286 142.691 32.0194V32.1954C142.696 32.2101 142.702 32.2249 142.708 32.2397C142.721 32.2715 142.733 32.3034 142.733 32.3353C142.734 32.3882 142.734 32.4411 142.734 32.494C142.734 32.9329 142.733 33.3718 142.732 33.8107C142.732 33.9337 142.732 34.0566 142.732 34.1796C142.785 34.558 143.02 34.8082 143.318 35.0198C144.026 35.523 144.734 36.0268 145.442 36.5306C146.473 37.264 147.503 37.9973 148.535 38.7285C148.955 39.0262 149.384 39.3126 149.816 39.5932C150.237 39.8666 150.692 39.945 151.122 39.6457C152.445 38.7254 153.766 37.8032 155.062 36.8471C155.84 36.2731 156.328 35.4759 156.406 34.5093C156.448 33.9905 156.44 33.4676 156.43 32.9749C156.429 32.9448 156.429 32.9147 156.428 32.8847C156.424 32.6648 156.419 32.4513 156.419 32.2476C156.408 32.2982 156.398 32.3577 156.387 32.4233C156.359 32.579 156.326 32.7688 156.27 32.9534C156.266 32.9666 156.261 32.9796 156.257 32.9927C156 33.7782 155.508 34.3984 154.834 34.8755C153.645 35.7169 152.454 36.5561 151.262 37.3939Z" fill="#003B2F"/>
<mask id="mask1_907_12" style="mask-type:luminance" maskUnits="userSpaceOnUse" x="142" y="31" width="16" height="10">
<path d="M157.005 31.3457H142V40.1418H157.005V31.3457Z" fill="white"/>
</mask>
<g mask="url(#mask1_907_12)">
<path d="M143.263 32.8394L143.356 32.7089L143.271 32.6492L143.179 32.7797L143.263 32.8394ZM142.784 31.9191L142.857 31.9923L142.858 31.9917L142.784 31.9191ZM142.552 32.35L142.655 32.3497C142.655 32.3416 142.654 32.3334 142.652 32.3255L142.552 32.35ZM142.67 32.0311L142.744 31.9587C142.714 31.9286 142.67 31.9194 142.631 31.9353C142.592 31.9512 142.566 31.989 142.566 32.0311H142.67ZM142.67 32.2071H142.566C142.566 32.2176 142.568 32.2281 142.571 32.2382L142.67 32.2071ZM142.71 34.1913L142.607 34.1911C142.607 34.196 142.607 34.2009 142.608 34.2057L142.71 34.1913ZM156.398 32.2593H156.501C156.501 32.2064 156.461 32.1619 156.408 32.1564C156.356 32.1509 156.307 32.1861 156.296 32.238L156.398 32.2593ZM142.858 31.8467C142.783 31.7702 142.669 31.7467 142.57 31.7871L142.648 31.9788C142.67 31.9701 142.694 31.9752 142.71 31.9916L142.858 31.8467ZM142.711 31.846C142.729 31.8313 142.767 31.8171 142.784 31.8156C142.794 31.8161 142.811 31.8191 142.817 31.821C142.828 31.8247 142.836 31.8296 142.838 31.8309C142.844 31.8343 142.848 31.8375 142.849 31.8382C142.851 31.8403 142.853 31.8421 142.854 31.8425C142.855 31.8436 142.856 31.8446 142.856 31.8447C142.857 31.8453 142.857 31.8458 142.857 31.8459C142.857 31.8462 142.858 31.8466 142.858 31.8467C142.858 31.8465 142.858 31.8468 142.858 31.8467C142.858 31.8467 142.858 31.8471 142.858 31.8472C142.858 31.8472 142.859 31.8475 142.859 31.8479C142.859 31.8481 142.86 31.8483 142.86 31.8487C142.86 31.8489 142.86 31.8492 142.861 31.8495C142.861 31.8498 142.862 31.8506 142.862 31.8517C142.863 31.8521 142.864 31.8532 142.865 31.8547C142.866 31.8554 142.867 31.8572 142.868 31.8582C142.869 31.8598 142.872 31.8644 142.874 31.8673C142.877 31.8736 142.886 31.9001 142.887 31.9209C142.868 31.98 142.785 32.0226 142.751 32.0173C142.742 32.0138 142.73 32.0072 142.726 32.0049C142.724 32.0035 142.721 32.0012 142.72 32.0003C142.718 31.9986 142.716 31.9972 142.715 31.9967C142.715 31.996 142.714 31.9954 142.714 31.9951C142.713 31.9945 142.713 31.994 142.712 31.9938C142.712 31.9933 142.711 31.9929 142.711 31.9928C142.711 31.9926 142.711 31.9925 142.711 31.9924C142.711 31.9924 142.711 31.9922 142.711 31.9924C142.711 31.9922 142.71 31.9916 142.71 31.9916C142.71 31.9916 142.71 31.9915 142.71 31.9916L142.858 31.8467C142.858 31.8466 142.857 31.8462 142.857 31.8459C142.857 31.8461 142.857 31.8459 142.857 31.8459C142.857 31.8458 142.857 31.8456 142.857 31.8454C142.857 31.8453 142.856 31.8452 142.856 31.8447C142.856 31.8445 142.855 31.8437 142.854 31.8431C142.854 31.8428 142.853 31.8422 142.853 31.8416C142.852 31.8411 142.851 31.8399 142.849 31.8382C142.847 31.8373 142.844 31.8347 142.842 31.8333C142.838 31.831 142.826 31.8245 142.817 31.821C142.784 31.8157 142.7 31.8583 142.681 31.9173C142.682 31.9381 142.691 31.9647 142.694 31.9709C142.696 31.9738 142.699 31.9784 142.7 31.98C142.701 31.9811 142.702 31.9828 142.703 31.9835C142.704 31.985 142.705 31.9861 142.706 31.9866C142.706 31.9876 142.707 31.9885 142.707 31.9887C142.708 31.9891 142.708 31.9894 142.708 31.9895C142.709 31.9899 142.709 31.9902 142.709 31.9903C142.709 31.9907 142.71 31.991 142.71 31.991C142.71 31.991 142.71 31.9911 142.71 31.991C142.71 31.9912 142.71 31.9914 142.71 31.9916C142.71 31.9916 142.711 31.9922 142.711 31.9924C142.711 31.9925 142.712 31.9932 142.712 31.9938C142.713 31.9939 142.713 31.9946 142.714 31.9958C142.715 31.9961 142.717 31.9982 142.72 32.0003C142.721 32.001 142.724 32.0039 142.73 32.0074C142.732 32.0087 142.74 32.0136 142.751 32.0173C142.758 32.0193 142.774 32.0221 142.784 32.0226C142.801 32.0212 142.839 32.007 142.857 31.9923L142.711 31.846ZM142.854 31.8431C142.854 31.8429 142.854 31.8432 142.855 31.8435C142.855 31.8437 142.855 31.8439 142.855 31.8443C142.855 31.8442 142.855 31.8436 142.854 31.8431C142.854 31.8429 142.853 31.842 142.852 31.8408C142.851 31.8405 142.849 31.8387 142.846 31.8365C142.844 31.8351 142.839 31.8314 142.835 31.8291C142.824 31.8238 142.758 31.819 142.71 31.8466L142.858 31.9917C142.81 32.0192 142.744 32.0144 142.733 32.0091C142.729 32.0068 142.724 32.0031 142.722 32.0018C142.719 31.9996 142.717 31.9978 142.716 31.9974C142.715 31.9963 142.714 31.9953 142.714 31.9951C142.713 31.9945 142.713 31.994 142.712 31.9938C142.712 31.9938 142.712 31.9937 142.712 31.9938C142.713 31.9939 142.713 31.994 142.713 31.9943C142.713 31.9947 142.714 31.9952 142.714 31.9958C142.716 31.9968 142.717 31.998 142.718 31.9994L142.854 31.8431ZM142.86 31.8479C142.857 31.8452 142.855 31.8441 142.855 31.8435L142.718 31.9994C142.722 32.0023 142.726 32.0054 142.73 32.0088L142.86 31.8479ZM142.864 31.8512C142.862 31.8497 142.861 31.8487 142.86 31.8479L142.73 32.0088C142.731 32.0099 142.733 32.0114 142.735 32.0127L142.864 31.8512ZM142.893 31.8748C142.882 31.8659 142.871 31.8564 142.864 31.8512L142.735 32.0127C142.742 32.0184 142.75 32.0254 142.757 32.0314L142.893 31.8748ZM142.952 31.9368C142.93 31.9077 142.906 31.8865 142.893 31.8748L142.757 32.0314C142.767 32.0394 142.778 32.0497 142.787 32.0619L142.952 31.9368ZM143.014 32.0893C143.006 32.0175 142.974 31.9657 142.952 31.9368L142.787 32.0619C142.796 32.074 142.806 32.0912 142.809 32.1128L143.014 32.0893ZM143.373 32.5946C143.162 32.4451 143.037 32.2932 143.014 32.0893L142.809 32.1128C142.842 32.402 143.022 32.5995 143.254 32.7635L143.373 32.5946ZM149.922 37.208C147.734 35.6776 145.554 34.1366 143.373 32.5946L143.254 32.7635C145.434 34.3055 147.615 35.8469 149.803 37.3776L149.922 37.208ZM150.503 37.4275C150.341 37.4309 150.158 37.3732 149.922 37.208L149.803 37.3776C150.062 37.5584 150.287 37.6391 150.507 37.6344L150.503 37.4275ZM151.089 37.1901C150.851 37.3571 150.667 37.4241 150.503 37.4275L150.507 37.6344C150.728 37.6298 150.952 37.5393 151.208 37.3594L151.089 37.1901ZM154.66 34.6721C153.471 35.5134 152.28 36.3524 151.089 37.1901L151.208 37.3594C152.4 36.5216 153.59 35.6825 154.78 34.8411L154.66 34.6721ZM155.985 32.9224C155.748 33.6481 155.294 34.2239 154.66 34.6721L154.78 34.8411C155.445 34.3702 155.929 33.7595 156.182 32.9869L155.985 32.9224ZM156.103 32.4028C156.074 32.567 156.043 32.7454 155.985 32.9224L156.182 32.9869C156.245 32.7936 156.279 32.6008 156.307 32.4384L156.103 32.4028ZM156.14 32.205C156.127 32.2667 156.115 32.3339 156.103 32.4028L156.307 32.4384C156.319 32.3686 156.33 32.3051 156.342 32.2477L156.14 32.205ZM156.425 31.9973C156.291 31.9833 156.168 32.073 156.14 32.205L156.342 32.2477C156.348 32.2193 156.375 32.2001 156.403 32.2031L156.425 31.9973ZM156.661 32.2593C156.661 32.1244 156.559 32.0113 156.425 31.9973L156.403 32.2031C156.432 32.2061 156.454 32.2304 156.454 32.2593H156.661ZM156.67 32.8815C156.665 32.6636 156.661 32.4552 156.661 32.2593H156.454C156.454 32.4578 156.459 32.6684 156.463 32.8859L156.67 32.8815ZM156.647 34.5423C156.693 33.9771 156.681 33.4027 156.67 32.8815L156.463 32.8859C156.474 33.4087 156.486 33.9726 156.441 34.5256L156.647 34.5423ZM155.197 37.0708C156.03 36.4564 156.562 35.5926 156.647 34.5423L156.441 34.5256C156.361 35.5101 155.864 36.3216 155.074 36.9043L155.197 37.0708ZM151.251 39.8737C152.573 38.9536 153.898 38.0294 155.197 37.0708L155.074 36.9043C153.778 37.8609 152.455 38.7836 151.133 39.7038L151.251 39.8737ZM150.425 40.1087C150.707 40.1297 150.988 40.0571 151.251 39.8737L151.133 39.7038C150.908 39.8607 150.673 39.9196 150.44 39.9023L150.425 40.1087ZM149.651 39.8259C149.886 39.9789 150.148 40.0881 150.425 40.1087L150.44 39.9023C150.207 39.885 149.979 39.7925 149.763 39.6523L149.651 39.8259ZM148.361 38.9552C148.785 39.2557 149.217 39.5441 149.651 39.8259L149.763 39.6523C149.331 39.3715 148.902 39.0846 148.481 38.7863L148.361 38.9552ZM145.268 36.7567C146.298 37.4902 147.329 38.2239 148.361 38.9552L148.481 38.7863C147.449 38.0551 146.418 37.3216 145.388 36.5881L145.268 36.7567ZM143.144 35.2463C143.852 35.7492 144.56 36.253 145.268 36.7567L145.388 36.5881C144.68 36.0843 143.972 35.5806 143.264 35.0776L143.144 35.2463ZM142.449 34.2278C142.517 34.7114 142.821 35.0173 143.144 35.2463L143.264 35.0776C142.96 34.8621 142.71 34.6 142.654 34.1992L142.449 34.2278ZM142.447 34.1908C142.447 34.2032 142.447 34.2156 142.449 34.2278L142.654 34.1992C142.654 34.1965 142.654 34.1939 142.654 34.1912L142.447 34.1908ZM142.447 33.8216C142.447 33.9446 142.447 34.0677 142.447 34.1908L142.654 34.1912C142.654 34.0681 142.654 33.9451 142.654 33.8221L142.447 33.8216ZM142.448 32.3503C142.45 32.8405 142.449 33.3306 142.447 33.8216L142.654 33.8221C142.655 33.3312 142.657 32.8405 142.655 32.3497L142.448 32.3503ZM142.449 32.369C142.451 32.3725 142.451 32.3745 142.452 32.3751C142.452 32.3751 142.451 32.3747 142.451 32.3746L142.652 32.3255C142.651 32.32 142.649 32.311 142.643 32.2968L142.449 32.369ZM142.442 32.3513C142.446 32.3592 142.447 32.3638 142.449 32.369L142.643 32.2968C142.64 32.2888 142.637 32.2817 142.634 32.2742L142.442 32.3513ZM142.438 32.3393C142.439 32.3439 142.441 32.3478 142.442 32.3513L142.634 32.2742C142.633 32.2708 142.632 32.2671 142.63 32.2629L142.438 32.3393ZM142.418 32.2862C142.425 32.3074 142.432 32.3264 142.438 32.3393L142.63 32.2629C142.625 32.251 142.62 32.2378 142.616 32.2241L142.418 32.2862ZM142.406 32.2071C142.406 32.2339 142.41 32.2606 142.418 32.2862L142.616 32.2241C142.614 32.2186 142.613 32.2128 142.613 32.2071H142.406ZM142.57 31.7871C142.471 31.8276 142.406 31.924 142.406 32.0311H142.613C142.613 32.0081 142.627 31.9874 142.648 31.9788L142.57 31.7871ZM149.712 37.5087C149.987 37.7013 150.245 37.7999 150.51 37.7944C150.775 37.7889 151.03 37.6801 151.3 37.4903L151.181 37.321C150.929 37.4979 150.714 37.5831 150.506 37.5875C150.299 37.5918 150.083 37.5162 149.83 37.3391L149.712 37.5087ZM143.161 32.894C145.342 34.436 147.523 35.9777 149.712 37.5087L149.83 37.3391C147.642 35.8085 145.461 34.2671 143.281 32.725L143.161 32.894ZM142.784 32.5165C142.881 32.6709 143.017 32.7921 143.161 32.894L143.281 32.725C143.148 32.6314 143.036 32.5288 142.96 32.4067L142.784 32.5165ZM142.717 32.3874C142.736 32.4328 142.759 32.4758 142.784 32.5165L142.96 32.4067C142.94 32.3746 142.922 32.3412 142.907 32.3062L142.717 32.3874ZM142.666 32.2296C142.678 32.2851 142.696 32.3376 142.717 32.3874L142.907 32.3062C142.891 32.2679 142.878 32.2274 142.868 32.1845L142.666 32.2296ZM142.659 32.1972C142.662 32.2081 142.664 32.2189 142.666 32.2296L142.868 32.1845C142.866 32.1762 142.865 32.1678 142.863 32.1593L142.659 32.1972ZM142.65 32.131C142.652 32.1535 142.655 32.1755 142.659 32.1972L142.863 32.1593C142.86 32.1425 142.857 32.1252 142.855 32.1075L142.65 32.131ZM142.637 32.1391C142.643 32.1442 142.648 32.148 142.652 32.1517C142.656 32.1552 142.658 32.1575 142.66 32.1587C142.661 32.16 142.659 32.1588 142.657 32.155C142.655 32.151 142.651 32.1427 142.65 32.131L142.855 32.1075C142.85 32.0633 142.825 32.0326 142.81 32.0171C142.795 32.0007 142.777 31.9862 142.766 31.9777L142.637 32.1391ZM142.596 32.1035C142.61 32.1181 142.627 32.1311 142.637 32.1391L142.766 31.9777C142.754 31.9677 142.748 31.9626 142.744 31.9587L142.596 32.1035ZM142.782 32.2129C142.776 32.1974 142.772 32.1863 142.768 32.176L142.571 32.2382C142.577 32.2574 142.585 32.2758 142.59 32.2899L142.782 32.2129ZM142.815 32.3468C142.815 32.2913 142.793 32.2404 142.782 32.2129L142.59 32.2899C142.605 32.3261 142.608 32.3389 142.608 32.3473L142.815 32.3468ZM142.816 32.5055C142.816 32.4526 142.815 32.3997 142.815 32.3468L142.608 32.3473C142.609 32.4001 142.609 32.453 142.609 32.5059L142.816 32.5055ZM142.814 33.8227C142.815 33.3838 142.816 32.9447 142.816 32.5055L142.609 32.5059C142.609 32.9445 142.608 33.3833 142.607 33.8222L142.814 33.8227ZM142.814 34.1916C142.814 34.0686 142.814 33.9456 142.814 33.8227L142.607 33.8222C142.607 33.9451 142.607 34.0681 142.607 34.1911L142.814 34.1916ZM143.356 34.9472C143.068 34.7423 142.86 34.514 142.813 34.177L142.608 34.2057C142.666 34.6253 142.929 34.8974 143.236 35.116L143.356 34.9472ZM145.481 36.458C144.773 35.9542 144.065 35.4504 143.356 34.9472L143.236 35.116C143.945 35.6191 144.653 36.1228 145.361 36.6266L145.481 36.458ZM148.573 38.6558C147.541 37.9247 146.511 37.1913 145.481 36.458L145.361 36.6266C146.391 37.36 147.422 38.0934 148.454 38.8247L148.573 38.6558ZM149.85 39.5181C149.419 39.238 148.992 38.9524 148.573 38.6558L148.454 38.8247C148.875 39.1234 149.305 39.4106 149.738 39.6916L149.85 39.5181ZM151.042 39.5725C150.846 39.7089 150.648 39.7573 150.452 39.7427C150.254 39.728 150.051 39.6484 149.85 39.5181L149.738 39.6916C149.958 39.8348 150.194 39.9311 150.436 39.9491C150.681 39.9673 150.926 39.9052 151.16 39.7424L151.042 39.5725ZM154.979 36.7755C153.685 37.7307 152.364 38.6522 151.042 39.5725L151.16 39.7424C152.482 38.8221 153.805 37.8991 155.102 36.9421L154.979 36.7755ZM156.281 34.5126C156.206 35.4464 155.736 36.2174 154.979 36.7755L155.102 36.9421C155.902 36.3522 156.407 35.5289 156.488 34.5294L156.281 34.5126ZM156.305 32.9888C156.315 33.4817 156.323 33.9997 156.281 34.5126L156.488 34.5294C156.53 34.0047 156.522 33.4769 156.512 32.9845L156.305 32.9888ZM156.303 32.8986C156.304 32.9286 156.304 32.9587 156.305 32.9888L156.512 32.9845C156.511 32.9543 156.511 32.9242 156.51 32.8943L156.303 32.8986ZM156.294 32.2593C156.294 32.4643 156.299 32.6789 156.303 32.8986L156.51 32.8943C156.506 32.6741 156.501 32.4618 156.501 32.2593H156.294ZM156.467 32.4529C156.479 32.3867 156.489 32.3291 156.499 32.2807L156.296 32.238C156.285 32.2907 156.274 32.3522 156.263 32.4173L156.467 32.4529ZM156.347 32.9955C156.406 32.8038 156.44 32.6078 156.467 32.4529L156.263 32.4173C156.236 32.5737 156.204 32.7573 156.149 32.9347L156.347 32.9955ZM156.334 33.0367C156.338 33.0229 156.343 33.0092 156.347 32.9955L156.149 32.9347C156.145 32.9473 156.141 32.9598 156.137 32.9723L156.334 33.0367ZM154.872 34.9717C155.562 34.4832 156.069 33.8455 156.334 33.0367L156.137 32.9723C155.888 33.7342 155.411 34.337 154.752 34.8027L154.872 34.9717ZM151.3 37.4903C152.492 36.6524 153.683 35.8132 154.872 34.9717L154.752 34.8027C153.563 35.6441 152.373 36.4832 151.181 37.321L151.3 37.4903ZM142.406 32.0311V32.2071H142.613V32.0311H142.406ZM142.773 32.2071V32.0311H142.566V32.2071H142.773Z" fill="#003B2F"/>
</g>
<path fill-rule="evenodd" clip-rule="evenodd" d="M142.631 31.8732C142.691 31.8486 142.76 31.863 142.806 31.9094C142.806 31.9094 142.806 31.91 142.808 31.9116C142.81 31.9133 142.813 31.9155 142.816 31.9186C142.818 31.9196 142.819 31.9208 142.821 31.9222C142.828 31.9276 142.838 31.9359 142.847 31.9434C142.858 31.9532 142.875 31.969 142.891 31.9896C142.906 32.0101 142.927 32.0446 142.933 32.0912C142.961 32.3379 143.113 32.5125 143.335 32.6693C145.515 34.2113 147.696 35.7525 149.884 37.283C150.131 37.456 150.335 37.5252 150.526 37.5212C150.719 37.5172 150.923 37.4384 151.17 37.265C152.362 36.4273 153.552 35.5882 154.741 34.7468C155.391 34.2872 155.86 33.6941 156.105 32.9449C156.166 32.7597 156.198 32.5741 156.226 32.4109C156.239 32.3415 156.25 32.2761 156.263 32.2166C156.279 32.1364 156.354 32.0819 156.436 32.0904C156.517 32.099 156.579 32.1676 156.579 32.2496C156.579 32.4467 156.583 32.6562 156.588 32.8739C156.599 33.3959 156.611 33.9651 156.566 34.5242C156.483 35.5416 155.969 36.3792 155.157 36.9778C153.859 37.9354 152.536 38.8588 151.214 39.779C150.969 39.9491 150.712 40.0149 150.454 39.9957C150.199 39.9768 149.954 39.876 149.728 39.7293C149.295 39.448 148.865 39.1604 148.442 38.861C147.41 38.1297 146.38 37.3962 145.349 36.6627C144.641 36.1589 143.933 35.6551 143.225 35.1522C142.912 34.93 142.635 34.6459 142.573 34.2037C142.572 34.1963 142.572 34.1888 142.572 34.1812C142.572 34.0582 142.572 33.9351 142.572 33.8121C142.574 33.3212 142.575 32.8307 142.573 32.3402C142.573 32.3387 142.572 32.3336 142.568 32.3231C142.565 32.3165 142.563 32.3106 142.56 32.303C142.559 32.2995 142.557 32.2957 142.555 32.2913C142.55 32.2789 142.544 32.2628 142.539 32.2454C142.534 32.2298 142.531 32.2136 142.531 32.1973V32.0213C142.531 31.9563 142.571 31.8978 142.631 31.8732ZM151.262 37.3959C150.74 37.7625 150.321 37.7839 149.792 37.4141C147.604 35.8833 145.423 34.3418 143.243 32.7998C143.104 32.702 142.98 32.5901 142.894 32.4518C142.871 32.4155 142.851 32.3772 142.834 32.337C142.815 32.293 142.8 32.2465 142.789 32.1973C142.787 32.1878 142.785 32.1782 142.783 32.1685C142.779 32.1492 142.776 32.1296 142.774 32.1095C142.771 32.0876 142.747 32.0681 142.723 32.0487C142.712 32.0396 142.7 32.0306 142.691 32.0213V32.1973C142.696 32.2121 142.702 32.2269 142.708 32.2417C142.721 32.2735 142.733 32.3054 142.733 32.3373C142.734 32.3902 142.734 32.443 142.734 32.496C142.734 32.9349 142.733 33.3738 142.732 33.8127C142.732 33.9356 142.732 34.0586 142.732 34.1815C142.785 34.5599 143.02 34.8101 143.318 35.0218C144.026 35.525 144.734 36.0287 145.442 36.5326C146.473 37.2659 147.503 37.9992 148.535 38.7305C148.955 39.0281 149.384 39.3146 149.816 39.5951C150.237 39.8686 150.692 39.947 151.122 39.6477C152.445 38.7274 153.766 37.8051 155.062 36.849C155.84 36.275 156.328 35.4779 156.406 34.5112C156.448 33.9924 156.44 33.4695 156.43 32.9769C156.429 32.9467 156.429 32.9167 156.428 32.8867C156.424 32.6667 156.419 32.4533 156.419 32.2496C156.408 32.3001 156.398 32.3597 156.387 32.4253C156.359 32.581 156.326 32.7708 156.27 32.9553C156.266 32.9685 156.261 32.9816 156.257 32.9947C156 33.7801 155.508 34.4004 154.834 34.8774C153.645 35.7189 152.454 36.5581 151.262 37.3959Z" fill="#003B2F"/>
<path d="M145.855 31.8028C145.893 31.7605 145.912 31.7277 145.94 31.708C146.634 31.224 147.316 30.7211 148.028 30.2643C148.764 29.7918 149.577 29.5143 150.467 29.5156C151.296 29.5169 152.049 29.7795 152.731 30.233C153.06 30.4522 153.379 30.6942 153.672 30.96C154.145 31.3897 154.194 32.155 153.818 32.6695C153.734 32.7844 153.646 32.7918 153.536 32.7185C153.382 32.6165 153.23 32.5127 153.074 32.415C151.5 31.4288 149.926 31.4394 148.352 32.4164C148.102 32.5716 147.855 32.7311 147.6 32.8783C147.549 32.9078 147.451 32.9195 147.407 32.8906C146.916 32.5662 146.431 32.2325 145.945 31.8998C145.916 31.8799 145.896 31.8472 145.855 31.8028Z" fill="#003B2F"/>
<mask id="mask2_907_12" style="mask-type:luminance" maskUnits="userSpaceOnUse" x="145" y="29" width="10" height="5">
<path d="M154.679 29H145.367V33.1388H154.679V29Z" fill="white"/>
</mask>
<g mask="url(#mask2_907_12)">
<path d="M145.883 31.8028C145.92 31.7605 145.939 31.7277 145.968 31.708C146.662 31.224 147.343 30.7211 148.055 30.2643C148.791 29.7918 149.605 29.5143 150.494 29.5156C151.324 29.5169 152.076 29.7795 152.758 30.233C153.088 30.4522 153.407 30.6942 153.699 30.96C154.172 31.3897 154.221 32.155 153.845 32.6695C153.761 32.7844 153.673 32.7918 153.563 32.7185C153.41 32.6165 153.258 32.5127 153.102 32.415C151.528 31.4288 149.953 31.4394 148.38 32.4164C148.129 32.5716 147.882 32.7311 147.627 32.8783C147.576 32.9078 147.478 32.9195 147.434 32.8906C146.943 32.5662 146.458 32.2325 145.973 31.8998C145.944 31.8799 145.923 31.8472 145.883 31.8028Z" stroke="#003B2F" stroke-width="0.4" stroke-linejoin="round"/>
</g>
<path d="M145.898 31.8028C145.936 31.7605 145.955 31.7277 145.983 31.708C146.677 31.224 147.359 30.7211 148.071 30.2643C148.807 29.7918 149.62 29.5143 150.51 29.5156C151.339 29.5169 152.092 29.7795 152.774 30.233C153.103 30.4522 153.422 30.6942 153.715 30.96C154.188 31.3897 154.237 32.155 153.861 32.6695C153.776 32.7844 153.689 32.7918 153.579 32.7185C153.425 32.6165 153.273 32.5127 153.117 32.415C151.543 31.4288 149.969 31.4394 148.395 32.4164C148.145 32.5716 147.898 32.7311 147.643 32.8783C147.592 32.9078 147.494 32.9195 147.45 32.8906C146.959 32.5662 146.474 32.2325 145.988 31.8998C145.959 31.8799 145.939 31.8472 145.898 31.8028Z" fill="#003B2F"/>
<path d="M142.672 36.7266C142.699 36.7449 142.749 36.7609 142.751 36.782C142.789 37.1306 143.023 37.3411 143.283 37.53C144.283 38.2569 145.277 38.9912 146.287 39.7028C147.406 40.4906 148.539 41.2581 149.668 42.0315C150.315 42.4747 150.674 42.4766 151.32 42.0251C152.465 41.2242 153.604 40.4132 154.749 39.6112C155.431 39.1332 155.948 38.5265 156.217 37.7356C156.316 37.4419 156.357 37.1284 156.464 36.8234C156.435 37.6747 156.46 38.5324 156.361 39.3756C156.254 40.2789 155.756 41.0166 155.025 41.5535C153.739 42.4981 152.428 43.4108 151.12 44.3253C150.661 44.6459 150.194 44.5507 149.757 44.2597C149.187 43.8805 148.619 43.499 148.061 43.1032C146.453 41.9622 144.851 40.8136 143.246 39.668C142.959 39.4633 142.754 39.2063 142.71 38.8457C142.712 38.2228 142.714 37.5998 142.714 36.977C142.714 36.9375 142.686 36.8981 142.672 36.8587C142.672 36.8146 142.672 36.7706 142.672 36.7266Z" fill="#003B2F"/>
<mask id="mask3_907_12" style="mask-type:luminance" maskUnits="userSpaceOnUse" x="142" y="36" width="16" height="10">
<path d="M157.138 36.2051H142.133V45.0012H157.138V36.2051Z" fill="white"/>
</mask>
<g mask="url(#mask3_907_12)">
<path d="M142.676 36.7266C142.703 36.7449 142.753 36.7609 142.755 36.782C142.793 37.1306 143.027 37.3411 143.287 37.53C144.287 38.2569 145.281 38.9912 146.291 39.7028C147.41 40.4906 148.543 41.2581 149.672 42.0315C150.319 42.4747 150.678 42.4766 151.324 42.0251C152.469 41.2242 153.608 40.4132 154.753 39.6112C155.435 39.1332 155.952 38.5265 156.221 37.7356C156.32 37.4419 156.361 37.1284 156.468 36.8234C156.439 37.6747 156.464 38.5324 156.365 39.3756C156.258 40.2789 155.76 41.0166 155.029 41.5535C153.742 42.4981 152.432 43.4108 151.124 44.3253C150.665 44.6459 150.198 44.5507 149.76 44.2597C149.191 43.8805 148.623 43.499 148.065 43.1032C146.457 41.9622 144.854 40.8136 143.25 39.668C142.963 39.4633 142.758 39.2063 142.714 38.8457C142.716 38.2228 142.718 37.5998 142.718 36.977C142.718 36.9375 142.69 36.8981 142.676 36.8587C142.676 36.8146 142.676 36.7706 142.676 36.7266Z" stroke="#003B2F" stroke-width="0.4" stroke-linejoin="round"/>
</g>
<path d="M142.664 36.7207C142.692 36.7391 142.741 36.7551 142.743 36.7761C142.781 37.1247 143.016 37.3352 143.275 37.5241C144.275 38.251 145.269 38.9853 146.28 39.6969C147.398 40.4847 148.531 41.2523 149.66 42.0257C150.307 42.4689 150.666 42.4708 151.312 42.0193C152.458 41.2184 153.596 40.4073 154.741 39.6054C155.423 39.1274 155.941 38.5206 156.209 37.7297C156.308 37.4361 156.349 37.1226 156.456 36.8176C156.427 37.6689 156.452 38.5265 156.353 39.3697C156.246 40.273 155.748 41.0107 155.017 41.5477C153.731 42.4922 152.421 43.4049 151.112 44.3195C150.654 44.64 150.186 44.5448 149.749 44.2538C149.179 43.8747 148.611 43.4931 148.053 43.0973C146.445 41.9563 144.843 40.8077 143.238 39.6622C142.951 39.4575 142.746 39.2005 142.702 38.8398C142.704 38.2169 142.707 37.594 142.706 36.9711C142.706 36.9317 142.679 36.8922 142.664 36.8528C142.664 36.8087 142.664 36.7647 142.664 36.7207Z" fill="#003B2F"/>
<path d="M30.6719 68.0391C30.7005 68.0683 30.7508 68.0951 30.7546 68.1272C30.7903 68.4398 30.9857 68.6497 31.2232 68.8177C33.4038 70.3598 35.585 71.9013 37.7735 73.4322C38.3022 73.8021 38.7213 73.7806 39.243 73.414C40.435 72.5761 41.6259 71.7369 42.8152 70.8954C43.4896 70.4182 43.9815 69.798 44.2386 69.0125C44.3284 68.7384 44.3629 68.4464 44.4007 68.2673C44.4007 68.9516 44.4514 69.745 44.3877 70.5291C44.3092 71.4958 43.822 72.293 43.0438 72.8671C41.7476 73.8233 40.4259 74.7456 39.1035 75.6659C38.6734 75.9652 38.2179 75.8868 37.7967 75.6134C37.3647 75.3328 36.9361 75.0464 36.5159 74.7487C34.775 73.515 33.0383 72.2753 31.2986 71.0397C31.0006 70.828 30.7652 70.5778 30.7122 70.1994C30.7135 69.5846 30.7157 68.9698 30.714 68.355C30.7139 68.3083 30.6866 68.2617 30.6719 68.2151C30.6719 68.1564 30.6719 68.0977 30.6719 68.0391Z" fill="#003B2F"/>
<mask id="mask4_907_12" style="mask-type:luminance" maskUnits="userSpaceOnUse" x="30" y="67" width="15" height="10">
<path d="M44.6205 67.5293H30.1328V76.3254H44.6205V67.5293Z" fill="white"/>
<path d="M30.6641 68.0449C30.6927 68.0742 30.743 68.101 30.7468 68.1331C30.7825 68.4457 30.9779 68.6556 31.2154 68.8236C33.396 70.3657 35.5771 71.9072 37.7657 73.4381C38.2943 73.8079 38.7135 73.7865 39.2352 73.4199C40.4272 72.582 41.6181 71.7427 42.8074 70.9012C43.4818 70.4241 43.9736 69.8038 44.2308 69.0183C44.3206 68.7442 44.3551 68.4523 44.3929 68.2732C44.3929 68.9575 44.4436 69.7509 44.3799 70.535C44.3014 71.5017 43.8142 72.2989 43.036 72.8729C41.7398 73.8291 40.4181 74.7514 39.0957 75.6718C38.6656 75.9711 38.2101 75.8927 37.7889 75.6192C37.3569 75.3386 36.9283 75.0522 36.5081 74.7545C34.7671 73.5209 33.0305 72.2812 31.2908 71.0456C30.9928 70.8339 30.7574 70.5837 30.7044 70.2053C30.7057 69.5905 30.7078 68.9756 30.7062 68.3609C30.7061 68.3142 30.6788 68.2675 30.6641 68.2209C30.6641 68.1623 30.6641 68.1036 30.6641 68.0449Z" fill="black"/>
</mask>
<g mask="url(#mask4_907_12)">
<path d="M30.6758 68.041C30.7044 68.0703 30.7547 68.0971 30.7585 68.1292C30.7942 68.4418 30.9896 68.6517 31.2271 68.8197C33.4077 70.3618 35.5889 71.9033 37.7774 73.4342C38.3061 73.804 38.7252 73.7826 39.2469 73.416C40.4389 72.5781 41.6298 71.7388 42.8191 70.8973C43.4935 70.4202 43.9854 69.7999 44.2426 69.0144C44.3323 68.7403 44.3668 68.4484 44.4046 68.2693C44.4046 68.9536 44.4553 69.747 44.3916 70.5311C44.3131 71.4978 43.8259 72.295 43.0477 72.869C41.7515 73.8252 40.4298 74.7475 39.1074 75.6679C38.6773 75.9672 38.2218 75.8888 37.8006 75.6153C37.3686 75.3347 36.94 75.0483 36.5199 74.7506C34.7789 73.517 33.0422 72.2773 31.3025 71.0417C31.0045 70.83 30.7691 70.5798 30.7161 70.2014C30.7174 69.5866 30.7196 68.9717 30.718 68.357C30.7179 68.3103 30.6905 68.2636 30.6758 68.217C30.6758 68.1584 30.6758 68.0997 30.6758 68.041Z" stroke="#003B2F" stroke-width="0.4" stroke-linejoin="round"/>
</g>
<path fill-rule="evenodd" clip-rule="evenodd" d="M30.6308 67.8712C30.691 67.8467 30.7601 67.861 30.8055 67.9074C30.8055 67.9074 30.8062 67.9081 30.808 67.9096C30.81 67.9114 30.8126 67.9136 30.8164 67.9166C30.8176 67.9176 30.8192 67.9188 30.821 67.9203C30.8277 67.9257 30.838 67.9339 30.8466 67.9414C30.858 67.9512 30.8752 67.967 30.8909 67.9876C30.9065 68.0082 30.9275 68.0426 30.9328 68.0893C30.961 68.3359 31.1132 68.5105 31.3349 68.6674C33.5154 70.2094 35.696 71.7506 37.8841 73.2811C38.1313 73.454 38.3353 73.5233 38.5263 73.5193C38.7186 73.5152 38.923 73.4365 39.1697 73.263C40.3615 72.4253 41.5523 71.5862 42.7414 70.7449C43.3909 70.2853 43.8597 69.6922 44.105 68.943C44.1656 68.7578 44.198 68.5722 44.2265 68.4089C44.2386 68.3395 44.2499 68.2742 44.2625 68.2146C44.2794 68.1344 44.3541 68.08 44.4356 68.0885C44.5171 68.097 44.5791 68.1657 44.5791 68.2476C44.5791 68.4448 44.5835 68.6543 44.5881 68.872C44.5991 69.394 44.611 69.9631 44.5656 70.5222C44.4829 71.5397 43.9687 72.3773 43.1573 72.9759C41.8592 73.9334 40.5358 74.8568 39.2137 75.777C38.9692 75.9472 38.7115 76.0129 38.4538 75.9938C38.1991 75.9749 37.9543 75.874 37.7284 75.7273C37.2953 75.446 36.8648 75.1584 36.4424 74.8591C35.4104 74.1278 34.3796 73.3942 33.349 72.6607C32.6411 72.1569 31.9333 71.6532 31.2253 71.1503C30.9125 70.928 30.635 70.644 30.5731 70.2018C30.5721 70.1943 30.5716 70.1868 30.5716 70.1793C30.5718 70.0562 30.5721 69.9332 30.5724 69.8101C30.5735 69.3192 30.5747 68.8288 30.5734 68.3383C30.5731 68.3367 30.5718 68.3316 30.5678 68.3212C30.5654 68.3146 30.5631 68.3087 30.56 68.301C30.5586 68.2976 30.5571 68.2938 30.5553 68.2894C30.5504 68.277 30.5441 68.2609 30.5387 68.2434C30.5337 68.2279 30.5312 68.2117 30.5312 68.1954V68.0194C30.5312 67.9543 30.5706 67.8958 30.6308 67.8712ZM39.2617 73.3939C38.7401 73.7605 38.321 73.782 37.7924 73.4122C35.604 71.8814 33.4231 70.3399 31.2426 68.7978C31.1043 68.7 30.9802 68.5882 30.8937 68.4499C30.8709 68.4135 30.8507 68.3753 30.8335 68.3351C30.8148 68.291 30.7996 68.2446 30.7886 68.1954C30.7865 68.1858 30.7845 68.1763 30.7827 68.1665C30.7792 68.1473 30.7762 68.1276 30.7739 68.1076C30.7714 68.0856 30.7471 68.0662 30.7229 68.0467C30.7116 68.0377 30.7003 68.0286 30.6912 68.0194V68.1954C30.6959 68.2101 30.7018 68.2249 30.7077 68.2397C30.7205 68.2715 30.7333 68.3034 30.7334 68.3353C30.7335 68.3882 30.7336 68.4411 30.7337 68.494C30.7344 68.9329 30.7334 69.3718 30.7324 69.8107C30.7321 69.9337 30.7318 70.0566 30.7315 70.1796C30.7845 70.558 31.02 70.8082 31.318 71.0198C32.0263 71.523 32.7342 72.0268 33.4421 72.5306C34.4726 73.264 35.503 73.9973 36.5349 74.7285C36.955 75.0262 37.3836 75.3126 37.8156 75.5932C38.2367 75.8666 38.6923 75.945 39.1223 75.6457C40.4446 74.7254 41.7662 73.8032 43.0623 72.8471C43.8404 72.2731 44.3276 71.4759 44.4061 70.5093C44.4483 69.9905 44.4403 69.4676 44.4301 68.9749C44.4295 68.9448 44.4289 68.9147 44.4282 68.8847C44.4236 68.6648 44.4191 68.4513 44.4191 68.2476C44.4084 68.2982 44.398 68.3577 44.3865 68.4233C44.3594 68.579 44.3263 68.7688 44.2695 68.9534C44.2655 68.9666 44.2614 68.9796 44.2571 68.9927C43.9999 69.7782 43.5081 70.3984 42.8338 70.8755C41.6445 71.7169 40.4536 72.5561 39.2617 73.3939Z" fill="#003B2F"/>
<mask id="mask5_907_12" style="mask-type:luminance" maskUnits="userSpaceOnUse" x="30" y="67" width="16" height="10">
<path d="M45.0051 67.3457H30V76.1418H45.0051V67.3457Z" fill="white"/>
</mask>
<g mask="url(#mask5_907_12)">
<path d="M31.2633 68.8394L31.3556 68.7089L31.2711 68.6492L31.1788 68.7797L31.2633 68.8394ZM30.784 67.9191L30.8572 67.9923L30.8578 67.9917L30.784 67.9191ZM30.5519 68.35L30.6554 68.3497C30.6553 68.3416 30.6544 68.3334 30.6524 68.3255L30.5519 68.35ZM30.6697 68.0311L30.7437 67.9587C30.7142 67.9286 30.6696 67.9194 30.6306 67.9353C30.5917 67.9512 30.5662 67.989 30.5662 68.0311H30.6697ZM30.6697 68.2071H30.5662C30.5662 68.2176 30.5678 68.2281 30.571 68.2382L30.6697 68.2071ZM30.71 70.1913L30.6065 70.1911C30.6065 70.196 30.6069 70.2009 30.6075 70.2057L30.71 70.1913ZM44.3976 68.2593H44.5011C44.5011 68.2064 44.461 68.1619 44.4083 68.1564C44.3556 68.1509 44.3072 68.1861 44.2963 68.238L44.3976 68.2593ZM30.8579 67.8467C30.783 67.7702 30.6693 67.7467 30.5702 67.7871L30.6484 67.9788C30.6696 67.9701 30.694 67.9752 30.7101 67.9916L30.8579 67.8467ZM30.7109 67.846C30.7293 67.8313 30.7669 67.8171 30.7835 67.8156C30.794 67.8161 30.8107 67.8191 30.817 67.821C30.8281 67.8247 30.8359 67.8296 30.838 67.8309C30.8436 67.8343 30.8477 67.8375 30.8486 67.8382C30.8512 67.8403 30.8532 67.8421 30.8536 67.8425C30.8548 67.8436 30.8558 67.8446 30.856 67.8447C30.8566 67.8453 30.8571 67.8458 30.8571 67.8459C30.8575 67.8462 30.8579 67.8466 30.8579 67.8467C30.8578 67.8465 30.8581 67.8468 30.8579 67.8467C30.858 67.8467 30.8583 67.8471 30.8584 67.8472C30.8584 67.8472 30.8587 67.8475 30.8592 67.8479C30.8593 67.8481 30.8595 67.8483 30.8598 67.8487C30.86 67.8489 30.8602 67.8492 30.8606 67.8495C30.8608 67.8498 30.8615 67.8506 30.8625 67.8517C30.8629 67.8521 30.8638 67.8532 30.865 67.8547C30.8656 67.8554 30.8669 67.8572 30.8677 67.8582C30.8688 67.8598 30.8718 67.8644 30.8736 67.8673C30.877 67.8736 30.8858 67.9001 30.8875 67.9209C30.8677 67.98 30.7845 68.0226 30.7514 68.0173C30.7422 68.0138 30.7297 68.0072 30.7261 68.0049C30.7241 68.0035 30.721 68.0012 30.7198 68.0003C30.7176 67.9986 30.716 67.9972 30.7155 67.9967C30.7147 67.996 30.7142 67.9954 30.7138 67.9951C30.7131 67.9945 30.7126 67.994 30.7124 67.9938C30.7118 67.9933 30.7115 67.9929 30.7113 67.9928C30.7112 67.9926 30.711 67.9925 30.7109 67.9924C30.711 67.9924 30.7108 67.9922 30.7109 67.9924C30.7107 67.9922 30.7101 67.9916 30.7101 67.9916C30.7101 67.9916 30.71 67.9915 30.7101 67.9916L30.8579 67.8467C30.8579 67.8466 30.8575 67.8462 30.8571 67.8459C30.8573 67.8461 30.8571 67.8459 30.8571 67.8459C30.857 67.8458 30.8569 67.8456 30.8567 67.8454C30.8566 67.8453 30.8565 67.8452 30.856 67.8447C30.8557 67.8445 30.8549 67.8437 30.8542 67.8431C30.8539 67.8428 30.8533 67.8422 30.8525 67.8416C30.852 67.8411 30.8507 67.8399 30.8486 67.8382C30.8474 67.8373 30.8439 67.8347 30.8419 67.8333C30.8383 67.831 30.8262 67.8245 30.817 67.821C30.7838 67.8157 30.7003 67.8583 30.6805 67.9173C30.6823 67.9381 30.6911 67.9647 30.6944 67.9709C30.6962 67.9738 30.6992 67.9784 30.7003 67.98C30.7011 67.9811 30.7025 67.9828 30.7031 67.9835C30.7042 67.985 30.7051 67.9861 30.7055 67.9866C30.7065 67.9876 30.7072 67.9885 30.7074 67.9887C30.7078 67.9891 30.708 67.9894 30.7082 67.9895C30.7085 67.9899 30.7087 67.9902 30.7089 67.9903C30.7093 67.9907 30.7096 67.991 30.7096 67.991C30.7096 67.991 30.7097 67.9911 30.7096 67.991C30.7097 67.9912 30.7099 67.9914 30.7101 67.9916C30.7101 67.9916 30.7107 67.9922 30.7109 67.9924C30.711 67.9925 30.7117 67.9932 30.7124 67.9938C30.7126 67.9939 30.7132 67.9946 30.7145 67.9958C30.7148 67.9961 30.7172 67.9982 30.7198 68.0003C30.7206 68.001 30.7244 68.0039 30.73 68.0074C30.7321 68.0087 30.7403 68.0136 30.7514 68.0173C30.7577 68.0193 30.7741 68.0221 30.7845 68.0226C30.8012 68.0212 30.8387 68.007 30.8572 67.9923L30.7109 67.846ZM30.8542 67.8431C30.854 67.8429 30.8543 67.8432 30.8547 67.8435C30.8549 67.8437 30.8552 67.8439 30.8554 67.8443C30.8554 67.8442 30.8548 67.8436 30.8542 67.8431C30.854 67.8429 30.8531 67.842 30.8517 67.8408C30.8513 67.8405 30.8492 67.8387 30.8463 67.8365C30.8445 67.8351 30.8389 67.8314 30.8351 67.8291C30.8243 67.8238 30.7579 67.819 30.7102 67.8466L30.8578 67.9917C30.8101 68.0192 30.7437 68.0144 30.733 68.0091C30.7291 68.0068 30.7235 68.0031 30.7217 68.0018C30.7189 67.9996 30.7168 67.9978 30.7163 67.9974C30.715 67.9963 30.714 67.9953 30.7138 67.9951C30.7131 67.9945 30.7126 67.994 30.7124 67.9938C30.7124 67.9938 30.7123 67.9937 30.7124 67.9938C30.7126 67.9939 30.7126 67.994 30.7128 67.9943C30.7133 67.9947 30.7139 67.9952 30.7145 67.9958C30.7157 67.9968 30.7169 67.998 30.7185 67.9994L30.8542 67.8431ZM30.86 67.8479C30.8567 67.8452 30.8554 67.8441 30.8547 67.8435L30.7185 67.9994C30.7219 68.0023 30.7256 68.0054 30.7298 68.0088L30.86 67.8479ZM30.8641 67.8512C30.8623 67.8497 30.861 67.8487 30.86 67.8479L30.7298 68.0088C30.7313 68.0099 30.733 68.0114 30.7347 68.0127L30.8641 67.8512ZM30.8928 67.8748C30.8824 67.8659 30.8706 67.8564 30.8641 67.8512L30.7347 68.0127C30.7418 68.0184 30.7504 68.0254 30.7574 68.0314L30.8928 67.8748ZM30.9518 67.9368C30.9297 67.9077 30.9062 67.8865 30.8928 67.8748L30.7574 68.0314C30.7667 68.0394 30.7777 68.0497 30.7869 68.0619L30.9518 67.9368ZM31.0141 68.0893C31.0059 68.0175 30.9738 67.9657 30.9518 67.9368L30.7869 68.0619C30.7961 68.074 30.806 68.0912 30.8085 68.1128L31.0141 68.0893ZM31.3731 68.5946C31.1618 68.4451 31.0375 68.2932 31.0141 68.0893L30.8085 68.1128C30.8416 68.402 31.0216 68.5995 31.2536 68.7635L31.3731 68.5946ZM37.9219 73.208C35.7341 71.6776 33.5537 70.1366 31.3731 68.5946L31.2536 68.7635C33.4341 70.3055 35.615 71.8469 37.8033 73.3776L37.9219 73.208ZM38.5026 73.4275C38.3407 73.4309 38.158 73.3732 37.9219 73.208L37.8033 73.3776C38.0615 73.5584 38.2869 73.6391 38.507 73.6344L38.5026 73.4275ZM39.0887 73.1901C38.8511 73.3571 38.6667 73.4241 38.5026 73.4275L38.507 73.6344C38.7276 73.6298 38.9519 73.5393 39.2077 73.3594L39.0887 73.1901ZM42.6601 70.6721C41.4711 71.5134 40.2804 72.3524 39.0887 73.1901L39.2077 73.3594C40.3996 72.5216 41.5904 71.6825 42.7796 70.8411L42.6601 70.6721ZM43.9852 68.9224C43.7475 69.6481 43.2936 70.2239 42.6601 70.6721L42.7796 70.8411C43.4452 70.3702 43.9288 69.7595 44.1819 68.9869L43.9852 68.9224ZM44.103 68.4028C44.0744 68.567 44.0431 68.7454 43.9852 68.9224L44.1819 68.9869C44.2451 68.7936 44.2786 68.6008 44.3069 68.4384L44.103 68.4028ZM44.1397 68.205C44.1267 68.2667 44.1151 68.3339 44.103 68.4028L44.3069 68.4384C44.3191 68.3686 44.3302 68.3051 44.3423 68.2477L44.1397 68.205ZM44.4249 67.9973C44.2907 67.9833 44.1676 68.073 44.1397 68.205L44.3423 68.2477C44.3483 68.2193 44.3747 68.2001 44.4034 68.2031L44.4249 67.9973ZM44.6611 68.2593C44.6611 68.1244 44.5591 68.0113 44.4249 67.9973L44.4034 68.2031C44.4322 68.2061 44.4541 68.2304 44.4541 68.2593H44.6611ZM44.67 68.8815C44.6654 68.6636 44.6611 68.4552 44.6611 68.2593H44.4541C44.4541 68.4578 44.4585 68.6684 44.4631 68.8859L44.67 68.8815ZM44.6472 70.5423C44.6932 69.9771 44.681 69.4027 44.67 68.8815L44.4631 68.8859C44.4741 69.4087 44.4858 69.9726 44.4409 70.5256L44.6472 70.5423ZM43.1972 73.0708C44.0301 72.4564 44.5619 71.5926 44.6472 70.5423L44.4409 70.5256C44.3609 71.5101 43.8642 72.3216 43.0743 72.9043L43.1972 73.0708ZM39.2513 75.8737C40.5734 74.9536 41.8978 74.0294 43.1972 73.0708L43.0743 72.9043C41.7775 73.8609 40.4553 74.7836 39.1331 75.7038L39.2513 75.8737ZM38.4245 76.1087C38.7066 76.1297 38.9878 76.0571 39.2513 75.8737L39.1331 75.7038C38.9077 75.8607 38.6734 75.9196 38.4399 75.9023L38.4245 76.1087ZM37.6506 75.8259C37.8863 75.9789 38.1477 76.0881 38.4245 76.1087L38.4399 75.9023C38.2075 75.885 37.9792 75.7925 37.7633 75.6523L37.6506 75.8259ZM36.361 74.9552C36.7849 75.2557 37.2167 75.5441 37.6506 75.8259L37.7633 75.6523C37.3309 75.3715 36.9016 75.0846 36.4807 74.7863L36.361 74.9552ZM33.2675 72.7567C34.2981 73.4902 35.3289 74.2239 36.361 74.9552L36.4807 74.7863C35.4488 74.0551 34.4181 73.3216 33.3875 72.5881L33.2675 72.7567ZM31.1439 71.2463C31.8519 71.7492 32.5596 72.253 33.2675 72.7567L33.3875 72.5881C32.6797 72.0843 31.9718 71.5806 31.2637 71.0776L31.1439 71.2463ZM30.4491 70.2278C30.5168 70.7114 30.8215 71.0173 31.1439 71.2463L31.2637 71.0776C30.9604 70.8621 30.7102 70.6 30.6541 70.1992L30.4491 70.2278ZM30.4466 70.1908C30.4466 70.2032 30.4474 70.2156 30.4491 70.2278L30.6541 70.1992C30.6537 70.1965 30.6535 70.1939 30.6535 70.1912L30.4466 70.1908ZM30.4474 69.8216C30.4471 69.9446 30.4468 70.0677 30.4466 70.1908L30.6535 70.1912C30.6538 70.0681 30.6541 69.9451 30.6544 69.8221L30.4474 69.8216ZM30.4484 68.3503C30.4497 68.8405 30.4485 69.3306 30.4474 69.8216L30.6544 69.8221C30.6555 69.3312 30.6566 68.8405 30.6554 68.3497L30.4484 68.3503ZM30.4494 68.369C30.4507 68.3725 30.4513 68.3745 30.4515 68.3751C30.4515 68.3751 30.4514 68.3747 30.4514 68.3746L30.6524 68.3255C30.6511 68.32 30.6486 68.311 30.6433 68.2968L30.4494 68.369ZM30.4424 68.3513C30.4456 68.3592 30.4474 68.3638 30.4494 68.369L30.6433 68.2968C30.6403 68.2888 30.6375 68.2817 30.6345 68.2742L30.4424 68.3513ZM30.4377 68.3393C30.4395 68.3439 30.441 68.3478 30.4424 68.3513L30.6345 68.2742C30.6331 68.2708 30.6316 68.2671 30.63 68.2629L30.4377 68.3393ZM30.4184 68.2862C30.4251 68.3074 30.4325 68.3264 30.4377 68.3393L30.63 68.2629C30.6253 68.251 30.6202 68.2378 30.6158 68.2241L30.4184 68.2862ZM30.4062 68.2071C30.4062 68.2339 30.4103 68.2606 30.4184 68.2862L30.6158 68.2241C30.6141 68.2186 30.6132 68.2128 30.6132 68.2071H30.4062ZM30.5702 67.7871C30.471 67.8276 30.4062 67.924 30.4062 68.0311H30.6132C30.6132 68.0081 30.6271 67.9874 30.6484 67.9788L30.5702 67.7871ZM37.7115 73.5087C37.9869 73.7013 38.2452 73.7999 38.5103 73.7944C38.7747 73.7889 39.0298 73.6801 39.2997 73.4903L39.1807 73.321C38.929 73.4979 38.7137 73.5831 38.506 73.5875C38.2991 73.5918 38.0835 73.5162 37.8302 73.3391L37.7115 73.5087ZM31.1613 68.894C33.3418 70.436 35.5228 71.9777 37.7115 73.5087L37.8302 73.3391C35.642 71.8085 33.4614 70.2671 31.2808 68.725L31.1613 68.894ZM30.7844 68.5165C30.881 68.6709 31.0172 68.7921 31.1613 68.894L31.2808 68.725C31.1484 68.6314 31.0363 68.5288 30.9599 68.4067L30.7844 68.5165ZM30.7168 68.3874C30.7362 68.4328 30.7589 68.4758 30.7844 68.5165L30.9599 68.4067C30.9398 68.3746 30.9221 68.3412 30.9072 68.3062L30.7168 68.3874ZM30.6661 68.2296C30.6785 68.2851 30.6956 68.3376 30.7168 68.3874L30.9072 68.3062C30.8909 68.2679 30.8777 68.2274 30.8681 68.1845L30.6661 68.2296ZM30.6595 68.1972C30.6615 68.2081 30.6637 68.2189 30.6661 68.2296L30.8681 68.1845C30.8663 68.1762 30.8645 68.1678 30.8629 68.1593L30.6595 68.1972ZM30.6495 68.131C30.6521 68.1535 30.6554 68.1755 30.6595 68.1972L30.8629 68.1593C30.8598 68.1425 30.8572 68.1252 30.8552 68.1075L30.6495 68.131ZM30.6366 68.1391C30.6429 68.1442 30.6476 68.148 30.6519 68.1517C30.6561 68.1552 30.6583 68.1575 30.6595 68.1587C30.6608 68.16 30.6593 68.1588 30.6571 68.155C30.6548 68.151 30.6509 68.1427 30.6495 68.131L30.8552 68.1075C30.8501 68.0633 30.825 68.0326 30.8105 68.0171C30.7951 68.0007 30.7767 67.9862 30.7661 67.9777L30.6366 68.1391ZM30.5958 68.1035C30.6101 68.1181 30.6265 68.1311 30.6366 68.1391L30.7661 67.9777C30.7536 67.9677 30.7476 67.9626 30.7437 67.9587L30.5958 68.1035ZM30.7823 68.2129C30.7761 68.1974 30.7717 68.1863 30.7685 68.176L30.571 68.2382C30.5771 68.2574 30.5846 68.2758 30.5902 68.2899L30.7823 68.2129ZM30.8154 68.3468C30.8152 68.2913 30.7933 68.2404 30.7823 68.2129L30.5902 68.2899C30.6047 68.3261 30.6084 68.3389 30.6084 68.3473L30.8154 68.3468ZM30.8157 68.5055C30.8156 68.4526 30.8155 68.3997 30.8154 68.3468L30.6084 68.3473C30.6085 68.4001 30.6087 68.453 30.6087 68.5059L30.8157 68.5055ZM30.8144 69.8227C30.8154 69.3838 30.8164 68.9447 30.8157 68.5055L30.6087 68.5059C30.6094 68.9445 30.6084 69.3833 30.6074 69.8222L30.8144 69.8227ZM30.8135 70.1916C30.8138 70.0686 30.814 69.9456 30.8144 69.8227L30.6074 69.8222C30.6071 69.9451 30.6068 70.0681 30.6065 70.1911L30.8135 70.1916ZM31.3564 70.9472C31.068 70.7423 30.8597 70.514 30.8125 70.177L30.6075 70.2057C30.6663 70.6253 30.9289 70.8974 31.2365 71.116L31.3564 70.9472ZM33.4806 72.458C32.7727 71.9542 32.0648 71.4504 31.3564 70.9472L31.2365 71.116C31.9448 71.6191 32.6527 72.1228 33.3606 72.6266L33.4806 72.458ZM36.5732 74.6558C35.5414 73.9247 34.5111 73.1913 33.4806 72.458L33.3606 72.6266C34.391 73.36 35.4215 74.0934 36.4535 74.8247L36.5732 74.6558ZM37.8504 75.5181C37.4192 75.238 36.9918 74.9524 36.5732 74.6558L36.4535 74.8247C36.8751 75.1234 37.305 75.4106 37.7377 75.6916L37.8504 75.5181ZM39.0416 75.5725C38.8457 75.7089 38.6478 75.7573 38.4518 75.7427C38.2537 75.728 38.0511 75.6484 37.8504 75.5181L37.7377 75.6916C37.9581 75.8348 38.1939 75.9311 38.4364 75.9491C38.6809 75.9673 38.9258 75.9052 39.1599 75.7424L39.0416 75.5725ZM42.9793 72.7755C41.6846 73.7307 40.3641 74.6522 39.0416 75.5725L39.1599 75.7424C40.4821 74.8221 41.8049 73.8991 43.1022 72.9421L42.9793 72.7755ZM44.2815 70.5126C44.2056 71.4464 43.7359 72.2174 42.9793 72.7755L43.1022 72.9421C43.9019 72.3522 44.4065 71.5289 44.4878 70.5294L44.2815 70.5126ZM44.3051 68.9888C44.3154 69.4817 44.3232 69.9997 44.2815 70.5126L44.4878 70.5294C44.5304 70.0047 44.5223 69.4769 44.5121 68.9845L44.3051 68.9888ZM44.3032 68.8986C44.3039 68.9286 44.3045 68.9587 44.3051 68.9888L44.5121 68.9845C44.5114 68.9543 44.5108 68.9242 44.5102 68.8943L44.3032 68.8986ZM44.2941 68.2593C44.2941 68.4643 44.2986 68.6789 44.3032 68.8986L44.5102 68.8943C44.5055 68.6741 44.5011 68.4618 44.5011 68.2593H44.2941ZM44.467 68.4529C44.4786 68.3867 44.4886 68.3291 44.4988 68.2807L44.2963 68.238C44.2852 68.2907 44.2745 68.3522 44.2631 68.4173L44.467 68.4529ZM44.347 68.9955C44.4059 68.8038 44.44 68.6078 44.467 68.4529L44.2631 68.4173C44.2358 68.5737 44.2036 68.7573 44.1491 68.9347L44.347 68.9955ZM44.3339 69.0367C44.3384 69.0229 44.3427 69.0092 44.347 68.9955L44.1491 68.9347C44.1452 68.9473 44.1413 68.9598 44.1372 68.9723L44.3339 69.0367ZM42.872 70.9717C43.5623 70.4832 44.069 69.8455 44.3339 69.0367L44.1372 68.9723C43.8877 69.7342 43.4108 70.337 42.7525 70.8027L42.872 70.9717ZM39.2997 73.4903C40.4917 72.6524 41.6827 71.8132 42.872 70.9717L42.7525 70.8027C41.5633 71.6441 40.3725 72.4832 39.1807 73.321L39.2997 73.4903ZM30.4062 68.0311V68.2071H30.6132V68.0311H30.4062ZM30.7732 68.2071V68.0311H30.5662V68.2071H30.7732Z" fill="#003B2F"/>
</g>
<path fill-rule="evenodd" clip-rule="evenodd" d="M30.6308 67.8732C30.691 67.8486 30.7601 67.863 30.8055 67.9094C30.8055 67.9094 30.8062 67.91 30.808 67.9116C30.81 67.9133 30.8126 67.9155 30.8164 67.9186C30.8176 67.9196 30.8192 67.9208 30.821 67.9222C30.8277 67.9276 30.838 67.9359 30.8466 67.9434C30.858 67.9532 30.8752 67.969 30.8909 67.9896C30.9065 68.0101 30.9275 68.0446 30.9328 68.0912C30.961 68.3379 31.1132 68.5125 31.3349 68.6693C33.5154 70.2113 35.696 71.7525 37.8841 73.283C38.1313 73.456 38.3353 73.5252 38.5263 73.5212C38.7186 73.5172 38.923 73.4384 39.1697 73.265C40.3615 72.4273 41.5523 71.5882 42.7414 70.7468C43.3909 70.2872 43.8597 69.6941 44.105 68.9449C44.1656 68.7597 44.198 68.5741 44.2265 68.4109C44.2386 68.3415 44.2499 68.2761 44.2625 68.2166C44.2794 68.1364 44.3541 68.0819 44.4356 68.0904C44.5171 68.099 44.5791 68.1676 44.5791 68.2496C44.5791 68.4467 44.5835 68.6562 44.5881 68.8739C44.5991 69.3959 44.611 69.9651 44.5656 70.5242C44.4829 71.5416 43.9687 72.3792 43.1573 72.9778C41.8592 73.9354 40.5358 74.8588 39.2137 75.779C38.9692 75.9491 38.7115 76.0149 38.4538 75.9957C38.1991 75.9768 37.9543 75.876 37.7284 75.7293C37.2953 75.448 36.8648 75.1604 36.4424 74.861C35.4104 74.1297 34.3796 73.3962 33.349 72.6627C32.6411 72.1589 31.9333 71.6551 31.2253 71.1522C30.9125 70.93 30.635 70.6459 30.5731 70.2037C30.5721 70.1963 30.5716 70.1888 30.5716 70.1812C30.5718 70.0582 30.5721 69.9351 30.5724 69.8121C30.5735 69.3212 30.5747 68.8307 30.5734 68.3402C30.5731 68.3387 30.5718 68.3336 30.5678 68.3231C30.5654 68.3165 30.5631 68.3106 30.56 68.303C30.5586 68.2995 30.5571 68.2957 30.5553 68.2913C30.5504 68.2789 30.5441 68.2628 30.5387 68.2454C30.5337 68.2298 30.5312 68.2136 30.5312 68.1973V68.0213C30.5312 67.9563 30.5706 67.8978 30.6308 67.8732ZM39.2617 73.3959C38.7401 73.7625 38.321 73.7839 37.7924 73.4141C35.604 71.8833 33.4231 70.3418 31.2426 68.7998C31.1043 68.702 30.9802 68.5901 30.8937 68.4518C30.8709 68.4155 30.8507 68.3772 30.8335 68.337C30.8148 68.293 30.7996 68.2465 30.7886 68.1973C30.7865 68.1878 30.7845 68.1782 30.7827 68.1685C30.7792 68.1492 30.7762 68.1296 30.7739 68.1095C30.7714 68.0876 30.7471 68.0681 30.7229 68.0487C30.7116 68.0396 30.7003 68.0306 30.6912 68.0213V68.1973C30.6959 68.2121 30.7018 68.2269 30.7077 68.2417C30.7205 68.2735 30.7333 68.3054 30.7334 68.3373C30.7335 68.3902 30.7336 68.443 30.7337 68.496C30.7344 68.9349 30.7334 69.3738 30.7324 69.8127C30.7321 69.9356 30.7318 70.0586 30.7315 70.1815C30.7845 70.5599 31.02 70.8101 31.318 71.0218C32.0263 71.525 32.7342 72.0287 33.4421 72.5326C34.4726 73.2659 35.503 73.9992 36.5349 74.7305C36.955 75.0281 37.3836 75.3146 37.8156 75.5951C38.2367 75.8686 38.6923 75.947 39.1223 75.6477C40.4446 74.7274 41.7662 73.8051 43.0623 72.849C43.8404 72.275 44.3276 71.4779 44.4061 70.5112C44.4483 69.9924 44.4403 69.4695 44.4301 68.9769C44.4295 68.9467 44.4289 68.9167 44.4282 68.8867C44.4236 68.6667 44.4191 68.4533 44.4191 68.2496C44.4084 68.3001 44.398 68.3597 44.3865 68.4253C44.3594 68.581 44.3263 68.7708 44.2695 68.9553C44.2655 68.9685 44.2614 68.9816 44.2571 68.9947C43.9999 69.7801 43.5081 70.4004 42.8338 70.8774C41.6445 71.7189 40.4536 72.5581 39.2617 73.3959Z" fill="#003B2F"/>
<path d="M33.8555 67.8028C33.8928 67.7605 33.912 67.7277 33.9404 67.708C34.6343 67.224 35.316 66.7211 36.0277 66.2643C36.7641 65.7918 37.5774 65.5143 38.4671 65.5156C39.2963 65.5169 40.0487 65.7795 40.7306 66.233C41.0604 66.4522 41.3795 66.6942 41.672 66.96C42.1449 67.3897 42.1938 68.155 41.8175 68.6695C41.7335 68.7844 41.646 68.7918 41.5356 68.7185C41.3824 68.6165 41.2304 68.5127 41.0745 68.415C39.5005 67.4288 37.9261 67.4394 36.3523 68.4164C36.1021 68.5716 35.8545 68.7311 35.5997 68.8783C35.5485 68.9078 35.4507 68.9195 35.4071 68.8906C34.916 68.5662 34.4309 68.2325 33.9453 67.8998C33.9162 67.8799 33.896 67.8472 33.8555 67.8028Z" fill="#003B2F"/>
<mask id="mask6_907_12" style="mask-type:luminance" maskUnits="userSpaceOnUse" x="33" y="65" width="10" height="5">
<path d="M42.6795 65H33.3672V69.1388H42.6795V65Z" fill="white"/>
</mask>
<g mask="url(#mask6_907_12)">
<path d="M33.8828 67.8028C33.9202 67.7605 33.9394 67.7277 33.9678 67.708C34.6617 67.224 35.3434 66.7211 36.055 66.2643C36.7915 65.7918 37.6048 65.5143 38.4944 65.5156C39.3237 65.5169 40.076 65.7795 40.758 66.233C41.0877 66.4522 41.4068 66.6942 41.6994 66.96C42.1722 67.3897 42.2212 68.155 41.8449 68.6695C41.7608 68.7844 41.6734 68.7918 41.563 68.7185C41.4097 68.6165 41.2578 68.5127 41.1018 68.415C39.5278 67.4288 37.9534 67.4394 36.3796 68.4164C36.1295 68.5716 35.8819 68.7311 35.627 68.8783C35.5759 68.9078 35.4781 68.9195 35.4344 68.8906C34.9433 68.5662 34.4583 68.2325 33.9726 67.8998C33.9436 67.8799 33.9233 67.8472 33.8828 67.8028Z" stroke="#003B2F" stroke-width="0.4" stroke-linejoin="round"/>
</g>
<path d="M33.8984 67.8028C33.9358 67.7605 33.955 67.7277 33.9834 67.708C34.6773 67.224 35.359 66.7211 36.0706 66.2643C36.8071 65.7918 37.6204 65.5143 38.5101 65.5156C39.3393 65.5169 40.0916 65.7795 40.7736 66.233C41.1033 66.4522 41.4225 66.6942 41.715 66.96C42.1879 67.3897 42.2368 68.155 41.8605 68.6695C41.7765 68.7844 41.689 68.7918 41.5786 68.7185C41.4254 68.6165 41.2734 68.5127 41.1174 68.415C39.5434 67.4288 37.9691 67.4394 36.3953 68.4164C36.1451 68.5716 35.8975 68.7311 35.6426 68.8783C35.5915 68.9078 35.4937 68.9195 35.45 68.8906C34.9589 68.5662 34.4739 68.2325 33.9883 67.8998C33.9592 67.8799 33.939 67.8472 33.8984 67.8028Z" fill="#003B2F"/>
<path d="M30.672 72.7266C30.6994 72.7449 30.7487 72.7609 30.751 72.782C30.789 73.1306 31.0234 73.3411 31.2831 73.53C32.2827 74.2569 33.2769 74.9912 34.2873 75.7028C35.4061 76.4906 36.5393 77.2581 37.6682 78.0315C38.315 78.4747 38.6739 78.4766 39.3198 78.0251C40.4655 77.2242 41.604 76.4132 42.7489 75.6112C43.4313 75.1332 43.9485 74.5265 44.2167 73.7356C44.3162 73.4419 44.3567 73.1284 44.4642 72.8234C44.4346 73.6747 44.4601 74.5324 44.3607 75.3756C44.254 76.2789 43.756 77.0166 43.0248 77.5535C41.7385 78.4981 40.4283 79.4108 39.12 80.3253C38.6614 80.6459 38.1939 80.5507 37.7566 80.2597C37.1871 79.8805 36.6187 79.499 36.0608 79.1032C34.4529 77.9622 32.8506 76.8136 31.246 75.668C30.9592 75.4633 30.7542 75.2063 30.7097 74.8457C30.7117 74.2228 30.7145 73.5998 30.7137 72.977C30.7137 72.9375 30.6865 72.8981 30.6719 72.8587C30.672 72.8146 30.672 72.7706 30.672 72.7266Z" fill="#003B2F"/>
<mask id="mask7_907_12" style="mask-type:luminance" maskUnits="userSpaceOnUse" x="30" y="72" width="16" height="10">
<path d="M45.1379 72.2051H30.1328V81.0012H45.1379V72.2051Z" fill="white"/>
</mask>
<g mask="url(#mask7_907_12)">
<path d="M30.6759 72.7266C30.7033 72.7449 30.7526 72.7609 30.7549 72.782C30.7929 73.1306 31.0273 73.3411 31.287 73.53C32.2866 74.2569 33.2808 74.9912 34.2913 75.7028C35.41 76.4906 36.5432 77.2581 37.6721 78.0315C38.319 78.4747 38.6778 78.4766 39.3237 78.0251C40.4694 77.2242 41.6079 76.4132 42.7528 75.6112C43.4352 75.1332 43.9524 74.5265 44.2206 73.7356C44.3201 73.4419 44.3606 73.1284 44.4681 72.8234C44.4385 73.6747 44.464 74.5324 44.3646 75.3756C44.2579 76.2789 43.7599 77.0166 43.0287 77.5535C41.7424 78.4981 40.4323 79.4108 39.1239 80.3253C38.6653 80.6459 38.1978 80.5507 37.7605 80.2597C37.191 79.8805 36.6226 79.499 36.0647 79.1032C34.4568 77.9622 32.8545 76.8136 31.2499 75.668C30.9631 75.4633 30.7581 75.2063 30.7136 74.8457C30.7156 74.2228 30.7184 73.5998 30.7176 72.977C30.7176 72.9375 30.6904 72.8981 30.6758 72.8587C30.6759 72.8146 30.6759 72.7706 30.6759 72.7266Z" stroke="#003B2F" stroke-width="0.4" stroke-linejoin="round"/>
</g>
<path d="M30.6642 72.7207C30.6915 72.7391 30.7409 72.7551 30.7432 72.7761C30.7812 73.1247 31.0156 73.3352 31.2753 73.5241C32.2748 74.251 33.2691 74.9853 34.2795 75.6969C35.3983 76.4847 36.5315 77.2523 37.6604 78.0257C38.3072 78.4689 38.666 78.4708 39.312 78.0193C40.4576 77.2184 41.5962 76.4073 42.7411 75.6054C43.4235 75.1274 43.9406 74.5206 44.2089 73.7297C44.3084 73.4361 44.3489 73.1226 44.4564 72.8176C44.4268 73.6689 44.4523 74.5265 44.3529 75.3697C44.2462 76.273 43.7481 77.0107 43.017 77.5477C41.7307 78.4922 40.4205 79.4049 39.1122 80.3195C38.6536 80.64 38.1861 80.5448 37.7488 80.2538C37.1792 79.8747 36.6109 79.4931 36.053 79.0973C34.4451 77.9563 32.8428 76.8077 31.2381 75.6622C30.9514 75.4575 30.7463 75.2005 30.7019 74.8398C30.7039 74.2169 30.7067 73.594 30.7059 72.9711C30.7059 72.9317 30.6787 72.8922 30.6641 72.8528C30.6642 72.8087 30.6642 72.7647 30.6642 72.7207Z" fill="#003B2F"/>
</svg>
