<svg width="192" height="108" viewBox="0 0 192 108" fill="none" xmlns="http://www.w3.org/2000/svg">
<g clip-path="url(#clip0_907_300)">
<path d="M158.09 7.49023L159.88 9.27024" stroke="#163B2F" stroke-width="0.4221" stroke-miterlimit="10" stroke-linecap="round" stroke-linejoin="round"/>
<path d="M161.18 10.5801L162.97 12.3601" stroke="#163B2F" stroke-width="0.4221" stroke-miterlimit="10" stroke-linecap="round" stroke-linejoin="round"/>
<path d="M158.09 12.3601L159.88 10.5801" stroke="#163B2F" stroke-width="0.4221" stroke-miterlimit="10" stroke-linecap="round" stroke-linejoin="round"/>
<path d="M161.18 9.27024L162.97 7.49023" stroke="#163B2F" stroke-width="0.4221" stroke-miterlimit="10" stroke-linecap="round" stroke-linejoin="round"/>
<path d="M88.4609 92.2207L90.2409 94.0007" stroke="#163B2F" stroke-width="0.4221" stroke-miterlimit="10" stroke-linecap="round" stroke-linejoin="round"/>
<path d="M91.5508 95.3105L93.3308 97.1005" stroke="#163B2F" stroke-width="0.4221" stroke-miterlimit="10" stroke-linecap="round" stroke-linejoin="round"/>
<path d="M88.4609 97.1005L90.2409 95.3105" stroke="#163B2F" stroke-width="0.4221" stroke-miterlimit="10" stroke-linecap="round" stroke-linejoin="round"/>
<path d="M91.5508 94.0007L93.3308 92.2207" stroke="#163B2F" stroke-width="0.4221" stroke-miterlimit="10" stroke-linecap="round" stroke-linejoin="round"/>
<path d="M65.4805 58.2402L67.2705 60.0302" stroke="#163B2F" stroke-width="0.4221" stroke-miterlimit="10" stroke-linecap="round" stroke-linejoin="round"/>
<path d="M68.5703 61.3301L70.3603 63.1201" stroke="#163B2F" stroke-width="0.4221" stroke-miterlimit="10" stroke-linecap="round" stroke-linejoin="round"/>
<path d="M65.4805 63.1201L67.2705 61.3301" stroke="#163B2F" stroke-width="0.4221" stroke-miterlimit="10" stroke-linecap="round" stroke-linejoin="round"/>
<path d="M68.5703 60.0302L70.3603 58.2402" stroke="#163B2F" stroke-width="0.4221" stroke-miterlimit="10" stroke-linecap="round" stroke-linejoin="round"/>
<path d="M121.762 93.6797H126.022" stroke="#003C2E" stroke-width="0.4221" stroke-miterlimit="10" stroke-linecap="round" stroke-linejoin="round"/>
<path d="M118.531 93.6797H119.601" stroke="#003C2E" stroke-width="0.4221" stroke-miterlimit="10" stroke-linecap="round" stroke-linejoin="round"/>
<path d="M108.711 98.8594H123.921" stroke="#00FF94" stroke-width="0.4221" stroke-miterlimit="10" stroke-linecap="round" stroke-linejoin="round"/>
<path d="M123.449 103.529H131.009" stroke="#003C2E" stroke-width="0.4221" stroke-miterlimit="10" stroke-linecap="round" stroke-linejoin="round"/>
<path d="M117.711 103.529H119.611" stroke="#003C2E" stroke-width="0.4221" stroke-miterlimit="10" stroke-linecap="round" stroke-linejoin="round"/>
<path d="M45.75 40.6406H41.5" stroke="#003C2E" stroke-width="0.4221" stroke-miterlimit="10" stroke-linecap="round" stroke-linejoin="round"/>
<path d="M48.9902 40.6406H47.9102" stroke="#003C2E" stroke-width="0.4221" stroke-miterlimit="10" stroke-linecap="round" stroke-linejoin="round"/>
<path d="M58.8116 35.4609H43.6016" stroke="#00FF94" stroke-width="0.4221" stroke-miterlimit="10" stroke-linecap="round" stroke-linejoin="round"/>
<path d="M146.789 92.2199L149.049 90.9199" stroke="#003D2E" stroke-width="0.4221" stroke-miterlimit="10" stroke-linecap="round" stroke-linejoin="round"/>
<path d="M151.31 92.2192L149.98 91.4492" stroke="#003D2E" stroke-width="0.4221" stroke-miterlimit="10" stroke-linecap="round" stroke-linejoin="round"/>
<path d="M149.051 90.9193V88.2793" stroke="#003D2E" stroke-width="0.4221" stroke-miterlimit="10" stroke-linecap="round" stroke-linejoin="round"/>
<path d="M4.73094 59.6192C4.73094 60.4992 4.38094 61.2892 3.80094 61.8592C3.23094 62.4292 2.44094 62.7892 1.56094 62.7892H0.710938V56.4492H1.56094C1.64094 56.4492 1.71094 56.4492 1.78094 56.4592C2.82094 56.5292 3.71094 57.0992 4.24094 57.9292C4.55094 58.4192 4.73094 58.9992 4.73094 59.6192Z" fill="#00FF94"/>
<path d="M25.5209 52.7391C25.5209 53.7191 25.2509 54.6391 24.7709 55.4191C24.5509 55.7791 24.2909 56.1091 24.0009 56.4091C23.0609 57.3491 21.7609 57.9291 20.3309 57.9291H0.710938V47.5391H20.3309C22.2109 47.5391 23.8609 48.5391 24.7709 50.0491C25.2509 50.8391 25.5209 51.7491 25.5209 52.7391Z" fill="#00FF94"/>
<path d="M192.14 69.1094V75.4494H184.19C182.43 75.4494 181.02 74.0294 181.02 72.2794C181.02 71.4094 181.37 70.6094 181.95 70.0394C182.52 69.4694 183.32 69.1094 184.2 69.1094H192.14Z" fill="#E3E7E3"/>
<mask id="mask0_907_300" style="mask-type:luminance" maskUnits="userSpaceOnUse" x="0" y="0" width="193" height="108">
<path d="M192.061 0.320312H0.621094V108H192.061V0.320312Z" fill="white"/>
</mask>
<g mask="url(#mask0_907_300)">
<path d="M110.142 36.8613L100.082 42.6713L110.142 48.4713L120.202 42.6713L110.142 36.8613Z" fill="#00FF94"/>
<path d="M110.141 48.4719V60.0819L120.201 54.2719V42.6719L110.141 48.4719Z" fill="#00FF94"/>
<path d="M110.142 48.4719V60.0819L100.082 54.2719V42.6719L110.142 48.4719Z" fill="#00FF94"/>
<path d="M122.051 48.4716V41.6016" stroke="#003D2E" stroke-width="0.4221" stroke-miterlimit="10" stroke-linecap="round" stroke-linejoin="round"/>
<path d="M98.2305 41.6016V55.3416L110.14 62.2216L117.08 58.2116" stroke="#003D2E" stroke-width="0.4221" stroke-miterlimit="10" stroke-linecap="round" stroke-linejoin="round"/>
<path d="M110.14 48.4712L122.05 41.6012L110.14 34.7012L98.2305 41.6012L110.14 48.4712Z" stroke="#003D2E" stroke-width="0.4221" stroke-miterlimit="10" stroke-linecap="round" stroke-linejoin="round"/>
<path d="M110.141 48.4707V62.2207" stroke="#003D2E" stroke-width="0.4221" stroke-miterlimit="10" stroke-linecap="round" stroke-linejoin="round"/>
</g>
<mask id="mask1_907_300" style="mask-type:luminance" maskUnits="userSpaceOnUse" x="0" y="0" width="193" height="108">
<path d="M192.061 0.320312H0.621094V108H192.061V0.320312Z" fill="white"/>
</mask>
<g mask="url(#mask1_907_300)">
<path d="M145.884 16.2207L135.824 22.0207L145.884 27.8207L155.944 22.0207L145.884 16.2207Z" fill="#00FF94"/>
<path d="M145.883 27.8195V39.4295L155.943 33.6295V22.0195L145.883 27.8195Z" fill="#00FF94"/>
<path d="M145.884 27.8195V39.4295L135.824 33.6295V22.0195L145.884 27.8195Z" fill="#00FF94"/>
<path d="M137.062 36.4805L145.883 41.5705" stroke="#003D2E" stroke-width="0.4221" stroke-miterlimit="10" stroke-linecap="round" stroke-linejoin="round"/>
<path d="M157.803 20.9501L145.883 14.0801L133.973 20.9501V30.6701" stroke="#003D2E" stroke-width="0.4221" stroke-miterlimit="10" stroke-linecap="round" stroke-linejoin="round"/>
<path d="M154.453 36.6303L145.883 41.5703V27.8203" stroke="#003D2E" stroke-width="0.4221" stroke-miterlimit="10" stroke-linecap="round" stroke-linejoin="round"/>
<path d="M145.883 27.8192L157.803 20.9492V30.6692" stroke="#003D2E" stroke-width="0.4221" stroke-miterlimit="10" stroke-linecap="round" stroke-linejoin="round"/>
<path d="M145.883 27.8192L133.973 20.9492" stroke="#003D2E" stroke-width="0.4221" stroke-miterlimit="10" stroke-linecap="round" stroke-linejoin="round"/>
</g>
<mask id="mask2_907_300" style="mask-type:luminance" maskUnits="userSpaceOnUse" x="0" y="0" width="193" height="108">
<path d="M192.061 0.320312H0.621094V108H192.061V0.320312Z" fill="white"/>
</mask>
<g mask="url(#mask2_907_300)">
<path d="M110.142 -4.42969L100.082 1.37031L110.142 7.18031L120.202 1.37031L110.142 -4.42969Z" fill="#00FF94"/>
<path d="M110.141 7.17914V18.7791L120.201 12.9791V1.36914L110.141 7.17914Z" fill="#00FF94"/>
<path d="M110.142 7.17914V18.7791L100.082 12.9791V1.36914L110.142 7.17914Z" fill="#00FF94"/>
<path d="M122.05 0.299688L110.14 -6.57031L98.2305 0.299688" stroke="#003D2E" stroke-width="0.4221" stroke-miterlimit="10" stroke-linecap="round" stroke-linejoin="round"/>
<path d="M110.141 7.17883L122.051 0.298828V7.17883" stroke="#003D2E" stroke-width="0.4221" stroke-miterlimit="10" stroke-linecap="round" stroke-linejoin="round"/>
<path d="M110.141 7.17969V20.9197" stroke="#003D2E" stroke-width="0.4221" stroke-miterlimit="10" stroke-linecap="round" stroke-linejoin="round"/>
<path d="M110.14 7.17883L98.2305 0.298828" stroke="#003D2E" stroke-width="0.4221" stroke-miterlimit="10" stroke-linecap="round" stroke-linejoin="round"/>
<path d="M98.2305 10.0788V0.298828" stroke="#003D2E" stroke-width="0.4221" stroke-miterlimit="10" stroke-linecap="round" stroke-linejoin="round"/>
<path d="M110.141 20.9203L101.301 15.8203" stroke="#003D2E" stroke-width="0.4221" stroke-miterlimit="10" stroke-linecap="round" stroke-linejoin="round"/>
</g>
<mask id="mask3_907_300" style="mask-type:luminance" maskUnits="userSpaceOnUse" x="0" y="0" width="193" height="108">
<path d="M192.061 0.320312H0.621094V108H192.061V0.320312Z" fill="white"/>
</mask>
<g mask="url(#mask3_907_300)">
<path d="M181.63 36.8613L171.57 42.6713L181.63 48.4713L191.69 42.6713L181.63 36.8613Z" fill="#00FF94"/>
<path d="M181.633 48.4699V60.0799L191.693 54.2699V42.6699L181.633 48.4699Z" fill="#00FF94"/>
<path d="M181.63 48.4699V60.0799L171.57 54.2699V42.6699L181.63 48.4699Z" fill="#00FF94"/>
<path d="M175.672 58.7812L181.632 62.2213" stroke="#003D2E" stroke-width="0.4221" stroke-miterlimit="10" stroke-linecap="round" stroke-linejoin="round"/>
<path d="M193.541 41.6007L181.631 34.7207L169.711 41.6007V48.4707" stroke="#003D2E" stroke-width="0.4221" stroke-miterlimit="10" stroke-linecap="round" stroke-linejoin="round"/>
<path d="M181.633 48.4716L193.543 41.6016V55.3416L181.633 62.2216V48.4716Z" stroke="#003D2E" stroke-width="0.4221" stroke-miterlimit="10" stroke-linecap="round" stroke-linejoin="round"/>
<path d="M181.631 48.4716L169.711 41.6016" stroke="#003D2E" stroke-width="0.4221" stroke-miterlimit="10" stroke-linecap="round" stroke-linejoin="round"/>
</g>
<mask id="mask4_907_300" style="mask-type:luminance" maskUnits="userSpaceOnUse" x="0" y="0" width="193" height="108">
<path d="M192.061 0.320312H0.621094V108H192.061V0.320312Z" fill="white"/>
</mask>
<g mask="url(#mask4_907_300)">
<path d="M181.63 -4.42969L171.57 1.37031L181.63 7.18031L191.69 1.37031L181.63 -4.42969Z" fill="#00FF94"/>
<path d="M181.633 7.17914V18.7791L191.693 12.9791V1.36914L181.633 7.17914Z" fill="#00FF94"/>
<path d="M181.63 7.17914V18.7791L171.57 12.9791V1.36914L181.63 7.17914Z" fill="#00FF94"/>
<path d="M193.541 0.299688L181.631 -6.57031L169.711 0.299688" stroke="#003D2E" stroke-width="0.4221" stroke-miterlimit="10" stroke-linecap="round" stroke-linejoin="round"/>
<path d="M181.633 20.9203L190.473 15.8203" stroke="#003D2E" stroke-width="0.4221" stroke-miterlimit="10" stroke-linecap="round" stroke-linejoin="round"/>
<path d="M193.543 0.298828L181.633 7.17883" stroke="#003D2E" stroke-width="0.4221" stroke-miterlimit="10" stroke-linecap="round" stroke-linejoin="round"/>
<path d="M181.633 7.17969V20.9197" stroke="#003D2E" stroke-width="0.4221" stroke-miterlimit="10" stroke-linecap="round" stroke-linejoin="round"/>
<path d="M181.631 7.17883L169.711 0.298828V9.30883" stroke="#003D2E" stroke-width="0.4221" stroke-miterlimit="10" stroke-linecap="round" stroke-linejoin="round"/>
</g>
<mask id="mask5_907_300" style="mask-type:luminance" maskUnits="userSpaceOnUse" x="0" y="0" width="193" height="108">
<path d="M192.061 0.320312H0.621094V108H192.061V0.320312Z" fill="white"/>
</mask>
<g mask="url(#mask5_907_300)">
<path d="M176.643 10.0801L160.043 19.6601" stroke="#003D2E" stroke-width="0.4221" stroke-miterlimit="10" stroke-linecap="round" stroke-linejoin="round"/>
</g>
<mask id="mask6_907_300" style="mask-type:luminance" maskUnits="userSpaceOnUse" x="0" y="0" width="193" height="108">
<path d="M192.061 0.320312H0.621094V108H192.061V0.320312Z" fill="white"/>
</mask>
<g mask="url(#mask6_907_300)">
<circle cx="140.852" cy="30.7208" r="0.21105" fill="#003D2E"/>
<path d="M139.581 31.4609L124.961 39.9009" stroke="#003D2E" stroke-width="0.4221" stroke-linecap="round" stroke-linejoin="round"/>
<circle cx="124.32" cy="40.2599" r="0.21105" fill="#003D2E"/>
</g>
<mask id="mask7_907_300" style="mask-type:luminance" maskUnits="userSpaceOnUse" x="0" y="0" width="193" height="108">
<path d="M192.061 0.320312H0.621094V108H192.061V0.320312Z" fill="white"/>
</mask>
<g mask="url(#mask7_907_300)">
<path d="M114.973 10.0801L131.813 19.7901" stroke="#003D2E" stroke-width="0.4221" stroke-miterlimit="10" stroke-linecap="round" stroke-linejoin="round"/>
</g>
<mask id="mask8_907_300" style="mask-type:luminance" maskUnits="userSpaceOnUse" x="0" y="0" width="193" height="108">
<path d="M192.061 0.320312H0.621094V108H192.061V0.320312Z" fill="white"/>
</mask>
<g mask="url(#mask8_907_300)">
<path d="M150.762 30.7207L167.292 40.2607" stroke="#003D2E" stroke-width="0.4221" stroke-miterlimit="10" stroke-linecap="round" stroke-linejoin="round"/>
</g>
<mask id="mask9_907_300" style="mask-type:luminance" maskUnits="userSpaceOnUse" x="0" y="0" width="193" height="108">
<path d="M192.061 0.320312H0.621094V108H192.061V0.320312Z" fill="white"/>
</mask>
<g mask="url(#mask9_907_300)">
<path d="M154.449 61.0298C159.679 60.0698 164.779 58.2198 169.519 55.4798L176.259 51.5898" stroke="#003D2E" stroke-width="0.4221" stroke-miterlimit="10" stroke-linecap="round" stroke-linejoin="round"/>
</g>
<mask id="mask10_907_300" style="mask-type:luminance" maskUnits="userSpaceOnUse" x="0" y="0" width="193" height="108">
<path d="M192.061 0.320312H0.621094V108H192.061V0.320312Z" fill="white"/>
</mask>
<g mask="url(#mask10_907_300)">
<path d="M115.5 51.5898L122.24 55.4798C127.43 58.4798 133.05 60.4098 138.8 61.2798" stroke="#003D2E" stroke-width="0.4221" stroke-miterlimit="10" stroke-linecap="round" stroke-linejoin="round"/>
</g>
<mask id="mask11_907_300" style="mask-type:luminance" maskUnits="userSpaceOnUse" x="0" y="0" width="193" height="108">
<path d="M192.061 0.320312H0.621094V108H192.061V0.320312Z" fill="white"/>
</mask>
<g mask="url(#mask11_907_300)">
<path d="M186.66 10.0801L199.51 17.5201C201.02 18.3901 202.29 19.5601 203.26 20.9301" stroke="#003D2E" stroke-width="0.4221" stroke-miterlimit="10" stroke-linecap="round" stroke-linejoin="round"/>
</g>
<mask id="mask12_907_300" style="mask-type:luminance" maskUnits="userSpaceOnUse" x="0" y="0" width="193" height="108">
<path d="M192.061 0.320312H0.621094V108H192.061V0.320312Z" fill="white"/>
</mask>
<g mask="url(#mask12_907_300)">
<path d="M181.633 20.9207L173.473 16.2207" stroke="#003D2E" stroke-width="0.4221" stroke-miterlimit="10" stroke-linecap="round" stroke-linejoin="round"/>
</g>
<mask id="mask13_907_300" style="mask-type:luminance" maskUnits="userSpaceOnUse" x="0" y="0" width="193" height="108">
<path d="M192.061 0.320312H0.621094V108H192.061V0.320312Z" fill="white"/>
</mask>
<g mask="url(#mask13_907_300)">
<path d="M122.051 10.0808V0.300781" stroke="#003D2E" stroke-width="0.4221" stroke-miterlimit="10" stroke-linecap="round" stroke-linejoin="round"/>
</g>
<mask id="mask14_907_300" style="mask-type:luminance" maskUnits="userSpaceOnUse" x="0" y="0" width="193" height="108">
<path d="M192.061 0.320312H0.621094V108H192.061V0.320312Z" fill="white"/>
</mask>
<g mask="url(#mask14_907_300)">
<path d="M110.141 20.9203L118.991 15.8203" stroke="#003D2E" stroke-width="0.4221" stroke-miterlimit="10" stroke-linecap="round" stroke-linejoin="round"/>
</g>
<mask id="mask15_907_300" style="mask-type:luminance" maskUnits="userSpaceOnUse" x="0" y="0" width="193" height="108">
<path d="M192.061 0.320312H0.621094V108H192.061V0.320312Z" fill="white"/>
</mask>
<g mask="url(#mask15_907_300)">
<path d="M88.6094 34.9102C89.5694 36.2002 90.7894 37.3002 92.2194 38.1302L96.2494 40.4702" stroke="#003D2E" stroke-width="0.4221" stroke-miterlimit="10" stroke-linecap="round" stroke-linejoin="round"/>
</g>
<mask id="mask16_907_300" style="mask-type:luminance" maskUnits="userSpaceOnUse" x="0" y="0" width="193" height="108">
<path d="M192.061 0.320312H0.621094V108H192.061V0.320312Z" fill="white"/>
</mask>
<g mask="url(#mask16_907_300)">
<path d="M105.073 10.0801L92.2227 17.5201C90.7127 18.3901 89.4427 19.5601 88.4727 20.9301" stroke="#003D2E" stroke-width="0.4221" stroke-miterlimit="10" stroke-linecap="round" stroke-linejoin="round"/>
</g>
<mask id="mask17_907_300" style="mask-type:luminance" maskUnits="userSpaceOnUse" x="0" y="0" width="193" height="108">
<path d="M192.061 0.320312H0.621094V108H192.061V0.320312Z" fill="white"/>
</mask>
<g mask="url(#mask17_907_300)">
<path d="M145.88 56.7891L142.02 59.0191L145.88 61.2391L149.75 59.0191L145.88 56.7891Z" fill="#00FF94"/>
<path d="M145.879 61.2395V65.6995L149.749 63.4695V59.0195L145.879 61.2395Z" fill="#00FF94"/>
<path d="M145.88 61.2395V65.6995L142.02 63.4695V59.0195L145.88 61.2395Z" fill="#00FF94"/>
<path d="M145.88 67.1398L151 64.1898V58.2898L145.88 55.3398L140.77 58.2898" stroke="#003D2E" stroke-width="0.4221" stroke-miterlimit="10" stroke-linecap="round" stroke-linejoin="round"/>
<path d="M150.999 58.2891L145.879 61.2391" stroke="#003D2E" stroke-width="0.4221" stroke-miterlimit="10" stroke-linecap="round" stroke-linejoin="round"/>
<path d="M145.879 61.2402V67.1402" stroke="#003D2E" stroke-width="0.4221" stroke-miterlimit="10" stroke-linecap="round" stroke-linejoin="round"/>
<path d="M145.88 61.2391L140.77 58.2891" stroke="#003D2E" stroke-width="0.4221" stroke-miterlimit="10" stroke-linecap="round" stroke-linejoin="round"/>
<path d="M145.88 67.1391L140.77 64.1891V58.2891" stroke="#003D2E" stroke-width="0.4221" stroke-miterlimit="10" stroke-linecap="round" stroke-linejoin="round"/>
</g>
<mask id="mask18_907_300" style="mask-type:luminance" maskUnits="userSpaceOnUse" x="0" y="0" width="193" height="108">
<path d="M192.061 0.320312H0.621094V108H192.061V0.320312Z" fill="white"/>
</mask>
<g mask="url(#mask18_907_300)">
<path d="M85.4616 23.2598L81.6016 25.4898L85.4616 27.7198L89.3216 25.4898L85.4616 23.2598Z" fill="#00FF94"/>
<path d="M85.4609 27.7202V32.1702L89.3209 29.9502V25.4902L85.4609 27.7202Z" fill="#00FF94"/>
<path d="M85.4616 27.7202V32.1702L81.6016 29.9502V25.4902L85.4616 27.7202Z" fill="#00FF94"/>
<path d="M85.4616 33.6203L90.5716 30.6703V24.7703L85.4616 21.8203L80.3516 24.7703" stroke="#003D2E" stroke-width="0.4221" stroke-miterlimit="10" stroke-linecap="round" stroke-linejoin="round"/>
<path d="M90.5709 24.7695L85.4609 27.7195" stroke="#003D2E" stroke-width="0.4221" stroke-miterlimit="10" stroke-linecap="round" stroke-linejoin="round"/>
<path d="M85.4609 27.7207V33.6207" stroke="#003D2E" stroke-width="0.4221" stroke-miterlimit="10" stroke-linecap="round" stroke-linejoin="round"/>
<path d="M85.4616 27.7195L80.3516 24.7695" stroke="#003D2E" stroke-width="0.4221" stroke-miterlimit="10" stroke-linecap="round" stroke-linejoin="round"/>
<path d="M85.4616 33.6195L80.3516 30.6695V24.7695" stroke="#003D2E" stroke-width="0.4221" stroke-miterlimit="10" stroke-linecap="round" stroke-linejoin="round"/>
</g>
<mask id="mask19_907_300" style="mask-type:luminance" maskUnits="userSpaceOnUse" x="0" y="0" width="193" height="108">
<path d="M192.061 0.320312H0.621094V108H192.061V0.320312Z" fill="white"/>
</mask>
<g mask="url(#mask19_907_300)">
<path d="M36.14 98.6406L28.5 103.041L36.14 107.451L43.77 103.041L36.14 98.6406Z" fill="#E3E7E3"/>
<path d="M36.1406 107.449V116.259L43.7706 111.849V103.039L36.1406 107.449Z" fill="#E3E7E3"/>
<path d="M36.14 107.449V116.259L28.5 111.849V103.039L36.14 107.449Z" fill="#E3E7E3"/>
<path d="M45.1798 102.23L36.1398 97.0098L27.0898 102.23V109.61" stroke="#003D2E" stroke-width="0.4221" stroke-miterlimit="10" stroke-linecap="round" stroke-linejoin="round"/>
<path d="M42.6406 114.129L36.1406 117.879V107.449" stroke="#003D2E" stroke-width="0.4221" stroke-miterlimit="10" stroke-linecap="round" stroke-linejoin="round"/>
<path d="M36.1406 107.45L45.1806 102.23V109.61" stroke="#003D2E" stroke-width="0.4221" stroke-miterlimit="10" stroke-linecap="round" stroke-linejoin="round"/>
<path d="M36.1398 107.45L27.0898 102.23" stroke="#003D2E" stroke-width="0.4221" stroke-miterlimit="10" stroke-linecap="round" stroke-linejoin="round"/>
</g>
<mask id="mask20_907_300" style="mask-type:luminance" maskUnits="userSpaceOnUse" x="0" y="0" width="193" height="108">
<path d="M192.061 0.320312H0.621094V108H192.061V0.320312Z" fill="white"/>
</mask>
<g mask="url(#mask20_907_300)">
<path d="M9.00109 82.9707L1.37109 87.3707L9.00109 91.7807L16.6411 87.3707L9.00109 82.9707Z" fill="#E3E7E3"/>
<path d="M9 91.7791V100.589L16.64 96.1791V87.3691L9 91.7791Z" fill="#E3E7E3"/>
<path d="M9.00109 91.7791V100.589L1.37109 96.1791V87.3691L9.00109 91.7791Z" fill="#E3E7E3"/>
<path d="M18.0509 86.5598L9.00094 81.3398L-0.0390625 86.5598" stroke="#003D2E" stroke-width="0.4221" stroke-miterlimit="10" stroke-linecap="round" stroke-linejoin="round"/>
<path d="M9 91.7805L18.05 86.5605V91.7805" stroke="#003D2E" stroke-width="0.4221" stroke-miterlimit="10" stroke-linecap="round" stroke-linejoin="round"/>
<path d="M9 91.7793V102.209" stroke="#003D2E" stroke-width="0.4221" stroke-miterlimit="10" stroke-linecap="round" stroke-linejoin="round"/>
<path d="M9.00094 91.7805L-0.0390625 86.5605" stroke="#003D2E" stroke-width="0.4221" stroke-miterlimit="10" stroke-linecap="round" stroke-linejoin="round"/>
<path d="M8.99906 102.21L2.28906 98.3398" stroke="#003D2E" stroke-width="0.4221" stroke-miterlimit="10" stroke-linecap="round" stroke-linejoin="round"/>
</g>
<mask id="mask21_907_300" style="mask-type:luminance" maskUnits="userSpaceOnUse" x="0" y="0" width="193" height="108">
<path d="M192.061 0.320312H0.621094V108H192.061V0.320312Z" fill="white"/>
</mask>
<g mask="url(#mask21_907_300)">
<path d="M63.2728 82.9707L55.6328 87.3707L63.2728 91.7807L70.9028 87.3707L63.2728 82.9707Z" fill="#E3E7E3"/>
<path d="M63.2734 91.7791V100.589L70.9034 96.1791V87.3691L63.2734 91.7791Z" fill="#E3E7E3"/>
<path d="M63.2728 91.7791V100.589L55.6328 96.1791V87.3691L63.2728 91.7791Z" fill="#E3E7E3"/>
<path d="M72.3127 86.5598L63.2727 81.3398L54.2227 86.5598" stroke="#003D2E" stroke-width="0.4221" stroke-miterlimit="10" stroke-linecap="round" stroke-linejoin="round"/>
<path d="M72.3125 93.9806V86.5605" stroke="#003D2E" stroke-width="0.4221" stroke-miterlimit="10" stroke-linecap="round" stroke-linejoin="round"/>
<path d="M63.2734 102.21L69.9834 98.3398" stroke="#003D2E" stroke-width="0.4221" stroke-miterlimit="10" stroke-linecap="round" stroke-linejoin="round"/>
<path d="M72.3134 86.5605L63.2734 91.7805" stroke="#003D2E" stroke-width="0.4221" stroke-miterlimit="10" stroke-linecap="round" stroke-linejoin="round"/>
<path d="M63.2734 91.7793V102.209" stroke="#003D2E" stroke-width="0.4221" stroke-miterlimit="10" stroke-linecap="round" stroke-linejoin="round"/>
<path d="M63.2727 91.7805L54.2227 86.5605V93.4006" stroke="#003D2E" stroke-width="0.4221" stroke-miterlimit="10" stroke-linecap="round" stroke-linejoin="round"/>
</g>
<mask id="mask22_907_300" style="mask-type:luminance" maskUnits="userSpaceOnUse" x="0" y="0" width="193" height="108">
<path d="M192.061 0.320312H0.621094V108H192.061V0.320312Z" fill="white"/>
</mask>
<g mask="url(#mask22_907_300)">
<path d="M59.4828 93.9805L46.8828 101.25" stroke="#003D2E" stroke-width="0.4221" stroke-miterlimit="10" stroke-linecap="round" stroke-linejoin="round"/>
</g>
<mask id="mask23_907_300" style="mask-type:luminance" maskUnits="userSpaceOnUse" x="0" y="0" width="193" height="108">
<path d="M192.061 0.320312H0.621094V108H192.061V0.320312Z" fill="white"/>
</mask>
<g mask="url(#mask23_907_300)">
<path d="M12.6719 93.9805L25.4519 101.35" stroke="#003D2E" stroke-width="0.4221" stroke-miterlimit="10" stroke-linecap="round" stroke-linejoin="round"/>
</g>
<mask id="mask24_907_300" style="mask-type:luminance" maskUnits="userSpaceOnUse" x="0" y="0" width="193" height="108">
<path d="M192.061 0.320312H0.621094V108H192.061V0.320312Z" fill="white"/>
</mask>
<g mask="url(#mask24_907_300)">
<path d="M30.793 81.9805C27.423 82.5205 24.123 83.5905 21.063 85.1805L20.543 85.4505" stroke="#003D2E" stroke-width="0.4221" stroke-miterlimit="10" stroke-linecap="round" stroke-linejoin="round"/>
</g>
<mask id="mask25_907_300" style="mask-type:luminance" maskUnits="userSpaceOnUse" x="0" y="0" width="193" height="108">
<path d="M192.061 0.320312H0.621094V108H192.061V0.320312Z" fill="white"/>
</mask>
<g mask="url(#mask25_907_300)">
<path d="M51.7195 85.4405L51.1995 85.1705C48.1495 83.5905 44.8795 82.5305 41.5195 81.9805" stroke="#003D2E" stroke-width="0.4221" stroke-miterlimit="10" stroke-linecap="round" stroke-linejoin="round"/>
</g>
<mask id="mask26_907_300" style="mask-type:luminance" maskUnits="userSpaceOnUse" x="0" y="0" width="193" height="108">
<path d="M192.061 0.320312H0.621094V108H192.061V0.320312Z" fill="white"/>
</mask>
<g mask="url(#mask26_907_300)">
<path d="M63.2703 102.211L57.0703 98.6406" stroke="#003D2E" stroke-width="0.4221" stroke-miterlimit="10" stroke-linecap="round" stroke-linejoin="round"/>
</g>
<mask id="mask27_907_300" style="mask-type:luminance" maskUnits="userSpaceOnUse" x="0" y="0" width="193" height="108">
<path d="M192.061 0.320312H0.621094V108H192.061V0.320312Z" fill="white"/>
</mask>
<g mask="url(#mask27_907_300)">
<path d="M18.0508 93.9806V86.5605" stroke="#003D2E" stroke-width="0.4221" stroke-miterlimit="10" stroke-linecap="round" stroke-linejoin="round"/>
</g>
<mask id="mask28_907_300" style="mask-type:luminance" maskUnits="userSpaceOnUse" x="0" y="0" width="193" height="108">
<path d="M192.061 0.320312H0.621094V108H192.061V0.320312Z" fill="white"/>
</mask>
<g mask="url(#mask28_907_300)">
<path d="M9 102.21L15.72 98.3398" stroke="#003D2E" stroke-width="0.4221" stroke-miterlimit="10" stroke-linecap="round" stroke-linejoin="round"/>
</g>
<mask id="mask29_907_300" style="mask-type:luminance" maskUnits="userSpaceOnUse" x="0" y="0" width="193" height="108">
<path d="M192.061 0.320312H0.621094V108H192.061V0.320312Z" fill="white"/>
</mask>
<g mask="url(#mask29_907_300)">
<path d="M36.1392 78.1699L33.1992 79.8599L36.1392 81.5599L39.0692 79.8599L36.1392 78.1699Z" fill="#E3E7E3"/>
<path d="M36.1406 81.5594V84.9394L39.0706 83.2494V79.8594L36.1406 81.5594Z" fill="#E3E7E3"/>
<path d="M36.1392 81.5594V84.9394L33.1992 83.2494V79.8594L36.1392 81.5594Z" fill="#E3E7E3"/>
<path d="M36.14 86.0301L40.02 83.7901V79.3201L36.14 77.0801L32.25 79.3201" stroke="#003D2E" stroke-width="0.4221" stroke-miterlimit="10" stroke-linecap="round" stroke-linejoin="round"/>
<path d="M40.0206 79.3203L36.1406 81.5603" stroke="#003D2E" stroke-width="0.4221" stroke-miterlimit="10" stroke-linecap="round" stroke-linejoin="round"/>
<path d="M36.1406 81.5605V86.0305" stroke="#003D2E" stroke-width="0.4221" stroke-miterlimit="10" stroke-linecap="round" stroke-linejoin="round"/>
<path d="M36.14 81.5603L32.25 79.3203" stroke="#003D2E" stroke-width="0.4221" stroke-miterlimit="10" stroke-linecap="round" stroke-linejoin="round"/>
<path d="M36.14 86.0303L32.25 83.7903V79.3203" stroke="#003D2E" stroke-width="0.4221" stroke-miterlimit="10" stroke-linecap="round" stroke-linejoin="round"/>
</g>
<mask id="mask30_907_300" style="mask-type:luminance" maskUnits="userSpaceOnUse" x="0" y="0" width="193" height="108">
<path d="M192.061 0.320312H0.621094V108H192.061V0.320312Z" fill="white"/>
</mask>
<g mask="url(#mask30_907_300)">
<path d="M32.0519 10.9297L25.4219 14.7597L32.0519 18.5897L38.6919 14.7597L32.0519 10.9297Z" fill="#E3E7E3"/>
<path d="M32.0508 18.5898V26.2398L38.6908 22.4098V14.7598L32.0508 18.5898Z" fill="#E3E7E3"/>
<path d="M32.0519 18.5898V26.2398L25.4219 22.4098V14.7598L32.0519 18.5898Z" fill="#E3E7E3"/>
<path d="M26.2305 24.2988L32.0505 27.6488" stroke="#003D2E" stroke-width="0.4221" stroke-miterlimit="10" stroke-linecap="round" stroke-linejoin="round"/>
<path d="M39.9114 14.0495L32.0514 9.51953L24.1914 14.0495V20.4595" stroke="#003D2E" stroke-width="0.4221" stroke-miterlimit="10" stroke-linecap="round" stroke-linejoin="round"/>
<path d="M37.7008 24.3898L32.0508 27.6498V18.5898" stroke="#003D2E" stroke-width="0.4221" stroke-miterlimit="10" stroke-linecap="round" stroke-linejoin="round"/>
<path d="M32.0508 18.5888L39.9108 14.0488V20.4588" stroke="#003D2E" stroke-width="0.4221" stroke-miterlimit="10" stroke-linecap="round" stroke-linejoin="round"/>
<path d="M32.0514 18.5888L24.1914 14.0488" stroke="#003D2E" stroke-width="0.4221" stroke-miterlimit="10" stroke-linecap="round" stroke-linejoin="round"/>
</g>
<mask id="mask31_907_300" style="mask-type:luminance" maskUnits="userSpaceOnUse" x="0" y="0" width="193" height="108">
<path d="M192.061 0.320312H0.621094V108H192.061V0.320312Z" fill="white"/>
</mask>
<g mask="url(#mask31_907_300)">
<path d="M8.47984 -2.68945L1.83984 1.14055L8.47984 4.97055L15.1098 1.14055L8.47984 -2.68945Z" fill="#E3E7E3"/>
<path d="M8.48047 4.97062V12.6206L15.1105 8.80063V1.14062L8.48047 4.97062Z" fill="#E3E7E3"/>
<path d="M8.47984 4.97062V12.6206L1.83984 8.80063V1.14062L8.47984 4.97062Z" fill="#E3E7E3"/>
<path d="M16.3311 0.440391L8.48109 -4.09961L0.621094 0.440391" stroke="#003D2E" stroke-width="0.4221" stroke-miterlimit="10" stroke-linecap="round" stroke-linejoin="round"/>
<path d="M8.48047 4.96945L16.3305 0.439453V4.96945" stroke="#003D2E" stroke-width="0.4221" stroke-miterlimit="10" stroke-linecap="round" stroke-linejoin="round"/>
<path d="M8.48047 4.9707V14.0407" stroke="#003D2E" stroke-width="0.4221" stroke-miterlimit="10" stroke-linecap="round" stroke-linejoin="round"/>
<path d="M8.48109 4.96945L0.621094 0.439453" stroke="#003D2E" stroke-width="0.4221" stroke-miterlimit="10" stroke-linecap="round" stroke-linejoin="round"/>
<path d="M0.621094 6.87945V0.439453" stroke="#003D2E" stroke-width="0.4221" stroke-miterlimit="10" stroke-linecap="round" stroke-linejoin="round"/>
<path d="M8.48062 14.0399L2.64062 10.6699" stroke="#003D2E" stroke-width="0.4221" stroke-miterlimit="10" stroke-linecap="round" stroke-linejoin="round"/>
</g>
<mask id="mask32_907_300" style="mask-type:luminance" maskUnits="userSpaceOnUse" x="0" y="0" width="193" height="108">
<path d="M192.061 0.320312H0.621094V108H192.061V0.320312Z" fill="white"/>
</mask>
<g mask="url(#mask32_907_300)">
<path d="M55.6283 -2.68945L48.9883 1.14055L55.6283 4.97055L62.2583 1.14055L55.6283 -2.68945Z" fill="#E3E7E3"/>
<path d="M55.6289 4.97062V12.6206L62.2589 8.80063V1.14062L55.6289 4.97062Z" fill="#E3E7E3"/>
<path d="M55.6283 4.97062V12.6206L48.9883 8.80063V1.14062L55.6283 4.97062Z" fill="#E3E7E3"/>
<path d="M63.4895 0.440391L55.6295 -4.09961L47.7695 0.440391" stroke="#003D2E" stroke-width="0.4221" stroke-miterlimit="10" stroke-linecap="round" stroke-linejoin="round"/>
<path d="M63.4883 6.87945V0.439453" stroke="#003D2E" stroke-width="0.4221" stroke-miterlimit="10" stroke-linecap="round" stroke-linejoin="round"/>
<path d="M55.6289 14.0399L61.4589 10.6699" stroke="#003D2E" stroke-width="0.4221" stroke-miterlimit="10" stroke-linecap="round" stroke-linejoin="round"/>
<path d="M63.4889 0.439453L55.6289 4.96945" stroke="#003D2E" stroke-width="0.4221" stroke-miterlimit="10" stroke-linecap="round" stroke-linejoin="round"/>
<path d="M55.6289 4.9707V14.0407" stroke="#003D2E" stroke-width="0.4221" stroke-miterlimit="10" stroke-linecap="round" stroke-linejoin="round"/>
<path d="M55.6295 4.96945L47.7695 0.439453V6.37945" stroke="#003D2E" stroke-width="0.4221" stroke-miterlimit="10" stroke-linecap="round" stroke-linejoin="round"/>
</g>
<mask id="mask33_907_300" style="mask-type:luminance" maskUnits="userSpaceOnUse" x="0" y="0" width="193" height="108">
<path d="M192.061 0.320312H0.621094V108H192.061V0.320312Z" fill="white"/>
</mask>
<g mask="url(#mask33_907_300)">
<path d="M52.3406 6.88086L41.3906 13.2009" stroke="#003D2E" stroke-width="0.4221" stroke-miterlimit="10" stroke-linecap="round" stroke-linejoin="round"/>
</g>
<mask id="mask34_907_300" style="mask-type:luminance" maskUnits="userSpaceOnUse" x="0" y="0" width="193" height="108">
<path d="M192.061 0.320312H0.621094V108H192.061V0.320312Z" fill="white"/>
</mask>
<g mask="url(#mask34_907_300)">
<path d="M11.6602 6.88086L22.7702 13.2909" stroke="#003D2E" stroke-width="0.4221" stroke-miterlimit="10" stroke-linecap="round" stroke-linejoin="round"/>
</g>
<mask id="mask35_907_300" style="mask-type:luminance" maskUnits="userSpaceOnUse" x="0" y="0" width="193" height="108">
<path d="M192.061 0.320312H0.621094V108H192.061V0.320312Z" fill="white"/>
</mask>
<g mask="url(#mask35_907_300)">
<path d="M55.63 14.0397L50.25 10.9297" stroke="#003D2E" stroke-width="0.4221" stroke-miterlimit="10" stroke-linecap="round" stroke-linejoin="round"/>
</g>
<mask id="mask36_907_300" style="mask-type:luminance" maskUnits="userSpaceOnUse" x="0" y="0" width="193" height="108">
<path d="M192.061 0.320312H0.621094V108H192.061V0.320312Z" fill="white"/>
</mask>
<g mask="url(#mask36_907_300)">
<path d="M16.332 6.87945V0.439453" stroke="#003D2E" stroke-width="0.4221" stroke-miterlimit="10" stroke-linecap="round" stroke-linejoin="round"/>
</g>
<mask id="mask37_907_300" style="mask-type:luminance" maskUnits="userSpaceOnUse" x="0" y="0" width="193" height="108">
<path d="M192.061 0.320312H0.621094V108H192.061V0.320312Z" fill="white"/>
</mask>
<g mask="url(#mask37_907_300)">
<path d="M8.48047 14.0399L14.3105 10.6699" stroke="#003D2E" stroke-width="0.4221" stroke-miterlimit="10" stroke-linecap="round" stroke-linejoin="round"/>
</g>
<mask id="mask38_907_300" style="mask-type:luminance" maskUnits="userSpaceOnUse" x="0" y="0" width="193" height="108">
<path d="M192.061 0.320312H0.621094V108H192.061V0.320312Z" fill="white"/>
</mask>
<g mask="url(#mask38_907_300)">
<path d="M176.931 100.711L170.301 104.541L176.931 108.371L183.571 104.541L176.931 100.711Z" fill="#E3E7E3"/>
<path d="M176.93 108.371V116.031L183.57 112.201V104.541L176.93 108.371Z" fill="#E3E7E3"/>
<path d="M176.931 108.371V116.031L170.301 112.201V104.541L176.931 108.371Z" fill="#E3E7E3"/>
<path d="M184.79 103.841L176.93 99.3008L169.07 103.841V110.251" stroke="#003D2E" stroke-width="0.4221" stroke-miterlimit="10" stroke-linecap="round" stroke-linejoin="round"/>
<path d="M176.93 108.37L184.79 103.84V110.25" stroke="#003D2E" stroke-width="0.4221" stroke-miterlimit="10" stroke-linecap="round" stroke-linejoin="round"/>
<path d="M176.93 108.37L169.07 103.84" stroke="#003D2E" stroke-width="0.4221" stroke-miterlimit="10" stroke-linecap="round" stroke-linejoin="round"/>
</g>
<mask id="mask39_907_300" style="mask-type:luminance" maskUnits="userSpaceOnUse" x="0" y="0" width="193" height="108">
<path d="M192.061 0.320312H0.621094V108H192.061V0.320312Z" fill="white"/>
</mask>
<g mask="url(#mask39_907_300)">
<path d="M153.359 87.0996L146.719 90.9196L153.359 94.7496L159.989 90.9196L153.359 87.0996Z" fill="#E3E7E3"/>
<path d="M153.359 94.7499V102.41L159.989 98.5799V90.9199L153.359 94.7499Z" fill="#E3E7E3"/>
<path d="M153.359 94.7499V102.41L146.719 98.5799V90.9199L153.359 94.7499Z" fill="#E3E7E3"/>
<path d="M161.22 90.2195L153.36 85.6895L145.5 90.2195" stroke="#003D2E" stroke-width="0.4221" stroke-miterlimit="10" stroke-linecap="round" stroke-linejoin="round"/>
<path d="M153.359 94.7487L161.219 90.2188V94.7487" stroke="#003D2E" stroke-width="0.4221" stroke-miterlimit="10" stroke-linecap="round" stroke-linejoin="round"/>
<path d="M153.359 94.75V103.82" stroke="#003D2E" stroke-width="0.4221" stroke-miterlimit="10" stroke-linecap="round" stroke-linejoin="round"/>
<path d="M153.36 94.7487L145.5 90.2188" stroke="#003D2E" stroke-width="0.4221" stroke-miterlimit="10" stroke-linecap="round" stroke-linejoin="round"/>
<path d="M145.5 96.6687V90.2188" stroke="#003D2E" stroke-width="0.4221" stroke-miterlimit="10" stroke-linecap="round" stroke-linejoin="round"/>
<path d="M153.36 103.819L147.52 100.449" stroke="#003D2E" stroke-width="0.4221" stroke-miterlimit="10" stroke-linecap="round" stroke-linejoin="round"/>
</g>
<mask id="mask40_907_300" style="mask-type:luminance" maskUnits="userSpaceOnUse" x="0" y="0" width="193" height="108">
<path d="M192.061 0.320312H0.621094V108H192.061V0.320312Z" fill="white"/>
</mask>
<g mask="url(#mask40_907_300)">
<path d="M197.22 96.6699L186.27 102.98" stroke="#003D2E" stroke-width="0.4221" stroke-miterlimit="10" stroke-linecap="round" stroke-linejoin="round"/>
</g>
<mask id="mask41_907_300" style="mask-type:luminance" maskUnits="userSpaceOnUse" x="0" y="0" width="193" height="108">
<path d="M192.061 0.320312H0.621094V108H192.061V0.320312Z" fill="white"/>
</mask>
<g mask="url(#mask41_907_300)">
<path d="M156.543 96.6699L167.653 103.07" stroke="#003D2E" stroke-width="0.4221" stroke-miterlimit="10" stroke-linecap="round" stroke-linejoin="round"/>
</g>
<mask id="mask42_907_300" style="mask-type:luminance" maskUnits="userSpaceOnUse" x="0" y="0" width="193" height="108">
<path d="M192.061 0.320312H0.621094V108H192.061V0.320312Z" fill="white"/>
</mask>
<g mask="url(#mask42_907_300)">
<path d="M172.291 86.2402C169.361 86.7102 166.501 87.6402 163.841 89.0202L163.391 89.2502" stroke="#003D2E" stroke-width="0.4221" stroke-miterlimit="10" stroke-linecap="round" stroke-linejoin="round"/>
</g>
<mask id="mask43_907_300" style="mask-type:luminance" maskUnits="userSpaceOnUse" x="0" y="0" width="193" height="108">
<path d="M192.061 0.320312H0.621094V108H192.061V0.320312Z" fill="white"/>
</mask>
<g mask="url(#mask43_907_300)">
<path d="M190.481 89.25L190.031 89.02C187.381 87.65 184.531 86.73 181.621 86.25" stroke="#003D2E" stroke-width="0.4221" stroke-miterlimit="10" stroke-linecap="round" stroke-linejoin="round"/>
</g>
<mask id="mask44_907_300" style="mask-type:luminance" maskUnits="userSpaceOnUse" x="0" y="0" width="193" height="108">
<path d="M192.061 0.320312H0.621094V108H192.061V0.320312Z" fill="white"/>
</mask>
<g mask="url(#mask44_907_300)">
<path d="M161.223 96.6707V90.2207" stroke="#003D2E" stroke-width="0.4221" stroke-miterlimit="10" stroke-linecap="round" stroke-linejoin="round"/>
</g>
<mask id="mask45_907_300" style="mask-type:luminance" maskUnits="userSpaceOnUse" x="0" y="0" width="193" height="108">
<path d="M192.061 0.320312H0.621094V108H192.061V0.320312Z" fill="white"/>
</mask>
<g mask="url(#mask45_907_300)">
<path d="M153.359 103.821L159.189 100.451" stroke="#003D2E" stroke-width="0.4221" stroke-miterlimit="10" stroke-linecap="round" stroke-linejoin="round"/>
</g>
<mask id="mask46_907_300" style="mask-type:luminance" maskUnits="userSpaceOnUse" x="0" y="0" width="193" height="108">
<path d="M192.061 0.320312H0.621094V108H192.061V0.320312Z" fill="white"/>
</mask>
<g mask="url(#mask46_907_300)">
<path d="M176.933 82.9297L174.383 84.3997L176.933 85.8697L179.483 84.3997L176.933 82.9297Z" fill="#E3E7E3"/>
<path d="M176.934 85.8704V88.8104L179.484 87.3404V84.4004L176.934 85.8704Z" fill="#E3E7E3"/>
<path d="M176.933 85.8704V88.8104L174.383 87.3404V84.4004L176.933 85.8704Z" fill="#E3E7E3"/>
<path d="M176.932 89.7605L180.303 87.8205V83.9305L176.932 81.9805L173.562 83.9305" stroke="#003D2E" stroke-width="0.4221" stroke-miterlimit="10" stroke-linecap="round" stroke-linejoin="round"/>
<path d="M180.304 83.9297L176.934 85.8697" stroke="#003D2E" stroke-width="0.4221" stroke-miterlimit="10" stroke-linecap="round" stroke-linejoin="round"/>
<path d="M176.934 85.8711V89.7611" stroke="#003D2E" stroke-width="0.4221" stroke-miterlimit="10" stroke-linecap="round" stroke-linejoin="round"/>
<path d="M176.932 85.8697L173.562 83.9297" stroke="#003D2E" stroke-width="0.4221" stroke-miterlimit="10" stroke-linecap="round" stroke-linejoin="round"/>
<path d="M176.932 89.7597L173.562 87.8197V83.9297" stroke="#003D2E" stroke-width="0.4221" stroke-miterlimit="10" stroke-linecap="round" stroke-linejoin="round"/>
</g>
<path d="M108.018 66.6797L76.2383 86.7297L82.1983 86.2297" stroke="#00FF94" stroke-width="0.4221" stroke-miterlimit="10" stroke-linecap="round" stroke-linejoin="round"/>
<path d="M73.6914 84.5793L105.471 64.5293L99.5114 65.0293" stroke="#00FF94" stroke-width="0.4221" stroke-miterlimit="10" stroke-linecap="round" stroke-linejoin="round"/>
<path d="M62.8906 12.2598L76.2406 22.8098L75.1306 20.3398" stroke="#00FF94" stroke-width="0.4221" stroke-miterlimit="10" stroke-linecap="round" stroke-linejoin="round"/>
<path d="M75.7116 24.2299L62.3516 13.6699L63.4716 16.1399" stroke="#00FF94" stroke-width="0.4221" stroke-miterlimit="10" stroke-linecap="round" stroke-linejoin="round"/>
<path d="M148.73 69.1309L152.44 83.5809L152.98 81.2709" stroke="#00FF94" stroke-width="0.4221" stroke-miterlimit="10" stroke-linecap="round" stroke-linejoin="round"/>
<path d="M151.02 84.2801L147.31 69.8301L146.77 72.1401" stroke="#00FF94" stroke-width="0.4221" stroke-miterlimit="10" stroke-linecap="round" stroke-linejoin="round"/>
<path d="M110.29 31.1201C111.543 31.1201 112.56 30.1038 112.56 28.8501C112.56 27.5964 111.543 26.5801 110.29 26.5801C109.036 26.5801 108.02 27.5964 108.02 28.8501C108.02 30.1038 109.036 31.1201 110.29 31.1201Z" stroke="#003C2E" stroke-width="0.4221" stroke-miterlimit="10" stroke-linecap="round" stroke-linejoin="round"/>
<path d="M16.5708 21.3896C17.8245 21.3896 18.8408 20.3733 18.8408 19.1196C18.8408 17.8659 17.8245 16.8496 16.5708 16.8496C15.3171 16.8496 14.3008 17.8659 14.3008 19.1196C14.3008 20.3733 15.3171 21.3896 16.5708 21.3896Z" stroke="#003C2E" stroke-width="0.4221" stroke-miterlimit="10" stroke-linecap="round" stroke-linejoin="round"/>
<path d="M182.54 76.8291C183.793 76.8291 184.81 75.8127 184.81 74.5591C184.81 73.3054 183.793 72.2891 182.54 72.2891C181.286 72.2891 180.27 73.3054 180.27 74.5591C180.27 75.8127 181.286 76.8291 182.54 76.8291Z" stroke="#003C2E" stroke-width="0.4221" stroke-miterlimit="10" stroke-linecap="round" stroke-linejoin="round"/>
<path d="M1.78125 56.4492L3.56125 58.2392" stroke="#163B2F" stroke-width="0.4221" stroke-miterlimit="10" stroke-linecap="round" stroke-linejoin="round"/>
<path d="M4.87109 59.5391L6.65109 61.3291" stroke="#163B2F" stroke-width="0.4221" stroke-miterlimit="10" stroke-linecap="round" stroke-linejoin="round"/>
<path d="M1.78125 61.3291L3.56125 59.5391" stroke="#163B2F" stroke-width="0.4221" stroke-miterlimit="10" stroke-linecap="round" stroke-linejoin="round"/>
<path d="M4.87109 58.2392L6.65109 56.4492" stroke="#163B2F" stroke-width="0.4221" stroke-miterlimit="10" stroke-linecap="round" stroke-linejoin="round"/>
</g>
<defs>
<clipPath id="clip0_907_300">
<rect width="192" height="108" fill="white"/>
</clipPath>
</defs>
</svg>
