<svg width="1920" height="1080" viewBox="0 0 1920 1080" fill="none" xmlns="http://www.w3.org/2000/svg">
<path d="M1508.04 274.066C1518.47 274.066 1526.92 265.611 1526.92 255.182C1526.92 244.753 1518.47 236.299 1508.04 236.299C1497.61 236.299 1489.15 244.753 1489.15 255.182C1489.15 265.611 1497.61 274.066 1508.04 274.066Z" stroke="#003B2F" stroke-width="3" stroke-linecap="round" stroke-linejoin="round"/>
<path d="M1522.92 351.272H1655.2C1669.79 351.272 1681.62 339.445 1681.62 324.854C1681.62 310.264 1669.79 298.436 1655.2 298.436H1522.92C1508.33 298.436 1496.5 310.264 1496.5 324.854C1496.5 339.445 1508.33 351.272 1522.92 351.272Z" fill="#03FC9D"/>
<path d="M1594.64 310.809H1811.38C1835.27 310.809 1854.64 291.443 1854.64 267.554C1854.64 243.665 1835.27 224.299 1811.38 224.299H1594.64C1570.75 224.299 1551.39 243.665 1551.39 267.554C1551.39 291.443 1570.75 310.809 1594.64 310.809Z" fill="#03FC9D"/>
<path d="M1536.97 491.236H1599.94" stroke="#003B2F" stroke-width="3" stroke-linecap="round" stroke-linejoin="round"/>
<path d="M1489.15 491.236H1505.06" stroke="#003B2F" stroke-width="3" stroke-linecap="round" stroke-linejoin="round"/>
<path d="M1546.08 445.934H1709.15" stroke="#03FC9D" stroke-width="3" stroke-linecap="round" stroke-linejoin="round"/>
<path d="M1794.63 876.016L1809.42 890.899" stroke="#003B2F" stroke-width="3" stroke-linecap="round" stroke-linejoin="round"/>
<path d="M1820.31 901.689L1835.19 916.572" stroke="#003B2F" stroke-width="3" stroke-linecap="round" stroke-linejoin="round"/>
<path d="M1794.63 916.572L1809.42 901.689" stroke="#003B2F" stroke-width="3" stroke-linecap="round" stroke-linejoin="round"/>
<path d="M1820.31 890.899L1835.19 876.016" stroke="#003B2F" stroke-width="3" stroke-linecap="round" stroke-linejoin="round"/>
<path d="M1272.29 224.299H771.263C766.555 224.299 762.738 228.116 762.738 232.824V930.217C762.738 934.925 766.555 938.742 771.263 938.742H1272.29C1277 938.742 1280.82 934.925 1280.82 930.217V232.824C1280.82 228.116 1277 224.299 1272.29 224.299Z" fill="#E6E8EA"/>
<path d="M1285.31 206.967H780.913C777.136 206.967 774.074 210.029 774.074 213.806V914.57C774.074 918.347 777.136 921.41 780.913 921.41H1285.31C1289.09 921.41 1292.15 918.347 1292.15 914.57V213.806C1292.15 210.029 1289.09 206.967 1285.31 206.967Z" fill="white" stroke="#003B2F" stroke-width="3" stroke-linecap="round" stroke-linejoin="round"/>
<path d="M900.923 399.865C931.192 399.865 955.729 375.328 955.729 345.06C955.729 314.791 931.192 290.254 900.923 290.254C870.655 290.254 846.118 314.791 846.118 345.06C846.118 375.328 870.655 399.865 900.923 399.865Z" fill="#BFFEE5"/>
<path d="M900.924 390.589C875.816 390.589 855.393 370.165 855.393 345.058C855.393 319.95 875.816 299.527 900.924 299.527C926.031 299.527 946.455 319.95 946.455 345.058C946.455 370.165 926.031 390.589 900.924 390.589Z" fill="#03FC9D"/>
<path d="M1212.52 333.631H978.495C977.839 333.631 977.371 333.069 977.371 332.506V303.839C977.371 303.183 977.933 302.715 978.495 302.715H1212.52C1213.18 302.715 1213.64 303.277 1213.64 303.839V332.506C1213.64 333.162 1213.08 333.631 1212.52 333.631Z" stroke="#003B2F" stroke-width="3" stroke-linecap="round" stroke-linejoin="round"/>
<path d="M1212.52 384.594H978.495C977.839 384.594 977.371 384.032 977.371 383.47V354.802C977.371 354.146 977.933 353.678 978.495 353.678H1212.52C1213.18 353.678 1213.64 354.24 1213.64 354.802V383.47C1213.64 384.126 1213.08 384.594 1212.52 384.594Z" stroke="#003B2F" stroke-width="3" stroke-linecap="round" stroke-linejoin="round"/>
<path d="M850.708 461.135H1215.71" stroke="#003B2F" stroke-width="3" stroke-linecap="round" stroke-linejoin="round"/>
<path d="M850.708 504.043H1215.71" stroke="#003B2F" stroke-width="3" stroke-linecap="round" stroke-linejoin="round"/>
<path d="M850.708 547.043H1215.71" stroke="#003B2F" stroke-width="3" stroke-linecap="round" stroke-linejoin="round"/>
<path d="M850.708 589.951H1215.71" stroke="#003B2F" stroke-width="3" stroke-linecap="round" stroke-linejoin="round"/>
<path d="M850.708 632.859H1215.71" stroke="#003B2F" stroke-width="3" stroke-linecap="round" stroke-linejoin="round"/>
<path d="M1051.01 786.504H1200.15" stroke="#003B2F" stroke-width="3" stroke-linecap="round" stroke-linejoin="round"/>
<path d="M991.423 777.228C991.423 775.635 992.173 773.761 993.016 771.794C994.14 769.077 995.358 766.266 994.796 763.362C994.328 760.552 992.266 758.397 990.299 756.242C988.8 754.649 987.395 753.057 986.833 751.464C986.271 749.872 986.364 747.81 986.458 745.562C986.645 742.658 986.739 739.754 985.334 737.224C983.835 734.695 981.212 733.289 978.588 731.978C976.715 731.041 974.841 730.104 973.81 728.792C972.686 727.481 972.124 725.513 971.468 723.452C970.625 720.642 969.688 717.831 967.534 715.958C965.285 714.084 962.287 713.709 959.383 713.334C957.228 713.053 955.167 712.772 953.762 712.023C952.357 711.18 951.045 709.587 949.733 707.807C947.953 705.465 946.173 703.123 943.457 702.092C940.74 701.062 937.835 701.811 935.025 702.373C932.87 702.842 930.903 703.31 929.216 703.029C927.624 702.748 925.844 701.624 924.064 700.5C921.628 698.907 919.098 697.314 916.194 697.314C913.29 697.314 910.854 698.907 908.418 700.5C906.545 701.717 904.858 702.842 903.172 703.123C901.579 703.404 899.612 702.935 897.551 702.467C894.647 701.811 891.742 701.155 888.932 702.186C886.121 703.216 884.341 705.652 882.561 707.994C881.25 709.681 880.032 711.273 878.626 712.116C877.127 712.96 875.066 713.241 872.912 713.522C870.007 713.896 867.103 714.271 864.855 716.051C862.606 717.925 861.763 720.829 860.826 723.64C860.17 725.701 859.608 727.668 858.578 728.886C857.454 730.198 855.674 731.135 853.706 732.071C851.083 733.383 848.46 734.788 847.054 737.318C845.649 739.847 845.743 742.845 845.93 745.749C846.024 747.904 846.118 749.965 845.556 751.558C844.993 753.151 843.588 754.649 842.089 756.242C840.122 758.397 838.061 760.552 837.592 763.456C837.124 766.266 838.248 769.077 839.372 771.7C840.215 773.668 840.965 775.635 840.965 777.321C840.965 779.008 840.215 780.788 839.372 782.755C838.248 785.472 837.03 788.282 837.592 791.187C838.061 793.997 840.122 796.152 842.089 798.307C843.588 799.899 844.993 801.492 845.556 803.085C846.118 804.677 846.024 806.738 845.93 808.987C845.743 811.891 845.649 814.795 847.054 817.325C848.553 819.854 851.177 821.26 853.8 822.571C855.674 823.508 857.547 824.445 858.578 825.756C859.702 827.068 860.264 829.035 860.92 831.097C861.763 833.907 862.7 836.718 864.855 838.591C867.103 840.465 870.101 840.84 873.005 841.215C875.16 841.496 877.221 841.777 878.626 842.526C880.032 843.369 881.343 844.962 882.655 846.742C884.435 849.084 886.215 851.426 888.932 852.457C891.649 853.487 894.553 852.738 897.363 852.176C899.518 851.707 901.486 851.239 903.172 851.52C904.765 851.801 906.545 852.925 908.325 854.049C910.76 855.642 913.29 857.235 916.194 857.235C919.098 857.235 921.534 855.642 923.97 854.049C925.844 852.832 927.53 851.707 929.216 851.426C930.809 851.145 932.776 851.614 934.837 852.082C937.742 852.738 940.646 853.394 943.457 852.363C946.267 851.333 948.047 848.897 949.827 846.555C951.139 844.868 952.357 843.276 953.762 842.432C955.261 841.589 957.322 841.308 959.477 841.027C962.381 840.652 965.285 840.278 967.534 838.498C969.782 836.624 970.625 833.72 971.562 830.909C972.218 828.848 972.78 826.881 973.81 825.663C974.935 824.351 976.715 823.414 978.682 822.478C981.305 821.166 983.928 819.761 985.334 817.231C986.739 814.702 986.645 811.704 986.458 808.799C986.364 806.645 986.271 804.584 986.833 802.991C987.395 801.398 988.8 799.899 990.299 798.307C992.266 796.152 994.328 793.997 994.796 791.093C995.264 788.282 994.14 785.472 993.016 782.849C992.173 780.881 991.423 778.914 991.423 777.228ZM940.74 844.493C922.752 851.051 903.359 850.208 886.028 842.058C868.696 834.001 855.58 819.667 849.022 801.679C842.464 783.692 843.307 764.299 851.458 746.967C859.515 729.636 873.848 716.52 891.836 709.962C899.893 707.057 908.137 705.652 916.288 705.652C945.518 705.652 973.061 723.733 983.647 752.776C997.138 789.875 977.933 831.003 940.833 844.587L940.74 844.493Z" fill="#03FC9D"/>
<path d="M916.194 834.564C907.95 834.564 899.705 832.784 892.023 829.13C878.158 822.666 867.665 811.236 862.419 796.809C857.172 782.475 857.828 766.923 864.293 753.058C870.757 739.192 882.186 728.7 896.614 723.453C910.948 718.207 926.499 718.863 940.365 725.327C954.23 731.791 964.723 743.221 969.969 757.648C975.216 771.982 974.56 787.534 968.096 801.399C961.631 815.265 950.202 825.758 935.774 831.004C929.404 833.346 922.752 834.47 916.194 834.47V834.564ZM916.194 723.547C910.011 723.547 903.734 724.671 897.738 726.826C884.247 731.698 873.474 741.628 867.384 754.651C861.295 767.673 860.639 782.288 865.604 795.778C870.476 809.269 880.406 820.043 893.429 826.132C906.451 832.222 921.066 832.878 934.556 827.912C948.047 823.041 958.821 813.11 964.91 800.088C971 787.066 971.656 772.451 966.69 758.96C961.819 745.469 951.888 734.696 938.866 728.606C931.652 725.233 923.876 723.547 916.194 723.547Z" fill="#03FC9D"/>
<path d="M1055.69 849.177C1051.1 849.177 1047.54 847.116 1045.11 842.994C1039.39 833.157 1042.29 814.233 1051.76 800.836C1058.69 790.999 1067.31 781.911 1076.3 773.386C1077.15 763.081 1077.99 753.806 1078.83 745.28C1049.32 770.013 1030.02 774.51 1008.38 773.761C1007.72 773.761 1007.26 773.199 1007.26 772.543C1007.26 771.887 1007.82 771.419 1008.47 771.419C1029.65 772.168 1048.57 767.671 1077.61 743.313C1078.18 742.845 1078.64 742.376 1079.21 741.814C1083.52 701.248 1088.39 682.23 1094.48 681.012C1096.82 680.544 1099.07 682.418 1101.13 686.633C1105.81 695.908 1100.75 710.336 1097.29 718.018C1092.98 727.668 1086.8 737.222 1081.27 742.844C1080.14 753.43 1079.3 763.362 1078.64 770.856C1083.05 766.734 1087.54 762.706 1091.95 758.677C1096.44 754.649 1100.85 750.714 1104.88 746.873C1106.28 734.6 1109.37 721.765 1112.37 715.301C1117.34 704.902 1123.61 698.719 1128.39 699.562C1130.73 699.937 1132.23 702.092 1132.51 705.277C1133.82 719.892 1122.49 733.382 1107.12 747.997C1107.12 748.185 1107.12 748.278 1107.12 748.466C1105.63 762.237 1106.56 772.355 1109.56 774.885C1109.94 775.26 1111.25 776.29 1114.34 774.229C1121.83 769.076 1128.95 761.488 1135.14 753.244C1134.95 751.932 1134.76 750.339 1134.67 748.653C1134.2 739.097 1139.35 711.835 1148.72 706.12C1150.97 704.715 1153.41 704.715 1155.65 706.12C1156.87 706.87 1157.62 708.275 1157.62 710.43C1157.9 718.205 1149.75 737.223 1137.57 753.899C1138.13 756.71 1139.17 758.49 1140.57 759.052C1145.54 760.926 1156.31 749.309 1165.87 739.191C1172.61 731.883 1179.07 725.044 1184.32 721.578C1184.88 721.203 1185.54 721.391 1185.91 721.953C1186.29 722.515 1186.1 723.171 1185.54 723.545C1180.48 726.824 1173.92 733.945 1167.46 740.784C1156.5 752.588 1146.1 763.643 1139.73 761.301C1137.95 760.645 1136.64 759.052 1135.79 756.429C1129.8 764.205 1122.86 771.418 1115.65 776.383C1111.9 778.912 1109.47 778.07 1108.06 776.852C1104.22 773.573 1103.56 762.612 1104.6 750.62C1101.04 753.899 1097.38 757.272 1093.54 760.645C1088.48 765.235 1083.33 769.826 1078.36 774.51C1078.36 774.885 1078.36 775.259 1078.36 775.633C1078.18 778.538 1077.99 780.693 1077.8 782.005C1077.61 783.785 1077.43 786.127 1077.24 788.844C1075.83 809.361 1073.21 847.491 1057.1 849.084C1056.53 849.084 1055.97 849.084 1055.5 849.084L1055.69 849.177ZM1076.02 776.946C1067.78 784.909 1060.09 793.247 1053.72 802.241C1044.92 814.701 1041.92 832.876 1047.17 841.87C1049.32 845.617 1052.69 847.21 1057.1 846.835C1071.24 845.43 1073.87 807.113 1075.18 788.75C1075.37 786.033 1075.55 783.598 1075.74 781.818C1075.83 780.787 1076.02 779.101 1076.11 777.04L1076.02 776.946ZM1152.37 707.619C1151.63 707.619 1150.88 707.9 1150.03 708.368C1142.26 713.053 1136.64 738.348 1137.1 748.747C1137.1 749.403 1137.1 750.058 1137.2 750.62C1148.25 734.975 1155.65 717.643 1155.47 710.711C1155.47 709.493 1155.09 708.556 1154.62 708.275C1153.87 707.806 1153.12 707.619 1152.37 707.619ZM1127.74 702.092C1125.11 702.092 1119.77 705.745 1114.71 716.519C1112 722.234 1109.28 733.382 1107.78 744.531C1121.65 731.134 1131.48 718.674 1130.36 705.652C1130.26 704.434 1129.8 702.373 1128.2 702.092C1128.11 702.092 1127.92 702.092 1127.74 702.092ZM1095.13 683.448C1095.13 683.448 1095.04 683.448 1094.95 683.448C1093.26 683.823 1088.76 688.132 1084.08 721.11C1083.24 727.012 1082.49 733.195 1081.83 739.191C1086.61 733.663 1091.67 725.607 1095.32 717.362C1100.85 704.808 1102.25 694.128 1099.16 687.945C1097.76 685.135 1096.26 683.542 1095.23 683.542L1095.13 683.448Z" fill="#003B2F"/>
<path d="M737.63 275.92C700.812 293.345 667.741 317.235 639.448 347.027C523.747 468.63 517.376 657.499 624.552 786.316" stroke="#003B2F" stroke-width="3" stroke-linecap="round" stroke-linejoin="round"/>
<path d="M553.539 742.754C600.675 742.754 638.886 704.542 638.886 657.407C638.886 610.271 600.675 572.059 553.539 572.059C506.403 572.059 468.192 610.271 468.192 657.407C468.192 704.542 506.403 742.754 553.539 742.754Z" fill="#BFFEE5" stroke="#003B2F" stroke-width="3" stroke-miterlimit="10"/>
<path d="M553.539 726.92C591.931 726.92 623.054 695.797 623.054 657.405C623.054 619.013 591.931 587.891 553.539 587.891C515.148 587.891 484.025 619.013 484.025 657.405C484.025 695.797 515.148 726.92 553.539 726.92Z" fill="#03FC9D"/>
<path d="M505.01 708.369C533.116 735.07 577.71 734.039 604.504 705.934C631.298 677.828 630.173 633.234 602.068 606.44C573.962 579.646 529.368 580.77 502.574 608.876" stroke="#003B2F" stroke-width="3" stroke-linecap="round" stroke-linejoin="round"/>
<path d="M575.087 516.313C607.528 516.313 633.827 490.014 633.827 457.573C633.827 425.131 607.528 398.832 575.087 398.832C542.645 398.832 516.346 425.131 516.346 457.573C516.346 490.014 542.645 516.313 575.087 516.313Z" fill="#BFFEE5" stroke="#003B2F" stroke-width="3" stroke-miterlimit="10"/>
<path d="M575.087 505.354C601.475 505.354 622.866 483.962 622.866 457.575C622.866 431.187 601.475 409.795 575.087 409.795C548.699 409.795 527.307 431.187 527.307 457.575C527.307 483.962 548.699 505.354 575.087 505.354Z" fill="#03FC9D"/>
<path d="M541.547 492.894C561.034 511.35 591.856 510.6 610.406 491.207C628.862 471.721 628.112 440.898 608.72 422.349C589.327 403.799 558.411 404.642 539.861 424.035" stroke="#003B2F" stroke-width="3" stroke-linecap="round" stroke-linejoin="round"/>
<path d="M684.228 354.32C700.011 342.422 703.161 319.983 691.263 304.2C679.365 288.417 656.926 285.267 641.143 297.165C625.36 309.062 622.21 331.502 634.108 347.285C646.005 363.068 668.445 366.218 684.228 354.32Z" fill="#BFFEE5" stroke="#003B2F" stroke-width="3" stroke-miterlimit="10"/>
<path d="M603.942 785.378L625.583 787.346C625.583 787.346 626.052 787.346 626.239 787.158C626.333 786.971 626.426 786.877 626.52 786.596L628.487 765.049" stroke="#003B2F" stroke-width="3" stroke-linecap="round" stroke-linejoin="round"/>
<path d="M1441.93 710.234H1289.13C1285.5 710.234 1282.57 713.17 1282.57 716.792V739.183C1282.57 742.804 1285.5 745.741 1289.13 745.741H1441.93C1445.55 745.741 1448.48 742.804 1448.48 739.183V716.792C1448.48 713.17 1445.55 710.234 1441.93 710.234Z" fill="#03FC9D"/>
<path d="M1426.94 710.234H1403.7V745.741H1426.94V710.234Z" fill="#BFFEE5"/>
<path d="M1427.41 674.449H1274.61C1270.98 674.449 1268.05 677.385 1268.05 681.007V703.398C1268.05 707.02 1270.98 709.956 1274.61 709.956H1427.41C1431.03 709.956 1433.96 707.02 1433.96 703.398V681.007C1433.96 677.385 1431.03 674.449 1427.41 674.449Z" fill="#03FC9D"/>
<path d="M1412.51 674.449H1389.28V709.956H1412.51V674.449Z" fill="#BFFEE5"/>
<path d="M1441.93 638.754H1289.13C1285.5 638.754 1282.57 641.69 1282.57 645.312V667.703C1282.57 671.325 1285.5 674.261 1289.13 674.261H1441.93C1445.55 674.261 1448.48 671.325 1448.48 667.703V645.312C1448.48 641.69 1445.55 638.754 1441.93 638.754Z" fill="#03FC9D"/>
<path d="M1426.94 638.754H1403.7V674.261H1426.94V638.754Z" fill="#BFFEE5"/>
<path d="M1443.52 960.375H1290.72C1287.1 960.375 1284.16 963.311 1284.16 966.933V989.324C1284.16 992.946 1287.1 995.882 1290.72 995.882H1443.52C1447.14 995.882 1450.08 992.946 1450.08 989.324V966.933C1450.08 963.311 1447.14 960.375 1443.52 960.375Z" fill="#03FC9D"/>
<path d="M1428.53 960.375H1405.3V995.882H1428.53V960.375Z" fill="#BFFEE5"/>
<path d="M1443.52 924.588H1290.72C1287.1 924.588 1284.16 927.524 1284.16 931.146V953.536C1284.16 957.158 1287.1 960.094 1290.72 960.094H1443.52C1447.14 960.094 1450.08 957.158 1450.08 953.536V931.146C1450.08 927.524 1447.14 924.588 1443.52 924.588Z" fill="#03FC9D"/>
<path d="M1428.53 924.588H1405.3V960.094H1428.53V924.588Z" fill="#BFFEE5"/>
<path d="M1443.52 888.893H1290.72C1287.1 888.893 1284.16 891.829 1284.16 895.451V917.842C1284.16 921.464 1287.1 924.4 1290.72 924.4H1443.52C1447.14 924.4 1450.08 921.464 1450.08 917.842V895.451C1450.08 891.829 1447.14 888.893 1443.52 888.893Z" fill="#03FC9D"/>
<path d="M1428.53 888.893H1405.3V924.4H1428.53V888.893Z" fill="#BFFEE5"/>
<path d="M1443.52 853.199H1290.72C1287.1 853.199 1284.16 856.135 1284.16 859.757V882.147C1284.16 885.769 1287.1 888.705 1290.72 888.705H1443.52C1447.14 888.705 1450.08 885.769 1450.08 882.147V859.757C1450.08 856.135 1447.14 853.199 1443.52 853.199Z" fill="#03FC9D"/>
<path d="M1428.53 853.199H1405.3V888.705H1428.53V853.199Z" fill="#BFFEE5"/>
<path d="M1443.52 817.506H1290.72C1287.1 817.506 1284.16 820.443 1284.16 824.064V846.455C1284.16 850.077 1287.1 853.013 1290.72 853.013H1443.52C1447.14 853.013 1450.08 850.077 1450.08 846.455V824.064C1450.08 820.443 1447.14 817.506 1443.52 817.506Z" fill="#03FC9D"/>
<path d="M1428.53 817.506H1405.3V853.013H1428.53V817.506Z" fill="#BFFEE5"/>
<path d="M1429.09 781.719H1276.29C1272.67 781.719 1269.73 784.655 1269.73 788.277V810.668C1269.73 814.29 1272.67 817.226 1276.29 817.226H1429.09C1432.71 817.226 1435.65 814.29 1435.65 810.668V788.277C1435.65 784.655 1432.71 781.719 1429.09 781.719Z" fill="#03FC9D"/>
<path d="M1414.1 781.719H1390.87V817.226H1414.1V781.719Z" fill="#BFFEE5"/>
<path d="M1443.52 746.023H1290.72C1287.1 746.023 1284.16 748.959 1284.16 752.581V774.972C1284.16 778.594 1287.1 781.53 1290.72 781.53H1443.52C1447.14 781.53 1450.08 778.594 1450.08 774.972V752.581C1450.08 748.959 1447.14 746.023 1443.52 746.023Z" fill="#03FC9D"/>
<path d="M1428.53 746.023H1405.3V781.53H1428.53V746.023Z" fill="#BFFEE5"/>
<path d="M1441.93 710.234H1289.13C1285.5 710.234 1282.57 713.17 1282.57 716.792V739.183C1282.57 742.804 1285.5 745.741 1289.13 745.741H1441.93C1445.55 745.741 1448.48 742.804 1448.48 739.183V716.792C1448.48 713.17 1445.55 710.234 1441.93 710.234Z" stroke="#003B2F" stroke-width="3" stroke-linecap="round" stroke-linejoin="round"/>
<path d="M1427.41 674.449H1274.61C1270.98 674.449 1268.05 677.385 1268.05 681.007V703.398C1268.05 707.02 1270.98 709.956 1274.61 709.956H1427.41C1431.03 709.956 1433.96 707.02 1433.96 703.398V681.007C1433.96 677.385 1431.03 674.449 1427.41 674.449Z" stroke="#003B2F" stroke-width="3" stroke-linecap="round" stroke-linejoin="round"/>
<path d="M1441.93 638.754H1289.13C1285.5 638.754 1282.57 641.69 1282.57 645.312V667.703C1282.57 671.325 1285.5 674.261 1289.13 674.261H1441.93C1445.55 674.261 1448.48 671.325 1448.48 667.703V645.312C1448.48 641.69 1445.55 638.754 1441.93 638.754Z" stroke="#003B2F" stroke-width="3" stroke-linecap="round" stroke-linejoin="round"/>
<path d="M1443.52 960.375H1290.72C1287.1 960.375 1284.16 963.311 1284.16 966.933V989.324C1284.16 992.946 1287.1 995.882 1290.72 995.882H1443.52C1447.14 995.882 1450.08 992.946 1450.08 989.324V966.933C1450.08 963.311 1447.14 960.375 1443.52 960.375Z" stroke="#003B2F" stroke-width="3" stroke-linecap="round" stroke-linejoin="round"/>
<path d="M1443.52 924.588H1290.72C1287.1 924.588 1284.16 927.524 1284.16 931.146V953.536C1284.16 957.158 1287.1 960.094 1290.72 960.094H1443.52C1447.14 960.094 1450.08 957.158 1450.08 953.536V931.146C1450.08 927.524 1447.14 924.588 1443.52 924.588Z" stroke="#003B2F" stroke-width="3" stroke-linecap="round" stroke-linejoin="round"/>
<path d="M1443.52 888.893H1290.72C1287.1 888.893 1284.16 891.829 1284.16 895.451V917.842C1284.16 921.464 1287.1 924.4 1290.72 924.4H1443.52C1447.14 924.4 1450.08 921.464 1450.08 917.842V895.451C1450.08 891.829 1447.14 888.893 1443.52 888.893Z" stroke="#003B2F" stroke-width="3" stroke-linecap="round" stroke-linejoin="round"/>
<path d="M1443.52 853.199H1290.72C1287.1 853.199 1284.16 856.135 1284.16 859.757V882.147C1284.16 885.769 1287.1 888.705 1290.72 888.705H1443.52C1447.14 888.705 1450.08 885.769 1450.08 882.147V859.757C1450.08 856.135 1447.14 853.199 1443.52 853.199Z" stroke="#003B2F" stroke-width="3" stroke-linecap="round" stroke-linejoin="round"/>
<path d="M1443.52 817.506H1290.72C1287.1 817.506 1284.16 820.443 1284.16 824.064V846.455C1284.16 850.077 1287.1 853.013 1290.72 853.013H1443.52C1447.14 853.013 1450.08 850.077 1450.08 846.455V824.064C1450.08 820.443 1447.14 817.506 1443.52 817.506Z" stroke="#003B2F" stroke-width="3" stroke-linecap="round" stroke-linejoin="round"/>
<path d="M1429.09 781.719H1276.29C1272.67 781.719 1269.73 784.655 1269.73 788.277V810.668C1269.73 814.29 1272.67 817.226 1276.29 817.226H1429.09C1432.71 817.226 1435.65 814.29 1435.65 810.668V788.277C1435.65 784.655 1432.71 781.719 1429.09 781.719Z" stroke="#003B2F" stroke-width="3" stroke-linecap="round" stroke-linejoin="round"/>
<path d="M1443.52 746.023H1290.72C1287.1 746.023 1284.16 748.959 1284.16 752.581V774.972C1284.16 778.594 1287.1 781.53 1290.72 781.53H1443.52C1447.14 781.53 1450.08 778.594 1450.08 774.972V752.581C1450.08 748.959 1447.14 746.023 1443.52 746.023Z" stroke="#003B2F" stroke-width="3" stroke-linecap="round" stroke-linejoin="round"/>
<path d="M1366.23 988.294V967.027" stroke="#003B2F" stroke-width="3" stroke-linecap="round" stroke-linejoin="round"/>
<path d="M1354.05 988.294V967.027" stroke="#003B2F" stroke-width="3" stroke-linecap="round" stroke-linejoin="round"/>
<path d="M1341.87 988.294V967.027" stroke="#003B2F" stroke-width="3" stroke-linecap="round" stroke-linejoin="round"/>
<path d="M1329.69 988.294V967.027" stroke="#003B2F" stroke-width="3" stroke-linecap="round" stroke-linejoin="round"/>
<path d="M1317.51 988.294V967.027" stroke="#003B2F" stroke-width="3" stroke-linecap="round" stroke-linejoin="round"/>
<path d="M1366.23 953.255V931.988" stroke="#003B2F" stroke-width="3" stroke-linecap="round" stroke-linejoin="round"/>
<path d="M1354.05 953.255V931.988" stroke="#003B2F" stroke-width="3" stroke-linecap="round" stroke-linejoin="round"/>
<path d="M1341.87 953.255V931.988" stroke="#003B2F" stroke-width="3" stroke-linecap="round" stroke-linejoin="round"/>
<path d="M1329.69 953.255V931.988" stroke="#003B2F" stroke-width="3" stroke-linecap="round" stroke-linejoin="round"/>
<path d="M1317.51 953.255V931.988" stroke="#003B2F" stroke-width="3" stroke-linecap="round" stroke-linejoin="round"/>
<path d="M1366.23 917.561V896.295" stroke="#003B2F" stroke-width="3" stroke-linecap="round" stroke-linejoin="round"/>
<path d="M1354.05 917.561V896.295" stroke="#003B2F" stroke-width="3" stroke-linecap="round" stroke-linejoin="round"/>
<path d="M1341.87 917.561V896.295" stroke="#003B2F" stroke-width="3" stroke-linecap="round" stroke-linejoin="round"/>
<path d="M1329.69 917.561V896.295" stroke="#003B2F" stroke-width="3" stroke-linecap="round" stroke-linejoin="round"/>
<path d="M1317.51 917.561V896.295" stroke="#003B2F" stroke-width="3" stroke-linecap="round" stroke-linejoin="round"/>
<path d="M1366.23 881.866V860.6" stroke="#003B2F" stroke-width="3" stroke-linecap="round" stroke-linejoin="round"/>
<path d="M1354.05 881.866V860.6" stroke="#003B2F" stroke-width="3" stroke-linecap="round" stroke-linejoin="round"/>
<path d="M1341.87 881.866V860.6" stroke="#003B2F" stroke-width="3" stroke-linecap="round" stroke-linejoin="round"/>
<path d="M1329.69 881.866V860.6" stroke="#003B2F" stroke-width="3" stroke-linecap="round" stroke-linejoin="round"/>
<path d="M1317.51 881.866V860.6" stroke="#003B2F" stroke-width="3" stroke-linecap="round" stroke-linejoin="round"/>
<path d="M1351.61 810.386V789.119" stroke="#003B2F" stroke-width="3" stroke-linecap="round" stroke-linejoin="round"/>
<path d="M1339.44 810.386V789.119" stroke="#003B2F" stroke-width="3" stroke-linecap="round" stroke-linejoin="round"/>
<path d="M1327.26 810.386V789.119" stroke="#003B2F" stroke-width="3" stroke-linecap="round" stroke-linejoin="round"/>
<path d="M1315.08 810.386V789.119" stroke="#003B2F" stroke-width="3" stroke-linecap="round" stroke-linejoin="round"/>
<path d="M1302.8 810.386V789.119" stroke="#003B2F" stroke-width="3" stroke-linecap="round" stroke-linejoin="round"/>
<path d="M1366.23 774.597V753.33" stroke="#003B2F" stroke-width="3" stroke-linecap="round" stroke-linejoin="round"/>
<path d="M1354.05 774.597V753.33" stroke="#003B2F" stroke-width="3" stroke-linecap="round" stroke-linejoin="round"/>
<path d="M1341.87 774.597V753.33" stroke="#003B2F" stroke-width="3" stroke-linecap="round" stroke-linejoin="round"/>
<path d="M1329.69 774.597V753.33" stroke="#003B2F" stroke-width="3" stroke-linecap="round" stroke-linejoin="round"/>
<path d="M1317.51 774.597V753.33" stroke="#003B2F" stroke-width="3" stroke-linecap="round" stroke-linejoin="round"/>
<path d="M1365.39 738.903V717.637" stroke="#003B2F" stroke-width="3" stroke-linecap="round" stroke-linejoin="round"/>
<path d="M1353.21 738.903V717.637" stroke="#003B2F" stroke-width="3" stroke-linecap="round" stroke-linejoin="round"/>
<path d="M1341.03 738.903V717.637" stroke="#003B2F" stroke-width="3" stroke-linecap="round" stroke-linejoin="round"/>
<path d="M1328.85 738.903V717.637" stroke="#003B2F" stroke-width="3" stroke-linecap="round" stroke-linejoin="round"/>
<path d="M1316.67 738.903V717.637" stroke="#003B2F" stroke-width="3" stroke-linecap="round" stroke-linejoin="round"/>
<path d="M1350.21 703.117V681.85" stroke="#003B2F" stroke-width="3" stroke-linecap="round" stroke-linejoin="round"/>
<path d="M1338.03 703.117V681.85" stroke="#003B2F" stroke-width="3" stroke-linecap="round" stroke-linejoin="round"/>
<path d="M1325.85 703.117V681.85" stroke="#003B2F" stroke-width="3" stroke-linecap="round" stroke-linejoin="round"/>
<path d="M1313.58 703.117V681.85" stroke="#003B2F" stroke-width="3" stroke-linecap="round" stroke-linejoin="round"/>
<path d="M1301.4 703.117V681.85" stroke="#003B2F" stroke-width="3" stroke-linecap="round" stroke-linejoin="round"/>
<path d="M1365.39 667.422V646.156" stroke="#003B2F" stroke-width="3" stroke-linecap="round" stroke-linejoin="round"/>
<path d="M1353.21 667.422V646.156" stroke="#003B2F" stroke-width="3" stroke-linecap="round" stroke-linejoin="round"/>
<path d="M1341.03 667.422V646.156" stroke="#003B2F" stroke-width="3" stroke-linecap="round" stroke-linejoin="round"/>
<path d="M1328.85 667.422V646.156" stroke="#003B2F" stroke-width="3" stroke-linecap="round" stroke-linejoin="round"/>
<path d="M1316.67 667.422V646.156" stroke="#003B2F" stroke-width="3" stroke-linecap="round" stroke-linejoin="round"/>
<path d="M1367.17 846.08V824.814" stroke="#003B2F" stroke-width="3" stroke-linecap="round" stroke-linejoin="round"/>
<path d="M1354.89 846.08V824.814" stroke="#003B2F" stroke-width="3" stroke-linecap="round" stroke-linejoin="round"/>
<path d="M1342.71 846.08V824.814" stroke="#003B2F" stroke-width="3" stroke-linecap="round" stroke-linejoin="round"/>
<path d="M1330.54 846.08V824.814" stroke="#003B2F" stroke-width="3" stroke-linecap="round" stroke-linejoin="round"/>
<path d="M1318.36 846.08V824.814" stroke="#003B2F" stroke-width="3" stroke-linecap="round" stroke-linejoin="round"/>
<path d="M1329.5 960.375H1176.7C1173.08 960.375 1170.15 963.311 1170.15 966.933V989.324C1170.15 992.945 1173.08 995.882 1176.7 995.882H1329.5C1333.13 995.882 1336.06 992.945 1336.06 989.324V966.933C1336.06 963.311 1333.13 960.375 1329.5 960.375Z" fill="#03FC9D"/>
<path d="M1314.51 960.375H1291.28V995.882H1314.51V960.375Z" fill="#BFFEE5"/>
<path d="M1329.5 924.59H1176.7C1173.08 924.59 1170.15 927.526 1170.15 931.148V953.539C1170.15 957.16 1173.08 960.097 1176.7 960.097H1329.5C1333.13 960.097 1336.06 957.16 1336.06 953.539V931.148C1336.06 927.526 1333.13 924.59 1329.5 924.59Z" fill="#03FC9D"/>
<path d="M1314.51 924.59H1291.28V960.097H1314.51V924.59Z" fill="#BFFEE5"/>
<path d="M1329.5 888.895H1176.7C1173.08 888.895 1170.15 891.831 1170.15 895.453V917.844C1170.15 921.466 1173.08 924.401 1176.7 924.401H1329.5C1333.13 924.401 1336.06 921.466 1336.06 917.844V895.453C1336.06 891.831 1333.13 888.895 1329.5 888.895Z" fill="#03FC9D"/>
<path d="M1314.51 888.895H1291.28V924.401H1314.51V888.895Z" fill="#BFFEE5"/>
<path d="M1329.5 853.201H1176.7C1173.08 853.201 1170.15 856.137 1170.15 859.759V882.15C1170.15 885.771 1173.08 888.707 1176.7 888.707H1329.5C1333.13 888.707 1336.06 885.771 1336.06 882.15V859.759C1336.06 856.137 1333.13 853.201 1329.5 853.201Z" fill="#03FC9D"/>
<path d="M1314.51 853.201H1291.28V888.707H1314.51V853.201Z" fill="#BFFEE5"/>
<path d="M1329.5 817.506H1176.7C1173.08 817.506 1170.15 820.442 1170.15 824.064V846.455C1170.15 850.077 1173.08 853.013 1176.7 853.013H1329.5C1333.13 853.013 1336.06 850.077 1336.06 846.455V824.064C1336.06 820.442 1333.13 817.506 1329.5 817.506Z" fill="#03FC9D"/>
<path d="M1314.51 817.506H1291.28V853.013H1314.51V817.506Z" fill="#BFFEE5"/>
<path d="M1329.5 960.375H1176.7C1173.08 960.375 1170.15 963.311 1170.15 966.933V989.324C1170.15 992.945 1173.08 995.882 1176.7 995.882H1329.5C1333.13 995.882 1336.06 992.945 1336.06 989.324V966.933C1336.06 963.311 1333.13 960.375 1329.5 960.375Z" stroke="#003B2F" stroke-width="3" stroke-linecap="round" stroke-linejoin="round"/>
<path d="M1329.5 924.59H1176.7C1173.08 924.59 1170.15 927.526 1170.15 931.148V953.539C1170.15 957.16 1173.08 960.097 1176.7 960.097H1329.5C1333.13 960.097 1336.06 957.16 1336.06 953.539V931.148C1336.06 927.526 1333.13 924.59 1329.5 924.59Z" stroke="#003B2F" stroke-width="3" stroke-linecap="round" stroke-linejoin="round"/>
<path d="M1329.5 888.895H1176.7C1173.08 888.895 1170.15 891.831 1170.15 895.453V917.844C1170.15 921.466 1173.08 924.401 1176.7 924.401H1329.5C1333.13 924.401 1336.06 921.466 1336.06 917.844V895.453C1336.06 891.831 1333.13 888.895 1329.5 888.895Z" stroke="#003B2F" stroke-width="3" stroke-linecap="round" stroke-linejoin="round"/>
<path d="M1329.5 853.201H1176.7C1173.08 853.201 1170.15 856.137 1170.15 859.759V882.15C1170.15 885.771 1173.08 888.707 1176.7 888.707H1329.5C1333.13 888.707 1336.06 885.771 1336.06 882.15V859.759C1336.06 856.137 1333.13 853.201 1329.5 853.201Z" stroke="#003B2F" stroke-width="3" stroke-linecap="round" stroke-linejoin="round"/>
<path d="M1329.5 817.506H1176.7C1173.08 817.506 1170.15 820.442 1170.15 824.064V846.455C1170.15 850.077 1173.08 853.013 1176.7 853.013H1329.5C1333.13 853.013 1336.06 850.077 1336.06 846.455V824.064C1336.06 820.442 1333.13 817.506 1329.5 817.506Z" stroke="#003B2F" stroke-width="3" stroke-linecap="round" stroke-linejoin="round"/>
<path d="M1252.21 988.294V967.027" stroke="#003B2F" stroke-width="3" stroke-linecap="round" stroke-linejoin="round"/>
<path d="M1240.04 988.294V967.027" stroke="#003B2F" stroke-width="3" stroke-linecap="round" stroke-linejoin="round"/>
<path d="M1227.86 988.294V967.027" stroke="#003B2F" stroke-width="3" stroke-linecap="round" stroke-linejoin="round"/>
<path d="M1215.68 988.294V967.027" stroke="#003B2F" stroke-width="3" stroke-linecap="round" stroke-linejoin="round"/>
<path d="M1203.5 988.294V967.027" stroke="#003B2F" stroke-width="3" stroke-linecap="round" stroke-linejoin="round"/>
<path d="M1252.21 953.255V931.988" stroke="#003B2F" stroke-width="3" stroke-linecap="round" stroke-linejoin="round"/>
<path d="M1240.04 953.255V931.988" stroke="#003B2F" stroke-width="3" stroke-linecap="round" stroke-linejoin="round"/>
<path d="M1227.86 953.255V931.988" stroke="#003B2F" stroke-width="3" stroke-linecap="round" stroke-linejoin="round"/>
<path d="M1215.68 953.255V931.988" stroke="#003B2F" stroke-width="3" stroke-linecap="round" stroke-linejoin="round"/>
<path d="M1203.5 953.255V931.988" stroke="#003B2F" stroke-width="3" stroke-linecap="round" stroke-linejoin="round"/>
<path d="M1252.21 917.563V896.297" stroke="#003B2F" stroke-width="3" stroke-linecap="round" stroke-linejoin="round"/>
<path d="M1240.04 917.563V896.297" stroke="#003B2F" stroke-width="3" stroke-linecap="round" stroke-linejoin="round"/>
<path d="M1227.86 917.563V896.297" stroke="#003B2F" stroke-width="3" stroke-linecap="round" stroke-linejoin="round"/>
<path d="M1215.68 917.563V896.297" stroke="#003B2F" stroke-width="3" stroke-linecap="round" stroke-linejoin="round"/>
<path d="M1203.5 917.563V896.297" stroke="#003B2F" stroke-width="3" stroke-linecap="round" stroke-linejoin="round"/>
<path d="M1252.21 881.869V860.602" stroke="#003B2F" stroke-width="3" stroke-linecap="round" stroke-linejoin="round"/>
<path d="M1240.04 881.869V860.602" stroke="#003B2F" stroke-width="3" stroke-linecap="round" stroke-linejoin="round"/>
<path d="M1227.86 881.869V860.602" stroke="#003B2F" stroke-width="3" stroke-linecap="round" stroke-linejoin="round"/>
<path d="M1215.68 881.869V860.602" stroke="#003B2F" stroke-width="3" stroke-linecap="round" stroke-linejoin="round"/>
<path d="M1203.5 881.869V860.602" stroke="#003B2F" stroke-width="3" stroke-linecap="round" stroke-linejoin="round"/>
<path d="M1253.06 846.081V824.814" stroke="#003B2F" stroke-width="3" stroke-linecap="round" stroke-linejoin="round"/>
<path d="M1240.88 846.081V824.814" stroke="#003B2F" stroke-width="3" stroke-linecap="round" stroke-linejoin="round"/>
<path d="M1228.7 846.081V824.814" stroke="#003B2F" stroke-width="3" stroke-linecap="round" stroke-linejoin="round"/>
<path d="M1216.52 846.081V824.814" stroke="#003B2F" stroke-width="3" stroke-linecap="round" stroke-linejoin="round"/>
<path d="M1204.34 846.081V824.814" stroke="#003B2F" stroke-width="3" stroke-linecap="round" stroke-linejoin="round"/>
<path d="M1322.85 781.533H1170.05C1166.43 781.533 1163.49 784.469 1163.49 788.091V810.481C1163.49 814.103 1166.43 817.039 1170.05 817.039H1322.85C1326.47 817.039 1329.41 814.103 1329.41 810.481V788.091C1329.41 784.469 1326.47 781.533 1322.85 781.533Z" fill="#03FC9D"/>
<path d="M1307.86 781.533H1284.63V817.039H1307.86V781.533Z" fill="#BFFEE5"/>
<path d="M1322.85 781.533H1170.05C1166.43 781.533 1163.49 784.469 1163.49 788.091V810.481C1163.49 814.103 1166.43 817.039 1170.05 817.039H1322.85C1326.47 817.039 1329.41 814.103 1329.41 810.481V788.091C1329.41 784.469 1326.47 781.533 1322.85 781.533Z" stroke="#003B2F" stroke-width="3" stroke-linecap="round" stroke-linejoin="round"/>
<path d="M1246.5 810.2V788.934" stroke="#003B2F" stroke-width="3" stroke-linecap="round" stroke-linejoin="round"/>
<path d="M1234.23 810.2V788.934" stroke="#003B2F" stroke-width="3" stroke-linecap="round" stroke-linejoin="round"/>
<path d="M1222.05 810.2V788.934" stroke="#003B2F" stroke-width="3" stroke-linecap="round" stroke-linejoin="round"/>
<path d="M1209.87 810.2V788.934" stroke="#003B2F" stroke-width="3" stroke-linecap="round" stroke-linejoin="round"/>
<path d="M1197.69 810.201V788.934" stroke="#003B2F" stroke-width="3" stroke-linecap="round" stroke-linejoin="round"/>
<path d="M1335.03 745.65H1182.23C1178.61 745.65 1175.67 748.586 1175.67 752.208V774.599C1175.67 778.221 1178.61 781.157 1182.23 781.157H1335.03C1338.65 781.157 1341.59 778.221 1341.59 774.599V752.208C1341.59 748.586 1338.65 745.65 1335.03 745.65Z" fill="#03FC9D"/>
<path d="M1320.04 745.65H1296.81V781.157H1320.04V745.65Z" fill="#BFFEE5"/>
<path d="M1335.03 745.65H1182.23C1178.61 745.65 1175.67 748.586 1175.67 752.208V774.599C1175.67 778.221 1178.61 781.157 1182.23 781.157H1335.03C1338.65 781.157 1341.59 778.221 1341.59 774.599V752.208C1341.59 748.586 1338.65 745.65 1335.03 745.65Z" stroke="#003B2F" stroke-width="3" stroke-linecap="round" stroke-linejoin="round"/>
<path d="M1258.68 774.319V753.053" stroke="#003B2F" stroke-width="3" stroke-linecap="round" stroke-linejoin="round"/>
<path d="M1246.5 774.319V753.053" stroke="#003B2F" stroke-width="3" stroke-linecap="round" stroke-linejoin="round"/>
<path d="M1234.23 774.319V753.053" stroke="#003B2F" stroke-width="3" stroke-linecap="round" stroke-linejoin="round"/>
<path d="M1222.05 774.319V753.053" stroke="#003B2F" stroke-width="3" stroke-linecap="round" stroke-linejoin="round"/>
<path d="M1209.87 774.32V753.053" stroke="#003B2F" stroke-width="3" stroke-linecap="round" stroke-linejoin="round"/>
<path d="M822.603 924.027C806.021 918.219 789.626 913.066 788.97 888.333C788.783 879.339 794.778 870.158 799.837 862.757C810.424 847.393 817.544 838.212 817.45 824.253C817.356 798.864 793.279 783.781 769.858 783.219C769.858 783.219 769.483 783.219 769.296 783.219C769.109 783.219 768.921 783.219 768.734 783.219C745.313 783.874 721.235 798.864 721.142 824.346C721.142 838.399 728.168 847.487 738.755 862.851C743.814 870.252 749.809 879.433 749.622 888.427C749.06 913.16 732.665 918.219 715.989 924.121C697.158 930.773 684.136 948.011 683.012 967.872L686.197 995.884H852.207L855.393 967.872C854.268 947.917 841.246 930.679 822.415 924.121L822.603 924.027Z" fill="#003B2F"/>
<path d="M812.578 927.682C828.786 933.396 839.56 943.327 843.869 956.537" stroke="white" stroke-width="3" stroke-linecap="round" stroke-linejoin="round"/>
<path d="M789.907 797.928C796.184 800.645 804.522 807.577 807.145 818.07" stroke="white" stroke-width="3" stroke-linecap="round" stroke-linejoin="round"/>
<path d="M686.947 968.715H850.427" stroke="white" stroke-width="3" stroke-linecap="round" stroke-linejoin="round"/>
<path d="M686.947 975.365H850.427" stroke="white" stroke-width="3" stroke-linecap="round" stroke-linejoin="round"/>
<path d="M638.8 331.182V330.059L642.203 326.375C642.875 325.659 643.409 325.07 643.805 324.608C644.213 324.145 644.51 323.732 644.697 323.369C644.884 323.006 644.978 322.62 644.978 322.213C644.978 321.541 644.78 321.024 644.383 320.66C643.987 320.297 643.464 320.115 642.814 320.115C642.153 320.115 641.592 320.308 641.129 320.693C640.667 321.068 640.348 321.602 640.171 322.295L638.701 321.915C638.844 321.255 639.109 320.682 639.494 320.198C639.88 319.713 640.359 319.339 640.931 319.074C641.504 318.81 642.131 318.678 642.814 318.678C643.563 318.678 644.218 318.827 644.78 319.124C645.352 319.41 645.798 319.812 646.118 320.33C646.448 320.847 646.613 321.447 646.613 322.13C646.613 322.582 646.52 323.022 646.332 323.452C646.145 323.881 645.87 324.338 645.507 324.823C645.143 325.296 644.67 325.847 644.086 326.474L641.047 329.778H646.877V331.182H638.8ZM653.792 331.38C652.812 331.38 651.953 331.116 651.216 330.587C650.489 330.048 649.922 329.304 649.514 328.357C649.107 327.399 648.903 326.287 648.903 325.021C648.903 323.754 649.107 322.648 649.514 321.701C649.922 320.743 650.489 319.999 651.216 319.471C651.942 318.942 652.796 318.678 653.776 318.678C654.756 318.678 655.609 318.942 656.336 319.471C657.063 319.999 657.63 320.743 658.037 321.701C658.456 322.648 658.665 323.754 658.665 325.021C658.665 326.287 658.461 327.399 658.054 328.357C657.646 329.315 657.074 330.059 656.336 330.587C655.609 331.116 654.761 331.38 653.792 331.38ZM653.792 329.877C654.453 329.877 655.026 329.679 655.51 329.282C655.995 328.875 656.369 328.308 656.633 327.581C656.909 326.854 657.046 326.001 657.046 325.021C657.046 324.041 656.909 323.187 656.633 322.461C656.369 321.734 655.989 321.172 655.494 320.776C655.009 320.379 654.436 320.181 653.776 320.181C653.115 320.181 652.542 320.379 652.058 320.776C651.573 321.172 651.193 321.734 650.918 322.461C650.654 323.187 650.522 324.041 650.522 325.021C650.522 325.99 650.654 326.838 650.918 327.564C651.193 328.291 651.573 328.858 652.058 329.266C652.553 329.673 653.132 329.877 653.792 329.877ZM665.745 331.38C664.765 331.38 663.906 331.116 663.168 330.587C662.441 330.048 661.874 329.304 661.467 328.357C661.059 327.399 660.856 326.287 660.856 325.021C660.856 323.754 661.059 322.648 661.467 321.701C661.874 320.743 662.441 319.999 663.168 319.471C663.895 318.942 664.748 318.678 665.728 318.678C666.708 318.678 667.562 318.942 668.289 319.471C669.015 319.999 669.582 320.743 669.99 321.701C670.408 322.648 670.618 323.754 670.618 325.021C670.618 326.287 670.414 327.399 670.006 328.357C669.599 329.315 669.026 330.059 668.289 330.587C667.562 331.116 666.714 331.38 665.745 331.38ZM665.745 329.877C666.406 329.877 666.978 329.679 667.463 329.282C667.947 328.875 668.322 328.308 668.586 327.581C668.861 326.854 668.999 326.001 668.999 325.021C668.999 324.041 668.861 323.187 668.586 322.461C668.322 321.734 667.942 321.172 667.446 320.776C666.962 320.379 666.389 320.181 665.728 320.181C665.068 320.181 664.495 320.379 664.011 320.776C663.526 321.172 663.146 321.734 662.871 322.461C662.607 323.187 662.474 324.041 662.474 325.021C662.474 325.99 662.607 326.838 662.871 327.564C663.146 328.291 663.526 328.858 664.011 329.266C664.506 329.673 665.084 329.877 665.745 329.877ZM676.905 331.38C676.079 331.38 675.347 331.215 674.708 330.884C674.08 330.554 673.585 330.108 673.221 329.547C672.869 328.974 672.693 328.335 672.693 327.631C672.693 326.838 672.913 326.144 673.353 325.549C673.794 324.955 674.4 324.531 675.17 324.277L675.137 324.69C674.554 324.459 674.097 324.09 673.766 323.584C673.447 323.066 673.287 322.51 673.287 321.915C673.287 321.288 673.441 320.732 673.75 320.247C674.069 319.763 674.499 319.383 675.038 319.107C675.589 318.821 676.211 318.678 676.905 318.678C677.598 318.678 678.215 318.816 678.755 319.091C679.294 319.366 679.718 319.752 680.026 320.247C680.346 320.732 680.505 321.288 680.505 321.915C680.505 322.543 680.335 323.105 679.993 323.6C679.663 324.096 679.223 324.465 678.672 324.707L678.622 324.277C679.404 324.531 680.015 324.96 680.456 325.566C680.896 326.16 681.117 326.849 681.117 327.631C681.117 328.335 680.935 328.974 680.572 329.547C680.219 330.108 679.724 330.554 679.085 330.884C678.457 331.215 677.731 331.38 676.905 331.38ZM676.905 329.976C677.422 329.976 677.874 329.877 678.259 329.679C678.645 329.48 678.942 329.205 679.151 328.853C679.371 328.489 679.481 328.076 679.481 327.614C679.481 327.14 679.371 326.728 679.151 326.375C678.942 326.012 678.645 325.737 678.259 325.549C677.874 325.351 677.422 325.252 676.905 325.252C676.387 325.252 675.93 325.351 675.534 325.549C675.148 325.737 674.851 326.012 674.642 326.375C674.433 326.728 674.328 327.14 674.328 327.614C674.328 328.076 674.433 328.489 674.642 328.853C674.851 329.205 675.148 329.48 675.534 329.679C675.93 329.877 676.387 329.976 676.905 329.976ZM676.905 323.848C677.279 323.848 677.609 323.765 677.896 323.6C678.193 323.435 678.43 323.215 678.606 322.94C678.782 322.653 678.87 322.323 678.87 321.948C678.87 321.574 678.782 321.249 678.606 320.974C678.43 320.699 678.193 320.484 677.896 320.33C677.609 320.165 677.279 320.082 676.905 320.082C676.519 320.082 676.178 320.165 675.881 320.33C675.583 320.484 675.347 320.699 675.17 320.974C674.994 321.249 674.906 321.574 674.906 321.948C674.906 322.323 674.994 322.653 675.17 322.94C675.347 323.215 675.583 323.435 675.881 323.6C676.178 323.765 676.519 323.848 676.905 323.848Z" fill="#003B2F"/>
<path d="M502.702 670.526V667.982L510.41 659.639C511.931 658.017 513.141 656.683 514.039 655.635C514.962 654.588 515.635 653.652 516.059 652.829C516.483 652.006 516.695 651.133 516.695 650.21C516.695 648.689 516.246 647.516 515.348 646.693C514.451 645.87 513.266 645.458 511.794 645.458C510.297 645.458 509.025 645.895 507.978 646.768C506.93 647.616 506.207 648.826 505.808 650.397L502.478 649.537C502.802 648.04 503.401 646.743 504.274 645.646C505.147 644.548 506.232 643.7 507.529 643.101C508.826 642.503 510.248 642.203 511.794 642.203C513.49 642.203 514.974 642.54 516.246 643.214C517.543 643.862 518.554 644.773 519.277 645.945C520.025 647.117 520.399 648.477 520.399 650.023C520.399 651.046 520.187 652.043 519.763 653.016C519.339 653.989 518.716 655.024 517.893 656.122C517.07 657.194 515.997 658.441 514.675 659.863L507.791 667.346H520.998V670.526H502.702ZM536.661 670.975C534.441 670.975 532.496 670.377 530.824 669.179C529.178 667.957 527.894 666.274 526.971 664.128C526.048 661.958 525.586 659.439 525.586 656.571C525.586 653.702 526.048 651.195 526.971 649.05C527.894 646.88 529.178 645.197 530.824 643.999C532.471 642.802 534.404 642.203 536.624 642.203C538.844 642.203 540.777 642.802 542.423 643.999C544.069 645.197 545.354 646.88 546.277 649.05C547.225 651.195 547.698 653.702 547.698 656.571C547.698 659.439 547.237 661.958 546.314 664.128C545.391 666.298 544.094 667.982 542.423 669.179C540.777 670.377 538.856 670.975 536.661 670.975ZM536.661 667.571C538.158 667.571 539.455 667.122 540.552 666.224C541.65 665.301 542.498 664.016 543.096 662.37C543.72 660.724 544.032 658.791 544.032 656.571C544.032 654.351 543.72 652.418 543.096 650.771C542.498 649.125 541.637 647.853 540.515 646.955C539.417 646.057 538.12 645.608 536.624 645.608C535.127 645.608 533.83 646.057 532.733 646.955C531.635 647.853 530.775 649.125 530.151 650.771C529.552 652.418 529.253 654.351 529.253 656.571C529.253 658.766 529.552 660.686 530.151 662.333C530.775 663.979 531.635 665.263 532.733 666.186C533.855 667.109 535.165 667.571 536.661 667.571ZM552.174 670.526V667.982L559.882 659.639C561.403 658.017 562.613 656.683 563.511 655.635C564.434 654.588 565.108 653.652 565.532 652.829C565.956 652.006 566.168 651.133 566.168 650.21C566.168 648.689 565.719 647.516 564.821 646.693C563.923 645.87 562.738 645.458 561.266 645.458C559.77 645.458 558.498 645.895 557.45 646.768C556.402 647.616 555.679 648.826 555.28 650.397L551.95 649.537C552.274 648.04 552.873 646.743 553.746 645.646C554.619 644.548 555.704 643.7 557.001 643.101C558.298 642.503 559.72 642.203 561.266 642.203C562.962 642.203 564.447 642.54 565.719 643.214C567.016 643.862 568.026 644.773 568.749 645.945C569.498 647.117 569.872 648.477 569.872 650.023C569.872 651.046 569.66 652.043 569.236 653.016C568.812 653.989 568.188 655.024 567.365 656.122C566.542 657.194 565.469 658.441 564.147 659.863L557.263 667.346H570.47V670.526H552.174ZM587.489 670.526V664.091H573.795V661.06L587.414 642.652H590.931V661.06H594.56V664.091H590.931V670.526H587.489ZM576.564 662.37L576.04 661.06H587.489V645.72L588.574 646.02L576.564 662.37Z" fill="#003B2F"/>
<path d="M490.424 651.043L485.755 662.706" stroke="white" stroke-width="3" stroke-linecap="round" stroke-linejoin="round"/>
<path d="M482.326 671.273L477.677 682.885" stroke="white" stroke-width="3" stroke-linecap="round" stroke-linejoin="round"/>
<path d="M468.093 660.605L479.757 665.274" stroke="white" stroke-width="3" stroke-linecap="round" stroke-linejoin="round"/>
<path d="M488.272 668.684L499.936 673.353" stroke="white" stroke-width="3" stroke-linecap="round" stroke-linejoin="round"/>
<path d="M544.507 465.955V464.249L549.675 458.654C550.695 457.567 551.507 456.672 552.109 455.969C552.728 455.267 553.179 454.64 553.463 454.088C553.748 453.536 553.89 452.95 553.89 452.332C553.89 451.311 553.589 450.525 552.987 449.973C552.385 449.421 551.59 449.145 550.603 449.145C549.6 449.145 548.747 449.438 548.044 450.023C547.342 450.592 546.857 451.403 546.589 452.457L544.356 451.88C544.574 450.876 544.975 450.007 545.561 449.271C546.146 448.535 546.874 447.966 547.743 447.565C548.613 447.163 549.566 446.963 550.603 446.963C551.741 446.963 552.736 447.188 553.589 447.64C554.459 448.075 555.136 448.685 555.621 449.472C556.123 450.258 556.374 451.169 556.374 452.206C556.374 452.892 556.232 453.561 555.947 454.213C555.663 454.866 555.245 455.56 554.693 456.296C554.141 457.015 553.422 457.851 552.535 458.804L547.919 463.822H556.775V465.955H544.507ZM567.278 466.256C565.789 466.256 564.485 465.854 563.364 465.051C562.26 464.232 561.399 463.103 560.78 461.664C560.161 460.209 559.852 458.52 559.852 456.597C559.852 454.673 560.161 452.992 560.78 451.554C561.399 450.099 562.26 448.97 563.364 448.167C564.468 447.364 565.764 446.963 567.253 446.963C568.741 446.963 570.038 447.364 571.142 448.167C572.245 448.97 573.107 450.099 573.726 451.554C574.361 452.992 574.679 454.673 574.679 456.597C574.679 458.52 574.37 460.209 573.751 461.664C573.132 463.12 572.262 464.249 571.142 465.051C570.038 465.854 568.75 466.256 567.278 466.256ZM567.278 463.973C568.281 463.973 569.151 463.672 569.887 463.069C570.623 462.451 571.192 461.589 571.593 460.485C572.011 459.381 572.22 458.085 572.22 456.597C572.22 455.108 572.011 453.812 571.593 452.708C571.192 451.604 570.615 450.751 569.862 450.149C569.126 449.547 568.256 449.246 567.253 449.246C566.249 449.246 565.38 449.547 564.644 450.149C563.908 450.751 563.331 451.604 562.913 452.708C562.511 453.812 562.31 455.108 562.31 456.597C562.31 458.068 562.511 459.356 562.913 460.46C563.331 461.564 563.908 462.426 564.644 463.044C565.396 463.663 566.274 463.973 567.278 463.973ZM580.791 465.955V449.396H577.254V447.264H583.275V465.955H580.791ZM593.212 466.256C592.008 466.256 590.937 465.988 590.001 465.453C589.081 464.918 588.353 464.19 587.818 463.27C587.283 462.334 587.015 461.271 587.015 460.084C587.015 459.432 587.09 458.788 587.241 458.152C587.391 457.517 587.634 456.873 587.968 456.22C588.303 455.568 588.729 454.891 589.248 454.188L594.517 447.264H597.477L591.029 455.643L590.578 455.593C590.829 455.259 591.105 454.999 591.406 454.815C591.723 454.631 592.058 454.498 592.409 454.414C592.777 454.33 593.162 454.288 593.563 454.288C594.667 454.288 595.654 454.548 596.524 455.066C597.41 455.568 598.104 456.262 598.606 457.149C599.124 458.035 599.384 459.055 599.384 460.209C599.384 461.363 599.116 462.4 598.581 463.32C598.046 464.224 597.31 464.943 596.373 465.478C595.453 465.996 594.399 466.256 593.212 466.256ZM593.212 464.048C593.914 464.048 594.542 463.889 595.094 463.571C595.646 463.237 596.08 462.777 596.398 462.191C596.733 461.606 596.9 460.954 596.9 460.234C596.9 459.482 596.741 458.83 596.423 458.278C596.105 457.709 595.671 457.257 595.119 456.923C594.567 456.588 593.931 456.421 593.212 456.421C592.509 456.421 591.874 456.588 591.305 456.923C590.737 457.257 590.293 457.709 589.976 458.278C589.658 458.83 589.499 459.482 589.499 460.234C589.499 460.954 589.658 461.606 589.976 462.191C590.31 462.777 590.753 463.237 591.305 463.571C591.874 463.889 592.509 464.048 593.212 464.048Z" fill="#003B2F"/>
<path d="M1533.79 659.894L1519.43 645.529L1505.06 659.894L1519.43 674.26L1533.79 659.894Z" stroke="#003B2F" stroke-width="3" stroke-linecap="round" stroke-linejoin="round"/>
<path d="M360.637 937.463H328.435C338.662 937.463 346.885 929.931 346.885 920.671C346.885 911.411 338.593 903.879 328.435 903.879H235.908C225.681 903.879 217.458 911.411 217.458 920.671H189.057C178.83 920.671 170.607 928.203 170.607 937.463C170.607 946.722 178.899 954.254 189.057 954.254H249.659C249.659 963.514 257.951 971.046 268.109 971.046H360.637C370.864 971.046 379.087 963.514 379.087 954.254C379.087 944.995 370.795 937.463 360.637 937.463Z" fill="#E6E8EA"/>
<path d="M304.388 925.508H327.468" stroke="#003B2F" stroke-width="3" stroke-linecap="round" stroke-linejoin="round"/>
<path d="M271.011 864.076H438.238" stroke="#03FC9D" stroke-width="3" stroke-linecap="round" stroke-linejoin="round"/>
<path d="M357.32 925.439H450.814" stroke="#003B2F" stroke-width="3" stroke-linecap="round" stroke-linejoin="round"/>
<path d="M405.931 480.54C412.533 480.54 417.885 475.188 417.885 468.586C417.885 461.984 412.533 456.631 405.931 456.631C399.328 456.631 393.976 461.984 393.976 468.586C393.976 475.188 399.328 480.54 405.931 480.54Z" stroke="#003B2F" stroke-width="3" stroke-linecap="round" stroke-linejoin="round"/>
<path d="M204.26 328.291H181.192" stroke="#03FC9D" stroke-width="3" stroke-linecap="round" stroke-linejoin="round"/>
<path d="M300.673 368.094H133.873" stroke="#003B2F" stroke-width="3" stroke-linecap="round" stroke-linejoin="round"/>
<path d="M151.421 328.43H58.1631" stroke="#03FC9D" stroke-width="3" stroke-linecap="round" stroke-linejoin="round"/>
<path d="M683.047 538.885V554.502" stroke="#003B2F" stroke-width="3" stroke-linecap="round" stroke-linejoin="round"/>
<path d="M683.047 565.971V581.519" stroke="#003B2F" stroke-width="3" stroke-linecap="round" stroke-linejoin="round"/>
<path d="M661.694 560.236H677.311" stroke="#003B2F" stroke-width="3" stroke-linecap="round" stroke-linejoin="round"/>
<path d="M688.713 560.236H704.33" stroke="#003B2F" stroke-width="3" stroke-linecap="round" stroke-linejoin="round"/>
<path d="M638.886 111.949L655.609 121.554" stroke="#003B2F" stroke-width="3" stroke-linecap="round" stroke-linejoin="round"/>
<path d="M672.332 111.949L662.519 117.616" stroke="#003B2F" stroke-width="3" stroke-linecap="round" stroke-linejoin="round"/>
<path d="M655.609 121.555V141.111" stroke="#003B2F" stroke-width="3" stroke-linecap="round" stroke-linejoin="round"/>
<path d="M887.417 781.851L902.811 801.128L944.971 753.42" stroke="#003B2F" stroke-width="3" stroke-linecap="round" stroke-linejoin="round"/>
<mask id="mask0_156_1071" style="mask-type:luminance" maskUnits="userSpaceOnUse" x="111" y="482" width="200" height="199">
<path d="M286.717 482.02L111.788 506.013L135.781 680.942L310.71 656.949L286.717 482.02Z" fill="white"/>
</mask>
<g mask="url(#mask0_156_1071)">
<path d="M223.286 668.955C271.604 662.324 305.387 617.795 298.755 569.478C292.123 521.16 247.595 487.377 199.277 494.009C150.959 500.641 117.177 545.169 123.809 593.487C130.44 641.805 174.969 675.587 223.286 668.955Z" fill="#03FC9D"/>
</g>
<path fill-rule="evenodd" clip-rule="evenodd" d="M399.822 208.812C414.856 175.229 454.273 160.17 487.881 175.229C521.465 190.263 536.523 229.68 521.465 263.288C506.431 296.871 467.014 311.93 433.406 296.871C399.798 281.812 384.764 242.42 399.822 208.812Z" fill="#03FC9D"/>
<path d="M469.806 256.084L467.063 253.042C466.764 252.718 466.365 252.518 465.941 252.493C465.517 252.468 465.069 252.593 464.745 252.867C461.678 255.385 458.063 256.258 454.498 254.662C451.281 253.216 449.412 250.499 448.838 246.46C448.614 244.889 448.614 243.269 448.813 241.548L458.013 245.662C458.586 245.911 459.284 245.837 459.783 245.438L463.299 243.493C463.523 243.318 463.697 243.069 463.797 242.82C463.897 242.546 463.947 242.271 463.897 241.972C463.847 241.698 463.747 241.424 463.573 241.174C463.398 240.95 463.174 240.75 462.9 240.651L450.459 235.091C450.708 234.418 450.982 233.77 451.256 233.121C451.531 232.473 451.855 231.825 452.179 231.202L462.426 235.789C462.999 236.063 463.697 235.964 464.171 235.565L467.687 233.62C467.911 233.445 468.085 233.196 468.185 232.947C468.285 232.673 468.335 232.398 468.285 232.099C468.235 231.825 468.135 231.551 467.961 231.301C467.786 231.077 467.562 230.877 467.288 230.778L455.869 225.667C459.958 221.029 465.019 219.035 469.482 221.129C472.897 222.65 474.717 225.692 475.066 229.506C475.141 230.354 475.889 231.002 476.737 231.002H480.85C481.848 231.052 482.621 230.204 482.546 229.232C481.922 222.126 478.557 217.19 472.448 214.447C466.889 211.954 461.454 212.154 456.118 214.996C453.002 216.666 450.259 219.06 447.916 222.126L442.904 219.883C442.331 219.633 441.633 219.708 441.134 220.107L437.619 222.052C437.394 222.226 437.22 222.475 437.12 222.725C437.02 222.999 436.97 223.273 437.02 223.572C437.07 223.847 437.17 224.121 437.344 224.37C437.519 224.595 437.743 224.794 438.018 224.894L444.4 227.736C443.752 229.008 443.154 230.279 442.63 231.6L438.466 229.731C437.893 229.481 437.195 229.556 436.696 229.955L433.181 231.9C432.957 232.074 432.782 232.324 432.682 232.573C432.583 232.847 432.533 233.121 432.583 233.421C432.632 233.695 432.732 233.969 432.907 234.218C433.081 234.443 433.306 234.642 433.58 234.742L440.76 237.958C438.865 248.28 442.58 257.579 451.406 261.369C457.639 264.161 463.697 263.189 469.581 258.477C469.756 258.327 469.905 258.153 470.005 257.953C470.105 257.754 470.18 257.53 470.18 257.305C470.18 257.081 470.18 256.856 470.08 256.632C470.005 256.408 469.881 256.208 469.731 256.034L469.806 256.084Z" fill="#003B2F"/>
<path d="M417 242.245C415.729 233.42 417.1 224.095 421.613 215.494C431.86 195.972 455.271 186.997 475.939 194.676C486.809 198.715 495.037 206.493 499.849 215.917C500.073 216.366 500.447 216.715 500.921 216.89C501.37 217.089 501.893 217.114 502.367 216.965L506.506 215.643C507.727 215.244 508.325 213.848 507.777 212.701C502.242 201.482 492.693 192.182 480.078 187.146C455.046 177.173 426.175 187.994 413.884 211.978C408.574 222.35 407.028 233.594 408.698 244.19C408.898 245.462 410.194 246.234 411.416 245.861L415.554 244.539C416.028 244.39 416.427 244.09 416.701 243.667C416.976 243.243 417.075 242.744 417 242.245ZM504.312 229.854C505.583 238.68 504.187 248.005 499.674 256.606C489.427 276.128 466.016 285.103 445.348 277.424C434.478 273.385 426.25 265.606 421.413 256.182C421.189 255.734 420.815 255.384 420.341 255.21C419.892 255.01 419.369 254.986 418.895 255.135L414.757 256.457C413.535 256.855 412.937 258.252 413.485 259.398C419.02 270.618 428.569 279.917 441.184 284.954C466.241 294.926 495.087 284.106 507.378 260.121C512.689 249.75 514.234 238.506 512.564 227.91C512.365 226.638 511.068 225.865 509.846 226.239L505.708 227.561C505.234 227.71 504.835 228.034 504.561 228.433C504.287 228.857 504.187 229.356 504.262 229.854H504.312Z" fill="#003B2F"/>
<mask id="mask1_156_1071" style="mask-type:luminance" maskUnits="userSpaceOnUse" x="1596" y="594" width="184" height="184">
<path d="M1637.88 594.256L1596.08 735.472L1737.29 777.276L1779.1 636.059L1637.88 594.256Z" fill="white"/>
</mask>
<g mask="url(#mask1_156_1071)">
<path d="M1666.71 756.423C1705.7 767.957 1746.67 745.702 1758.2 706.715C1769.74 667.727 1747.48 626.758 1708.49 615.225C1669.51 603.691 1628.54 625.946 1617 664.933C1605.47 703.92 1627.73 744.889 1666.71 756.423Z" fill="#03FC9D"/>
<path d="M1652.35 695.474C1653.07 695.084 1653.88 695.018 1654.63 695.246L1725.03 716.104C1726.3 716.494 1726.49 718.216 1725.32 718.865L1707.29 728.646C1706.61 729.035 1705.77 729.099 1705.02 728.872L1634.61 708.014C1634.32 707.916 1634.06 707.754 1633.9 707.527C1633.74 707.299 1633.57 707.007 1633.57 706.714C1633.54 706.422 1633.57 706.129 1633.74 705.87C1633.87 705.61 1634.09 705.382 1634.35 705.252L1652.39 695.474H1652.35Z" fill="#003B2F"/>
<path d="M1668.05 642.514C1668.76 642.124 1669.57 642.059 1670.32 642.287L1740.72 663.145C1741.99 663.535 1742.19 665.257 1741.02 665.907L1722.98 675.686C1722.3 676.076 1721.46 676.141 1720.71 675.913L1650.31 655.055C1650.01 654.958 1649.75 654.795 1649.59 654.568C1649.4 654.34 1649.3 654.048 1649.27 653.756C1649.27 653.463 1649.27 653.171 1649.43 652.911C1649.56 652.651 1649.79 652.424 1650.05 652.294L1668.08 642.514H1668.05Z" fill="#003B2F"/>
<path d="M1719.74 686.636C1719.35 685.954 1718.73 685.434 1717.95 685.207L1647.54 664.349C1647.25 664.251 1646.96 664.284 1646.67 664.349C1646.37 664.446 1646.15 664.608 1645.95 664.836C1645.76 665.063 1645.66 665.356 1645.63 665.648C1645.63 665.94 1645.66 666.233 1645.79 666.493L1655.57 684.524C1655.76 684.882 1656.02 685.174 1656.32 685.434C1656.61 685.694 1656.97 685.856 1657.36 685.986L1727.76 706.845C1729.03 707.234 1730.13 705.87 1729.52 704.7L1719.7 686.669L1719.74 686.636Z" fill="#003B2F"/>
</g>
<mask id="path-210-outside-1_156_1071" maskUnits="userSpaceOnUse" x="875.515" y="329.059" width="46" height="27" fill="black">
<rect fill="white" x="875.515" y="329.059" width="46" height="27"/>
<path d="M876.515 330.059C876.606 330.152 876.767 330.238 876.779 330.341C876.893 331.34 877.518 332.012 878.278 332.549C885.252 337.481 892.227 342.411 899.227 347.307C900.917 348.489 902.258 348.421 903.926 347.248C907.738 344.569 911.547 341.885 915.351 339.193C917.507 337.668 919.08 335.684 919.903 333.172C920.19 332.295 920.3 331.361 920.421 330.789C920.421 332.977 920.583 335.514 920.38 338.022C920.128 341.114 918.57 343.663 916.082 345.499C911.936 348.557 907.709 351.507 903.48 354.45C902.105 355.407 900.648 355.157 899.301 354.282C897.919 353.385 896.548 352.469 895.205 351.517C889.637 347.571 884.083 343.607 878.519 339.655C877.566 338.978 876.813 338.178 876.644 336.968C876.648 335.002 876.655 333.035 876.649 331.069C876.649 330.92 876.562 330.771 876.515 330.621C876.515 330.434 876.515 330.246 876.515 330.059Z"/>
</mask>
<path d="M876.515 330.059C876.606 330.152 876.767 330.238 876.779 330.341C876.893 331.34 877.518 332.012 878.278 332.549C885.252 337.481 892.227 342.411 899.227 347.307C900.917 348.489 902.258 348.421 903.926 347.248C907.738 344.569 911.547 341.885 915.351 339.193C917.507 337.668 919.08 335.684 919.903 333.172C920.19 332.295 920.3 331.361 920.421 330.789C920.421 332.977 920.583 335.514 920.38 338.022C920.128 341.114 918.57 343.663 916.082 345.499C911.936 348.557 907.709 351.507 903.48 354.45C902.105 355.407 900.648 355.157 899.301 354.282C897.919 353.385 896.548 352.469 895.205 351.517C889.637 347.571 884.083 343.607 878.519 339.655C877.566 338.978 876.813 338.178 876.644 336.968C876.648 335.002 876.655 333.035 876.649 331.069C876.649 330.92 876.562 330.771 876.515 330.621C876.515 330.434 876.515 330.246 876.515 330.059Z" fill="#003B2F"/>
<path d="M876.515 330.059C876.606 330.152 876.767 330.238 876.779 330.341C876.893 331.34 877.518 332.012 878.278 332.549C885.252 337.481 892.227 342.411 899.227 347.307C900.917 348.489 902.258 348.421 903.926 347.248C907.738 344.569 911.547 341.885 915.351 339.193C917.507 337.668 919.08 335.684 919.903 333.172C920.19 332.295 920.3 331.361 920.421 330.789C920.421 332.977 920.583 335.514 920.38 338.022C920.128 341.114 918.57 343.663 916.082 345.499C911.936 348.557 907.709 351.507 903.48 354.45C902.105 355.407 900.648 355.157 899.301 354.282C897.919 353.385 896.548 352.469 895.205 351.517C889.637 347.571 884.083 343.607 878.519 339.655C877.566 338.978 876.813 338.178 876.644 336.968C876.648 335.002 876.655 333.035 876.649 331.069C876.649 330.92 876.562 330.771 876.515 330.621C876.515 330.434 876.515 330.246 876.515 330.059Z" stroke="#003B2F" stroke-width="0.4" stroke-linejoin="round" mask="url(#path-210-outside-1_156_1071)"/>
<mask id="path-211-outside-2_156_1071" maskUnits="userSpaceOnUse" x="875" y="328.512" width="47" height="28" fill="black">
<rect fill="white" x="875" y="328.512" width="47" height="28"/>
<path fill-rule="evenodd" clip-rule="evenodd" d="M876.318 329.55C876.511 329.471 876.732 329.517 876.877 329.665C876.877 329.665 876.877 329.665 876.877 329.665C876.877 329.665 876.879 329.667 876.885 329.672C876.892 329.678 876.9 329.685 876.912 329.695C876.916 329.698 876.921 329.702 876.927 329.706C876.948 329.724 876.981 329.75 877.009 329.774C877.045 329.806 877.1 329.856 877.15 329.922C877.2 329.988 877.267 330.098 877.284 330.247C877.375 331.036 877.861 331.594 878.57 332.096C885.544 337.028 892.519 341.957 899.517 346.852C900.308 347.405 900.96 347.627 901.571 347.614C902.186 347.601 902.84 347.349 903.629 346.795C907.441 344.115 911.249 341.431 915.052 338.741C917.13 337.271 918.629 335.374 919.414 332.977C919.608 332.385 919.711 331.792 919.802 331.269C919.841 331.047 919.877 330.838 919.917 330.648C919.971 330.391 920.211 330.217 920.471 330.244C920.732 330.272 920.93 330.491 920.93 330.753C920.93 331.384 920.944 332.054 920.959 332.75C920.994 334.42 921.032 336.24 920.887 338.028C920.622 341.283 918.978 343.962 916.382 345.876C912.231 348.939 907.998 351.892 903.769 354.835C902.988 355.379 902.163 355.59 901.339 355.528C900.525 355.468 899.741 355.145 899.019 354.676C897.634 353.777 896.257 352.857 894.906 351.899C891.605 349.56 888.308 347.214 885.012 344.868C882.748 343.257 880.484 341.646 878.22 340.037C877.219 339.326 876.332 338.418 876.134 337.004C876.131 336.98 876.129 336.956 876.129 336.932C876.13 336.538 876.131 336.144 876.132 335.751C876.135 334.181 876.139 332.612 876.135 331.043C876.134 331.039 876.13 331.022 876.117 330.989C876.109 330.968 876.102 330.949 876.092 330.924C876.087 330.913 876.083 330.901 876.077 330.887C876.061 330.847 876.041 330.796 876.024 330.74C876.008 330.69 876 330.638 876 330.586V330.023C876 329.816 876.126 329.628 876.318 329.55ZM903.923 347.213C902.255 348.386 900.914 348.454 899.224 347.272C892.224 342.376 885.249 337.445 878.275 332.513C877.833 332.2 877.436 331.843 877.159 331.4C877.086 331.284 877.022 331.162 876.967 331.033C876.967 331.033 876.967 331.033 876.967 331.033C876.907 330.892 876.858 330.744 876.823 330.586C876.816 330.556 876.81 330.525 876.804 330.494C876.793 330.433 876.783 330.37 876.776 330.305C876.768 330.235 876.69 330.173 876.613 330.111C876.577 330.082 876.541 330.053 876.512 330.023V330.586C876.527 330.634 876.546 330.681 876.565 330.728C876.605 330.83 876.646 330.932 876.647 331.034C876.647 331.203 876.647 331.372 876.648 331.542C876.65 332.945 876.647 334.349 876.643 335.753C876.642 336.146 876.641 336.539 876.641 336.933C876.81 338.143 877.563 338.943 878.516 339.62C880.782 341.229 883.046 342.841 885.31 344.452C888.606 346.797 891.901 349.143 895.202 351.482C896.545 352.434 897.916 353.35 899.298 354.247C900.645 355.122 902.102 355.372 903.477 354.415C907.706 351.472 911.933 348.522 916.079 345.464C918.567 343.628 920.125 341.079 920.377 337.987C920.512 336.328 920.486 334.655 920.453 333.08C920.451 332.983 920.449 332.887 920.447 332.791C920.433 332.088 920.418 331.405 920.418 330.753C920.384 330.915 920.351 331.106 920.314 331.315C920.227 331.813 920.121 332.42 919.94 333.011C919.927 333.053 919.914 333.095 919.9 333.137C919.077 335.649 917.504 337.632 915.348 339.158C911.544 341.85 907.735 344.534 903.923 347.213Z"/>
</mask>
<path fill-rule="evenodd" clip-rule="evenodd" d="M876.318 329.55C876.511 329.471 876.732 329.517 876.877 329.665C876.877 329.665 876.877 329.665 876.877 329.665C876.877 329.665 876.879 329.667 876.885 329.672C876.892 329.678 876.9 329.685 876.912 329.695C876.916 329.698 876.921 329.702 876.927 329.706C876.948 329.724 876.981 329.75 877.009 329.774C877.045 329.806 877.1 329.856 877.15 329.922C877.2 329.988 877.267 330.098 877.284 330.247C877.375 331.036 877.861 331.594 878.57 332.096C885.544 337.028 892.519 341.957 899.517 346.852C900.308 347.405 900.96 347.627 901.571 347.614C902.186 347.601 902.84 347.349 903.629 346.795C907.441 344.115 911.249 341.431 915.052 338.741C917.13 337.271 918.629 335.374 919.414 332.977C919.608 332.385 919.711 331.792 919.802 331.269C919.841 331.047 919.877 330.838 919.917 330.648C919.971 330.391 920.211 330.217 920.471 330.244C920.732 330.272 920.93 330.491 920.93 330.753C920.93 331.384 920.944 332.054 920.959 332.75C920.994 334.42 921.032 336.24 920.887 338.028C920.622 341.283 918.978 343.962 916.382 345.876C912.231 348.939 907.998 351.892 903.769 354.835C902.988 355.379 902.163 355.59 901.339 355.528C900.525 355.468 899.741 355.145 899.019 354.676C897.634 353.777 896.257 352.857 894.906 351.899C891.605 349.56 888.308 347.214 885.012 344.868C882.748 343.257 880.484 341.646 878.22 340.037C877.219 339.326 876.332 338.418 876.134 337.004C876.131 336.98 876.129 336.956 876.129 336.932C876.13 336.538 876.131 336.144 876.132 335.751C876.135 334.181 876.139 332.612 876.135 331.043C876.134 331.039 876.13 331.022 876.117 330.989C876.109 330.968 876.102 330.949 876.092 330.924C876.087 330.913 876.083 330.901 876.077 330.887C876.061 330.847 876.041 330.796 876.024 330.74C876.008 330.69 876 330.638 876 330.586V330.023C876 329.816 876.126 329.628 876.318 329.55ZM903.923 347.213C902.255 348.386 900.914 348.454 899.224 347.272C892.224 342.376 885.249 337.445 878.275 332.513C877.833 332.2 877.436 331.843 877.159 331.4C877.086 331.284 877.022 331.162 876.967 331.033C876.967 331.033 876.967 331.033 876.967 331.033C876.907 330.892 876.858 330.744 876.823 330.586C876.816 330.556 876.81 330.525 876.804 330.494C876.793 330.433 876.783 330.37 876.776 330.305C876.768 330.235 876.69 330.173 876.613 330.111C876.577 330.082 876.541 330.053 876.512 330.023V330.586C876.527 330.634 876.546 330.681 876.565 330.728C876.605 330.83 876.646 330.932 876.647 331.034C876.647 331.203 876.647 331.372 876.648 331.542C876.65 332.945 876.647 334.349 876.643 335.753C876.642 336.146 876.641 336.539 876.641 336.933C876.81 338.143 877.563 338.943 878.516 339.62C880.782 341.229 883.046 342.841 885.31 344.452C888.606 346.797 891.901 349.143 895.202 351.482C896.545 352.434 897.916 353.35 899.298 354.247C900.645 355.122 902.102 355.372 903.477 354.415C907.706 351.472 911.933 348.522 916.079 345.464C918.567 343.628 920.125 341.079 920.377 337.987C920.512 336.328 920.486 334.655 920.453 333.08C920.451 332.983 920.449 332.887 920.447 332.791C920.433 332.088 920.418 331.405 920.418 330.753C920.384 330.915 920.351 331.106 920.314 331.315C920.227 331.813 920.121 332.42 919.94 333.011C919.927 333.053 919.914 333.095 919.9 333.137C919.077 335.649 917.504 337.632 915.348 339.158C911.544 341.85 907.735 344.534 903.923 347.213Z" fill="#003B2F"/>
<path d="M878.357 332.571L878.652 332.154L878.489 332.038L878.193 332.455L878.357 332.571ZM876.877 329.665L877.019 329.807L877.02 329.806L876.877 329.665ZM876.318 329.55L876.394 329.735L876.394 329.735L876.318 329.55ZM876.885 329.672L876.754 329.823L876.754 329.823L876.885 329.672ZM876.912 329.695L876.786 329.85L876.786 329.85L876.912 329.695ZM876.927 329.706L877.052 329.55L877.052 329.55L876.927 329.706ZM877.009 329.774L876.878 329.925L876.878 329.925L877.009 329.774ZM877.15 329.922L876.991 330.043L876.991 330.043L877.15 329.922ZM877.284 330.247L877.483 330.224L877.483 330.224L877.284 330.247ZM878.57 332.096L878.455 332.259L878.455 332.259L878.57 332.096ZM878.275 332.513L878.16 332.677L878.16 332.677L878.275 332.513ZM899.517 346.852L899.632 346.688L899.632 346.688L899.517 346.852ZM901.571 347.614L901.575 347.814L901.575 347.814L901.571 347.614ZM903.629 346.795L903.744 346.958L903.744 346.958L903.629 346.795ZM915.052 338.741L915.168 338.904L915.168 338.904L915.052 338.741ZM919.414 332.977L919.224 332.915L919.224 332.915L919.414 332.977ZM919.802 331.269L919.999 331.304L919.999 331.304L919.802 331.269ZM919.917 330.648L920.113 330.689L920.113 330.689L919.917 330.648ZM920.471 330.244L920.45 330.443L920.45 330.443L920.471 330.244ZM920.959 332.75L920.759 332.755L920.759 332.755L920.959 332.75ZM920.887 338.028L920.687 338.012L920.687 338.012L920.887 338.028ZM916.382 345.876L916.264 345.715L916.264 345.715L916.382 345.876ZM903.769 354.835L903.655 354.671L903.655 354.671L903.769 354.835ZM901.339 355.528L901.354 355.329L901.354 355.329L901.339 355.528ZM899.019 354.676L898.91 354.844L898.91 354.844L899.019 354.676ZM894.906 351.899L894.79 352.062L894.79 352.062L894.906 351.899ZM885.012 344.868L884.896 345.031L884.896 345.031L885.012 344.868ZM878.22 340.037L878.104 340.2L878.104 340.2L878.22 340.037ZM876.134 337.004L876.332 336.976L876.332 336.976L876.134 337.004ZM876.129 336.932L876.329 336.932L876.329 336.932L876.129 336.932ZM876.132 335.751L875.932 335.75L875.932 335.75L876.132 335.751ZM876.135 331.043L876.335 331.043C876.335 331.027 876.333 331.011 876.329 330.996L876.135 331.043ZM876.117 330.989L876.304 330.919L876.304 330.919L876.117 330.989ZM876.092 330.924L876.277 330.85L876.277 330.85L876.092 330.924ZM876.077 330.887L875.891 330.961L875.891 330.961L876.077 330.887ZM876.024 330.74L876.214 330.68L876.214 330.68L876.024 330.74ZM899.224 347.272L899.338 347.108L899.338 347.108L899.224 347.272ZM903.923 347.213L904.038 347.377L904.038 347.377L903.923 347.213ZM877.159 331.4L876.99 331.507L876.99 331.507L877.159 331.4ZM876.823 330.586L876.628 330.63L876.628 330.63L876.823 330.586ZM876.804 330.494L876.608 330.531L876.608 330.531L876.804 330.494ZM876.776 330.305L876.975 330.283L876.975 330.283L876.776 330.305ZM876.613 330.111L876.488 330.267L876.488 330.267L876.613 330.111ZM876.512 330.023L876.655 329.883C876.598 329.825 876.511 329.808 876.436 329.838C876.361 329.869 876.312 329.942 876.312 330.023H876.512ZM876.512 330.586H876.312C876.312 330.607 876.315 330.627 876.321 330.646L876.512 330.586ZM876.565 330.728L876.379 330.803L876.379 330.803L876.565 330.728ZM876.647 331.034L876.447 331.034L876.447 331.034L876.647 331.034ZM876.648 331.542L876.848 331.541L876.648 331.542ZM876.643 335.753L876.843 335.753L876.643 335.753ZM876.641 336.933L876.441 336.932C876.441 336.942 876.441 336.951 876.443 336.96L876.641 336.933ZM878.516 339.62L878.4 339.783L878.4 339.783L878.516 339.62ZM885.31 344.452L885.426 344.289L885.426 344.289L885.31 344.452ZM895.202 351.482L895.086 351.645L895.086 351.645L895.202 351.482ZM899.298 354.247L899.189 354.415L899.189 354.415L899.298 354.247ZM903.477 354.415L903.363 354.251L903.363 354.251L903.477 354.415ZM916.079 345.464L915.96 345.303L915.96 345.303L916.079 345.464ZM920.377 337.987L920.177 337.971L920.177 337.971L920.377 337.987ZM920.453 333.08L920.253 333.084L920.253 333.084L920.453 333.08ZM920.447 332.791L920.647 332.787L920.647 332.787L920.447 332.791ZM920.418 330.753H920.618C920.618 330.651 920.541 330.565 920.439 330.555C920.337 330.544 920.244 330.612 920.222 330.712L920.418 330.753ZM920.314 331.315L920.117 331.281L920.117 331.281L920.314 331.315ZM919.94 333.011L920.131 333.069L920.131 333.069L919.94 333.011ZM919.9 333.137L919.71 333.074L919.71 333.074L919.9 333.137ZM915.348 339.158L915.463 339.322L915.463 339.322L915.348 339.158ZM877.02 329.525C876.818 329.319 876.51 329.255 876.243 329.365L876.394 329.735C876.511 329.687 876.646 329.715 876.734 329.805L877.02 329.525ZM876.736 329.524C876.772 329.496 876.844 329.468 876.876 329.465C876.896 329.466 876.929 329.472 876.941 329.476C876.962 329.483 876.978 329.492 876.982 329.495C876.993 329.501 877 329.508 877.002 329.509C877.007 329.513 877.011 329.517 877.012 329.517C877.014 329.519 877.016 329.521 877.016 329.522C877.018 329.523 877.018 329.524 877.019 329.524C877.019 329.524 877.02 329.525 877.02 329.525C877.02 329.525 877.02 329.526 877.021 329.526C877.021 329.526 877.021 329.526 877.021 329.526C877.021 329.526 877.022 329.527 877.022 329.528C877.023 329.528 877.023 329.529 877.024 329.529C877.024 329.53 877.025 329.53 877.025 329.531C877.026 329.531 877.027 329.533 877.029 329.535C877.03 329.536 877.031 329.538 877.034 329.541C877.035 329.542 877.037 329.546 877.039 329.548C877.041 329.551 877.047 329.56 877.05 329.565C877.057 329.577 877.074 329.629 877.077 329.669C877.039 329.783 876.878 329.865 876.814 329.855C876.796 329.848 876.772 329.836 876.765 329.831C876.761 329.828 876.755 329.824 876.753 329.822C876.749 329.819 876.746 329.816 876.745 329.815C876.743 329.814 876.742 329.813 876.742 329.812C876.74 329.811 876.739 329.81 876.739 329.81C876.738 329.809 876.737 329.808 876.737 329.808C876.736 329.807 876.736 329.807 876.736 329.807C876.736 329.807 876.735 329.806 876.735 329.806C876.735 329.806 876.735 329.806 876.735 329.806C876.734 329.805 876.734 329.805 876.734 329.805L877.02 329.525C877.02 329.525 877.02 329.525 877.02 329.525C877.02 329.525 877.02 329.525 877.019 329.524C877.019 329.524 877.019 329.524 877.018 329.524C877.018 329.524 877.018 329.523 877.018 329.523C877.017 329.523 877.017 329.522 877.016 329.521C877.015 329.521 877.014 329.52 877.013 329.518C877.012 329.518 877.011 329.517 877.01 329.515C877.009 329.514 877.005 329.512 877.001 329.508C876.999 329.507 876.993 329.502 876.989 329.5C876.982 329.495 876.958 329.482 876.94 329.476C876.876 329.465 876.715 329.548 876.677 329.662C876.681 329.702 876.698 329.753 876.704 329.765C876.707 329.771 876.713 329.78 876.716 329.783C876.717 329.785 876.72 329.788 876.721 329.79C876.723 329.793 876.725 329.795 876.726 329.796C876.727 329.798 876.729 329.799 876.729 329.8C876.73 329.801 876.73 329.801 876.731 329.801C876.731 329.802 876.732 329.803 876.732 329.803C876.733 329.804 876.733 329.804 876.733 329.804C876.734 329.804 876.734 329.805 876.734 329.805C876.734 329.805 876.734 329.805 876.735 329.806C876.735 329.806 876.735 329.806 876.736 329.807C876.736 329.807 876.737 329.808 876.738 329.809C876.739 329.809 876.74 329.811 876.743 329.813C876.744 329.814 876.747 329.818 876.753 329.822C876.754 329.823 876.762 329.829 876.773 329.836C876.777 329.838 876.792 329.848 876.814 329.855C876.826 329.859 876.858 329.864 876.878 329.865C876.91 329.863 876.983 329.835 877.019 329.807L876.736 329.524ZM877.017 329.522C877.015 329.52 877.014 329.52 877.015 329.52C877.015 329.52 877.015 329.52 877.015 329.521C877.016 329.521 877.016 329.521 877.016 329.521C877.016 329.521 877.016 329.522 877.016 329.522C877.016 329.522 877.016 329.521 877.016 329.521C877.016 329.521 877.016 329.521 877.016 329.521C877.016 329.521 877.016 329.521 877.015 329.521C877.015 329.52 877.014 329.52 877.013 329.518C877.013 329.518 877.011 329.516 877.008 329.514C877.007 329.513 877.003 329.51 876.998 329.506C876.994 329.503 876.983 329.496 876.976 329.491C876.955 329.481 876.827 329.472 876.735 329.525L877.02 329.806C876.928 329.859 876.799 329.85 876.779 329.839C876.771 329.835 876.76 329.828 876.757 329.825C876.751 329.821 876.747 329.817 876.746 329.817C876.744 329.814 876.742 329.813 876.742 329.812C876.74 329.811 876.739 329.81 876.739 329.81C876.739 329.81 876.739 329.81 876.739 329.81C876.739 329.809 876.738 329.809 876.738 329.809C876.738 329.809 876.739 329.809 876.739 329.809C876.739 329.81 876.739 329.81 876.74 329.811C876.741 329.812 876.742 329.813 876.744 329.814C876.746 329.817 876.75 329.82 876.754 329.823L877.017 329.522ZM877.038 329.539C877.027 329.53 877.02 329.525 877.017 329.522L876.754 329.823C876.763 329.831 876.773 329.84 876.786 329.85L877.038 329.539ZM877.052 329.55C877.046 329.546 877.041 329.542 877.038 329.539L876.786 329.85C876.791 329.854 876.796 329.858 876.801 329.863L877.052 329.55ZM877.139 329.623C877.108 329.596 877.073 329.567 877.052 329.55L876.801 329.863C876.824 329.88 876.853 329.904 876.878 329.925L877.139 329.623ZM877.31 329.801C877.247 329.719 877.18 329.658 877.139 329.623L876.878 329.925C876.91 329.953 876.953 329.993 876.991 330.043L877.31 329.801ZM877.483 330.224C877.46 330.027 877.372 329.883 877.31 329.801L876.991 330.043C877.029 330.092 877.074 330.169 877.086 330.27L877.483 330.224ZM878.686 331.933C877.997 331.445 877.564 330.931 877.483 330.224L877.086 330.27C877.185 331.141 877.726 331.744 878.455 332.259L878.686 331.933ZM899.632 346.688C892.634 341.793 885.66 336.865 878.686 331.933L878.455 332.259C885.429 337.191 892.404 342.121 899.402 347.016L899.632 346.688ZM901.567 347.414C901.012 347.426 900.401 347.226 899.632 346.688L899.402 347.016C900.214 347.584 900.908 347.828 901.575 347.814L901.567 347.414ZM903.514 346.631C902.742 347.173 902.127 347.402 901.567 347.414L901.575 347.814C902.245 347.8 902.937 347.525 903.744 346.958L903.514 346.631ZM914.937 338.577C911.134 341.268 907.325 343.952 903.514 346.631L903.744 346.958C907.556 344.279 911.364 341.595 915.168 338.904L914.937 338.577ZM919.224 332.915C918.454 335.266 916.983 337.129 914.937 338.577L915.168 338.904C917.276 337.412 918.804 335.481 919.604 333.04L919.224 332.915ZM919.605 331.235C919.514 331.759 919.412 332.339 919.224 332.915L919.604 333.04C919.803 332.432 919.908 331.824 919.999 331.304L919.605 331.235ZM919.722 330.607C919.681 330.801 919.644 331.014 919.605 331.235L919.999 331.304C920.038 331.081 920.074 330.876 920.113 330.689L919.722 330.607ZM920.492 330.046C920.129 330.008 919.797 330.25 919.722 330.607L920.113 330.689C920.146 330.533 920.292 330.427 920.45 330.443L920.492 330.046ZM921.13 330.753C921.13 330.389 920.854 330.083 920.492 330.046L920.45 330.443C920.609 330.46 920.73 330.594 920.73 330.753H921.13ZM921.159 332.746C921.144 332.049 921.13 331.382 921.13 330.753H920.73C920.73 331.387 920.744 332.059 920.759 332.755L921.159 332.746ZM921.086 338.045C921.232 336.245 921.194 334.414 921.159 332.746L920.759 332.755C920.794 334.426 920.832 336.236 920.687 338.012L921.086 338.045ZM916.501 346.037C919.138 344.092 920.817 341.362 921.086 338.045L920.687 338.012C920.428 341.203 918.817 343.831 916.264 345.715L916.501 346.037ZM903.884 354.999C908.112 352.056 912.347 349.102 916.501 346.037L916.264 345.715C912.115 348.776 907.884 351.728 903.655 354.671L903.884 354.999ZM901.324 355.728C902.195 355.793 903.065 355.569 903.884 354.999L903.655 354.671C902.91 355.19 902.131 355.387 901.354 355.329L901.324 355.728ZM898.91 354.844C899.652 355.325 900.467 355.664 901.324 355.728L901.354 355.329C900.582 355.272 899.831 354.965 899.128 354.508L898.91 354.844ZM894.79 352.062C896.144 353.022 897.524 353.943 898.91 354.844L899.128 354.508C897.744 353.61 896.37 352.691 895.022 351.736L894.79 352.062ZM884.896 345.031C888.192 347.377 891.489 349.723 894.79 352.062L895.022 351.736C891.721 349.397 888.424 347.051 885.128 344.705L884.896 345.031ZM878.104 340.2C880.369 341.809 882.632 343.42 884.896 345.031L885.128 344.705C882.864 343.094 880.6 341.483 878.336 339.874L878.104 340.2ZM875.936 337.031C876.145 338.526 877.085 339.476 878.104 340.2L878.336 339.874C877.354 339.176 876.519 338.31 876.332 336.976L875.936 337.031ZM875.929 336.931C875.929 336.965 875.931 336.998 875.936 337.031L876.332 336.976C876.33 336.961 876.329 336.947 876.329 336.932L875.929 336.931ZM875.932 335.75C875.931 336.144 875.93 336.537 875.929 336.931L876.329 336.932C876.33 336.538 876.331 336.145 876.332 335.751L875.932 335.75ZM875.935 331.044C875.939 332.612 875.935 334.18 875.932 335.75L876.332 335.751C876.335 334.181 876.339 332.612 876.335 331.043L875.935 331.044ZM875.93 331.058C875.935 331.072 875.938 331.081 875.939 331.085C875.94 331.088 875.94 331.089 875.94 331.09C875.94 331.09 875.94 331.091 875.941 331.091L876.329 330.996C876.326 330.984 876.32 330.96 876.304 330.919L875.93 331.058ZM875.906 330.999C875.916 331.024 875.923 331.04 875.93 331.058L876.304 330.919C876.296 330.895 876.287 330.874 876.277 330.85L875.906 330.999ZM875.891 330.961C875.897 330.975 875.902 330.988 875.906 330.999L876.277 330.85C876.273 330.839 876.268 330.827 876.263 330.813L875.891 330.961ZM875.833 330.8C875.853 330.863 875.875 330.92 875.891 330.961L876.263 330.813C876.247 330.775 876.23 330.729 876.214 330.68L875.833 330.8ZM875.8 330.586C875.8 330.659 875.811 330.731 875.833 330.8L876.214 330.68C876.205 330.65 876.2 330.618 876.2 330.586H875.8ZM876.243 329.365C875.975 329.474 875.8 329.734 875.8 330.023H876.2C876.2 329.897 876.277 329.783 876.394 329.735L876.243 329.365ZM899.109 347.435C899.976 348.042 900.775 348.343 901.586 348.326C902.396 348.309 903.186 347.975 904.038 347.377L903.808 347.05C902.992 347.623 902.278 347.911 901.578 347.926C900.879 347.94 900.162 347.684 899.338 347.108L899.109 347.435ZM878.16 332.677C885.134 337.608 892.109 342.539 899.109 347.435L899.338 347.108C892.339 342.212 885.365 337.282 878.391 332.35L878.16 332.677ZM876.99 331.507C877.286 331.98 877.706 332.356 878.16 332.677L878.391 332.35C877.96 332.045 877.586 331.705 877.329 331.294L876.99 331.507ZM876.783 331.112C876.842 331.25 876.911 331.382 876.99 331.507L877.329 331.294C877.261 331.186 877.201 331.073 877.151 330.955L876.783 331.112ZM876.783 331.111C876.783 331.111 876.783 331.111 876.783 331.111C876.783 331.111 876.783 331.111 876.783 331.111C876.783 331.111 876.783 331.111 876.783 331.111C876.783 331.111 876.783 331.111 876.783 331.111C876.783 331.111 876.783 331.111 876.783 331.111C876.783 331.111 876.783 331.111 876.783 331.111C876.783 331.111 876.783 331.111 876.783 331.111C876.783 331.111 876.783 331.111 876.783 331.111C876.783 331.111 876.783 331.111 876.783 331.111C876.783 331.111 876.783 331.111 876.783 331.111C876.783 331.111 876.783 331.111 876.783 331.111C876.889 330.849 877.151 330.955 877.151 330.955C877.151 330.955 877.151 330.955 877.151 330.955C877.151 330.955 877.151 330.955 877.151 330.955C877.151 330.955 877.151 330.955 877.151 330.955C877.151 330.955 877.151 330.955 877.151 330.955C877.151 330.955 877.151 330.955 877.151 330.955C877.151 330.955 877.151 330.955 877.151 330.955C877.151 330.955 877.151 330.955 877.151 330.955C877.151 330.955 877.151 330.955 877.151 330.955C877.151 330.955 877.151 330.955 877.151 330.955C877.151 330.955 877.151 330.955 877.151 330.955C877.151 330.955 877.151 330.955 877.151 330.955C877.151 330.955 877.151 330.955 877.151 330.955C877.151 330.955 877.151 330.955 877.151 330.955C877.151 330.955 877.151 330.955 877.151 330.955C877.151 330.955 876.889 330.849 876.783 331.111C876.783 331.111 876.783 331.111 876.783 331.111C876.783 331.111 876.783 331.111 876.783 331.111C876.783 331.111 876.783 331.111 876.783 331.111C876.783 331.111 876.783 331.111 876.783 331.111C876.783 331.111 876.783 331.111 876.783 331.111C876.783 331.111 876.783 331.111 876.783 331.111C876.783 331.111 876.783 331.111 876.783 331.111C876.783 331.111 876.783 331.111 876.783 331.111C876.783 331.111 876.783 331.111 876.783 331.111C876.783 331.111 876.783 331.111 876.783 331.111C876.783 331.111 876.783 331.111 876.783 331.111C876.783 331.111 876.783 331.111 876.783 331.111C876.783 331.111 876.783 331.111 876.783 331.111C876.783 331.111 876.783 331.111 876.783 331.111L877.151 330.955C877.151 330.955 877.151 330.955 877.151 330.955C877.151 330.955 877.151 330.955 877.151 330.955C877.151 330.955 877.151 330.955 877.151 330.955C877.151 330.955 877.151 330.955 877.151 330.955C877.151 330.955 877.151 330.955 877.151 330.955C877.151 330.955 877.151 330.955 877.151 330.955C877.151 330.955 877.151 330.955 877.151 330.955C877.151 330.955 877.151 330.955 877.151 330.955C877.151 330.955 877.151 330.955 877.151 330.955C877.151 330.955 877.151 330.955 877.151 330.955C877.151 330.955 877.151 330.955 877.151 330.955C877.151 330.955 877.151 330.955 877.151 330.955C877.151 330.955 877.151 330.955 877.151 330.955C877.151 330.955 877.151 330.955 877.151 330.955C877.045 331.217 876.783 331.111 876.783 331.111C876.783 331.111 876.783 331.111 876.783 331.111C876.783 331.111 876.783 331.111 876.783 331.111C876.783 331.111 876.783 331.111 876.783 331.111C876.783 331.111 876.783 331.111 876.783 331.111C876.783 331.111 876.783 331.111 876.783 331.111C876.783 331.111 876.783 331.111 876.783 331.111C876.783 331.111 876.783 331.111 876.783 331.111C876.783 331.111 876.783 331.111 876.783 331.111C876.783 331.111 876.783 331.111 876.783 331.111C876.783 331.111 876.783 331.111 876.783 331.111C876.783 331.111 876.783 331.111 876.783 331.111C876.783 331.111 876.783 331.111 876.783 331.111C876.783 331.111 876.783 331.111 876.783 331.111C876.783 331.111 876.783 331.111 876.783 331.111C876.783 331.111 876.783 331.111 876.783 331.111C876.783 331.111 876.783 331.111 876.783 331.111C876.783 331.111 876.783 331.111 876.783 331.111C876.783 331.111 876.783 331.111 876.783 331.111C876.783 331.111 876.783 331.111 876.783 331.111C876.783 331.111 876.783 331.111 876.783 331.111C876.783 331.111 876.783 331.111 876.783 331.111C876.783 331.111 877.045 331.217 877.151 330.955C877.151 330.955 877.151 330.955 877.151 330.955C877.151 330.955 877.151 330.955 877.151 330.955C877.151 330.955 877.151 330.955 877.151 330.955C877.151 330.955 877.151 330.955 877.151 330.955C877.151 330.955 877.151 330.955 877.151 330.955C877.151 330.955 877.151 330.955 877.151 330.955C877.151 330.955 877.151 330.955 877.151 330.955C877.151 330.955 877.151 330.955 877.151 330.955L876.783 331.111ZM876.628 330.63C876.666 330.799 876.718 330.96 876.783 331.112L877.151 330.955C877.095 330.825 877.051 330.688 877.018 330.543L876.628 330.63ZM876.608 330.531C876.614 330.564 876.621 330.597 876.628 330.63L877.018 330.543C877.012 330.515 877.006 330.486 877.001 330.458L876.608 330.531ZM876.577 330.328C876.585 330.397 876.595 330.465 876.608 330.531L877.001 330.458C876.99 330.401 876.982 330.342 876.975 330.283L876.577 330.328ZM876.488 330.267C876.529 330.3 876.556 330.322 876.575 330.342C876.583 330.351 876.585 330.355 876.585 330.354C876.584 330.353 876.579 330.344 876.577 330.328L876.975 330.283C876.963 330.183 876.906 330.111 876.866 330.068C876.825 330.024 876.774 329.984 876.738 329.955L876.488 330.267ZM876.369 330.163C876.408 330.203 876.454 330.24 876.488 330.267L876.738 329.955C876.7 329.924 876.674 329.903 876.655 329.883L876.369 330.163ZM876.75 330.654C876.731 330.605 876.715 330.565 876.702 330.526L876.321 330.646C876.339 330.702 876.36 330.757 876.379 330.803L876.75 330.654ZM876.847 331.033C876.846 330.886 876.788 330.747 876.75 330.654L876.379 330.803C876.423 330.913 876.446 330.978 876.447 331.034L876.847 331.033ZM876.848 331.541C876.847 331.372 876.847 331.203 876.847 331.033L876.447 331.034C876.447 331.204 876.447 331.373 876.448 331.542L876.848 331.541ZM876.843 335.753C876.847 334.35 876.85 332.945 876.848 331.541L876.448 331.542C876.45 332.945 876.447 334.348 876.443 335.752L876.843 335.753ZM876.841 336.933C876.841 336.54 876.842 336.147 876.843 335.753L876.443 335.752C876.442 336.146 876.441 336.539 876.441 336.932L876.841 336.933ZM878.632 339.457C877.697 338.793 876.997 338.035 876.839 336.905L876.443 336.96C876.623 338.25 877.429 339.093 878.4 339.783L878.632 339.457ZM885.426 344.289C883.162 342.678 880.898 341.066 878.632 339.457L878.4 339.783C880.666 341.392 882.93 343.003 885.194 344.615L885.426 344.289ZM895.317 351.318C892.017 348.98 888.722 346.634 885.426 344.289L885.194 344.615C888.49 346.96 891.785 349.306 895.086 351.645L895.317 351.318ZM899.407 354.079C898.026 353.183 896.658 352.269 895.317 351.318L895.086 351.645C896.433 352.599 897.806 353.517 899.189 354.415L899.407 354.079ZM903.363 354.251C902.712 354.704 902.049 354.867 901.392 354.819C900.73 354.769 900.061 354.504 899.407 354.079L899.189 354.415C899.881 354.865 900.615 355.162 901.362 355.218C902.113 355.273 902.867 355.084 903.591 354.579L903.363 354.251ZM915.96 345.303C911.817 348.359 907.592 351.308 903.363 354.251L903.591 354.579C907.82 351.636 912.05 348.685 916.197 345.625L915.96 345.303ZM920.177 337.971C919.931 340.999 918.407 343.498 915.96 345.303L916.197 345.625C918.728 343.758 920.32 341.158 920.576 338.003L920.177 337.971ZM920.253 333.084C920.286 334.66 920.311 336.323 920.177 337.971L920.576 338.003C920.712 336.332 920.686 334.651 920.653 333.076L920.253 333.084ZM920.247 332.795C920.249 332.891 920.251 332.987 920.253 333.084L920.653 333.076C920.651 332.979 920.649 332.883 920.647 332.787L920.247 332.795ZM920.218 330.753C920.218 331.408 920.233 332.092 920.247 332.795L920.647 332.787C920.632 332.083 920.618 331.403 920.618 330.753H920.218ZM920.511 331.35C920.548 331.139 920.581 330.952 920.614 330.795L920.222 330.712C920.187 330.878 920.154 331.072 920.117 331.281L920.511 331.35ZM920.131 333.069C920.317 332.465 920.424 331.846 920.511 331.35L920.117 331.281C920.03 331.781 919.926 332.375 919.749 332.952L920.131 333.069ZM920.09 333.199C920.104 333.156 920.118 333.113 920.131 333.069L919.749 332.952C919.736 332.993 919.723 333.034 919.71 333.074L920.09 333.199ZM915.463 339.322C917.651 337.774 919.253 335.756 920.09 333.199L919.71 333.074C918.902 335.541 917.358 337.491 915.232 338.995L915.463 339.322ZM904.038 347.377C907.85 344.697 911.659 342.013 915.463 339.322L915.232 338.995C911.429 341.686 907.62 344.37 903.808 347.05L904.038 347.377ZM875.8 330.023V330.586H876.2V330.023H875.8ZM876.712 330.586V330.023H876.312V330.586H876.712Z" fill="#003B2F" mask="url(#path-211-outside-2_156_1071)"/>
<mask id="path-213-outside-3_156_1071" maskUnits="userSpaceOnUse" x="885.712" y="321" width="28" height="13" fill="black">
<rect fill="white" x="885.712" y="321" width="28" height="13"/>
<path d="M886.712 329.315C886.831 329.18 886.893 329.075 886.984 329.012C889.203 327.464 891.383 325.856 893.66 324.395C896.015 322.883 898.617 321.996 901.462 322C904.115 322.004 906.521 322.844 908.702 324.295C909.757 324.996 910.778 325.77 911.713 326.62C913.226 327.994 913.382 330.442 912.179 332.088C911.91 332.455 911.63 332.479 911.277 332.244C910.787 331.918 910.301 331.586 909.802 331.274C904.767 328.119 899.732 328.153 894.698 331.278C893.898 331.775 893.106 332.285 892.291 332.755C892.127 332.85 891.814 332.887 891.675 332.795C890.104 331.757 888.552 330.69 886.999 329.626C886.906 329.562 886.841 329.458 886.712 329.315Z"/>
</mask>
<path d="M886.712 329.315C886.831 329.18 886.893 329.075 886.984 329.012C889.203 327.464 891.383 325.856 893.66 324.395C896.015 322.883 898.617 321.996 901.462 322C904.115 322.004 906.521 322.844 908.702 324.295C909.757 324.996 910.778 325.77 911.713 326.62C913.226 327.994 913.382 330.442 912.179 332.088C911.91 332.455 911.63 332.479 911.277 332.244C910.787 331.918 910.301 331.586 909.802 331.274C904.767 328.119 899.732 328.153 894.698 331.278C893.898 331.775 893.106 332.285 892.291 332.755C892.127 332.85 891.814 332.887 891.675 332.795C890.104 331.757 888.552 330.69 886.999 329.626C886.906 329.562 886.841 329.458 886.712 329.315Z" fill="#003B2F"/>
<path d="M886.712 329.315C886.831 329.18 886.893 329.075 886.984 329.012C889.203 327.464 891.383 325.856 893.66 324.395C896.015 322.883 898.617 321.996 901.462 322C904.115 322.004 906.521 322.844 908.702 324.295C909.757 324.996 910.778 325.77 911.713 326.62C913.226 327.994 913.382 330.442 912.179 332.088C911.91 332.455 911.63 332.479 911.277 332.244C910.787 331.918 910.301 331.586 909.802 331.274C904.767 328.119 899.732 328.153 894.698 331.278C893.898 331.775 893.106 332.285 892.291 332.755C892.127 332.85 891.814 332.887 891.675 332.795C890.104 331.757 888.552 330.69 886.999 329.626C886.906 329.562 886.841 329.458 886.712 329.315Z" stroke="#003B2F" stroke-width="0.4" stroke-linejoin="round" mask="url(#path-213-outside-3_156_1071)"/>
<mask id="path-214-outside-4_156_1071" maskUnits="userSpaceOnUse" x="875.515" y="344.057" width="46" height="27" fill="black">
<rect fill="white" x="875.515" y="344.057" width="46" height="27"/>
<path d="M876.515 345.057C876.602 345.115 876.76 345.167 876.768 345.234C876.889 346.349 877.639 347.022 878.469 347.626C881.666 349.951 884.846 352.299 888.077 354.575C891.655 357.095 895.279 359.549 898.89 362.023C900.958 363.44 902.106 363.446 904.172 362.002C907.836 359.441 911.477 356.847 915.138 354.282C917.321 352.753 918.975 350.813 919.833 348.284C920.151 347.344 920.28 346.342 920.624 345.366C920.53 348.089 920.611 350.832 920.293 353.528C919.952 356.417 918.359 358.777 916.021 360.494C911.907 363.515 907.717 366.434 903.533 369.358C902.066 370.384 900.571 370.079 899.172 369.148C897.351 367.936 895.533 366.716 893.749 365.45C888.607 361.801 883.482 358.127 878.351 354.464C877.433 353.809 876.778 352.987 876.636 351.834C876.642 349.842 876.651 347.849 876.648 345.857C876.648 345.731 876.561 345.605 876.515 345.479C876.515 345.338 876.515 345.197 876.515 345.057Z"/>
</mask>
<path d="M876.515 345.057C876.602 345.115 876.76 345.167 876.768 345.234C876.889 346.349 877.639 347.022 878.469 347.626C881.666 349.951 884.846 352.299 888.077 354.575C891.655 357.095 895.279 359.549 898.89 362.023C900.958 363.44 902.106 363.446 904.172 362.002C907.836 359.441 911.477 356.847 915.138 354.282C917.321 352.753 918.975 350.813 919.833 348.284C920.151 347.344 920.28 346.342 920.624 345.366C920.53 348.089 920.611 350.832 920.293 353.528C919.952 356.417 918.359 358.777 916.021 360.494C911.907 363.515 907.717 366.434 903.533 369.358C902.066 370.384 900.571 370.079 899.172 369.148C897.351 367.936 895.533 366.716 893.749 365.45C888.607 361.801 883.482 358.127 878.351 354.464C877.433 353.809 876.778 352.987 876.636 351.834C876.642 349.842 876.651 347.849 876.648 345.857C876.648 345.731 876.561 345.605 876.515 345.479C876.515 345.338 876.515 345.197 876.515 345.057Z" fill="#003B2F"/>
<path d="M876.515 345.057C876.602 345.115 876.76 345.167 876.768 345.234C876.889 346.349 877.639 347.022 878.469 347.626C881.666 349.951 884.846 352.299 888.077 354.575C891.655 357.095 895.279 359.549 898.89 362.023C900.958 363.44 902.106 363.446 904.172 362.002C907.836 359.441 911.477 356.847 915.138 354.282C917.321 352.753 918.975 350.813 919.833 348.284C920.151 347.344 920.28 346.342 920.624 345.366C920.53 348.089 920.611 350.832 920.293 353.528C919.952 356.417 918.359 358.777 916.021 360.494C911.907 363.515 907.717 366.434 903.533 369.358C902.066 370.384 900.571 370.079 899.172 369.148C897.351 367.936 895.533 366.716 893.749 365.45C888.607 361.801 883.482 358.127 878.351 354.464C877.433 353.809 876.778 352.987 876.636 351.834C876.642 349.842 876.651 347.849 876.648 345.857C876.648 345.731 876.561 345.605 876.515 345.479C876.515 345.338 876.515 345.197 876.515 345.057Z" stroke="#003B2F" stroke-width="0.8" stroke-linejoin="round" mask="url(#path-214-outside-4_156_1071)"/>
<path d="M202.76 628V613.81C196.1 613.03 191.09 611.02 187.73 607.78C184.43 604.48 182.72 600.22 182.6 595H198.8C199.28 597.28 200.33 598.96 201.95 600.04C203.57 601.06 205.97 601.57 209.15 601.57C212.57 601.57 215.12 601.09 216.8 600.13C218.54 599.17 219.41 597.7 219.41 595.72C219.41 594.1 218.84 592.81 217.7 591.85C216.62 590.89 214.94 590.08 212.66 589.42C210.38 588.76 207.65 588.07 204.47 587.35C200.33 586.39 196.76 585.16 193.76 583.66C190.76 582.1 188.45 580.03 186.83 577.45C185.21 574.87 184.4 571.54 184.4 567.46C184.4 562.42 186.02 558.34 189.26 555.22C192.5 552.1 197 550.15 202.76 549.37V535.5H215.45V549.37C221.57 550.09 226.16 551.98 229.22 555.04C232.28 558.1 233.99 562.12 234.35 567.1H218.15C217.79 565.18 216.92 563.77 215.54 562.87C214.16 561.91 212.03 561.43 209.15 561.43C205.97 561.43 203.75 561.94 202.49 562.96C201.23 563.98 200.6 565.3 200.6 566.92C200.6 569.14 201.74 570.76 204.02 571.78C206.36 572.8 209.72 573.73 214.1 574.57C217.34 575.23 220.28 576.04 222.92 577C225.62 577.96 227.9 579.19 229.76 580.69C231.68 582.19 233.15 584.05 234.17 586.27C235.19 588.43 235.7 591.1 235.7 594.28C235.7 599.74 233.93 604.15 230.39 607.51C226.85 610.81 221.87 612.88 215.45 613.72V628H202.76Z" fill="black"/>
</svg>
