<svg width="1676" height="858" viewBox="0 0 1676 858" fill="none" xmlns="http://www.w3.org/2000/svg">
<path d="M799.572 144.463V99.3047H874.444V122.891L873.605 175.436V192.895H831.3" stroke="#003B2F" stroke-width="3" stroke-miterlimit="10" stroke-linecap="round"/>
<path d="M813.003 114.076H860.679" stroke="#003B2F" stroke-width="3" stroke-miterlimit="10" stroke-linecap="round"/>
<path d="M813.003 125.324H860.679" stroke="#003B2F" stroke-width="3" stroke-miterlimit="10" stroke-linecap="round"/>
<path d="M813.003 147.736H842.045" stroke="#003B2F" stroke-width="3" stroke-miterlimit="10" stroke-linecap="round"/>
<path d="M813.003 136.572H860.679" stroke="#003B2F" stroke-width="3" stroke-miterlimit="10" stroke-linecap="round"/>
<path d="M814.26 199.525L817.45 217.823L807.041 211.947L796.633 217.823L799.823 199.609" stroke="#003B2F" stroke-width="3" stroke-miterlimit="10" stroke-linecap="round"/>
<path d="M827.019 173.591C826.516 174.598 826.516 176.277 827.019 177.2L828.95 180.977C829.454 181.985 829.118 183.244 828.111 183.747L824.333 185.678C823.326 186.181 822.403 187.524 822.235 188.616L821.563 192.813C821.396 193.904 820.304 194.659 819.213 194.491L815.016 193.82C813.925 193.652 812.33 194.156 811.575 194.995L808.553 198.017C807.798 198.856 806.455 198.856 805.699 198.017L802.677 194.995C801.838 194.239 800.327 193.736 799.236 193.904L795.039 194.575C793.948 194.743 792.857 193.988 792.689 192.896L792.017 188.7C791.849 187.608 790.842 186.265 789.835 185.762L786.058 183.831C785.051 183.328 784.631 182.069 785.134 181.061L787.065 177.284C787.569 176.277 787.569 174.598 787.065 173.675L785.134 169.898C784.631 168.89 784.967 167.631 785.974 167.128L789.751 165.197C790.758 164.693 791.682 163.35 791.85 162.259L792.521 158.062C792.689 156.971 793.78 156.216 794.871 156.384L799.068 157.055C800.159 157.223 801.754 156.719 802.51 155.88L805.531 152.858C806.287 152.019 807.63 152.019 808.385 152.858L811.407 155.88C812.246 156.635 813.757 157.139 814.848 156.971L819.045 156.3C820.137 156.132 821.228 156.887 821.396 157.978L822.067 162.175C822.235 163.266 823.242 164.609 824.249 165.113L828.027 167.044C829.034 167.547 829.454 168.806 828.95 169.814L827.019 173.591Z" fill="#E6E8EA"/>
<path d="M813.927 172.246H799.994C798.567 172.246 797.392 173.421 797.392 174.848V184.501C797.392 185.928 798.567 187.103 799.994 187.103H813.927C815.354 187.103 816.529 185.928 816.529 184.501V174.848C816.529 173.421 815.354 172.246 813.927 172.246Z" fill="#003C2E"/>
<path d="M801.084 172.917V170.064C801.084 166.79 803.77 164.104 807.044 164.104C810.317 164.104 813.003 166.79 813.003 170.064V172.917H810.653V170.064C810.653 168.133 809.058 166.454 807.044 166.454C805.029 166.454 803.434 168.049 803.434 170.064V172.917H801.084Z" fill="#003C2E"/>
<path d="M806.876 183.157C806.372 183.157 805.953 182.738 805.953 182.234V180.136C805.953 180.136 805.953 179.968 805.869 179.968C805.029 179.464 804.694 178.373 805.113 177.366C805.365 176.778 805.953 176.358 806.54 176.191C807.883 175.939 809.058 176.946 809.058 178.205C809.058 178.877 808.723 179.548 808.135 179.968C808.135 179.968 808.051 180.052 808.051 180.136V182.234C808.051 182.738 807.631 183.157 807.128 183.157H806.792H806.876Z" fill="#E6E8EA"/>
<mask id="mask0_156_928" style="mask-type:luminance" maskUnits="userSpaceOnUse" x="1339" y="398" width="88" height="108">
<path d="M1426.67 398.207H1339.96V505.479H1426.67V398.207Z" fill="white"/>
</mask>
<g mask="url(#mask0_156_928)">
<path d="M1359.94 498.177C1359.94 498.177 1362.71 493.645 1362.71 482.397C1362.71 477.697 1360.19 473.835 1357.25 469.303C1353.14 462.924 1348.02 454.949 1348.02 441.687C1348.02 440.344 1348.44 409.791 1383.86 409.791C1388.64 409.791 1396.7 411.218 1403.75 415.331C1412.06 420.115 1416.51 427.166 1416.51 435.56V447.311C1416.51 448.654 1417.35 449.661 1418.11 450.753C1422.56 457.132 1425.83 458.811 1425.83 461.748C1425.83 463.679 1423.73 464.602 1421.3 465.693C1420.04 466.281 1418.61 469.051 1418.61 469.89V485.335C1418.61 488.021 1416.43 490.203 1413.74 490.203H1403.5C1402.91 490.203 1391.33 489.616 1387.55 483.069" stroke="#003A2F" stroke-width="3" stroke-linecap="round" stroke-linejoin="round"/>
<path d="M1401.83 490.539C1401.66 490.959 1398.3 500.192 1394.44 504.724" stroke="#003A2F" stroke-width="3" stroke-linecap="round" stroke-linejoin="round"/>
<path d="M1382.77 404.251V399.131" stroke="#003A2F" stroke-width="3" stroke-linecap="round" stroke-linejoin="round"/>
<path d="M1406.69 410.295L1410.22 406.434" stroke="#003A2F" stroke-width="3" stroke-linecap="round" stroke-linejoin="round"/>
<path d="M1421.21 430.44L1425.92 428.426" stroke="#003A2F" stroke-width="3" stroke-linecap="round" stroke-linejoin="round"/>
<path d="M1358.18 406.434L1361.7 410.295" stroke="#003A2F" stroke-width="3" stroke-linecap="round" stroke-linejoin="round"/>
<path d="M1340.8 427.502L1345.5 429.516" stroke="#003A2F" stroke-width="3" stroke-linecap="round" stroke-linejoin="round"/>
<path d="M1399.05 433.124C1399.05 425.57 1392.76 422.297 1389.57 422.297C1385.71 422.297 1383.52 424.479 1382.27 425.822C1382.27 425.822 1382.18 425.906 1382.1 425.99C1382.1 425.99 1382.01 425.906 1381.93 425.822C1380.67 424.479 1378.49 422.297 1374.63 422.297C1371.44 422.297 1365.14 425.57 1365.14 433.124C1365.14 440.679 1372.11 448.569 1381.76 452.766C1381.76 452.766 1381.76 452.766 1381.85 452.766C1381.85 452.766 1381.93 452.766 1382.01 452.766C1382.1 452.766 1382.01 452.766 1382.1 452.766C1382.1 452.766 1382.1 452.766 1382.18 452.766C1391.83 448.569 1398.8 440.343 1398.8 433.124H1399.05Z" fill="#03FC9E" stroke="#003A2F" stroke-width="3" stroke-miterlimit="10" stroke-linecap="round"/>
</g>
<path d="M348.827 442.861H247.263M255.321 451.171V481.808M270.01 451.171V481.808M284.699 451.171V481.808M310.384 451.171V481.808M325.073 451.171V481.808M339.762 451.171V481.808M348.827 491.293H247.263M356.969 502.037H236.435" stroke="#003B2F" stroke-width="3" stroke-linecap="round" stroke-linejoin="round"/>
<path d="M312.145 421.29C309.795 429.348 301.317 433.964 293.259 431.614C285.201 429.264 280.585 420.786 282.935 412.728C285.285 404.67 293.763 400.053 301.821 402.404C309.879 404.754 314.495 413.231 312.145 421.29Z" fill="#03FC9D"/>
<path d="M312.145 421.29C309.795 429.348 301.317 433.964 293.259 431.614C285.201 429.264 280.585 420.786 282.935 412.728C285.285 404.67 293.763 400.053 301.821 402.404C309.879 404.754 314.495 413.231 312.145 421.29Z" stroke="#003B2F" stroke-width="3" stroke-miterlimit="10"/>
<path d="M294.52 427.501L296.283 421.374M298.885 412.56L300.564 406.936M291.498 420.954C291.498 420.954 292.338 423.892 295.275 424.731C298.297 425.655 300.312 424.563 300.983 422.297C301.655 419.947 300.396 418.1 297.878 417.345H297.458L297.038 417.093C294.52 416.337 293.261 414.407 293.932 412.141C294.604 409.79 296.702 408.783 299.64 409.706C302.662 410.63 303.417 413.484 303.417 413.484" stroke="#003B2F" stroke-width="3" stroke-miterlimit="10" stroke-linecap="round"/>
<path d="M317.433 432.368H277.731M275.716 420.113L236.685 436.313M356.884 436.313L319.364 420.701" stroke="#003B2F" stroke-width="3" stroke-linecap="round" stroke-linejoin="round"/>
<path d="M1592.36 692.66H1498.94C1488.65 692.66 1480.31 701.003 1480.31 711.294C1480.31 721.585 1488.65 729.928 1498.94 729.928H1592.36C1602.66 729.928 1611 721.585 1611 711.294C1611 701.003 1602.66 692.66 1592.36 692.66Z" fill="#03FC9E"/>
<path d="M1502.89 176.023H1376.64C1362.74 176.023 1351.46 187.297 1351.46 201.204C1351.46 215.111 1362.74 226.385 1376.64 226.385H1502.89C1516.79 226.385 1528.07 215.111 1528.07 201.204C1528.07 187.297 1516.79 176.023 1502.89 176.023Z" fill="#03FC9E"/>
<path d="M1022.6 545.434H943.106C932.954 545.434 924.724 553.664 924.724 563.816C924.724 573.969 932.954 582.199 943.106 582.199H1022.6C1032.75 582.199 1040.98 573.969 1040.98 563.816C1040.98 553.664 1032.75 545.434 1022.6 545.434Z" fill="#E3E7E3"/>
<path d="M152.747 612.92H213.434C227.341 612.92 238.615 601.646 238.615 587.739C238.615 573.831 227.341 562.557 213.434 562.557H152.747C138.839 562.557 127.565 573.831 127.565 587.739C127.565 601.646 138.839 612.92 152.747 612.92Z" fill="#E3E7E3"/>
<path d="M186.996 573.888H245.836C254.922 573.888 262.288 566.541 262.288 557.478C262.288 548.415 254.922 541.068 245.836 541.068H186.996C177.91 541.068 170.544 548.415 170.544 557.478C170.544 566.541 177.91 573.888 186.996 573.888Z" fill="#E3E7E3"/>
<path d="M516.199 534.354L425.462 586.647L516.199 639.024L606.936 586.647L516.199 534.354Z" fill="#03FC9E"/>
<path d="M516.196 639.024V743.694L606.932 691.318V586.646L516.196 639.024Z" fill="#03FC9E"/>
<path d="M516.199 639.024V743.694L425.462 691.318V586.646L516.199 639.024Z" fill="#03FC9E"/>
<path d="M623.638 639.022V576.992" stroke="#003D2E" stroke-width="3" stroke-linecap="round" stroke-linejoin="round"/>
<path d="M408.757 576.992V700.968L516.197 762.998L578.815 726.821" stroke="#003D2E" stroke-width="3" stroke-linecap="round" stroke-linejoin="round"/>
<path d="M457.944 548.537L408.757 576.992L516.197 639.022" stroke="#003D2E" stroke-width="3" stroke-linecap="round" stroke-linejoin="round"/>
<path d="M516.196 639.023L623.636 576.993L564.544 542.83" stroke="#003D2E" stroke-width="3" stroke-linecap="round" stroke-linejoin="round"/>
<path d="M516.196 639.023V762.999" stroke="#003D2E" stroke-width="3" stroke-linecap="round" stroke-linejoin="round"/>
<path d="M838.519 348.18L747.783 400.473L838.519 452.85L929.172 400.473L838.519 348.18Z" fill="#03FC9E"/>
<path d="M838.516 452.85V557.521L929.169 505.143V400.473L838.516 452.85Z" fill="#03FC9E"/>
<path d="M838.519 452.85V557.521L747.783 505.143V400.473L838.519 452.85Z" fill="#03FC9E"/>
<path d="M758.943 530.912L838.516 576.826" stroke="#003D2E" stroke-width="3" stroke-linecap="round" stroke-linejoin="round"/>
<path d="M790.337 356.658L731.077 390.82V478.451" stroke="#003D2E" stroke-width="3" stroke-linecap="round" stroke-linejoin="round"/>
<path d="M945.956 390.822L888.879 357.918" stroke="#003D2E" stroke-width="3" stroke-linecap="round" stroke-linejoin="round"/>
<path d="M915.739 532.255L838.516 576.826V452.85" stroke="#003D2E" stroke-width="3" stroke-linecap="round" stroke-linejoin="round"/>
<path d="M838.516 452.85L945.956 390.82V478.451" stroke="#003D2E" stroke-width="3" stroke-linecap="round" stroke-linejoin="round"/>
<path d="M838.518 452.85L731.077 390.82" stroke="#003D2E" stroke-width="3" stroke-linecap="round" stroke-linejoin="round"/>
<path d="M516.199 162.008L425.462 214.385L516.199 266.678L606.936 214.385L516.199 162.008Z" fill="#E3E7E3"/>
<path d="M516.196 266.678V371.348L606.932 318.971V214.385L516.196 266.678Z" fill="#E3E7E3"/>
<path d="M516.199 266.678V371.348L425.462 318.971V214.385L516.199 266.678Z" fill="#E3E7E3"/>
<path d="M623.638 204.731L516.197 142.701L408.757 204.731" stroke="#003D2E" stroke-width="3" stroke-linecap="round" stroke-linejoin="round"/>
<path d="M516.196 266.676L623.636 204.73V266.676" stroke="#003D2E" stroke-width="3" stroke-linecap="round" stroke-linejoin="round"/>
<path d="M516.196 266.678V390.654" stroke="#003D2E" stroke-width="3" stroke-linecap="round" stroke-linejoin="round"/>
<path d="M516.197 266.676L408.757 204.73" stroke="#003D2E" stroke-width="3" stroke-linecap="round" stroke-linejoin="round"/>
<path d="M408.757 292.864V204.73" stroke="#003D2E" stroke-width="3" stroke-linecap="round" stroke-linejoin="round"/>
<path d="M516.196 390.652L436.455 344.654" stroke="#003D2E" stroke-width="3" stroke-linecap="round" stroke-linejoin="round"/>
<path d="M1160.84 534.354L1070.11 586.647L1160.84 639.024L1251.5 586.647L1160.84 534.354Z" fill="#03FC9E"/>
<path d="M1160.84 639.024V743.694L1251.49 691.318V586.646L1160.84 639.024Z" fill="#03FC9E"/>
<path d="M1160.84 639.024V743.694L1070.11 691.318V586.646L1160.84 639.024Z" fill="#03FC9E"/>
<path d="M1107.12 731.943L1160.84 763" stroke="#003D2E" stroke-width="3" stroke-linecap="round" stroke-linejoin="round"/>
<path d="M1107.37 545.854L1053.4 576.995V639.024" stroke="#003D2E" stroke-width="3" stroke-linecap="round" stroke-linejoin="round"/>
<path d="M1268.28 576.992L1218.84 548.537" stroke="#003D2E" stroke-width="3" stroke-linecap="round" stroke-linejoin="round"/>
<path d="M1160.84 639.022L1268.28 576.992V700.968L1160.84 762.998V639.022Z" stroke="#003D2E" stroke-width="3" stroke-linecap="round" stroke-linejoin="round"/>
<path d="M1160.84 639.022L1053.4 576.992" stroke="#003D2E" stroke-width="3" stroke-linecap="round" stroke-linejoin="round"/>
<path d="M1160.84 162.008L1070.11 214.385L1160.84 266.678L1251.5 214.385L1160.84 162.008Z" fill="#E3E7E3"/>
<path d="M1160.84 266.678V371.348L1251.49 318.971V214.385L1160.84 266.678Z" fill="#E3E7E3"/>
<path d="M1160.84 266.678V371.348L1070.11 318.971V214.385L1160.84 266.678Z" fill="#E3E7E3"/>
<path d="M1268.28 204.731L1160.84 142.701L1053.4 204.731" stroke="#003D2E" stroke-width="3" stroke-linecap="round" stroke-linejoin="round"/>
<path d="M1268.28 292.864V204.73" stroke="#003D2E" stroke-width="3" stroke-linecap="round" stroke-linejoin="round"/>
<path d="M1160.84 390.652L1240.58 344.654" stroke="#003D2E" stroke-width="3" stroke-linecap="round" stroke-linejoin="round"/>
<path d="M1268.28 204.73L1160.84 266.676" stroke="#003D2E" stroke-width="3" stroke-linecap="round" stroke-linejoin="round"/>
<path d="M1160.84 266.678V390.654" stroke="#003D2E" stroke-width="3" stroke-linecap="round" stroke-linejoin="round"/>
<path d="M1160.84 266.676L1053.4 204.73V285.897" stroke="#003D2E" stroke-width="3" stroke-linecap="round" stroke-linejoin="round"/>
<path d="M1115.85 292.863L966.104 379.235" stroke="#003D2E" stroke-width="3" stroke-linecap="round" stroke-linejoin="round"/>
<path d="M793.105 480.297C793.8 480.297 794.364 479.734 794.364 479.038C794.364 478.343 793.8 477.779 793.105 477.779C792.409 477.779 791.846 478.343 791.846 479.038C791.846 479.734 792.409 480.297 793.105 480.297Z" fill="#003D2E"/>
<path d="M781.692 485.586L649.742 561.718" stroke="#003D2E" stroke-width="3" stroke-linecap="round" stroke-linejoin="round"/>
<path d="M644.034 566.251C644.729 566.251 645.293 565.687 645.293 564.992C645.293 564.296 644.729 563.732 644.034 563.732C643.339 563.732 642.775 564.296 642.775 564.992C642.775 565.687 643.339 566.251 644.034 566.251Z" fill="#003D2E"/>
<path d="M559.763 292.863L711.606 380.41" stroke="#003D2E" stroke-width="3" stroke-linecap="round" stroke-linejoin="round"/>
<path d="M882.501 479.039L1031.57 564.991" stroke="#003D2E" stroke-width="3" stroke-linecap="round" stroke-linejoin="round"/>
<path d="M915.74 752.257C962.829 743.612 1008.83 726.908 1051.64 702.231L1112.41 667.145" stroke="#003D2E" stroke-width="3" stroke-linecap="round" stroke-linejoin="round"/>
<path d="M564.546 667.145L625.317 702.231C672.154 729.258 722.852 746.634 774.642 754.524" stroke="#003D2E" stroke-width="3" stroke-linecap="round" stroke-linejoin="round"/>
<path d="M774.977 150.338C734.855 156.801 695.74 169.476 659.395 188.278L653.267 191.468" stroke="#003D2E" stroke-width="3" stroke-linecap="round" stroke-linejoin="round"/>
<path d="M1023.69 191.468L1017.56 188.278C981.381 169.56 942.434 156.885 902.563 150.422" stroke="#003D2E" stroke-width="3" stroke-linecap="round" stroke-linejoin="round"/>
<path d="M1544.27 643.641H1395.53C1379.17 643.641 1365.9 656.906 1365.9 673.271V673.355C1365.9 689.719 1379.17 702.985 1395.53 702.985H1544.27C1560.63 702.985 1573.9 689.719 1573.9 673.355V673.271C1573.9 656.906 1560.63 643.641 1544.27 643.641Z" fill="#03FC9E"/>
<path d="M215.618 99.0527H136.213C127.451 99.0527 120.348 106.156 120.348 114.917C120.348 123.679 127.451 130.782 136.213 130.782H215.618C224.379 130.782 231.482 123.679 231.482 114.917C231.482 106.156 224.379 99.0527 215.618 99.0527Z" fill="#E3E7E3"/>
<path d="M243.315 130.781H163.91C155.149 130.781 148.046 137.884 148.046 146.645C148.046 155.407 155.149 162.509 163.91 162.509H243.315C252.077 162.509 259.179 155.407 259.179 146.645C259.179 137.884 252.077 130.781 243.315 130.781Z" fill="#E3E7E3"/>
<path d="M175.411 114.918H96.0058C87.2443 114.918 80.1416 122.02 80.1416 130.782C80.1416 139.544 87.2443 146.646 96.0058 146.646H175.411C184.173 146.646 191.275 139.544 191.275 130.782C191.275 122.02 184.173 114.918 175.411 114.918Z" fill="#E3E7E3"/>
<path d="M1285.66 134.558C1290.85 134.558 1295.06 130.349 1295.06 125.157C1295.06 119.965 1290.85 115.756 1285.66 115.756C1280.46 115.756 1276.25 119.965 1276.25 125.157C1276.25 130.349 1280.46 134.558 1285.66 134.558Z" stroke="#003C2E" stroke-width="3" stroke-linecap="round" stroke-linejoin="round"/>
<path d="M247.512 351.118C252.704 351.118 256.913 346.909 256.913 341.717C256.913 336.525 252.704 332.316 247.512 332.316C242.32 332.316 238.111 336.525 238.111 341.717C238.111 346.909 242.32 351.118 247.512 351.118Z" stroke="#003C2E" stroke-width="3" stroke-linecap="round" stroke-linejoin="round"/>
<path d="M1480.31 369.919C1485.5 369.919 1489.71 365.71 1489.71 360.518C1489.71 355.326 1485.5 351.117 1480.31 351.117C1475.11 351.117 1470.91 355.326 1470.91 360.518C1470.91 365.71 1475.11 369.919 1480.31 369.919Z" stroke="#003C2E" stroke-width="3" stroke-linecap="round" stroke-linejoin="round"/>
<path d="M1485.01 97.627L1459.83 112.148" stroke="#003D2E" stroke-width="3" stroke-linecap="round" stroke-linejoin="round"/>
<path d="M1434.65 97.627L1449.42 106.189" stroke="#003D2E" stroke-width="3" stroke-linecap="round" stroke-linejoin="round"/>
<path d="M1459.83 112.146V141.524" stroke="#003D2E" stroke-width="3" stroke-linecap="round" stroke-linejoin="round"/>
<path d="M669.55 92.0863L692.968 78.5723" stroke="#003D2E" stroke-width="3" stroke-linecap="round" stroke-linejoin="round"/>
<path d="M716.387 92.0854L702.621 84.1113" stroke="#003D2E" stroke-width="3" stroke-linecap="round" stroke-linejoin="round"/>
<path d="M692.969 78.5727V51.209" stroke="#003D2E" stroke-width="3" stroke-linecap="round" stroke-linejoin="round"/>
<path d="M64.2759 219.84L81.651 209.852" stroke="#003D2E" stroke-width="3" stroke-linecap="round" stroke-linejoin="round"/>
<path d="M98.9445 219.84L91.3062 215.391" stroke="#003D2E" stroke-width="3" stroke-linecap="round" stroke-linejoin="round"/>
<path d="M81.6499 209.85V189.537" stroke="#003D2E" stroke-width="3" stroke-linecap="round" stroke-linejoin="round"/>
<path d="M186.24 698.871L203.615 688.883" stroke="#003D2E" stroke-width="3" stroke-linecap="round" stroke-linejoin="round"/>
<path d="M220.905 698.871L210.749 692.996" stroke="#003D2E" stroke-width="3" stroke-linecap="round" stroke-linejoin="round"/>
<path d="M203.614 688.883V668.654" stroke="#003D2E" stroke-width="3" stroke-linecap="round" stroke-linejoin="round"/>
<path d="M1398.21 677.805L1418.95 689.808" stroke="#003D2E" stroke-width="3" stroke-linecap="round" stroke-linejoin="round"/>
<path d="M1439.76 677.805L1427.51 684.855" stroke="#003D2E" stroke-width="3" stroke-linecap="round" stroke-linejoin="round"/>
<path d="M1418.95 689.807V714.065" stroke="#003D2E" stroke-width="3" stroke-linecap="round" stroke-linejoin="round"/>
<path d="M149.054 191.467C165.094 191.467 178.097 178.465 178.097 162.425C178.097 146.385 165.094 133.383 149.054 133.383C133.015 133.383 120.012 146.385 120.012 162.425C120.012 178.465 133.015 191.467 149.054 191.467Z" fill="#00FF94"/>
<path d="M1354.57 516.727C1345.92 528.394 1334.93 538.299 1322 545.769L1285.66 566.921" stroke="#003D2E" stroke-width="3" stroke-linecap="round" stroke-linejoin="round"/>
<path d="M1206.17 292.863L1322 359.93C1335.6 367.736 1347.01 378.312 1355.83 390.651" stroke="#003D2E" stroke-width="3" stroke-linecap="round" stroke-linejoin="round"/>
<path d="M1160.84 390.652L1087.23 348.18" stroke="#003D2E" stroke-width="3" stroke-linecap="round" stroke-linejoin="round"/>
<path d="M623.639 292.864V204.73" stroke="#003D2E" stroke-width="3" stroke-linecap="round" stroke-linejoin="round"/>
<path d="M516.2 390.652L595.941 344.654" stroke="#003D2E" stroke-width="3" stroke-linecap="round" stroke-linejoin="round"/>
<path d="M322.049 516.727C330.694 528.394 341.69 538.299 354.616 545.769L390.961 566.921" stroke="#003D2E" stroke-width="3" stroke-linecap="round" stroke-linejoin="round"/>
<path d="M470.537 292.863L354.703 359.93C341.105 367.736 329.69 378.312 320.876 390.651" stroke="#003D2E" stroke-width="3" stroke-linecap="round" stroke-linejoin="round"/>
<path d="M838.52 714.064L803.686 734.126L838.52 754.187L873.355 734.126L838.52 714.064Z" fill="#E3E7E3"/>
<path d="M838.52 754.186V794.392L873.354 774.331V734.125L838.52 754.186Z" fill="#E3E7E3"/>
<path d="M838.52 754.186V794.392L803.686 774.331V734.125L838.52 754.186Z" fill="#E3E7E3"/>
<path d="M838.52 807.404L884.602 780.796V727.579L838.52 701.055L792.354 727.579" stroke="#003D2E" stroke-width="3" stroke-linecap="round" stroke-linejoin="round"/>
<path d="M884.601 727.578L838.52 754.187" stroke="#003D2E" stroke-width="3" stroke-linecap="round" stroke-linejoin="round"/>
<path d="M838.52 754.186V807.402" stroke="#003D2E" stroke-width="3" stroke-linecap="round" stroke-linejoin="round"/>
<path d="M838.52 754.187L792.354 727.578" stroke="#003D2E" stroke-width="3" stroke-linecap="round" stroke-linejoin="round"/>
<path d="M838.52 807.403L792.354 780.795V727.578" stroke="#003D2E" stroke-width="3" stroke-linecap="round" stroke-linejoin="round"/>
<path d="M1139.52 500.947V565.663H1177.12L1195.51 552.905V533.347L1180.31 520.421L1192.9 506.487L1186.78 489.28L1157.06 481.977L1139.52 487.349V500.947Z" fill="white"/>
<path d="M1204.57 498.26C1203.4 484.83 1191.06 480.633 1175.36 479.626L1175.61 460.992L1163.44 461.244L1163.19 479.374C1160 479.374 1156.73 479.542 1153.45 479.71L1153.71 461.411L1141.53 461.663L1141.28 480.297C1138.68 480.381 1136.08 480.465 1133.56 480.549L1116.77 480.885L1116.61 492.972C1116.61 492.972 1125.59 492.636 1125.42 492.804C1130.37 492.72 1131.88 495.322 1132.3 497.589L1131.97 518.825C1131.97 518.825 1132.72 518.825 1133.23 518.825C1132.81 518.825 1132.39 518.825 1131.97 518.825L1131.55 548.623C1131.29 550.05 1130.37 552.4 1126.93 552.484C1127.1 552.568 1118.12 552.652 1118.12 552.652L1115.51 566.25L1131.38 565.914C1134.32 565.914 1137.25 565.914 1140.02 565.83L1139.77 584.716L1151.94 584.464L1152.19 565.83C1155.55 565.83 1158.74 565.83 1161.93 565.746L1161.68 584.296L1173.85 584.044L1174.1 565.242C1194.58 563.731 1208.94 558.611 1210.95 540.649C1212.63 526.211 1205.41 519.916 1193.83 517.566C1200.96 514.04 1205.41 508.081 1204.57 498.26ZM1186.95 538.97C1186.78 553.071 1160.92 552.064 1152.7 552.232L1153.12 527.219C1161.34 527.051 1187.2 524.281 1187.03 538.97H1186.95ZM1181.82 503.8C1181.66 516.642 1160.09 515.635 1153.2 515.719L1153.54 493.056C1160.42 492.888 1181.99 490.37 1181.82 503.8Z" fill="#003C2E"/>
<path fill-rule="evenodd" clip-rule="evenodd" d="M483.294 543.335L474.481 547.281L478.678 528.73L487.491 524.785L500.25 468.043H531.894L522.409 509.76L531.223 505.815L526.942 524.366L518.128 528.311L512.924 551.813H560.517L554.977 575.903H475.74L482.874 543.587L483.21 543.252L483.294 543.335Z" fill="#003D2E"/>
<mask id="path-124-outside-1_156_928" maskUnits="userSpaceOnUse" x="801.805" y="313.594" width="70" height="41" fill="black">
<rect fill="white" x="801.805" y="313.594" width="70" height="41"/>
<path d="M802.805 314.594C802.948 314.74 803.199 314.874 803.218 315.034C803.396 316.596 804.373 317.645 805.559 318.485C816.456 326.19 827.354 333.893 838.29 341.542C840.932 343.39 843.026 343.283 845.633 341.451C851.589 337.264 857.54 333.071 863.483 328.866C866.852 326.482 869.31 323.383 870.595 319.458C871.044 318.088 871.216 316.629 871.405 315.734C871.405 319.154 871.658 323.118 871.34 327.036C870.947 331.867 868.513 335.85 864.625 338.718C858.148 343.496 851.544 348.105 844.936 352.704C842.787 354.199 840.511 353.808 838.406 352.441C836.247 351.039 834.105 349.608 832.006 348.12C823.307 341.956 814.629 335.761 805.936 329.588C804.447 328.53 803.271 327.279 803.006 325.389C803.012 322.317 803.023 319.244 803.015 316.173C803.015 315.939 802.878 315.706 802.805 315.473C802.805 315.18 802.805 314.887 802.805 314.594Z"/>
</mask>
<path d="M802.805 314.594C802.948 314.74 803.199 314.874 803.218 315.034C803.396 316.596 804.373 317.645 805.559 318.485C816.456 326.19 827.354 333.893 838.29 341.542C840.932 343.39 843.026 343.283 845.633 341.451C851.589 337.264 857.54 333.071 863.483 328.866C866.852 326.482 869.31 323.383 870.595 319.458C871.044 318.088 871.216 316.629 871.405 315.734C871.405 319.154 871.658 323.118 871.34 327.036C870.947 331.867 868.513 335.85 864.625 338.718C858.148 343.496 851.544 348.105 844.936 352.704C842.787 354.199 840.511 353.808 838.406 352.441C836.247 351.039 834.105 349.608 832.006 348.12C823.307 341.956 814.629 335.761 805.936 329.588C804.447 328.53 803.271 327.279 803.006 325.389C803.012 322.317 803.023 319.244 803.015 316.173C803.015 315.939 802.878 315.706 802.805 315.473C802.805 315.18 802.805 314.887 802.805 314.594Z" fill="#003B2F"/>
<path d="M802.805 314.594C802.948 314.74 803.199 314.874 803.218 315.034C803.396 316.596 804.373 317.645 805.559 318.485C816.456 326.19 827.354 333.893 838.29 341.542C840.932 343.39 843.026 343.283 845.633 341.451C851.589 337.264 857.54 333.071 863.483 328.866C866.852 326.482 869.31 323.383 870.595 319.458C871.044 318.088 871.216 316.629 871.405 315.734C871.405 319.154 871.658 323.118 871.34 327.036C870.947 331.867 868.513 335.85 864.625 338.718C858.148 343.496 851.544 348.105 844.936 352.704C842.787 354.199 840.511 353.808 838.406 352.441C836.247 351.039 834.105 349.608 832.006 348.12C823.307 341.956 814.629 335.761 805.936 329.588C804.447 328.53 803.271 327.279 803.006 325.389C803.012 322.317 803.023 319.244 803.015 316.173C803.015 315.939 802.878 315.706 802.805 315.473C802.805 315.18 802.805 314.887 802.805 314.594Z" stroke="#003B2F" stroke-width="0.4" stroke-linejoin="round" mask="url(#path-124-outside-1_156_928)"/>
<mask id="path-125-outside-2_156_928" maskUnits="userSpaceOnUse" x="801" y="312.73" width="72" height="42" fill="black">
<rect fill="white" x="801" y="312.73" width="72" height="42"/>
<path fill-rule="evenodd" clip-rule="evenodd" d="M802.497 313.79C802.798 313.667 803.143 313.738 803.371 313.971C803.371 313.97 803.371 313.971 803.371 313.971C803.371 313.97 803.374 313.974 803.383 313.982C803.393 313.99 803.406 314.001 803.425 314.017C803.431 314.021 803.439 314.028 803.448 314.035C803.481 314.062 803.533 314.103 803.576 314.14C803.633 314.189 803.719 314.268 803.797 314.371C803.875 314.474 803.98 314.646 804.007 314.879C804.148 316.112 804.908 316.984 806.016 317.768C816.912 325.474 827.809 333.175 838.743 340.823C839.978 341.688 840.998 342.034 841.953 342.014C842.913 341.994 843.935 341.6 845.168 340.733C851.123 336.547 857.074 332.354 863.016 328.15C866.261 325.853 868.604 322.889 869.83 319.145C870.133 318.22 870.295 317.292 870.437 316.477C870.497 316.13 870.554 315.803 870.617 315.506C870.702 315.105 871.075 314.833 871.482 314.875C871.89 314.918 872.199 315.261 872.199 315.671C872.199 316.656 872.221 317.703 872.244 318.791C872.299 321.399 872.359 324.243 872.132 327.037C871.718 332.121 869.149 336.307 865.094 339.298C858.607 344.083 851.994 348.698 845.387 353.296C844.166 354.146 842.878 354.475 841.59 354.379C840.318 354.285 839.094 353.781 837.965 353.048C835.801 351.642 833.65 350.205 831.539 348.709C826.382 345.055 821.231 341.389 816.081 337.723C812.544 335.206 809.007 332.689 805.468 330.176C803.905 329.065 802.519 327.646 802.209 325.436C802.204 325.399 802.201 325.361 802.201 325.323C802.203 324.708 802.204 324.093 802.206 323.479C802.211 321.026 802.217 318.575 802.211 316.124C802.209 316.116 802.202 316.09 802.183 316.038C802.171 316.005 802.159 315.976 802.144 315.937C802.137 315.92 802.129 315.901 802.12 315.879C802.096 315.817 802.064 315.737 802.037 315.65C802.012 315.572 802 315.491 802 315.409V314.53C802 314.205 802.197 313.913 802.497 313.79ZM845.628 341.387C843.021 343.22 840.926 343.327 838.285 341.479C827.349 333.829 816.451 326.126 805.555 318.42C804.864 317.931 804.243 317.372 803.811 316.681C803.697 316.5 803.596 316.309 803.511 316.108C803.511 316.107 803.511 316.108 803.511 316.108C803.417 315.887 803.341 315.655 803.286 315.409C803.275 315.362 803.266 315.314 803.257 315.265C803.239 315.169 803.224 315.071 803.212 314.971C803.2 314.861 803.079 314.764 802.957 314.667C802.901 314.621 802.845 314.576 802.8 314.53V315.409C802.823 315.483 802.852 315.557 802.882 315.631C802.946 315.79 803.01 315.949 803.01 316.109C803.011 316.373 803.011 316.637 803.012 316.902C803.015 319.095 803.01 321.288 803.005 323.482C803.004 324.096 803.002 324.71 803.001 325.325C803.266 327.216 804.442 328.466 805.931 329.524C809.471 332.038 813.009 334.556 816.546 337.073C821.695 340.738 826.844 344.403 832.001 348.057C834.1 349.544 836.242 350.975 838.401 352.377C840.505 353.744 842.782 354.135 844.931 352.64C851.538 348.041 858.143 343.433 864.619 338.655C868.508 335.786 870.942 331.803 871.335 326.972C871.545 324.38 871.506 321.767 871.455 319.305C871.451 319.154 871.448 319.004 871.445 318.854C871.422 317.755 871.399 316.689 871.399 315.671C871.346 315.923 871.294 316.221 871.237 316.549C871.101 317.327 870.936 318.275 870.652 319.197C870.632 319.263 870.611 319.329 870.59 319.394C869.305 323.319 866.847 326.418 863.477 328.802C857.535 333.007 851.583 337.201 845.628 341.387Z"/>
</mask>
<path fill-rule="evenodd" clip-rule="evenodd" d="M802.497 313.79C802.798 313.667 803.143 313.738 803.371 313.971C803.371 313.97 803.371 313.971 803.371 313.971C803.371 313.97 803.374 313.974 803.383 313.982C803.393 313.99 803.406 314.001 803.425 314.017C803.431 314.021 803.439 314.028 803.448 314.035C803.481 314.062 803.533 314.103 803.576 314.14C803.633 314.189 803.719 314.268 803.797 314.371C803.875 314.474 803.98 314.646 804.007 314.879C804.148 316.112 804.908 316.984 806.016 317.768C816.912 325.474 827.809 333.175 838.743 340.823C839.978 341.688 840.998 342.034 841.953 342.014C842.913 341.994 843.935 341.6 845.168 340.733C851.123 336.547 857.074 332.354 863.016 328.15C866.261 325.853 868.604 322.889 869.83 319.145C870.133 318.22 870.295 317.292 870.437 316.477C870.497 316.13 870.554 315.803 870.617 315.506C870.702 315.105 871.075 314.833 871.482 314.875C871.89 314.918 872.199 315.261 872.199 315.671C872.199 316.656 872.221 317.703 872.244 318.791C872.299 321.399 872.359 324.243 872.132 327.037C871.718 332.121 869.149 336.307 865.094 339.298C858.607 344.083 851.994 348.698 845.387 353.296C844.166 354.146 842.878 354.475 841.59 354.379C840.318 354.285 839.094 353.781 837.965 353.048C835.801 351.642 833.65 350.205 831.539 348.709C826.382 345.055 821.231 341.389 816.081 337.723C812.544 335.206 809.007 332.689 805.468 330.176C803.905 329.065 802.519 327.646 802.209 325.436C802.204 325.399 802.201 325.361 802.201 325.323C802.203 324.708 802.204 324.093 802.206 323.479C802.211 321.026 802.217 318.575 802.211 316.124C802.209 316.116 802.202 316.09 802.183 316.038C802.171 316.005 802.159 315.976 802.144 315.937C802.137 315.92 802.129 315.901 802.12 315.879C802.096 315.817 802.064 315.737 802.037 315.65C802.012 315.572 802 315.491 802 315.409V314.53C802 314.205 802.197 313.913 802.497 313.79ZM845.628 341.387C843.021 343.22 840.926 343.327 838.285 341.479C827.349 333.829 816.451 326.126 805.555 318.42C804.864 317.931 804.243 317.372 803.811 316.681C803.697 316.5 803.596 316.309 803.511 316.108C803.511 316.107 803.511 316.108 803.511 316.108C803.417 315.887 803.341 315.655 803.286 315.409C803.275 315.362 803.266 315.314 803.257 315.265C803.239 315.169 803.224 315.071 803.212 314.971C803.2 314.861 803.079 314.764 802.957 314.667C802.901 314.621 802.845 314.576 802.8 314.53V315.409C802.823 315.483 802.852 315.557 802.882 315.631C802.946 315.79 803.01 315.949 803.01 316.109C803.011 316.373 803.011 316.637 803.012 316.902C803.015 319.095 803.01 321.288 803.005 323.482C803.004 324.096 803.002 324.71 803.001 325.325C803.266 327.216 804.442 328.466 805.931 329.524C809.471 332.038 813.009 334.556 816.546 337.073C821.695 340.738 826.844 344.403 832.001 348.057C834.1 349.544 836.242 350.975 838.401 352.377C840.505 353.744 842.782 354.135 844.931 352.64C851.538 348.041 858.143 343.433 864.619 338.655C868.508 335.786 870.942 331.803 871.335 326.972C871.545 324.38 871.506 321.767 871.455 319.305C871.451 319.154 871.448 319.004 871.445 318.854C871.422 317.755 871.399 316.689 871.399 315.671C871.346 315.923 871.294 316.221 871.237 316.549C871.101 317.327 870.936 318.275 870.652 319.197C870.632 319.263 870.611 319.329 870.59 319.394C869.305 323.319 866.847 326.418 863.477 328.802C857.535 333.007 851.583 337.201 845.628 341.387Z" fill="#003B2F"/>
<path d="M805.636 318.478L806.098 317.826L805.934 317.71L805.473 318.362L805.636 318.478ZM803.371 313.971L803.512 314.112L803.513 314.111L803.371 313.971ZM802.497 313.79L802.573 313.975L802.573 313.975L802.497 313.79ZM803.383 313.982L803.252 314.132L803.252 314.132L803.383 313.982ZM803.425 314.017L803.299 314.172L803.299 314.172L803.425 314.017ZM803.448 314.035L803.573 313.879L803.573 313.879L803.448 314.035ZM803.576 314.14L803.445 314.292L803.445 314.292L803.576 314.14ZM803.797 314.371L803.638 314.492L803.638 314.492L803.797 314.371ZM804.007 314.879L804.205 314.857L804.205 314.857L804.007 314.879ZM806.016 317.768L805.9 317.931L805.9 317.931L806.016 317.768ZM805.555 318.42L805.439 318.583L805.439 318.583L805.555 318.42ZM838.743 340.823L838.858 340.66L838.858 340.66L838.743 340.823ZM841.953 342.014L841.957 342.214L841.957 342.214L841.953 342.014ZM845.168 340.733L845.283 340.897L845.283 340.897L845.168 340.733ZM863.016 328.15L863.131 328.313L863.131 328.313L863.016 328.15ZM869.83 319.145L869.64 319.083L869.64 319.083L869.83 319.145ZM870.437 316.477L870.634 316.511L870.634 316.511L870.437 316.477ZM870.617 315.506L870.813 315.547L870.813 315.547L870.617 315.506ZM871.482 314.875L871.462 315.074L871.462 315.074L871.482 314.875ZM872.244 318.791L872.044 318.795L872.044 318.795L872.244 318.791ZM872.132 327.037L871.932 327.021L871.932 327.021L872.132 327.037ZM865.094 339.298L864.975 339.137L864.975 339.137L865.094 339.298ZM845.387 353.296L845.273 353.132L845.273 353.132L845.387 353.296ZM841.59 354.379L841.605 354.18L841.605 354.18L841.59 354.379ZM837.965 353.048L837.856 353.216L837.856 353.216L837.965 353.048ZM831.539 348.709L831.423 348.872L831.423 348.872L831.539 348.709ZM816.081 337.723L815.965 337.886L815.965 337.886L816.081 337.723ZM805.468 330.176L805.352 330.339L805.352 330.339L805.468 330.176ZM802.209 325.436L802.407 325.408L802.407 325.408L802.209 325.436ZM802.201 325.323L802.401 325.324L802.401 325.324L802.201 325.323ZM802.206 323.479L802.006 323.478L802.006 323.478L802.206 323.479ZM802.211 316.124L802.411 316.123C802.411 316.107 802.409 316.092 802.405 316.076L802.211 316.124ZM802.183 316.038L802.37 315.968L802.37 315.968L802.183 316.038ZM802.144 315.937L802.329 315.863L802.329 315.863L802.144 315.937ZM802.12 315.879L801.934 315.953L802.12 315.879ZM802.037 315.65L802.228 315.59L802.228 315.59L802.037 315.65ZM838.285 341.479L838.4 341.315L838.4 341.315L838.285 341.479ZM845.628 341.387L845.743 341.551L845.743 341.551L845.628 341.387ZM803.811 316.681L803.641 316.787L803.641 316.787L803.811 316.681ZM803.286 315.409L803.091 315.453L803.286 315.409ZM803.257 315.265L803.06 315.302L803.06 315.302L803.257 315.265ZM803.212 314.971L803.411 314.948L803.411 314.948L803.212 314.971ZM802.957 314.667L802.832 314.823L802.832 314.823L802.957 314.667ZM802.8 314.53L802.942 314.39C802.886 314.332 802.799 314.314 802.724 314.345C802.649 314.376 802.6 314.449 802.6 314.53H802.8ZM802.8 315.409H802.6C802.6 315.43 802.603 315.45 802.609 315.47L802.8 315.409ZM802.882 315.631L802.696 315.705L802.696 315.705L802.882 315.631ZM803.01 316.109L802.81 316.109L802.81 316.109L803.01 316.109ZM803.012 316.902L803.212 316.902L803.012 316.902ZM803.005 323.482L803.205 323.482L803.005 323.482ZM803.001 325.325L802.801 325.325C802.801 325.334 802.802 325.343 802.803 325.353L803.001 325.325ZM805.931 329.524L805.815 329.687L805.815 329.687L805.931 329.524ZM816.546 337.073L816.662 336.91L816.662 336.91L816.546 337.073ZM832.001 348.057L831.885 348.22L831.885 348.22L832.001 348.057ZM838.401 352.377L838.292 352.545L838.292 352.545L838.401 352.377ZM844.931 352.64L844.816 352.476L844.816 352.476L844.931 352.64ZM864.619 338.655L864.501 338.494L864.501 338.494L864.619 338.655ZM871.335 326.972L871.135 326.956L871.135 326.956L871.335 326.972ZM871.455 319.305L871.255 319.309L871.255 319.309L871.455 319.305ZM871.445 318.854L871.645 318.85L871.645 318.85L871.445 318.854ZM871.399 315.671H871.599C871.599 315.568 871.522 315.482 871.42 315.472C871.318 315.461 871.225 315.529 871.204 315.629L871.399 315.671ZM871.237 316.549L871.04 316.514L871.04 316.514L871.237 316.549ZM870.652 319.197L870.843 319.256L870.843 319.256L870.652 319.197ZM870.59 319.394L870.4 319.332L870.4 319.332L870.59 319.394ZM863.477 328.802L863.593 328.966L863.593 328.966L863.477 328.802ZM803.514 313.831C803.229 313.54 802.798 313.451 802.422 313.605L802.573 313.975C802.798 313.883 803.057 313.936 803.228 314.11L803.514 313.831ZM803.229 313.829C803.265 313.801 803.338 313.773 803.37 313.771C803.39 313.771 803.422 313.777 803.434 313.781C803.456 313.788 803.471 313.797 803.475 313.8C803.486 313.807 803.494 313.813 803.495 313.814C803.5 313.818 803.504 313.822 803.505 313.822C803.507 313.825 803.509 313.826 803.51 313.827C803.511 313.828 803.512 313.829 803.512 313.829C803.513 313.83 803.513 313.83 803.513 313.83C803.513 313.831 803.514 313.831 803.514 313.831C803.514 313.831 803.514 313.831 803.514 313.831C803.514 313.831 803.515 313.832 803.516 313.833C803.516 313.833 803.516 313.834 803.517 313.834C803.517 313.835 803.518 313.835 803.519 313.836C803.519 313.836 803.52 313.838 803.522 313.84C803.523 313.841 803.525 313.843 803.527 313.846C803.528 313.847 803.531 313.851 803.532 313.853C803.535 313.856 803.54 313.865 803.544 313.87C803.55 313.882 803.567 313.934 803.571 313.974C803.532 314.088 803.372 314.17 803.308 314.16C803.29 314.153 803.266 314.141 803.259 314.136C803.255 314.134 803.249 314.129 803.247 314.127C803.242 314.124 803.239 314.121 803.238 314.12C803.237 314.119 803.236 314.118 803.235 314.117C803.234 314.116 803.233 314.115 803.232 314.115C803.231 314.114 803.23 314.113 803.23 314.113C803.23 314.112 803.23 314.112 803.229 314.112C803.229 314.112 803.229 314.111 803.229 314.111C803.228 314.111 803.228 314.111 803.228 314.111C803.228 314.111 803.228 314.111 803.228 314.111C803.228 314.111 803.228 314.11 803.228 314.11L803.513 313.831C803.513 313.83 803.513 313.83 803.513 313.83C803.513 313.83 803.513 313.83 803.513 313.83C803.512 313.829 803.512 313.829 803.512 313.829C803.512 313.829 803.511 313.828 803.511 313.828C803.511 313.828 803.51 313.827 803.509 313.826C803.509 313.826 803.508 313.825 803.506 313.823C803.506 313.823 803.504 313.822 803.503 313.821C803.502 313.82 803.499 313.817 803.495 313.814C803.492 313.812 803.486 313.807 803.483 313.805C803.476 313.8 803.451 313.787 803.434 313.781C803.37 313.77 803.209 313.853 803.171 313.967C803.174 314.007 803.191 314.058 803.197 314.071C803.201 314.076 803.207 314.085 803.209 314.088C803.21 314.09 803.213 314.094 803.214 314.095C803.216 314.098 803.218 314.1 803.219 314.101C803.221 314.103 803.222 314.104 803.223 314.105C803.223 314.106 803.224 314.106 803.224 314.107C803.225 314.107 803.225 314.108 803.225 314.108C803.226 314.109 803.227 314.109 803.227 314.109C803.227 314.11 803.227 314.11 803.227 314.11C803.227 314.11 803.228 314.11 803.228 314.111C803.228 314.111 803.229 314.111 803.229 314.112C803.229 314.112 803.23 314.113 803.232 314.114C803.232 314.115 803.234 314.116 803.236 314.119C803.237 314.119 803.241 314.123 803.246 314.127C803.248 314.128 803.255 314.134 803.266 314.141C803.27 314.144 803.285 314.153 803.307 314.16C803.319 314.164 803.351 314.17 803.372 314.17C803.404 314.168 803.476 314.14 803.512 314.112L803.229 313.829ZM803.514 313.831C803.511 313.828 803.509 313.827 803.509 313.826C803.509 313.826 803.509 313.826 803.509 313.826C803.509 313.826 803.509 313.827 803.51 313.827C803.51 313.827 803.51 313.827 803.51 313.827C803.51 313.827 803.51 313.827 803.51 313.827C803.51 313.827 803.509 313.826 803.509 313.826C803.509 313.826 803.509 313.826 803.509 313.826C803.509 313.826 803.508 313.825 803.506 313.824C803.506 313.823 803.504 313.821 803.501 313.819C803.501 313.819 803.497 313.815 803.491 313.811C803.487 313.808 803.477 313.801 803.469 313.797C803.449 313.786 803.32 313.777 803.228 313.83L803.513 314.111C803.421 314.164 803.293 314.155 803.272 314.144C803.265 314.14 803.254 314.133 803.25 314.13C803.245 314.126 803.241 314.122 803.24 314.122C803.237 314.12 803.235 314.118 803.235 314.117C803.234 314.116 803.233 314.115 803.233 314.115C803.232 314.115 803.232 314.115 803.232 314.115C803.232 314.115 803.232 314.114 803.232 314.114C803.232 314.114 803.232 314.115 803.232 314.115C803.232 314.115 803.233 314.116 803.234 314.116C803.235 314.117 803.236 314.119 803.238 314.12C803.241 314.123 803.246 314.127 803.252 314.132L803.514 313.831ZM803.551 313.861C803.533 313.847 803.522 313.837 803.514 313.831L803.252 314.132C803.264 314.143 803.28 314.156 803.299 314.172L803.551 313.861ZM803.573 313.879C803.564 313.871 803.556 313.866 803.551 313.861L803.299 314.172C803.306 314.177 803.314 314.184 803.323 314.191L803.573 313.879ZM803.707 313.989C803.66 313.949 803.606 313.905 803.573 313.879L803.323 314.191C803.357 314.218 803.405 314.257 803.445 314.292L803.707 313.989ZM803.956 314.25C803.866 314.131 803.768 314.042 803.707 313.989L803.445 314.292C803.498 314.337 803.572 314.406 803.638 314.492L803.956 314.25ZM804.205 314.857C804.173 314.575 804.047 314.369 803.956 314.25L803.638 314.492C803.703 314.579 803.787 314.717 803.808 314.902L804.205 314.857ZM806.131 317.605C805.044 316.835 804.337 316.007 804.205 314.857L803.808 314.902C803.958 316.217 804.773 317.134 805.9 317.931L806.131 317.605ZM838.858 340.66C827.924 333.012 817.028 325.311 806.131 317.605L805.9 317.931C816.797 325.637 827.694 333.339 838.629 340.987L838.858 340.66ZM841.948 341.814C841.05 341.833 840.072 341.509 838.858 340.66L838.629 340.987C839.885 341.867 840.946 342.235 841.957 342.214L841.948 341.814ZM845.053 340.57C843.837 341.424 842.855 341.795 841.948 341.814L841.957 342.214C842.972 342.192 844.032 341.776 845.283 340.897L845.053 340.57ZM862.9 327.987C856.958 332.191 851.008 336.383 845.053 340.57L845.283 340.897C851.238 336.711 857.189 332.517 863.131 328.313L862.9 327.987ZM869.64 319.083C868.429 322.781 866.115 325.712 862.9 327.987L863.131 328.313C866.408 325.995 868.779 322.997 870.02 319.207L869.64 319.083ZM870.24 316.442C870.097 317.26 869.938 318.173 869.64 319.083L870.02 319.208C870.328 318.266 870.492 317.325 870.634 316.511L870.24 316.442ZM870.421 315.464C870.358 315.766 870.3 316.096 870.24 316.442L870.634 316.511C870.695 316.163 870.751 315.84 870.813 315.547L870.421 315.464ZM871.503 314.676C870.994 314.623 870.527 314.963 870.421 315.464L870.813 315.547C870.876 315.246 871.156 315.042 871.462 315.074L871.503 314.676ZM872.399 315.671C872.399 315.159 872.012 314.73 871.503 314.676L871.462 315.074C871.767 315.106 871.999 315.364 871.999 315.671H872.399ZM872.444 318.786C872.421 317.698 872.399 316.653 872.399 315.671H871.999C871.999 316.658 872.021 317.707 872.044 318.795L872.444 318.786ZM872.331 327.053C872.559 324.247 872.499 321.393 872.444 318.786L872.044 318.795C872.099 321.405 872.158 324.239 871.932 327.021L872.331 327.053ZM865.213 339.459C869.309 336.437 871.913 332.201 872.331 327.053L871.932 327.021C871.524 332.042 868.988 336.177 864.975 339.137L865.213 339.459ZM845.502 353.46C852.108 348.862 858.724 344.246 865.213 339.459L864.975 339.137C858.491 343.921 851.88 348.534 845.273 353.132L845.502 353.46ZM841.575 354.579C842.91 354.678 844.243 354.336 845.502 353.46L845.273 353.132C844.088 353.957 842.846 354.272 841.605 354.18L841.575 354.579ZM837.856 353.216C839.004 353.961 840.26 354.481 841.575 354.579L841.605 354.18C840.375 354.088 839.184 353.601 838.074 352.88L837.856 353.216ZM831.423 348.872C833.537 350.37 835.691 351.809 837.856 353.216L838.074 352.88C835.911 351.475 833.762 350.04 831.654 348.546L831.423 348.872ZM815.965 337.886C821.115 341.552 826.266 345.218 831.423 348.872L831.654 348.546C826.498 344.892 821.347 341.226 816.197 337.561L815.965 337.886ZM805.352 330.339C808.891 332.852 812.428 335.369 815.965 337.886L816.197 337.561C812.66 335.043 809.122 332.526 805.584 330.013L805.352 330.339ZM802.011 325.464C802.332 327.753 803.771 329.215 805.352 330.339L805.584 330.013C804.039 328.915 802.705 327.538 802.407 325.408L802.011 325.464ZM802.001 325.323C802.001 325.37 802.005 325.417 802.011 325.464L802.407 325.408C802.403 325.38 802.401 325.352 802.401 325.324L802.001 325.323ZM802.006 323.478C802.004 324.093 802.003 324.708 802.001 325.323L802.401 325.324C802.403 324.709 802.404 324.094 802.406 323.479L802.006 323.478ZM802.011 316.124C802.017 318.575 802.011 321.025 802.006 323.478L802.406 323.479C802.411 321.026 802.417 318.575 802.411 316.123L802.011 316.124ZM801.995 316.108C802.004 316.131 802.009 316.146 802.012 316.156C802.015 316.166 802.016 316.17 802.016 316.171L802.405 316.076C802.401 316.061 802.393 316.028 802.37 315.968L801.995 316.108ZM801.958 316.012C801.973 316.051 801.984 316.078 801.995 316.108L802.37 315.968C802.357 315.933 802.344 315.901 802.329 315.863L801.958 316.012ZM801.934 315.953C801.943 315.975 801.951 315.995 801.958 316.012L802.329 315.863C802.322 315.846 802.315 315.827 802.306 315.805L801.934 315.953ZM801.846 315.71C801.876 315.804 801.909 315.89 801.934 315.953L802.306 315.805C802.282 315.744 802.253 315.67 802.228 315.59L801.846 315.71ZM801.8 315.409C801.8 315.511 801.816 315.613 801.846 315.71L802.228 315.59C802.209 315.531 802.2 315.471 802.2 315.409H801.8ZM802.422 313.605C802.046 313.758 801.8 314.124 801.8 314.53H802.2C802.2 314.286 802.347 314.067 802.573 313.975L802.422 313.605ZM838.17 341.643C839.512 342.581 840.738 343.039 841.973 343.013C843.208 342.987 844.422 342.48 845.743 341.551L845.513 341.224C844.227 342.128 843.09 342.589 841.965 342.613C840.842 342.637 839.699 342.224 838.4 341.315L838.17 341.643ZM805.439 318.583C816.335 326.289 827.234 333.993 838.17 341.643L838.4 341.315C827.464 333.665 816.566 325.963 805.67 318.257L805.439 318.583ZM803.641 316.787C804.093 317.51 804.737 318.087 805.439 318.583L805.67 318.257C804.99 317.776 804.393 317.235 803.98 316.575L803.641 316.787ZM803.327 316.186C803.417 316.397 803.522 316.597 803.641 316.787L803.98 316.575C803.872 316.402 803.776 316.22 803.695 316.029L803.327 316.186ZM803.326 316.186C803.326 316.186 803.326 316.186 803.326 316.186C803.326 316.186 803.326 316.186 803.326 316.186C803.326 316.186 803.326 316.186 803.326 316.186C803.326 316.186 803.326 316.186 803.326 316.186C803.326 316.186 803.326 316.186 803.326 316.186C803.326 316.186 803.326 316.186 803.326 316.186C803.326 316.186 803.326 316.186 803.326 316.186C803.326 316.186 803.326 316.186 803.326 316.186C803.326 316.186 803.326 316.186 803.326 316.186C803.326 316.186 803.326 316.186 803.326 316.186C803.432 315.923 803.695 316.029 803.695 316.029C803.695 316.029 803.695 316.029 803.695 316.029C803.695 316.029 803.695 316.029 803.695 316.029C803.695 316.029 803.695 316.029 803.695 316.029C803.695 316.029 803.695 316.029 803.695 316.029C803.695 316.029 803.695 316.029 803.695 316.029C803.695 316.029 803.695 316.029 803.695 316.029C803.695 316.029 803.695 316.029 803.695 316.029C803.695 316.029 803.695 316.029 803.695 316.029C803.695 316.029 803.695 316.029 803.695 316.029C803.695 316.029 803.695 316.029 803.695 316.029C803.695 316.029 803.695 316.029 803.695 316.029C803.695 316.029 803.695 316.029 803.695 316.029C803.695 316.029 803.432 315.923 803.326 316.186C803.326 316.186 803.326 316.186 803.326 316.186C803.326 316.186 803.326 316.186 803.326 316.186C803.326 316.186 803.326 316.186 803.326 316.186C803.326 316.186 803.326 316.186 803.326 316.186C803.326 316.186 803.326 316.186 803.326 316.186C803.326 316.186 803.326 316.186 803.326 316.186C803.326 316.186 803.326 316.186 803.326 316.186C803.326 316.186 803.326 316.186 803.326 316.186C803.326 316.186 803.326 316.186 803.326 316.186L803.695 316.029C803.695 316.029 803.695 316.029 803.695 316.029C803.695 316.029 803.695 316.029 803.695 316.029C803.695 316.029 803.695 316.029 803.695 316.029C803.695 316.029 803.695 316.029 803.695 316.029C803.695 316.029 803.695 316.029 803.695 316.029C803.695 316.029 803.695 316.029 803.695 316.029C803.695 316.029 803.695 316.029 803.695 316.029C803.695 316.029 803.695 316.029 803.695 316.029C803.695 316.029 803.695 316.029 803.695 316.029C803.695 316.029 803.695 316.029 803.695 316.029C803.589 316.292 803.326 316.186 803.326 316.186C803.326 316.186 803.326 316.186 803.326 316.186C803.326 316.186 803.326 316.186 803.326 316.186C803.326 316.186 803.326 316.186 803.326 316.186C803.326 316.186 803.326 316.186 803.326 316.186C803.326 316.186 803.326 316.186 803.326 316.186C803.326 316.186 803.326 316.186 803.326 316.186C803.326 316.186 803.326 316.186 803.326 316.186C803.326 316.186 803.326 316.186 803.326 316.186C803.326 316.186 803.326 316.186 803.326 316.186C803.326 316.186 803.326 316.186 803.326 316.186C803.326 316.186 803.326 316.186 803.326 316.186C803.326 316.186 803.326 316.186 803.326 316.186C803.326 316.186 803.589 316.292 803.695 316.029C803.695 316.029 803.695 316.029 803.695 316.029C803.695 316.029 803.695 316.029 803.695 316.029C803.695 316.029 803.695 316.029 803.695 316.029C803.695 316.029 803.695 316.029 803.695 316.029C803.695 316.029 803.695 316.029 803.695 316.029C803.695 316.029 803.695 316.029 803.695 316.029C803.695 316.029 803.695 316.029 803.695 316.029C803.695 316.029 803.695 316.029 803.695 316.029C803.695 316.029 803.695 316.029 803.695 316.029L803.326 316.186ZM803.091 315.453C803.148 315.711 803.228 315.955 803.327 316.186L803.695 316.029C803.605 315.82 803.533 315.6 803.481 315.366L803.091 315.453ZM803.06 315.302C803.069 315.353 803.08 315.403 803.091 315.453L803.481 315.366C803.471 315.321 803.462 315.275 803.453 315.229L803.06 315.302ZM803.014 314.993C803.026 315.098 803.041 315.201 803.06 315.302L803.453 315.229C803.436 315.137 803.422 315.044 803.411 314.948L803.014 314.993ZM802.832 314.823C802.896 314.873 802.944 314.913 802.98 314.951C803.017 314.99 803.015 315.003 803.014 314.993L803.411 314.948C803.398 314.829 803.328 314.738 803.272 314.677C803.213 314.615 803.14 314.557 803.082 314.51L802.832 314.823ZM802.657 314.67C802.712 314.726 802.778 314.779 802.832 314.823L803.082 314.51C803.024 314.464 802.978 314.426 802.942 314.39L802.657 314.67ZM803.068 315.557C803.037 315.481 803.011 315.415 802.99 315.349L802.609 315.47C802.635 315.552 802.667 315.633 802.696 315.705L803.068 315.557ZM803.21 316.108C803.21 315.903 803.128 315.707 803.068 315.557L802.696 315.705C802.764 315.873 802.81 315.995 802.81 316.109L803.21 316.108ZM803.212 316.902C803.211 316.637 803.211 316.373 803.21 316.108L802.81 316.109C802.811 316.374 802.811 316.638 802.812 316.902L803.212 316.902ZM803.205 323.482C803.21 321.289 803.215 319.095 803.212 316.902L802.812 316.902C802.815 319.095 802.81 321.288 802.805 323.481L803.205 323.482ZM803.201 325.325C803.202 324.711 803.204 324.096 803.205 323.482L802.805 323.481C802.804 324.096 802.802 324.71 802.801 325.325L803.201 325.325ZM806.047 329.361C804.577 328.316 803.453 327.108 803.199 325.297L802.803 325.353C803.079 327.323 804.308 328.616 805.815 329.687L806.047 329.361ZM816.662 336.91C813.125 334.393 809.587 331.875 806.047 329.361L805.815 329.687C809.355 332.201 812.893 334.719 816.43 337.236L816.662 336.91ZM832.117 347.893C826.96 344.239 821.811 340.575 816.662 336.91L816.43 337.236C821.579 340.901 826.729 344.566 831.885 348.22L832.117 347.893ZM838.51 352.21C836.352 350.808 834.213 349.379 832.117 347.893L831.885 348.22C833.988 349.709 836.132 351.142 838.292 352.545L838.51 352.21ZM844.816 352.476C843.779 353.198 842.718 353.461 841.664 353.382C840.606 353.304 839.543 352.88 838.51 352.21L838.292 352.545C839.363 353.241 840.491 353.696 841.634 353.781C842.782 353.867 843.934 353.577 845.045 352.804L844.816 352.476ZM864.501 338.494C858.027 343.27 851.424 347.877 844.816 352.476L845.045 352.804C851.652 348.205 858.259 343.595 864.738 338.816L864.501 338.494ZM871.135 326.956C870.748 331.723 868.347 335.656 864.501 338.494L864.738 338.816C868.668 335.917 871.136 331.882 871.534 326.989L871.135 326.956ZM871.255 319.309C871.306 321.772 871.345 324.375 871.135 326.956L871.534 326.989C871.746 324.385 871.706 321.762 871.655 319.301L871.255 319.309ZM871.245 318.859C871.248 319.008 871.252 319.159 871.255 319.309L871.655 319.301C871.651 319.15 871.648 319 871.645 318.85L871.245 318.859ZM871.199 315.671C871.199 316.691 871.222 317.76 871.245 318.859L871.645 318.85C871.622 317.751 871.599 316.686 871.599 315.671H871.199ZM871.434 316.583C871.491 316.254 871.543 315.96 871.595 315.712L871.204 315.629C871.15 315.886 871.097 316.187 871.04 316.514L871.434 316.583ZM870.843 319.256C871.131 318.32 871.298 317.36 871.434 316.583L871.04 316.514C870.904 317.294 870.74 318.23 870.461 319.139L870.843 319.256ZM870.78 319.456C870.802 319.39 870.823 319.323 870.843 319.256L870.461 319.139C870.441 319.203 870.421 319.268 870.4 319.332L870.78 319.456ZM863.593 328.966C866.994 326.56 869.48 323.427 870.78 319.456L870.4 319.332C869.129 323.211 866.701 326.277 863.362 328.639L863.593 328.966ZM845.743 341.551C851.699 337.364 857.65 333.171 863.593 328.966L863.362 328.639C857.419 332.844 851.468 337.037 845.513 341.224L845.743 341.551ZM801.8 314.53V315.409H802.2V314.53H801.8ZM803 315.409V314.53H802.6V315.409H803Z" fill="#003B2F" mask="url(#path-125-outside-2_156_928)"/>
<mask id="path-127-outside-3_156_928" maskUnits="userSpaceOnUse" x="817.738" y="301" width="43" height="19" fill="black">
<rect fill="white" x="817.738" y="301" width="43" height="19"/>
<path d="M818.738 313.43C818.924 313.218 819.02 313.055 819.162 312.956C822.63 310.537 826.037 308.024 829.593 305.742C833.273 303.38 837.338 301.993 841.784 302C845.928 302.007 849.687 303.319 853.096 305.585C854.743 306.681 856.338 307.89 857.8 309.218C860.163 311.366 860.408 315.19 858.527 317.761C858.107 318.335 857.67 318.372 857.119 318.006C856.353 317.496 855.593 316.978 854.814 316.49C846.948 311.561 839.08 311.614 831.215 316.496C829.965 317.272 828.728 318.069 827.454 318.805C827.199 318.952 826.71 319.01 826.492 318.866C824.037 317.245 821.613 315.577 819.187 313.914C819.041 313.815 818.94 313.652 818.738 313.43Z"/>
</mask>
<path d="M818.738 313.43C818.924 313.218 819.02 313.055 819.162 312.956C822.63 310.537 826.037 308.024 829.593 305.742C833.273 303.38 837.338 301.993 841.784 302C845.928 302.007 849.687 303.319 853.096 305.585C854.743 306.681 856.338 307.89 857.8 309.218C860.163 311.366 860.408 315.19 858.527 317.761C858.107 318.335 857.67 318.372 857.119 318.006C856.353 317.496 855.593 316.978 854.814 316.49C846.948 311.561 839.08 311.614 831.215 316.496C829.965 317.272 828.728 318.069 827.454 318.805C827.199 318.952 826.71 319.01 826.492 318.866C824.037 317.245 821.613 315.577 819.187 313.914C819.041 313.815 818.94 313.652 818.738 313.43Z" fill="#003B2F"/>
<path d="M818.738 313.43C818.924 313.218 819.02 313.055 819.162 312.956C822.63 310.537 826.037 308.024 829.593 305.742C833.273 303.38 837.338 301.993 841.784 302C845.928 302.007 849.687 303.319 853.096 305.585C854.743 306.681 856.338 307.89 857.8 309.218C860.163 311.366 860.408 315.19 858.527 317.761C858.107 318.335 857.67 318.372 857.119 318.006C856.353 317.496 855.593 316.978 854.814 316.49C846.948 311.561 839.08 311.614 831.215 316.496C829.965 317.272 828.728 318.069 827.454 318.805C827.199 318.952 826.71 319.01 826.492 318.866C824.037 317.245 821.613 315.577 819.187 313.914C819.041 313.815 818.94 313.652 818.738 313.43Z" stroke="#003B2F" stroke-width="0.4" stroke-linejoin="round" mask="url(#path-127-outside-3_156_928)"/>
<mask id="path-128-outside-4_156_928" maskUnits="userSpaceOnUse" x="801.805" y="337.029" width="71" height="41" fill="black">
<rect fill="white" x="801.805" y="337.029" width="71" height="41"/>
<path d="M802.805 338.029C802.942 338.121 803.188 338.201 803.2 338.306C803.39 340.048 804.561 341.1 805.859 342.044C810.853 345.676 815.821 349.345 820.87 352.901C826.46 356.837 832.123 360.672 837.764 364.537C840.996 366.752 842.789 366.761 846.016 364.505C851.741 360.503 857.43 356.451 863.151 352.443C866.561 350.055 869.145 347.023 870.485 343.071C870.983 341.604 871.185 340.037 871.722 338.513C871.574 342.767 871.702 347.053 871.205 351.266C870.672 355.78 868.183 359.466 864.529 362.149C858.102 366.868 851.556 371.429 845.018 375.999C842.727 377.601 840.39 377.125 838.205 375.671C835.359 373.776 832.52 371.87 829.732 369.892C821.698 364.191 813.691 358.451 805.673 352.727C804.24 351.704 803.216 350.42 802.994 348.618C803.003 345.505 803.017 342.393 803.014 339.28C803.014 339.083 802.877 338.886 802.805 338.689C802.805 338.469 802.805 338.249 802.805 338.029Z"/>
</mask>
<path d="M802.805 338.029C802.942 338.121 803.188 338.201 803.2 338.306C803.39 340.048 804.561 341.1 805.859 342.044C810.853 345.676 815.821 349.345 820.87 352.901C826.46 356.837 832.123 360.672 837.764 364.537C840.996 366.752 842.789 366.761 846.016 364.505C851.741 360.503 857.43 356.451 863.151 352.443C866.561 350.055 869.145 347.023 870.485 343.071C870.983 341.604 871.185 340.037 871.722 338.513C871.574 342.767 871.702 347.053 871.205 351.266C870.672 355.78 868.183 359.466 864.529 362.149C858.102 366.868 851.556 371.429 845.018 375.999C842.727 377.601 840.39 377.125 838.205 375.671C835.359 373.776 832.52 371.87 829.732 369.892C821.698 364.191 813.691 358.451 805.673 352.727C804.24 351.704 803.216 350.42 802.994 348.618C803.003 345.505 803.017 342.393 803.014 339.28C803.014 339.083 802.877 338.886 802.805 338.689C802.805 338.469 802.805 338.249 802.805 338.029Z" fill="#003B2F"/>
<path d="M802.805 338.029C802.942 338.121 803.188 338.201 803.2 338.306C803.39 340.048 804.561 341.1 805.859 342.044C810.853 345.676 815.821 349.345 820.87 352.901C826.46 356.837 832.123 360.672 837.764 364.537C840.996 366.752 842.789 366.761 846.016 364.505C851.741 360.503 857.43 356.451 863.151 352.443C866.561 350.055 869.145 347.023 870.485 343.071C870.983 341.604 871.185 340.037 871.722 338.513C871.574 342.767 871.702 347.053 871.205 351.266C870.672 355.78 868.183 359.466 864.529 362.149C858.102 366.868 851.556 371.429 845.018 375.999C842.727 377.601 840.39 377.125 838.205 375.671C835.359 373.776 832.52 371.87 829.732 369.892C821.698 364.191 813.691 358.451 805.673 352.727C804.24 351.704 803.216 350.42 802.994 348.618C803.003 345.505 803.017 342.393 803.014 339.28C803.014 339.083 802.877 338.886 802.805 338.689C802.805 338.469 802.805 338.249 802.805 338.029Z" stroke="#003B2F" stroke-width="0.8" stroke-linejoin="round" mask="url(#path-128-outside-4_156_928)"/>
</svg>
