<svg width="79" height="57" viewBox="0 0 79 57" fill="none" xmlns="http://www.w3.org/2000/svg">
<path d="M54.7476 55.94C61.3031 54.3409 63.4259 51.4733 64.8682 43.4097H49.5H30.6509C31.8271 49.9942 30.8318 52.7548 25.8316 55.94H54.7476Z" fill="#655CFF"/>
<path d="M17.6387 51.1206L16.6706 51.3711L16.7443 51.5679L17.6387 51.1206ZM30.6509 43.4097V42.4097C30.3549 42.4097 30.0741 42.5408 29.8841 42.7678C29.6941 42.9947 29.6144 43.2942 29.6665 43.5856L30.6509 43.4097ZM64.8682 43.4097L65.8526 43.5858C65.9047 43.2944 65.825 42.9949 65.635 42.7679C65.445 42.5409 65.1642 42.4097 64.8682 42.4097V43.4097ZM54.7476 55.94V56.94H54.8678L54.9846 56.9115L54.7476 55.94ZM19.5664 24.0962C19.0141 24.0962 18.5664 24.5439 18.5664 25.0962C18.5664 25.6485 19.0141 26.0962 19.5664 26.0962V24.0962ZM37.8799 26.0962C38.4322 26.0962 38.8799 25.6485 38.8799 25.0962C38.8799 24.5439 38.4322 24.0962 37.8799 24.0962V26.0962ZM21.0122 31.8071C20.4599 31.8071 20.0122 32.2549 20.0122 32.8071C20.0122 33.3594 20.4599 33.8071 21.0122 33.8071V31.8071ZM37.8799 33.8071C38.4322 33.8071 38.8799 33.3594 38.8799 32.8071C38.8799 32.2549 38.4322 31.8071 37.8799 31.8071V33.8071ZM39.7184 10.7036L38.7633 11L39.7184 10.7036ZM6.3554 11.5009L16.6706 51.3711L18.6068 50.8702L8.29164 11L6.3554 11.5009ZM63.8838 43.2336C63.1679 47.2363 62.3095 49.7576 60.9427 51.4766C59.6071 53.1562 57.6824 54.1948 54.5106 54.9685L54.9846 56.9115C58.3683 56.0861 60.7828 54.8913 62.5081 52.7214C64.202 50.591 65.1262 47.6467 65.8526 43.5858L63.8838 43.2336ZM54.7476 54.94H25.8316V56.94H54.7476V54.94ZM26.3688 56.7834C28.9414 55.1447 30.6529 53.5119 31.4921 51.305C32.3198 49.1284 32.2304 46.5649 31.6353 43.2339L29.6665 43.5856C30.2477 46.8389 30.2487 48.948 29.6227 50.5941C29.0082 52.21 27.722 53.5501 25.2943 55.0966L26.3688 56.7834ZM25.7249 54.9457C24.1382 55.1159 22.7906 54.8907 21.6394 54.2445C20.4847 53.5963 19.4318 52.4709 18.5331 50.6734L16.7443 51.5679C17.7733 53.6259 19.0727 55.0973 20.6604 55.9885C22.2516 56.8816 24.0366 57.1383 25.9382 56.9343L25.7249 54.9457ZM8.29164 11H38.7633V9H8.29164V11ZM30.6509 44.4097H49.5V42.4097H30.6509V44.4097ZM49.5 44.4097H64.8682V42.4097H49.5V44.4097ZM19.5664 26.0962H37.8799V24.0962H19.5664V26.0962ZM50.4583 43.1239L46.4583 29.7142L44.5417 30.2858L48.5417 43.6955L50.4583 43.1239ZM21.0122 33.8071H29.4461V31.8071H21.0122V33.8071ZM29.4461 33.8071H37.8799V31.8071H29.4461V33.8071ZM38.7633 11L43.0449 24.7964L44.9551 24.2036L40.6734 10.4072L38.7633 11ZM38.7633 11L38.7633 11L40.6734 10.4072C40.4137 9.57035 39.6395 9 38.7633 9V11ZM8.29164 11L8.29164 11V9C6.98374 9 6.0278 10.2347 6.3554 11.5009L8.29164 11Z" fill="black"/>
<path d="M38.8447 32.8076L37.9658 32.3307L39.258 33.7183L38.8447 32.8076ZM42.2183 26.5908L41.5178 25.8771L41.4108 25.9821L41.3393 26.1138L42.2183 26.5908ZM68.2427 1.04826L68.159 0.0517689L67.7996 0.0819503L67.5422 0.334577L68.2427 1.04826ZM71.6162 4.4218L72.3101 5.14188L72.5941 4.86825L72.6149 4.47446L71.6162 4.4218ZM45.1099 29.9643L45.5231 30.8749L45.6798 30.8038L45.8038 30.6844L45.1099 29.9643ZM39.7237 33.2846L43.0972 27.0677L41.3393 26.1138L37.9658 32.3307L39.7237 33.2846ZM42.9187 27.3044L68.9432 1.76195L67.5422 0.334577L41.5178 25.8771L42.9187 27.3044ZM68.3264 2.04475C69.0357 1.98518 69.5295 1.98661 69.8776 2.03993C70.2138 2.09143 70.3302 2.17849 70.378 2.22668C70.4293 2.27844 70.5216 2.40717 70.5817 2.76547C70.6431 3.1313 70.6559 3.64352 70.6176 4.36914L72.6149 4.47446C72.6553 3.70664 72.6523 3.01966 72.5541 2.43446C72.4547 1.84173 72.2435 1.26758 71.7983 0.818532C71.3495 0.365923 70.7762 0.154243 70.1804 0.0629864C69.5965 -0.0264401 68.9158 -0.011787 68.159 0.0517689L68.3264 2.04475ZM44.6966 29.0537L38.4315 31.897L39.258 33.7183L45.5231 30.8749L44.6966 29.0537ZM70.9223 3.70172L44.416 29.2442L45.8038 30.6844L72.3101 5.14188L70.9223 3.70172ZM41.459 27.2416L44.3506 30.6151L45.8691 29.3135L42.9775 25.94L41.459 27.2416ZM72.3233 3.71469L68.9498 0.341154L67.5356 1.75537L70.9091 5.12891L72.3233 3.71469Z" fill="black"/>
</svg>
