<svg width="76" height="76" viewBox="0 0 76 76" fill="none" xmlns="http://www.w3.org/2000/svg">
<path d="M34.154 37.3918C33.533 37.2459 32.6109 37.5611 31.2502 37.948C28.9908 38.591 26.5743 38.4524 24.2513 38.5581C20.879 38.7118 17.6396 38.1415 14.3019 38.0483C12.2772 37.9917 10.3367 39.0925 10.3516 41.2743C10.3685 43.7906 12.7887 46.0258 15.2969 45.8433C14.6039 46.469 14.487 48.433 15.2343 48.9932C15.9815 49.5534 17.0279 49.5401 17.9164 49.2515C17.677 49.7332 17.9285 50.9276 18.3643 51.2421C18.801 51.5564 19.3584 51.6411 19.8943 51.6938C23.4723 52.0448 27.1466 51.3513 30.3515 49.7199C32.2621 48.7475 34.0867 47.3459 34.8807 45.3538C35.5203 43.7471 35.4165 41.9538 35.3015 40.2281C35.1733 38.3139 34.8573 37.5568 34.154 37.3918Z" fill="#51417F"/>
<path d="M12.992 38.1536C12.775 38.292 13.0388 40.2058 16.1857 40.659C17.3107 40.8213 18.8669 40.8736 19.9994 40.9708C20.4165 41.3507 20.4501 41.9694 20.2809 42.5072C20.1106 43.0456 19.7216 43.4844 19.3055 43.8655C17.6015 45.4278 14.3527 46.2349 13.2669 45.9248C8.65273 44.6063 9.51966 40.7367 10.1743 39.5348C10.8289 38.3334 12.1064 37.9328 12.992 38.1536Z" fill="#51417F"/>
<path d="M45.4829 67.7966C44.2344 67.1038 42.7465 67.0312 41.456 67.6655C39.984 68.3895 39.6875 69.6448 39.8952 71.1657C39.97 71.718 40.6713 72.0087 41.1548 71.8811C41.7468 71.7247 41.9441 71.1665 41.8693 70.6212C41.7721 69.9077 41.9965 69.5871 42.6923 69.3667C43.2918 69.1767 43.9052 69.2644 44.4486 69.5656C45.6026 70.2057 46.6369 68.4367 45.4829 67.7966Z" fill="#E65F17"/>
<path d="M46.1816 61.9647V67.4716C45.2726 67.4707 44.3636 67.6057 43.5968 68.1363C42.5531 68.8583 42.1079 69.9189 42.2772 71.1605C42.3614 71.7758 43.1526 72.1174 43.695 71.9653C44.3589 71.7792 44.5843 71.1695 44.4992 70.5477C44.4506 70.1944 45.0687 69.9295 45.3128 69.8581C45.902 69.6853 46.566 69.7738 47.1682 69.8183C47.4834 69.8417 47.7275 69.7512 47.908 69.5994C48.2381 69.4313 48.485 69.108 48.485 68.6231V61.9647C48.485 60.4817 46.1807 60.4793 46.1807 61.9647H46.1816Z" fill="#E65F17"/>
<path d="M54.8475 67.7966C56.096 67.1038 57.5839 67.0312 58.8744 67.6655C60.3464 68.3895 60.6429 69.6448 60.4353 71.1657C60.3605 71.718 59.6591 72.0087 59.1756 71.8811C58.5836 71.7247 58.3863 71.1665 58.4611 70.6212C58.5584 69.9077 58.3339 69.5871 57.6381 69.3667C57.0387 69.1767 56.4252 69.2644 55.8819 69.5656C54.7288 70.2057 53.6935 68.4367 54.8475 67.7966Z" fill="#E65F17"/>
<path d="M54.1393 61.9647V67.4716C55.0483 67.4707 55.9573 67.6057 56.7241 68.1363C57.7678 68.8583 58.213 69.9189 58.0437 71.1605C57.9595 71.7758 57.1684 72.1174 56.6269 71.9653C55.962 71.7792 55.7366 71.1695 55.8217 70.5477C55.8703 70.1944 55.2522 69.9295 55.0081 69.8581C54.4189 69.6853 53.7559 69.7738 53.1527 69.8183C52.8375 69.8417 52.5934 69.7512 52.413 69.5994C52.0828 69.4313 51.8359 69.108 51.8359 68.6231V61.9647C51.8359 60.4817 54.1393 60.4793 54.1393 61.9647Z" fill="#E65F17"/>
<path d="M21.4581 25.6199L4.52566 27.8272C3.46796 27.965 2.72261 28.9342 2.86009 29.9918L6.46149 57.6388C6.59896 58.6965 7.56781 59.4422 8.6255 59.3044L25.558 57.0971C26.6157 56.9593 27.361 55.9901 27.2226 54.9325L23.6222 27.2854C23.4837 26.2278 22.5149 25.4821 21.4581 25.6199Z" fill="#D6EBFF"/>
<path d="M20.6354 26.6453L5.50129 28.618C4.44453 28.7559 3.69918 29.725 3.83665 30.7828L7.20332 56.6299C7.3408 57.6875 8.30965 58.4333 9.36734 58.2955L24.5005 56.3226C25.5582 56.1848 26.3036 55.2157 26.1661 54.158L22.7994 28.3109C22.661 27.2531 21.6922 26.5075 20.6354 26.6453Z" fill="url(#paint0_linear_929_207)"/>
<path d="M15.2205 54.2607C15.2458 54.4503 15.1121 54.6243 14.9222 54.6489C14.7324 54.6734 14.5594 54.54 14.5341 54.3501C14.5098 54.1605 14.6435 53.9865 14.8334 53.9619C15.0223 53.9374 15.1962 54.0708 15.2205 54.2607Z" fill="#D6E9F8"/>
<path d="M16.8152 54.0459C16.8395 54.2354 16.7058 54.4094 16.516 54.434C16.3271 54.4585 16.1531 54.3251 16.1279 54.1352C16.1035 53.9457 16.2373 53.7716 16.4271 53.747C16.616 53.7225 16.79 53.8559 16.8152 54.0459Z" fill="#D6ECFF"/>
<path d="M18.4082 53.8544C18.4325 54.044 18.2997 54.218 18.1099 54.2426C17.9201 54.2671 17.7461 54.1337 17.7218 53.9438C17.6966 53.7542 17.8303 53.5802 18.0201 53.5556C18.21 53.5311 18.3839 53.6649 18.4082 53.8544Z" fill="#D6E9F8"/>
<path d="M13.3061 29.431C14.3966 29.2891 14.5714 28.0587 15.4094 27.3281L13.0714 27.6327L10.7344 27.9374C11.7313 28.4289 12.2148 29.573 13.3061 29.431Z" fill="#D6EBFF"/>
<path d="M4.31218 40.9607C4.36174 41.343 4.3898 42.7255 7.5367 43.1787C8.66173 43.3406 10.2188 43.3933 11.3504 43.4904C11.7675 43.8699 11.8011 44.4886 11.6319 45.027C11.4626 45.5653 11.0726 46.0041 10.6574 46.3852C8.95351 47.9475 5.70467 48.7545 4.61892 48.4444C0.0047134 47.126 0.87069 43.2564 1.52626 42.0545C2.18089 40.8531 3.42656 40.7399 4.31218 40.9607Z" fill="#51417F"/>
<path d="M62.1328 58.9936C65.4929 57.9251 68.825 56.4767 71.3734 54.0391C73.9208 51.6015 75.5808 48.0201 74.9972 44.5418C74.7933 43.3275 74.2753 42.0956 73.2681 41.3896C72.1168 40.5833 70.5495 40.625 69.2197 41.0767C68.0423 47.4869 65.2124 53.25 62.1338 58.9936H62.1328Z" fill="#51417F"/>
<path d="M41.6591 21.474C40.477 22.578 38.6309 23.7123 36.7802 24.6216C35.5102 25.2465 34.2356 25.7638 33.176 26.0914C32.6439 22.9696 33.0198 19.0848 33.6371 16.3164C36.4239 17.8478 39.1069 19.574 41.6591 21.474Z" fill="#412F69"/>
<path d="M36.7802 24.6216C35.5102 25.2465 34.2356 25.7638 33.176 26.0914C32.6439 22.9696 33.0198 19.0848 33.6371 16.3164C33.6371 16.3164 36.5399 19.4765 36.7802 24.6216Z" fill="#1E1630"/>
<path d="M67.0347 26.4242C65.703 26.0146 64.1749 25.2181 62.7366 24.2858C61.3562 23.3972 60.0563 22.3829 59.0781 21.474C61.6302 19.574 64.3133 17.8478 67.1039 16.3164C67.2853 19.6278 67.5668 23.3028 67.0347 26.4242Z" fill="#412F69"/>
<path d="M67.0403 26.4246C65.7086 26.015 64.1805 25.2184 62.7422 24.2861C64.2319 20.1041 67.1095 16.3164 67.1095 16.3164C67.2909 19.6278 67.5724 23.3031 67.0403 26.4246Z" fill="#1E1630"/>
<path d="M71.3751 40.319C71.3751 53.0996 61.8596 63.4606 50.1193 63.4606C38.379 63.4606 28.8672 53.0996 28.8672 40.319C28.8672 31.6319 33.2644 24.0619 39.7668 20.1065C42.8276 18.2431 46.3589 17.1777 50.1193 17.1777C53.991 17.1777 57.6213 18.3035 60.7477 20.2747C67.1023 24.2734 71.3751 31.7528 71.3751 40.319Z" fill="#412F69"/>
<path d="M60.8003 20.2747C58.5456 22.5909 51.5653 28.746 49.81 28.7288C48.2454 28.716 41.903 22.2675 39.8203 20.1065C42.8812 18.2431 46.4124 17.1777 50.1728 17.1777C54.0445 17.1777 57.6749 18.3035 60.8003 20.2747Z" fill="#31234F"/>
<path d="M58.7152 21.5564C53.1228 23.9227 46.8112 23.9227 41.2188 21.5564V10.1719H58.7152V21.5564Z" fill="#21170D"/>
<path d="M34.5938 10.1719V10.9941L50.0094 17.1575L65.4259 10.9941V10.1719H34.5938Z" fill="#2D1F12"/>
<path d="M50.0094 4L34.5938 10.1632L50.0094 16.3266L65.4259 10.1632L50.0094 4Z" fill="#3B2917"/>
<path d="M58.8077 19.095C58.7188 19.095 58.6468 19.0227 58.6468 18.9339V16.3039C58.6468 14.3005 57.36 12.5618 55.4438 11.9779L50.0122 10.3232C49.9271 10.297 49.8794 10.2069 49.9056 10.1218C49.9309 10.0368 50.0206 9.98927 50.1067 10.0146L55.5373 11.6694C57.591 12.295 58.9695 14.1572 58.9695 16.3039V18.9339C58.9695 19.0231 58.8974 19.095 58.8077 19.095Z" fill="#DD9648"/>
<path d="M50.0609 10.845C50.6903 10.845 51.2009 10.5448 51.2009 10.1744C51.2009 9.80413 50.6903 9.50391 50.0609 9.50391C49.4316 9.50391 48.9219 9.80413 48.9219 10.1744C48.9219 10.5448 49.4316 10.845 50.0609 10.845Z" fill="#21170D"/>
<path d="M58.7278 19.438C59.0037 19.438 59.2282 19.2136 59.2282 18.9367C59.2282 18.6599 59.0037 18.4355 58.7278 18.4355C58.451 18.4355 58.2266 18.6599 58.2266 18.9367C58.2266 19.2136 58.451 19.438 58.7278 19.438Z" fill="#DD9648"/>
<path d="M59.5296 22.4837H57.9688V19.9485C57.9688 19.5175 58.3176 19.168 58.7496 19.168C59.1798 19.168 59.5296 19.5175 59.5296 19.9485V22.4837Z" fill="#DD9648"/>
<path d="M65.3778 30.2537C66.3962 33.5293 64.8896 36.9105 62.0121 37.8057C59.1345 38.701 55.9773 36.7712 54.9589 33.4953C53.9405 30.2198 55.447 26.8385 58.3246 25.9437C61.2022 25.0484 64.3594 26.9778 65.3778 30.2537Z" fill="#DD9648"/>
<path d="M64.0711 30.6437C64.8427 33.125 63.7008 35.6859 61.5209 36.3639C59.3419 37.0419 56.9497 35.5803 56.1782 33.0989C55.4076 30.6176 56.5485 28.0567 58.7284 27.3788C60.9074 26.7008 63.2996 28.1628 64.0711 30.6437Z" fill="#21170D"/>
<path d="M62.9891 30.6969C63.6737 30.6969 64.2283 30.1417 64.2283 29.4569C64.2283 28.772 63.6737 28.2168 62.9891 28.2168C62.3046 28.2168 61.75 28.772 61.75 29.4569C61.75 30.1417 62.3046 30.6969 62.9891 30.6969Z" fill="#FDFFFE"/>
<path d="M34.9115 30.2537C33.8941 33.5293 35.4006 36.9105 38.2773 37.8057C41.1548 38.701 44.313 36.7712 45.3314 33.4953C46.3489 30.2198 44.8423 26.8385 41.9647 25.9437C39.0881 25.0484 35.93 26.9778 34.9115 30.2537Z" fill="#DD9648"/>
<path d="M36.0692 30.6437C35.2977 33.125 36.4395 35.6859 38.6185 36.3639C40.7984 37.0419 43.1906 35.5803 43.9612 33.0989C44.7327 30.6176 43.5918 28.0567 41.4119 27.3788C39.2329 26.7008 36.8407 28.1628 36.0692 30.6437Z" fill="#21170D"/>
<path d="M37.2704 30.6969C37.9549 30.6969 38.5104 30.1417 38.5104 29.4569C38.5104 28.772 37.9549 28.2168 37.2704 28.2168C36.5858 28.2168 36.0312 28.772 36.0312 29.4569C36.0312 30.1417 36.5858 30.6969 37.2704 30.6969Z" fill="#FDFFFE"/>
<path d="M50.1671 62.8211C55.8334 62.8211 60.427 58.9138 60.427 54.0942C60.427 49.2744 55.8334 45.3672 50.1671 45.3672C44.4999 45.3672 39.9062 49.2744 39.9062 54.0942C39.9062 58.9138 44.4999 62.8211 50.1671 62.8211Z" fill="#51417F"/>
<path d="M52.6846 36.8123C52.6846 36.8123 51.1527 40.3083 50.1352 40.3083C49.1178 40.3083 47.5859 36.8123 47.5859 36.8123C47.5859 36.8123 49.1178 33.3164 50.1352 33.3164C51.1527 33.3164 52.6846 36.8123 52.6846 36.8123Z" fill="#51417F"/>
<g clip-path="url(#clip0_929_207)">
<path d="M11.95 32.5003C11.962 32.4817 11.9669 32.4681 11.9771 32.4588C12.2175 32.2326 12.4524 31.9999 12.701 31.7832C12.9587 31.5589 13.257 31.4058 13.6005 31.3558C13.9207 31.3094 14.2262 31.3681 14.5152 31.5043C14.6541 31.5704 14.7917 31.6458 14.9197 31.7318C15.1262 31.871 15.1883 32.1637 15.0726 32.3834C15.0466 32.4327 15.0136 32.4405 14.9664 32.4184C14.9013 32.3879 14.8371 32.3563 14.7716 32.3272C14.1081 32.0359 13.5002 32.1293 12.948 32.5956C12.8606 32.6699 12.774 32.7453 12.6836 32.8167C12.6658 32.8309 12.6294 32.8409 12.6102 32.8323C12.4022 32.7349 12.1967 32.6335 11.9896 32.5326C11.978 32.5265 11.9677 32.5152 11.95 32.5003Z" fill="white"/>
<path d="M10.8594 32.8203C10.8722 32.83 10.8928 32.8375 10.8963 32.8496C10.9274 32.9684 11.0151 33.0385 11.1165 33.0895C12.046 33.5613 12.9754 34.0329 13.9071 34.5C14.132 34.6128 14.2926 34.5808 14.4735 34.4096C14.8856 34.0186 15.2984 33.6268 15.7097 33.2346C15.9429 33.0122 16.0973 32.7449 16.1523 32.427C16.1714 32.3161 16.1686 32.2013 16.1729 32.1302C16.2117 32.3943 16.2765 32.6976 16.2958 33.0042C16.3201 33.382 16.1774 33.717 15.9095 33.983C15.4639 34.4257 15.0055 34.8565 14.5474 35.2869C14.398 35.4268 14.2177 35.4226 14.0398 35.3407C13.857 35.2569 13.6755 35.1707 13.4963 35.0795C12.7544 34.7019 12.0133 34.3217 11.2714 33.9432C11.1442 33.8785 11.0396 33.7952 10.9977 33.6521C10.9628 33.4147 10.9286 33.1772 10.8938 32.9399C10.8911 32.922 10.8779 32.9052 10.8693 32.8881C10.866 32.8657 10.8627 32.843 10.8594 32.8203Z" fill="white"/>
<path d="M11.1328 34.6895C11.1443 34.6949 11.1642 34.6983 11.1663 34.7065C11.201 34.8388 11.3032 34.9067 11.4141 34.965C11.8416 35.189 12.2668 35.416 12.697 35.6337C13.1742 35.8743 13.6553 36.1063 14.1345 36.3411C14.4094 36.4754 14.5481 36.4558 14.7721 36.2447C15.169 35.8707 15.5623 35.4931 15.9588 35.1185C16.1959 34.8951 16.361 34.6318 16.4193 34.3112C16.4414 34.1921 16.4395 34.0688 16.463 33.9451C16.4999 34.2752 16.5584 34.6051 16.5683 34.9362C16.5779 35.2911 16.4277 35.6039 16.1759 35.8526C15.7328 36.2902 15.2786 36.717 14.8252 37.1444C14.6666 37.2942 14.4807 37.2838 14.295 37.1964C14.0537 37.0821 13.8126 36.967 13.5749 36.8459C12.8898 36.4964 12.2056 36.1441 11.5209 35.7925C11.3986 35.7298 11.3053 35.642 11.2674 35.5055C11.2327 35.265 11.199 35.0243 11.1628 34.7838C11.1606 34.7685 11.1485 34.7548 11.1403 34.7404C11.1378 34.7233 11.1353 34.7064 11.1328 34.6895Z" fill="white"/>
<g filter="url(#filter0_f_929_207)">
<path fill-rule="evenodd" clip-rule="evenodd" d="M14.5603 36.5205L16.0046 35.1714C16.1798 35.0122 16.3292 34.7041 16.4079 34.4805C16.4565 34.3424 16.4723 34.2366 16.4771 34.0913C16.4958 34.2149 16.4792 34.4205 16.4703 34.6008C16.4546 34.9177 16.3138 35.2155 16.0788 35.4288L14.5966 36.7682L14.5603 36.5205Z" fill="url(#paint1_linear_929_207)" fill-opacity="0.15"/>
</g>
<g filter="url(#filter1_f_929_207)">
<path fill-rule="evenodd" clip-rule="evenodd" d="M14.2878 34.6661L15.6258 33.459C15.8011 33.2999 15.9937 32.9582 16.0725 32.7346C16.121 32.5965 16.2362 32.6296 16.241 32.4843C16.2597 32.6079 16.1994 32.8167 16.1905 32.997C15.9968 33.4045 15.9783 33.4696 15.7433 33.6828L14.3421 35.0371L14.2878 34.6661Z" fill="url(#paint2_linear_929_207)" fill-opacity="0.15"/>
</g>
</g>
<defs>
<filter id="filter0_f_929_207" x="14.209" y="33.7382" width="2.62897" height="3.38288" filterUnits="userSpaceOnUse" color-interpolation-filters="sRGB">
<feFlood flood-opacity="0" result="BackgroundImageFix"/>
<feBlend mode="normal" in="SourceGraphic" in2="BackgroundImageFix" result="shape"/>
<feGaussianBlur stdDeviation="0.176774" result="effect1_foregroundBlur_929_207"/>
</filter>
<filter id="filter1_f_929_207" x="13.9355" y="32.1308" width="2.66022" height="3.25983" filterUnits="userSpaceOnUse" color-interpolation-filters="sRGB">
<feFlood flood-opacity="0" result="BackgroundImageFix"/>
<feBlend mode="normal" in="SourceGraphic" in2="BackgroundImageFix" result="shape"/>
<feGaussianBlur stdDeviation="0.176774" result="effect1_foregroundBlur_929_207"/>
</filter>
<linearGradient id="paint0_linear_929_207" x1="3.57947" y1="29.1613" x2="26.2983" y2="55.6079" gradientUnits="userSpaceOnUse">
<stop offset="0.008" stop-color="#EF487C"/>
<stop offset="1" stop-color="#FF6191"/>
</linearGradient>
<linearGradient id="paint1_linear_929_207" x1="16.1247" y1="34.2693" x2="15.0583" y2="37.3318" gradientUnits="userSpaceOnUse">
<stop stop-color="#0B0B0F"/>
<stop offset="1" stop-color="#0B0B0F" stop-opacity="0"/>
</linearGradient>
<linearGradient id="paint2_linear_929_207" x1="15.7865" y1="32.5234" x2="14.7201" y2="35.5858" gradientUnits="userSpaceOnUse">
<stop stop-color="#0B0B0F"/>
<stop offset="1" stop-color="#0B0B0F" stop-opacity="0"/>
</linearGradient>
<clipPath id="clip0_929_207">
<rect width="5.38182" height="6" fill="white" transform="translate(10.7031 31.7812) rotate(-8.35346)"/>
</clipPath>
</defs>
</svg>
