<svg width="58" height="46" viewBox="0 0 58 46" fill="none" xmlns="http://www.w3.org/2000/svg">
<g clip-path="url(#clip0_153_304)">
<path d="M3.86633 8.09375C2.94967 8.46265 2.04792 8.88372 1.16479 9.35323C1.03437 9.42403 0.952393 9.55817 0.952393 9.70722V44.7416C0.952393 45.0434 1.26913 45.2334 1.53742 45.0993C5.55061 43.0387 9.90289 42.0102 14.2552 42.0102C16.0028 42.0102 17.7467 42.1742 19.4719 42.5058" stroke="#03FC9D" stroke-width="1.18095" stroke-miterlimit="10" stroke-linecap="round"/>
<path d="M38.0291 42.5021C39.7543 42.1704 41.4982 42.0065 43.2458 42.0065C47.5981 42.0065 51.9541 43.0386 55.9636 45.0955C56.2319 45.2297 56.5486 45.0397 56.5486 44.7378V9.70722C56.5486 9.55817 56.4666 9.42403 56.3362 9.35323C55.4531 8.88372 54.5513 8.46265 53.6384 8.09375" stroke="#03FC9D" stroke-width="1.18095" stroke-miterlimit="10" stroke-linecap="round"/>
<path d="M32.7338 24.1839L33.6132 23.5355C37.0749 20.9867 41.1552 19.5931 45.4404 19.5" stroke="#03FC9D" stroke-width="1.18095" stroke-miterlimit="10" stroke-linecap="round"/>
<path d="M32.7338 18.5685L33.6132 17.9201C37.0749 15.3714 41.1552 13.9778 45.4404 13.8809" stroke="#03FC9D" stroke-width="1.18095" stroke-miterlimit="10" stroke-linecap="round"/>
<path d="M32.7338 12.9572L33.6132 12.3088C37.0749 9.75631 41.1552 8.36268 45.4404 8.26953" stroke="#03FC9D" stroke-width="1.18095" stroke-miterlimit="10" stroke-linecap="round"/>
<path d="M12.0642 13.8848C16.3494 13.9817 20.4297 15.3716 23.8914 17.9241L24.7745 18.5725" stroke="#03FC9D" stroke-width="1.18095" stroke-miterlimit="10" stroke-linecap="round"/>
<path d="M12.0642 8.26953C16.3494 8.36641 20.4297 9.75258 23.8914 12.3088L24.7745 12.9572" stroke="#03FC9D" stroke-width="1.18095" stroke-miterlimit="10" stroke-linecap="round"/>
<path d="M24.6627 42.8077L26.7382 44.5069C27.0773 44.7863 27.5915 44.5404 27.5915 44.1007L27.5654 9.71848C27.5654 9.55825 27.4946 9.4092 27.3717 9.30859L23.4367 6.17107C19.0993 2.72055 13.8639 0.857422 8.49066 0.857422H6.907C6.65734 0.857422 6.45239 1.06236 6.45239 1.31202V37.5015C12.9286 36.6519 19.4533 38.556 24.6589 42.8114L24.6627 42.8077Z" stroke="#03FC9D" stroke-width="1.18095" stroke-miterlimit="10" stroke-linecap="round"/>
<path d="M51.0523 26.6096V1.31202C51.0523 1.06236 50.8511 0.857422 50.5977 0.857422H49.014C43.637 0.857422 38.4053 2.71682 34.0717 6.17107L30.1368 9.30859C30.0138 9.40547 29.9393 9.55825 29.9393 9.71848L29.9132 44.1007C29.9132 44.5404 30.4237 44.7863 30.7665 44.5069L32.842 42.8077C38.0513 38.5523 44.5798 36.6519 51.0486 37.5015V32.8772" stroke="#03FC9D" stroke-width="1.18095" stroke-miterlimit="10" stroke-linecap="round"/>
</g>
<defs>
<clipPath id="clip0_153_304">
<rect width="58" height="46" fill="white"/>
</clipPath>
</defs>
</svg>
