<svg width="1568" height="1298" viewBox="0 0 1568 1298" fill="none" xmlns="http://www.w3.org/2000/svg">
<g filter="url(#filter0_d_906_4978)">
<mask id="mask0_906_4978" style="mask-type:luminance" maskUnits="userSpaceOnUse" x="235" y="102" width="1109" height="1071">
<path d="M1323.4 102.014H254.88C243.902 102.014 235 110.914 235 121.892V1153.12C235 1164.09 243.902 1172.99 254.88 1172.99H1323.4C1334.36 1172.99 1343.27 1164.09 1343.27 1153.12V121.892C1343.27 110.914 1334.36 102.014 1323.4 102.014Z" fill="white"/>
</mask>
<g mask="url(#mask0_906_4978)">
<path d="M1323.4 102.014H254.88C243.902 102.014 235 110.914 235 121.892V1153.12C235 1164.09 243.902 1172.99 254.88 1172.99H1323.4C1334.36 1172.99 1343.27 1164.09 1343.27 1153.12V121.892C1343.27 110.914 1334.36 102.014 1323.4 102.014Z" fill="#CFCFCF"/>
<path d="M1343.27 102.014H235V251.527H1343.27V102.014Z" fill="#E8E8E8"/>
<path d="M1343.27 255.611H235V405.125H1343.27V255.611Z" fill="#FCFCFC"/>
<path d="M1343.27 409.17H235V558.683H1343.27V409.17Z" fill="#FCFCFC"/>
<path d="M1343.27 562.73H235V712.245H1343.27V562.73Z" fill="#FCFCFC"/>
<path d="M1343.27 716.312H235V865.826H1343.27V716.312Z" fill="#FCFCFC"/>
<path d="M1343.27 869.936H235V1019.45H1343.27V869.936Z" fill="#FCFCFC"/>
<path d="M1343.27 1023.97H235V1173.49H1343.27V1023.97Z" fill="#FCFCFC"/>
</g>
<path d="M1323.4 102.02H254.892C243.912 102.02 235.012 110.919 235.012 121.898V1153.12C235.012 1164.1 243.912 1173 254.892 1173H1323.4C1334.37 1173 1343.28 1164.1 1343.28 1153.12V121.898C1343.28 110.919 1334.37 102.02 1323.4 102.02Z" stroke="#DFDFDF" stroke-width="0.580421"/>
<path d="M292.005 178.684V174.907H299.161L300.95 166.607H305.125L303.337 174.907H310.393L312.183 166.607H316.357L314.567 174.907H321.278V178.684H313.774L312.084 186.637H318.842V190.412H311.238L309.45 198.813H305.274L307.064 190.412H300.007L298.218 198.813H294.042L295.831 190.412H289.57V186.637H296.677L298.366 178.684H292.005ZM302.541 178.684L300.851 186.637H307.908L309.598 178.684H302.541Z" fill="black"/>
<path d="M292.005 322.821V319.043H299.161L300.95 310.744H305.125L303.337 319.043H310.393L312.183 310.744H316.357L314.567 319.043H321.278V322.821H313.774L312.084 330.772H318.842V334.549H311.238L309.45 342.948H305.274L307.064 334.549H300.007L298.218 342.948H294.042L295.831 334.549H289.57V330.772H296.677L298.366 322.821H292.005ZM302.541 322.821L300.851 330.772H307.908L309.598 322.821H302.541Z" fill="black"/>
<path d="M292.005 491.78V488.002H299.161L300.95 479.703H305.125L303.337 488.002H310.393L312.183 479.703H316.357L314.567 488.002H321.278V491.78H313.774L312.084 499.733H318.842V503.508H311.238L309.45 511.908H305.274L307.064 503.508H300.007L298.218 511.908H294.042L295.831 503.508H289.57V499.733H296.677L298.366 491.78H292.005ZM302.541 491.78L300.851 499.733H307.908L309.598 491.78H302.541Z" fill="black"/>
<path d="M292.005 635.885V632.108H299.161L300.95 623.809H305.125L303.337 632.108H310.393L312.183 623.809H316.357L314.567 632.108H321.278V635.885H313.774L312.084 643.838H318.842V647.614H311.238L309.45 656.014H305.274L307.064 647.614H300.007L298.218 656.014H294.042L295.831 647.614H289.57V643.838H296.677L298.366 635.885H292.005ZM302.541 635.885L300.851 643.838H307.908L309.598 635.885H302.541Z" fill="black"/>
<path d="M292.005 789.957V786.18H299.161L300.95 777.881H305.125L303.337 786.18H310.393L312.183 777.881H316.357L314.567 786.18H321.278V789.957H313.774L312.084 797.909H318.842V801.686H311.238L309.45 810.084H305.274L307.064 801.686H300.007L298.218 810.084H294.042L295.831 801.686H289.57V797.909H296.677L298.366 789.957H292.005ZM302.541 789.957L300.851 797.909H307.908L309.598 789.957H302.541Z" fill="black"/>
<path d="M292.005 934.076V930.299H299.161L300.95 921.998H305.125L303.337 930.299H310.393L312.183 921.998H316.357L314.567 930.299H321.278V934.076H313.774L312.084 942.028H318.842V945.805H311.238L309.45 954.203H305.274L307.064 945.805H300.007L298.218 954.203H294.042L295.831 945.805H289.57V942.028H296.677L298.366 934.076H292.005ZM302.541 934.076L300.851 942.028H307.908L309.598 934.076H302.541Z" fill="black"/>
<path d="M292.005 1103.04V1099.27H299.161L300.95 1090.97H305.125L303.337 1099.27H310.393L312.183 1090.97H316.357L314.567 1099.27H321.278V1103.04H313.774L312.084 1110.99H318.842V1114.77H311.238L309.45 1123.17H305.274L307.064 1114.77H300.007L298.218 1123.17H294.042L295.831 1114.77H289.57V1110.99H296.677L298.366 1103.04H292.005ZM302.541 1103.04L300.851 1110.99H307.908L309.598 1103.04H302.541Z" fill="black"/>
<path d="M852.82 1170.61V102" stroke="#CFCFCF" stroke-width="2"/>
<path d="M388.129 1170.62V102.006" stroke="#CFCFCF" stroke-width="2"/>
<path d="M502.787 188.535L499.57 180.263H486.453L483.32 188.535H478.934L490.714 158.916H495.435L507.215 188.535H502.787ZM492.97 163.177L487.915 176.462H498.108L492.97 163.177ZM519.017 171.449C517.304 171.449 515.842 172.075 514.672 173.287C513.503 174.54 512.918 176.253 512.918 178.467C512.918 180.681 513.503 182.394 514.672 183.647C515.842 184.9 517.304 185.527 519.059 185.527C520.73 185.527 521.983 185.109 522.86 184.274C523.737 183.438 524.322 182.477 524.657 181.391L528.124 182.895C527.539 184.566 526.495 186.028 524.949 187.281C523.403 188.535 521.44 189.161 519.059 189.161C516.134 189.161 513.711 188.159 511.79 186.112C509.868 184.106 508.907 181.558 508.907 178.467C508.907 175.375 509.868 172.827 511.79 170.822C513.711 168.817 516.093 167.814 519.017 167.814C521.44 167.814 523.445 168.441 524.949 169.694C526.453 170.947 527.455 172.451 527.957 174.206L524.406 175.71C524.072 174.54 523.487 173.537 522.651 172.702C521.774 171.866 520.562 171.449 519.017 171.449ZM540.964 171.449C539.252 171.449 537.79 172.075 536.62 173.287C535.45 174.54 534.865 176.253 534.865 178.467C534.865 180.681 535.45 182.394 536.62 183.647C537.79 184.9 539.252 185.527 541.006 185.527C542.677 185.527 543.93 185.109 544.808 184.274C545.685 183.438 546.27 182.477 546.604 181.391L550.071 182.895C549.487 184.566 548.442 186.028 546.897 187.281C545.351 188.535 543.387 189.161 541.006 189.161C538.082 189.161 535.659 188.159 533.737 186.112C531.816 184.106 530.855 181.558 530.855 178.467C530.855 175.375 531.816 172.827 533.737 170.822C535.659 168.817 538.04 167.814 540.964 167.814C543.387 167.814 545.393 168.441 546.897 169.694C548.4 170.947 549.403 172.451 549.904 174.206L546.353 175.71C546.019 174.54 545.434 173.537 544.599 172.702C543.722 171.866 542.51 171.449 540.964 171.449ZM563.081 185.652C564.835 185.652 566.298 185.025 567.509 183.772C568.721 182.519 569.347 180.723 569.347 178.467C569.347 176.253 568.721 174.498 567.509 173.245C566.298 171.992 564.835 171.323 563.081 171.323C561.326 171.323 559.822 171.992 558.611 173.245C557.399 174.498 556.815 176.253 556.815 178.467C556.815 180.723 557.399 182.519 558.611 183.772C559.822 185.025 561.326 185.652 563.081 185.652ZM563.081 167.814C566.047 167.814 568.512 168.859 570.433 170.864C572.355 172.869 573.358 175.417 573.358 178.467C573.358 181.558 572.397 184.148 570.475 186.153C568.553 188.159 566.089 189.161 563.081 189.161C560.073 189.161 557.608 188.159 555.687 186.153C553.765 184.148 552.804 181.558 552.804 178.467C552.804 175.417 553.765 172.869 555.687 170.864C557.608 168.859 560.073 167.814 563.081 167.814ZM591.42 186.112C590.877 187.114 590.083 187.908 588.997 188.409C587.911 188.911 586.741 189.161 585.488 189.161C583.19 189.161 581.352 188.409 580.015 186.905C578.637 185.401 577.969 183.438 577.969 181.099V168.441H581.895V180.514C581.895 182.018 582.23 183.271 582.982 184.232C583.734 185.234 584.861 185.694 586.449 185.694C587.995 185.694 589.164 185.234 590 184.315C590.793 183.396 591.211 182.143 591.211 180.556V168.441H595.138V184.817C595.138 186.153 595.18 187.365 595.347 188.535H591.587C591.462 187.95 591.42 187.114 591.42 186.112ZM605.766 176.921V188.535H601.84V168.441H605.683V171.323C607.02 169.026 609.067 167.856 611.866 167.856C614.163 167.856 615.918 168.608 617.171 170.07C618.424 171.574 619.051 173.454 619.051 175.793V188.535H615.124V176.462C615.124 173.12 613.537 171.407 610.445 171.407C608.941 171.407 607.813 171.95 606.978 172.994C606.142 174.039 605.766 175.334 605.766 176.921ZM630.56 162.091V168.441H634.905V171.992H630.56V182.435C630.56 183.396 630.769 184.106 631.187 184.524C631.604 184.984 632.356 185.193 633.359 185.193C633.944 185.193 634.445 185.151 634.905 185.025V188.368C634.236 188.618 633.317 188.743 632.231 188.743C630.476 188.743 629.14 188.242 628.137 187.24C627.134 186.237 626.633 184.858 626.633 183.02V171.992H622.79V168.441H623.876C624.878 168.441 625.672 168.19 626.174 167.605C626.675 167.02 626.967 166.268 626.967 165.349V162.091H630.56Z" fill="black"/>
<path d="M984.059 158.937H993.719C996.469 158.937 998.645 159.689 1000.23 161.151C1001.81 162.655 1002.65 164.577 1002.65 166.958C1002.65 168.504 1002.23 169.84 1001.45 170.927C1000.61 172.055 999.568 172.848 998.227 173.35C999.846 173.767 1001.15 174.645 1002.11 175.981C1003.07 177.318 1003.57 178.822 1003.57 180.493C1003.57 182.833 1002.7 184.796 1001.03 186.3C999.307 187.804 997.096 188.556 994.415 188.556H984.059V158.937ZM988.149 171.887H993.249C994.833 171.887 996.139 171.47 997.096 170.592C998.018 169.715 998.523 168.587 998.523 167.167C998.523 165.747 998.018 164.619 997.061 163.783C996.051 162.948 994.763 162.53 993.092 162.53H988.149V171.887ZM988.149 184.963H993.841C995.512 184.963 996.852 184.545 997.844 183.668C998.854 182.833 999.394 181.663 999.394 180.242C999.394 178.78 998.941 177.611 998.018 176.733C997.096 175.856 995.756 175.397 993.998 175.397H988.149V184.963ZM1007.12 183.167C1007.12 181.454 1007.66 180.075 1008.79 179.031C1009.87 177.987 1011.37 177.318 1013.21 177.068L1018.64 176.274C1019.65 176.149 1020.19 175.647 1020.19 174.77C1020.19 173.726 1019.81 172.848 1019.1 172.18C1018.35 171.511 1017.27 171.177 1015.84 171.177C1014.5 171.177 1013.42 171.553 1012.67 172.305C1011.87 173.057 1011.42 174.018 1011.3 175.229L1007.54 174.352C1007.7 172.431 1008.58 170.885 1010.17 169.673C1011.72 168.462 1013.6 167.835 1015.76 167.835C1018.61 167.835 1020.7 168.545 1022.07 169.924C1023.41 171.303 1024.11 173.057 1024.11 175.188V185.256C1024.11 186.467 1024.2 187.553 1024.37 188.556H1020.52C1020.35 187.72 1020.32 186.843 1020.32 185.84C1019.72 186.759 1018.94 187.511 1017.84 188.18C1016.76 188.848 1015.42 189.182 1013.84 189.182C1011.84 189.182 1010.26 188.598 1009 187.428C1007.75 186.258 1007.12 184.838 1007.12 183.167ZM1014.38 185.882C1016.14 185.882 1017.51 185.423 1018.61 184.462C1019.65 183.543 1020.19 182.039 1020.19 179.95V179.031L1014.05 179.95C1013.13 180.117 1012.41 180.41 1011.93 180.911C1011.37 181.412 1011.13 182.122 1011.13 182.958C1011.13 183.752 1011.42 184.42 1012 185.005C1012.59 185.59 1013.39 185.882 1014.38 185.882ZM1034.15 188.556H1030.24V158.311H1034.15V188.556ZM1039.58 183.167C1039.58 181.454 1040.12 180.075 1041.26 179.031C1042.35 177.987 1043.85 177.318 1045.69 177.068L1051.13 176.274C1052.12 176.149 1052.66 175.647 1052.66 174.77C1052.66 173.726 1052.29 172.848 1051.58 172.18C1050.83 171.511 1049.73 171.177 1048.32 171.177C1046.98 171.177 1045.9 171.553 1045.14 172.305C1044.35 173.057 1043.88 174.018 1043.76 175.229L1040 174.352C1040.18 172.431 1041.05 170.885 1042.63 169.673C1044.18 168.462 1046.06 167.835 1048.24 167.835C1051.07 167.835 1053.16 168.545 1054.54 169.924C1055.88 171.303 1056.59 173.057 1056.59 175.188V185.256C1056.59 186.467 1056.68 187.553 1056.83 188.556H1053.01C1052.83 187.72 1052.8 186.843 1052.8 185.84C1052.2 186.759 1051.4 187.511 1050.32 188.18C1049.25 188.848 1047.9 189.182 1046.32 189.182C1044.3 189.182 1042.72 188.598 1041.46 187.428C1040.21 186.258 1039.58 184.838 1039.58 183.167ZM1046.86 185.882C1048.62 185.882 1049.99 185.423 1051.07 184.462C1052.12 183.543 1052.66 182.039 1052.66 179.95V179.031L1046.53 179.95C1045.61 180.117 1044.89 180.41 1044.39 180.911C1043.85 181.412 1043.61 182.122 1043.61 182.958C1043.61 183.752 1043.88 184.42 1044.48 185.005C1045.07 185.59 1045.85 185.882 1046.86 185.882ZM1066.63 176.942V188.556H1062.7V168.462H1066.55V171.344C1067.89 169.047 1069.94 167.877 1072.73 167.877C1075.02 167.877 1076.78 168.629 1078.04 170.091C1079.29 171.595 1079.92 173.475 1079.92 175.814V188.556H1076V176.483C1076 173.141 1074.4 171.428 1071.32 171.428C1069.8 171.428 1068.69 171.971 1067.85 173.015C1067.02 174.06 1066.63 175.355 1066.63 176.942ZM1094.61 171.47C1092.9 171.47 1091.44 172.096 1090.25 173.308C1089.09 174.561 1088.51 176.274 1088.51 178.488C1088.51 180.702 1089.09 182.415 1090.25 183.668C1091.44 184.921 1092.9 185.548 1094.64 185.548C1096.31 185.548 1097.57 185.13 1098.45 184.295C1099.32 183.459 1099.91 182.498 1100.25 181.412L1103.71 182.916C1103.14 184.587 1102.09 186.049 1100.54 187.302C1098.99 188.556 1097.03 189.182 1094.64 189.182C1091.72 189.182 1089.3 188.18 1087.38 186.133C1085.45 184.128 1084.49 181.579 1084.49 178.488C1084.49 175.397 1085.45 172.848 1087.38 170.843C1089.3 168.838 1091.68 167.835 1094.61 167.835C1097.03 167.835 1099.03 168.462 1100.54 169.715C1102.04 170.968 1103.05 172.472 1103.55 174.227L1100 175.731C1099.65 174.561 1099.08 173.558 1098.24 172.723C1097.36 171.887 1096.16 171.47 1094.61 171.47ZM1110.65 176.441H1121.66C1121.57 174.937 1121.06 173.726 1120.14 172.765C1119.18 171.804 1117.84 171.303 1116.14 171.303C1114.55 171.303 1113.3 171.846 1112.29 172.848C1111.28 173.851 1110.74 175.062 1110.65 176.441ZM1122.23 181.663L1125.62 182.833C1125.03 184.712 1123.95 186.258 1122.35 187.428C1120.77 188.598 1118.85 189.182 1116.59 189.182C1113.75 189.182 1111.37 188.222 1109.4 186.3C1107.45 184.378 1106.48 181.746 1106.48 178.446C1106.48 175.397 1107.4 172.848 1109.33 170.843C1111.21 168.838 1113.46 167.835 1116.09 167.835C1119.1 167.835 1121.48 168.796 1123.19 170.718C1124.86 172.639 1125.75 175.188 1125.75 178.363C1125.75 178.864 1125.69 179.282 1125.66 179.616H1110.53C1110.53 181.412 1111.12 182.874 1112.29 184.002C1113.46 185.172 1114.88 185.715 1116.59 185.715C1119.43 185.715 1121.31 184.378 1122.23 181.663Z" fill="black"/>
<path d="M484.266 333.765V331.843L488.36 330.924V333.723C488.36 335.645 488.819 337.065 489.738 337.984C490.657 338.945 491.869 339.404 493.456 339.404C494.96 339.404 496.13 338.945 497.007 337.984C497.843 337.065 498.302 335.728 498.302 334.015V312.961H502.396V333.723C502.396 336.396 501.561 338.652 499.931 340.49C498.302 342.329 496.172 343.206 493.498 343.206C490.615 343.206 488.36 342.37 486.73 340.658C485.059 338.945 484.266 336.647 484.266 333.765ZM507.834 337.19C507.834 335.477 508.377 334.099 509.505 333.054C510.591 332.01 512.095 331.342 513.933 331.091L519.364 330.297C520.366 330.172 520.909 329.671 520.909 328.793C520.909 327.749 520.533 326.872 519.823 326.203C519.071 325.535 517.985 325.201 516.565 325.201C515.228 325.201 514.142 325.577 513.39 326.329C512.596 327.081 512.137 328.041 512.011 329.253L508.251 328.376C508.419 326.454 509.296 324.908 510.883 323.697C512.429 322.485 514.309 321.859 516.481 321.859C519.322 321.859 521.411 322.569 522.789 323.947C524.126 325.326 524.836 327.081 524.836 329.211V339.279C524.836 340.49 524.92 341.577 525.087 342.579H521.244C521.077 341.744 521.035 340.866 521.035 339.864C520.45 340.783 519.656 341.535 518.57 342.203C517.484 342.872 516.147 343.206 514.56 343.206C512.554 343.206 510.967 342.621 509.714 341.451C508.46 340.282 507.834 338.861 507.834 337.19ZM515.103 339.906C516.857 339.906 518.236 339.446 519.322 338.485C520.366 337.566 520.909 336.062 520.909 333.974V333.054L514.768 333.974C513.849 334.141 513.139 334.433 512.638 334.934C512.095 335.436 511.844 336.146 511.844 336.981C511.844 337.775 512.137 338.443 512.721 339.028C513.306 339.613 514.1 339.906 515.103 339.906ZM539.393 325.493C537.68 325.493 536.218 326.12 535.049 327.331C533.879 328.585 533.294 330.297 533.294 332.511C533.294 334.725 533.879 336.438 535.049 337.691C536.218 338.945 537.68 339.571 539.435 339.571C541.106 339.571 542.359 339.154 543.236 338.318C544.114 337.483 544.699 336.522 545.033 335.436L548.5 336.94C547.915 338.611 546.871 340.073 545.325 341.326C543.78 342.579 541.816 343.206 539.435 343.206C536.511 343.206 534.088 342.203 532.166 340.156C530.244 338.151 529.284 335.603 529.284 332.511C529.284 329.42 530.244 326.872 532.166 324.867C534.088 322.861 536.469 321.859 539.393 321.859C541.816 321.859 543.821 322.485 545.325 323.739C546.829 324.992 547.832 326.496 548.333 328.25L544.782 329.754C544.448 328.585 543.863 327.582 543.028 326.746C542.15 325.911 540.939 325.493 539.393 325.493ZM561.508 339.697C563.262 339.697 564.725 339.07 565.936 337.817C567.147 336.564 567.774 334.767 567.774 332.511C567.774 330.297 567.147 328.543 565.936 327.289C564.725 326.036 563.262 325.368 561.508 325.368C559.753 325.368 558.249 326.036 557.038 327.289C555.826 328.543 555.242 330.297 555.242 332.511C555.242 334.767 555.826 336.564 557.038 337.817C558.249 339.07 559.753 339.697 561.508 339.697ZM561.508 321.859C564.474 321.859 566.939 322.903 568.86 324.908C570.782 326.914 571.785 329.462 571.785 332.511C571.785 335.603 570.824 338.193 568.902 340.198C566.98 342.203 564.516 343.206 561.508 343.206C558.5 343.206 556.035 342.203 554.114 340.198C552.192 338.193 551.231 335.603 551.231 332.511C551.231 329.462 552.192 326.914 554.114 324.908C556.035 322.903 558.5 321.859 561.508 321.859ZM580.695 342.579H576.81V312.334H580.695V325.326C581.196 324.365 582.032 323.571 583.201 322.903C584.371 322.235 585.75 321.9 587.337 321.9C590.261 321.9 592.517 322.903 594.146 324.867C595.734 326.872 596.569 329.378 596.569 332.428C596.569 335.519 595.734 338.109 594.063 340.114C592.392 342.12 590.094 343.122 587.212 343.122C584.204 343.122 582.032 341.994 580.695 339.655V342.579ZM592.559 332.428C592.559 330.256 592.016 328.543 590.93 327.289C589.844 326.036 588.423 325.368 586.627 325.368C584.872 325.368 583.41 326.036 582.324 327.289C581.196 328.585 580.653 330.297 580.653 332.428C580.653 334.6 581.196 336.313 582.324 337.65C583.41 338.987 584.872 339.613 586.627 339.613C588.381 339.613 589.844 338.987 590.93 337.65C592.016 336.355 592.559 334.6 592.559 332.428Z" fill="black"/>
<path d="M505.185 491.671H487.18V462.052H505.185V465.854H491.274V474.961H503.89V478.804H491.274V487.869H505.185V491.671ZM516.299 465.227V471.577H520.643V475.128H516.299V485.572C516.299 486.533 516.508 487.243 516.925 487.661C517.343 488.12 518.095 488.329 519.098 488.329C519.682 488.329 520.184 488.287 520.643 488.162V491.504C519.975 491.755 519.056 491.88 517.97 491.88C516.215 491.88 514.878 491.379 513.876 490.376C512.873 489.373 512.372 487.995 512.372 486.157V475.128H508.529V471.577H509.615C510.617 471.577 511.411 471.327 511.912 470.742C512.414 470.157 512.706 469.405 512.706 468.486V465.227H516.299ZM529.813 479.849V491.671H525.886V461.426H529.813V473.917C531.15 471.995 533.155 470.992 535.912 470.992C538.21 470.992 539.964 471.744 541.218 473.206C542.471 474.71 543.097 476.59 543.097 478.93V491.671H539.171V479.598C539.171 476.256 537.583 474.543 534.492 474.543C533.03 474.543 531.902 475.044 531.108 476.047C530.273 477.05 529.855 478.303 529.813 479.849ZM548.09 486.282C548.09 484.569 548.633 483.191 549.761 482.146C550.847 481.102 552.351 480.433 554.189 480.183L559.62 479.389C560.622 479.264 561.165 478.762 561.165 477.885C561.165 476.841 560.789 475.964 560.079 475.295C559.327 474.627 558.241 474.293 556.821 474.293C555.484 474.293 554.398 474.669 553.646 475.42C552.852 476.172 552.392 477.133 552.267 478.345L548.507 477.467C548.674 475.546 549.552 474 551.139 472.789C552.685 471.577 554.565 470.951 556.737 470.951C559.578 470.951 561.667 471.661 563.045 473.039C564.382 474.418 565.092 476.172 565.092 478.303V488.371C565.092 489.582 565.176 490.668 565.343 491.671H561.499C561.332 490.835 561.291 489.958 561.291 488.956C560.706 489.875 559.912 490.627 558.826 491.295C557.74 491.963 556.403 492.298 554.815 492.298C552.81 492.298 551.223 491.713 549.969 490.543C548.716 489.373 548.09 487.953 548.09 486.282ZM555.359 488.997C557.113 488.997 558.492 488.538 559.578 487.577C560.622 486.658 561.165 485.154 561.165 483.065V482.146L555.024 483.065C554.105 483.232 553.395 483.525 552.894 484.026C552.351 484.527 552.1 485.238 552.1 486.073C552.1 486.867 552.393 487.535 552.977 488.12C553.562 488.705 554.356 488.997 555.359 488.997ZM575.137 480.058V491.671H571.21V471.577H575.054V474.46C576.391 472.162 578.438 470.992 581.236 470.992C583.534 470.992 585.289 471.744 586.542 473.206C587.795 474.71 588.422 476.59 588.422 478.93V491.671H584.495V479.598C584.495 476.256 582.907 474.543 579.816 474.543C578.312 474.543 577.184 475.086 576.349 476.131C575.513 477.175 575.137 478.47 575.137 480.058Z" fill="black"/>
<path d="M507.666 645.739L504.449 637.468H491.332L488.199 645.739H483.812L495.593 616.121H500.314L512.094 645.739H507.666ZM497.849 620.382L492.794 633.666H502.987L497.849 620.382ZM517.797 635.63C517.797 637.76 518.298 639.473 519.342 640.81C520.387 642.147 521.849 642.815 523.687 642.815C525.441 642.815 526.82 642.147 527.906 640.768C528.951 639.431 529.494 637.677 529.494 635.546C529.494 633.457 528.95 631.786 527.948 630.491C526.904 629.238 525.483 628.57 523.729 628.57C521.932 628.57 520.512 629.238 519.426 630.533C518.34 631.87 517.797 633.541 517.797 635.63ZM529.535 643.024V642.69C528.992 643.734 528.199 644.611 527.112 645.28C526.026 645.948 524.773 646.282 523.311 646.282C520.428 646.282 518.131 645.28 516.376 643.275C514.622 641.269 513.786 638.721 513.786 635.63C513.786 632.705 514.663 630.241 516.46 628.194C518.214 626.147 520.512 625.102 523.311 625.102C524.94 625.102 526.277 625.437 527.321 626.105C528.324 626.773 529.034 627.567 529.452 628.486V615.494H533.337V642.021C533.337 643.4 533.379 644.653 533.546 645.739H529.744C529.577 644.987 529.535 644.068 529.535 643.024ZM538.762 640.35C538.762 638.638 539.306 637.259 540.434 636.215C541.52 635.17 543.024 634.502 544.862 634.251L550.292 633.457C551.295 633.332 551.838 632.831 551.838 631.954C551.838 630.909 551.462 630.032 550.752 629.363C550 628.695 548.914 628.361 547.493 628.361C546.157 628.361 545.071 628.737 544.319 629.489C543.525 630.241 543.065 631.202 542.94 632.413L539.18 631.536C539.347 629.614 540.225 628.068 541.812 626.857C543.358 625.645 545.238 625.019 547.41 625.019C550.251 625.019 552.339 625.729 553.718 627.108C555.055 628.486 555.765 630.241 555.765 632.371V642.439C555.765 643.651 555.848 644.737 556.016 645.739H552.172C552.005 644.904 551.963 644.027 551.963 643.024C551.379 643.943 550.585 644.695 549.499 645.363C548.413 646.032 547.076 646.366 545.488 646.366C543.483 646.366 541.896 645.781 540.642 644.611C539.389 643.442 538.762 642.021 538.762 640.35ZM546.031 643.066C547.786 643.066 549.165 642.606 550.251 641.645C551.295 640.726 551.838 639.222 551.838 637.134V636.215L545.697 637.134C544.778 637.301 544.068 637.593 543.567 638.094C543.024 638.596 542.773 639.306 542.773 640.141C542.773 640.935 543.065 641.604 543.65 642.188C544.235 642.773 545.029 643.066 546.031 643.066ZM565.768 645.739H561.883V625.645H565.643V628.319C566.228 627.275 567.105 626.481 568.233 625.896C569.319 625.353 570.489 625.061 571.742 625.061C573.037 625.061 574.249 625.395 575.335 626.021C576.421 626.69 577.215 627.609 577.758 628.862C579.136 626.356 581.392 625.061 584.484 625.061C586.405 625.061 588.035 625.729 589.371 627.024C590.708 628.361 591.418 630.241 591.418 632.706V645.739H587.533V633.123C587.533 631.745 587.157 630.617 586.447 629.781C585.737 628.946 584.692 628.528 583.272 628.528C581.894 628.528 580.766 629.029 579.93 629.99C579.053 630.951 578.635 632.162 578.635 633.583V645.739H574.708V633.123C574.708 631.745 574.332 630.617 573.622 629.781C572.912 628.946 571.868 628.528 570.447 628.528C569.027 628.528 567.899 629.029 567.063 629.948C566.186 630.909 565.768 632.121 565.768 633.625V645.739Z" fill="black"/>
<path d="M502.511 799.825L495.744 787.71H491.315V799.825H487.18V770.207H498.334C501.049 770.207 503.221 771.084 504.892 772.755C506.563 774.426 507.399 776.515 507.399 779.021C507.399 781.194 506.731 783.032 505.477 784.536C504.182 786.04 502.428 787 500.213 787.418L507.274 799.825H502.511ZM491.315 784.034H497.582C499.253 784.034 500.59 783.617 501.634 782.697C502.637 781.778 503.18 780.567 503.18 779.021C503.18 777.476 502.637 776.222 501.634 775.303C500.59 774.384 499.253 773.883 497.582 773.883H491.315V784.034ZM520.417 796.943C522.172 796.943 523.634 796.316 524.845 795.063C526.057 793.81 526.683 792.013 526.683 789.757C526.683 787.543 526.057 785.789 524.845 784.536C523.634 783.282 522.172 782.614 520.417 782.614C518.662 782.614 517.159 783.282 515.947 784.536C514.736 785.789 514.151 787.543 514.151 789.757C514.151 792.013 514.736 793.81 515.947 795.063C517.159 796.316 518.662 796.943 520.417 796.943ZM520.417 779.105C523.383 779.105 525.848 780.149 527.769 782.154C529.691 784.16 530.694 786.708 530.694 789.757C530.694 792.849 529.733 795.439 527.811 797.444C525.89 799.449 523.425 800.452 520.417 800.452C517.409 800.452 514.944 799.449 513.023 797.444C511.101 795.439 510.14 792.849 510.14 789.757C510.14 786.708 511.101 784.16 513.023 782.154C514.944 780.149 517.409 779.105 520.417 779.105ZM539.602 799.825H535.717V769.58H539.602V782.572C540.104 781.611 540.939 780.818 542.109 780.149C543.279 779.481 544.657 779.147 546.245 779.147C549.169 779.147 551.425 780.149 553.054 782.113C554.641 784.118 555.477 786.624 555.477 789.674C555.477 792.765 554.641 795.355 552.97 797.361C551.299 799.366 549.002 800.368 546.119 800.368C543.111 800.368 540.939 799.24 539.602 796.901V799.825ZM551.466 789.674C551.466 787.502 550.923 785.789 549.837 784.536C548.751 783.282 547.331 782.614 545.534 782.614C543.78 782.614 542.318 783.282 541.231 784.536C540.104 785.831 539.561 787.543 539.561 789.674C539.561 791.846 540.104 793.559 541.231 794.896C542.318 796.233 543.78 796.859 545.534 796.859C547.289 796.859 548.751 796.233 549.837 794.896C550.923 793.601 551.466 791.846 551.466 789.674ZM563.029 787.71H574.016C573.933 786.207 573.431 784.995 572.512 784.034C571.552 783.073 570.215 782.572 568.502 782.572C566.914 782.572 565.661 783.115 564.659 784.118C563.656 785.12 563.113 786.332 563.029 787.71ZM574.601 792.932L577.985 794.102C577.4 795.982 576.314 797.528 574.727 798.697C573.139 799.867 571.217 800.452 568.962 800.452C566.121 800.452 563.74 799.491 561.776 797.569C559.813 795.648 558.852 793.016 558.852 789.716C558.852 786.666 559.771 784.118 561.693 782.113C563.573 780.107 565.828 779.105 568.46 779.105C571.468 779.105 573.849 780.066 575.562 781.987C577.233 783.909 578.11 786.457 578.11 789.632C578.11 790.133 578.069 790.551 578.027 790.885H562.904C562.904 792.682 563.489 794.144 564.659 795.272C565.828 796.442 567.249 796.985 568.962 796.985C571.802 796.985 573.682 795.648 574.601 792.932ZM594.275 779.523V783.7C593.691 783.617 593.106 783.575 592.563 783.575C588.886 783.575 587.048 785.664 587.048 789.757V799.825H583.122V779.731H586.965V783.241C588.176 780.692 590.182 779.397 592.981 779.397C593.398 779.397 593.858 779.439 594.275 779.523ZM604.785 773.382V779.731H609.13V783.282H604.785V793.726C604.785 794.687 604.994 795.397 605.412 795.815C605.83 796.274 606.582 796.483 607.584 796.483C608.169 796.483 608.671 796.442 609.13 796.316V799.658C608.462 799.909 607.543 800.034 606.457 800.034C604.702 800.034 603.365 799.533 602.362 798.53C601.36 797.528 600.859 796.149 600.859 794.311V783.282H597.015V779.731H598.101C599.104 779.731 599.898 779.481 600.399 778.896C600.9 778.311 601.193 777.559 601.193 776.64V773.382H604.785Z" fill="black"/>
<path d="M1016.67 336.469V331.748L1028.28 315.498H1033.92V332.667H1038.57V336.469H1033.92V342.568H1029.95V336.469H1016.67ZM1029.95 332.667V319.425L1020.43 332.667H1029.95ZM1045.1 325.231L1041.01 324.73C1040.95 324.479 1040.95 324.145 1040.95 323.644C1040.95 321.221 1041.79 319.174 1043.51 317.461C1045.18 315.748 1047.48 314.871 1050.32 314.871C1053.12 314.871 1055.33 315.707 1057 317.294C1058.62 318.882 1059.46 320.845 1059.46 323.184C1059.46 326.61 1057.75 329.409 1054.37 331.539L1049.01 334.965C1047.1 336.218 1045.97 337.471 1045.72 338.767H1059.63V342.568H1040.66C1040.71 340.312 1041.21 338.307 1042.21 336.552C1043.22 334.84 1044.84 333.252 1047.1 331.79L1051.61 328.866C1054.08 327.278 1055.33 325.398 1055.33 323.226C1055.33 321.889 1054.86 320.761 1053.99 319.842C1053.07 318.923 1051.82 318.464 1050.23 318.464C1048.53 318.464 1047.22 319.007 1046.35 320.009C1045.43 321.054 1045.01 322.391 1045.01 324.02C1045.01 324.271 1045.01 324.688 1045.1 325.231ZM1064.24 339.894C1064.24 339.101 1064.49 338.432 1065.08 337.847C1065.62 337.263 1066.28 336.97 1067.12 336.97C1067.92 336.97 1068.58 337.263 1069.17 337.847C1069.74 338.432 1070.04 339.101 1070.04 339.894C1070.04 340.73 1069.74 341.398 1069.17 341.941C1068.58 342.526 1067.92 342.777 1067.12 342.777C1066.28 342.777 1065.62 342.526 1065.08 341.941C1064.49 341.398 1064.24 340.73 1064.24 339.894ZM1078.31 329.033C1078.31 333.21 1079.11 336.135 1080.69 337.806C1081.77 338.975 1083.23 339.56 1084.99 339.56C1086.75 339.56 1088.16 338.975 1089.29 337.806C1090.87 336.135 1091.68 333.21 1091.68 329.033C1091.68 324.855 1090.87 321.931 1089.29 320.26C1088.16 319.09 1086.75 318.506 1084.99 318.506C1083.23 318.506 1081.77 319.09 1080.69 320.26C1079.11 321.931 1078.31 324.855 1078.31 329.033ZM1074.25 329.033C1074.25 324.897 1075.05 321.639 1076.67 319.216C1078.6 316.333 1081.35 314.871 1084.99 314.871C1088.58 314.871 1091.38 316.333 1093.31 319.216C1094.9 321.639 1095.73 324.897 1095.73 329.033C1095.73 333.21 1094.9 336.469 1093.31 338.85C1091.38 341.774 1088.58 343.195 1084.99 343.195C1081.35 343.195 1078.6 341.774 1076.67 338.85C1075.05 336.469 1074.25 333.21 1074.25 329.033ZM1103.76 329.033C1103.76 333.21 1104.56 336.135 1106.14 337.806C1107.24 338.975 1108.7 339.56 1110.44 339.56C1112.2 339.56 1113.63 338.975 1114.76 337.806C1116.34 336.135 1117.12 333.21 1117.12 329.033C1117.12 324.855 1116.34 321.931 1114.76 320.26C1113.63 319.09 1112.2 318.506 1110.44 318.506C1108.7 318.506 1107.24 319.09 1106.14 320.26C1104.56 321.931 1103.76 324.855 1103.76 329.033ZM1099.72 329.033C1099.72 324.897 1100.5 321.639 1102.14 319.216C1104.05 316.333 1106.82 314.871 1110.44 314.871C1114.04 314.871 1116.85 316.333 1118.76 319.216C1120.34 321.639 1121.18 324.897 1121.18 329.033C1121.18 333.21 1120.34 336.469 1118.76 338.85C1116.85 341.774 1114.04 343.195 1110.44 343.195C1106.82 343.195 1104.05 341.774 1102.14 338.85C1100.5 336.469 1099.72 333.21 1099.72 329.033Z" fill="black"/>
<path d="M983.974 314.799V308.533H986.655V314.799H983.974ZM978.369 314.799V308.533H981.05V314.799H978.369ZM983.974 346.674V340.408H986.655V346.674H983.974ZM978.369 346.674V340.408H981.05V346.674H978.369ZM974.531 342.58V312.752H981.381C983.73 312.752 985.68 312.989 987.229 313.463C988.813 313.936 989.997 314.716 990.78 315.802C991.598 316.888 991.998 318.336 991.998 320.147C991.998 321.316 991.807 322.361 991.407 323.28C991.041 324.171 990.484 324.923 989.736 325.536C989.022 326.121 988.117 326.524 987.02 326.747V326.956C988.134 327.151 989.126 327.513 989.997 328.042C990.884 328.571 991.581 329.323 992.086 330.298C992.608 331.273 992.869 332.54 992.869 334.1C992.869 335.91 992.486 337.456 991.703 338.737C990.954 339.99 989.857 340.951 988.448 341.619C987.02 342.26 985.332 342.58 983.348 342.58H974.531ZM982.129 325.452C984.427 325.452 985.976 325.048 986.811 324.241C987.682 323.405 988.117 322.18 988.117 320.564C988.117 318.921 987.577 317.752 986.516 317.055C985.489 316.331 983.835 315.969 981.555 315.969H978.3V325.452H982.129ZM978.3 328.585V339.405H982.634C984.949 339.405 986.568 338.89 987.49 337.859C988.395 336.829 988.865 335.478 988.865 333.807C988.865 332.749 988.656 331.83 988.239 331.05C987.838 330.27 987.177 329.671 986.237 329.254C985.28 328.808 983.992 328.585 982.338 328.585H978.3Z" fill="black"/>
<path d="M1021.11 469.37L1017 468.869C1016.97 468.618 1016.97 468.284 1016.97 467.783C1016.97 465.36 1017.8 463.313 1019.51 461.6C1021.18 459.887 1023.48 459.01 1026.33 459.01C1029.12 459.01 1031.35 459.845 1033.02 461.433C1034.64 463.02 1035.47 464.984 1035.47 467.323C1035.47 470.749 1033.76 473.548 1030.37 475.678L1025.03 479.104C1023.11 480.357 1021.98 481.61 1021.74 482.905H1035.64V486.707H1016.67C1016.72 484.451 1017.21 482.446 1018.22 480.691C1019.23 478.978 1020.85 477.391 1023.11 475.929L1027.62 473.004C1030.09 471.417 1031.35 469.537 1031.35 467.365C1031.35 466.028 1030.88 464.9 1030.01 463.981C1029.08 463.062 1027.83 462.602 1026.25 462.602C1024.52 462.602 1023.23 463.146 1022.36 464.148C1021.44 465.193 1021.02 466.529 1021.02 468.159C1021.02 468.409 1021.02 468.827 1021.11 469.37ZM1043.46 473.172C1043.46 477.349 1044.26 480.273 1045.84 481.944C1046.94 483.114 1048.4 483.699 1050.14 483.699C1051.9 483.699 1053.33 483.114 1054.46 481.944C1056.04 480.273 1056.83 477.349 1056.83 473.172C1056.83 468.994 1056.04 466.07 1054.46 464.399C1053.33 463.229 1051.9 462.644 1050.14 462.644C1048.4 462.644 1046.94 463.229 1045.84 464.399C1044.26 466.07 1043.46 468.994 1043.46 473.172ZM1039.42 473.172C1039.42 469.036 1040.21 465.777 1041.84 463.354C1043.76 460.472 1046.52 459.01 1050.14 459.01C1053.75 459.01 1056.55 460.472 1058.46 463.354C1060.05 465.777 1060.88 469.036 1060.88 473.172C1060.88 477.349 1060.05 480.608 1058.46 482.989C1056.55 485.913 1053.75 487.333 1050.14 487.333C1046.52 487.333 1043.76 485.913 1041.84 482.989C1040.21 480.608 1039.42 477.349 1039.42 473.172ZM1064.24 484.033C1064.24 483.239 1064.49 482.571 1065.08 481.986C1065.62 481.401 1066.28 481.109 1067.12 481.109C1067.92 481.109 1068.58 481.401 1069.17 481.986C1069.74 482.571 1070.04 483.239 1070.04 484.033C1070.04 484.869 1069.74 485.537 1069.17 486.08C1068.58 486.665 1067.92 486.916 1067.12 486.916C1066.28 486.916 1065.62 486.665 1065.08 486.08C1064.49 485.537 1064.24 484.869 1064.24 484.033ZM1078.31 473.172C1078.31 477.349 1079.11 480.273 1080.69 481.944C1081.77 483.114 1083.23 483.699 1084.99 483.699C1086.75 483.699 1088.16 483.114 1089.29 481.944C1090.87 480.273 1091.68 477.349 1091.68 473.172C1091.68 468.994 1090.87 466.07 1089.29 464.399C1088.16 463.229 1086.75 462.644 1084.99 462.644C1083.23 462.644 1081.77 463.229 1080.69 464.399C1079.11 466.07 1078.31 468.994 1078.31 473.172ZM1074.25 473.172C1074.25 469.036 1075.05 465.777 1076.67 463.354C1078.6 460.472 1081.35 459.01 1084.99 459.01C1088.58 459.01 1091.38 460.472 1093.31 463.354C1094.9 465.777 1095.73 469.036 1095.73 473.172C1095.73 477.349 1094.9 480.608 1093.31 482.989C1091.38 485.913 1088.58 487.333 1084.99 487.333C1081.35 487.333 1078.6 485.913 1076.67 482.989C1075.05 480.608 1074.25 477.349 1074.25 473.172ZM1103.76 473.172C1103.76 477.349 1104.56 480.273 1106.14 481.944C1107.24 483.114 1108.7 483.699 1110.44 483.699C1112.2 483.699 1113.63 483.114 1114.76 481.944C1116.34 480.273 1117.12 477.349 1117.12 473.172C1117.12 468.994 1116.34 466.07 1114.76 464.399C1113.63 463.229 1112.2 462.644 1110.44 462.644C1108.7 462.644 1107.24 463.229 1106.14 464.399C1104.56 466.07 1103.76 468.994 1103.76 473.172ZM1099.72 473.172C1099.72 469.036 1100.5 465.777 1102.14 463.354C1104.05 460.472 1106.82 459.01 1110.44 459.01C1114.04 459.01 1116.85 460.472 1118.76 463.354C1120.34 465.777 1121.18 469.036 1121.18 473.172C1121.18 477.349 1120.34 480.608 1118.76 482.989C1116.85 485.913 1114.04 487.333 1110.44 487.333C1106.82 487.333 1104.05 485.913 1102.14 482.989C1100.5 480.608 1099.72 477.349 1099.72 473.172Z" fill="black"/>
<path d="M983.974 458.938V452.672H986.655V458.938H983.974ZM978.369 458.938V452.672H981.05V458.938H978.369ZM983.974 490.813V484.546H986.655V490.813H983.974ZM978.369 490.813V484.546H981.05V490.813H978.369ZM974.531 486.719V456.891H981.381C983.73 456.891 985.68 457.128 987.229 457.601C988.813 458.075 989.997 458.855 990.78 459.941C991.598 461.027 991.998 462.475 991.998 464.285C991.998 465.455 991.807 466.499 991.407 467.418C991.041 468.31 990.484 469.062 989.736 469.674C989.022 470.259 988.117 470.663 987.02 470.886V471.095C988.134 471.29 989.126 471.652 989.997 472.181C990.884 472.71 991.581 473.462 992.086 474.437C992.608 475.411 992.869 476.679 992.869 478.238C992.869 480.048 992.486 481.594 991.703 482.875C990.954 484.129 989.857 485.089 988.448 485.758C987.02 486.398 985.332 486.719 983.348 486.719H974.531ZM982.129 469.591C984.427 469.591 985.976 469.187 986.811 468.379C987.682 467.544 988.117 466.318 988.117 464.703C988.117 463.06 987.577 461.89 986.516 461.194C985.489 460.47 983.835 460.108 981.555 460.108H978.3V469.591H982.129ZM978.3 472.724V483.544H982.634C984.949 483.544 986.568 483.028 987.49 481.998C988.395 480.968 988.865 479.617 988.865 477.946C988.865 476.888 988.656 475.968 988.239 475.189C987.838 474.409 987.177 473.81 986.237 473.392C985.28 472.947 983.992 472.724 982.338 472.724H978.3Z" fill="black"/>
<path d="M1021.38 632.236C1021.38 636.413 1022.18 639.338 1023.76 641.009C1024.84 642.178 1026.3 642.763 1028.06 642.763C1029.82 642.763 1031.23 642.178 1032.36 641.009C1033.94 639.338 1034.74 636.413 1034.74 632.236C1034.74 628.058 1033.94 625.134 1032.36 623.463C1031.23 622.294 1029.82 621.709 1028.06 621.709C1026.3 621.709 1024.84 622.294 1023.76 623.463C1022.18 625.134 1021.38 628.058 1021.38 632.236ZM1017.32 632.236C1017.32 628.1 1018.12 624.842 1019.74 622.419C1021.67 619.536 1024.42 618.074 1028.06 618.074C1031.65 618.074 1034.45 619.536 1036.38 622.419C1037.96 624.842 1038.8 628.1 1038.8 632.236C1038.8 636.413 1037.96 639.672 1036.38 642.053C1034.45 644.977 1031.65 646.398 1028.06 646.398C1024.42 646.398 1021.67 644.977 1019.74 642.053C1018.12 639.672 1017.32 636.413 1017.32 632.236ZM1042.35 639.672V634.951L1053.98 618.701H1059.62V635.87H1064.25V639.672H1059.62V645.771H1055.65V639.672H1042.35ZM1055.65 635.87V622.628L1046.11 635.87H1055.65ZM1067.82 643.098C1067.82 642.304 1068.06 641.635 1068.65 641.051C1069.19 640.466 1069.85 640.173 1070.69 640.173C1071.49 640.173 1072.15 640.466 1072.74 641.051C1073.32 641.635 1073.61 642.304 1073.61 643.098C1073.61 643.933 1073.32 644.601 1072.74 645.145C1072.15 645.729 1071.49 645.98 1070.69 645.98C1069.85 645.98 1069.19 645.729 1068.65 645.145C1068.06 644.601 1067.82 643.933 1067.82 643.098ZM1081.88 632.236C1081.88 636.413 1082.66 639.338 1084.26 641.009C1085.34 642.178 1086.81 642.763 1088.56 642.763C1090.32 642.763 1091.73 642.178 1092.86 641.009C1094.45 639.338 1095.25 636.413 1095.25 632.236C1095.25 628.058 1094.45 625.134 1092.86 623.463C1091.73 622.294 1090.32 621.709 1088.56 621.709C1086.81 621.709 1085.34 622.294 1084.26 623.463C1082.66 625.134 1081.88 628.058 1081.88 632.236ZM1077.82 632.236C1077.82 628.1 1078.63 624.842 1080.24 622.419C1082.18 619.536 1084.93 618.074 1088.56 618.074C1092.15 618.074 1094.95 619.536 1096.87 622.419C1098.47 624.842 1099.3 628.1 1099.3 632.236C1099.3 636.413 1098.47 639.672 1096.87 642.053C1094.95 644.977 1092.15 646.398 1088.56 646.398C1084.93 646.398 1082.18 644.977 1080.24 642.053C1078.63 639.672 1077.82 636.413 1077.82 632.236ZM1107.33 632.236C1107.33 636.413 1108.13 639.338 1109.71 641.009C1110.81 642.178 1112.27 642.763 1114.01 642.763C1115.77 642.763 1117.2 642.178 1118.33 641.009C1119.91 639.338 1120.7 636.413 1120.7 632.236C1120.7 628.058 1119.91 625.134 1118.33 623.463C1117.2 622.294 1115.77 621.709 1114.01 621.709C1112.27 621.709 1110.81 622.294 1109.71 623.463C1108.13 625.134 1107.33 628.058 1107.33 632.236ZM1103.29 632.236C1103.29 628.1 1104.07 624.842 1105.71 622.419C1107.62 619.536 1110.39 618.074 1114.01 618.074C1117.62 618.074 1120.42 619.536 1122.33 622.419C1123.92 624.842 1124.75 628.1 1124.75 632.236C1124.75 636.413 1123.92 639.672 1122.33 642.053C1120.42 644.977 1117.62 646.398 1114.01 646.398C1110.39 646.398 1107.62 644.977 1105.71 642.053C1104.07 639.672 1103.29 636.413 1103.29 632.236Z" fill="black"/>
<path d="M983.974 617.973V611.707H986.655V617.973H983.974ZM978.369 617.973V611.707H981.05V617.973H978.369ZM983.974 649.848V643.581H986.655V649.848H983.974ZM978.369 649.848V643.581H981.05V649.848H978.369ZM974.531 645.754V615.926H981.381C983.73 615.926 985.68 616.163 987.229 616.636C988.813 617.11 989.997 617.89 990.78 618.976C991.598 620.062 991.998 621.51 991.998 623.321C991.998 624.49 991.807 625.535 991.407 626.454C991.041 627.345 990.484 628.097 989.736 628.71C989.022 629.294 988.117 629.698 987.02 629.921V630.13C988.134 630.325 989.126 630.687 989.997 631.216C990.884 631.745 991.581 632.497 992.086 633.472C992.608 634.447 992.869 635.714 992.869 637.273C992.869 639.084 992.486 640.629 991.703 641.91C990.954 643.164 989.857 644.125 988.448 644.793C987.02 645.433 985.332 645.754 983.348 645.754H974.531ZM982.129 628.626C984.427 628.626 985.976 628.222 986.811 627.415C987.682 626.579 988.117 625.354 988.117 623.738C988.117 622.095 987.577 620.925 986.516 620.229C985.489 619.505 983.835 619.143 981.555 619.143H978.3V628.626H982.129ZM978.3 631.759V642.579H982.634C984.949 642.579 986.568 642.064 987.49 641.033C988.395 640.003 988.865 638.652 988.865 636.981C988.865 635.923 988.656 635.004 988.239 634.224C987.838 633.444 987.177 632.845 986.237 632.427C985.28 631.982 983.992 631.759 982.338 631.759H978.3Z" fill="black"/>
<path d="M1016.67 798.69V793.969L1028.28 777.718H1033.92V794.888H1038.57V798.69H1033.92V804.789H1029.95V798.69H1016.67ZM1029.95 794.888V781.645L1020.43 794.888H1029.95ZM1040.66 797.436L1044.59 796.267C1044.68 797.938 1045.31 799.316 1046.44 800.319C1047.55 801.363 1048.98 801.864 1050.68 801.864C1052.32 801.864 1053.69 801.363 1054.83 800.361C1055.91 799.358 1056.5 798.063 1056.5 796.392C1056.5 794.637 1055.91 793.259 1054.83 792.256C1053.69 791.295 1052.32 790.794 1050.65 790.794C1048.6 790.794 1046.98 791.462 1045.72 792.757C1045.31 792.632 1044.68 792.381 1043.79 792.006C1042.89 791.671 1042.21 791.379 1041.7 791.17L1045.22 777.718H1059.51V781.478H1047.93L1045.93 789.248C1047.1 787.912 1048.94 787.243 1051.45 787.243C1054.11 787.243 1056.32 788.079 1058.05 789.666C1059.75 791.295 1060.64 793.468 1060.64 796.225C1060.64 798.857 1059.72 801.071 1057.87 802.825C1056.04 804.58 1053.61 805.457 1050.68 805.457C1047.9 805.457 1045.55 804.705 1043.72 803.118C1041.88 801.572 1040.83 799.692 1040.66 797.436ZM1064.61 802.115C1064.61 801.321 1064.85 800.653 1065.44 800.068C1065.98 799.483 1066.65 799.191 1067.48 799.191C1068.28 799.191 1068.94 799.483 1069.53 800.068C1070.13 800.653 1070.41 801.321 1070.41 802.115C1070.41 802.951 1070.13 803.619 1069.53 804.162C1068.94 804.747 1068.28 804.998 1067.48 804.998C1066.65 804.998 1065.98 804.747 1065.44 804.162C1064.85 803.619 1064.61 802.951 1064.61 802.115ZM1078.67 791.254C1078.67 795.431 1079.47 798.355 1081.06 800.026C1082.14 801.196 1083.6 801.781 1085.36 801.781C1087.12 801.781 1088.53 801.196 1089.66 800.026C1091.24 798.355 1092.04 795.431 1092.04 791.254C1092.04 787.076 1091.24 784.152 1089.66 782.481C1088.53 781.311 1087.12 780.726 1085.36 780.726C1083.6 780.726 1082.14 781.311 1081.06 782.481C1079.47 784.152 1078.67 787.076 1078.67 791.254ZM1074.62 791.254C1074.62 787.118 1075.42 783.859 1077.04 781.436C1078.97 778.554 1081.72 777.092 1085.36 777.092C1088.94 777.092 1091.75 778.554 1093.68 781.436C1095.26 783.859 1096.1 787.118 1096.1 791.254C1096.1 795.431 1095.26 798.69 1093.68 801.071C1091.75 803.995 1088.94 805.415 1085.36 805.415C1081.72 805.415 1078.97 803.995 1077.04 801.071C1075.42 798.69 1074.62 795.431 1074.62 791.254ZM1104.14 791.254C1104.14 795.431 1104.92 798.355 1106.51 800.026C1107.6 801.196 1109.06 801.781 1110.82 801.781C1112.56 801.781 1113.99 801.196 1115.12 800.026C1116.71 798.355 1117.51 795.431 1117.51 791.254C1117.51 787.076 1116.71 784.152 1115.12 782.481C1113.99 781.311 1112.56 780.726 1110.82 780.726C1109.06 780.726 1107.6 781.311 1106.51 782.481C1104.92 784.152 1104.14 787.076 1104.14 791.254ZM1100.08 791.254C1100.08 787.118 1100.87 783.859 1102.5 781.436C1104.42 778.554 1107.18 777.092 1110.82 777.092C1114.41 777.092 1117.21 778.554 1119.13 781.436C1120.71 783.859 1121.54 787.118 1121.54 791.254C1121.54 795.431 1120.71 798.69 1119.13 801.071C1117.21 803.995 1114.41 805.415 1110.82 805.415C1107.18 805.415 1104.42 803.995 1102.5 801.071C1100.87 798.69 1100.08 795.431 1100.08 791.254Z" fill="black"/>
<path d="M983.974 777.005V770.738H986.655V777.005H983.974ZM978.369 777.005V770.738H981.05V777.005H978.369ZM983.974 808.879V802.613H986.655V808.879H983.974ZM978.369 808.879V802.613H981.05V808.879H978.369ZM974.531 804.785V774.958H981.381C983.73 774.958 985.68 775.194 987.229 775.668C988.813 776.141 989.997 776.921 990.78 778.007C991.598 779.093 991.998 780.542 991.998 782.352C991.998 783.521 991.807 784.566 991.407 785.485C991.041 786.376 990.484 787.128 989.736 787.741C989.022 788.326 988.117 788.729 987.02 788.952V789.161C988.134 789.356 989.126 789.718 989.997 790.247C990.884 790.776 991.581 791.528 992.086 792.503C992.608 793.478 992.869 794.745 992.869 796.305C992.869 798.115 992.486 799.661 991.703 800.942C990.954 802.195 989.857 803.156 988.448 803.824C987.02 804.465 985.332 804.785 983.348 804.785H974.531ZM982.129 787.657C984.427 787.657 985.976 787.253 986.811 786.446C987.682 785.61 988.117 784.385 988.117 782.769C988.117 781.126 987.577 779.957 986.516 779.26C985.489 778.536 983.835 778.174 981.555 778.174H978.3V787.657H982.129ZM978.3 790.79V801.61H982.634C984.949 801.61 986.568 801.095 987.49 800.064C988.395 799.034 988.865 797.683 988.865 796.012C988.865 794.954 988.656 794.035 988.239 793.255C987.838 792.475 987.177 791.876 986.237 791.459C985.28 791.013 983.992 790.79 982.338 790.79H978.3Z" fill="black"/>
<path d="M519.179 953.862H515.127V930.802L505.018 953.862H501.258L491.232 930.802V953.862H487.18V924.243H492.736L503.18 948.347L513.707 924.243H519.179V953.862ZM524.836 948.473C524.836 946.76 525.38 945.382 526.508 944.337C527.594 943.293 529.098 942.624 530.936 942.374L536.366 941.58C537.369 941.455 537.912 940.953 537.912 940.076C537.912 939.032 537.536 938.154 536.826 937.486C536.074 936.818 534.988 936.483 533.568 936.483C532.231 936.483 531.145 936.859 530.393 937.611C529.599 938.363 529.139 939.324 529.014 940.536L525.254 939.658C525.421 937.737 526.299 936.191 527.886 934.979C529.432 933.768 531.312 933.141 533.484 933.141C536.325 933.141 538.413 933.852 539.792 935.23C541.129 936.609 541.839 938.363 541.839 940.494V950.562C541.839 951.773 541.923 952.859 542.09 953.862H538.246C538.079 953.026 538.037 952.149 538.037 951.146C537.453 952.066 536.659 952.817 535.573 953.486C534.487 954.154 533.15 954.488 531.562 954.488C529.557 954.488 527.97 953.904 526.716 952.734C525.463 951.564 524.836 950.144 524.836 948.473ZM532.105 951.188C533.86 951.188 535.239 950.729 536.325 949.768C537.369 948.849 537.912 947.345 537.912 945.256V944.337L531.771 945.256C530.852 945.423 530.142 945.716 529.641 946.217C529.098 946.718 528.847 947.428 528.847 948.264C528.847 949.058 529.139 949.726 529.724 950.311C530.309 950.896 531.103 951.188 532.105 951.188ZM559.11 933.559V937.737C558.525 937.653 557.94 937.611 557.397 937.611C553.721 937.611 551.882 939.7 551.882 943.794V953.862H547.956V933.768H551.799V937.277C553.01 934.729 555.016 933.434 557.815 933.434C558.232 933.434 558.692 933.476 559.11 933.559ZM569.619 927.418V933.768H573.964V937.319H569.619V947.763C569.619 948.723 569.828 949.434 570.246 949.851C570.664 950.311 571.416 950.52 572.418 950.52C573.003 950.52 573.505 950.478 573.964 950.353V953.695C573.296 953.945 572.377 954.071 571.291 954.071C569.536 954.071 568.199 953.569 567.196 952.567C566.194 951.564 565.693 950.186 565.693 948.347V937.319H561.849V933.768H562.935C563.938 933.768 564.732 933.517 565.233 932.933C565.734 932.348 566.027 931.596 566.027 930.677V927.418H569.619ZM583.09 953.862H579.205V933.768H583.09V953.862ZM578.328 926.165C578.328 925.413 578.578 924.745 579.122 924.16C579.665 923.617 580.333 923.324 581.127 923.324C581.879 923.324 582.547 923.617 583.132 924.16C583.675 924.703 583.967 925.371 583.967 926.165C583.967 926.959 583.675 927.627 583.132 928.17C582.547 928.713 581.879 928.964 581.127 928.964C580.333 928.964 579.665 928.713 579.122 928.17C578.578 927.627 578.328 926.959 578.328 926.165ZM593.699 942.248V953.862H589.773V933.768H593.616V936.65C594.953 934.353 597 933.183 599.799 933.183C602.096 933.183 603.851 933.935 605.104 935.397C606.357 936.901 606.984 938.781 606.984 941.12V953.862H603.057V941.789C603.057 938.447 601.47 936.734 598.378 936.734C596.874 936.734 595.746 937.277 594.911 938.322C594.075 939.366 593.699 940.661 593.699 942.248Z" fill="black"/>
<path d="M1031.91 948.947H1027.89V929.856H1021.35V926.973C1023.18 926.973 1024.72 926.472 1025.98 925.553C1027.23 924.634 1027.98 923.381 1028.31 921.877H1031.91V948.947ZM1046.64 948.947H1042.62V929.856H1036.07V926.973C1037.9 926.973 1039.45 926.472 1040.7 925.553C1041.96 924.634 1042.71 923.381 1043.04 921.877H1046.64V948.947ZM1052.26 946.273C1052.26 945.48 1052.52 944.811 1053.1 944.226C1053.65 943.642 1054.32 943.349 1055.15 943.349C1055.95 943.349 1056.61 943.642 1057.2 944.226C1057.78 944.811 1058.07 945.48 1058.07 946.273C1058.07 947.109 1057.78 947.777 1057.2 948.32C1056.61 948.905 1055.95 949.156 1055.15 949.156C1054.32 949.156 1053.65 948.905 1053.1 948.32C1052.52 947.777 1052.26 947.109 1052.26 946.273ZM1066.34 935.412C1066.34 939.589 1067.13 942.514 1068.71 944.185C1069.81 945.354 1071.27 945.939 1073.03 945.939C1074.77 945.939 1076.19 945.354 1077.33 944.185C1078.91 942.514 1079.71 939.589 1079.71 935.412C1079.71 931.234 1078.91 928.31 1077.33 926.639C1076.19 925.469 1074.77 924.884 1073.03 924.884C1071.27 924.884 1069.81 925.469 1068.71 926.639C1067.13 928.31 1066.34 931.234 1066.34 935.412ZM1062.29 935.412C1062.29 931.276 1063.07 928.018 1064.71 925.595C1066.62 922.712 1069.39 921.25 1073.03 921.25C1076.61 921.25 1079.42 922.712 1081.33 925.595C1082.91 928.018 1083.75 931.276 1083.75 935.412C1083.75 939.589 1082.91 942.848 1081.33 945.229C1079.42 948.153 1076.61 949.574 1073.03 949.574C1069.39 949.574 1066.62 948.153 1064.71 945.229C1063.07 942.848 1062.29 939.589 1062.29 935.412ZM1091.79 935.412C1091.79 939.589 1092.59 942.514 1094.18 944.185C1095.25 945.354 1096.72 945.939 1098.47 945.939C1100.23 945.939 1101.64 945.354 1102.77 944.185C1104.36 942.514 1105.16 939.589 1105.16 935.412C1105.16 931.234 1104.36 928.31 1102.77 926.639C1101.64 925.469 1100.23 924.884 1098.47 924.884C1096.72 924.884 1095.25 925.469 1094.18 926.639C1092.59 928.31 1091.79 931.234 1091.79 935.412ZM1087.74 935.412C1087.74 931.276 1088.54 928.018 1090.15 925.595C1092.09 922.712 1094.84 921.25 1098.47 921.25C1102.06 921.25 1104.86 922.712 1106.8 925.595C1108.38 928.018 1109.21 931.276 1109.21 935.412C1109.21 939.589 1108.38 942.848 1106.8 945.229C1104.86 948.153 1102.06 949.574 1098.47 949.574C1094.84 949.574 1092.09 948.153 1090.15 945.229C1088.54 942.848 1087.74 939.589 1087.74 935.412Z" fill="black"/>
<path d="M989.032 921.139V914.873H991.712V921.139H989.032ZM983.444 921.139V914.873H986.108V921.139H983.444ZM989.032 953.014V946.748H991.712V953.014H989.032ZM983.444 953.014V946.748H986.108V953.014H983.444ZM979.598 948.92V919.092H986.438C988.788 919.092 990.738 919.329 992.287 919.803C993.888 920.276 995.072 921.056 995.838 922.142C996.656 923.228 997.056 924.676 997.056 926.487C997.056 927.656 996.865 928.701 996.464 929.62C996.116 930.511 995.559 931.263 994.793 931.876C994.08 932.46 993.175 932.864 992.078 933.087V933.296C993.192 933.491 994.184 933.853 995.054 934.382C995.942 934.911 996.638 935.663 997.143 936.638C997.665 937.613 997.927 938.88 997.927 940.439C997.927 942.25 997.544 943.795 996.76 945.076C996.012 946.33 994.933 947.291 993.505 947.959C992.078 948.6 990.39 948.92 988.405 948.92H979.598ZM987.204 931.792C989.484 931.792 991.034 931.388 991.869 930.581C992.739 929.745 993.175 928.52 993.175 926.904C993.175 925.261 992.635 924.091 991.591 923.395C990.546 922.671 988.893 922.309 986.612 922.309H983.357V931.792H987.204ZM983.357 934.925V945.745H987.692C990.007 945.745 991.625 945.23 992.548 944.199C993.47 943.169 993.923 941.818 993.923 940.147C993.923 939.089 993.714 938.17 993.296 937.39C992.913 936.61 992.235 936.011 991.295 935.594C990.337 935.148 989.049 934.925 987.413 934.925H983.357Z" fill="black"/>
<path d="M510.49 1102.99H506.396V1089.83H491.274V1102.99H487.18V1073.37H491.274V1086.03H506.396V1073.37H510.49V1102.99ZM516.147 1097.6C516.147 1095.89 516.69 1094.51 517.818 1093.46C518.904 1092.42 520.408 1091.75 522.246 1091.5L527.677 1090.71C528.68 1090.58 529.223 1090.08 529.223 1089.2C529.223 1088.16 528.847 1087.28 528.137 1086.61C527.385 1085.95 526.299 1085.61 524.878 1085.61C523.542 1085.61 522.455 1085.99 521.703 1086.74C520.91 1087.49 520.45 1088.45 520.325 1089.66L516.565 1088.79C516.732 1086.86 517.609 1085.32 519.197 1084.11C520.743 1082.9 522.622 1082.27 524.795 1082.27C527.635 1082.27 529.724 1082.98 531.103 1084.36C532.44 1085.74 533.15 1087.49 533.15 1089.62V1099.69C533.15 1100.9 533.233 1101.99 533.4 1102.99H529.557C529.39 1102.15 529.348 1101.28 529.348 1100.27C528.763 1101.19 527.97 1101.95 526.884 1102.61C525.797 1103.28 524.461 1103.62 522.873 1103.62C520.868 1103.62 519.28 1103.03 518.027 1101.86C516.774 1100.69 516.147 1099.27 516.147 1097.6ZM523.416 1100.32C525.171 1100.32 526.549 1099.86 527.635 1098.9C528.68 1097.98 529.223 1096.47 529.223 1094.38V1093.46L523.082 1094.38C522.163 1094.55 521.453 1094.84 520.951 1095.34C520.408 1095.85 520.158 1096.56 520.158 1097.39C520.158 1098.19 520.45 1098.85 521.035 1099.44C521.62 1100.02 522.414 1100.32 523.416 1100.32ZM550.42 1082.69V1086.86C549.835 1086.78 549.251 1086.74 548.708 1086.74C545.031 1086.74 543.193 1088.83 543.193 1092.92V1102.99H539.266V1082.9H543.11V1086.4C544.321 1083.86 546.326 1082.56 549.125 1082.56C549.543 1082.56 550.003 1082.6 550.42 1082.69ZM565.761 1082.69V1086.86C565.176 1086.78 564.591 1086.74 564.048 1086.74C560.372 1086.74 558.533 1088.83 558.533 1092.92V1102.99H554.607V1082.9H558.45V1086.4C559.661 1083.86 561.667 1082.56 564.466 1082.56C564.883 1082.56 565.343 1082.6 565.761 1082.69ZM575.571 1111.39H571.268L576.281 1100.78L567.633 1082.9H572.145L578.412 1096.77L584.427 1082.9H588.646L575.571 1111.39Z" fill="black"/>
<path d="M1029.54 1095.37L1027.52 1091.99L1035.51 1084.63H1022.56V1080.87H1040.94V1084.55L1033.21 1091.69C1035.38 1091.69 1037.33 1092.45 1039 1093.87C1040.68 1095.33 1041.56 1097.33 1041.56 1099.92C1041.56 1102.35 1040.68 1104.39 1038.93 1106.07C1037.18 1107.78 1034.76 1108.61 1031.75 1108.61C1028.73 1108.61 1026.35 1107.82 1024.56 1106.15C1022.76 1104.48 1021.81 1102.47 1021.67 1100.09L1025.69 1099.17C1025.78 1100.93 1026.35 1102.35 1027.48 1103.43C1028.61 1104.52 1030.02 1105.02 1031.69 1105.02C1033.45 1105.02 1034.88 1104.56 1035.87 1103.6C1036.88 1102.64 1037.42 1101.43 1037.42 1100.01C1037.42 1098.38 1036.88 1097.13 1035.8 1096.25C1034.71 1095.41 1033.42 1094.95 1031.9 1094.95C1031.07 1094.95 1030.28 1095.12 1029.54 1095.37ZM1054.64 1107.94H1050.61V1088.85H1044.05V1085.97C1045.9 1085.97 1047.45 1085.47 1048.7 1084.55C1049.95 1083.63 1050.7 1082.38 1051.03 1080.87H1054.64V1107.94ZM1060.26 1105.27C1060.26 1104.48 1060.5 1103.81 1061.09 1103.22C1061.63 1102.64 1062.31 1102.35 1063.15 1102.35C1063.93 1102.35 1064.61 1102.64 1065.18 1103.22C1065.78 1103.81 1066.07 1104.48 1066.07 1105.27C1066.07 1106.11 1065.78 1106.78 1065.18 1107.32C1064.61 1107.9 1063.93 1108.15 1063.15 1108.15C1062.31 1108.15 1061.63 1107.9 1061.09 1107.32C1060.5 1106.78 1060.26 1106.11 1060.26 1105.27ZM1074.32 1094.41C1074.32 1098.59 1075.12 1101.51 1076.71 1103.18C1077.8 1104.35 1079.27 1104.94 1081.01 1104.94C1082.76 1104.94 1084.19 1104.35 1085.32 1103.18C1086.91 1101.51 1087.69 1098.59 1087.69 1094.41C1087.69 1090.23 1086.91 1087.31 1085.32 1085.64C1084.19 1084.47 1082.76 1083.88 1081.01 1083.88C1079.27 1083.88 1077.8 1084.47 1076.71 1085.64C1075.12 1087.31 1074.32 1090.23 1074.32 1094.41ZM1070.28 1094.41C1070.28 1090.27 1071.07 1087.02 1072.7 1084.59C1074.62 1081.71 1077.39 1080.25 1081.01 1080.25C1084.61 1080.25 1087.41 1081.71 1089.33 1084.59C1090.91 1087.02 1091.75 1090.27 1091.75 1094.41C1091.75 1098.59 1090.91 1101.85 1089.33 1104.23C1087.41 1107.15 1084.61 1108.57 1081.01 1108.57C1077.39 1108.57 1074.62 1107.15 1072.7 1104.23C1071.07 1101.85 1070.28 1098.59 1070.28 1094.41ZM1099.79 1094.41C1099.79 1098.59 1100.57 1101.51 1102.17 1103.18C1103.25 1104.35 1104.71 1104.94 1106.47 1104.94C1108.23 1104.94 1109.64 1104.35 1110.77 1103.18C1112.35 1101.51 1113.16 1098.59 1113.16 1094.41C1113.16 1090.23 1112.35 1087.31 1110.77 1085.64C1109.64 1084.47 1108.23 1083.88 1106.47 1083.88C1104.71 1083.88 1103.25 1084.47 1102.17 1085.64C1100.57 1087.31 1099.79 1090.23 1099.79 1094.41ZM1095.73 1094.41C1095.73 1090.27 1096.53 1087.02 1098.15 1084.59C1100.08 1081.71 1102.83 1080.25 1106.47 1080.25C1110.06 1080.25 1112.86 1081.71 1114.77 1084.59C1116.38 1087.02 1117.21 1090.27 1117.21 1094.41C1117.21 1098.59 1116.38 1101.85 1114.77 1104.23C1112.86 1107.15 1110.06 1108.57 1106.47 1108.57C1102.83 1108.57 1100.08 1107.15 1098.15 1104.23C1096.53 1101.85 1095.73 1098.59 1095.73 1094.41Z" fill="black"/>
<path d="M989.032 1080.14V1073.87H991.712V1080.14H989.032ZM983.444 1080.14V1073.87H986.108V1080.14H983.444ZM989.032 1112.01V1105.75H991.712V1112.01H989.032ZM983.444 1112.01V1105.75H986.108V1112.01H983.444ZM979.598 1107.92V1078.09H986.438C988.788 1078.09 990.738 1078.33 992.287 1078.8C993.888 1079.27 995.072 1080.05 995.838 1081.14C996.656 1082.23 997.056 1083.67 997.056 1085.48C997.056 1086.65 996.865 1087.7 996.464 1088.62C996.116 1089.51 995.559 1090.26 994.793 1090.87C994.08 1091.46 993.175 1091.86 992.078 1092.09V1092.29C993.192 1092.49 994.184 1092.85 995.054 1093.38C995.942 1093.91 996.638 1094.66 997.143 1095.64C997.665 1096.61 997.927 1097.88 997.927 1099.44C997.927 1101.25 997.544 1102.79 996.76 1104.07C996.012 1105.33 994.933 1106.29 993.505 1106.96C992.078 1107.6 990.39 1107.92 988.405 1107.92H979.598ZM987.204 1090.79C989.484 1090.79 991.034 1090.39 991.869 1089.58C992.739 1088.74 993.175 1087.52 993.175 1085.9C993.175 1084.26 992.635 1083.09 991.591 1082.39C990.546 1081.67 988.893 1081.31 986.612 1081.31H983.357V1090.79H987.204ZM983.357 1093.92V1104.74H987.692C990.007 1104.74 991.625 1104.23 992.548 1103.2C993.47 1102.17 993.923 1100.82 993.923 1099.15C993.923 1098.09 993.714 1097.17 993.296 1096.39C992.913 1095.61 992.235 1095.01 991.295 1094.59C990.337 1094.15 989.049 1093.92 987.413 1093.92H983.357Z" fill="black"/>
</g>
<defs>
<filter id="filter0_d_906_4978" x="214.723" y="81.7285" width="1156.85" height="1119.56" filterUnits="userSpaceOnUse" color-interpolation-filters="sRGB">
<feFlood flood-opacity="0" result="BackgroundImageFix"/>
<feColorMatrix in="SourceAlpha" type="matrix" values="0 0 0 0 0 0 0 0 0 0 0 0 0 0 0 0 0 0 127 0" result="hardAlpha"/>
<feOffset dx="4" dy="4"/>
<feGaussianBlur stdDeviation="12"/>
<feComposite in2="hardAlpha" operator="out"/>
<feColorMatrix type="matrix" values="0 0 0 0 0 0 0 0 0 0 0 0 0 0 0 0 0 0 0.17 0"/>
<feBlend mode="normal" in2="BackgroundImageFix" result="effect1_dropShadow_906_4978"/>
<feBlend mode="normal" in="SourceGraphic" in2="effect1_dropShadow_906_4978" result="shape"/>
</filter>
</defs>
</svg>
